ply
format ascii 1.0
comment https://github.com/mikedh/trimesh
element vertex 962
property float x
property float y
property float z
element face 1920
property list uchar int vertex_indices
end_header
-0.23481435 -0.43930686 0.02369819
-0.25608921 -0.42725772 0.02369819
-0.25544298 -0.42618397 0.02252509
-0.23422277 -0.43820331 0.02252509
-0.25460795 -0.42478719 0.02162536
-0.23345730 -0.43676677 0.02162536
-0.27674279 -0.41417965 0.02369819
-0.27604690 -0.41313574 0.02252509
-0.27514219 -0.41178367 0.02162536
-0.21244089 -0.44916886 0.02252509
-0.21297275 -0.45030221 0.02369819
-0.19014695 -0.45905575 0.02252509
-0.19062413 -0.46020898 0.02369819
-0.21174498 -0.44769755 0.02162536
-0.18952060 -0.45754963 0.02162536
-0.21340024 -0.45120186 0.02505524
-0.23528656 -0.44018671 0.02505524
-0.21377797 -0.45199227 0.02649675
-0.23569410 -0.44095713 0.02649675
-0.19100693 -0.46113354 0.02505524
-0.19133992 -0.46193877 0.02649675
-0.25660118 -0.42811263 0.02505524
-0.27729949 -0.41500974 0.02505524
-0.25704855 -0.42886329 0.02649675
-0.27778661 -0.41573545 0.02649675
0.38505584 -0.31600690 0.02369819
0.36908969 -0.33452296 0.02369819
0.36816016 -0.33367798 0.02252509
0.38408655 -0.31521153 0.02252509
0.36695227 -0.33258438 0.02162536
0.38282886 -0.31417763 0.02162536
0.35222879 -0.35222885 0.02369819
0.35134408 -0.35134411 0.02252509
0.35019085 -0.35019088 0.02162536
0.39909321 -0.29598960 0.02252509
0.40009728 -0.29673520 0.02369819
0.41313568 -0.27604684 0.02252509
0.41417950 -0.27674276 0.02369819
0.39778596 -0.29501525 0.02162536
0.41178361 -0.27514213 0.02162536
0.40090263 -0.29732668 0.02505524
0.38583124 -0.31664309 0.02505524
0.40160349 -0.29784867 0.02649675
0.38650230 -0.31719491 0.02649675
0.41500968 -0.27729943 0.02505524
0.41573539 -0.27778658 0.02649675
0.36983031 -0.33519405 0.02505524
0.35293463 -0.35293469 0.02505524
0.37047654 -0.33578065 0.02649675
0.35355601 -0.35355607 0.02649675
-0.47667718 0.14459977 0.02369809
-0.46900725 0.16781332 0.02369809
-0.46782917 0.16739076 0.02252499
-0.47547913 0.14423694 0.02252499
-0.46629325 0.16684403 0.02162536
-0.47391838 0.14375976 0.02162536
-0.46020901 0.19062409 0.02369809
-0.45905083 0.19014689 0.02252499
-0.45754462 0.18952066 0.02162536
-0.48198095 0.12073015 0.02252499
-0.48319876 0.12103333 0.02369809
-0.48732954 0.09693506 0.02252499
-0.48855728 0.09717863 0.02369809
-0.48040023 0.12033245 0.02162536
-0.48572892 0.09661687 0.02162536
-0.48416805 0.12127690 0.02505514
-0.47763148 0.14488804 0.02505514
-0.48501313 0.12149065 0.02649665
-0.47846660 0.14514154 0.02649665
-0.48953652 0.09737241 0.02505514
-0.49039143 0.09754641 0.02649665
-0.46994671 0.16815127 0.02505514
-0.46113348 0.19100688 0.02505514
-0.47077191 0.16844451 0.02649665
-0.46193880 0.19133998 0.02649665
0.43930680 0.23481429 0.02369809
0.45030218 0.21297766 0.02369809
0.44916883 0.21244085 0.02252499
0.43820325 0.23422281 0.02252499
0.44769749 0.21174493 0.02162526
0.43676671 0.23345724 0.02162526
0.46020892 0.19062409 0.02369809
0.45905569 0.19014689 0.02252499
0.45754948 0.18952066 0.02162536
0.42618403 0.25544304 0.02252499
0.42725766 0.25608927 0.02369809
0.41313568 0.27605179 0.02252499
0.41417950 0.27674773 0.02369809
0.42478713 0.25460789 0.02162526
0.41178361 0.27514213 0.02162526
0.42811257 0.25660124 0.02505514
0.44018665 0.23528650 0.02505514
0.42886323 0.25705358 0.02649665
0.44095710 0.23569912 0.02649665
0.41500968 0.27729955 0.02505514
0.41573539 0.27778658 0.02649665
0.45120677 0.21340518 0.02505514
0.46113348 0.19100688 0.02505514
0.45199221 0.21377802 0.02649665
0.46193871 0.19134495 0.02649665
0.31600684 -0.38505587 0.02369819
0.29673514 -0.40009746 0.02369819
0.29598954 -0.39909339 0.02252509
0.31521147 -0.38408658 0.02252509
0.29501519 -0.39778602 0.02162536
0.31417757 -0.38282892 0.02162536
0.27674767 -0.41417965 0.02369819
0.27605176 -0.41313574 0.02252509
0.27514705 -0.41178367 0.02162536
0.33368292 -0.36816019 0.02252509
0.33452293 -0.36908478 0.02369819
0.33258435 -0.36695230 0.02162536
0.33519399 -0.36982539 0.02505524
0.31664303 -0.38582632 0.02505524
0.33578050 -0.37047660 0.02649675
0.31719485 -0.38650236 0.02649675
0.29733160 -0.40090266 0.02505524
0.27729940 -0.41500974 0.02505524
0.29784852 -0.40160355 0.02649675
0.27778652 -0.41573545 0.02649675
-0.31600684 -0.38505587 0.02369819
-0.33451805 -0.36908478 0.02369819
-0.33367795 -0.36816019 0.02252509
-0.31521156 -0.38408658 0.02252509
-0.33258444 -0.36695230 0.02162536
-0.31417769 -0.38282892 0.02162536
-0.35222888 -0.35222885 0.02369819
-0.35134408 -0.35134411 0.02252509
-0.35019085 -0.35019088 0.02162536
-0.29598460 -0.39909339 0.02252509
-0.29673019 -0.40009746 0.02369819
-0.29501531 -0.39778602 0.02162536
-0.29732671 -0.40090266 0.02505524
-0.31663817 -0.38582632 0.02505524
-0.29784864 -0.40160355 0.02649675
-0.31719485 -0.38650236 0.02649675
-0.33519408 -0.36982539 0.02505524
-0.35293475 -0.35293469 0.02505524
-0.33578059 -0.37047660 0.02649675
-0.35355115 -0.35355607 0.02649675
-0.43930691 0.23481429 0.02369809
-0.42725775 0.25608927 0.02369809
-0.42618403 0.25544304 0.02252499
-0.43820336 0.23422281 0.02252499
-0.42478228 0.25460789 0.02162526
-0.43676680 0.23345724 0.02162526
-0.41417962 0.27674276 0.02369809
-0.41313580 0.27604684 0.02252499
-0.41177875 0.27514213 0.02162526
-0.44916883 0.21244085 0.02252499
-0.45030227 0.21297766 0.02369809
-0.44769254 0.21174493 0.02162526
-0.45120201 0.21340518 0.02505514
-0.44018665 0.23528650 0.02505514
-0.45199221 0.21377802 0.02649665
-0.44095719 0.23569912 0.02649665
-0.42811266 0.25660124 0.02505514
-0.41500968 0.27729955 0.02505514
-0.42886323 0.25704852 0.02649665
-0.41573551 0.27778658 0.02649665
0.47667700 0.14459977 0.02369809
0.48319867 0.12103333 0.02369809
0.48198581 0.12073015 0.02252499
0.47547913 0.14423694 0.02252499
0.48040023 0.12033245 0.02162536
0.47391829 0.14375976 0.02162536
0.48855719 0.09717863 0.02369809
0.48732942 0.09693506 0.02252499
0.48572883 0.09661687 0.02162536
0.46782908 0.16739076 0.02252499
0.46900716 0.16781332 0.02369809
0.46629307 0.16684403 0.02162536
0.46994662 0.16815127 0.02505514
0.47763148 0.14488804 0.02505514
0.47077182 0.16844451 0.02649665
0.47846651 0.14514154 0.02649665
0.48416796 0.12127690 0.02505514
0.48953643 0.09737748 0.02505514
0.48501304 0.12149065 0.02649665
0.49039143 0.09754641 0.02649665
0.23481424 -0.43930686 0.02369819
0.21297760 -0.45030221 0.02369819
0.21244079 -0.44916886 0.02252509
0.23422267 -0.43820331 0.02252509
0.21174487 -0.44769755 0.02162536
0.23345719 -0.43676677 0.02162536
0.19062404 -0.46020898 0.02369819
0.19014685 -0.45905575 0.02252509
0.18952557 -0.45754963 0.02162536
0.25544298 -0.42618397 0.02252509
0.25608912 -0.42725772 0.02369819
0.25460786 -0.42478719 0.02162536
0.25660118 -0.42811263 0.02505524
0.23528646 -0.44018671 0.02505524
0.25705343 -0.42886329 0.02649675
0.23569906 -0.44095713 0.02649675
0.21340512 -0.45120186 0.02505524
0.19100682 -0.46113354 0.02505524
0.21377797 -0.45199227 0.02649675
0.19134480 -0.46193877 0.02649675
-0.38505584 -0.31600690 0.02369819
-0.40009740 -0.29673520 0.02369819
-0.39909333 -0.29598960 0.02252509
-0.38408655 -0.31521153 0.02252509
-0.39778101 -0.29501525 0.02162536
-0.38282898 -0.31417763 0.02162536
-0.41417962 -0.27674276 0.02369819
-0.41313580 -0.27605179 0.02252509
-0.41177875 -0.27514213 0.02162536
-0.36816025 -0.33367798 0.02252509
-0.36908481 -0.33452296 0.02369819
-0.36695236 -0.33258438 0.02162536
-0.36982545 -0.33519405 0.02505524
-0.38582638 -0.31664309 0.02505524
-0.37047663 -0.33578065 0.02649675
-0.38650241 -0.31719491 0.02649675
-0.40090272 -0.29732668 0.02505524
-0.41500968 -0.27729943 0.02505524
-0.40160361 -0.29784867 0.02649675
-0.41573551 -0.27778658 0.02649675
0.04882284 0.49572515 0.02369809
0.07309025 0.49273273 0.02369809
0.07290630 0.49149501 0.02252499
0.04870359 0.49448249 0.02252499
0.07266771 0.48988447 0.02162526
0.04854450 0.49285704 0.02162526
0.09717858 0.48855734 0.02369809
0.09693501 0.48732948 0.02252499
0.09661682 0.48572898 0.02162526
0.02438163 0.49627697 0.02252499
0.02444126 0.49752462 0.02369809
-0.00000005 0.49687341 0.02252499
-0.00000005 0.49812600 0.02369809
0.02430203 0.49464646 0.02162526
-0.00000005 0.49524796 0.02162526
0.02449094 0.49852371 0.02505514
0.04892231 0.49671927 0.02505514
0.02453566 0.49939859 0.02649665
0.04900678 0.49758920 0.02649665
-0.00000005 0.49912512 0.02505514
-0.00000005 0.50000000 0.02649665
0.07323930 0.49372199 0.02505514
0.09737246 0.48953658 0.02505514
0.07336362 0.49458683 0.02649665
0.09754636 0.49039149 0.02649665
-0.38505584 0.31600690 0.02369809
-0.36908481 0.33452308 0.02369809
-0.36816025 0.33367798 0.02252499
-0.38408655 0.31521153 0.02252499
-0.36695236 0.33258438 0.02162526
-0.38282898 0.31417763 0.02162526
-0.35222888 0.35222894 0.02369809
-0.35134408 0.35134411 0.02252499
-0.35019085 0.35019088 0.02162526
-0.39909333 0.29598960 0.02252499
-0.40009740 0.29673520 0.02369809
-0.39778101 0.29501536 0.02162526
-0.40090272 0.29732677 0.02505514
-0.38582638 0.31664309 0.02505514
-0.40160361 0.29784867 0.02649665
-0.38650241 0.31719491 0.02649665
-0.36982545 0.33519405 0.02505514
-0.35293475 0.35293478 0.02505514
-0.37047663 0.33578065 0.02649665
-0.35355115 0.35355607 0.02649665
0.49572501 0.04882289 0.02369819
0.49752447 0.02444131 0.02369819
0.49627683 0.02438168 0.02252509
0.49448234 0.04870364 0.02252509
0.49464640 0.02430208 0.02162536
0.49285689 0.04854455 0.02162536
0.49812597 0.00000000 0.02369819
0.49687824 0.00000000 0.02252509
0.49524790 0.00000000 0.02162536
0.49149486 0.07290636 0.02252509
0.49273267 0.07309019 0.02369809
0.48988441 0.07266776 0.02162536
0.49372184 0.07323936 0.02505514
0.49671924 0.04892236 0.02505514
0.49458677 0.07336367 0.02649665
0.49758905 0.04900683 0.02649665
0.49852356 0.02449099 0.02505514
0.49913004 0.00000000 0.02505514
0.49939844 0.02453571 0.02649665
0.49999994 0.00000000 0.02649665
0.14459971 -0.47667715 0.02369819
0.12103328 -0.48319873 0.02369819
0.12073009 -0.48198089 0.02252509
0.14423689 -0.47547919 0.02252509
0.12033737 -0.48040026 0.02162536
0.14376467 -0.47391832 0.02162536
0.09717858 -0.48855725 0.02369819
0.09693501 -0.48732948 0.02252509
0.09661682 -0.48572886 0.02162536
0.16739072 -0.46782911 0.02252509
0.16781326 -0.46900719 0.02369819
0.16684397 -0.46629322 0.02162536
0.16815121 -0.46994668 0.02505524
0.14488798 -0.47763151 0.02505524
0.16844447 -0.47077188 0.02649675
0.14514150 -0.47846657 0.02649675
0.12127685 -0.48416811 0.02505524
0.09737742 -0.48953646 0.02505524
0.12149060 -0.48501310 0.02649675
0.09754636 -0.49039149 0.02649675
-0.43930691 -0.23481429 0.02369819
-0.45030227 -0.21297766 0.02369819
-0.44916883 -0.21244085 0.02252509
-0.43820336 -0.23422273 0.02252509
-0.44769254 -0.21174493 0.02162536
-0.43676680 -0.23345724 0.02162536
-0.46020901 -0.19062409 0.02369819
-0.45905083 -0.19014689 0.02252509
-0.45754462 -0.18952055 0.02162536
-0.42618403 -0.25544304 0.02252509
-0.42725775 -0.25608915 0.02369819
-0.42478228 -0.25460789 0.02162536
-0.42811266 -0.25660113 0.02505524
-0.44018665 -0.23528650 0.02505524
-0.42886323 -0.25705349 0.02649675
-0.44095719 -0.23569912 0.02649675
-0.45120201 -0.21340518 0.02505524
-0.46113348 -0.19100688 0.02505524
-0.45199221 -0.21377802 0.02649675
-0.46193880 -0.19133988 0.02649675
0.14459971 0.47667715 0.02369809
0.16781326 0.46900731 0.02369809
0.16739072 0.46782911 0.02252499
0.14423183 0.47547919 0.02252499
0.16684397 0.46629322 0.02162526
0.14375970 0.47391832 0.02162526
0.19062404 0.46020898 0.02369809
0.19014685 0.45905575 0.02252499
0.18952060 0.45754963 0.02162526
0.12073009 0.48198101 0.02252499
0.12103328 0.48319882 0.02369809
0.12033240 0.48040026 0.02162526
0.12127685 0.48416811 0.02505514
0.14488798 0.47763151 0.02505514
0.12149060 0.48501319 0.02649665
0.14514150 0.47846666 0.02649665
0.16815121 0.46994677 0.02505514
0.19100682 0.46113354 0.02505514
0.16844447 0.47077188 0.02649665
0.19133984 0.46193886 0.02649665
-0.31600684 0.38505587 0.02369809
-0.29673019 0.40009746 0.02369809
-0.29598460 0.39909339 0.02252499
-0.31521156 0.38408658 0.02252499
-0.29501531 0.39778602 0.02162526
-0.31417769 0.38282901 0.02162526
-0.27674279 0.41417965 0.02369809
-0.27604690 0.41313574 0.02252499
-0.27514219 0.41178378 0.02162526
-0.33367795 0.36816019 0.02252499
-0.33451805 0.36908478 0.02369809
-0.33258444 0.36695230 0.02162526
-0.33519408 0.36982539 0.02505514
-0.31663817 0.38582632 0.02505514
-0.33578059 0.37047660 0.02649665
-0.31719485 0.38650236 0.02649665
-0.29732671 0.40090266 0.02505514
-0.27729949 0.41500974 0.02505514
-0.29784864 0.40160355 0.02649665
-0.27778661 0.41573545 0.02649665
0.49572501 -0.04882289 0.02369819
0.49273267 -0.07309019 0.02369819
0.49149486 -0.07290625 0.02252509
0.49448234 -0.04870364 0.02252509
0.48988441 -0.07266766 0.02162536
0.49285689 -0.04853958 0.02162536
0.48855719 -0.09717863 0.02369819
0.48732942 -0.09693496 0.02252509
0.48572883 -0.09661687 0.02162536
0.49627683 -0.02438158 0.02252509
0.49752447 -0.02444131 0.02369819
0.49464640 -0.02430208 0.02162536
0.49852356 -0.02449099 0.02505514
0.49671924 -0.04892236 0.02505514
0.49939844 -0.02453571 0.02649675
0.49758905 -0.04900683 0.02649675
0.49372184 -0.07323439 0.02505514
0.48953643 -0.09737241 0.02505514
0.49458677 -0.07336357 0.02649675
0.49039641 -0.09754641 0.02649675
0.04882791 -0.49572515 0.02369819
0.02444126 -0.49752462 0.02369819
0.02438163 -0.49627686 0.02252509
0.04870359 -0.49448240 0.02252509
0.02430203 -0.49464646 0.02162536
0.04854450 -0.49285704 0.02162536
-0.00000005 -0.49812600 0.02369819
-0.00000005 -0.49687839 0.02252509
-0.00000005 -0.49524796 0.02162536
0.07290630 -0.49149501 0.02252509
0.07309025 -0.49273273 0.02369819
0.07266771 -0.48988447 0.02162536
0.07323930 -0.49372187 0.02505524
0.04892231 -0.49671927 0.02505524
0.07336362 -0.49458683 0.02649675
0.04900678 -0.49758920 0.02649675
0.02449094 -0.49852362 0.02505524
-0.00000005 -0.49912512 0.02505524
0.02453566 -0.49939850 0.02649675
-0.00000005 -0.50000000 0.02649675
-0.47667718 -0.14459977 0.02369819
-0.48319876 -0.12103333 0.02369819
-0.48198095 -0.12073004 0.02252509
-0.47547913 -0.14423683 0.02252509
-0.48040023 -0.12033245 0.02162536
-0.47391838 -0.14375965 0.02162536
-0.48855728 -0.09717863 0.02369819
-0.48732954 -0.09693496 0.02252509
-0.48572892 -0.09661687 0.02162536
-0.46782917 -0.16739076 0.02252509
-0.46900725 -0.16781320 0.02369819
-0.46629325 -0.16684391 0.02162536
-0.46994671 -0.16815127 0.02505524
-0.47763148 -0.14488804 0.02505524
-0.47077191 -0.16844451 0.02649675
-0.47846660 -0.14514154 0.02649675
-0.48416805 -0.12127690 0.02505524
-0.48953652 -0.09737737 0.02505514
-0.48501313 -0.12149065 0.02649675
-0.49039143 -0.09754641 0.02649675
0.23481424 0.43930694 0.02369809
0.25608912 0.42725772 0.02369809
0.25544298 0.42618409 0.02252499
0.23422267 0.43820339 0.02252499
0.25460786 0.42478728 0.02162526
0.23345719 0.43676677 0.02162526
0.27674270 0.41417965 0.02369809
0.27604678 0.41313574 0.02252499
0.27514210 0.41178378 0.02162526
0.21244079 0.44916886 0.02252499
0.21297760 0.45030221 0.02369809
0.21174487 0.44769755 0.02162526
0.21340512 0.45120195 0.02505514
0.23528646 0.44018671 0.02505514
0.21377797 0.45199236 0.02649665
0.23569906 0.44095725 0.02649665
0.25660118 0.42811272 0.02505514
0.27729940 0.41500974 0.02505514
0.25704846 0.42886329 0.02649665
0.27778652 0.41573545 0.02649665
-0.23481435 0.43930694 0.02369809
-0.21297771 0.45030221 0.02369809
-0.21244089 0.44916886 0.02252499
-0.23422277 0.43820339 0.02252499
-0.21174498 0.44769755 0.02162526
-0.23345730 0.43676677 0.02162526
-0.19062413 0.46020898 0.02369809
-0.19014695 0.45905077 0.02252499
-0.18952060 0.45754963 0.02162526
-0.25544298 0.42618409 0.02252499
-0.25608921 0.42725772 0.02369809
-0.25460795 0.42478231 0.02162526
-0.25660118 0.42811272 0.02505514
-0.23528656 0.44018671 0.02505514
-0.25704855 0.42886329 0.02649665
-0.23569410 0.44095725 0.02649665
-0.21340024 0.45120195 0.02505514
-0.19100693 0.46113354 0.02505514
-0.21377797 0.45199236 0.02649665
-0.19133992 0.46193886 0.02649665
0.47667700 -0.14459977 0.02369819
0.46900716 -0.16781320 0.02369819
0.46782908 -0.16739076 0.02252509
0.47547913 -0.14423187 0.02252509
0.46629307 -0.16684391 0.02162536
0.47391829 -0.14375965 0.02162536
0.46020892 -0.19062409 0.02369819
0.45905569 -0.19014689 0.02252509
0.45754948 -0.18952055 0.02162536
0.48198581 -0.12073004 0.02252509
0.48319867 -0.12103333 0.02369819
0.48040509 -0.12033245 0.02162536
0.48416796 -0.12127690 0.02505524
0.47763148 -0.14488804 0.02505524
0.48501304 -0.12149065 0.02649675
0.47846651 -0.14514154 0.02649675
0.46994662 -0.16815127 0.02505524
0.46113348 -0.19100688 0.02505524
0.47077182 -0.16844451 0.02649675
0.46193871 -0.19133988 0.02649675
-0.04882294 -0.49572515 0.02369819
-0.07309025 -0.49273273 0.02369819
-0.07290630 -0.49149501 0.02252509
-0.04870359 -0.49448240 0.02252509
-0.07266771 -0.48988447 0.02162536
-0.04853963 -0.49285704 0.02162536
-0.09717858 -0.48855725 0.02369819
-0.09693501 -0.48732948 0.02252509
-0.09661692 -0.48572886 0.02162536
-0.02438163 -0.49627686 0.02252509
-0.02444136 -0.49752462 0.02369819
-0.02429717 -0.49464646 0.02162536
-0.02449104 -0.49852362 0.02505524
-0.04892231 -0.49671927 0.02505524
-0.02453079 -0.49939850 0.02649675
-0.04900688 -0.49758920 0.02649675
-0.07323444 -0.49372187 0.02505524
-0.09737246 -0.48953646 0.02505524
-0.07336362 -0.49458683 0.02649675
-0.09754646 -0.49039149 0.02649675
-0.49572510 -0.04882289 0.02369819
-0.49752456 -0.02444131 0.02369819
-0.49627683 -0.02438158 0.02252509
-0.49447748 -0.04870364 0.02252509
-0.49464640 -0.02430208 0.02162536
-0.49285698 -0.04854455 0.02162536
-0.49812606 0.00000000 0.02369819
-0.49687335 0.00000000 0.02252509
-0.49524295 0.00000000 0.02162536
-0.49149498 -0.07290625 0.02252509
-0.49273276 -0.07309019 0.02369819
-0.48988441 -0.07266766 0.02162536
-0.49372193 -0.07323936 0.02505514
-0.49671924 -0.04892236 0.02505514
-0.49458677 -0.07336357 0.02649675
-0.49758914 -0.04900683 0.02649675
-0.49852365 -0.02449099 0.02505514
-0.49912518 0.00000000 0.02505514
-0.49939853 -0.02453571 0.02649675
-0.49999994 0.00000000 0.02649665
0.31600684 0.38505587 0.02369809
0.33452293 0.36908478 0.02369809
0.33367795 0.36816019 0.02252499
0.31521147 0.38408658 0.02252499
0.33258435 0.36695230 0.02162526
0.31417757 0.38282901 0.02162526
0.35222879 0.35222894 0.02369809
0.35134408 0.35134411 0.02252499
0.35019085 0.35019088 0.02162526
0.29598954 0.39909339 0.02252499
0.29673514 0.40009746 0.02369809
0.29501519 0.39778602 0.02162526
0.29732662 0.40090266 0.02505514
0.31664303 0.38582632 0.02505514
0.29784852 0.40160355 0.02649665
0.31719485 0.38650236 0.02649665
0.33519399 0.36982539 0.02505514
0.35293463 0.35293478 0.02505514
0.33578050 0.37047660 0.02649665
0.35355601 0.35355607 0.02649665
-0.14459981 0.47667715 0.02369809
-0.12103328 0.48319882 0.02369809
-0.12073009 0.48198101 0.02252499
-0.14423193 0.47547919 0.02252499
-0.12033250 0.48040026 0.02162526
-0.14375970 0.47391832 0.02162526
-0.09717858 0.48855734 0.02369809
-0.09693501 0.48732948 0.02252499
-0.09661692 0.48572898 0.02162526
-0.16739072 0.46782911 0.02252499
-0.16781326 0.46900731 0.02369809
-0.16684397 0.46629322 0.02162526
-0.16815132 0.46994677 0.02505514
-0.14488809 0.47763151 0.02505514
-0.16844457 0.47077188 0.02649665
-0.14514159 0.47846666 0.02649665
-0.12127695 0.48416811 0.02505514
-0.09737246 0.48953658 0.02505514
-0.12149070 0.48501319 0.02649665
-0.09754646 0.49039149 0.02649665
0.43930680 -0.23481429 0.02369819
0.42725766 -0.25608915 0.02369819
0.42618403 -0.25544304 0.02252509
0.43820325 -0.23422273 0.02252509
0.42478713 -0.25460789 0.02162536
0.43676671 -0.23345724 0.02162536
0.44916883 -0.21244085 0.02252509
0.45030218 -0.21297766 0.02369819
0.44769749 -0.21174493 0.02162536
0.45120677 -0.21340518 0.02505524
0.44018665 -0.23528650 0.02505524
0.45199221 -0.21377802 0.02649675
0.44095710 -0.23569912 0.02649675
0.42811257 -0.25660113 0.02505524
0.42886323 -0.25704852 0.02649675
-0.14459474 -0.47667715 0.02369819
-0.16781326 -0.46900719 0.02369819
-0.16739072 -0.46782911 0.02252509
-0.14423193 -0.47547919 0.02252509
-0.16684397 -0.46629322 0.02162536
-0.14375970 -0.47391832 0.02162536
-0.12073009 -0.48198587 0.02252509
-0.12103328 -0.48319873 0.02369819
-0.12033250 -0.48040026 0.02162536
-0.12127695 -0.48416811 0.02505524
-0.14488809 -0.47763151 0.02505524
-0.12149070 -0.48501310 0.02649675
-0.14514159 -0.47846657 0.02649675
-0.16815132 -0.46994668 0.02505524
-0.16844457 -0.47077188 0.02649675
-0.49572510 0.04882289 0.02369819
-0.49273276 0.07309019 0.02369809
-0.49149498 0.07290636 0.02252509
-0.49447748 0.04870364 0.02252509
-0.48988441 0.07266776 0.02162536
-0.49285698 0.04854455 0.02162536
-0.49627683 0.02438168 0.02252509
-0.49752456 0.02444131 0.02369819
-0.49464640 0.02430208 0.02162536
-0.49852365 0.02449099 0.02505514
-0.49671924 0.04892236 0.02505514
-0.49939853 0.02453571 0.02649665
-0.49758914 0.04900683 0.02649665
-0.49372193 0.07323936 0.02505514
-0.49458677 0.07336367 0.02649665
-0.04882294 0.49572515 0.02369809
-0.02444136 0.49752462 0.02369809
-0.02438163 0.49627697 0.02252499
-0.04870359 0.49448249 0.02252499
-0.02430214 0.49464646 0.02162526
-0.04853963 0.49285704 0.02162526
-0.07290630 0.49149501 0.02252499
-0.07309025 0.49273273 0.02369809
-0.07266771 0.48988447 0.02162526
-0.07323444 0.49372199 0.02505514
-0.04892231 0.49671927 0.02505514
-0.07336362 0.49458683 0.02649665
-0.04900688 0.49758920 0.02649665
-0.02449104 0.49852371 0.02505514
-0.02453079 0.49939859 0.02649665
0.38505584 0.31600690 0.02369809
0.40009728 0.29673520 0.02369809
0.39909321 0.29598960 0.02252499
0.38408655 0.31521153 0.02252499
0.39778596 0.29501536 0.02162526
0.38282886 0.31417763 0.02162526
0.36816016 0.33368295 0.02252499
0.36908472 0.33452308 0.02369809
0.36695227 0.33258438 0.02162526
0.36982536 0.33519405 0.02505514
0.38582626 0.31664309 0.02505514
0.37047654 0.33578065 0.02649665
0.38650230 0.31719491 0.02649665
0.40090263 0.29732677 0.02505514
0.40160349 0.29784867 0.02649665
-0.00000005 0.29230624 -0.02967799
-0.00000005 0.27242318 -0.02997631
-0.05314748 0.26718888 -0.02997631
-0.05702473 0.28668925 -0.02967799
-0.04446352 0.29973757 -0.02879327
-0.02970040 0.30155692 -0.02879327
-0.05911744 0.29719749 -0.02879327
-0.01486762 0.30265042 -0.02879327
-0.00000005 0.30301830 -0.02879327
-0.10425198 0.25168514 -0.02997631
-0.11186230 0.27005711 -0.02967799
-0.10208475 0.28530237 -0.02879327
-0.08796278 0.28996995 -0.02879327
-0.11595818 0.27995390 -0.02879327
-0.07362706 0.29393664 -0.02879327
-0.15135005 0.22650816 -0.02997631
-0.16239510 0.24304590 -0.02967799
-0.15577903 0.25990680 -0.02879327
-0.14284010 0.26723868 -0.02879327
-0.16834509 0.25194857 -0.02879327
-0.12955824 0.27392432 -0.02879327
-0.19263227 0.19263233 -0.02997631
-0.20668966 0.20668970 -0.02967799
-0.20349351 0.22451979 -0.02879327
-0.19222972 0.23423275 -0.02879327
-0.21426509 0.21426514 -0.02879327
-0.18050861 0.24338396 -0.02879327
-0.21495605 0.15879127 -0.02997631
-0.22650811 0.15135010 -0.02997621
-0.24304584 0.16239516 -0.02967799
-0.24338391 0.18050855 -0.02879327
-0.23423271 0.19222967 -0.02879327
-0.25194851 0.16835012 -0.02879327
-0.22451983 0.20349346 -0.02879327
-0.25168508 0.10425203 -0.02997621
-0.27005705 0.11186225 -0.02967799
-0.27392438 0.12955819 -0.02879317
-0.26723862 0.14284015 -0.02879317
-0.27995384 0.11595813 -0.02879317
-0.25990674 0.15578394 -0.02879317
-0.26718894 0.05314753 -0.02997621
-0.28668928 0.05702468 -0.02967799
-0.29393670 0.07362711 -0.02879317
-0.28997001 0.08796283 -0.02879317
-0.29719743 0.05911739 -0.02879317
-0.28530243 0.10208470 -0.02879317
-0.27242312 0.00000000 -0.02997621
-0.29230627 0.00000000 -0.02967799
-0.30265045 0.01486757 -0.02879317
-0.30155686 0.02970035 -0.02879317
-0.30301824 0.00000000 -0.02879317
-0.29973751 0.04446358 -0.02879317
-0.26718894 -0.05314753 -0.02997621
-0.28668928 -0.05702468 -0.02967799
-0.29973751 -0.04446358 -0.02879317
-0.30155686 -0.02970035 -0.02879317
-0.29719743 -0.05911739 -0.02879317
-0.30265045 -0.01486757 -0.02879317
-0.25168508 -0.10425203 -0.02997621
-0.27005705 -0.11186225 -0.02967799
-0.28530243 -0.10208470 -0.02879317
-0.28997001 -0.08796283 -0.02879317
-0.27995384 -0.11595813 -0.02879317
-0.29393670 -0.07362711 -0.02879317
-0.22650811 -0.15135010 -0.02997621
-0.24304584 -0.16239516 -0.02967799
-0.25990674 -0.15578394 -0.02879317
-0.26723862 -0.14284015 -0.02879317
-0.25194851 -0.16835012 -0.02879317
-0.27392438 -0.12955819 -0.02879317
-0.19263227 -0.19263233 -0.02997621
-0.20668966 -0.20668960 -0.02967799
-0.22451983 -0.20349346 -0.02879317
-0.23423271 -0.19222967 -0.02879317
-0.21426509 -0.21426514 -0.02879317
-0.24338391 -0.18050855 -0.02879317
-0.15135005 -0.22650816 -0.02997621
-0.16239510 -0.24304590 -0.02967799
-0.18050861 -0.24338385 -0.02879317
-0.19222972 -0.23423266 -0.02879317
-0.16834509 -0.25194857 -0.02879317
-0.20349351 -0.22451979 -0.02879317
-0.10425198 -0.25168514 -0.02997621
-0.11186230 -0.27005711 -0.02967799
-0.12955824 -0.27392432 -0.02879317
-0.14284010 -0.26723868 -0.02879317
-0.11595818 -0.27995381 -0.02879317
-0.15577903 -0.25990668 -0.02879317
-0.05314748 -0.26718888 -0.02997621
-0.05702473 -0.28668925 -0.02967799
-0.07362706 -0.29393664 -0.02879317
-0.08796278 -0.28996995 -0.02879317
-0.05911744 -0.29719749 -0.02879317
-0.10208475 -0.28530237 -0.02879317
-0.00000005 -0.27242318 -0.02997621
-0.00000005 -0.29230624 -0.02967799
-0.01486762 -0.30265042 -0.02879317
-0.02970040 -0.30155680 -0.02879317
-0.00000005 -0.30301818 -0.02879317
-0.04446352 -0.29973757 -0.02879317
0.05314748 -0.26718888 -0.02997621
0.05702463 -0.28668925 -0.02967799
0.04446352 -0.29973757 -0.02879317
0.02970030 -0.30155680 -0.02879317
0.05911734 -0.29719749 -0.02879317
0.01486751 -0.30265042 -0.02879317
0.10425198 -0.25168514 -0.02997621
0.11186220 -0.27005711 -0.02967799
0.10208475 -0.28530237 -0.02879317
0.08796278 -0.28996995 -0.02879317
0.11596315 -0.27995381 -0.02879317
0.07362706 -0.29393664 -0.02879317
0.15135005 -0.22650816 -0.02997621
0.16240008 -0.24304590 -0.02967799
0.15578400 -0.25990668 -0.02879317
0.14284010 -0.26723868 -0.02879317
0.16835007 -0.25194857 -0.02879317
0.12955815 -0.27392432 -0.02879317
0.19263227 -0.19263233 -0.02997621
0.20669462 -0.20668960 -0.02967799
0.20349340 -0.22451979 -0.02879317
0.19223459 -0.23423266 -0.02879317
0.21426509 -0.21426514 -0.02879317
0.18050861 -0.24338385 -0.02879317
0.22651307 -0.15135010 -0.02997621
0.24304584 -0.16239516 -0.02967799
0.24338879 -0.18050855 -0.02879317
0.23423769 -0.19222967 -0.02879317
0.25195348 -0.16835012 -0.02879317
0.22451974 -0.20349346 -0.02879317
0.25168508 -0.10425203 -0.02997621
0.27005696 -0.11186225 -0.02967799
0.27392426 -0.12955819 -0.02879317
0.26723862 -0.14284015 -0.02879317
0.27995375 -0.11595813 -0.02879317
0.25990674 -0.15578394 -0.02879317
0.26718882 -0.05314753 -0.02997621
0.28668919 -0.05702468 -0.02967799
0.29393661 -0.07362711 -0.02879317
0.28996989 -0.08796283 -0.02879317
0.29719743 -0.05911739 -0.02879317
0.28530234 -0.10208470 -0.02879317
0.27242312 0.00000000 -0.02997621
0.29230618 0.00000000 -0.02967799
0.30265534 -0.01486757 -0.02879317
0.30155674 -0.02970035 -0.02879317
0.30301815 0.00000000 -0.02879317
0.29973742 -0.04446358 -0.02879317
0.26718882 0.05314753 -0.02997621
0.28668919 0.05702468 -0.02967799
0.29973742 0.04446358 -0.02879317
0.30155674 0.02970035 -0.02879317
0.29719743 0.05911739 -0.02879317
0.30265534 0.01486757 -0.02879317
0.25168508 0.10425203 -0.02997621
0.27005696 0.11186225 -0.02967799
0.28530234 0.10208470 -0.02879317
0.28996989 0.08796283 -0.02879317
0.27995375 0.11595813 -0.02879317
0.29393661 0.07362711 -0.02879317
0.22651307 0.15135010 -0.02997621
0.24304584 0.16239516 -0.02967799
0.25990674 0.15578394 -0.02879317
0.26723862 0.14284015 -0.02879317
0.25195348 0.16835012 -0.02879327
0.27392426 0.12955819 -0.02879317
0.21495605 0.15879127 -0.02997631
0.19263227 0.19263233 -0.02997631
0.20669462 0.20669466 -0.02967799
0.22451974 0.20349346 -0.02879327
0.23423769 0.19222967 -0.02879327
0.21426509 0.21426514 -0.02879327
0.24338381 0.18050855 -0.02879327
0.15135005 0.22650816 -0.02997631
0.16239510 0.24304590 -0.02967799
0.18050861 0.24338396 -0.02879327
0.19222961 0.23423773 -0.02879327
0.16835007 0.25194857 -0.02879327
0.20349340 0.22451979 -0.02879327
0.10425198 0.25168514 -0.02997631
0.11186220 0.27005711 -0.02967799
0.12955815 0.27392432 -0.02879327
0.14284010 0.26723868 -0.02879327
0.11595818 0.27995390 -0.02879327
0.15578400 0.25990680 -0.02879327
0.05314748 0.26718888 -0.02997631
0.05702463 0.28668925 -0.02967799
0.07362706 0.29393664 -0.02879327
0.08796278 0.28996995 -0.02879327
0.05911734 0.29719749 -0.02879327
0.10208475 0.28530237 -0.02879327
0.01486751 0.30265042 -0.02879327
0.02970030 0.30155692 -0.02879327
0.04446352 0.29973757 -0.02879327
-0.23298506 -0.43588701 0.02997631
-0.21131748 -0.44679284 0.02997631
-0.18913791 -0.45662507 0.02997631
-0.25409588 -0.42393228 0.02997631
-0.27459046 -0.41095361 0.02997631
0.38205841 -0.31354633 0.02997631
0.39698571 -0.29442379 0.02997631
0.41095355 -0.27459043 0.02997631
0.36621162 -0.33191830 0.02997631
0.34948996 -0.34948504 0.02997631
-0.47296390 0.14347138 0.02997621
-0.47943589 0.12009386 0.02997621
-0.48474959 0.09642309 0.02997621
-0.46535367 0.16650595 0.02997621
-0.45662501 0.18914282 0.02997621
0.43588686 0.23298502 0.02997621
0.42393222 0.25409594 0.02997621
0.41095355 0.27459043 0.02997621
0.44679281 0.21131743 0.02997621
0.45662490 0.18914282 0.02997621
0.31354627 -0.38205847 0.02997631
0.33191824 -0.36621168 0.02997631
0.29442373 -0.39698577 0.02997631
0.27459037 -0.41095361 0.02997631
-0.31354636 -0.38205847 0.02997631
-0.29442382 -0.39698577 0.02997631
-0.33191833 -0.36621168 0.02997631
-0.34948510 -0.34948504 0.02997631
-0.43588695 0.23298502 0.02997621
-0.44679290 0.21131743 0.02997621
-0.42392725 0.25409594 0.02997621
-0.41095355 0.27459043 0.02997621
0.47296390 0.14347138 0.02997621
0.46535358 0.16650595 0.02997621
0.47943580 0.12009386 0.02997621
0.48475456 0.09642309 0.02997621
0.23298497 -0.43588701 0.02997631
0.25409588 -0.42393228 0.02997631
0.21131738 -0.44679284 0.02997631
0.18914278 -0.45662507 0.02997631
-0.38205853 -0.31354633 0.02997631
-0.36621162 -0.33191830 0.02997631
-0.39698076 -0.29442379 0.02997631
-0.41095355 -0.27459043 0.02997631
0.04844512 0.49186787 0.02997621
0.02425235 0.49365231 0.02997621
-0.00000005 0.49424887 0.02997621
0.07252352 0.48890027 0.02997621
0.09642304 0.48475462 0.02997621
-0.38205853 0.31354633 0.02997621
-0.39698076 0.29442379 0.02997621
-0.36621162 0.33191830 0.02997621
-0.34948510 0.34948504 0.02997621
0.49186772 0.04844517 0.02997621
0.48890013 0.07252357 0.02997621
0.49365216 0.02425240 0.02997621
0.49424872 0.00000000 0.02997621
0.14347132 -0.47296396 0.02997631
0.16651087 -0.46535373 0.02997631
0.12009381 -0.47943586 0.02997631
0.09642304 -0.48475462 0.02997631
-0.43588695 -0.23298502 0.02997631
-0.42392725 -0.25409594 0.02997631
-0.44679290 -0.21131743 0.02997631
-0.45662501 -0.18914282 0.02997631
0.14347132 0.47296396 0.02997621
0.12009381 0.47943595 0.02997621
0.16650590 0.46535373 0.02997621
0.18914278 0.45662507 0.02997621
-0.31354636 0.38205847 0.02997621
-0.33191833 0.36621168 0.02997621
-0.29442382 0.39698577 0.02997621
-0.27459046 0.41095361 0.02997621
0.49186772 -0.04844517 0.02997621
0.49365216 -0.02425240 0.02997621
0.48890013 -0.07252357 0.02997621
0.48475456 -0.09642299 0.02997621
0.04844512 -0.49186778 0.02997631
0.07252352 -0.48890027 0.02997631
0.02425235 -0.49365231 0.02997631
-0.00000005 -0.49424875 0.02997631
-0.47296390 -0.14347138 0.02997621
-0.46535367 -0.16650595 0.02997621
-0.47943589 -0.12009386 0.02997621
-0.48474959 -0.09642299 0.02997621
0.23298497 0.43588701 0.02997621
0.21131738 0.44679284 0.02997621
0.25409588 0.42393228 0.02997621
0.27459037 0.41095361 0.02997621
-0.23298506 0.43588701 0.02997621
-0.25409588 0.42393228 0.02997621
-0.21131748 0.44679284 0.02997621
-0.18914288 0.45662507 0.02997621
0.47296390 -0.14347138 0.02997621
0.47943580 -0.12009386 0.02997621
0.46535856 -0.16650595 0.02997621
0.45662490 -0.18914282 0.02997631
-0.04844512 -0.49186778 0.02997631
-0.02425245 -0.49365231 0.02997631
-0.07251865 -0.48890027 0.02997631
-0.09642304 -0.48475462 0.02997631
-0.49186781 -0.04844517 0.02997621
-0.48889536 -0.07252357 0.02997621
-0.49365237 -0.02425240 0.02997621
-0.49424881 0.00000000 0.02997621
0.31354627 0.38205847 0.02997621
0.29442373 0.39698577 0.02997621
0.33191824 0.36621168 0.02997621
0.34948498 0.34948504 0.02997621
-0.14347142 0.47296396 0.02997621
-0.16650601 0.46535373 0.02997621
-0.12009391 0.47943595 0.02997621
-0.09642304 0.48475462 0.02997621
0.43588686 -0.23298502 0.02997631
0.44679281 -0.21131743 0.02997631
0.42393222 -0.25409594 0.02997631
-0.14347142 -0.47296396 0.02997631
-0.12008894 -0.47943586 0.02997631
-0.16650601 -0.46535373 0.02997631
-0.49186781 0.04844517 0.02997621
-0.49365237 0.02425240 0.02997621
-0.48889536 0.07252357 0.02997621
-0.04844512 0.49186787 0.02997621
-0.07252362 0.48890027 0.02997621
-0.02425245 0.49365231 0.02997621
0.38205841 0.31354633 0.02997621
0.36621162 0.33191830 0.02997621
0.39698571 0.29442379 0.02997621
3 880 898 930
3 758 806 764
3 740 806 746
3 937 898 938
3 937 935 898
3 936 918 898
3 898 935 936
3 524 938 606
3 607 606 953
3 956 624 622
3 564 946 621
3 898 946 945
3 926 559 464
3 944 559 926
3 898 944 926
3 83 798 79
3 677 679 669
3 675 677 669
3 669 674 675
3 687 693 695
3 686 692 687
3 687 692 693
3 668 674 669
3 686 687 680
3 680 687 681
3 681 675 680
3 680 675 674
3 746 806 752
3 806 758 752
3 806 740 734
3 629 89 804
3 804 89 88
3 558 559 560
3 658 650 656
3 649 656 650
3 403 914 404
3 711 705 710
3 584 726 733
3 19 10 12
3 918 936 519
3 519 936 935
3 237 235 239
3 681 687 689
3 938 898 954
3 898 953 954
3 954 606 938
3 954 953 606
3 898 846 955
3 955 953 898
3 898 848 847
3 847 844 898
3 848 73 847
3 73 844 847
3 845 846 898
3 898 844 845
3 70 846 845
3 898 886 885
3 885 883 898
3 884 865 898
3 898 883 884
3 863 848 898
3 898 862 863
3 898 865 864
3 864 862 898
3 865 159 864
3 67 65 70
3 70 845 67
3 61 599 597
3 880 624 958
3 624 956 958
3 958 898 880
3 958 956 898
3 957 621 946
3 957 946 898
3 898 956 957
3 957 956 622
3 622 621 957
3 943 945 560
3 943 559 944
3 560 559 943
3 943 944 898
3 898 945 943
3 363 905 364
3 360 905 363
3 898 923 924
3 360 359 903
3 903 905 360
3 898 905 903
3 925 923 898
3 898 926 925
3 242 243 244
3 426 431 427
3 818 529 811
3 816 529 818
3 811 808 818
3 818 808 816
3 852 930 853
3 853 98 852
3 960 930 959
3 930 961 959
3 637 959 961
3 930 850 851
3 851 961 930
3 178 175 868
3 92 850 93
3 171 798 83
3 269 273 793
3 695 693 694
3 693 696 694
3 214 137 139
3 211 128 127
3 127 209 211
3 699 698 705
3 700 701 699
3 699 701 693
3 693 692 699
3 692 698 699
3 700 699 702
3 83 79 82
3 82 171 83
3 81 82 76
3 88 89 86
3 375 377 365
3 759 758 764
3 685 54 678
3 678 54 58
3 678 675 685
3 669 679 672
3 672 670 669
3 672 679 148
3 674 668 667
3 667 680 674
3 686 680 667
3 667 692 686
3 667 698 692
3 667 734 728
3 806 734 667
3 276 792 168
3 164 168 792
3 165 162 164
3 162 168 164
3 273 376 784
3 790 792 276
3 797 171 165
3 803 80 79
3 88 80 803
3 810 630 629
3 560 945 563
3 563 946 564
3 563 945 946
3 657 659 353
3 658 656 657
3 657 656 659
3 450 449 658
3 666 656 664
3 659 656 666
3 353 659 666
3 720 8 718
3 931 933 503
3 503 933 934
3 914 403 913
3 894 912 399
3 726 584 14
3 581 19 12
3 580 590 581
3 834 837 18
3 835 834 17
3 17 834 18
3 19 20 17
3 835 17 836
3 836 17 20
3 594 950 952
3 592 950 594
3 952 836 594
3 594 836 20
3 594 590 592
3 594 20 19
3 935 937 523
3 523 938 524
3 523 937 938
3 240 624 880
3 880 237 240
3 239 624 240
3 240 237 239
3 57 149 58
3 58 54 57
3 679 677 145
3 609 846 70
3 609 955 846
3 609 608 607
3 607 953 609
3 953 955 609
3 259 884 883
3 259 159 865
3 865 884 259
3 154 863 862
3 862 155 154
3 848 863 154
3 158 864 159
3 862 864 158
3 158 155 862
3 607 608 605
3 605 606 607
3 605 604 606
3 64 61 63
3 599 61 64
3 63 684 64
3 64 684 599
3 62 596 608
3 597 596 62
3 62 61 597
3 350 666 664
3 364 905 906
3 906 924 364
3 906 905 898
3 898 924 906
3 904 903 359
3 264 886 904
3 904 359 264
3 904 886 898
3 898 903 904
3 340 339 900
3 344 439 342
3 342 343 344
3 559 558 557
3 558 545 557
3 942 960 544
3 544 941 942
3 942 930 960
3 942 941 930
3 543 941 544
3 939 540 940
3 939 940 930
3 930 941 939
3 941 543 939
3 939 543 540
3 816 808 814
3 642 649 650
3 822 814 820
3 819 825 820
3 820 825 826
3 820 814 819
3 627 628 625
3 87 86 627
3 629 630 627
3 630 628 627
3 627 89 629
3 627 86 89
3 432 534 433
3 431 534 432
3 433 427 432
3 432 427 431
3 530 529 816
3 849 850 930
3 930 852 849
3 849 93 850
3 849 852 98
3 98 93 849
3 961 851 95
3 95 850 92
3 95 851 850
3 960 959 636
3 959 637 636
3 544 960 636
3 930 868 866
3 866 868 175
3 175 174 866
3 869 868 930
3 178 868 869
3 909 930 910
3 910 384 909
3 930 908 890
3 284 283 890
3 284 890 379
3 379 890 908
3 99 98 853
3 853 174 99
3 165 171 163
3 163 162 165
3 176 175 178
3 887 283 280
3 270 269 793
3 282 377 375
3 282 283 284
3 284 379 282
3 282 379 377
3 374 376 273
3 273 272 374
3 374 272 375
3 703 696 693
3 693 701 703
3 703 701 410
3 714 711 721
3 721 711 719
3 721 128 714
3 874 214 875
3 874 876 218
3 204 202 208
3 208 202 207
3 207 202 206
3 706 705 708
3 705 715 708
3 208 706 708
3 708 204 208
3 715 204 708
3 705 711 713
3 713 715 705
3 710 705 704
3 705 698 704
3 704 667 710
3 698 667 704
3 916 419 898
3 898 915 916
3 916 915 419
3 898 419 324
3 709 309 702
3 709 702 699
3 77 82 79
3 77 76 82
3 92 93 91
3 566 565 575
3 910 930 928
3 930 927 928
3 928 384 910
3 928 927 480
3 380 909 383
3 383 909 384
3 382 384 477
3 930 576 484
3 480 927 929
3 929 483 480
3 929 927 930
3 930 484 929
3 929 484 483
3 772 774 573
3 765 759 764
3 753 752 758
3 758 759 753
3 746 752 753
3 373 780 369
3 373 476 780
3 477 480 478
3 478 465 477
3 480 483 478
3 468 476 474
3 474 465 468
3 669 670 671
3 671 670 250
3 250 673 671
3 771 765 764
3 771 777 779
3 774 772 771
3 786 783 793
3 786 784 783
3 793 273 786
3 273 784 786
3 793 783 791
3 791 270 793
3 791 790 276
3 276 270 791
3 802 804 88
3 88 803 802
3 629 804 812
3 812 810 629
3 809 808 811
3 809 810 808
3 801 807 808
3 808 810 801
3 810 812 801
3 801 812 804
3 804 802 801
3 803 795 801
3 801 802 803
3 653 651 650
3 651 653 556
3 561 563 564
3 561 545 558
3 561 558 560
3 560 563 561
3 658 657 456
3 456 450 658
3 456 657 353
3 288 287 289
3 288 296 294
3 296 188 294
3 735 734 740
3 728 734 735
3 393 494 496
3 892 891 299
3 299 873 892
3 199 873 299
3 198 873 199
3 299 197 199
3 199 197 198
3 856 118 115
3 119 118 856
3 198 197 196
3 300 298 299
3 299 891 300
3 288 294 285
3 285 294 295
3 299 298 297
3 297 197 299
3 295 197 297
3 297 285 295
3 298 285 297
3 2 1 6
3 4 725 5
3 4 2 8
3 18 837 23
3 136 137 126
3 723 724 725
3 726 724 723
3 733 726 723
3 131 718 8
3 8 129 131
3 499 932 931
3 914 932 499
3 404 914 499
3 592 590 589
3 580 587 589
3 589 590 580
3 504 503 934
3 911 913 403
3 893 894 303
3 893 300 891
3 303 300 893
3 584 585 583
3 5 725 13
3 725 724 13
3 13 724 726
3 726 14 13
3 10 0 9
3 11 14 584
3 11 581 12
3 12 10 11
3 10 9 11
3 11 13 14
3 11 9 13
3 489 492 493
3 588 732 493
3 493 732 489
3 219 216 218
3 317 319 318
3 318 319 320
3 139 860 861
3 861 214 139
3 875 214 861
3 858 860 138
3 138 860 139
3 139 137 138
3 137 136 138
3 10 19 15
3 19 17 15
3 19 581 593
3 593 594 19
3 593 581 590
3 590 594 593
3 918 519 424
3 898 918 917
3 917 915 898
3 918 424 917
3 917 424 423
3 419 915 420
3 915 917 420
3 420 917 423
3 520 519 935
3 935 523 520
3 58 149 151
3 149 145 151
3 151 678 58
3 148 679 144
3 679 145 144
3 68 844 73
3 65 67 68
3 68 845 844
3 68 67 845
3 63 61 59
3 685 675 683
3 683 675 681
3 683 54 685
3 681 689 691
3 691 684 681
3 689 599 691
3 599 684 691
3 697 687 695
3 697 690 687
3 600 603 601
3 600 599 689
3 689 603 600
3 688 603 689
3 690 603 688
3 688 689 687
3 687 690 688
3 883 885 263
3 263 886 264
3 263 885 886
3 148 254 256
3 256 254 250
3 250 670 256
3 256 672 148
3 670 672 256
3 74 73 848
3 848 154 74
3 72 73 74
3 74 154 72
3 601 511 602
3 602 511 604
3 595 596 597
3 608 596 595
3 595 605 608
3 601 602 595
3 604 605 595
3 595 602 604
3 70 65 69
3 65 62 69
3 69 62 608
3 69 609 70
3 608 609 69
3 355 345 354
3 354 251 355
3 358 359 360
3 264 359 262
3 262 263 264
3 252 251 354
3 246 251 252
3 353 666 349
3 666 350 349
3 354 350 356
3 356 252 354
3 238 243 241
3 243 242 241
3 239 235 232
3 612 611 232
3 230 220 223
3 223 229 230
3 235 220 230
3 230 232 235
3 229 232 230
3 614 612 234
3 234 647 614
3 341 342 326
3 343 342 341
3 340 900 899
3 899 343 340
3 901 343 899
3 930 901 899
3 899 900 930
3 882 339 244
3 882 900 339
3 244 243 882
3 930 900 882
3 902 901 930
3 930 920 902
3 344 343 902
3 902 343 901
3 902 439 344
3 902 920 439
3 940 540 539
3 442 431 426
3 930 940 922
3 623 624 239
3 239 232 623
3 623 232 611
3 555 545 554
3 555 557 545
3 554 451 555
3 464 559 462
3 559 557 462
3 462 555 451
3 557 555 462
3 808 807 813
3 813 814 808
3 819 814 813
3 643 642 650
3 826 825 640
3 642 643 640
3 433 817 824
3 824 814 822
3 824 817 814
3 436 430 822
3 325 341 326
3 328 335 325
3 327 325 326
3 328 325 327
3 630 810 633
3 810 809 633
3 633 809 811
3 540 543 538
3 537 539 538
3 538 539 540
3 535 525 534
3 535 534 431
3 537 538 535
3 535 538 525
3 535 442 537
3 431 442 535
3 816 814 815
3 814 817 815
3 529 530 527
3 525 526 527
3 527 532 529
3 527 526 532
3 534 525 528
3 528 530 534
3 525 527 528
3 528 527 530
3 853 930 867
3 930 866 867
3 867 174 853
3 867 866 174
3 930 887 888
3 888 869 930
3 279 869 888
3 887 280 888
3 888 280 279
3 907 908 930
3 930 909 907
3 907 909 380
3 380 379 907
3 907 379 908
3 889 887 930
3 930 890 889
3 889 283 887
3 889 890 283
3 98 99 96
3 96 93 98
3 96 91 93
3 97 174 172
3 97 99 174
3 97 96 99
3 81 76 97
3 76 96 97
3 171 82 169
3 169 163 171
3 175 176 173
3 172 174 173
3 173 174 175
3 162 163 160
3 160 173 176
3 172 173 160
3 163 169 160
3 366 367 368
3 368 365 366
3 368 367 369
3 375 365 368
3 368 374 375
3 376 374 368
3 267 266 272
3 273 269 267
3 267 272 273
3 272 266 271
3 271 266 282
3 375 272 271
3 271 282 375
3 283 282 281
3 282 266 281
3 265 281 266
3 200 203 209
3 202 203 200
3 712 711 714
3 712 713 711
3 714 128 712
3 712 128 211
3 205 204 715
3 715 713 205
3 205 712 211
3 713 712 205
3 211 209 205
3 209 203 205
3 202 204 205
3 205 203 202
3 311 414 312
3 702 309 313
3 316 706 208
3 208 207 316
3 707 709 699
3 707 705 706
3 707 699 705
3 516 694 696
3 695 694 516
3 79 80 78
3 78 77 79
3 76 77 78
3 78 80 88
3 92 91 90
3 90 91 85
3 568 565 566
3 948 576 930
3 948 947 576
3 576 947 577
3 479 928 480
3 384 928 479
3 479 480 477
3 477 384 479
3 380 383 378
3 378 365 377
3 378 379 380
3 377 379 378
3 477 465 475
3 475 465 474
3 474 476 372
3 476 373 372
3 369 367 372
3 372 373 369
3 381 383 384
3 384 382 381
3 381 378 383
3 366 365 381
3 365 378 381
3 565 568 572
3 780 777 787
3 369 780 787
3 783 784 785
3 785 777 783
3 785 787 777
3 369 787 785
3 778 777 780
3 779 777 778
3 780 476 778
3 778 476 779
3 769 759 767
3 759 765 767
3 768 765 775
3 775 569 768
3 746 753 747
3 747 740 746
3 762 759 769
3 476 468 470
3 779 476 470
3 193 194 195
3 198 196 195
3 195 196 193
3 189 106 190
3 111 762 33
3 189 108 107
3 107 106 189
3 119 194 117
3 117 190 106
3 167 168 162
3 162 166 167
3 276 168 167
3 178 869 179
3 179 869 279
3 806 794 788
3 788 782 806
3 794 795 788
3 783 782 788
3 806 782 776
3 777 771 776
3 783 777 776
3 776 782 783
3 798 795 805
3 805 795 803
3 805 79 798
3 805 803 79
3 796 795 798
3 797 795 796
3 798 171 796
3 171 797 796
3 799 164 792
3 165 164 799
3 799 797 165
3 774 771 781
3 781 771 779
3 807 801 800
3 806 807 800
3 800 794 806
3 800 795 794
3 800 801 795
3 658 449 660
3 449 653 660
3 660 650 658
3 660 653 650
3 554 556 453
3 449 447 453
3 453 653 449
3 453 556 653
3 613 612 614
3 614 615 613
3 613 611 612
3 450 456 454
3 454 456 353
3 364 924 459
3 656 649 655
3 292 289 287
3 403 398 400
3 400 911 403
3 912 911 400
3 399 912 400
3 388 386 387
3 401 398 403
3 385 386 388
3 398 401 385
3 385 401 386
3 295 294 187
3 187 294 188
3 187 188 184
3 184 182 187
3 489 737 490
3 737 496 490
3 731 584 733
3 731 585 584
3 733 723 731
3 729 735 737
3 728 735 729
3 729 723 728
3 729 731 723
3 871 195 194
3 871 194 119
3 855 49 843
3 303 302 301
3 301 285 298
3 301 300 303
3 298 300 301
3 6 129 7
3 7 129 8
3 7 2 6
3 8 2 7
3 130 129 6
3 727 8 720
3 727 4 8
3 725 4 727
3 24 859 134
3 24 23 837
3 23 24 21
3 126 127 122
3 931 503 500
3 500 499 931
3 592 589 591
3 589 504 591
3 591 951 950
3 591 950 592
3 934 951 591
3 591 504 934
3 491 589 587
3 487 492 489
3 487 491 492
3 486 491 487
3 580 581 582
3 582 583 580
3 584 583 582
3 582 11 584
3 581 11 582
3 586 585 588
3 586 583 585
3 586 587 580
3 580 583 586
3 588 493 586
3 586 493 492
3 586 491 587
3 492 491 586
3 3 9 0
3 5 13 3
3 13 9 3
3 3 4 5
3 2 4 3
3 3 0 1
3 1 2 3
3 218 876 877
3 877 219 218
3 896 319 877
3 319 219 877
3 217 219 319
3 319 317 217
3 216 219 217
3 895 319 896
3 895 320 319
3 898 324 323
3 320 895 323
3 858 138 135
3 135 859 858
3 134 859 135
3 409 703 410
3 696 703 409
3 408 409 410
3 518 520 523
3 676 145 677
3 676 151 145
3 678 151 676
3 677 675 676
3 675 678 676
3 143 145 149
3 152 154 155
3 72 154 152
3 155 158 156
3 156 158 159
3 159 157 156
3 66 68 73
3 66 50 65
3 65 68 66
3 56 51 72
3 50 51 52
3 52 57 54
3 52 56 57
3 51 56 52
3 65 50 60
3 60 62 65
3 61 62 60
3 60 59 61
3 681 684 682
3 682 683 681
3 682 684 63
3 690 697 509
3 509 697 695
3 522 523 524
3 604 511 522
3 524 606 522
3 606 604 522
3 521 518 523
3 505 518 521
3 523 522 521
3 521 522 511
3 260 259 883
3 883 263 260
3 258 259 260
3 260 263 258
3 258 263 261
3 261 245 258
3 246 245 261
3 263 262 261
3 261 251 246
3 261 262 251
3 250 254 248
3 254 245 248
3 255 245 254
3 258 245 255
3 147 254 148
3 598 595 597
3 597 599 598
3 599 600 598
3 598 600 601
3 601 595 598
3 361 362 351
3 351 346 361
3 361 363 364
3 364 362 361
3 360 363 361
3 361 358 360
3 345 358 361
3 361 346 345
3 357 355 251
3 251 262 357
3 357 262 359
3 359 358 357
3 345 355 357
3 357 358 345
3 252 356 253
3 665 673 253
3 352 454 353
3 351 454 352
3 345 346 347
3 347 346 351
3 351 352 347
3 353 349 347
3 347 352 353
3 665 253 663
3 663 253 356
3 663 350 664
3 663 356 350
3 238 241 236
3 236 241 220
3 236 220 235
3 236 237 238
3 235 237 236
3 223 220 221
3 220 241 221
3 828 820 826
3 233 234 229
3 223 225 233
3 233 229 223
3 831 234 233
3 231 232 229
3 229 234 231
3 612 232 231
3 231 234 612
3 238 237 878
3 441 440 443
3 441 442 426
3 444 441 443
3 442 441 444
3 444 539 537
3 537 442 444
3 940 539 444
3 444 922 940
3 443 440 921
3 921 444 443
3 922 444 921
3 930 922 921
3 446 462 451
3 644 643 646
3 642 640 641
3 641 640 825
3 831 640 648
3 648 640 647
3 648 234 831
3 647 234 648
3 822 430 429
3 429 824 822
3 433 824 429
3 429 427 433
3 332 436 333
3 332 327 326
3 426 427 428
3 428 425 426
3 427 429 428
3 428 429 430
3 430 436 428
3 440 441 438
3 426 425 438
3 438 441 426
3 337 242 244
3 244 339 337
3 337 325 335
3 337 339 340
3 334 335 328
3 341 325 338
3 340 343 338
3 343 341 338
3 338 337 340
3 325 337 338
3 631 628 630
3 630 633 631
3 625 628 631
3 631 632 625
3 811 529 533
3 529 532 533
3 533 633 811
3 532 631 533
3 533 631 633
3 541 543 544
3 544 542 541
3 541 538 543
3 525 538 541
3 541 526 525
3 532 526 531
3 531 541 542
3 526 541 531
3 531 631 532
3 632 631 531
3 536 530 816
3 816 815 536
3 433 534 536
3 534 530 536
3 536 817 433
3 536 815 817
3 95 638 639
3 639 637 961
3 961 95 639
3 635 638 625
3 635 636 637
3 637 639 635
3 635 639 638
3 626 627 625
3 625 638 626
3 87 627 626
3 626 638 87
3 87 638 94
3 94 638 95
3 94 85 87
3 94 90 85
3 94 95 92
3 92 90 94
3 162 160 161
3 161 160 176
3 161 166 162
3 176 166 161
3 172 160 170
3 170 160 169
3 170 97 172
3 81 97 170
3 170 82 81
3 170 169 82
3 370 368 369
3 376 368 370
3 369 785 370
3 370 784 376
3 370 785 784
3 268 270 276
3 269 270 268
3 268 267 269
3 266 267 268
3 268 265 266
3 281 265 278
3 278 280 283
3 283 281 278
3 279 280 278
3 265 268 275
3 210 200 209
3 210 127 126
3 209 127 210
3 215 874 218
3 214 874 215
3 202 200 201
3 206 202 201
3 201 217 206
3 216 217 201
3 307 313 309
3 312 313 307
3 315 317 318
3 315 207 206
3 206 217 315
3 315 217 317
3 419 417 322
3 322 324 419
3 322 323 324
3 414 311 415
3 415 322 417
3 311 322 415
3 312 414 416
3 416 313 312
3 416 408 410
3 414 408 416
3 416 701 700
3 410 701 416
3 700 702 416
3 702 313 416
3 309 709 310
3 709 707 310
3 706 316 310
3 310 707 706
3 310 307 309
3 308 307 310
3 85 91 75
3 75 78 85
3 76 78 75
3 75 96 76
3 91 96 75
3 84 78 88
3 85 78 84
3 88 86 84
3 87 85 84
3 84 86 87
3 567 568 566
3 569 568 567
3 573 568 570
3 570 568 569
3 37 567 566
3 36 567 37
3 843 49 48
3 43 839 48
3 371 475 474
3 474 372 371
3 371 382 477
3 477 475 371
3 366 381 371
3 371 381 382
3 371 367 366
3 371 372 367
3 574 484 576
3 576 577 574
3 574 577 575
3 574 575 565
3 565 572 574
3 766 765 768
3 766 767 765
3 768 38 766
3 184 188 750
3 750 188 296
3 763 104 108
3 191 108 189
3 290 296 288
3 288 289 290
3 572 472 471
3 573 472 571
3 571 472 572
3 571 568 573
3 571 572 568
3 473 472 573
3 573 774 473
3 469 470 468
3 472 473 469
3 779 470 469
3 469 781 779
3 774 781 469
3 469 473 774
3 192 194 193
3 193 190 192
3 192 117 194
3 190 117 192
3 105 111 109
3 109 111 33
3 47 49 112
3 177 166 176
3 177 176 178
3 178 179 177
3 177 179 279
3 783 788 789
3 789 788 795
3 792 790 789
3 789 799 792
3 789 791 783
3 790 791 789
3 789 795 797
3 797 799 789
3 770 771 764
3 770 776 771
3 764 806 770
3 806 776 770
3 452 453 447
3 452 446 451
3 447 446 452
3 452 451 554
3 554 453 452
3 554 545 548
3 548 556 554
3 651 556 652
3 650 651 652
3 652 643 650
3 611 613 610
3 610 623 611
3 450 454 448
3 449 450 448
3 448 447 449
3 448 446 447
3 351 362 455
3 455 454 351
3 455 448 454
3 664 656 662
3 662 663 664
3 665 663 662
3 662 673 665
3 669 671 662
3 662 671 673
3 399 302 304
3 304 302 303
3 304 894 399
3 303 894 304
3 388 390 396
3 397 302 399
3 398 385 397
3 399 400 397
3 397 400 398
3 389 387 393
3 389 390 388
3 388 387 389
3 392 494 393
3 393 387 392
3 392 387 386
3 180 190 193
3 186 197 295
3 295 187 186
3 390 389 743
3 742 396 743
3 743 396 390
3 737 735 736
3 735 738 736
3 736 496 737
3 393 496 736
3 736 738 393
3 739 729 737
3 732 729 739
3 739 737 489
3 489 732 739
3 730 729 732
3 731 729 730
3 730 732 588
3 588 585 730
3 585 731 730
3 119 856 857
3 857 871 119
3 198 195 870
3 195 871 870
3 854 856 115
3 49 855 114
3 112 49 114
3 855 854 114
3 114 854 115
3 286 292 287
3 285 301 286
3 286 287 288
3 288 285 286
3 132 130 6
3 132 24 134
3 134 135 132
3 717 727 720
3 717 723 725
3 725 727 717
3 720 718 717
3 719 711 717
3 717 718 719
3 717 711 710
3 838 24 837
3 859 24 838
3 1 0 16
3 16 21 1
3 18 23 16
3 23 21 16
3 16 17 18
3 16 15 17
3 16 0 10
3 10 15 16
3 128 721 124
3 124 127 128
3 124 122 127
3 501 491 486
3 485 501 486
3 502 504 589
3 589 491 502
3 491 501 502
3 503 504 502
3 502 501 503
3 898 323 897
3 897 323 895
3 318 320 321
3 320 323 321
3 323 322 321
3 133 138 136
3 133 135 138
3 133 132 135
3 413 516 696
3 696 409 413
3 418 417 419
3 419 420 418
3 153 152 155
3 155 156 153
3 150 143 149
3 140 143 150
3 150 153 140
3 152 153 150
3 149 57 150
3 57 56 150
3 72 152 150
3 150 56 72
3 142 144 145
3 145 143 142
3 148 144 142
3 142 147 148
3 71 51 50
3 50 66 71
3 71 66 73
3 71 73 72
3 72 51 71
3 50 52 53
3 53 60 50
3 59 60 53
3 63 59 53
3 53 52 54
3 513 603 690
3 601 603 513
3 690 509 513
3 507 513 509
3 507 508 505
3 246 252 247
3 247 245 246
3 247 248 245
3 250 248 247
3 257 255 157
3 159 259 257
3 257 157 159
3 257 259 258
3 258 255 257
3 249 673 250
3 250 247 249
3 249 253 673
3 252 253 249
3 249 247 252
3 345 347 348
3 354 345 348
3 348 350 354
3 348 349 350
3 348 347 349
3 223 221 222
3 226 241 242
3 226 221 241
3 226 222 221
3 242 337 226
3 226 337 335
3 333 436 823
3 879 237 880
3 879 878 237
3 880 930 879
3 930 878 879
3 930 882 881
3 881 878 930
3 881 882 243
3 881 243 238
3 238 878 881
3 919 921 440
3 439 920 919
3 919 440 439
3 919 920 930
3 930 921 919
3 464 462 463
3 923 925 463
3 463 926 464
3 463 925 926
3 645 640 643
3 643 644 645
3 647 640 645
3 614 647 645
3 645 615 614
3 618 644 646
3 615 645 618
3 618 645 644
3 618 613 615
3 326 342 331
3 331 332 326
3 425 428 435
3 332 331 435
3 435 438 425
3 435 331 342
3 636 635 634
3 625 632 634
3 634 635 625
3 544 636 634
3 634 542 544
3 634 531 542
3 632 531 634
3 274 268 276
3 274 275 268
3 276 167 274
3 274 167 166
3 166 275 274
3 200 210 212
3 137 214 212
3 126 137 212
3 212 210 126
3 314 316 207
3 207 315 314
3 314 315 308
3 308 310 314
3 314 310 316
3 422 424 519
3 423 424 422
3 569 567 39
3 39 567 36
3 768 569 39
3 39 38 768
3 769 767 29
3 33 762 29
3 29 762 769
3 773 771 772
3 773 772 573
3 573 570 773
3 569 775 773
3 773 570 569
3 765 771 773
3 773 775 765
3 45 42 40
3 840 45 841
3 840 42 45
3 840 839 43
3 43 42 840
3 578 579 45
3 566 575 578
3 575 577 578
3 577 579 578
3 841 45 949
3 45 579 949
3 949 577 947
3 949 579 577
3 843 48 842
3 842 48 839
3 27 28 26
3 26 28 25
3 751 290 289
3 755 747 753
3 748 750 296
3 747 750 748
3 105 104 761
3 104 763 761
3 761 111 105
3 761 753 759
3 761 763 753
3 184 755 185
3 185 755 191
3 481 478 483
3 465 478 481
3 482 574 572
3 572 471 482
3 484 574 482
3 483 484 482
3 482 481 483
3 105 109 103
3 113 114 115
3 112 114 113
3 116 117 106
3 106 101 116
3 116 118 119
3 119 117 116
3 115 118 116
3 116 113 115
3 108 104 102
3 102 107 108
3 106 107 102
3 102 101 106
3 102 104 105
3 105 103 102
3 110 109 31
3 112 110 31
3 31 47 112
3 277 275 166
3 166 177 277
3 277 177 279
3 279 278 277
3 277 278 265
3 265 275 277
3 646 643 654
3 643 652 654
3 550 652 556
3 556 548 550
3 550 654 652
3 623 610 620
3 622 624 620
3 624 623 620
3 620 621 622
3 549 547 552
3 646 654 549
3 654 550 549
3 549 550 548
3 548 547 549
3 448 455 445
3 446 448 445
3 656 655 661
3 661 662 656
3 661 668 669
3 669 662 661
3 661 667 668
3 289 292 293
3 292 396 293
3 388 396 394
3 394 396 292
3 391 392 386
3 386 401 391
3 181 187 182
3 181 186 187
3 181 196 197
3 197 186 181
3 193 196 181
3 181 180 193
3 745 743 389
3 393 738 745
3 745 389 393
3 745 738 735
3 735 743 745
3 872 873 198
3 198 870 872
3 291 301 302
3 291 286 301
3 292 286 291
3 302 397 291
3 291 394 292
3 22 132 6
3 24 132 22
3 22 21 24
3 6 1 22
3 1 21 22
3 723 717 722
3 728 723 722
3 722 667 728
3 122 124 125
3 719 718 125
3 718 131 125
3 125 721 719
3 125 124 721
3 486 487 488
3 488 485 486
3 489 490 488
3 488 487 489
3 488 496 494
3 488 490 496
3 497 485 495
3 495 391 497
3 495 488 494
3 485 488 495
3 494 392 495
3 392 391 495
3 498 485 497
3 499 500 498
3 498 497 499
3 501 485 498
3 498 500 503
3 503 501 498
3 318 321 306
3 306 307 308
3 306 311 312
3 312 307 306
3 306 322 311
3 306 321 322
3 120 133 136
3 129 130 120
3 130 132 120
3 132 133 120
3 411 515 514
3 514 508 516
3 505 508 514
3 514 515 505
3 147 142 146
3 157 255 146
3 146 255 254
3 254 147 146
3 63 53 55
3 55 53 54
3 54 683 55
3 55 682 63
3 683 682 55
3 516 508 510
3 510 507 509
3 508 507 510
3 695 516 510
3 510 509 695
3 506 521 511
3 511 507 506
3 505 521 506
3 506 507 505
3 512 507 511
3 513 507 512
3 512 511 601
3 601 513 512
3 224 225 223
3 223 222 224
3 228 829 224
3 335 334 227
3 227 226 335
3 222 226 227
3 228 224 227
3 227 224 222
3 820 828 830
3 830 823 820
3 821 436 822
3 821 823 436
3 822 820 821
3 820 823 821
3 336 334 328
3 328 330 336
3 228 227 336
3 336 227 334
3 336 829 228
3 462 446 461
3 461 463 462
3 923 463 460
3 460 924 923
3 460 459 924
3 553 618 646
3 646 549 553
3 552 618 553
3 553 549 552
3 436 332 434
3 332 435 434
3 434 428 436
3 434 435 428
3 438 435 437
3 439 440 437
3 440 438 437
3 437 342 439
3 437 435 342
3 200 212 213
3 214 215 213
3 213 212 214
3 216 201 213
3 213 201 200
3 218 216 213
3 213 215 218
3 411 422 517
3 517 515 411
3 517 422 519
3 519 520 517
3 520 518 517
3 517 518 505
3 505 515 517
3 405 406 408
3 405 408 414
3 414 415 405
3 405 415 417
3 417 418 405
3 421 422 411
3 411 406 421
3 423 422 421
3 421 420 423
3 421 418 420
3 421 405 418
3 406 405 421
3 409 408 407
3 408 406 407
3 45 40 44
3 44 578 45
3 35 37 44
3 44 40 35
3 44 37 566
3 566 578 44
3 41 25 35
3 35 40 41
3 43 48 41
3 41 42 43
3 41 40 42
3 41 26 25
3 35 25 34
3 25 28 34
3 34 37 35
3 36 37 34
3 34 39 36
3 38 39 34
3 27 29 30
3 30 28 27
3 38 34 30
3 30 34 28
3 30 29 767
3 767 766 30
3 30 766 38
3 747 748 749
3 290 751 749
3 296 290 749
3 749 748 296
3 742 743 741
3 741 743 735
3 741 749 751
3 741 735 740
3 740 747 741
3 747 749 741
3 184 750 757
3 757 755 184
3 757 750 747
3 747 755 757
3 191 755 754
3 108 191 754
3 754 755 753
3 762 111 760
3 111 761 760
3 759 762 760
3 760 761 759
3 183 191 189
3 183 185 191
3 189 190 183
3 190 180 183
3 183 181 182
3 180 181 183
3 183 182 184
3 184 185 183
3 466 471 472
3 466 482 471
3 481 482 466
3 465 481 466
3 100 109 110
3 100 103 109
3 100 110 112
3 112 113 100
3 101 102 100
3 100 102 103
3 100 116 101
3 113 116 100
3 33 29 32
3 32 29 27
3 32 109 33
3 32 31 109
3 27 26 32
3 26 31 32
3 564 621 562
3 562 561 564
3 562 551 561
3 552 551 616
3 613 618 616
3 616 618 552
3 546 551 552
3 552 547 546
3 561 551 546
3 545 561 546
3 546 548 545
3 546 547 548
3 457 455 362
3 457 362 364
3 364 459 457
3 395 397 385
3 395 385 388
3 388 394 395
3 395 291 397
3 394 291 395
3 402 391 401
3 402 403 404
3 402 401 403
3 497 391 402
3 404 499 402
3 499 497 402
3 716 717 710
3 716 722 717
3 710 667 716
3 667 722 716
3 318 306 305
3 305 306 308
3 305 315 318
3 308 315 305
3 121 120 136
3 122 120 121
3 121 136 126
3 126 122 121
3 129 120 123
3 123 131 129
3 123 125 131
3 122 125 123
3 123 120 122
3 516 413 412
3 412 514 516
3 411 514 412
3 412 406 411
3 412 407 406
3 412 413 409
3 409 407 412
3 141 156 157
3 157 146 141
3 141 146 142
3 140 153 141
3 141 153 156
3 141 143 140
3 141 142 143
3 833 224 829
3 833 829 826
3 828 330 329
3 329 830 828
3 333 823 329
3 823 830 329
3 329 332 333
3 327 332 329
3 328 327 329
3 329 330 328
3 827 330 828
3 827 336 330
3 829 336 827
3 827 828 826
3 826 829 827
3 46 41 48
3 26 41 46
3 46 48 49
3 49 47 46
3 47 31 46
3 46 31 26
3 742 741 744
3 744 741 751
3 744 396 742
3 744 293 396
3 744 751 289
3 289 293 744
3 756 763 108
3 108 754 756
3 753 763 756
3 756 754 753
3 467 469 468
3 467 468 465
3 465 466 467
3 472 469 467
3 467 466 472
3 617 616 551
3 617 610 613
3 613 616 617
3 458 445 455
3 455 457 458
3 459 460 458
3 458 457 459
3 446 445 458
3 458 461 446
3 463 461 458
3 458 460 463
3 832 640 831
3 826 640 832
3 832 833 826
3 831 233 832
3 832 233 225
3 225 224 832
3 224 833 832
3 621 620 619
3 619 562 621
3 619 620 610
3 610 617 619
3 551 562 619
3 619 617 551
3 661 807 806
3 661 825 819
3 806 667 661
3 819 813 661
3 642 641 661
3 649 642 661
3 661 655 649
3 661 813 807
3 661 641 825
3 872 911 912
3 872 948 930
3 872 857 856
3 891 892 872
3 872 930 898
3 934 933 872
3 872 932 914
3 872 877 876
3 872 860 858
3 872 933 931
3 931 932 872
3 914 913 872
3 872 855 843
3 835 836 872
3 872 834 835
3 875 861 872
3 876 874 872
3 872 951 934
3 858 859 872
3 912 894 872
3 872 893 891
3 952 950 872
3 837 834 872
3 872 836 952
3 872 874 875
3 872 840 841
3 872 892 873
3 841 949 872
3 856 854 872
3 913 911 872
3 894 893 872
3 872 861 860
3 950 951 872
3 947 948 872
3 898 897 872
3 872 838 837
3 843 842 872
3 896 877 872
3 872 895 896
3 871 857 872
3 872 870 871
3 872 854 855
3 859 838 872
3 872 897 895
3 839 840 872
3 872 949 947
3 872 842 839
