# Blender 5.0.1
# www.blender.org
mtllib textured.mtl
o visual
v -0.001343 0.000000 0.000850
v -0.001189 -0.000624 0.000850
v -0.000763 -0.001105 0.000850
v -0.000162 -0.001333 0.000850
v 0.000476 -0.001256 0.000850
v 0.001005 -0.000891 0.000850
v 0.001304 -0.000321 0.000850
v 0.001304 0.000321 0.000850
v 0.001005 0.000891 0.000850
v 0.000476 0.001256 0.000850
v -0.000162 0.001333 0.000850
v -0.000763 0.001105 0.000850
v -0.001189 0.000624 0.000850
v -0.007400 0.000000 0.024109
v -0.007238 -0.001539 0.024109
v -0.006760 -0.003010 0.024109
v -0.005987 -0.004350 0.024109
v -0.004952 -0.005499 0.024109
v -0.003700 -0.006409 0.024109
v -0.002287 -0.007038 0.024109
v -0.000774 -0.007359 0.024109
v 0.000774 -0.007359 0.024109
v 0.002287 -0.007038 0.024109
v 0.003700 -0.006409 0.024109
v 0.004952 -0.005499 0.024109
v 0.005987 -0.004350 0.024109
v 0.006760 -0.003010 0.024109
v 0.007238 -0.001539 0.024109
v 0.007400 0.000000 0.024109
v 0.007238 0.001539 0.024109
v 0.006760 0.003010 0.024109
v 0.005987 0.004350 0.024109
v 0.004952 0.005499 0.024109
v 0.003700 0.006409 0.024109
v 0.002287 0.007038 0.024109
v 0.000774 0.007359 0.024109
v -0.000774 0.007359 0.024109
v -0.002287 0.007038 0.024109
v -0.003700 0.006409 0.024109
v -0.004952 0.005499 0.024109
v -0.005987 0.004350 0.024109
v -0.006760 0.003010 0.024109
v -0.007238 0.001539 0.024109
v -0.007400 0.000000 0.104000
v -0.007238 -0.001539 0.104000
v -0.006760 -0.003010 0.104000
v -0.005987 -0.004350 0.104000
v -0.004952 -0.005499 0.104000
v -0.003700 -0.006409 0.104000
v -0.002287 -0.007038 0.104000
v -0.000774 -0.007359 0.104000
v 0.000774 -0.007359 0.104000
v 0.002287 -0.007038 0.104000
v 0.003700 -0.006409 0.104000
v 0.004952 -0.005499 0.104000
v 0.005987 -0.004350 0.104000
v 0.006760 -0.003010 0.104000
v 0.007238 -0.001539 0.104000
v 0.007400 0.000000 0.104000
v 0.007238 0.001539 0.104000
v 0.006760 0.003010 0.104000
v 0.005987 0.004350 0.104000
v 0.004952 0.005499 0.104000
v 0.003700 0.006409 0.104000
v 0.002287 0.007038 0.104000
v 0.000774 0.007359 0.104000
v -0.000774 0.007359 0.104000
v -0.002287 0.007038 0.104000
v -0.003700 0.006409 0.104000
v -0.004952 0.005499 0.104000
v -0.005987 0.004350 0.104000
v -0.006760 0.003010 0.104000
v -0.007238 0.001539 0.104000
v -0.007400 0.000000 0.050739
v -0.007400 0.000000 0.077370
v -0.007238 0.001539 0.050739
v -0.007238 0.001539 0.077370
v -0.006760 0.003010 0.050739
v -0.006760 0.003010 0.077370
v -0.005987 0.004350 0.050739
v -0.005987 0.004350 0.077370
v -0.004952 0.005499 0.050739
v -0.004952 0.005499 0.077370
v -0.003700 0.006409 0.050739
v -0.003700 0.006409 0.077370
v -0.002287 0.007038 0.050739
v -0.002287 0.007038 0.077370
v -0.000774 0.007359 0.050739
v -0.000774 0.007359 0.077370
v 0.000774 0.007359 0.050739
v 0.000774 0.007359 0.077370
v 0.002287 0.007038 0.050739
v 0.002287 0.007038 0.077370
v 0.003700 0.006409 0.050739
v 0.003700 0.006409 0.077370
v 0.004952 0.005499 0.050739
v 0.004952 0.005499 0.077370
v 0.005987 0.004350 0.050739
v 0.005987 0.004350 0.077370
v 0.006760 0.003010 0.050739
v 0.006760 0.003010 0.077370
v 0.007238 0.001539 0.050739
v 0.007238 0.001539 0.077370
v 0.007400 0.000000 0.050739
v 0.007400 0.000000 0.077370
v 0.007238 -0.001539 0.050739
v 0.007238 -0.001539 0.077370
v 0.006760 -0.003010 0.050739
v 0.006760 -0.003010 0.077370
v 0.005987 -0.004350 0.050739
v 0.005987 -0.004350 0.077370
v 0.004952 -0.005499 0.050739
v 0.004952 -0.005499 0.077370
v 0.003700 -0.006409 0.050739
v 0.003700 -0.006409 0.077370
v 0.002287 -0.007038 0.050739
v 0.002287 -0.007038 0.077370
v 0.000774 -0.007359 0.050739
v 0.000774 -0.007359 0.077370
v -0.000774 -0.007359 0.050739
v -0.000774 -0.007359 0.077370
v -0.002287 -0.007038 0.050739
v -0.002287 -0.007038 0.077370
v -0.003700 -0.006409 0.050739
v -0.003700 -0.006409 0.077370
v -0.004952 -0.005499 0.050739
v -0.004952 -0.005499 0.077370
v -0.005987 -0.004350 0.050739
v -0.005987 -0.004350 0.077370
v -0.006760 -0.003010 0.050739
v -0.006760 -0.003010 0.077370
v -0.007238 -0.001539 0.050739
v -0.007238 -0.001539 0.077370
v -0.002000 0.000000 0.000000
v -0.001848 0.000765 -0.000000
v -0.001414 0.001414 -0.000000
v -0.000765 0.001848 -0.000000
v 0.000000 0.002000 -0.000000
v 0.000765 0.001848 -0.000000
v 0.001414 0.001414 -0.000000
v 0.001848 0.000765 -0.000000
v 0.002000 0.000000 0.000000
v 0.001848 -0.000765 0.000000
v 0.001414 -0.001414 0.000000
v 0.000765 -0.001848 0.000000
v 0.000000 -0.002000 0.000000
v -0.000765 -0.001848 0.000000
v -0.001414 -0.001414 0.000000
v -0.001848 -0.000765 0.000000
v 0.008250 0.000000 0.024000
v 0.008081 -0.001661 0.024000
v 0.007581 -0.003253 0.024000
v 0.006771 -0.004713 0.024000
v 0.005684 -0.005980 0.024000
v 0.004364 -0.007001 0.024000
v 0.002865 -0.007736 0.024000
v 0.001249 -0.008155 0.024000
v -0.000418 -0.008239 0.024000
v -0.002068 -0.007987 0.024000
v -0.003633 -0.007407 0.024000
v -0.005050 -0.006524 0.024000
v -0.006260 -0.005374 0.024000
v -0.007213 -0.004004 0.024000
v -0.007872 -0.002470 0.024000
v -0.008208 -0.000835 0.024000
v -0.008208 0.000835 0.024000
v -0.007872 0.002470 0.024000
v -0.007213 0.004004 0.024000
v -0.006260 0.005374 0.024000
v -0.005050 0.006524 0.024000
v -0.003633 0.007407 0.024000
v -0.002068 0.007987 0.024000
v -0.000418 0.008239 0.024000
v 0.001249 0.008155 0.024000
v 0.002865 0.007736 0.024000
v 0.004364 0.007001 0.024000
v 0.005684 0.005980 0.024000
v 0.006771 0.004713 0.024000
v 0.007581 0.003253 0.024000
v 0.008081 0.001661 0.024000
v 0.008250 0.000000 0.104000
v 0.008081 -0.001661 0.104000
v 0.007581 -0.003253 0.104000
v 0.006771 -0.004713 0.104000
v 0.005684 -0.005980 0.104000
v 0.004364 -0.007001 0.104000
v 0.002865 -0.007736 0.104000
v 0.001249 -0.008155 0.104000
v -0.000418 -0.008239 0.104000
v -0.002068 -0.007987 0.104000
v -0.003633 -0.007407 0.104000
v -0.005050 -0.006524 0.104000
v -0.006260 -0.005374 0.104000
v -0.007213 -0.004004 0.104000
v -0.007872 -0.002470 0.104000
v -0.008208 -0.000835 0.104000
v -0.008208 0.000835 0.104000
v -0.007872 0.002470 0.104000
v -0.007213 0.004004 0.104000
v -0.006260 0.005374 0.104000
v -0.005050 0.006524 0.104000
v -0.003633 0.007407 0.104000
v -0.002068 0.007987 0.104000
v -0.000418 0.008239 0.104000
v 0.001249 0.008155 0.104000
v 0.002865 0.007736 0.104000
v 0.004364 0.007001 0.104000
v 0.005684 0.005980 0.104000
v 0.006771 0.004713 0.104000
v 0.007581 0.003253 0.104000
v 0.008081 0.001661 0.104000
v -0.008250 0.000000 0.050667
v -0.008250 0.000000 0.077333
v 0.008208 0.000835 0.050667
v 0.008208 0.000835 0.077333
v 0.008208 -0.000835 0.077333
v 0.008208 -0.000835 0.050667
v 0.007872 0.002470 0.050667
v 0.007872 0.002470 0.077333
v 0.007213 0.004004 0.050667
v 0.007213 0.004004 0.077333
v 0.006260 0.005374 0.050667
v 0.006260 0.005374 0.077333
v 0.005050 0.006524 0.050667
v 0.005050 0.006524 0.077333
v 0.003633 0.007407 0.050667
v 0.003633 0.007407 0.077333
v 0.002068 0.007987 0.050667
v 0.002068 0.007987 0.077333
v 0.000418 0.008239 0.050667
v 0.000418 0.008239 0.077333
v -0.001249 0.008155 0.050667
v -0.001249 0.008155 0.077333
v -0.002865 0.007736 0.050667
v -0.002865 0.007736 0.077333
v -0.004364 0.007001 0.050667
v -0.004364 0.007001 0.077333
v -0.005684 0.005980 0.050667
v -0.005684 0.005980 0.077333
v -0.006771 0.004713 0.050667
v -0.006771 0.004713 0.077333
v -0.007581 0.003253 0.050667
v -0.007581 0.003253 0.077333
v -0.008081 0.001661 0.050667
v -0.008081 0.001661 0.077333
v -0.008081 -0.001661 0.050667
v -0.008081 -0.001661 0.077333
v -0.007581 -0.003253 0.050667
v -0.007581 -0.003253 0.077333
v -0.006771 -0.004713 0.050667
v -0.006771 -0.004713 0.077333
v -0.005684 -0.005980 0.050667
v -0.005684 -0.005980 0.077333
v -0.004364 -0.007001 0.050667
v -0.004364 -0.007001 0.077333
v -0.002865 -0.007736 0.050667
v -0.002865 -0.007736 0.077333
v -0.001249 -0.008155 0.050667
v -0.001249 -0.008155 0.077333
v 0.000418 -0.008239 0.050667
v 0.000418 -0.008239 0.077333
v 0.002068 -0.007987 0.050667
v 0.002068 -0.007987 0.077333
v 0.003633 -0.007407 0.050667
v 0.003633 -0.007407 0.077333
v 0.005050 -0.006524 0.050667
v 0.005050 -0.006524 0.077333
v 0.006260 -0.005374 0.050667
v 0.006260 -0.005374 0.077333
v 0.007213 -0.004004 0.050667
v 0.007213 -0.004004 0.077333
v 0.007872 -0.002470 0.050667
v 0.007872 -0.002470 0.077333
vn -0.0000 -0.0000 1.0000
vn 0.9628 -0.1012 0.2507
vn 0.9628 0.1012 0.2507
vn 0.9393 0.2315 0.2534
vn 0.9206 0.2991 0.2512
vn 0.8384 0.4841 0.2505
vn 0.7243 0.6417 0.2522
vn 0.7192 0.6476 0.2519
vn 0.5691 0.7832 0.2504
vn 0.3937 0.8842 0.2513
vn 0.3431 0.9045 0.2532
vn 0.2013 0.9469 0.2506
vn -0.0000 0.9680 0.2508
vn -0.1166 0.9603 0.2535
vn -0.2013 0.9468 0.2510
vn -0.3938 0.8844 0.2505
vn -0.5496 0.7963 0.2526
vn -0.5689 0.7830 0.2517
vn -0.7195 0.6478 0.2504
vn -0.8382 0.4839 0.2515
vn -0.8567 0.4496 0.2529
vn -0.9207 0.2992 0.2506
vn -0.9627 0.1012 0.2509
vn -0.9673 -0.0000 0.2535
vn -0.9627 -0.1012 0.2509
vn -0.9207 -0.2992 0.2506
vn -0.8567 -0.4496 0.2529
vn -0.8382 -0.4839 0.2515
vn -0.7195 -0.6478 0.2504
vn -0.5689 -0.7830 0.2517
vn -0.5496 -0.7963 0.2526
vn -0.3938 -0.8844 0.2505
vn -0.2013 -0.9468 0.2510
vn -0.1166 -0.9603 0.2535
vn -0.0000 -0.9680 0.2508
vn 0.2013 -0.9469 0.2506
vn 0.3431 -0.9045 0.2532
vn 0.3937 -0.8842 0.2513
vn 0.5691 -0.7832 0.2504
vn 0.7192 -0.6476 0.2519
vn 0.7243 -0.6417 0.2522
vn 0.8384 -0.4841 0.2505
vn 0.9206 -0.2991 0.2512
vn 0.9393 -0.2315 0.2534
vn 0.9945 -0.1045 -0.0000
vn 0.9945 0.1045 -0.0000
vn 0.9511 0.3090 -0.0000
vn 0.8660 0.5000 -0.0000
vn 0.7431 0.6691 -0.0000
vn 0.5878 0.8090 -0.0000
vn 0.4067 0.9135 -0.0000
vn 0.2079 0.9781 -0.0000
vn -0.0000 1.0000 -0.0000
vn -0.2079 0.9781 -0.0000
vn -0.4067 0.9135 -0.0000
vn -0.5878 0.8090 -0.0000
vn -0.7431 0.6691 -0.0000
vn -0.8660 0.5000 -0.0000
vn -0.9511 0.3090 -0.0000
vn -0.9945 0.1045 -0.0000
vn -0.9945 -0.1045 -0.0000
vn -0.9511 -0.3090 -0.0000
vn -0.8660 -0.5000 -0.0000
vn -0.7431 -0.6691 -0.0000
vn -0.5878 -0.8090 -0.0000
vn -0.4067 -0.9135 -0.0000
vn -0.2079 -0.9781 -0.0000
vn -0.0000 -1.0000 -0.0000
vn 0.2079 -0.9781 -0.0000
vn 0.4067 -0.9135 -0.0000
vn 0.5878 -0.8090 -0.0000
vn 0.7431 -0.6691 -0.0000
vn 0.8660 -0.5000 -0.0000
vn 0.9511 -0.3090 -0.0000
vn -0.0000 -0.0000 -1.0000
vn 0.9631 0.0979 -0.2508
vn 0.9631 -0.0979 -0.2508
vn 0.9488 -0.1887 -0.2535
vn 0.9237 -0.2898 -0.2507
vn 0.8464 -0.4698 -0.2509
vn 0.8043 -0.5374 -0.2534
vn 0.7345 -0.6306 -0.2506
vn 0.5925 -0.7655 -0.2510
vn 0.5375 -0.8044 -0.2533
vn 0.4263 -0.8692 -0.2506
vn 0.2426 -0.9370 -0.2511
vn 0.1887 -0.9488 -0.2532
vn 0.0490 -0.9669 -0.2505
vn -0.1466 -0.9568 -0.2513
vn -0.1887 -0.9489 -0.2530
vn -0.3362 -0.9079 -0.2505
vn -0.5120 -0.8214 -0.2514
vn -0.5375 -0.8045 -0.2527
vn -0.6670 -0.7017 -0.2504
vn -0.7944 -0.5529 -0.2516
vn -0.8045 -0.5376 -0.2524
vn -0.8897 -0.3818 -0.2504
vn -0.9480 -0.1948 -0.2518
vn -0.9491 -0.1888 -0.2521
vn -0.9681 -0.0000 -0.2504
vn -0.9491 0.1888 -0.2521
vn -0.9480 0.1948 -0.2518
vn -0.8897 0.3818 -0.2504
vn -0.8045 0.5376 -0.2524
vn -0.7944 0.5529 -0.2516
vn -0.6670 0.7017 -0.2504
vn -0.5375 0.8045 -0.2527
vn -0.5120 0.8214 -0.2514
vn -0.3362 0.9079 -0.2505
vn -0.1887 0.9489 -0.2530
vn -0.1466 0.9568 -0.2513
vn 0.0490 0.9669 -0.2505
vn 0.1887 0.9488 -0.2532
vn 0.2426 0.9370 -0.2511
vn 0.4263 0.8692 -0.2506
vn 0.5375 0.8044 -0.2533
vn 0.5925 0.7655 -0.2510
vn 0.7345 0.6306 -0.2506
vn 0.8043 0.5374 -0.2534
vn 0.8464 0.4698 -0.2509
vn 0.9237 0.2898 -0.2507
vn 0.9488 0.1887 -0.2535
vn 0.9949 0.1012 -0.0016
vn 1.0000 -0.0000 0.0016
vn 0.9949 -0.1012 -0.0016
vn 0.9795 -0.2013 0.0016
vn 0.9541 -0.2994 -0.0016
vn 0.9190 -0.3944 0.0016
vn 0.8743 -0.4853 -0.0016
vn 0.8208 -0.5713 0.0016
vn 0.7588 -0.6514 -0.0016
vn 0.6890 -0.7248 0.0016
vn 0.6121 -0.7908 -0.0016
vn 0.5290 -0.8486 0.0016
vn 0.4404 -0.8978 -0.0016
vn 0.3473 -0.9378 0.0016
vn 0.2507 -0.9681 -0.0016
vn 0.1514 -0.9885 0.0016
vn 0.0506 -0.9987 -0.0016
vn -0.0506 -0.9987 0.0016
vn -0.1514 -0.9885 -0.0016
vn -0.2507 -0.9681 0.0016
vn -0.3473 -0.9378 -0.0016
vn -0.4404 -0.8978 0.0016
vn -0.5290 -0.8486 -0.0016
vn -0.6121 -0.7908 0.0016
vn -0.6890 -0.7248 -0.0016
vn -0.7588 -0.6514 0.0016
vn -0.8208 -0.5713 -0.0016
vn -0.8743 -0.4853 0.0016
vn -0.9190 -0.3944 -0.0016
vn -0.9541 -0.2994 0.0016
vn -0.9795 -0.2013 -0.0016
vn -0.9949 -0.1012 0.0016
vn -1.0000 -0.0000 -0.0016
vn -0.9949 0.1012 0.0016
vn -0.9795 0.2013 -0.0016
vn -0.9541 0.2994 0.0016
vn -0.9190 0.3944 -0.0016
vn -0.8743 0.4853 0.0016
vn -0.8208 0.5713 -0.0016
vn -0.7588 0.6514 0.0016
vn -0.6890 0.7248 -0.0016
vn -0.6121 0.7908 0.0016
vn -0.5290 0.8486 -0.0016
vn -0.4404 0.8978 0.0016
vn -0.3473 0.9378 -0.0016
vn -0.2507 0.9681 0.0016
vn -0.1514 0.9885 -0.0016
vn -0.0506 0.9987 0.0016
vn 0.0506 0.9987 -0.0016
vn 0.1514 0.9885 0.0016
vn 0.2507 0.9681 -0.0016
vn 0.3473 0.9378 0.0016
vn 0.4404 0.8978 -0.0016
vn 0.5290 0.8486 0.0016
vn 0.6121 0.7908 -0.0016
vn 0.6890 0.7248 0.0016
vn 0.7588 0.6514 -0.0016
vn 0.8208 0.5713 0.0016
vn 0.8743 0.4853 -0.0016
vn 0.9190 0.3944 0.0016
vn 0.9541 0.2994 -0.0016
vn 0.9795 0.2013 0.0016
vn 0.9949 -0.1012 0.0016
vn 1.0000 -0.0000 -0.0016
vn 0.9949 0.1012 0.0016
vn 0.9795 0.2013 -0.0016
vn 0.9541 0.2994 0.0016
vn 0.9190 0.3944 -0.0016
vn 0.8743 0.4853 0.0016
vn 0.8208 0.5713 -0.0016
vn 0.7588 0.6514 0.0016
vn 0.6890 0.7248 -0.0016
vn 0.6121 0.7908 0.0016
vn 0.5290 0.8486 -0.0016
vn 0.4404 0.8978 0.0016
vn 0.3473 0.9378 -0.0016
vn 0.2507 0.9681 0.0016
vn 0.1514 0.9885 -0.0016
vn 0.0506 0.9987 0.0016
vn -0.0506 0.9987 -0.0016
vn -0.1514 0.9885 0.0016
vn -0.2507 0.9681 -0.0016
vn -0.3473 0.9378 0.0016
vn -0.4404 0.8978 -0.0016
vn -0.5290 0.8486 0.0016
vn -0.6121 0.7908 -0.0016
vn -0.6890 0.7248 0.0016
vn -0.7588 0.6514 -0.0016
vn -0.8208 0.5713 0.0016
vn -0.8743 0.4853 -0.0016
vn -0.9190 0.3944 0.0016
vn -0.9541 0.2994 -0.0016
vn -0.9795 0.2013 0.0016
vn -0.9949 0.1012 -0.0016
vn -1.0000 -0.0000 0.0016
vn -0.9949 -0.1012 -0.0016
vn -0.9795 -0.2013 0.0016
vn -0.9541 -0.2994 -0.0016
vn -0.9190 -0.3944 0.0016
vn -0.8743 -0.4853 -0.0016
vn -0.8208 -0.5713 0.0016
vn -0.7588 -0.6514 -0.0016
vn -0.6890 -0.7248 0.0016
vn -0.6121 -0.7908 -0.0016
vn -0.5290 -0.8486 0.0016
vn -0.4404 -0.8978 -0.0016
vn -0.3473 -0.9378 0.0016
vn -0.2507 -0.9681 -0.0016
vn -0.1514 -0.9885 0.0016
vn -0.0506 -0.9987 -0.0016
vn 0.0506 -0.9987 0.0016
vn 0.1514 -0.9885 -0.0016
vn 0.2507 -0.9681 0.0016
vn 0.3473 -0.9378 -0.0016
vn 0.4404 -0.8978 0.0016
vn 0.5290 -0.8486 -0.0016
vn 0.6121 -0.7908 0.0016
vn 0.6890 -0.7248 -0.0016
vn 0.7588 -0.6514 0.0016
vn 0.8208 -0.5713 -0.0016
vn 0.8743 -0.4853 0.0016
vn 0.9190 -0.3944 -0.0016
vn 0.9541 -0.2994 0.0016
vn 0.9795 -0.2013 -0.0016
vn -0.9949 0.1012 -0.0000
vn -0.9541 0.2994 -0.0000
vn -0.8743 0.4853 -0.0000
vn -0.7588 0.6514 -0.0000
vn -0.6121 0.7908 -0.0000
vn -0.4404 0.8978 -0.0000
vn -0.2507 0.9681 -0.0000
vn -0.0506 0.9987 -0.0000
vn 0.1514 0.9885 -0.0000
vn 0.3473 0.9378 -0.0000
vn 0.5290 0.8486 -0.0000
vn 0.6890 0.7248 -0.0000
vn 0.8208 0.5713 -0.0000
vn 0.9190 0.3944 -0.0000
vn 0.9795 0.2013 -0.0000
vn 1.0000 -0.0000 -0.0000
vn 0.9795 -0.2013 -0.0000
vn 0.9190 -0.3944 -0.0000
vn 0.8208 -0.5713 -0.0000
vn 0.6890 -0.7248 -0.0000
vn 0.5290 -0.8486 -0.0000
vn 0.3473 -0.9378 -0.0000
vn 0.1514 -0.9885 -0.0000
vn -0.0506 -0.9987 -0.0000
vn -0.2507 -0.9681 -0.0000
vn -0.4404 -0.8978 -0.0000
vn -0.6121 -0.7908 -0.0000
vn -0.7588 -0.6514 -0.0000
vn -0.8743 -0.4853 -0.0000
vn -0.9541 -0.2994 -0.0000
vn -0.9949 -0.1012 -0.0000
s 0
usemtl Material
f 1//1 2//1 13//1
f 13//1 2//1 3//1
f 13//1 3//1 12//1
f 12//1 3//1 4//1
f 12//1 4//1 11//1
f 11//1 4//1 5//1
f 11//1 5//1 10//1
f 10//1 5//1 6//1
f 10//1 6//1 9//1
f 9//1 6//1 7//1
f 9//1 7//1 8//1
f 43//2 14//2 1//2
f 1//3 14//3 15//3
f 1//4 15//4 2//4
f 2//5 15//5 16//5
f 2//6 16//6 17//6
f 2//7 17//7 3//7
f 3//8 17//8 18//8
f 3//9 18//9 19//9
f 19//10 20//10 3//10
f 3//11 20//11 4//11
f 4//12 20//12 21//12
f 4//13 21//13 22//13
f 4//14 22//14 5//14
f 5//15 22//15 23//15
f 5//16 23//16 24//16
f 5//17 24//17 6//17
f 6//18 24//18 25//18
f 6//19 25//19 26//19
f 26//20 27//20 6//20
f 6//21 27//21 7//21
f 7//22 27//22 28//22
f 7//23 28//23 29//23
f 7//24 29//24 8//24
f 8//25 29//25 30//25
f 8//26 30//26 31//26
f 8//27 31//27 9//27
f 9//28 31//28 32//28
f 9//29 32//29 33//29
f 33//30 34//30 9//30
f 9//31 34//31 10//31
f 10//32 34//32 35//32
f 10//33 35//33 36//33
f 10//34 36//34 11//34
f 11//35 36//35 37//35
f 11//36 37//36 38//36
f 11//37 38//37 12//37
f 12//38 38//38 39//38
f 12//39 39//39 40//39
f 40//40 41//40 12//40
f 12//41 41//41 13//41
f 13//42 41//42 42//42
f 13//43 42//43 43//43
f 13//44 43//44 1//44
f 43//45 76//45 14//45
f 14//45 76//45 74//45
f 14//46 74//46 15//46
f 15//46 74//46 132//46
f 15//47 132//47 16//47
f 16//47 132//47 130//47
f 16//48 130//48 17//48
f 17//48 130//48 128//48
f 17//49 128//49 18//49
f 18//49 128//49 126//49
f 18//50 126//50 19//50
f 19//50 126//50 124//50
f 19//51 124//51 20//51
f 20//51 124//51 122//51
f 20//52 122//52 21//52
f 21//52 122//52 120//52
f 21//53 120//53 22//53
f 22//53 120//53 118//53
f 22//54 118//54 23//54
f 23//54 118//54 116//54
f 23//55 116//55 24//55
f 24//55 116//55 114//55
f 24//56 114//56 25//56
f 25//56 114//56 112//56
f 25//57 112//57 26//57
f 26//57 112//57 110//57
f 26//58 110//58 27//58
f 27//58 110//58 108//58
f 27//59 108//59 28//59
f 28//59 108//59 106//59
f 28//60 106//60 29//60
f 29//60 106//60 104//60
f 29//61 104//61 30//61
f 30//61 104//61 102//61
f 30//62 102//62 31//62
f 31//62 102//62 100//62
f 31//63 100//63 32//63
f 32//63 100//63 98//63
f 32//64 98//64 33//64
f 33//64 98//64 96//64
f 33//65 96//65 34//65
f 34//65 96//65 94//65
f 34//66 94//66 35//66
f 35//66 94//66 92//66
f 35//67 92//67 36//67
f 36//67 92//67 90//67
f 36//68 90//68 37//68
f 37//68 90//68 88//68
f 37//69 88//69 38//69
f 38//69 88//69 86//69
f 38//70 86//70 39//70
f 39//70 86//70 84//70
f 39//71 84//71 40//71
f 40//71 84//71 82//71
f 40//72 82//72 41//72
f 41//72 82//72 80//72
f 41//73 80//73 42//73
f 42//73 80//73 78//73
f 42//74 78//74 43//74
f 43//74 78//74 76//74
f 45//46 133//46 44//46
f 44//46 133//46 75//46
f 44//45 75//45 73//45
f 73//45 75//45 77//45
f 73//74 77//74 72//74
f 72//74 77//74 79//74
f 72//73 79//73 71//73
f 71//73 79//73 81//73
f 71//72 81//72 70//72
f 70//72 81//72 83//72
f 70//71 83//71 69//71
f 69//71 83//71 85//71
f 69//70 85//70 68//70
f 68//70 85//70 87//70
f 68//69 87//69 67//69
f 67//69 87//69 89//69
f 67//68 89//68 66//68
f 66//68 89//68 91//68
f 66//67 91//67 65//67
f 65//67 91//67 93//67
f 65//66 93//66 64//66
f 64//66 93//66 95//66
f 64//65 95//65 63//65
f 63//65 95//65 97//65
f 63//64 97//64 62//64
f 62//64 97//64 99//64
f 62//63 99//63 61//63
f 61//63 99//63 101//63
f 61//62 101//62 60//62
f 60//62 101//62 103//62
f 60//61 103//61 59//61
f 59//61 103//61 105//61
f 59//60 105//60 58//60
f 58//60 105//60 107//60
f 58//59 107//59 57//59
f 57//59 107//59 109//59
f 57//58 109//58 56//58
f 56//58 109//58 111//58
f 56//57 111//57 55//57
f 55//57 111//57 113//57
f 55//56 113//56 54//56
f 54//56 113//56 115//56
f 54//55 115//55 53//55
f 53//55 115//55 117//55
f 53//54 117//54 52//54
f 52//54 117//54 119//54
f 52//53 119//53 51//53
f 51//53 119//53 121//53
f 51//52 121//52 50//52
f 50//52 121//52 123//52
f 50//51 123//51 49//51
f 49//51 123//51 125//51
f 49//50 125//50 48//50
f 48//50 125//50 127//50
f 48//49 127//49 47//49
f 47//49 127//49 129//49
f 47//48 129//48 46//48
f 46//48 129//48 131//48
f 46//47 131//47 45//47
f 45//47 131//47 133//47
f 74//46 75//46 132//46
f 132//46 75//46 133//46
f 132//47 133//47 130//47
f 130//47 133//47 131//47
f 130//48 131//48 128//48
f 128//48 131//48 129//48
f 128//49 129//49 126//49
f 126//49 129//49 127//49
f 126//50 127//50 124//50
f 124//50 127//50 125//50
f 124//51 125//51 122//51
f 122//51 125//51 123//51
f 122//52 123//52 120//52
f 120//52 123//52 121//52
f 120//53 121//53 118//53
f 118//53 121//53 119//53
f 118//54 119//54 116//54
f 116//54 119//54 117//54
f 116//55 117//55 114//55
f 114//55 117//55 115//55
f 114//56 115//56 112//56
f 112//56 115//56 113//56
f 112//57 113//57 110//57
f 110//57 113//57 111//57
f 110//58 111//58 108//58
f 108//58 111//58 109//58
f 108//59 109//59 106//59
f 106//59 109//59 107//59
f 106//60 107//60 104//60
f 104//60 107//60 105//60
f 104//61 105//61 102//61
f 102//61 105//61 103//61
f 102//62 103//62 100//62
f 100//62 103//62 101//62
f 100//63 101//63 98//63
f 98//63 101//63 99//63
f 98//64 99//64 96//64
f 96//64 99//64 97//64
f 96//65 97//65 94//65
f 94//65 97//65 95//65
f 94//66 95//66 92//66
f 92//66 95//66 93//66
f 92//67 93//67 90//67
f 90//67 93//67 91//67
f 90//68 91//68 88//68
f 88//68 91//68 89//68
f 88//69 89//69 86//69
f 86//69 89//69 87//69
f 86//70 87//70 84//70
f 84//70 87//70 85//70
f 84//71 85//71 82//71
f 82//71 85//71 83//71
f 82//72 83//72 80//72
f 80//72 83//72 81//72
f 80//73 81//73 78//73
f 78//73 81//73 79//73
f 78//74 79//74 76//74
f 76//74 79//74 77//74
f 76//45 77//45 74//45
f 74//45 77//45 75//45
f 135//75 141//75 134//75
f 134//75 141//75 142//75
f 134//75 142//75 149//75
f 149//75 142//75 143//75
f 149//75 143//75 148//75
f 148//75 143//75 144//75
f 148//75 144//75 147//75
f 147//75 144//75 145//75
f 147//75 145//75 146//75
f 141//75 135//75 140//75
f 140//75 135//75 136//75
f 140//75 136//75 139//75
f 139//75 136//75 137//75
f 139//75 137//75 138//75
f 180//76 150//76 142//76
f 142//77 150//77 151//77
f 142//78 151//78 143//78
f 143//79 151//79 152//79
f 143//80 152//80 153//80
f 143//81 153//81 144//81
f 144//82 153//82 154//82
f 144//83 154//83 155//83
f 144//84 155//84 145//84
f 145//85 155//85 156//85
f 145//86 156//86 157//86
f 145//87 157//87 146//87
f 146//88 157//88 158//88
f 146//89 158//89 159//89
f 146//90 159//90 147//90
f 147//91 159//91 160//91
f 147//92 160//92 161//92
f 147//93 161//93 148//93
f 148//94 161//94 162//94
f 148//95 162//95 163//95
f 148//96 163//96 149//96
f 149//97 163//97 164//97
f 149//98 164//98 165//98
f 149//99 165//99 134//99
f 134//100 165//100 166//100
f 134//101 166//101 135//101
f 135//102 166//102 167//102
f 135//103 167//103 168//103
f 135//104 168//104 136//104
f 136//105 168//105 169//105
f 136//106 169//106 170//106
f 136//107 170//107 137//107
f 137//108 170//108 171//108
f 137//109 171//109 172//109
f 137//110 172//110 138//110
f 138//111 172//111 173//111
f 138//112 173//112 174//112
f 138//113 174//113 139//113
f 139//114 174//114 175//114
f 139//115 175//115 176//115
f 139//116 176//116 140//116
f 140//117 176//117 177//117
f 140//118 177//118 178//118
f 140//119 178//119 141//119
f 141//120 178//120 179//120
f 141//121 179//121 180//121
f 141//122 180//122 142//122
f 180//123 214//123 150//123
f 150//124 214//124 217//124
f 150//125 217//125 151//125
f 151//126 217//126 272//126
f 151//127 272//127 152//127
f 152//128 272//128 270//128
f 152//129 270//129 153//129
f 153//130 270//130 268//130
f 153//131 268//131 154//131
f 154//132 268//132 266//132
f 154//133 266//133 155//133
f 155//134 266//134 264//134
f 155//135 264//135 156//135
f 156//136 264//136 262//136
f 156//137 262//137 157//137
f 157//138 262//138 260//138
f 157//139 260//139 158//139
f 158//140 260//140 258//140
f 158//141 258//141 159//141
f 159//142 258//142 256//142
f 159//143 256//143 160//143
f 160//144 256//144 254//144
f 160//145 254//145 161//145
f 161//146 254//146 252//146
f 161//147 252//147 162//147
f 162//148 252//148 250//148
f 162//149 250//149 163//149
f 163//150 250//150 248//150
f 163//151 248//151 164//151
f 164//152 248//152 246//152
f 164//153 246//153 165//153
f 165//154 246//154 212//154
f 165//155 212//155 166//155
f 166//156 212//156 244//156
f 166//157 244//157 167//157
f 167//158 244//158 242//158
f 167//159 242//159 168//159
f 168//160 242//160 240//160
f 168//161 240//161 169//161
f 169//162 240//162 238//162
f 169//163 238//163 170//163
f 170//164 238//164 236//164
f 170//165 236//165 171//165
f 171//166 236//166 234//166
f 171//167 234//167 172//167
f 172//168 234//168 232//168
f 172//169 232//169 173//169
f 173//170 232//170 230//170
f 173//171 230//171 174//171
f 174//172 230//172 228//172
f 174//173 228//173 175//173
f 175//174 228//174 226//174
f 175//175 226//175 176//175
f 176//176 226//176 224//176
f 176//177 224//177 177//177
f 177//178 224//178 222//178
f 177//179 222//179 178//179
f 178//180 222//180 220//180
f 178//181 220//181 179//181
f 179//182 220//182 218//182
f 179//183 218//183 180//183
f 180//184 218//184 214//184
f 182//185 216//185 181//185
f 181//186 216//186 215//186
f 181//187 215//187 211//187
f 211//188 215//188 219//188
f 211//189 219//189 210//189
f 210//190 219//190 221//190
f 210//191 221//191 209//191
f 209//192 221//192 223//192
f 209//193 223//193 208//193
f 208//194 223//194 225//194
f 208//195 225//195 207//195
f 207//196 225//196 227//196
f 207//197 227//197 206//197
f 206//198 227//198 229//198
f 206//199 229//199 205//199
f 205//200 229//200 231//200
f 205//201 231//201 204//201
f 204//202 231//202 233//202
f 204//203 233//203 203//203
f 203//204 233//204 235//204
f 203//205 235//205 202//205
f 202//206 235//206 237//206
f 202//207 237//207 201//207
f 201//208 237//208 239//208
f 201//209 239//209 200//209
f 200//210 239//210 241//210
f 200//211 241//211 199//211
f 199//212 241//212 243//212
f 199//213 243//213 198//213
f 198//214 243//214 245//214
f 198//215 245//215 197//215
f 197//216 245//216 213//216
f 197//217 213//217 196//217
f 196//218 213//218 247//218
f 196//219 247//219 195//219
f 195//220 247//220 249//220
f 195//221 249//221 194//221
f 194//222 249//222 251//222
f 194//223 251//223 193//223
f 193//224 251//224 253//224
f 193//225 253//225 192//225
f 192//226 253//226 255//226
f 192//227 255//227 191//227
f 191//228 255//228 257//228
f 191//229 257//229 190//229
f 190//230 257//230 259//230
f 190//231 259//231 189//231
f 189//232 259//232 261//232
f 189//233 261//233 188//233
f 188//234 261//234 263//234
f 188//235 263//235 187//235
f 187//236 263//236 265//236
f 187//237 265//237 186//237
f 186//238 265//238 267//238
f 186//239 267//239 185//239
f 185//240 267//240 269//240
f 185//241 269//241 184//241
f 184//242 269//242 271//242
f 184//243 271//243 183//243
f 183//244 271//244 273//244
f 183//245 273//245 182//245
f 182//246 273//246 216//246
f 212//247 213//247 244//247
f 244//247 213//247 245//247
f 244//248 245//248 242//248
f 242//248 245//248 243//248
f 242//249 243//249 240//249
f 240//249 243//249 241//249
f 240//250 241//250 238//250
f 238//250 241//250 239//250
f 238//251 239//251 236//251
f 236//251 239//251 237//251
f 236//252 237//252 234//252
f 234//252 237//252 235//252
f 234//253 235//253 232//253
f 232//253 235//253 233//253
f 232//254 233//254 230//254
f 230//254 233//254 231//254
f 230//255 231//255 228//255
f 228//255 231//255 229//255
f 228//256 229//256 226//256
f 226//256 229//256 227//256
f 226//257 227//257 224//257
f 224//257 227//257 225//257
f 224//258 225//258 222//258
f 222//258 225//258 223//258
f 222//259 223//259 220//259
f 220//259 223//259 221//259
f 220//260 221//260 218//260
f 218//260 221//260 219//260
f 218//261 219//261 214//261
f 214//261 219//261 215//261
f 214//262 215//262 217//262
f 217//262 215//262 216//262
f 217//263 216//263 272//263
f 272//263 216//263 273//263
f 272//264 273//264 270//264
f 270//264 273//264 271//264
f 270//265 271//265 268//265
f 268//265 271//265 269//265
f 268//266 269//266 266//266
f 266//266 269//266 267//266
f 266//267 267//267 264//267
f 264//267 267//267 265//267
f 264//268 265//268 262//268
f 262//268 265//268 263//268
f 262//269 263//269 260//269
f 260//269 263//269 261//269
f 260//270 261//270 258//270
f 258//270 261//270 259//270
f 258//271 259//271 256//271
f 256//271 259//271 257//271
f 256//272 257//272 254//272
f 254//272 257//272 255//272
f 254//273 255//273 252//273
f 252//273 255//273 253//273
f 252//274 253//274 250//274
f 250//274 253//274 251//274
f 250//275 251//275 248//275
f 248//275 251//275 249//275
f 248//276 249//276 246//276
f 246//276 249//276 247//276
f 246//277 247//277 212//277
f 212//277 247//277 213//277
f 73//1 197//1 44//1
f 44//1 197//1 196//1
f 44//1 196//1 45//1
f 45//1 196//1 195//1
f 45//1 195//1 46//1
f 46//1 195//1 194//1
f 46//1 194//1 47//1
f 47//1 194//1 193//1
f 47//1 193//1 48//1
f 48//1 193//1 192//1
f 48//1 192//1 49//1
f 49//1 192//1 191//1
f 49//1 191//1 50//1
f 50//1 191//1 190//1
f 50//1 190//1 51//1
f 51//1 190//1 189//1
f 51//1 189//1 52//1
f 52//1 189//1 188//1
f 52//1 188//1 53//1
f 53//1 188//1 187//1
f 53//1 187//1 54//1
f 54//1 187//1 186//1
f 54//1 186//1 55//1
f 55//1 186//1 185//1
f 55//1 185//1 56//1
f 56//1 185//1 184//1
f 56//1 184//1 57//1
f 57//1 184//1 183//1
f 57//1 183//1 58//1
f 58//1 183//1 182//1
f 58//1 182//1 59//1
f 59//1 182//1 181//1
f 59//1 181//1 211//1
f 197//1 73//1 198//1
f 198//1 73//1 72//1
f 198//1 72//1 199//1
f 199//1 72//1 71//1
f 199//1 71//1 200//1
f 200//1 71//1 70//1
f 200//1 70//1 201//1
f 201//1 70//1 69//1
f 201//1 69//1 202//1
f 202//1 69//1 68//1
f 202//1 68//1 203//1
f 203//1 68//1 67//1
f 203//1 67//1 204//1
f 204//1 67//1 66//1
f 204//1 66//1 205//1
f 205//1 66//1 65//1
f 205//1 65//1 206//1
f 206//1 65//1 64//1
f 206//1 64//1 207//1
f 207//1 64//1 63//1
f 207//1 63//1 208//1
f 208//1 63//1 62//1
f 208//1 62//1 209//1
f 209//1 62//1 61//1
f 209//1 61//1 210//1
f 210//1 61//1 60//1
f 210//1 60//1 211//1
f 211//1 60//1 59//1
