# Blender 5.1.0
# www.blender.org
mtllib new.mtl
o model_normalized_0
v 0.000000 0.500000 0.025898
v 0.000000 0.500000 0.025898
v -0.097545 0.490393 0.025898
v -0.097545 0.490393 0.025898
v -0.191342 0.461940 0.025898
v -0.191342 0.461940 0.025898
v -0.277785 0.415735 0.025898
v -0.277785 0.415735 0.025898
v -0.353553 0.353553 0.025898
v -0.353553 0.353553 0.025898
v -0.415735 0.277785 0.025898
v -0.415735 0.277785 0.025898
v -0.461940 0.191342 0.025898
v -0.461940 0.191342 0.025898
v -0.490393 0.097545 0.025898
v -0.490393 0.097545 0.025898
v -0.500000 0.000000 0.025898
v -0.500000 0.000000 0.025898
v -0.490393 -0.097545 0.025898
v -0.490393 -0.097545 0.025898
v -0.461940 -0.191342 0.025898
v -0.461940 -0.191342 0.025898
v -0.415735 -0.277785 0.025898
v -0.415735 -0.277785 0.025898
v -0.353553 -0.353553 0.025898
v -0.353553 -0.353553 0.025898
v -0.277785 -0.415735 0.025898
v -0.277785 -0.415735 0.025898
v -0.191342 -0.461940 0.025898
v -0.191342 -0.461940 0.025898
v -0.097545 -0.490393 0.025898
v -0.097545 -0.490393 0.025898
v 0.000000 -0.500000 0.025898
v 0.000000 -0.500000 0.025898
v 0.097545 -0.490393 0.025898
v 0.097545 -0.490393 0.025898
v 0.191342 -0.461940 0.025898
v 0.191342 -0.461940 0.025898
v 0.277785 -0.415735 0.025898
v 0.277785 -0.415735 0.025898
v 0.353554 -0.353553 0.025898
v 0.353554 -0.353553 0.025898
v 0.415735 -0.277785 0.025898
v 0.415735 -0.277785 0.025898
v 0.461940 -0.191341 0.025898
v 0.461940 -0.191341 0.025898
v 0.490393 -0.097545 0.025898
v 0.490393 -0.097545 0.025898
v 0.500000 0.000001 0.025898
v 0.500000 0.000001 0.025898
v 0.490392 0.097546 0.025898
v 0.490392 0.097546 0.025898
v 0.461939 0.191342 0.025898
v 0.461939 0.191342 0.025898
v 0.415734 0.277786 0.025898
v 0.415734 0.277786 0.025898
v 0.353553 0.353554 0.025898
v 0.353553 0.353554 0.025898
v 0.277785 0.415735 0.025898
v 0.277785 0.415735 0.025898
v 0.191341 0.461940 0.025898
v 0.191341 0.461940 0.025898
v 0.097544 0.490393 0.025898
v 0.097544 0.490393 0.025898
v -0.042035 0.211326 -0.021187
v 0.000000 0.215466 -0.021187
v -0.082455 0.199065 -0.021187
v -0.119706 0.179153 -0.021187
v -0.152357 0.152357 -0.021187
v -0.179153 0.119706 -0.021187
v -0.199064 0.082455 -0.021187
v -0.211326 0.042035 -0.021187
v -0.215466 -0.000000 -0.021187
v -0.211326 -0.042035 -0.021187
v -0.199064 -0.082455 -0.021187
v -0.179153 -0.119706 -0.021187
v -0.152357 -0.152357 -0.021187
v -0.119706 -0.179153 -0.021187
v -0.082455 -0.199065 -0.021187
v -0.042035 -0.211326 -0.021187
v 0.000000 -0.215466 -0.021187
v 0.042035 -0.211326 -0.021187
v 0.082455 -0.199065 -0.021187
v 0.119707 -0.179153 -0.021187
v 0.152358 -0.152357 -0.021187
v 0.179153 -0.119706 -0.021187
v 0.199065 -0.082455 -0.021187
v 0.211326 -0.042035 -0.021187
v 0.215466 0.000000 -0.021187
v 0.211326 0.042036 -0.021187
v 0.199064 0.082455 -0.021187
v 0.179153 0.119707 -0.021187
v 0.152357 0.152358 -0.021187
v 0.119706 0.179154 -0.021187
v 0.082455 0.199065 -0.021187
v 0.042035 0.211326 -0.021187
v -0.090148 0.453203 0.008962
v 0.000000 0.462081 0.008962
v -0.176831 0.426908 0.008962
v -0.256719 0.384207 0.008962
v -0.326741 0.326741 0.008962
v -0.384207 0.256719 0.008962
v -0.426907 0.176831 0.008962
v -0.453203 0.090148 0.008962
v -0.462081 0.000000 0.008962
v -0.453203 -0.090148 0.008962
v -0.426908 -0.176831 0.008963
v -0.384207 -0.256719 0.008962
v -0.326741 -0.326741 0.008962
v -0.256719 -0.384207 0.008962
v -0.176831 -0.426908 0.008962
v -0.090147 -0.453203 0.008962
v 0.000000 -0.462081 0.008962
v 0.090148 -0.453203 0.008962
v 0.176831 -0.426908 0.008962
v 0.256719 -0.384207 0.008962
v 0.326741 -0.326741 0.008962
v 0.384207 -0.256718 0.008963
v 0.426908 -0.176831 0.008962
v 0.453203 -0.090147 0.008962
v 0.462081 0.000000 0.008962
v 0.453203 0.090148 0.008962
v 0.426907 0.176831 0.008962
v 0.384206 0.256719 0.008962
v 0.326740 0.326741 0.008962
v 0.256718 0.384207 0.008962
v 0.176830 0.426908 0.008962
v 0.090147 0.453203 0.008962
v -0.084803 0.426332 -0.006272
v 0.000000 0.434684 -0.006272
v -0.166346 0.401596 -0.006272
v -0.241497 0.361427 -0.006272
v -0.307368 0.307368 -0.006272
v -0.361426 0.241497 -0.006272
v -0.401596 0.166346 -0.006272
v -0.426332 0.084803 -0.006272
v -0.434684 0.000000 -0.006272
v -0.426332 -0.084803 -0.006272
v -0.401596 -0.166346 -0.006272
v -0.361426 -0.241497 -0.006272
v -0.307368 -0.307368 -0.006272
v -0.241497 -0.361427 -0.006272
v -0.166346 -0.401596 -0.006272
v -0.084803 -0.426332 -0.006272
v 0.000000 -0.434684 -0.006272
v 0.084803 -0.426332 -0.006272
v 0.166347 -0.401596 -0.006272
v 0.241498 -0.361426 -0.006272
v 0.307368 -0.307368 -0.006272
v 0.361427 -0.241497 -0.006272
v 0.401596 -0.166346 -0.006272
v 0.426332 -0.084802 -0.006272
v 0.434684 0.000000 -0.006272
v 0.426332 0.084803 -0.006272
v 0.401595 0.166347 -0.006272
v 0.361426 0.241498 -0.006272
v 0.307368 0.307368 -0.006272
v 0.241497 0.361427 -0.006272
v 0.166346 0.401596 -0.006272
v 0.084802 0.426332 -0.006272
v -0.079413 0.399237 -0.011510
v 0.000000 0.407059 -0.011510
v -0.155775 0.376073 -0.011510
v -0.226150 0.338457 -0.011510
v -0.287834 0.287834 -0.011510
v -0.338457 0.226150 -0.011510
v -0.376073 0.155775 -0.011510
v -0.399237 0.079413 -0.011510
v -0.407059 -0.000000 -0.011510
v -0.399237 -0.079413 -0.011510
v -0.376073 -0.155775 -0.011510
v -0.338457 -0.226150 -0.011510
v -0.287834 -0.287834 -0.011509
v -0.226150 -0.338457 -0.011509
v -0.155775 -0.376073 -0.011509
v -0.079413 -0.399237 -0.011509
v 0.000000 -0.407059 -0.011509
v 0.079413 -0.399237 -0.011509
v 0.155775 -0.376073 -0.011509
v 0.226150 -0.338457 -0.011509
v 0.287834 -0.287834 -0.011509
v 0.338457 -0.226150 -0.011510
v 0.376073 -0.155774 -0.011510
v 0.399237 -0.079413 -0.011510
v 0.407059 0.000000 -0.011510
v 0.399237 0.079414 -0.011510
v 0.376073 0.155775 -0.011510
v 0.338457 0.226150 -0.011510
v 0.287834 0.287834 -0.011510
v 0.226149 0.338457 -0.011510
v 0.155774 0.376073 -0.011510
v 0.079413 0.399237 -0.011510
v -0.070626 0.355063 -0.021707
v 0.000000 0.362019 -0.021707
v -0.138539 0.334462 -0.021707
v -0.201127 0.301008 -0.021707
v -0.255986 0.255986 -0.021707
v -0.301008 0.201127 -0.021707
v -0.334462 0.138539 -0.021707
v -0.355063 0.070626 -0.021707
v -0.362019 -0.000000 -0.021707
v -0.355063 -0.070626 -0.021707
v -0.334462 -0.138539 -0.021707
v -0.301008 -0.201127 -0.021707
v -0.255986 -0.255986 -0.021707
v -0.201127 -0.301008 -0.021707
v -0.138539 -0.334462 -0.021707
v -0.070626 -0.355063 -0.021707
v 0.000000 -0.362019 -0.021707
v 0.070627 -0.355063 -0.021707
v 0.138539 -0.334462 -0.021707
v 0.201127 -0.301008 -0.021707
v 0.255986 -0.255986 -0.021707
v 0.301008 -0.201127 -0.021707
v 0.334462 -0.138539 -0.021707
v 0.355063 -0.070626 -0.021707
v 0.362019 0.000000 -0.021707
v 0.355063 0.070627 -0.021707
v 0.334462 0.138539 -0.021707
v 0.301008 0.201128 -0.021707
v 0.255986 0.255987 -0.021707
v 0.201127 0.301008 -0.021707
v 0.138538 0.334462 -0.021707
v 0.070626 0.355063 -0.021707
v -0.059407 0.298658 -0.019573
v 0.000000 0.304509 -0.019573
v -0.116531 0.281330 -0.019573
v -0.169176 0.253190 -0.019573
v -0.215320 0.215320 -0.019573
v -0.253190 0.169176 -0.019573
v -0.281330 0.116531 -0.019573
v -0.298658 0.059407 -0.019573
v -0.304509 -0.000000 -0.019573
v -0.298658 -0.059407 -0.019573
v -0.281330 -0.116531 -0.019573
v -0.253190 -0.169176 -0.019573
v -0.215320 -0.215320 -0.019573
v -0.169176 -0.253190 -0.019573
v -0.116531 -0.281330 -0.019573
v -0.059407 -0.298658 -0.019573
v 0.000000 -0.304509 -0.019573
v 0.059407 -0.298658 -0.019573
v 0.116531 -0.281330 -0.019573
v 0.169176 -0.253190 -0.019573
v 0.215321 -0.215320 -0.019573
v 0.253190 -0.169176 -0.019573
v 0.281330 -0.116530 -0.019573
v 0.298658 -0.059407 -0.019573
v 0.304509 0.000000 -0.019573
v 0.298658 0.059407 -0.019573
v 0.281329 0.116531 -0.019573
v 0.253190 0.169176 -0.019573
v 0.215320 0.215321 -0.019573
v 0.169176 0.253190 -0.019573
v 0.116530 0.281330 -0.019573
v 0.059406 0.298658 -0.019573
v -0.051274 0.257770 -0.020497
v 0.000000 0.262820 -0.020497
v -0.100577 0.242814 -0.020497
v -0.146015 0.218527 -0.020497
v -0.185842 0.185842 -0.020497
v -0.218527 0.146015 -0.020497
v -0.242814 0.100577 -0.020497
v -0.257770 0.051274 -0.020497
v -0.262820 -0.000000 -0.020497
v -0.257770 -0.051274 -0.020497
v -0.242814 -0.100577 -0.020497
v -0.218527 -0.146015 -0.020497
v -0.185842 -0.185842 -0.020497
v -0.146015 -0.218527 -0.020497
v -0.100577 -0.242814 -0.020497
v -0.051274 -0.257770 -0.020497
v 0.000000 -0.262820 -0.020497
v 0.051274 -0.257770 -0.020497
v 0.100577 -0.242814 -0.020497
v 0.146015 -0.218527 -0.020497
v 0.185842 -0.185842 -0.020497
v 0.218527 -0.146015 -0.020497
v 0.242814 -0.100577 -0.020497
v 0.257770 -0.051273 -0.020497
v 0.262820 0.000000 -0.020497
v 0.257770 0.051274 -0.020497
v 0.242814 0.100577 -0.020497
v 0.218527 0.146016 -0.020497
v 0.185842 0.185842 -0.020497
v 0.146015 0.218527 -0.020497
v 0.100577 0.242815 -0.020497
v 0.051273 0.257770 -0.020497
v 0.000000 0.500000 0.010448
v 0.000000 0.500000 0.010448
v -0.097545 0.490393 0.010448
v -0.097545 0.490393 0.010448
v -0.191342 0.461940 0.010448
v -0.191342 0.461940 0.010448
v -0.277785 0.415735 0.010448
v -0.277785 0.415735 0.010448
v -0.353553 0.353553 0.010448
v -0.353553 0.353553 0.010448
v -0.415735 0.277785 0.010448
v -0.415735 0.277785 0.010448
v -0.461940 0.191342 0.010448
v -0.461940 0.191342 0.010448
v -0.490393 0.097545 0.010448
v -0.490393 0.097545 0.010448
v -0.500000 0.000000 0.010448
v -0.500000 0.000000 0.010448
v -0.490393 -0.097545 0.010448
v -0.490393 -0.097545 0.010448
v -0.461940 -0.191342 0.010448
v -0.461940 -0.191342 0.010448
v -0.415735 -0.277785 0.010448
v -0.415735 -0.277785 0.010448
v -0.353553 -0.353553 0.010448
v -0.353553 -0.353553 0.010448
v -0.277785 -0.415735 0.010448
v -0.277785 -0.415735 0.010448
v -0.191342 -0.461940 0.010448
v -0.191342 -0.461940 0.010448
v -0.097545 -0.490393 0.010448
v -0.097545 -0.490393 0.010448
v 0.000000 -0.500000 0.010448
v 0.000000 -0.500000 0.010448
v 0.097545 -0.490393 0.010448
v 0.097545 -0.490393 0.010448
v 0.191342 -0.461940 0.010448
v 0.191342 -0.461940 0.010448
v 0.277785 -0.415735 0.010448
v 0.277785 -0.415735 0.010448
v 0.353554 -0.353553 0.010448
v 0.353554 -0.353553 0.010448
v 0.415735 -0.277785 0.010448
v 0.415735 -0.277785 0.010448
v 0.461940 -0.191341 0.010448
v 0.461940 -0.191341 0.010448
v 0.490393 -0.097545 0.010448
v 0.490393 -0.097545 0.010448
v 0.500000 0.000001 0.010448
v 0.500000 0.000001 0.010448
v 0.490392 0.097546 0.010448
v 0.490392 0.097546 0.010448
v 0.461939 0.191342 0.010448
v 0.461939 0.191342 0.010448
v 0.415734 0.277786 0.010448
v 0.415734 0.277786 0.010448
v 0.353553 0.353554 0.010448
v 0.353553 0.353554 0.010448
v 0.277785 0.415735 0.010448
v 0.277785 0.415735 0.010448
v 0.191341 0.461940 0.010448
v 0.191341 0.461940 0.010448
v 0.097544 0.490393 0.010448
v 0.097544 0.490393 0.010448
v -0.042035 0.211326 -0.022787
v 0.000000 0.215466 -0.022787
v -0.082455 0.199065 -0.022787
v -0.119706 0.179153 -0.022787
v -0.152357 0.152357 -0.022786
v -0.179153 0.119706 -0.022787
v -0.199064 0.082455 -0.022787
v -0.211326 0.042035 -0.022787
v -0.215466 -0.000000 -0.022787
v -0.211326 -0.042035 -0.022787
v -0.199064 -0.082455 -0.022787
v -0.179153 -0.119706 -0.022787
v -0.152357 -0.152357 -0.022787
v -0.119706 -0.179153 -0.022787
v -0.082455 -0.199065 -0.022787
v -0.042035 -0.211326 -0.022787
v -0.042035 -0.211326 -0.022787
v 0.000000 -0.215466 -0.022787
v 0.000000 -0.215466 -0.022787
v 0.042035 -0.211326 -0.022786
v 0.042035 -0.211326 -0.022786
v 0.082455 -0.199065 -0.022786
v 0.119707 -0.179153 -0.022787
v 0.152358 -0.152357 -0.022787
v 0.179153 -0.119706 -0.022787
v 0.199065 -0.082455 -0.022787
v 0.211326 -0.042035 -0.022787
v 0.215466 0.000000 -0.022787
v 0.211326 0.042036 -0.022787
v 0.199064 0.082455 -0.022787
v 0.179153 0.119707 -0.022787
v 0.152357 0.152358 -0.022787
v 0.119706 0.179154 -0.022787
v 0.082455 0.199065 -0.022787
v 0.042035 0.211326 -0.022787
v -0.090148 0.453203 -0.023855
v 0.000000 0.462081 -0.023855
v -0.176831 0.426908 -0.023855
v -0.256719 0.384207 -0.023855
v -0.326741 0.326741 -0.023855
v -0.384207 0.256719 -0.023855
v -0.426907 0.176831 -0.023855
v -0.453203 0.090148 -0.023855
v -0.462081 0.000000 -0.023855
v -0.453203 -0.090148 -0.023855
v -0.426908 -0.176831 -0.023855
v -0.384207 -0.256719 -0.023855
v -0.326741 -0.326741 -0.023855
v -0.256719 -0.384207 -0.023855
v -0.176831 -0.426908 -0.023855
v -0.090147 -0.453203 -0.023855
v 0.000000 -0.462081 -0.023855
v 0.090148 -0.453203 -0.023855
v 0.176831 -0.426908 -0.023855
v 0.256719 -0.384207 -0.023855
v 0.326741 -0.326741 -0.023855
v 0.384207 -0.256718 -0.023855
v 0.426908 -0.176831 -0.023855
v 0.453203 -0.090147 -0.023855
v 0.462081 0.000000 -0.023855
v 0.453203 0.090148 -0.023855
v 0.426907 0.176831 -0.023855
v 0.384206 0.256719 -0.023855
v 0.326740 0.326741 -0.023855
v 0.256718 0.384207 -0.023855
v 0.176830 0.426908 -0.023855
v 0.090147 0.453203 -0.023855
v -0.084899 0.426819 -0.011024
v 0.000000 0.435180 -0.011024
v -0.166536 0.402054 -0.011024
v -0.241773 0.361839 -0.011024
v -0.307719 0.307719 -0.011024
v -0.361839 0.241773 -0.011024
v -0.402054 0.166536 -0.011024
v -0.426818 0.084899 -0.011024
v -0.435180 0.000000 -0.011024
v -0.426819 -0.084899 -0.011024
v -0.402054 -0.166536 -0.011024
v -0.361839 -0.241773 -0.011024
v -0.307719 -0.307719 -0.011024
v -0.241773 -0.361839 -0.011024
v -0.166536 -0.402054 -0.011024
v -0.084899 -0.426819 -0.011024
v 0.000000 -0.435180 -0.011024
v 0.084899 -0.426819 -0.011024
v 0.166536 -0.402054 -0.011024
v 0.241773 -0.361839 -0.011024
v 0.307719 -0.307719 -0.011024
v 0.361839 -0.241773 -0.011024
v 0.402054 -0.166536 -0.011024
v 0.426819 -0.084899 -0.011024
v 0.435180 0.000000 -0.011024
v 0.426818 0.084900 -0.011024
v 0.402054 0.166537 -0.011024
v 0.361839 0.241773 -0.011024
v 0.307719 0.307719 -0.011024
v 0.241772 0.361839 -0.011024
v 0.166536 0.402054 -0.011024
v 0.084899 0.426819 -0.011024
v -0.080258 0.403483 -0.014599
v 0.000000 0.411387 -0.014599
v -0.157431 0.380072 -0.014599
v -0.228554 0.342056 -0.014599
v -0.290895 0.290895 -0.014599
v -0.342056 0.228554 -0.014599
v -0.380072 0.157431 -0.014599
v -0.403483 0.080258 -0.014599
v -0.411387 -0.000000 -0.014599
v -0.403483 -0.080258 -0.014599
v -0.380072 -0.157431 -0.014599
v -0.342056 -0.228554 -0.014599
v -0.290895 -0.290895 -0.014599
v -0.228554 -0.342056 -0.014599
v -0.157431 -0.380072 -0.014599
v -0.080258 -0.403483 -0.014599
v 0.000000 -0.411387 -0.014599
v 0.080258 -0.403483 -0.014599
v 0.157431 -0.380072 -0.014599
v 0.228555 -0.342056 -0.014599
v 0.290895 -0.290894 -0.014599
v 0.342056 -0.228554 -0.014599
v 0.380073 -0.157431 -0.014599
v 0.403483 -0.080257 -0.014599
v 0.411387 0.000000 -0.014599
v 0.403483 0.080258 -0.014599
v 0.380072 0.157431 -0.014599
v 0.342055 0.228555 -0.014599
v 0.290894 0.290895 -0.014599
v 0.228554 0.342056 -0.014599
v 0.157430 0.380073 -0.014599
v 0.080257 0.403483 -0.014599
v -0.071787 0.360900 -0.025898
v 0.000000 0.367970 -0.025898
v -0.140816 0.339960 -0.025898
v -0.204433 0.305956 -0.025898
v -0.260194 0.260194 -0.025898
v -0.305956 0.204433 -0.025898
v -0.339960 0.140816 -0.025898
v -0.360900 0.071787 -0.025898
v -0.367970 -0.000000 -0.025898
v -0.360900 -0.071787 -0.025898
v -0.339960 -0.140816 -0.025898
v -0.305956 -0.204433 -0.025898
v -0.260194 -0.260194 -0.025898
v -0.204433 -0.305956 -0.025898
v -0.140816 -0.339960 -0.025898
v -0.071787 -0.360900 -0.025898
v 0.000000 -0.367970 -0.025898
v 0.071787 -0.360900 -0.025898
v 0.140816 -0.339960 -0.025898
v 0.204433 -0.305956 -0.025898
v 0.260194 -0.260194 -0.025898
v 0.305956 -0.204433 -0.025898
v 0.339960 -0.140816 -0.025898
v 0.360900 -0.071787 -0.025898
v 0.367970 0.000000 -0.025898
v 0.360900 0.071787 -0.025898
v 0.339960 0.140816 -0.025898
v 0.305956 0.204433 -0.025898
v 0.260194 0.260194 -0.025898
v 0.204433 0.305956 -0.025898
v 0.140815 0.339960 -0.025898
v 0.071787 0.360900 -0.025898
v -0.059799 0.300632 -0.022664
v 0.000000 0.306522 -0.022664
v -0.117301 0.283189 -0.022664
v -0.170295 0.254864 -0.022664
v -0.216744 0.216744 -0.022664
v -0.254864 0.170295 -0.022664
v -0.283189 0.117301 -0.022664
v -0.300632 0.059799 -0.022664
v -0.306522 -0.000000 -0.022664
v -0.300632 -0.059799 -0.022664
v -0.283189 -0.117301 -0.022664
v -0.254864 -0.170295 -0.022663
v -0.216744 -0.216744 -0.022663
v -0.170294 -0.254864 -0.022663
v -0.117301 -0.283189 -0.022663
v -0.059799 -0.300632 -0.022663
v 0.000000 -0.306522 -0.022663
v 0.059799 -0.300632 -0.022663
v 0.117301 -0.283189 -0.022663
v 0.170295 -0.254864 -0.022663
v 0.216744 -0.216744 -0.022663
v 0.254864 -0.170294 -0.022663
v 0.283189 -0.117301 -0.022664
v 0.300632 -0.059799 -0.022664
v 0.306522 0.000000 -0.022664
v 0.300632 0.059800 -0.022664
v 0.283189 0.117301 -0.022664
v 0.254864 0.170295 -0.022664
v 0.216744 0.216744 -0.022664
v 0.170294 0.254864 -0.022664
v 0.117301 0.283189 -0.022664
v 0.059798 0.300633 -0.022664
v -0.051274 0.257770 -0.022787
v 0.000000 0.262820 -0.022787
v -0.100577 0.242814 -0.022787
v -0.146015 0.218527 -0.022787
v -0.185842 0.185842 -0.022787
v -0.218527 0.146015 -0.022787
v -0.242814 0.100577 -0.022787
v -0.257770 0.051274 -0.022787
v -0.262820 -0.000000 -0.022787
v -0.257770 -0.051274 -0.022787
v -0.242814 -0.100577 -0.022787
v -0.218527 -0.146015 -0.022787
v -0.185842 -0.185842 -0.022787
v -0.146015 -0.218527 -0.022787
v -0.100577 -0.242814 -0.022787
v -0.051274 -0.257770 -0.022787
v 0.000000 -0.262820 -0.022787
v 0.051274 -0.257770 -0.022787
v 0.100577 -0.242814 -0.022787
v 0.146015 -0.218527 -0.022787
v 0.185842 -0.185842 -0.022787
v 0.218527 -0.146015 -0.022787
v 0.242814 -0.100577 -0.022787
v 0.257770 -0.051273 -0.022787
v 0.262820 0.000000 -0.022787
v 0.257770 0.051274 -0.022787
v 0.242814 0.100577 -0.022787
v 0.218527 0.146016 -0.022787
v 0.185842 0.185842 -0.022787
v 0.146015 0.218527 -0.022787
v 0.100577 0.242815 -0.022787
v 0.051273 0.257770 -0.022787
vn -0.0000 -0.0000 -1.0000
vn -0.0000 0.0001 -1.0000
vn 0.0868 -0.4366 0.8955
vn -0.0000 -0.4451 0.8955
vn -0.0001 0.5790 0.8153
vn -0.1129 0.5679 0.8153
vn 0.1703 -0.4112 0.8955
vn -0.2216 0.5350 0.8153
vn 0.2473 -0.3701 0.8955
vn -0.3217 0.4815 0.8153
vn 0.3148 -0.3148 0.8955
vn -0.4095 0.4093 0.8153
vn 0.3701 -0.2473 0.8955
vn -0.4815 0.3216 0.8153
vn 0.4112 -0.1703 0.8955
vn -0.5350 0.2214 0.8153
vn 0.4366 -0.0868 0.8955
vn -0.5679 0.1129 0.8153
vn 0.4451 -0.0000 0.8955
vn -0.5790 -0.0001 0.8153
vn 0.4366 0.0868 0.8955
vn -0.5679 -0.1129 0.8153
vn 0.4112 0.1703 0.8955
vn -0.5350 -0.2216 0.8153
vn 0.3701 0.2473 0.8955
vn -0.4815 -0.3217 0.8153
vn 0.3148 0.3148 0.8955
vn -0.4093 -0.4095 0.8153
vn 0.2473 0.3701 0.8955
vn -0.3217 -0.4815 0.8153
vn 0.1703 0.4112 0.8955
vn -0.2214 -0.5350 0.8153
vn 0.0868 0.4366 0.8955
vn -0.1129 -0.5679 0.8153
vn -0.0000 0.4451 0.8955
vn 0.0001 -0.5790 0.8153
vn -0.0868 0.4366 0.8955
vn 0.1129 -0.5679 0.8153
vn -0.1703 0.4112 0.8955
vn 0.2216 -0.5350 0.8153
vn -0.2473 0.3701 0.8955
vn 0.3217 -0.4815 0.8153
vn -0.3148 0.3148 0.8955
vn 0.4094 -0.4095 0.8153
vn -0.3701 0.2473 0.8955
vn 0.4815 -0.3216 0.8153
vn -0.4112 0.1703 0.8955
vn 0.5350 -0.2214 0.8153
vn -0.4366 0.0868 0.8955
vn 0.5679 -0.1129 0.8153
vn -0.4451 -0.0000 0.8955
vn 0.5790 0.0001 0.8153
vn -0.4366 -0.0868 0.8955
vn 0.5679 0.1129 0.8153
vn -0.4112 -0.1703 0.8955
vn 0.5350 0.2216 0.8153
vn -0.3701 -0.2473 0.8955
vn 0.4815 0.3217 0.8153
vn -0.3148 -0.3148 0.8955
vn 0.4095 0.4094 0.8153
vn -0.2473 -0.3701 0.8955
vn 0.3216 0.4815 0.8153
vn -0.1703 -0.4112 0.8955
vn 0.2214 0.5350 0.8153
vn -0.0868 -0.4366 0.8955
vn 0.1129 0.5679 0.8153
vn 0.0681 -0.3425 0.9370
vn -0.0000 -0.3492 0.9370
vn 0.1336 -0.3226 0.9370
vn 0.1940 -0.2904 0.9370
vn 0.2469 -0.2469 0.9370
vn 0.2904 -0.1940 0.9370
vn 0.3226 -0.1336 0.9370
vn 0.3425 -0.0681 0.9370
vn 0.3492 -0.0000 0.9370
vn 0.3425 0.0681 0.9370
vn 0.3226 0.1336 0.9370
vn 0.2904 0.1940 0.9370
vn 0.2469 0.2469 0.9370
vn 0.1940 0.2904 0.9370
vn 0.1336 0.3226 0.9370
vn 0.0681 0.3425 0.9370
vn -0.0000 0.3492 0.9370
vn -0.0681 0.3425 0.9370
vn -0.1336 0.3226 0.9370
vn -0.1940 0.2904 0.9370
vn -0.2469 0.2469 0.9370
vn -0.2904 0.1940 0.9370
vn -0.3226 0.1336 0.9370
vn -0.3425 0.0681 0.9370
vn -0.3492 -0.0000 0.9370
vn -0.3425 -0.0681 0.9370
vn -0.3226 -0.1336 0.9370
vn -0.2904 -0.1940 0.9370
vn -0.2469 -0.2469 0.9370
vn -0.1940 -0.2904 0.9370
vn -0.1336 -0.3226 0.9370
vn -0.0681 -0.3425 0.9370
vn 0.0395 -0.1986 0.9793
vn -0.0000 -0.2025 0.9793
vn 0.0775 -0.1871 0.9793
vn 0.1125 -0.1684 0.9793
vn 0.1432 -0.1432 0.9793
vn 0.1684 -0.1125 0.9793
vn 0.1871 -0.0775 0.9793
vn 0.1986 -0.0395 0.9793
vn 0.2025 -0.0000 0.9793
vn 0.1986 0.0395 0.9793
vn 0.1871 0.0775 0.9793
vn 0.1684 0.1125 0.9793
vn 0.1432 0.1432 0.9793
vn 0.1125 0.1684 0.9793
vn 0.0775 0.1871 0.9793
vn 0.0395 0.1986 0.9793
vn -0.0000 0.2025 0.9793
vn -0.0395 0.1986 0.9793
vn -0.0775 0.1871 0.9793
vn -0.1125 0.1684 0.9793
vn -0.1432 0.1432 0.9793
vn -0.1684 0.1125 0.9793
vn -0.1871 0.0775 0.9793
vn -0.1986 0.0395 0.9793
vn -0.2025 -0.0000 0.9793
vn -0.1986 -0.0395 0.9793
vn -0.1871 -0.0775 0.9793
vn -0.1684 -0.1125 0.9793
vn -0.1432 -0.1432 0.9793
vn -0.1125 -0.1684 0.9793
vn -0.0775 -0.1871 0.9793
vn -0.0395 -0.1986 0.9793
vn 0.0196 -0.0987 0.9949
vn -0.0000 -0.1007 0.9949
vn 0.0385 -0.0930 0.9949
vn 0.0559 -0.0837 0.9949
vn 0.0712 -0.0712 0.9949
vn 0.0837 -0.0559 0.9949
vn 0.0930 -0.0385 0.9949
vn 0.0987 -0.0196 0.9949
vn 0.1007 -0.0000 0.9949
vn 0.0987 0.0196 0.9949
vn 0.0930 0.0385 0.9949
vn 0.0837 0.0559 0.9949
vn 0.0712 0.0712 0.9949
vn 0.0559 0.0837 0.9949
vn 0.0385 0.0930 0.9949
vn 0.0196 0.0987 0.9949
vn -0.0000 0.1007 0.9949
vn -0.0196 0.0987 0.9949
vn -0.0385 0.0930 0.9949
vn -0.0559 0.0837 0.9949
vn -0.0712 0.0712 0.9949
vn -0.0837 0.0559 0.9949
vn -0.0930 0.0385 0.9949
vn -0.0987 0.0196 0.9949
vn -0.1007 -0.0000 0.9949
vn -0.0987 -0.0196 0.9949
vn -0.0930 -0.0385 0.9949
vn -0.0837 -0.0559 0.9949
vn -0.0712 -0.0712 0.9949
vn -0.0559 -0.0837 0.9949
vn -0.0385 -0.0930 0.9949
vn -0.0196 -0.0987 0.9949
vn -0.0018 0.0091 1.0000
vn -0.0000 0.0093 1.0000
vn -0.0036 0.0086 1.0000
vn -0.0052 0.0077 1.0000
vn -0.0066 0.0066 1.0000
vn -0.0077 0.0052 1.0000
vn -0.0086 0.0036 1.0000
vn -0.0091 0.0018 1.0000
vn -0.0093 -0.0000 1.0000
vn -0.0091 -0.0018 1.0000
vn -0.0086 -0.0036 1.0000
vn -0.0077 -0.0052 1.0000
vn -0.0066 -0.0066 1.0000
vn -0.0052 -0.0077 1.0000
vn -0.0036 -0.0086 1.0000
vn -0.0018 -0.0091 1.0000
vn -0.0000 -0.0093 1.0000
vn 0.0018 -0.0091 1.0000
vn 0.0036 -0.0086 1.0000
vn 0.0052 -0.0077 1.0000
vn 0.0066 -0.0066 1.0000
vn 0.0077 -0.0052 1.0000
vn 0.0086 -0.0036 1.0000
vn 0.0091 -0.0018 1.0000
vn 0.0093 -0.0000 1.0000
vn 0.0091 0.0018 1.0000
vn 0.0086 0.0036 1.0000
vn 0.0077 0.0052 1.0000
vn 0.0066 0.0066 1.0000
vn 0.0052 0.0077 1.0000
vn 0.0036 0.0086 1.0000
vn 0.0018 0.0091 1.0000
vn 0.0036 -0.0182 0.9998
vn -0.0000 -0.0186 0.9998
vn 0.0071 -0.0172 0.9998
vn 0.0103 -0.0155 0.9998
vn 0.0132 -0.0132 0.9998
vn 0.0155 -0.0103 0.9998
vn 0.0172 -0.0071 0.9998
vn 0.0182 -0.0036 0.9998
vn 0.0186 -0.0000 0.9998
vn 0.0182 0.0036 0.9998
vn 0.0172 0.0071 0.9998
vn 0.0155 0.0103 0.9998
vn 0.0132 0.0132 0.9998
vn 0.0103 0.0155 0.9998
vn 0.0071 0.0172 0.9998
vn 0.0036 0.0182 0.9998
vn -0.0000 0.0186 0.9998
vn -0.0036 0.0182 0.9998
vn -0.0071 0.0172 0.9998
vn -0.0103 0.0155 0.9998
vn -0.0132 0.0132 0.9998
vn -0.0155 0.0103 0.9998
vn -0.0172 0.0071 0.9998
vn -0.0182 0.0036 0.9998
vn -0.0186 -0.0000 0.9998
vn -0.0182 -0.0036 0.9998
vn -0.0172 -0.0071 0.9998
vn -0.0155 -0.0103 0.9998
vn -0.0132 -0.0132 0.9998
vn -0.0103 -0.0155 0.9998
vn -0.0071 -0.0172 0.9998
vn -0.0036 -0.0182 0.9998
vn 0.0015 -0.0076 1.0000
vn -0.0000 -0.0077 1.0000
vn 0.0030 -0.0072 1.0000
vn 0.0043 -0.0064 1.0000
vn 0.0055 -0.0055 1.0000
vn 0.0064 -0.0043 1.0000
vn 0.0072 -0.0030 1.0000
vn 0.0076 -0.0015 1.0000
vn 0.0077 -0.0000 1.0000
vn 0.0076 0.0015 1.0000
vn 0.0072 0.0030 1.0000
vn 0.0064 0.0043 1.0000
vn 0.0055 0.0055 1.0000
vn 0.0043 0.0064 1.0000
vn 0.0030 0.0072 1.0000
vn 0.0015 0.0076 1.0000
vn -0.0000 0.0077 1.0000
vn -0.0015 0.0076 1.0000
vn -0.0030 0.0072 1.0000
vn -0.0043 0.0064 1.0000
vn -0.0055 0.0055 1.0000
vn -0.0064 0.0043 1.0000
vn -0.0072 0.0030 1.0000
vn -0.0076 0.0015 1.0000
vn -0.0077 -0.0000 1.0000
vn -0.0076 -0.0015 1.0000
vn -0.0072 -0.0030 1.0000
vn -0.0064 -0.0043 1.0000
vn -0.0055 -0.0055 1.0000
vn -0.0043 -0.0064 1.0000
vn -0.0030 -0.0072 1.0000
vn -0.0015 -0.0076 1.0000
vn -0.0348 0.1749 -0.9840
vn -0.1791 0.9004 -0.3965
vn -0.0000 0.9180 -0.3966
vn -0.0000 0.1783 -0.9840
vn -0.0682 0.1648 -0.9840
vn -0.3513 0.8481 -0.3966
vn -0.0991 0.1483 -0.9840
vn -0.5100 0.7633 -0.3966
vn -0.1261 0.1261 -0.9840
vn -0.6491 0.6491 -0.3966
vn -0.1483 0.0991 -0.9840
vn -0.7633 0.5100 -0.3966
vn -0.1648 0.0682 -0.9840
vn -0.8481 0.3513 -0.3966
vn -0.1749 0.0348 -0.9840
vn -0.9003 0.1791 -0.3966
vn -0.1783 -0.0000 -0.9840
vn -0.9180 -0.0000 -0.3965
vn -0.1749 -0.0348 -0.9840
vn -0.9004 -0.1791 -0.3965
vn -0.1648 -0.0682 -0.9840
vn -0.8481 -0.3513 -0.3966
vn -0.1483 -0.0991 -0.9840
vn -0.7633 -0.5100 -0.3966
vn -0.1261 -0.1261 -0.9840
vn -0.6491 -0.6491 -0.3966
vn -0.0991 -0.1483 -0.9840
vn -0.5100 -0.7633 -0.3966
vn -0.0682 -0.1648 -0.9840
vn -0.3513 -0.8481 -0.3966
vn -0.0348 -0.1749 -0.9840
vn -0.1791 -0.9004 -0.3965
vn -0.0000 -0.1783 -0.9840
vn -0.0000 -0.9180 -0.3965
vn 0.0348 -0.1749 -0.9840
vn 0.1791 -0.9004 -0.3965
vn 0.0682 -0.1648 -0.9840
vn 0.3513 -0.8481 -0.3966
vn 0.0991 -0.1483 -0.9840
vn 0.5100 -0.7633 -0.3966
vn 0.1261 -0.1261 -0.9840
vn 0.6491 -0.6491 -0.3966
vn 0.1483 -0.0991 -0.9840
vn 0.7633 -0.5100 -0.3966
vn 0.1648 -0.0682 -0.9840
vn 0.8481 -0.3513 -0.3966
vn 0.1749 -0.0348 -0.9840
vn 0.9004 -0.1791 -0.3965
vn 0.1783 -0.0000 -0.9840
vn 0.9180 -0.0000 -0.3965
vn 0.1749 0.0348 -0.9840
vn 0.9004 0.1791 -0.3965
vn 0.1648 0.0682 -0.9840
vn 0.8481 0.3513 -0.3966
vn 0.1483 0.0991 -0.9840
vn 0.7633 0.5100 -0.3966
vn 0.1261 0.1261 -0.9840
vn 0.6492 0.6491 -0.3966
vn 0.0991 0.1483 -0.9840
vn 0.5100 0.7633 -0.3966
vn 0.0682 0.1648 -0.9840
vn 0.3513 0.8481 -0.3966
vn 0.0348 0.1749 -0.9840
vn 0.1791 0.9004 -0.3965
vn 0.0322 -0.1620 -0.9863
vn -0.0000 -0.1652 -0.9863
vn 0.0632 -0.1526 -0.9863
vn 0.0918 -0.1374 -0.9863
vn 0.1168 -0.1168 -0.9863
vn 0.1374 -0.0918 -0.9863
vn 0.1526 -0.0632 -0.9863
vn 0.1620 -0.0322 -0.9863
vn 0.1652 -0.0000 -0.9863
vn 0.1620 0.0322 -0.9863
vn 0.1526 0.0632 -0.9863
vn 0.1374 0.0918 -0.9863
vn 0.1168 0.1168 -0.9863
vn 0.0918 0.1374 -0.9863
vn 0.0632 0.1526 -0.9863
vn 0.0322 0.1620 -0.9863
vn -0.0000 0.1652 -0.9863
vn -0.0322 0.1620 -0.9863
vn -0.0632 0.1526 -0.9863
vn -0.0918 0.1374 -0.9863
vn -0.1168 0.1168 -0.9863
vn -0.1374 0.0918 -0.9863
vn -0.1526 0.0632 -0.9863
vn -0.1620 0.0322 -0.9863
vn -0.1652 -0.0000 -0.9863
vn -0.1620 -0.0322 -0.9863
vn -0.1526 -0.0632 -0.9863
vn -0.1374 -0.0918 -0.9863
vn -0.1168 -0.1168 -0.9863
vn -0.0918 -0.1374 -0.9863
vn -0.0632 -0.1526 -0.9863
vn -0.0322 -0.1620 -0.9863
vn -0.0385 0.1936 -0.9803
vn -0.0000 0.1973 -0.9803
vn -0.0755 0.1823 -0.9803
vn -0.1096 0.1641 -0.9803
vn -0.1395 0.1395 -0.9803
vn -0.1641 0.1096 -0.9803
vn -0.1823 0.0755 -0.9803
vn -0.1936 0.0385 -0.9803
vn -0.1973 -0.0000 -0.9803
vn -0.1936 -0.0385 -0.9803
vn -0.1823 -0.0755 -0.9803
vn -0.1641 -0.1096 -0.9803
vn -0.1395 -0.1395 -0.9803
vn -0.1096 -0.1641 -0.9803
vn -0.0755 -0.1823 -0.9803
vn -0.0385 -0.1936 -0.9803
vn -0.0000 -0.1973 -0.9803
vn 0.0385 -0.1936 -0.9803
vn 0.0755 -0.1823 -0.9803
vn 0.1096 -0.1641 -0.9803
vn 0.1395 -0.1395 -0.9803
vn 0.1641 -0.1096 -0.9803
vn 0.1823 -0.0755 -0.9803
vn 0.1936 -0.0385 -0.9803
vn 0.1973 -0.0000 -0.9803
vn 0.1936 0.0385 -0.9803
vn 0.1823 0.0755 -0.9803
vn 0.1641 0.1096 -0.9803
vn 0.1395 0.1395 -0.9803
vn 0.1096 0.1641 -0.9803
vn 0.0755 0.1823 -0.9803
vn 0.0385 0.1936 -0.9803
vn -0.0215 0.1082 -0.9939
vn -0.0000 0.1103 -0.9939
vn -0.0422 0.1019 -0.9939
vn -0.0613 0.0917 -0.9939
vn -0.0780 0.0780 -0.9939
vn -0.0917 0.0613 -0.9939
vn -0.1019 0.0422 -0.9939
vn -0.1082 0.0215 -0.9939
vn -0.1103 -0.0000 -0.9939
vn -0.1082 -0.0215 -0.9939
vn -0.1019 -0.0422 -0.9939
vn -0.0917 -0.0613 -0.9939
vn -0.0780 -0.0780 -0.9939
vn -0.0613 -0.0917 -0.9939
vn -0.0422 -0.1019 -0.9939
vn -0.0215 -0.1082 -0.9939
vn -0.0000 -0.1103 -0.9939
vn 0.0215 -0.1082 -0.9939
vn 0.0422 -0.1019 -0.9939
vn 0.0613 -0.0917 -0.9939
vn 0.0780 -0.0780 -0.9939
vn 0.0917 -0.0613 -0.9939
vn 0.1019 -0.0422 -0.9939
vn 0.1082 -0.0215 -0.9939
vn 0.1103 -0.0000 -0.9939
vn 0.1082 0.0215 -0.9939
vn 0.1019 0.0422 -0.9939
vn 0.0917 0.0613 -0.9939
vn 0.0780 0.0780 -0.9939
vn 0.0613 0.0917 -0.9939
vn 0.0422 0.1019 -0.9939
vn 0.0215 0.1082 -0.9939
vn 0.0052 -0.0261 -0.9996
vn -0.0000 -0.0266 -0.9996
vn 0.0102 -0.0246 -0.9996
vn 0.0148 -0.0221 -0.9996
vn 0.0188 -0.0188 -0.9996
vn 0.0221 -0.0148 -0.9996
vn 0.0246 -0.0102 -0.9996
vn 0.0261 -0.0052 -0.9996
vn 0.0266 -0.0000 -0.9996
vn 0.0261 0.0052 -0.9996
vn 0.0246 0.0102 -0.9996
vn 0.0221 0.0148 -0.9996
vn 0.0188 0.0188 -0.9996
vn 0.0148 0.0221 -0.9996
vn 0.0102 0.0246 -0.9996
vn 0.0052 0.0261 -0.9996
vn -0.0000 0.0266 -0.9996
vn -0.0052 0.0261 -0.9996
vn -0.0102 0.0246 -0.9996
vn -0.0148 0.0221 -0.9996
vn -0.0188 0.0188 -0.9996
vn -0.0221 0.0148 -0.9996
vn -0.0246 0.0102 -0.9996
vn -0.0261 0.0052 -0.9996
vn -0.0266 -0.0000 -0.9996
vn -0.0261 -0.0052 -0.9996
vn -0.0246 -0.0102 -0.9996
vn -0.0221 -0.0148 -0.9996
vn -0.0188 -0.0188 -0.9996
vn -0.0148 -0.0221 -0.9996
vn -0.0102 -0.0246 -0.9996
vn -0.0052 -0.0261 -0.9996
vn -0.0003 0.0015 -1.0000
vn -0.0000 0.0015 -1.0000
vn -0.0006 0.0014 -1.0000
vn -0.0008 0.0012 -1.0000
vn -0.0011 0.0011 -1.0000
vn -0.0012 0.0008 -1.0000
vn -0.0014 0.0006 -1.0000
vn -0.0015 0.0003 -1.0000
vn -0.0015 -0.0000 -1.0000
vn -0.0015 -0.0003 -1.0000
vn -0.0014 -0.0006 -1.0000
vn -0.0012 -0.0008 -1.0000
vn -0.0011 -0.0011 -1.0000
vn -0.0008 -0.0012 -1.0000
vn -0.0006 -0.0014 -1.0000
vn -0.0003 -0.0015 -1.0000
vn -0.0000 -0.0015 -1.0000
vn 0.0003 -0.0015 -1.0000
vn 0.0006 -0.0014 -1.0000
vn 0.0008 -0.0012 -1.0000
vn 0.0011 -0.0011 -1.0000
vn 0.0012 -0.0008 -1.0000
vn 0.0014 -0.0006 -1.0000
vn 0.0015 -0.0003 -1.0000
vn 0.0015 -0.0000 -1.0000
vn 0.0015 0.0003 -1.0000
vn 0.0014 0.0006 -1.0000
vn 0.0012 0.0008 -1.0000
vn 0.0011 0.0011 -1.0000
vn 0.0008 0.0012 -1.0000
vn 0.0006 0.0014 -1.0000
vn 0.0003 0.0015 -1.0000
vn -0.1131 0.5679 0.8153
vn -0.0000 0.5790 0.8153
vn -0.1791 0.9004 -0.3966
vn -0.2215 0.5349 0.8153
vn -0.3216 0.4814 0.8153
vn -0.4094 0.4094 0.8153
vn -0.4815 0.3215 0.8153
vn -0.7633 0.5101 -0.3966
vn -0.5349 0.2215 0.8153
vn -0.9004 0.1791 -0.3966
vn -0.5790 -0.0000 0.8153
vn -0.9180 -0.0000 -0.3966
vn -0.9004 -0.1791 -0.3966
vn -0.5349 -0.2215 0.8153
vn -0.4813 -0.3218 0.8153
vn -0.4092 -0.4096 0.8153
vn -0.6492 -0.6490 -0.3966
vn -0.3216 -0.4814 0.8153
vn -0.5101 -0.7632 -0.3966
vn -0.2215 -0.5349 0.8153
vn -0.1791 -0.9004 -0.3966
vn -0.0000 -0.5790 0.8153
vn -0.0000 -0.9180 -0.3966
vn 0.1131 -0.5679 0.8153
vn 0.1791 -0.9004 -0.3966
vn 0.2215 -0.5349 0.8153
vn 0.3216 -0.4814 0.8153
vn 0.5101 -0.7632 -0.3966
vn 0.4093 -0.4095 0.8153
vn 0.6492 -0.6491 -0.3966
vn 0.4814 -0.3216 0.8153
vn 0.5349 -0.2215 0.8153
vn 0.9004 -0.1791 -0.3966
vn 0.5790 -0.0000 0.8153
vn 0.9180 -0.0000 -0.3966
vn 0.5679 0.1128 0.8153
vn 0.9004 0.1790 -0.3966
vn 0.5349 0.2215 0.8153
vn 0.8481 0.3514 -0.3966
vn 0.4814 0.3216 0.8153
vn 0.4094 0.4094 0.8153
vn 0.6491 0.6491 -0.3966
vn 0.3216 0.4814 0.8153
vn 0.2215 0.5350 0.8153
vn 0.1791 0.9004 -0.3966
vt 0.608958 0.533052
vt 0.588016 0.572232
vt 0.600416 0.553673
vt 0.613312 0.511160
vt 0.572232 0.588015
vt 0.613312 0.488840
vt 0.553674 0.600416
vt 0.608958 0.466948
vt 0.533052 0.608958
vt 0.600416 0.446327
vt 0.511160 0.613312
vt 0.588015 0.427768
vt 0.488840 0.613312
vt 0.572232 0.411985
vt 0.466948 0.608958
vt 0.553674 0.399584
vt 0.446327 0.600416
vt 0.533052 0.391042
vt 0.427768 0.588016
vt 0.511160 0.386688
vt 0.411985 0.572232
vt 0.488840 0.386688
vt 0.399584 0.553674
vt 0.466948 0.391042
vt 0.391042 0.533052
vt 0.446326 0.399584
vt 0.386688 0.511160
vt 0.427768 0.411985
vt 0.386688 0.488840
vt 0.411985 0.427768
vt 0.391042 0.466948
vt 0.399584 0.446327
vt 0.634785 0.055676
vt 0.718878 0.090509
vt 0.736839 0.056906
vt 0.645845 0.019215
vt 0.545512 0.037919
vt 0.549246 0.000000
vt 0.454490 0.037919
vt 0.450755 0.000000
vt 0.365216 0.055676
vt 0.354156 0.019215
vt 0.281123 0.090508
vt 0.263162 0.056905
vt 0.205441 0.141078
vt 0.181269 0.111624
vt 0.141078 0.205440
vt 0.111625 0.181268
vt 0.090509 0.281122
vt 0.056906 0.263161
vt 0.055676 0.365215
vt 0.019215 0.354155
vt 0.037919 0.454488
vt 0.000000 0.450754
vt 0.037919 0.545510
vt 0.000000 0.549245
vt 0.055676 0.634784
vt 0.019215 0.645844
vt 0.090508 0.718877
vt 0.056905 0.736838
vt 0.141078 0.794559
vt 0.111624 0.818731
vt 0.205440 0.858922
vt 0.181268 0.888375
vt 0.281122 0.909491
vt 0.263161 0.943094
vt 0.365215 0.944324
vt 0.354155 0.980785
vt 0.454489 0.962081
vt 0.450754 1.000000
vt 0.545511 0.962081
vt 0.549245 1.000000
vt 0.634784 0.944324
vt 0.645844 0.980785
vt 0.718877 0.909491
vt 0.736839 0.943094
vt 0.794560 0.858922
vt 0.818731 0.888376
vt 0.858922 0.794560
vt 0.888375 0.818732
vt 0.909491 0.718878
vt 0.943094 0.736839
vt 0.944324 0.634784
vt 0.980785 0.645845
vt 0.962081 0.545511
vt 1.000000 0.549246
vt 0.962081 0.454489
vt 1.000000 0.450754
vt 0.944324 0.365216
vt 0.980785 0.354155
vt 0.909491 0.281122
vt 0.943094 0.263161
vt 0.858922 0.205440
vt 0.888375 0.181269
vt 0.794560 0.141078
vt 0.818731 0.111625
vt 0.626793 0.082021
vt 0.705901 0.114788
vt 0.542813 0.065316
vt 0.457188 0.065316
vt 0.373208 0.082021
vt 0.294100 0.114788
vt 0.222906 0.162359
vt 0.162359 0.222905
vt 0.114788 0.294099
vt 0.082021 0.373207
vt 0.065316 0.457187
vt 0.065316 0.542812
vt 0.082021 0.626792
vt 0.114788 0.705900
vt 0.162359 0.777094
vt 0.222905 0.837641
vt 0.294100 0.885212
vt 0.373207 0.917979
vt 0.457187 0.934684
vt 0.542812 0.934684
vt 0.626792 0.917979
vt 0.705900 0.885212
vt 0.777095 0.837641
vt 0.837641 0.777095
vt 0.885212 0.705900
vt 0.917979 0.626793
vt 0.934684 0.542813
vt 0.934684 0.457187
vt 0.917979 0.373207
vt 0.885212 0.294100
vt 0.837641 0.222905
vt 0.777095 0.162359
vt 0.618735 0.108585
vt 0.692815 0.139270
vt 0.540092 0.092941
vt 0.459909 0.092941
vt 0.381266 0.108584
vt 0.307186 0.139269
vt 0.240516 0.183816
vt 0.183817 0.240515
vt 0.139270 0.307185
vt 0.108585 0.381265
vt 0.092941 0.459908
vt 0.092941 0.540091
vt 0.108584 0.618734
vt 0.139269 0.692814
vt 0.183817 0.759484
vt 0.240515 0.816183
vt 0.307185 0.860731
vt 0.381265 0.891416
vt 0.459908 0.907059
vt 0.540092 0.907059
vt 0.618734 0.891416
vt 0.692814 0.860731
vt 0.759485 0.816183
vt 0.816183 0.759485
vt 0.860731 0.692815
vt 0.891416 0.618735
vt 0.907059 0.540092
vt 0.907059 0.459908
vt 0.891416 0.381265
vt 0.860731 0.307185
vt 0.816183 0.240515
vt 0.759485 0.183817
vt 0.605598 0.151893
vt 0.671481 0.179183
vt 0.535656 0.137981
vt 0.464345 0.137981
vt 0.394403 0.151893
vt 0.328520 0.179182
vt 0.269227 0.218801
vt 0.218802 0.269226
vt 0.179183 0.328519
vt 0.151893 0.394402
vt 0.137981 0.464344
vt 0.137981 0.535655
vt 0.151893 0.605597
vt 0.179182 0.671480
vt 0.218801 0.730773
vt 0.269226 0.781199
vt 0.328519 0.820817
vt 0.394403 0.848107
vt 0.464344 0.862019
vt 0.535656 0.862019
vt 0.605597 0.848107
vt 0.671480 0.820817
vt 0.730774 0.781199
vt 0.781199 0.730774
vt 0.820817 0.671481
vt 0.848107 0.605597
vt 0.862019 0.535656
vt 0.862019 0.464344
vt 0.848107 0.394403
vt 0.820817 0.328520
vt 0.781199 0.269226
vt 0.730774 0.218801
vt 0.588822 0.207193
vt 0.644240 0.230148
vt 0.529992 0.195491
vt 0.470009 0.195491
vt 0.411178 0.207193
vt 0.355761 0.230147
vt 0.305887 0.263472
vt 0.263473 0.305887
vt 0.230148 0.355761
vt 0.207193 0.411178
vt 0.195491 0.470008
vt 0.195491 0.529991
vt 0.207193 0.588822
vt 0.230147 0.644239
vt 0.263472 0.694113
vt 0.305887 0.736527
vt 0.355761 0.769852
vt 0.411178 0.792807
vt 0.470008 0.804509
vt 0.529991 0.804509
vt 0.588822 0.792807
vt 0.644239 0.769853
vt 0.694113 0.736528
vt 0.736528 0.694113
vt 0.769852 0.644239
vt 0.792807 0.588822
vt 0.804509 0.529992
vt 0.804509 0.470008
vt 0.792807 0.411178
vt 0.769852 0.355761
vt 0.736528 0.305887
vt 0.694113 0.263472
vt 0.576662 0.247280
vt 0.624493 0.267092
vt 0.525886 0.237180
vt 0.474115 0.237180
vt 0.423339 0.247280
vt 0.375508 0.267091
vt 0.332462 0.295854
vt 0.295854 0.332462
vt 0.267092 0.375508
vt 0.247280 0.423338
vt 0.237180 0.474114
vt 0.237180 0.525885
vt 0.247280 0.576661
vt 0.267091 0.624492
vt 0.295854 0.667538
vt 0.332462 0.704146
vt 0.375508 0.732908
vt 0.423338 0.752720
vt 0.474114 0.762820
vt 0.525885 0.762820
vt 0.576662 0.752720
vt 0.624492 0.732908
vt 0.667538 0.704146
vt 0.704146 0.667538
vt 0.732908 0.624492
vt 0.752720 0.576662
vt 0.762820 0.525886
vt 0.762820 0.474114
vt 0.752720 0.423338
vt 0.732908 0.375508
vt 0.704146 0.332462
vt 0.667538 0.295854
vt 0.562849 0.292814
vt 0.602062 0.309057
vt 0.521222 0.284534
vt 0.478779 0.284534
vt 0.437151 0.292814
vt 0.397939 0.309056
vt 0.362649 0.332636
vt 0.332637 0.362648
vt 0.309057 0.397938
vt 0.292814 0.437151
vt 0.284534 0.478778
vt 0.284534 0.521221
vt 0.292814 0.562849
vt 0.309056 0.602061
vt 0.332637 0.637351
vt 0.362648 0.667363
vt 0.397938 0.690943
vt 0.437151 0.707186
vt 0.478778 0.715466
vt 0.521221 0.715466
vt 0.562849 0.707186
vt 0.602061 0.690943
vt 0.637351 0.667363
vt 0.667363 0.637352
vt 0.690943 0.602061
vt 0.707186 0.562849
vt 0.715466 0.521222
vt 0.715466 0.478778
vt 0.707186 0.437151
vt 0.690943 0.397939
vt 0.667363 0.362648
vt 0.637351 0.332637
vt 0.688755 0.654907
vt 0.704245 0.667619
vt 0.733021 0.624552
vt 0.715349 0.615106
vt 0.654908 0.688755
vt 0.667619 0.704244
vt 0.615107 0.715349
vt 0.624552 0.733021
vt 0.570882 0.733667
vt 0.576699 0.752842
vt 0.523934 0.743006
vt 0.525898 0.762947
vt 0.476066 0.743006
vt 0.474102 0.762947
vt 0.429118 0.733668
vt 0.423301 0.752842
vt 0.384894 0.715349
vt 0.375448 0.733021
vt 0.345093 0.688755
vt 0.332381 0.704245
vt 0.311245 0.654908
vt 0.295756 0.667619
vt 0.284651 0.615107
vt 0.266979 0.624552
vt 0.266333 0.570882
vt 0.247158 0.576699
vt 0.256994 0.523934
vt 0.237053 0.525898
vt 0.256994 0.476066
vt 0.237053 0.474102
vt 0.266333 0.429118
vt 0.247158 0.423301
vt 0.284651 0.384894
vt 0.266979 0.375448
vt 0.311245 0.345093
vt 0.295755 0.332381
vt 0.345093 0.311245
vt 0.332381 0.295756
vt 0.384893 0.284651
vt 0.375448 0.266979
vt 0.429118 0.266333
vt 0.423301 0.247158
vt 0.476066 0.256994
vt 0.474102 0.237053
vt 0.523934 0.256994
vt 0.525898 0.237053
vt 0.570882 0.266333
vt 0.576699 0.247158
vt 0.615107 0.284651
vt 0.624552 0.266979
vt 0.654907 0.311245
vt 0.667619 0.295756
vt 0.688755 0.345093
vt 0.704244 0.332381
vt 0.715349 0.384893
vt 0.733021 0.375448
vt 0.733667 0.429118
vt 0.752842 0.423301
vt 0.743006 0.476066
vt 0.762947 0.474102
vt 0.743006 0.523934
vt 0.762947 0.525898
vt 0.733667 0.570882
vt 0.752842 0.576699
vt 0.677767 0.645889
vt 0.702812 0.608405
vt 0.645889 0.677766
vt 0.608406 0.702812
vt 0.566756 0.720064
vt 0.522541 0.728859
vt 0.477460 0.728859
vt 0.433244 0.720064
vt 0.391595 0.702812
vt 0.354111 0.677767
vt 0.322234 0.645889
vt 0.297188 0.608406
vt 0.279936 0.566756
vt 0.271141 0.522541
vt 0.271141 0.477460
vt 0.279936 0.433244
vt 0.297188 0.391595
vt 0.322233 0.354111
vt 0.354111 0.322234
vt 0.391595 0.297188
vt 0.433244 0.279936
vt 0.477459 0.271141
vt 0.522541 0.271141
vt 0.566756 0.279936
vt 0.608405 0.297188
vt 0.645889 0.322234
vt 0.677766 0.354111
vt 0.702812 0.391595
vt 0.720064 0.433244
vt 0.728859 0.477459
vt 0.728859 0.522541
vt 0.720064 0.566756
vt 0.668047 0.637913
vt 0.691724 0.602478
vt 0.637913 0.668047
vt 0.602479 0.691723
vt 0.563106 0.708032
vt 0.521308 0.716346
vt 0.478692 0.716346
vt 0.436894 0.708032
vt 0.397522 0.691724
vt 0.362087 0.668047
vt 0.331953 0.637913
vt 0.308277 0.602479
vt 0.291968 0.563106
vt 0.283654 0.521308
vt 0.283654 0.478692
vt 0.291968 0.436894
vt 0.308276 0.397522
vt 0.331953 0.362087
vt 0.362087 0.331953
vt 0.397522 0.308276
vt 0.436894 0.291968
vt 0.478692 0.283654
vt 0.521308 0.283654
vt 0.563106 0.291968
vt 0.602478 0.308276
vt 0.637913 0.331953
vt 0.668047 0.362087
vt 0.691724 0.397522
vt 0.708032 0.436894
vt 0.716346 0.478692
vt 0.716346 0.521309
vt 0.708032 0.563106
vt 0.650312 0.623357
vt 0.671490 0.591663
vt 0.623358 0.650311
vt 0.591663 0.671489
vt 0.556446 0.686077
vt 0.519060 0.693513
vt 0.480941 0.693513
vt 0.443554 0.686077
vt 0.408337 0.671490
vt 0.376643 0.650312
vt 0.349689 0.623358
vt 0.328511 0.591663
vt 0.313923 0.556446
vt 0.306487 0.519060
vt 0.306487 0.480941
vt 0.313923 0.443554
vt 0.328510 0.408337
vt 0.349688 0.376643
vt 0.376642 0.349688
vt 0.408337 0.328511
vt 0.443554 0.313923
vt 0.480941 0.306487
vt 0.519059 0.306487
vt 0.556446 0.313923
vt 0.591663 0.328510
vt 0.623358 0.349688
vt 0.650312 0.376642
vt 0.671489 0.408337
vt 0.686077 0.443554
vt 0.693513 0.480941
vt 0.693513 0.519060
vt 0.686077 0.556446
vt 0.625211 0.602758
vt 0.642852 0.576356
vt 0.602758 0.625211
vt 0.576356 0.642852
vt 0.547020 0.655004
vt 0.515877 0.661198
vt 0.484124 0.661198
vt 0.452980 0.655003
vt 0.423644 0.642852
vt 0.397242 0.625211
vt 0.374789 0.602758
vt 0.357148 0.576356
vt 0.344996 0.547020
vt 0.338802 0.515877
vt 0.338802 0.484124
vt 0.344997 0.452980
vt 0.357148 0.423644
vt 0.374789 0.397242
vt 0.397242 0.374789
vt 0.423644 0.357148
vt 0.452980 0.344996
vt 0.484123 0.338802
vt 0.515877 0.338802
vt 0.547020 0.344997
vt 0.576356 0.357148
vt 0.602758 0.374789
vt 0.625211 0.397242
vt 0.642852 0.423644
vt 0.655004 0.452980
vt 0.661198 0.484123
vt 0.661198 0.515877
vt 0.655003 0.547020
vt 0.607359 0.588107
vt 0.622485 0.565470
vt 0.588108 0.607359
vt 0.565470 0.622485
vt 0.540316 0.632904
vt 0.513613 0.638216
vt 0.486387 0.638216
vt 0.459684 0.632904
vt 0.434530 0.622485
vt 0.411893 0.607359
vt 0.392641 0.588108
vt 0.377515 0.565470
vt 0.367096 0.540316
vt 0.361784 0.513613
vt 0.361784 0.486387
vt 0.367096 0.459684
vt 0.377515 0.434530
vt 0.392641 0.411893
vt 0.411893 0.392641
vt 0.434530 0.377515
vt 0.459684 0.367096
vt 0.486387 0.361784
vt 0.513613 0.361784
vt 0.540316 0.367096
vt 0.565470 0.377515
vt 0.588107 0.392641
vt 0.607359 0.411893
vt 0.622485 0.434530
vt 0.632904 0.459684
vt 0.638216 0.486387
vt 0.638216 0.513613
vt 0.632904 0.540316
vt 0.363519 0.265003
vt 0.410481 0.244926
vt 0.407865 0.236413
vt 0.359245 0.257163
vt 0.321354 0.294140
vt 0.315592 0.287271
vt 0.285519 0.331149
vt 0.278493 0.325517
vt 0.257522 0.374650
vt 0.249503 0.370476
vt 0.238355 0.422941
vt 0.229654 0.420373
vt 0.228710 0.474167
vt 0.219659 0.473296
vt 0.228933 0.526371
vt 0.219877 0.527231
vt 0.239034 0.577561
vt 0.230318 0.580128
vt 0.258733 0.625772
vt 0.250690 0.629938
vt 0.287052 0.669199
vt 0.279991 0.674800
vt 0.323053 0.706117
vt 0.317240 0.712922
vt 0.365044 0.735196
vt 0.360704 0.742963
vt 0.411845 0.755188
vt 0.409156 0.763654
vt 0.461693 0.765357
vt 0.460757 0.774195
vt 0.512647 0.765334
vt 0.513500 0.774195
vt 0.562660 0.755098
vt 0.565272 0.763627
vt 0.609727 0.735037
vt 0.613998 0.742892
vt 0.651964 0.705930
vt 0.657727 0.712798
vt 0.687691 0.668906
vt 0.694720 0.674516
vt 0.715532 0.625390
vt 0.723551 0.629542
vt 0.734611 0.577115
vt 0.743312 0.579660
vt 0.744072 0.525889
vt 0.753120 0.526740
vt 0.743809 0.473688
vt 0.752862 0.472828
vt 0.733745 0.422496
vt 0.742460 0.419948
vt 0.714229 0.374262
vt 0.722274 0.370119
vt 0.685990 0.330831
vt 0.693059 0.325251
vt 0.650156 0.293856
vt 0.655973 0.287042
vt 0.607939 0.264825
vt 0.612277 0.257039
vt 0.561110 0.244811
vt 0.563800 0.236345
vt 0.511280 0.234635
vt 0.512215 0.225804
vt 0.460397 0.234673
vt 0.459540 0.225825
s 1
usemtl 材质
f 387/1/1 353/2/1 354/3/1
f 353/2/1 387/1/1 386/4/1
f 353/2/1 386/4/1 355/5/1
f 355/5/1 386/4/1 385/6/1
f 355/5/1 385/6/1 356/7/1
f 356/7/1 385/6/1 384/8/1
f 356/7/1 384/8/1 357/9/1
f 357/9/1 384/8/1 383/10/1
f 357/9/1 383/10/1 358/11/1
f 358/11/1 383/10/1 382/12/1
f 358/11/1 382/12/1 359/13/1
f 359/13/1 382/12/1 381/14/1
f 359/13/1 381/14/1 360/15/1
f 360/15/1 381/14/1 380/16/1
f 360/15/1 380/16/1 361/17/1
f 361/17/1 380/16/1 379/18/1
f 361/17/1 379/18/1 362/19/1
f 362/19/1 379/18/1 378/20/1
f 362/19/1 378/20/1 363/21/1
f 363/21/1 378/20/1 377/22/1
f 363/21/1 377/22/1 364/23/1
f 364/23/1 377/22/1 376/24/1
f 364/23/1 376/24/1 365/25/1
f 365/25/1 376/24/1 375/26/1
f 365/25/1 375/26/1 366/27/1
f 366/27/1 375/26/1 374/28/1
f 366/27/1 374/28/1 367/29/1
f 367/29/1 374/28/1 372/30/1
f 367/29/1 372/30/1 368/31/1
f 369/31/2 373/30/2 370/32/2
f 97/33/3 98/34/4 2/35/5
f 97/33/3 2/35/5 4/36/6
f 99/37/7 97/33/3 4/36/6
f 99/37/7 4/36/6 6/38/8
f 100/39/9 99/37/7 6/38/8
f 100/39/9 6/38/8 8/40/10
f 101/41/11 100/39/9 8/40/10
f 101/41/11 8/40/10 10/42/12
f 102/43/13 101/41/11 10/42/12
f 102/43/13 10/42/12 12/44/14
f 103/45/15 102/43/13 12/44/14
f 103/45/15 12/44/14 13/46/16
f 104/47/17 103/45/15 13/46/16
f 104/47/17 13/46/16 15/48/18
f 105/49/19 104/47/17 15/48/18
f 105/49/19 15/48/18 17/50/20
f 106/51/21 105/49/19 17/50/20
f 106/51/21 17/50/20 19/52/22
f 107/53/23 106/51/21 19/52/22
f 107/53/23 19/52/22 21/54/24
f 108/55/25 107/53/23 21/54/24
f 108/55/25 21/54/24 23/56/26
f 109/57/27 108/55/25 23/56/26
f 109/57/27 23/56/26 25/58/28
f 110/59/29 109/57/27 25/58/28
f 110/59/29 25/58/28 27/60/30
f 111/61/31 110/59/29 27/60/30
f 111/61/31 27/60/30 29/62/32
f 112/63/33 111/61/31 29/62/32
f 112/63/33 29/62/32 31/64/34
f 113/65/35 112/63/33 31/64/34
f 113/65/35 31/64/34 33/66/36
f 114/67/37 113/65/35 33/66/36
f 114/67/37 33/66/36 35/68/38
f 115/69/39 114/67/37 35/68/38
f 115/69/39 35/68/38 37/70/40
f 116/71/41 115/69/39 37/70/40
f 116/71/41 37/70/40 39/72/42
f 117/73/43 116/71/41 39/72/42
f 117/73/43 39/72/42 41/74/44
f 118/75/45 117/73/43 41/74/44
f 118/75/45 41/74/44 44/76/46
f 119/77/47 118/75/45 44/76/46
f 119/77/47 44/76/46 46/78/48
f 120/79/49 119/77/47 46/78/48
f 120/79/49 46/78/48 48/80/50
f 121/81/51 120/79/49 48/80/50
f 121/81/51 48/80/50 50/82/52
f 122/83/53 121/81/51 50/82/52
f 122/83/53 50/82/52 52/84/54
f 123/85/55 122/83/53 52/84/54
f 123/85/55 52/84/54 54/86/56
f 124/87/57 123/85/55 54/86/56
f 124/87/57 54/86/56 56/88/58
f 125/89/59 124/87/57 56/88/58
f 125/89/59 56/88/58 58/90/60
f 126/91/61 125/89/59 58/90/60
f 126/91/61 58/90/60 60/92/62
f 127/93/63 126/91/61 60/92/62
f 127/93/63 60/92/62 62/94/64
f 128/95/65 127/93/63 62/94/64
f 128/95/65 62/94/64 64/96/66
f 98/34/4 128/95/65 64/96/66
f 98/34/4 64/96/66 2/35/5
f 129/97/67 130/98/68 98/34/4
f 129/97/67 98/34/4 97/33/3
f 131/99/69 129/97/67 97/33/3
f 131/99/69 97/33/3 99/37/7
f 132/100/70 131/99/69 99/37/7
f 132/100/70 99/37/7 100/39/9
f 133/101/71 132/100/70 100/39/9
f 133/101/71 100/39/9 101/41/11
f 134/102/72 133/101/71 101/41/11
f 134/102/72 101/41/11 102/43/13
f 135/103/73 134/102/72 102/43/13
f 135/103/73 102/43/13 103/45/15
f 136/104/74 135/103/73 103/45/15
f 136/104/74 103/45/15 104/47/17
f 137/105/75 136/104/74 104/47/17
f 137/105/75 104/47/17 105/49/19
f 138/106/76 137/105/75 105/49/19
f 138/106/76 105/49/19 106/51/21
f 139/107/77 138/106/76 106/51/21
f 139/107/77 106/51/21 107/53/23
f 140/108/78 139/107/77 107/53/23
f 140/108/78 107/53/23 108/55/25
f 141/109/79 140/108/78 108/55/25
f 141/109/79 108/55/25 109/57/27
f 142/110/80 141/109/79 109/57/27
f 142/110/80 109/57/27 110/59/29
f 143/111/81 142/110/80 110/59/29
f 143/111/81 110/59/29 111/61/31
f 144/112/82 143/111/81 111/61/31
f 144/112/82 111/61/31 112/63/33
f 145/113/83 144/112/82 112/63/33
f 145/113/83 112/63/33 113/65/35
f 146/114/84 145/113/83 113/65/35
f 146/114/84 113/65/35 114/67/37
f 147/115/85 146/114/84 114/67/37
f 147/115/85 114/67/37 115/69/39
f 148/116/86 147/115/85 115/69/39
f 148/116/86 115/69/39 116/71/41
f 149/117/87 148/116/86 116/71/41
f 149/117/87 116/71/41 117/73/43
f 150/118/88 149/117/87 117/73/43
f 150/118/88 117/73/43 118/75/45
f 151/119/89 150/118/88 118/75/45
f 151/119/89 118/75/45 119/77/47
f 152/120/90 151/119/89 119/77/47
f 152/120/90 119/77/47 120/79/49
f 153/121/91 152/120/90 120/79/49
f 153/121/91 120/79/49 121/81/51
f 154/122/92 153/121/91 121/81/51
f 154/122/92 121/81/51 122/83/53
f 155/123/93 154/122/92 122/83/53
f 155/123/93 122/83/53 123/85/55
f 156/124/94 155/123/93 123/85/55
f 156/124/94 123/85/55 124/87/57
f 157/125/95 156/124/94 124/87/57
f 157/125/95 124/87/57 125/89/59
f 158/126/96 157/125/95 125/89/59
f 158/126/96 125/89/59 126/91/61
f 159/127/97 158/126/96 126/91/61
f 159/127/97 126/91/61 127/93/63
f 160/128/98 159/127/97 127/93/63
f 160/128/98 127/93/63 128/95/65
f 130/98/68 160/128/98 128/95/65
f 130/98/68 128/95/65 98/34/4
f 161/129/99 162/130/100 130/98/68
f 161/129/99 130/98/68 129/97/67
f 163/131/101 161/129/99 129/97/67
f 163/131/101 129/97/67 131/99/69
f 164/132/102 163/131/101 131/99/69
f 164/132/102 131/99/69 132/100/70
f 165/133/103 164/132/102 132/100/70
f 165/133/103 132/100/70 133/101/71
f 166/134/104 165/133/103 133/101/71
f 166/134/104 133/101/71 134/102/72
f 167/135/105 166/134/104 134/102/72
f 167/135/105 134/102/72 135/103/73
f 168/136/106 167/135/105 135/103/73
f 168/136/106 135/103/73 136/104/74
f 169/137/107 168/136/106 136/104/74
f 169/137/107 136/104/74 137/105/75
f 170/138/108 169/137/107 137/105/75
f 170/138/108 137/105/75 138/106/76
f 171/139/109 170/138/108 138/106/76
f 171/139/109 138/106/76 139/107/77
f 172/140/110 171/139/109 139/107/77
f 172/140/110 139/107/77 140/108/78
f 173/141/111 172/140/110 140/108/78
f 173/141/111 140/108/78 141/109/79
f 174/142/112 173/141/111 141/109/79
f 174/142/112 141/109/79 142/110/80
f 175/143/113 174/142/112 142/110/80
f 175/143/113 142/110/80 143/111/81
f 176/144/114 175/143/113 143/111/81
f 176/144/114 143/111/81 144/112/82
f 177/145/115 176/144/114 144/112/82
f 177/145/115 144/112/82 145/113/83
f 178/146/116 177/145/115 145/113/83
f 178/146/116 145/113/83 146/114/84
f 179/147/117 178/146/116 146/114/84
f 179/147/117 146/114/84 147/115/85
f 180/148/118 179/147/117 147/115/85
f 180/148/118 147/115/85 148/116/86
f 181/149/119 180/148/118 148/116/86
f 181/149/119 148/116/86 149/117/87
f 182/150/120 181/149/119 149/117/87
f 182/150/120 149/117/87 150/118/88
f 183/151/121 182/150/120 150/118/88
f 183/151/121 150/118/88 151/119/89
f 184/152/122 183/151/121 151/119/89
f 184/152/122 151/119/89 152/120/90
f 185/153/123 184/152/122 152/120/90
f 185/153/123 152/120/90 153/121/91
f 186/154/124 185/153/123 153/121/91
f 186/154/124 153/121/91 154/122/92
f 187/155/125 186/154/124 154/122/92
f 187/155/125 154/122/92 155/123/93
f 188/156/126 187/155/125 155/123/93
f 188/156/126 155/123/93 156/124/94
f 189/157/127 188/156/126 156/124/94
f 189/157/127 156/124/94 157/125/95
f 190/158/128 189/157/127 157/125/95
f 190/158/128 157/125/95 158/126/96
f 191/159/129 190/158/128 158/126/96
f 191/159/129 158/126/96 159/127/97
f 192/160/130 191/159/129 159/127/97
f 192/160/130 159/127/97 160/128/98
f 162/130/100 192/160/130 160/128/98
f 162/130/100 160/128/98 130/98/68
f 193/161/131 194/162/132 162/130/100
f 193/161/131 162/130/100 161/129/99
f 195/163/133 193/161/131 161/129/99
f 195/163/133 161/129/99 163/131/101
f 196/164/134 195/163/133 163/131/101
f 196/164/134 163/131/101 164/132/102
f 197/165/135 196/164/134 164/132/102
f 197/165/135 164/132/102 165/133/103
f 198/166/136 197/165/135 165/133/103
f 198/166/136 165/133/103 166/134/104
f 199/167/137 198/166/136 166/134/104
f 199/167/137 166/134/104 167/135/105
f 200/168/138 199/167/137 167/135/105
f 200/168/138 167/135/105 168/136/106
f 201/169/139 200/168/138 168/136/106
f 201/169/139 168/136/106 169/137/107
f 202/170/140 201/169/139 169/137/107
f 202/170/140 169/137/107 170/138/108
f 203/171/141 202/170/140 170/138/108
f 203/171/141 170/138/108 171/139/109
f 204/172/142 203/171/141 171/139/109
f 204/172/142 171/139/109 172/140/110
f 205/173/143 204/172/142 172/140/110
f 205/173/143 172/140/110 173/141/111
f 206/174/144 205/173/143 173/141/111
f 206/174/144 173/141/111 174/142/112
f 207/175/145 206/174/144 174/142/112
f 207/175/145 174/142/112 175/143/113
f 208/176/146 207/175/145 175/143/113
f 208/176/146 175/143/113 176/144/114
f 209/177/147 208/176/146 176/144/114
f 209/177/147 176/144/114 177/145/115
f 210/178/148 209/177/147 177/145/115
f 210/178/148 177/145/115 178/146/116
f 211/179/149 210/178/148 178/146/116
f 211/179/149 178/146/116 179/147/117
f 212/180/150 211/179/149 179/147/117
f 212/180/150 179/147/117 180/148/118
f 213/181/151 212/180/150 180/148/118
f 213/181/151 180/148/118 181/149/119
f 214/182/152 213/181/151 181/149/119
f 214/182/152 181/149/119 182/150/120
f 215/183/153 214/182/152 182/150/120
f 215/183/153 182/150/120 183/151/121
f 216/184/154 215/183/153 183/151/121
f 216/184/154 183/151/121 184/152/122
f 217/185/155 216/184/154 184/152/122
f 217/185/155 184/152/122 185/153/123
f 218/186/156 217/185/155 185/153/123
f 218/186/156 185/153/123 186/154/124
f 219/187/157 218/186/156 186/154/124
f 219/187/157 186/154/124 187/155/125
f 220/188/158 219/187/157 187/155/125
f 220/188/158 187/155/125 188/156/126
f 221/189/159 220/188/158 188/156/126
f 221/189/159 188/156/126 189/157/127
f 222/190/160 221/189/159 189/157/127
f 222/190/160 189/157/127 190/158/128
f 223/191/161 222/190/160 190/158/128
f 223/191/161 190/158/128 191/159/129
f 224/192/162 223/191/161 191/159/129
f 224/192/162 191/159/129 192/160/130
f 194/162/132 224/192/162 192/160/130
f 194/162/132 192/160/130 162/130/100
f 225/193/163 226/194/164 194/162/132
f 225/193/163 194/162/132 193/161/131
f 227/195/165 225/193/163 193/161/131
f 227/195/165 193/161/131 195/163/133
f 228/196/166 227/195/165 195/163/133
f 228/196/166 195/163/133 196/164/134
f 229/197/167 228/196/166 196/164/134
f 229/197/167 196/164/134 197/165/135
f 230/198/168 229/197/167 197/165/135
f 230/198/168 197/165/135 198/166/136
f 231/199/169 230/198/168 198/166/136
f 231/199/169 198/166/136 199/167/137
f 232/200/170 231/199/169 199/167/137
f 232/200/170 199/167/137 200/168/138
f 233/201/171 232/200/170 200/168/138
f 233/201/171 200/168/138 201/169/139
f 234/202/172 233/201/171 201/169/139
f 234/202/172 201/169/139 202/170/140
f 235/203/173 234/202/172 202/170/140
f 235/203/173 202/170/140 203/171/141
f 236/204/174 235/203/173 203/171/141
f 236/204/174 203/171/141 204/172/142
f 237/205/175 236/204/174 204/172/142
f 237/205/175 204/172/142 205/173/143
f 238/206/176 237/205/175 205/173/143
f 238/206/176 205/173/143 206/174/144
f 239/207/177 238/206/176 206/174/144
f 239/207/177 206/174/144 207/175/145
f 240/208/178 239/207/177 207/175/145
f 240/208/178 207/175/145 208/176/146
f 241/209/179 240/208/178 208/176/146
f 241/209/179 208/176/146 209/177/147
f 242/210/180 241/209/179 209/177/147
f 242/210/180 209/177/147 210/178/148
f 243/211/181 242/210/180 210/178/148
f 243/211/181 210/178/148 211/179/149
f 244/212/182 243/211/181 211/179/149
f 244/212/182 211/179/149 212/180/150
f 245/213/183 244/212/182 212/180/150
f 245/213/183 212/180/150 213/181/151
f 246/214/184 245/213/183 213/181/151
f 246/214/184 213/181/151 214/182/152
f 247/215/185 246/214/184 214/182/152
f 247/215/185 214/182/152 215/183/153
f 248/216/186 247/215/185 215/183/153
f 248/216/186 215/183/153 216/184/154
f 249/217/187 248/216/186 216/184/154
f 249/217/187 216/184/154 217/185/155
f 250/218/188 249/217/187 217/185/155
f 250/218/188 217/185/155 218/186/156
f 251/219/189 250/218/188 218/186/156
f 251/219/189 218/186/156 219/187/157
f 252/220/190 251/219/189 219/187/157
f 252/220/190 219/187/157 220/188/158
f 253/221/191 252/220/190 220/188/158
f 253/221/191 220/188/158 221/189/159
f 254/222/192 253/221/191 221/189/159
f 254/222/192 221/189/159 222/190/160
f 255/223/193 254/222/192 222/190/160
f 255/223/193 222/190/160 223/191/161
f 256/224/194 255/223/193 223/191/161
f 256/224/194 223/191/161 224/192/162
f 226/194/164 256/224/194 224/192/162
f 226/194/164 224/192/162 194/162/132
f 257/225/195 258/226/196 226/194/164
f 257/225/195 226/194/164 225/193/163
f 259/227/197 257/225/195 225/193/163
f 259/227/197 225/193/163 227/195/165
f 260/228/198 259/227/197 227/195/165
f 260/228/198 227/195/165 228/196/166
f 261/229/199 260/228/198 228/196/166
f 261/229/199 228/196/166 229/197/167
f 262/230/200 261/229/199 229/197/167
f 262/230/200 229/197/167 230/198/168
f 263/231/201 262/230/200 230/198/168
f 263/231/201 230/198/168 231/199/169
f 264/232/202 263/231/201 231/199/169
f 264/232/202 231/199/169 232/200/170
f 265/233/203 264/232/202 232/200/170
f 265/233/203 232/200/170 233/201/171
f 266/234/204 265/233/203 233/201/171
f 266/234/204 233/201/171 234/202/172
f 267/235/205 266/234/204 234/202/172
f 267/235/205 234/202/172 235/203/173
f 268/236/206 267/235/205 235/203/173
f 268/236/206 235/203/173 236/204/174
f 269/237/207 268/236/206 236/204/174
f 269/237/207 236/204/174 237/205/175
f 270/238/208 269/237/207 237/205/175
f 270/238/208 237/205/175 238/206/176
f 271/239/209 270/238/208 238/206/176
f 271/239/209 238/206/176 239/207/177
f 272/240/210 271/239/209 239/207/177
f 272/240/210 239/207/177 240/208/178
f 273/241/211 272/240/210 240/208/178
f 273/241/211 240/208/178 241/209/179
f 274/242/212 273/241/211 241/209/179
f 274/242/212 241/209/179 242/210/180
f 275/243/213 274/242/212 242/210/180
f 275/243/213 242/210/180 243/211/181
f 276/244/214 275/243/213 243/211/181
f 276/244/214 243/211/181 244/212/182
f 277/245/215 276/244/214 244/212/182
f 277/245/215 244/212/182 245/213/183
f 278/246/216 277/245/215 245/213/183
f 278/246/216 245/213/183 246/214/184
f 279/247/217 278/246/216 246/214/184
f 279/247/217 246/214/184 247/215/185
f 280/248/218 279/247/217 247/215/185
f 280/248/218 247/215/185 248/216/186
f 281/249/219 280/248/218 248/216/186
f 281/249/219 248/216/186 249/217/187
f 282/250/220 281/249/219 249/217/187
f 282/250/220 249/217/187 250/218/188
f 283/251/221 282/250/220 250/218/188
f 283/251/221 250/218/188 251/219/189
f 284/252/222 283/251/221 251/219/189
f 284/252/222 251/219/189 252/220/190
f 285/253/223 284/252/222 252/220/190
f 285/253/223 252/220/190 253/221/191
f 286/254/224 285/253/223 253/221/191
f 286/254/224 253/221/191 254/222/192
f 287/255/225 286/254/224 254/222/192
f 287/255/225 254/222/192 255/223/193
f 288/256/226 287/255/225 255/223/193
f 288/256/226 255/223/193 256/224/194
f 258/226/196 288/256/226 256/224/194
f 258/226/196 256/224/194 226/194/164
f 65/257/227 66/258/228 258/226/196
f 65/257/227 258/226/196 257/225/195
f 67/259/229 65/257/227 257/225/195
f 67/259/229 257/225/195 259/227/197
f 68/260/230 67/259/229 259/227/197
f 68/260/230 259/227/197 260/228/198
f 69/261/231 68/260/230 260/228/198
f 69/261/231 260/228/198 261/229/199
f 70/262/232 69/261/231 261/229/199
f 70/262/232 261/229/199 262/230/200
f 71/263/233 70/262/232 262/230/200
f 71/263/233 262/230/200 263/231/201
f 72/264/234 71/263/233 263/231/201
f 72/264/234 263/231/201 264/232/202
f 73/265/235 72/264/234 264/232/202
f 73/265/235 264/232/202 265/233/203
f 74/266/236 73/265/235 265/233/203
f 74/266/236 265/233/203 266/234/204
f 75/267/237 74/266/236 266/234/204
f 75/267/237 266/234/204 267/235/205
f 76/268/238 75/267/237 267/235/205
f 76/268/238 267/235/205 268/236/206
f 77/269/239 76/268/238 268/236/206
f 77/269/239 268/236/206 269/237/207
f 78/270/240 77/269/239 269/237/207
f 78/270/240 269/237/207 270/238/208
f 79/271/241 78/270/240 270/238/208
f 79/271/241 270/238/208 271/239/209
f 80/272/242 79/271/241 271/239/209
f 80/272/242 271/239/209 272/240/210
f 81/273/243 80/272/242 272/240/210
f 81/273/243 272/240/210 273/241/211
f 82/274/244 81/273/243 273/241/211
f 82/274/244 273/241/211 274/242/212
f 83/275/245 82/274/244 274/242/212
f 83/275/245 274/242/212 275/243/213
f 84/276/246 83/275/245 275/243/213
f 84/276/246 275/243/213 276/244/214
f 85/277/247 84/276/246 276/244/214
f 85/277/247 276/244/214 277/245/215
f 86/278/248 85/277/247 277/245/215
f 86/278/248 277/245/215 278/246/216
f 87/279/249 86/278/248 278/246/216
f 87/279/249 278/246/216 279/247/217
f 88/280/250 87/279/249 279/247/217
f 88/280/250 279/247/217 280/248/218
f 89/281/251 88/280/250 280/248/218
f 89/281/251 280/248/218 281/249/219
f 90/282/252 89/281/251 281/249/219
f 90/282/252 281/249/219 282/250/220
f 91/283/253 90/282/252 282/250/220
f 91/283/253 282/250/220 283/251/221
f 92/284/254 91/283/253 283/251/221
f 92/284/254 283/251/221 284/252/222
f 93/285/255 92/284/254 284/252/222
f 93/285/255 284/252/222 285/253/223
f 94/286/256 93/285/255 285/253/223
f 94/286/256 285/253/223 286/254/224
f 95/287/257 94/286/256 286/254/224
f 95/287/257 286/254/224 287/255/225
f 96/288/258 95/287/257 287/255/225
f 96/288/258 287/255/225 288/256/226
f 66/258/228 96/288/258 288/256/226
f 66/258/228 288/256/226 258/226/196
f 388/289/259 292/290/260 290/291/261
f 388/289/259 290/291/261 389/292/262
f 390/293/263 294/294/264 292/290/260
f 390/293/263 292/290/260 388/289/259
f 391/295/265 296/296/266 294/294/264
f 391/295/265 294/294/264 390/293/263
f 392/297/267 298/298/268 296/296/266
f 392/297/267 296/296/266 391/295/265
f 393/299/269 300/300/270 298/298/268
f 393/299/269 298/298/268 392/297/267
f 394/301/271 302/302/272 300/300/270
f 394/301/271 300/300/270 393/299/269
f 395/303/273 304/304/274 302/302/272
f 395/303/273 302/302/272 394/301/271
f 396/305/275 306/306/276 304/304/274
f 396/305/275 304/304/274 395/303/273
f 397/307/277 308/308/278 306/306/276
f 397/307/277 306/306/276 396/305/275
f 398/309/279 310/310/280 308/308/278
f 398/309/279 308/308/278 397/307/277
f 399/311/281 311/312/282 310/310/280
f 399/311/281 310/310/280 398/309/279
f 400/313/283 313/314/284 311/312/282
f 400/313/283 311/312/282 399/311/281
f 401/315/285 315/316/286 313/314/284
f 401/315/285 313/314/284 400/313/283
f 402/317/287 317/318/288 315/316/286
f 402/317/287 315/316/286 401/315/285
f 403/319/289 319/320/290 317/318/288
f 403/319/289 317/318/288 402/317/287
f 404/321/291 321/322/292 319/320/290
f 404/321/291 319/320/290 403/319/289
f 405/323/293 323/324/294 321/322/292
f 405/323/293 321/322/292 404/321/291
f 406/325/295 325/326/296 323/324/294
f 406/325/295 323/324/294 405/323/293
f 407/327/297 327/328/298 325/326/296
f 407/327/297 325/326/296 406/325/295
f 408/329/299 329/330/300 327/328/298
f 408/329/299 327/328/298 407/327/297
f 409/331/301 331/332/302 329/330/300
f 409/331/301 329/330/300 408/329/299
f 410/333/303 333/334/304 331/332/302
f 410/333/303 331/332/302 409/331/301
f 411/335/305 335/336/306 333/334/304
f 411/335/305 333/334/304 410/333/303
f 412/337/307 337/338/308 335/336/306
f 412/337/307 335/336/306 411/335/305
f 413/339/309 339/340/310 337/338/308
f 413/339/309 337/338/308 412/337/307
f 414/341/311 342/342/312 339/340/310
f 414/341/311 339/340/310 413/339/309
f 415/343/313 344/344/314 342/342/312
f 415/343/313 342/342/312 414/341/311
f 416/345/315 346/346/316 344/344/314
f 416/345/315 344/344/314 415/343/313
f 417/347/317 348/348/318 346/346/316
f 417/347/317 346/346/316 416/345/315
f 418/349/319 350/350/320 348/348/318
f 418/349/319 348/348/318 417/347/317
f 419/351/321 352/352/322 350/350/320
f 419/351/321 350/350/320 418/349/319
f 389/292/262 290/291/261 352/352/322
f 389/292/262 352/352/322 419/351/321
f 420/353/323 388/289/259 389/292/262
f 420/353/323 389/292/262 421/354/324
f 422/355/325 390/293/263 388/289/259
f 422/355/325 388/289/259 420/353/323
f 423/356/326 391/295/265 390/293/263
f 423/356/326 390/293/263 422/355/325
f 424/357/327 392/297/267 391/295/265
f 424/357/327 391/295/265 423/356/326
f 425/358/328 393/299/269 392/297/267
f 425/358/328 392/297/267 424/357/327
f 426/359/329 394/301/271 393/299/269
f 426/359/329 393/299/269 425/358/328
f 427/360/330 395/303/273 394/301/271
f 427/360/330 394/301/271 426/359/329
f 428/361/331 396/305/275 395/303/273
f 428/361/331 395/303/273 427/360/330
f 429/362/332 397/307/277 396/305/275
f 429/362/332 396/305/275 428/361/331
f 430/363/333 398/309/279 397/307/277
f 430/363/333 397/307/277 429/362/332
f 431/364/334 399/311/281 398/309/279
f 431/364/334 398/309/279 430/363/333
f 432/365/335 400/313/283 399/311/281
f 432/365/335 399/311/281 431/364/334
f 433/366/336 401/315/285 400/313/283
f 433/366/336 400/313/283 432/365/335
f 434/367/337 402/317/287 401/315/285
f 434/367/337 401/315/285 433/366/336
f 435/368/338 403/319/289 402/317/287
f 435/368/338 402/317/287 434/367/337
f 436/369/339 404/321/291 403/319/289
f 436/369/339 403/319/289 435/368/338
f 437/370/340 405/323/293 404/321/291
f 437/370/340 404/321/291 436/369/339
f 438/371/341 406/325/295 405/323/293
f 438/371/341 405/323/293 437/370/340
f 439/372/342 407/327/297 406/325/295
f 439/372/342 406/325/295 438/371/341
f 440/373/343 408/329/299 407/327/297
f 440/373/343 407/327/297 439/372/342
f 441/374/344 409/331/301 408/329/299
f 441/374/344 408/329/299 440/373/343
f 442/375/345 410/333/303 409/331/301
f 442/375/345 409/331/301 441/374/344
f 443/376/346 411/335/305 410/333/303
f 443/376/346 410/333/303 442/375/345
f 444/377/347 412/337/307 411/335/305
f 444/377/347 411/335/305 443/376/346
f 445/378/348 413/339/309 412/337/307
f 445/378/348 412/337/307 444/377/347
f 446/379/349 414/341/311 413/339/309
f 446/379/349 413/339/309 445/378/348
f 447/380/350 415/343/313 414/341/311
f 447/380/350 414/341/311 446/379/349
f 448/381/351 416/345/315 415/343/313
f 448/381/351 415/343/313 447/380/350
f 449/382/352 417/347/317 416/345/315
f 449/382/352 416/345/315 448/381/351
f 450/383/353 418/349/319 417/347/317
f 450/383/353 417/347/317 449/382/352
f 451/384/354 419/351/321 418/349/319
f 451/384/354 418/349/319 450/383/353
f 421/354/324 389/292/262 419/351/321
f 421/354/324 419/351/321 451/384/354
f 452/385/355 420/353/323 421/354/324
f 452/385/355 421/354/324 453/386/356
f 454/387/357 422/355/325 420/353/323
f 454/387/357 420/353/323 452/385/355
f 455/388/358 423/356/326 422/355/325
f 455/388/358 422/355/325 454/387/357
f 456/389/359 424/357/327 423/356/326
f 456/389/359 423/356/326 455/388/358
f 457/390/360 425/358/328 424/357/327
f 457/390/360 424/357/327 456/389/359
f 458/391/361 426/359/329 425/358/328
f 458/391/361 425/358/328 457/390/360
f 459/392/362 427/360/330 426/359/329
f 459/392/362 426/359/329 458/391/361
f 460/393/363 428/361/331 427/360/330
f 460/393/363 427/360/330 459/392/362
f 461/394/364 429/362/332 428/361/331
f 461/394/364 428/361/331 460/393/363
f 462/395/365 430/363/333 429/362/332
f 462/395/365 429/362/332 461/394/364
f 463/396/366 431/364/334 430/363/333
f 463/396/366 430/363/333 462/395/365
f 464/397/367 432/365/335 431/364/334
f 464/397/367 431/364/334 463/396/366
f 465/398/368 433/366/336 432/365/335
f 465/398/368 432/365/335 464/397/367
f 466/399/369 434/367/337 433/366/336
f 466/399/369 433/366/336 465/398/368
f 467/400/370 435/368/338 434/367/337
f 467/400/370 434/367/337 466/399/369
f 468/401/371 436/369/339 435/368/338
f 468/401/371 435/368/338 467/400/370
f 469/402/372 437/370/340 436/369/339
f 469/402/372 436/369/339 468/401/371
f 470/403/373 438/371/341 437/370/340
f 470/403/373 437/370/340 469/402/372
f 471/404/374 439/372/342 438/371/341
f 471/404/374 438/371/341 470/403/373
f 472/405/375 440/373/343 439/372/342
f 472/405/375 439/372/342 471/404/374
f 473/406/376 441/374/344 440/373/343
f 473/406/376 440/373/343 472/405/375
f 474/407/377 442/375/345 441/374/344
f 474/407/377 441/374/344 473/406/376
f 475/408/378 443/376/346 442/375/345
f 475/408/378 442/375/345 474/407/377
f 476/409/379 444/377/347 443/376/346
f 476/409/379 443/376/346 475/408/378
f 477/410/380 445/378/348 444/377/347
f 477/410/380 444/377/347 476/409/379
f 478/411/381 446/379/349 445/378/348
f 478/411/381 445/378/348 477/410/380
f 479/412/382 447/380/350 446/379/349
f 479/412/382 446/379/349 478/411/381
f 480/413/383 448/381/351 447/380/350
f 480/413/383 447/380/350 479/412/382
f 481/414/384 449/382/352 448/381/351
f 481/414/384 448/381/351 480/413/383
f 482/415/385 450/383/353 449/382/352
f 482/415/385 449/382/352 481/414/384
f 483/416/386 451/384/354 450/383/353
f 483/416/386 450/383/353 482/415/385
f 453/386/356 421/354/324 451/384/354
f 453/386/356 451/384/354 483/416/386
f 484/417/387 452/385/355 453/386/356
f 484/417/387 453/386/356 485/418/388
f 486/419/389 454/387/357 452/385/355
f 486/419/389 452/385/355 484/417/387
f 487/420/390 455/388/358 454/387/357
f 487/420/390 454/387/357 486/419/389
f 488/421/391 456/389/359 455/388/358
f 488/421/391 455/388/358 487/420/390
f 489/422/392 457/390/360 456/389/359
f 489/422/392 456/389/359 488/421/391
f 490/423/393 458/391/361 457/390/360
f 490/423/393 457/390/360 489/422/392
f 491/424/394 459/392/362 458/391/361
f 491/424/394 458/391/361 490/423/393
f 492/425/395 460/393/363 459/392/362
f 492/425/395 459/392/362 491/424/394
f 493/426/396 461/394/364 460/393/363
f 493/426/396 460/393/363 492/425/395
f 494/427/397 462/395/365 461/394/364
f 494/427/397 461/394/364 493/426/396
f 495/428/398 463/396/366 462/395/365
f 495/428/398 462/395/365 494/427/397
f 496/429/399 464/397/367 463/396/366
f 496/429/399 463/396/366 495/428/398
f 497/430/400 465/398/368 464/397/367
f 497/430/400 464/397/367 496/429/399
f 498/431/401 466/399/369 465/398/368
f 498/431/401 465/398/368 497/430/400
f 499/432/402 467/400/370 466/399/369
f 499/432/402 466/399/369 498/431/401
f 500/433/403 468/401/371 467/400/370
f 500/433/403 467/400/370 499/432/402
f 501/434/404 469/402/372 468/401/371
f 501/434/404 468/401/371 500/433/403
f 502/435/405 470/403/373 469/402/372
f 502/435/405 469/402/372 501/434/404
f 503/436/406 471/404/374 470/403/373
f 503/436/406 470/403/373 502/435/405
f 504/437/407 472/405/375 471/404/374
f 504/437/407 471/404/374 503/436/406
f 505/438/408 473/406/376 472/405/375
f 505/438/408 472/405/375 504/437/407
f 506/439/409 474/407/377 473/406/376
f 506/439/409 473/406/376 505/438/408
f 507/440/410 475/408/378 474/407/377
f 507/440/410 474/407/377 506/439/409
f 508/441/411 476/409/379 475/408/378
f 508/441/411 475/408/378 507/440/410
f 509/442/412 477/410/380 476/409/379
f 509/442/412 476/409/379 508/441/411
f 510/443/413 478/411/381 477/410/380
f 510/443/413 477/410/380 509/442/412
f 511/444/414 479/412/382 478/411/381
f 511/444/414 478/411/381 510/443/413
f 512/445/415 480/413/383 479/412/382
f 512/445/415 479/412/382 511/444/414
f 513/446/416 481/414/384 480/413/383
f 513/446/416 480/413/383 512/445/415
f 514/447/417 482/415/385 481/414/384
f 514/447/417 481/414/384 513/446/416
f 515/448/418 483/416/386 482/415/385
f 515/448/418 482/415/385 514/447/417
f 485/418/388 453/386/356 483/416/386
f 485/418/388 483/416/386 515/448/418
f 516/449/419 484/417/387 485/418/388
f 516/449/419 485/418/388 517/450/420
f 518/451/421 486/419/389 484/417/387
f 518/451/421 484/417/387 516/449/419
f 519/452/422 487/420/390 486/419/389
f 519/452/422 486/419/389 518/451/421
f 520/453/423 488/421/391 487/420/390
f 520/453/423 487/420/390 519/452/422
f 521/454/424 489/422/392 488/421/391
f 521/454/424 488/421/391 520/453/423
f 522/455/425 490/423/393 489/422/392
f 522/455/425 489/422/392 521/454/424
f 523/456/426 491/424/394 490/423/393
f 523/456/426 490/423/393 522/455/425
f 524/457/427 492/425/395 491/424/394
f 524/457/427 491/424/394 523/456/426
f 525/458/428 493/426/396 492/425/395
f 525/458/428 492/425/395 524/457/427
f 526/459/429 494/427/397 493/426/396
f 526/459/429 493/426/396 525/458/428
f 527/460/430 495/428/398 494/427/397
f 527/460/430 494/427/397 526/459/429
f 528/461/431 496/429/399 495/428/398
f 528/461/431 495/428/398 527/460/430
f 529/462/432 497/430/400 496/429/399
f 529/462/432 496/429/399 528/461/431
f 530/463/433 498/431/401 497/430/400
f 530/463/433 497/430/400 529/462/432
f 531/464/434 499/432/402 498/431/401
f 531/464/434 498/431/401 530/463/433
f 532/465/435 500/433/403 499/432/402
f 532/465/435 499/432/402 531/464/434
f 533/466/436 501/434/404 500/433/403
f 533/466/436 500/433/403 532/465/435
f 534/467/437 502/435/405 501/434/404
f 534/467/437 501/434/404 533/466/436
f 535/468/438 503/436/406 502/435/405
f 535/468/438 502/435/405 534/467/437
f 536/469/439 504/437/407 503/436/406
f 536/469/439 503/436/406 535/468/438
f 537/470/440 505/438/408 504/437/407
f 537/470/440 504/437/407 536/469/439
f 538/471/441 506/439/409 505/438/408
f 538/471/441 505/438/408 537/470/440
f 539/472/442 507/440/410 506/439/409
f 539/472/442 506/439/409 538/471/441
f 540/473/443 508/441/411 507/440/410
f 540/473/443 507/440/410 539/472/442
f 541/474/444 509/442/412 508/441/411
f 541/474/444 508/441/411 540/473/443
f 542/475/445 510/443/413 509/442/412
f 542/475/445 509/442/412 541/474/444
f 543/476/446 511/444/414 510/443/413
f 543/476/446 510/443/413 542/475/445
f 544/477/447 512/445/415 511/444/414
f 544/477/447 511/444/414 543/476/446
f 545/478/448 513/446/416 512/445/415
f 545/478/448 512/445/415 544/477/447
f 546/479/449 514/447/417 513/446/416
f 546/479/449 513/446/416 545/478/448
f 547/480/450 515/448/418 514/447/417
f 547/480/450 514/447/417 546/479/449
f 517/450/420 485/418/388 515/448/418
f 517/450/420 515/448/418 547/480/450
f 548/481/451 516/449/419 517/450/420
f 548/481/451 517/450/420 549/482/452
f 550/483/453 518/451/421 516/449/419
f 550/483/453 516/449/419 548/481/451
f 551/484/454 519/452/422 518/451/421
f 551/484/454 518/451/421 550/483/453
f 552/485/455 520/453/423 519/452/422
f 552/485/455 519/452/422 551/484/454
f 553/486/456 521/454/424 520/453/423
f 553/486/456 520/453/423 552/485/455
f 554/487/457 522/455/425 521/454/424
f 554/487/457 521/454/424 553/486/456
f 555/488/458 523/456/426 522/455/425
f 555/488/458 522/455/425 554/487/457
f 556/489/459 524/457/427 523/456/426
f 556/489/459 523/456/426 555/488/458
f 557/490/460 525/458/428 524/457/427
f 557/490/460 524/457/427 556/489/459
f 558/491/461 526/459/429 525/458/428
f 558/491/461 525/458/428 557/490/460
f 559/492/462 527/460/430 526/459/429
f 559/492/462 526/459/429 558/491/461
f 560/493/463 528/461/431 527/460/430
f 560/493/463 527/460/430 559/492/462
f 561/494/464 529/462/432 528/461/431
f 561/494/464 528/461/431 560/493/463
f 562/495/465 530/463/433 529/462/432
f 562/495/465 529/462/432 561/494/464
f 563/496/466 531/464/434 530/463/433
f 563/496/466 530/463/433 562/495/465
f 564/497/467 532/465/435 531/464/434
f 564/497/467 531/464/434 563/496/466
f 565/498/468 533/466/436 532/465/435
f 565/498/468 532/465/435 564/497/467
f 566/499/469 534/467/437 533/466/436
f 566/499/469 533/466/436 565/498/468
f 567/500/470 535/468/438 534/467/437
f 567/500/470 534/467/437 566/499/469
f 568/501/471 536/469/439 535/468/438
f 568/501/471 535/468/438 567/500/470
f 569/502/472 537/470/440 536/469/439
f 569/502/472 536/469/439 568/501/471
f 570/503/473 538/471/441 537/470/440
f 570/503/473 537/470/440 569/502/472
f 571/504/474 539/472/442 538/471/441
f 571/504/474 538/471/441 570/503/473
f 572/505/475 540/473/443 539/472/442
f 572/505/475 539/472/442 571/504/474
f 573/506/476 541/474/444 540/473/443
f 573/506/476 540/473/443 572/505/475
f 574/507/477 542/475/445 541/474/444
f 574/507/477 541/474/444 573/506/476
f 575/508/478 543/476/446 542/475/445
f 575/508/478 542/475/445 574/507/477
f 576/509/479 544/477/447 543/476/446
f 576/509/479 543/476/446 575/508/478
f 577/510/480 545/478/448 544/477/447
f 577/510/480 544/477/447 576/509/479
f 578/511/481 546/479/449 545/478/448
f 578/511/481 545/478/448 577/510/480
f 579/512/482 547/480/450 546/479/449
f 579/512/482 546/479/449 578/511/481
f 549/482/452 517/450/420 547/480/450
f 549/482/452 547/480/450 579/512/482
f 353/2/1 548/481/451 549/482/452
f 353/2/1 549/482/452 354/3/1
f 355/5/1 550/483/453 548/481/451
f 355/5/1 548/481/451 353/2/1
f 356/7/1 551/484/454 550/483/453
f 356/7/1 550/483/453 355/5/1
f 357/9/1 552/485/455 551/484/454
f 357/9/1 551/484/454 356/7/1
f 358/11/1 553/486/456 552/485/455
f 358/11/1 552/485/455 357/9/1
f 359/13/1 554/487/457 553/486/456
f 359/13/1 553/486/456 358/11/1
f 360/15/1 555/488/458 554/487/457
f 360/15/1 554/487/457 359/13/1
f 361/17/1 556/489/459 555/488/458
f 361/17/1 555/488/458 360/15/1
f 362/19/1 557/490/460 556/489/459
f 362/19/1 556/489/459 361/17/1
f 363/21/1 558/491/461 557/490/460
f 363/21/1 557/490/460 362/19/1
f 364/23/1 559/492/462 558/491/461
f 364/23/1 558/491/461 363/21/1
f 365/25/1 560/493/463 559/492/462
f 365/25/1 559/492/462 364/23/1
f 366/27/1 561/494/464 560/493/463
f 366/27/1 560/493/463 365/25/1
f 367/29/1 562/495/465 561/494/464
f 367/29/1 561/494/464 366/27/1
f 368/31/1 563/496/466 562/495/465
f 368/31/1 562/495/465 367/29/1
f 371/32/1 564/497/467 563/496/466
f 371/32/1 563/496/466 368/31/1
f 372/30/1 565/498/468 564/497/467
f 372/30/1 564/497/467 371/32/1
f 374/28/1 566/499/469 565/498/468
f 374/28/1 565/498/468 372/30/1
f 375/26/1 567/500/470 566/499/469
f 375/26/1 566/499/469 374/28/1
f 376/24/1 568/501/471 567/500/470
f 376/24/1 567/500/470 375/26/1
f 377/22/1 569/502/472 568/501/471
f 377/22/1 568/501/471 376/24/1
f 378/20/1 570/503/473 569/502/472
f 378/20/1 569/502/472 377/22/1
f 379/18/1 571/504/474 570/503/473
f 379/18/1 570/503/473 378/20/1
f 380/16/1 572/505/475 571/504/474
f 380/16/1 571/504/474 379/18/1
f 381/14/1 573/506/476 572/505/475
f 381/14/1 572/505/475 380/16/1
f 382/12/1 574/507/477 573/506/476
f 382/12/1 573/506/476 381/14/1
f 383/10/1 575/508/478 574/507/477
f 383/10/1 574/507/477 382/12/1
f 384/8/1 576/509/479 575/508/478
f 384/8/1 575/508/478 383/10/1
f 385/6/1 577/510/480 576/509/479
f 385/6/1 576/509/479 384/8/1
f 386/4/1 578/511/481 577/510/480
f 386/4/1 577/510/480 385/6/1
f 387/1/1 579/512/482 578/511/481
f 387/1/1 578/511/481 386/4/1
f 354/3/1 549/482/452 579/512/482
f 354/3/1 579/512/482 387/1/1
f 3/513/483 1/514/484 289/515/261
f 3/513/483 289/515/261 291/516/485
f 5/517/486 3/513/483 291/516/485
f 5/517/486 291/516/485 293/518/264
f 7/519/487 5/517/486 293/518/264
f 7/519/487 293/518/264 295/520/266
f 9/521/488 7/519/487 295/520/266
f 9/521/488 295/520/266 297/522/268
f 11/523/489 9/521/488 297/522/268
f 11/523/489 297/522/268 299/524/490
f 14/525/491 11/523/489 299/524/490
f 14/525/491 299/524/490 301/526/272
f 16/527/18 14/525/491 301/526/272
f 16/527/18 301/526/272 303/528/492
f 18/529/493 16/527/18 303/528/492
f 18/529/493 303/528/492 305/530/494
f 20/531/22 18/529/493 305/530/494
f 20/531/22 305/530/494 307/532/495
f 22/533/496 20/531/22 307/532/495
f 22/533/496 307/532/495 309/534/280
f 24/535/497 22/533/496 309/534/280
f 24/535/497 309/534/280 312/536/282
f 26/537/498 24/535/497 312/536/282
f 26/537/498 312/536/282 314/538/499
f 28/539/500 26/537/498 314/538/499
f 28/539/500 314/538/499 316/540/501
f 30/541/502 28/539/500 316/540/501
f 30/541/502 316/540/501 318/542/288
f 32/543/34 30/541/502 318/542/288
f 32/543/34 318/542/288 320/544/503
f 34/545/504 32/543/34 320/544/503
f 34/545/504 320/544/503 322/546/505
f 36/547/506 34/545/504 322/546/505
f 36/547/506 322/546/505 324/548/507
f 38/549/508 36/547/506 324/548/507
f 38/549/508 324/548/507 326/550/296
f 40/551/509 38/549/508 326/550/296
f 40/551/509 326/550/296 328/552/510
f 42/553/511 40/551/509 328/552/510
f 42/553/511 328/552/510 330/554/512
f 43/555/513 42/553/511 330/554/512
f 43/555/513 330/554/512 332/556/302
f 45/557/514 43/555/513 332/556/302
f 45/557/514 332/556/302 334/558/304
f 47/559/50 45/557/514 334/558/304
f 47/559/50 334/558/304 336/560/515
f 49/561/516 47/559/50 336/560/515
f 49/561/516 336/560/515 338/562/517
f 51/563/518 49/561/516 338/562/517
f 51/563/518 338/562/517 340/564/519
f 53/565/520 51/563/518 340/564/519
f 53/565/520 340/564/519 341/566/521
f 55/567/522 53/565/520 341/566/521
f 55/567/522 341/566/521 343/568/314
f 57/569/523 55/567/522 343/568/314
f 57/569/523 343/568/314 345/570/524
f 59/571/525 57/569/523 345/570/524
f 59/571/525 345/570/524 347/572/318
f 61/573/526 59/571/525 347/572/318
f 61/573/526 347/572/318 349/574/320
f 63/575/66 61/573/526 349/574/320
f 63/575/66 349/574/320 351/576/527
f 1/514/484 63/575/66 351/576/527
f 1/514/484 351/576/527 289/515/261
f 65/257/227 96/288/258 66/258/228
f 96/288/258 65/257/227 95/287/257
f 95/287/257 65/257/227 67/259/229
f 95/287/257 67/259/229 94/286/256
f 94/286/256 67/259/229 68/260/230
f 94/286/256 68/260/230 93/285/255
f 93/285/255 68/260/230 69/261/231
f 93/285/255 69/261/231 92/284/254
f 92/284/254 69/261/231 70/262/232
f 92/284/254 70/262/232 91/283/253
f 91/283/253 70/262/232 71/263/233
f 91/283/253 71/263/233 90/282/252
f 90/282/252 71/263/233 72/264/234
f 90/282/252 72/264/234 89/281/251
f 89/281/251 72/264/234 73/265/235
f 89/281/251 73/265/235 88/280/250
f 88/280/250 73/265/235 74/266/236
f 88/280/250 74/266/236 87/279/249
f 87/279/249 74/266/236 75/267/237
f 87/279/249 75/267/237 86/278/248
f 86/278/248 75/267/237 76/268/238
f 86/278/248 76/268/238 85/277/247
f 85/277/247 76/268/238 77/269/239
f 85/277/247 77/269/239 84/276/246
f 84/276/246 77/269/239 78/270/240
f 84/276/246 78/270/240 83/275/245
f 83/275/245 78/270/240 79/271/241
f 83/275/245 79/271/241 82/274/244
f 82/274/244 79/271/241 80/272/242
f 82/274/244 80/272/242 81/273/243
