# Blender 5.1.0
# www.blender.org
mtllib textured.mtl
o Object_2
v 0.032000 -0.005000 0.013000
v 0.041000 -0.005000 0.000000
v 0.041000 -0.005000 0.086000
v -0.045000 -0.005000 0.000000
v -0.036000 -0.005000 0.013000
v -0.045000 -0.005000 0.086000
v -0.036000 -0.005000 0.073000
v 0.032000 -0.005000 0.073000
v 0.008018 -0.005200 0.026677
v 0.032000 -0.005200 0.013000
v 0.032000 -0.005200 0.073000
v 0.004018 -0.005200 0.019749
v -0.036000 -0.005200 0.013000
v -0.008245 -0.005200 0.019941
v -0.012245 -0.005200 0.026870
v -0.036000 -0.005200 0.073000
v -0.010080 -0.005200 0.028120
v -0.006080 -0.005200 0.021191
v 0.005853 -0.005200 0.027927
v 0.001853 -0.005200 0.020999
v -0.001000 -0.005200 0.034000
v -0.001000 -0.005200 0.042000
v -0.003000 -0.005200 0.042000
v 0.009500 -0.005200 0.059402
v 0.010121 -0.005200 0.059879
v 0.010598 -0.005200 0.060500
v 0.010898 -0.005200 0.061224
v 0.011000 -0.005200 0.062000
v 0.010898 -0.005200 0.062777
v 0.010598 -0.005200 0.063500
v 0.010121 -0.005200 0.064121
v 0.009500 -0.005200 0.064598
v 0.008776 -0.005200 0.064898
v 0.008000 -0.005200 0.065000
v 0.006000 -0.005200 0.066000
v 0.004000 -0.005200 0.066000
v -0.008000 -0.005200 0.066000
v -0.010000 -0.005200 0.066000
v -0.012000 -0.005200 0.065000
v -0.012777 -0.005200 0.064898
v -0.013500 -0.005200 0.064598
v -0.014121 -0.005200 0.064121
v -0.014598 -0.005200 0.063500
v -0.014898 -0.005200 0.062777
v -0.015000 -0.005200 0.062000
v -0.014898 -0.005200 0.061224
v -0.014598 -0.005200 0.060500
v -0.014121 -0.005200 0.059879
v -0.013500 -0.005200 0.059402
v -0.003000 -0.005200 0.034000
v -0.012777 -0.005200 0.059102
v -0.010000 -0.005200 0.058000
v 0.006000 -0.005200 0.058000
v 0.008776 -0.005200 0.059102
v 0.006500 -0.005200 0.064598
v 0.006000 -0.005200 0.064214
v 0.007223 -0.005200 0.064898
v -0.008000 -0.005200 0.058000
v 0.004000 -0.005200 0.058000
v -0.010500 -0.005200 0.064598
v -0.010000 -0.005200 0.064214
v -0.011224 -0.005200 0.064898
v -0.010500 -0.005200 0.059402
v -0.010000 -0.005200 0.059786
v -0.011224 -0.005200 0.059102
v -0.012000 -0.005200 0.059000
v 0.006500 -0.005200 0.059402
v 0.006000 -0.005200 0.059786
v 0.007223 -0.005200 0.059102
v 0.008000 -0.005200 0.059000
vn -0.0000 -1.0000 -0.0000
vt 3.031500 0.488189
vt 3.385830 1.000000
vt 3.385830 -2.385830
vt 0.000000 1.000000
vt 0.354331 0.488189
vt 0.000000 -2.385830
vt 0.354331 -1.874020
vt 3.031500 -1.874020
vt 2.087320 -0.050260
vt 1.929840 0.222500
vt 1.447050 0.214904
vt 1.289570 -0.057860
vt 1.374800 -0.107070
vt 1.532280 0.165691
vt 2.002090 -0.099480
vt 1.844610 0.173287
vt 1.732280 -0.338580
vt 1.732280 -0.653540
vt 1.653540 -0.653540
vt 2.145670 -1.338660
vt 2.170130 -1.357430
vt 2.188900 -1.381890
vt 2.200700 -1.410380
vt 2.204720 -1.440940
vt 2.200700 -1.471510
vt 2.188900 -1.500000
vt 2.170130 -1.524460
vt 2.145670 -1.543230
vt 2.117180 -1.555030
vt 2.086610 -1.559060
vt 2.007870 -1.598430
vt 1.929130 -1.598430
vt 1.456690 -1.598430
vt 1.377950 -1.598430
vt 1.299210 -1.559060
vt 1.268640 -1.555030
vt 1.240160 -1.543230
vt 1.215700 -1.524460
vt 1.196930 -1.500000
vt 1.185130 -1.471510
vt 1.181100 -1.440940
vt 1.185130 -1.410380
vt 1.196930 -1.381890
vt 1.215700 -1.357430
vt 1.240160 -1.338660
vt 1.653540 -0.338580
vt 1.268640 -1.326860
vt 1.377950 -1.283460
vt 2.007870 -1.283460
vt 2.117180 -1.326860
vt 2.027560 -1.543230
vt 2.007870 -1.528130
vt 2.056040 -1.555030
vt 1.456690 -1.283460
vt 1.929130 -1.283460
vt 1.358270 -1.543230
vt 1.377950 -1.528130
vt 1.329780 -1.555030
vt 1.358270 -1.338660
vt 1.377950 -1.353760
vt 1.329780 -1.326860
vt 1.299210 -1.322830
vt 2.027560 -1.338660
vt 2.007870 -1.353760
vt 2.056040 -1.326860
vt 2.086610 -1.322830
s 0
usemtl Color_M02
f 1/1/1 2/2/1 3/3/1
f 2/2/1 1/1/1 4/4/1
f 5/5/1 4/4/1 1/1/1
f 4/4/1 5/5/1 6/6/1
f 6/6/1 5/5/1 7/7/1
f 1/1/1 3/3/1 8/8/1
f 8/8/1 3/3/1 7/7/1
f 6/6/1 7/7/1 3/3/1
f 9/9/1 10/1/1 11/8/1
f 12/10/1 10/1/1 9/9/1
f 10/1/1 12/10/1 13/5/1
f 14/11/1 13/5/1 12/10/1
f 15/12/1 13/5/1 14/11/1
f 13/5/1 15/12/1 16/7/1
f 16/7/1 15/12/1 17/13/1
f 18/14/1 19/15/1 17/13/1
f 18/14/1 20/16/1 19/15/1
f 14/11/1 20/16/1 18/14/1
f 20/16/1 14/11/1 12/10/1
f 9/9/1 11/8/1 19/15/1
f 19/15/1 11/8/1 21/17/1
f 21/17/1 11/8/1 22/18/1
f 22/18/1 11/8/1 23/19/1
f 23/19/1 11/8/1 24/20/1
f 24/20/1 11/8/1 25/21/1
f 25/21/1 11/8/1 26/22/1
f 26/22/1 11/8/1 27/23/1
f 27/23/1 11/8/1 28/24/1
f 28/24/1 11/8/1 29/25/1
f 29/25/1 11/8/1 30/26/1
f 30/26/1 11/8/1 31/27/1
f 31/27/1 11/8/1 32/28/1
f 32/28/1 11/8/1 33/29/1
f 33/29/1 11/8/1 34/30/1
f 34/30/1 11/8/1 35/31/1
f 35/31/1 11/8/1 36/32/1
f 36/32/1 11/8/1 37/33/1
f 37/33/1 11/8/1 38/34/1
f 16/7/1 38/34/1 11/8/1
f 16/7/1 39/35/1 38/34/1
f 16/7/1 40/36/1 39/35/1
f 16/7/1 41/37/1 40/36/1
f 16/7/1 42/38/1 41/37/1
f 16/7/1 43/39/1 42/38/1
f 16/7/1 44/40/1 43/39/1
f 16/7/1 45/41/1 44/40/1
f 16/7/1 46/42/1 45/41/1
f 16/7/1 47/43/1 46/42/1
f 16/7/1 48/44/1 47/43/1
f 16/7/1 49/45/1 48/44/1
f 16/7/1 23/19/1 49/45/1
f 16/7/1 50/46/1 23/19/1
f 16/7/1 17/13/1 50/46/1
f 50/46/1 17/13/1 21/17/1
f 19/15/1 21/17/1 17/13/1
f 49/45/1 23/19/1 51/47/1
f 51/47/1 23/19/1 52/48/1
f 52/48/1 23/19/1 53/49/1
f 23/19/1 54/50/1 53/49/1
f 23/19/1 24/20/1 54/50/1
f 55/51/1 35/31/1 56/52/1
f 35/31/1 55/51/1 57/53/1
f 35/31/1 57/53/1 34/30/1
f 36/32/1 58/54/1 59/55/1
f 58/54/1 36/32/1 37/33/1
f 38/34/1 60/56/1 61/57/1
f 60/56/1 38/34/1 62/58/1
f 62/58/1 38/34/1 39/35/1
f 63/59/1 52/48/1 64/60/1
f 65/61/1 52/48/1 63/59/1
f 52/48/1 65/61/1 66/62/1
f 51/47/1 52/48/1 66/62/1
f 53/49/1 67/63/1 68/64/1
f 67/63/1 53/49/1 69/65/1
f 69/65/1 53/49/1 70/66/1
f 53/49/1 54/50/1 70/66/1
o Object_3
v 0.041000 0.000000 0.000000
v 0.032000 0.000000 0.013000
v -0.045000 0.000000 0.000000
v 0.041000 0.000000 0.086000
v 0.041000 -0.005000 0.086000
v 0.041000 0.000000 0.000000
v 0.041000 0.000000 0.086000
v 0.041000 -0.005000 0.000000
v -0.036000 0.000000 0.073000
v -0.036000 -0.005000 0.013000
v -0.036000 -0.005000 0.073000
v -0.036000 0.000000 0.013000
v -0.045000 0.000000 0.086000
v -0.036000 0.000000 0.013000
v -0.036000 0.000000 0.073000
v 0.032000 0.000000 0.073000
v 0.032000 -0.005000 0.073000
v 0.032000 0.000000 0.013000
v 0.032000 0.000000 0.073000
v 0.032000 -0.005000 0.013000
v 0.041000 -0.005000 0.086000
v -0.045000 0.000000 0.086000
v -0.045000 -0.005000 0.086000
v 0.041000 0.000000 0.086000
v -0.045000 0.000000 0.086000
v -0.045000 -0.005000 0.000000
v -0.045000 -0.005000 0.086000
v -0.045000 0.000000 0.000000
v 0.041000 0.000000 0.000000
v -0.045000 -0.005000 0.000000
v -0.045000 0.000000 0.000000
v 0.041000 -0.005000 0.000000
v 0.032000 -0.005000 0.073000
v -0.036000 0.000000 0.073000
v -0.036000 -0.005000 0.073000
v 0.032000 0.000000 0.073000
v 0.032000 -0.005200 0.073000
v -0.036000 -0.005200 0.073000
v -0.036000 -0.005200 0.013000
v -0.036000 -0.005200 0.073000
v 0.032000 -0.005000 0.013000
v -0.036000 -0.005200 0.013000
v -0.036000 -0.005000 0.013000
v 0.032000 -0.005200 0.013000
v 0.032000 -0.005200 0.073000
v 0.032000 -0.005200 0.013000
v -0.012245 -0.005200 0.026870
v -0.010080 -0.000700 0.028120
v -0.010080 -0.005200 0.028120
v -0.012245 -0.000700 0.026870
v -0.012245 -0.005200 0.026870
v -0.008245 -0.000700 0.019941
v -0.012245 -0.000700 0.026870
v -0.008245 -0.005200 0.019941
v -0.006080 -0.005200 0.021191
v -0.008245 -0.000700 0.019941
v -0.008245 -0.005200 0.019941
v -0.006080 -0.000700 0.021191
v -0.006080 -0.005200 0.021191
v -0.010080 -0.000700 0.028120
v -0.006080 -0.000700 0.021191
v -0.010080 -0.005200 0.028120
v 0.004018 -0.005200 0.019749
v 0.001853 -0.000700 0.020999
v 0.001853 -0.005200 0.020999
v 0.004018 -0.000700 0.019749
v 0.004018 -0.005200 0.019749
v 0.008018 -0.000700 0.026677
v 0.004018 -0.000700 0.019749
v 0.008018 -0.005200 0.026677
v 0.005853 -0.005200 0.027927
v 0.008018 -0.000700 0.026677
v 0.008018 -0.005200 0.026677
v 0.005853 -0.000700 0.027927
v 0.005853 -0.005200 0.027927
v 0.001853 -0.000700 0.020999
v 0.005853 -0.000700 0.027927
v 0.001853 -0.005200 0.020999
v 0.001853 -0.000700 0.020999
v 0.008018 -0.000700 0.026677
v 0.005853 -0.000700 0.027927
v 0.004018 -0.000700 0.019749
v -0.001000 -0.005200 0.034000
v -0.003000 -0.000700 0.034000
v -0.003000 -0.005200 0.034000
v -0.001000 -0.000700 0.034000
v -0.001000 -0.005200 0.034000
v -0.001000 -0.000700 0.042000
v -0.001000 -0.000700 0.034000
v -0.001000 -0.005200 0.042000
v -0.003000 -0.005200 0.042000
v -0.001000 -0.000700 0.042000
v -0.001000 -0.005200 0.042000
v -0.003000 -0.000700 0.042000
v -0.003000 -0.005200 0.042000
v -0.003000 -0.000700 0.034000
v -0.003000 -0.000700 0.042000
v -0.003000 -0.005200 0.034000
v -0.003000 -0.000700 0.034000
v -0.001000 -0.000700 0.042000
v -0.003000 -0.000700 0.042000
v -0.001000 -0.000700 0.034000
v 0.009500 -0.005200 0.059402
v 0.008776 -0.000700 0.059102
v 0.008776 -0.005200 0.059102
v 0.009500 -0.000700 0.059402
v 0.010121 -0.005200 0.059879
v 0.009500 -0.000700 0.059402
v 0.009500 -0.005200 0.059402
v 0.010121 -0.000700 0.059879
v 0.010121 -0.005200 0.059879
v 0.010598 -0.000700 0.060500
v 0.010121 -0.000700 0.059879
v 0.010598 -0.005200 0.060500
v 0.010598 -0.005200 0.060500
v 0.010898 -0.000700 0.061224
v 0.010598 -0.000700 0.060500
v 0.010898 -0.005200 0.061224
v 0.010898 -0.005200 0.061224
v 0.011000 -0.000700 0.062000
v 0.010898 -0.000700 0.061224
v 0.011000 -0.005200 0.062000
v 0.011000 -0.005200 0.062000
v 0.010898 -0.000700 0.062777
v 0.011000 -0.000700 0.062000
v 0.010898 -0.005200 0.062777
v 0.010898 -0.005200 0.062777
v 0.010598 -0.000700 0.063500
v 0.010898 -0.000700 0.062777
v 0.010598 -0.005200 0.063500
v 0.010598 -0.005200 0.063500
v 0.010121 -0.000700 0.064121
v 0.010598 -0.000700 0.063500
v 0.010121 -0.005200 0.064121
v 0.009500 -0.005200 0.064598
v 0.010121 -0.000700 0.064121
v 0.010121 -0.005200 0.064121
v 0.009500 -0.000700 0.064598
v 0.008776 -0.005200 0.064898
v 0.009500 -0.000700 0.064598
v 0.009500 -0.005200 0.064598
v 0.008776 -0.000700 0.064898
v 0.008000 -0.005200 0.065000
v 0.008776 -0.000700 0.064898
v 0.008776 -0.005200 0.064898
v 0.008000 -0.000700 0.065000
v 0.007223 -0.005200 0.064898
v 0.008000 -0.000700 0.065000
v 0.008000 -0.005200 0.065000
v 0.007223 -0.000700 0.064898
v 0.006500 -0.005200 0.064598
v 0.007223 -0.000700 0.064898
v 0.007223 -0.005200 0.064898
v 0.006500 -0.000700 0.064598
v 0.006000 -0.005200 0.064214
v 0.006500 -0.000700 0.064598
v 0.006500 -0.005200 0.064598
v 0.006000 -0.000700 0.064214
v 0.006000 -0.005200 0.064214
v 0.006000 -0.000700 0.066000
v 0.006000 -0.000700 0.064214
v 0.006000 -0.005200 0.066000
v 0.004000 -0.005200 0.066000
v 0.006000 -0.000700 0.066000
v 0.006000 -0.005200 0.066000
v 0.004000 -0.000700 0.066000
v 0.004000 -0.005200 0.066000
v 0.004000 -0.000700 0.058000
v 0.004000 -0.000700 0.066000
v 0.004000 -0.005200 0.058000
v -0.008000 -0.000700 0.066000
v -0.008000 -0.005200 0.058000
v -0.008000 -0.005200 0.066000
v -0.008000 -0.000700 0.058000
v -0.008000 -0.000700 0.066000
v -0.010000 -0.000700 0.058000
v -0.008000 -0.000700 0.058000
v -0.010000 -0.000700 0.059786
v -0.014121 -0.000700 0.059879
v -0.010000 -0.000700 0.064214
v -0.010000 -0.000700 0.066000
v -0.008000 -0.000700 0.066000
v -0.010000 -0.005200 0.066000
v -0.010000 -0.000700 0.066000
v -0.008000 -0.005200 0.066000
v -0.010000 -0.005200 0.066000
v -0.010000 -0.000700 0.064214
v -0.010000 -0.000700 0.066000
v -0.010000 -0.005200 0.064214
v -0.012000 -0.005200 0.065000
v -0.011224 -0.000700 0.064898
v -0.011224 -0.005200 0.064898
v -0.012000 -0.000700 0.065000
v -0.012777 -0.005200 0.064898
v -0.012000 -0.000700 0.065000
v -0.012000 -0.005200 0.065000
v -0.012777 -0.000700 0.064898
v -0.013500 -0.005200 0.064598
v -0.012777 -0.000700 0.064898
v -0.012777 -0.005200 0.064898
v -0.013500 -0.000700 0.064598
v -0.014121 -0.005200 0.064121
v -0.013500 -0.000700 0.064598
v -0.013500 -0.005200 0.064598
v -0.014121 -0.000700 0.064121
v -0.014121 -0.005200 0.064121
v -0.014598 -0.000700 0.063500
v -0.014121 -0.000700 0.064121
v -0.014598 -0.005200 0.063500
v -0.014598 -0.005200 0.063500
v -0.014898 -0.000700 0.062777
v -0.014598 -0.000700 0.063500
v -0.014898 -0.005200 0.062777
v -0.014898 -0.005200 0.062777
v -0.015000 -0.000700 0.062000
v -0.014898 -0.000700 0.062777
v -0.015000 -0.005200 0.062000
v -0.015000 -0.005200 0.062000
v -0.014898 -0.000700 0.061224
v -0.015000 -0.000700 0.062000
v -0.014898 -0.005200 0.061224
v -0.014898 -0.005200 0.061224
v -0.014598 -0.000700 0.060500
v -0.014898 -0.000700 0.061224
v -0.014598 -0.005200 0.060500
v -0.014598 -0.005200 0.060500
v -0.014121 -0.000700 0.059879
v -0.014598 -0.000700 0.060500
v -0.014121 -0.005200 0.059879
v -0.013500 -0.005200 0.059402
v -0.014121 -0.000700 0.059879
v -0.014121 -0.005200 0.059879
v -0.013500 -0.000700 0.059402
v -0.012777 -0.005200 0.059102
v -0.013500 -0.000700 0.059402
v -0.013500 -0.005200 0.059402
v -0.012777 -0.000700 0.059102
v -0.012000 -0.005200 0.059000
v -0.012777 -0.000700 0.059102
v -0.012777 -0.005200 0.059102
v -0.012000 -0.000700 0.059000
v -0.011224 -0.005200 0.059102
v -0.012000 -0.000700 0.059000
v -0.012000 -0.005200 0.059000
v -0.011224 -0.000700 0.059102
v -0.010500 -0.005200 0.059402
v -0.011224 -0.000700 0.059102
v -0.011224 -0.005200 0.059102
v -0.010500 -0.000700 0.059402
v -0.010000 -0.005200 0.059786
v -0.010500 -0.000700 0.059402
v -0.010500 -0.005200 0.059402
v -0.010000 -0.000700 0.059786
v -0.010000 -0.005200 0.059786
v -0.010000 -0.000700 0.058000
v -0.010000 -0.000700 0.059786
v -0.010000 -0.005200 0.058000
v -0.008000 -0.005200 0.058000
v -0.010000 -0.000700 0.058000
v -0.010000 -0.005200 0.058000
v -0.008000 -0.000700 0.058000
v 0.006000 -0.005200 0.058000
v 0.004000 -0.000700 0.058000
v 0.004000 -0.005200 0.058000
v 0.006000 -0.000700 0.058000
v 0.006000 -0.005200 0.058000
v 0.006000 -0.000700 0.059786
v 0.006000 -0.000700 0.058000
v 0.006000 -0.005200 0.059786
v 0.008776 -0.005200 0.059102
v 0.008000 -0.000700 0.059000
v 0.008000 -0.005200 0.059000
v 0.008776 -0.000700 0.059102
v 0.008776 -0.000700 0.059102
v 0.007223 -0.000700 0.059102
v 0.008000 -0.000700 0.059000
v 0.009500 -0.000700 0.059402
v 0.006500 -0.000700 0.059402
v 0.010121 -0.000700 0.059879
v 0.006000 -0.000700 0.059786
v 0.004000 -0.000700 0.066000
v 0.004000 -0.000700 0.058000
v 0.006000 -0.000700 0.058000
v 0.006000 -0.000700 0.064214
v 0.010598 -0.000700 0.060500
v 0.010898 -0.000700 0.061224
v 0.011000 -0.000700 0.062000
v 0.010898 -0.000700 0.062777
v 0.010598 -0.000700 0.063500
v 0.010121 -0.000700 0.064121
v 0.009500 -0.000700 0.064598
v 0.006500 -0.000700 0.064598
v 0.008776 -0.000700 0.064898
v 0.007223 -0.000700 0.064898
v 0.008000 -0.000700 0.065000
v 0.006000 -0.000700 0.066000
v 0.006000 -0.000700 0.059786
v 0.006500 -0.005200 0.059402
v 0.006500 -0.000700 0.059402
v 0.006000 -0.005200 0.059786
v 0.007223 -0.005200 0.059102
v 0.006500 -0.000700 0.059402
v 0.006500 -0.005200 0.059402
v 0.007223 -0.000700 0.059102
v 0.008000 -0.005200 0.059000
v 0.007223 -0.000700 0.059102
v 0.007223 -0.005200 0.059102
v 0.008000 -0.000700 0.059000
v -0.013500 -0.000700 0.059402
v -0.010500 -0.000700 0.059402
v -0.012777 -0.000700 0.059102
v -0.011224 -0.000700 0.059102
v -0.012000 -0.000700 0.059000
v -0.014598 -0.000700 0.060500
v -0.014898 -0.000700 0.061224
v -0.015000 -0.000700 0.062000
v -0.014898 -0.000700 0.062777
v -0.014598 -0.000700 0.063500
v -0.014121 -0.000700 0.064121
v -0.013500 -0.000700 0.064598
v -0.010500 -0.000700 0.064598
v -0.010000 -0.000700 0.064214
v -0.010500 -0.005200 0.064598
v -0.010500 -0.000700 0.064598
v -0.010000 -0.005200 0.064214
v -0.011224 -0.005200 0.064898
v -0.010500 -0.000700 0.064598
v -0.010500 -0.005200 0.064598
v -0.011224 -0.000700 0.064898
v -0.011224 -0.000700 0.064898
v -0.012777 -0.000700 0.064898
v -0.012000 -0.000700 0.065000
v -0.012245 -0.000700 0.026870
v -0.006080 -0.000700 0.021191
v -0.010080 -0.000700 0.028120
v -0.008245 -0.000700 0.019941
v 0.032000 0.000000 0.013000
v -0.036000 0.000000 0.013000
vn -0.0000 -1.0000 -0.0000
vn 1.0000 -0.0000 -0.0000
vn -1.0000 -0.0000 -0.0000
vn -0.0000 -0.0000 1.0000
vn -0.0000 -0.0000 -1.0000
vn 0.5000 -0.0000 -0.8660
vn 0.8660 -0.0000 0.5000
vn -0.5000 -0.0000 0.8660
vn -0.8660 -0.0000 -0.5000
vn 0.5000 -0.0000 0.8660
vn -0.8660 -0.0000 0.5000
vn -0.5000 -0.0000 -0.8660
vn 0.8660 -0.0000 -0.5000
vn -0.2589 -0.0000 0.9659
vn -0.5000 -0.0000 0.8661
vn -0.7071 -0.0000 0.7071
vn -0.9659 -0.0000 0.2589
vn -0.8661 -0.0000 0.5000
vn -0.9659 -0.0000 0.2588
vn -0.9659 -0.0000 -0.2588
vn -0.9659 -0.0000 -0.2589
vn -0.8661 -0.0000 -0.5000
vn -0.7071 -0.0000 -0.7071
vn -0.2589 -0.0000 -0.9659
vn -0.5000 -0.0000 -0.8661
vn -0.2588 -0.0000 -0.9659
vn 0.2588 -0.0000 -0.9659
vn 0.2589 -0.0000 -0.9659
vn 0.5000 -0.0000 -0.8661
vn 0.6088 -0.0000 -0.7933
vn 0.7071 -0.0000 -0.7071
vn 0.9659 -0.0000 -0.2589
vn 0.8661 -0.0000 -0.5000
vn 0.9659 -0.0000 -0.2588
vn 0.9659 -0.0000 0.2588
vn 0.9659 -0.0000 0.2589
vn 0.8661 -0.0000 0.5000
vn 0.7071 -0.0000 0.7071
vn 0.2589 -0.0000 0.9659
vn 0.5000 -0.0000 0.8661
vn 0.2588 -0.0000 0.9659
vn -0.2588 -0.0000 0.9659
vn -0.6088 -0.0000 0.7933
vn 0.6088 -0.0000 0.7933
vn -0.6088 -0.0000 -0.7933
vt 3.385830 1.000000
vt 3.031500 0.488189
vt 0.000000 1.000000
vt 3.385830 -2.385830
vt -0.196850 -2.385830
vt 0.000000 -2.385830
vt -0.196850 1.000000
vt 0.000000 -1.874020
vt 0.196850 0.488189
vt 0.196850 -1.874020
vt 0.000000 0.488189
vt 0.354331 0.488189
vt 0.354331 -1.874020
vt 3.031500 -1.874020
vt -0.196850 -1.874020
vt -0.196850 0.488189
vt 3.385830 1.196850
vt 0.000000 1.196850
vt 0.196850 1.000000
vt 0.196850 -2.385830
vt -3.385830 1.000000
vt -3.385830 1.196850
vt 3.031500 1.196850
vt 0.354331 1.000000
vt 0.354331 1.196850
vt 3.031500 1.000000
vt 3.031500 1.204724
vt 0.354331 1.204724
vt 0.204724 0.488189
vt 0.204724 -1.874020
vt -3.031500 1.196850
vt -0.354331 1.204724
vt -0.354331 1.196850
vt -3.031500 1.204724
vt -0.204724 -1.874020
vt -0.204724 0.488189
vt -0.204724 -0.645730
vt -0.027559 -0.744150
vt -0.204724 -0.744150
vt -0.027559 -0.645730
vt -0.204724 0.728649
vt -0.027559 1.043609
vt -0.027559 0.728649
vt -0.204724 1.043609
vt 0.204724 -0.744150
vt 0.027559 -0.645730
vt 0.204724 -0.645730
vt 0.027559 -0.744150
vt 0.204724 1.043609
vt 0.027559 0.728649
vt 0.027559 1.043609
vt 0.204724 0.728649
vt -0.204724 2.282540
vt -0.027559 2.184120
vt -0.204724 2.184120
vt -0.027559 2.282540
vt 0.204724 -0.638260
vt 0.027559 -0.953220
vt 0.027559 -0.638260
vt 0.204724 -0.953220
vt 0.204724 2.184120
vt 0.027559 2.282540
vt 0.204724 2.282540
vt 0.027559 2.184120
vt -0.204724 -0.953220
vt -0.027559 -0.638260
vt -0.027559 -0.953220
vt -0.204724 -0.638260
vt 1.844610 0.173287
vt 2.087320 -0.050260
vt 2.002090 -0.099480
vt 1.929840 0.222500
vt 1.732280 1.204724
vt 1.653540 1.027559
vt 1.653540 1.204724
vt 1.732280 1.027559
vt 0.204724 -0.338580
vt 0.027559 -0.653540
vt 0.027559 -0.338580
vt 0.204724 -0.653540
vt -1.653540 1.204724
vt -1.732280 1.027559
vt -1.732280 1.204724
vt -1.653540 1.027559
vt -0.204724 -0.653540
vt -0.027559 -0.338580
vt -0.027559 -0.653540
vt -0.204724 -0.338580
vt 1.653540 -0.338580
vt 1.732280 -0.653540
vt 1.653540 -0.653540
vt 1.732280 -0.338580
vt 0.204724 -1.877310
vt 0.027559 -1.846470
vt 0.204724 -1.846470
vt 0.027559 -1.877310
vt 0.204724 -2.156790
vt 0.027559 -2.125960
vt 0.204724 -2.125960
vt 0.027559 -2.156790
vt 0.204724 -2.191370
vt 0.027559 -2.222200
vt 0.027559 -2.191370
vt 0.204724 -2.222200
vt 0.204724 -2.038240
vt 0.027559 -2.069070
vt 0.027559 -2.038240
vt 0.204724 -2.069070
vt 0.204724 -1.677000
vt 0.027559 -1.707840
vt 0.027559 -1.677000
vt 0.204724 -1.707840
vt 0.204724 -1.132290
vt 0.027559 -1.163120
vt 0.027559 -1.132290
vt 0.204724 -1.163120
vt 0.204724 -0.441210
vt 0.027559 -0.472040
vt 0.027559 -0.441210
vt 0.204724 -0.472040
vt 0.204724 0.349135
vt 0.027559 0.318302
vt 0.027559 0.349135
vt 0.204724 0.318302
vt 0.204724 1.154053
vt 0.027559 1.184886
vt 0.204724 1.184886
vt 0.027559 1.154053
vt 0.204724 1.978254
vt 0.027559 2.009090
vt 0.204724 2.009090
vt 0.027559 1.978254
vt 0.204724 2.734740
vt 0.027559 2.765570
vt 0.204724 2.765570
vt 0.027559 2.734740
vt -0.204724 -1.371950
vt -0.027559 -1.402790
vt -0.204724 -1.402790
vt -0.027559 -1.371950
vt -0.204724 -1.846470
vt -0.027559 -1.877310
vt -0.204724 -1.877310
vt -0.027559 -1.846470
vt -0.204724 -2.131980
vt -0.027559 -2.156790
vt -0.204724 -2.156790
vt -0.027559 -2.131980
vt 0.204724 -1.528130
vt 0.027559 -1.598430
vt 0.027559 -1.528130
vt 0.204724 -1.598430
vt -1.929130 1.204724
vt -2.007870 1.027559
vt -2.007870 1.204724
vt -1.929130 1.027559
vt -0.204724 -1.598430
vt -0.027559 -1.283460
vt -0.027559 -1.598430
vt -0.204724 -1.283460
vt 0.204724 -1.283460
vt 0.027559 -1.283460
vt 1.456690 -1.598430
vt 1.377950 -1.283460
vt 1.456690 -1.283460
vt 1.377950 -1.353760
vt 1.215700 -1.357430
vt 1.377950 -1.528130
vt 1.377950 -1.598430
vt -1.456690 1.027559
vt -1.377950 1.204724
vt -1.377950 1.027559
vt -1.456690 1.204724
vt -0.027559 -1.528130
vt -0.204724 -1.528130
vt 0.204724 1.954074
vt 0.027559 1.984907
vt 0.204724 1.984907
vt 0.027559 1.954074
vt -0.204724 -0.591290
vt -0.027559 -0.622120
vt -0.204724 -0.622120
vt -0.027559 -0.591290
vt -0.204724 -1.119010
vt -0.027559 -1.149840
vt -0.204724 -1.149840
vt -0.027559 -1.119010
vt -0.204724 -1.501270
vt -0.027559 -1.532100
vt -0.204724 -1.532100
vt -0.027559 -1.501270
vt -0.204724 -1.742860
vt -0.027559 -1.712030
vt -0.027559 -1.742860
vt -0.204724 -1.712030
vt -0.204724 -1.767740
vt -0.027559 -1.736910
vt -0.027559 -1.767740
vt -0.204724 -1.736910
vt -0.204724 -1.605060
vt -0.027559 -1.574230
vt -0.027559 -1.605060
vt -0.204724 -1.574230
vt -0.204724 -1.265900
vt -0.027559 -1.235060
vt -0.027559 -1.265900
vt -0.204724 -1.235060
vt -0.204724 -0.773370
vt -0.027559 -0.742540
vt -0.027559 -0.773370
vt -0.204724 -0.742540
vt -0.204724 -0.161040
vt -0.027559 -0.130200
vt -0.027559 -0.161040
vt -0.204724 -0.130200
vt -0.204724 0.560198
vt -0.027559 0.529365
vt -0.204724 0.529365
vt -0.027559 0.560198
vt -0.204724 1.281623
vt -0.027559 1.250790
vt -0.204724 1.250790
vt -0.027559 1.281623
vt -0.204724 1.984907
vt -0.027559 1.954074
vt -0.204724 1.954074
vt -0.027559 1.984907
vt 0.204724 -0.622120
vt 0.027559 -0.591290
vt 0.204724 -0.591290
vt 0.027559 -0.622120
vt 0.204724 -1.149840
vt 0.027559 -1.119010
vt 0.204724 -1.119010
vt 0.027559 -1.149840
vt 0.204724 -1.526080
vt 0.027559 -1.501270
vt 0.204724 -1.501270
vt 0.027559 -1.526080
vt -0.204724 -1.353760
vt -0.027559 -1.353760
vt 1.456690 1.204724
vt 1.377950 1.027559
vt 1.377950 1.204724
vt 1.456690 1.027559
vt 2.007870 1.204724
vt 1.929130 1.027559
vt 1.929130 1.204724
vt 2.007870 1.027559
vt 0.027559 -1.353760
vt 0.204724 -1.353760
vt 0.204724 -1.402790
vt 0.027559 -1.371950
vt 0.204724 -1.371950
vt 0.027559 -1.402790
vt 2.117180 -1.326860
vt 2.056040 -1.326860
vt 2.086610 -1.322830
vt 2.145670 -1.338660
vt 2.027560 -1.338660
vt 2.170130 -1.357430
vt 2.007870 -1.353760
vt 1.929130 -1.598430
vt 1.929130 -1.283460
vt 2.007870 -1.283460
vt 2.007870 -1.528130
vt 2.188900 -1.381890
vt 2.200700 -1.410380
vt 2.204720 -1.440940
vt 2.200700 -1.471510
vt 2.188900 -1.500000
vt 2.170130 -1.524460
vt 2.145670 -1.543230
vt 2.027560 -1.543230
vt 2.117180 -1.555030
vt 2.056040 -1.555030
vt 2.086610 -1.559060
vt 2.007870 -1.598430
vt -0.027559 1.160073
vt -0.204724 1.184886
vt -0.027559 1.184886
vt -0.204724 1.160073
vt -0.204724 2.009090
vt -0.027559 1.978254
vt -0.204724 1.978254
vt -0.027559 2.009090
vt -0.204724 2.765570
vt -0.027559 2.734740
vt -0.204724 2.734740
vt -0.027559 2.765570
vt 1.240160 -1.338660
vt 1.358270 -1.338660
vt 1.268640 -1.326860
vt 1.329780 -1.326860
vt 1.299210 -1.322830
vt 1.196930 -1.381890
vt 1.185130 -1.410380
vt 1.181100 -1.440940
vt 1.185130 -1.471510
vt 1.196930 -1.500000
vt 1.215700 -1.524460
vt 1.240160 -1.543230
vt 1.358270 -1.543230
vt 0.027559 0.554178
vt 0.204724 0.529365
vt 0.027559 0.529365
vt 0.204724 0.554178
vt 0.204724 1.250790
vt 0.027559 1.281623
vt 0.204724 1.281623
vt 0.027559 1.250790
vt 1.329780 -1.555030
vt 1.268640 -1.555030
vt 1.299210 -1.559060
vt 1.289570 -0.057860
vt 1.532280 0.165691
vt 1.374800 -0.107070
vt 1.447050 0.214904
vt -3.031500 1.000000
vt -0.354331 1.000000
s 0
usemtl FrontColor
f 71/67/2 72/68/2 73/69/2
f 72/68/2 71/67/2 74/70/2
f 75/71/3 76/69/3 77/72/3
f 76/69/3 75/71/3 78/73/3
f 79/74/4 80/75/4 81/76/4
f 80/75/4 79/74/4 82/77/4
f 83/72/2 84/78/2 85/79/2
f 73/69/2 84/78/2 83/72/2
f 84/78/2 73/69/2 72/68/2
f 86/80/2 84/78/2 72/68/2
f 84/78/2 86/80/2 85/79/2
f 86/80/2 74/70/2 85/79/2
f 72/68/2 74/70/2 86/80/2
f 87/81/3 88/77/3 89/74/3
f 88/77/3 87/81/3 90/82/3
f 91/83/5 92/69/5 93/84/5
f 92/69/5 91/83/5 94/67/5
f 83/72/2 85/79/2 74/70/2
f 95/72/4 96/85/4 97/86/4
f 96/85/4 95/72/4 98/69/4
f 99/87/6 100/84/6 101/69/6
f 100/84/6 99/87/6 102/88/6
f 103/89/5 104/90/5 105/91/5
f 104/90/5 103/89/5 106/92/5
f 105/91/5 107/93/5 103/89/5
f 107/93/5 105/91/5 108/94/5
f 81/76/4 109/95/4 110/96/4
f 109/95/4 81/76/4 80/75/4
f 111/97/6 112/98/6 113/99/6
f 112/98/6 111/97/6 114/100/6
f 90/82/3 115/101/3 116/102/3
f 115/101/3 90/82/3 87/81/3
f 117/103/7 118/104/7 119/105/7
f 118/104/7 117/103/7 120/106/7
f 121/107/8 122/108/8 123/109/8
f 122/108/8 121/107/8 124/110/8
f 125/111/9 126/112/9 127/113/9
f 126/112/9 125/111/9 128/114/9
f 129/115/10 130/116/10 131/117/10
f 130/116/10 129/115/10 132/118/10
f 133/119/11 134/120/11 135/121/11
f 134/120/11 133/119/11 136/122/11
f 137/123/12 138/124/12 139/125/12
f 138/124/12 137/123/12 140/126/12
f 141/127/13 142/128/13 143/129/13
f 142/128/13 141/127/13 144/130/13
f 145/131/14 146/132/14 147/133/14
f 146/132/14 145/131/14 148/134/14
f 149/135/2 150/136/2 151/137/2
f 150/136/2 149/135/2 152/138/2
f 153/139/5 154/140/5 155/141/5
f 154/140/5 153/139/5 156/142/5
f 157/143/4 158/144/4 159/145/4
f 158/144/4 157/143/4 160/146/4
f 161/147/6 162/148/6 163/149/6
f 162/148/6 161/147/6 164/150/6
f 165/151/3 166/152/3 167/153/3
f 166/152/3 165/151/3 168/154/3
f 169/155/2 170/156/2 171/157/2
f 170/156/2 169/155/2 172/158/2
s 1
f 173/159/9 174/160/15 175/161/15
f 174/160/15 173/159/9 176/162/16
f 177/163/17 178/164/9 179/165/9
f 178/164/9 177/163/17 180/166/17
f 181/167/17 182/168/12 183/169/17
f 182/168/12 181/167/17 184/170/12
f 185/171/12 186/172/18 187/173/19
f 186/172/18 185/171/12 188/174/18
f 189/175/20 190/176/4 191/177/20
f 190/176/4 189/175/20 192/178/4
f 193/179/4 194/180/21 195/181/4
f 194/180/21 193/179/4 196/182/21
f 197/183/22 198/184/10 199/185/22
f 198/184/10 197/183/22 200/186/23
f 201/187/10 202/188/24 203/189/10
f 202/188/24 201/187/10 204/190/24
f 205/191/13 206/192/24 207/193/24
f 206/192/24 205/191/13 208/194/13
f 209/195/25 210/196/13 211/197/26
f 210/196/13 209/195/25 212/198/25
f 213/199/6 214/200/27 215/201/27
f 214/200/27 213/199/6 216/202/6
f 217/203/28 218/204/6 219/205/6
f 218/204/6 217/203/28 220/206/28
f 221/207/7 222/208/29 223/209/29
f 222/208/29 221/207/7 224/210/30
f 225/211/31 226/212/7 227/213/7
f 226/212/7 225/211/31 228/214/31
s 0
f 229/215/4 230/216/4 231/217/4
f 230/216/4 229/215/4 232/218/4
f 233/219/6 234/220/6 235/221/6
f 234/220/6 233/219/6 236/222/6
f 237/223/3 238/224/3 239/225/3
f 238/224/3 237/223/3 240/226/3
f 241/216/4 242/227/4 243/218/4
f 242/227/4 241/216/4 244/228/4
f 245/229/2 246/230/2 247/231/2
f 246/230/2 245/229/2 248/232/2
f 248/232/2 245/229/2 249/233/2
f 249/233/2 245/229/2 250/234/2
f 250/234/2 245/229/2 251/235/2
f 252/236/6 253/237/6 254/238/6
f 253/237/6 252/236/6 255/239/6
f 256/223/3 257/240/3 258/225/3
f 257/240/3 256/223/3 259/241/3
s 1
f 260/242/6 261/243/27 262/244/27
f 261/243/27 260/242/6 263/245/6
f 264/246/28 265/247/6 266/248/6
f 265/247/6 264/246/28 267/249/28
f 268/250/30 269/251/29 270/252/29
f 269/251/29 268/250/30 271/253/7
f 272/254/32 273/255/7 274/256/7
f 273/255/7 272/254/32 275/257/32
f 276/258/32 277/259/14 278/260/32
f 277/259/14 276/258/32 279/261/14
f 280/262/14 281/263/33 282/264/34
f 281/263/33 280/262/14 283/265/33
f 284/266/35 285/267/3 286/268/35
f 285/267/3 284/266/35 287/269/3
f 288/270/3 289/271/36 290/272/3
f 289/271/36 288/270/3 291/273/36
f 292/274/37 293/275/8 294/276/37
f 293/275/8 292/274/37 295/277/38
f 296/278/8 297/279/39 298/280/8
f 297/279/39 296/278/8 299/281/39
f 300/282/11 301/283/39 302/284/39
f 301/283/39 300/282/11 303/285/11
f 304/286/40 305/287/41 306/288/11
f 305/287/41 304/286/40 307/289/40
f 308/290/5 309/291/42 310/292/42
f 309/291/42 308/290/5 311/293/5
f 312/294/43 313/295/5 314/296/5
f 313/295/5 312/294/43 315/297/43
f 316/298/16 317/299/15 318/300/15
f 317/299/15 316/298/16 319/301/9
f 320/302/44 321/303/9 322/304/9
f 321/303/9 320/302/44 323/305/44
s 0
f 324/306/3 325/224/3 326/307/3
f 325/224/3 324/306/3 327/226/3
f 328/308/5 329/309/5 330/310/5
f 329/309/5 328/308/5 331/311/5
f 332/312/5 333/313/5 334/314/5
f 333/313/5 332/312/5 335/315/5
f 336/227/4 337/316/4 338/228/4
f 337/316/4 336/227/4 339/317/4
s 1
f 340/318/43 341/319/5 342/320/5
f 341/319/5 340/318/43 343/321/43
s 0
f 344/322/2 345/323/2 346/324/2
f 345/323/2 344/322/2 347/325/2
f 345/323/2 347/325/2 348/326/2
f 348/326/2 347/325/2 349/327/2
f 348/326/2 349/327/2 350/328/2
f 351/329/2 350/328/2 349/327/2
f 352/330/2 350/328/2 351/329/2
f 350/328/2 352/330/2 353/331/2
f 351/329/2 349/327/2 354/332/2
f 354/332/2 349/327/2 355/333/2
f 354/332/2 355/333/2 356/334/2
f 354/332/2 356/334/2 357/335/2
f 354/332/2 357/335/2 358/336/2
f 354/332/2 358/336/2 359/337/2
f 354/332/2 359/337/2 360/338/2
f 361/339/2 354/332/2 360/338/2
f 354/332/2 361/339/2 362/340/2
f 362/340/2 361/339/2 363/341/2
f 362/340/2 363/341/2 364/342/2
f 364/342/2 363/341/2 365/343/2
f 351/329/2 354/332/2 366/344/2
s 1
f 367/345/45 368/346/11 369/347/11
f 368/346/11 367/345/45 370/348/45
f 371/349/40 372/350/11 373/351/41
f 372/350/11 371/349/40 374/352/40
f 375/353/5 376/354/42 377/355/42
f 376/354/42 375/353/5 378/356/5
s 0
f 379/357/2 380/358/2 248/232/2
f 381/359/2 380/358/2 379/357/2
f 381/359/2 382/360/2 380/358/2
f 382/360/2 381/359/2 383/361/2
f 379/357/2 248/232/2 249/233/2
f 249/233/2 250/234/2 384/362/2
f 384/362/2 250/234/2 385/363/2
f 385/363/2 250/234/2 386/364/2
f 386/364/2 250/234/2 387/365/2
f 387/365/2 250/234/2 388/366/2
f 388/366/2 250/234/2 389/367/2
f 250/234/2 390/368/2 389/367/2
f 390/368/2 250/234/2 391/369/2
s 1
f 392/370/46 393/371/13 394/372/13
f 393/371/13 392/370/46 395/373/46
f 396/374/25 397/375/26 398/376/13
f 397/375/26 396/374/25 399/377/25
s 0
f 390/368/2 391/369/2 400/378/2
f 390/368/2 400/378/2 401/379/2
f 401/379/2 400/378/2 402/380/2
f 403/381/2 404/382/2 405/383/2
f 404/382/2 403/381/2 406/384/2
f 113/99/6 407/385/6 111/97/6
f 407/385/6 113/99/6 408/386/6
