# Blender v3.0.1 OBJ File: ''
# www.blender.org
mtllib textured.mtl
o Plane
v -0.199651 -0.164673 0.003000
v -0.244673 -0.119651 0.003000
v -0.211550 -0.163107 0.003000
v -0.222314 -0.158648 0.003000
v -0.231556 -0.151556 0.003000
v -0.238648 -0.142314 0.003000
v -0.243107 -0.131550 0.003000
v -0.244673 0.119651 0.003000
v -0.199651 0.164673 0.003000
v -0.243107 0.131550 0.003000
v -0.238648 0.142314 0.003000
v -0.231556 0.151556 0.003000
v -0.222314 0.158648 0.003000
v -0.211550 0.163107 0.003000
v -0.250000 -0.120000 0.053000
v -0.200000 -0.170000 0.053000
v -0.248296 -0.132941 0.053000
v -0.243301 -0.145000 0.053000
v -0.235355 -0.155355 0.053000
v -0.225000 -0.163301 0.053000
v -0.212941 -0.168296 0.053000
v -0.200000 0.170000 0.053000
v -0.250000 0.120000 0.053000
v -0.212941 0.168296 0.053000
v -0.225000 0.163301 0.053000
v -0.235355 0.155355 0.053000
v -0.243301 0.145000 0.053000
v -0.248296 0.132941 0.053000
v -0.250000 0.051740 0.021316
v -0.250000 0.052500 0.025138
v -0.250000 0.049575 0.018076
v -0.250000 0.042514 0.040151
v -0.250000 -0.051740 0.021316
v -0.250000 -0.051740 0.033987
v -0.250000 -0.049575 0.018076
v -0.250000 -0.042514 0.040151
v -0.250000 -0.052500 0.025138
v -0.250000 -0.052500 0.030165
v -0.250000 0.046335 0.039391
v -0.250000 0.051740 0.033987
v -0.250000 0.049575 0.037226
v -0.250000 0.042514 0.015151
v -0.250000 0.052500 0.030165
v -0.250000 0.046335 0.015911
v -0.250000 -0.049575 0.037226
v -0.250000 -0.042514 0.015151
v -0.250000 -0.046335 0.039391
v -0.250000 -0.046335 0.015911
v 0.199651 -0.164673 0.003000
v 0.244673 -0.119651 0.003000
v 0.211550 -0.163107 0.003000
v 0.222314 -0.158648 0.003000
v 0.231556 -0.151556 0.003000
v 0.238648 -0.142314 0.003000
v 0.243107 -0.131550 0.003000
v 0.244673 0.119651 0.003000
v 0.199651 0.164673 0.003000
v 0.243107 0.131550 0.003000
v 0.238648 0.142314 0.003000
v 0.231556 0.151556 0.003000
v 0.222314 0.158648 0.003000
v 0.211550 0.163107 0.003000
v 0.250000 -0.120000 0.053000
v 0.200000 -0.170000 0.053000
v 0.248296 -0.132941 0.053000
v 0.243301 -0.145000 0.053000
v 0.235355 -0.155355 0.053000
v 0.225000 -0.163301 0.053000
v 0.212941 -0.168296 0.053000
v 0.200000 0.170000 0.053000
v 0.250000 0.120000 0.053000
v 0.212941 0.168296 0.053000
v 0.225000 0.163301 0.053000
v 0.235355 0.155355 0.053000
v 0.243301 0.145000 0.053000
v 0.248296 0.132941 0.053000
v 0.250000 0.051740 0.021316
v 0.250000 0.052500 0.025138
v 0.250000 0.049575 0.018076
v 0.250000 0.042514 0.040151
v 0.250000 -0.051740 0.021316
v 0.250000 -0.051740 0.033987
v 0.250000 -0.049575 0.018076
v 0.250000 -0.042514 0.040151
v 0.250000 -0.052500 0.025138
v 0.250000 -0.052500 0.030165
v 0.250000 0.046335 0.039391
v 0.250000 0.051740 0.033987
v 0.250000 0.049575 0.037226
v 0.250000 0.042514 0.015151
v 0.250000 0.052500 0.030165
v 0.250000 0.046335 0.015911
v 0.250000 -0.049575 0.037226
v 0.250000 -0.042514 0.015151
v 0.250000 -0.046335 0.039391
v 0.250000 -0.046335 0.015911
v -0.199672 -0.164992 0.007820
v -0.244998 -0.119672 0.007814
v -0.211629 -0.163398 0.007689
v -0.222464 -0.158909 0.007689
v -0.231769 -0.151769 0.007689
v -0.238909 -0.142464 0.007689
v -0.243398 -0.131628 0.007689
v -0.244998 0.119672 0.007814
v -0.199672 0.164992 0.007820
v -0.243398 0.131628 0.007689
v -0.238909 0.142464 0.007689
v -0.231769 0.151769 0.007689
v -0.222464 0.158909 0.007689
v -0.211629 0.163398 0.007689
v -0.245000 -0.119672 0.053000
v -0.199672 -0.165000 0.053000
v -0.243425 -0.131636 0.053000
v -0.238934 -0.142478 0.053000
v -0.231789 -0.151789 0.053000
v -0.222478 -0.158934 0.053000
v -0.211636 -0.163425 0.053000
v -0.199672 0.165000 0.053000
v -0.245000 0.119672 0.053000
v -0.211636 0.163425 0.053000
v -0.222478 0.158934 0.053000
v -0.231789 0.151789 0.053000
v -0.238934 0.142479 0.053000
v -0.243425 0.131636 0.053000
v -0.245000 0.051740 0.021316
v -0.245000 0.052500 0.025138
v -0.245000 0.049575 0.018076
v -0.245000 0.042514 0.040151
v -0.245000 -0.051740 0.021316
v -0.245000 -0.051740 0.033987
v -0.245000 -0.049575 0.018076
v -0.245000 -0.042514 0.040151
v -0.245000 -0.052500 0.025138
v -0.245000 -0.052500 0.030165
v -0.245000 0.046335 0.039391
v -0.245000 0.051740 0.033987
v -0.245000 0.049575 0.037226
v -0.245000 0.042514 0.015151
v -0.245000 0.052500 0.030165
v -0.245000 0.046335 0.015911
v -0.245000 -0.049575 0.037226
v -0.245000 -0.042514 0.015151
v -0.245000 -0.046335 0.039391
v -0.245000 -0.046335 0.015911
v 0.199672 -0.164992 0.007820
v 0.244998 -0.119672 0.007814
v 0.211629 -0.163398 0.007689
v 0.222464 -0.158909 0.007689
v 0.231769 -0.151769 0.007689
v 0.238909 -0.142464 0.007689
v 0.243398 -0.131628 0.007689
v 0.244998 0.119672 0.007814
v 0.199672 0.164992 0.007820
v 0.243398 0.131628 0.007689
v 0.238909 0.142464 0.007689
v 0.231769 0.151769 0.007689
v 0.222464 0.158909 0.007689
v 0.211629 0.163398 0.007689
v 0.245000 -0.119672 0.053000
v 0.199672 -0.165000 0.053000
v 0.243425 -0.131636 0.053000
v 0.238934 -0.142478 0.053000
v 0.231789 -0.151789 0.053000
v 0.222478 -0.158934 0.053000
v 0.211636 -0.163425 0.053000
v 0.199672 0.165000 0.053000
v 0.245000 0.119672 0.053000
v 0.211636 0.163425 0.053000
v 0.222478 0.158934 0.053000
v 0.231789 0.151789 0.053000
v 0.238934 0.142479 0.053000
v 0.243425 0.131636 0.053000
v 0.245000 0.051740 0.021316
v 0.245000 0.052500 0.025138
v 0.245000 0.049575 0.018076
v 0.245000 0.042514 0.040151
v 0.245000 -0.051740 0.021316
v 0.245000 -0.051740 0.033987
v 0.245000 -0.049575 0.018076
v 0.245000 -0.042514 0.040151
v 0.245000 -0.052500 0.025138
v 0.245000 -0.052500 0.030165
v 0.245000 0.046335 0.039391
v 0.245000 0.051740 0.033987
v 0.245000 0.049575 0.037226
v 0.245000 0.042514 0.015151
v 0.245000 0.052500 0.030165
v 0.245000 0.046335 0.015911
v 0.245000 -0.049575 0.037226
v 0.245000 -0.042514 0.015151
v 0.245000 -0.046335 0.039391
v 0.245000 -0.046335 0.015911
v -0.212941 -0.168296 0.003000
v -0.200000 -0.170000 0.003000
v -0.225000 -0.163301 0.003000
v -0.235355 -0.155355 0.003000
v -0.243301 -0.145000 0.003000
v -0.248296 -0.132941 0.003000
v -0.250000 -0.120000 0.003000
v -0.200000 0.170000 0.003000
v -0.212941 0.168296 0.003000
v -0.225000 0.163301 0.003000
v -0.235355 0.155355 0.003000
v -0.243301 0.145000 0.003000
v -0.248296 0.132941 0.003000
v -0.250000 0.120000 0.003000
v 0.212941 -0.168296 0.003000
v 0.200000 -0.170000 0.003000
v 0.225000 -0.163301 0.003000
v 0.235355 -0.155355 0.003000
v 0.243301 -0.145000 0.003000
v 0.248296 -0.132941 0.003000
v 0.250000 -0.120000 0.003000
v 0.200000 0.170000 0.003000
v 0.212941 0.168296 0.003000
v 0.225000 0.163301 0.003000
v 0.235355 0.155355 0.003000
v 0.243301 0.145000 0.003000
v 0.248296 0.132941 0.003000
v 0.250000 0.120000 0.003000
v -0.212275 -0.165810 0.003000
v -0.199833 -0.167448 0.003000
v -0.223713 -0.161072 0.003000
v -0.233535 -0.153535 0.003000
v -0.241072 -0.143713 0.003000
v -0.245810 -0.132275 0.003000
v -0.247448 -0.119833 0.003000
v -0.199833 0.167448 0.003000
v -0.212275 0.165810 0.003000
v -0.223713 0.161072 0.003000
v -0.233535 0.153535 0.003000
v -0.241072 0.143713 0.003000
v -0.245810 0.132275 0.003000
v -0.247448 0.119833 0.003000
v 0.212275 -0.165810 0.003000
v 0.199833 -0.167448 0.003000
v 0.223713 -0.161072 0.003000
v 0.233535 -0.153535 0.003000
v 0.241072 -0.143713 0.003000
v 0.245810 -0.132275 0.003000
v 0.247448 -0.119833 0.003000
v 0.199833 0.167448 0.003000
v 0.212275 0.165810 0.003000
v 0.223713 0.161072 0.003000
v 0.233535 0.153535 0.003000
v 0.241072 0.143713 0.003000
v 0.245810 0.132275 0.003000
v 0.247448 0.119833 0.003000
v -0.212275 -0.165810 0.000000
v -0.199833 -0.167448 0.000000
v -0.223713 -0.161072 0.000000
v -0.233535 -0.153535 0.000000
v -0.241072 -0.143713 0.000000
v -0.245810 -0.132275 0.000000
v -0.247448 -0.119833 0.000000
v -0.199833 0.167448 -0.000000
v -0.212275 0.165810 -0.000000
v -0.223713 0.161072 -0.000000
v -0.233535 0.153535 -0.000000
v -0.241072 0.143713 -0.000000
v -0.245810 0.132275 -0.000000
v -0.247448 0.119833 -0.000000
v 0.212275 -0.165810 0.000000
v 0.199833 -0.167448 0.000000
v 0.223713 -0.161072 0.000000
v 0.233535 -0.153535 0.000000
v 0.241072 -0.143713 0.000000
v 0.245810 -0.132275 0.000000
v 0.247448 -0.119833 0.000000
v 0.199833 0.167448 -0.000000
v 0.212275 0.165810 -0.000000
v 0.223713 0.161072 -0.000000
v 0.233535 0.153535 -0.000000
v 0.241072 0.143713 -0.000000
v 0.245810 0.132275 -0.000000
v 0.247448 0.119833 -0.000000
v -0.211550 -0.163107 0.000000
v -0.199651 -0.164673 0.000000
v -0.222314 -0.158648 0.000000
v -0.231556 -0.151556 0.000000
v -0.238648 -0.142314 0.000000
v -0.243107 -0.131550 0.000000
v -0.244673 -0.119651 0.000000
v -0.199651 0.164673 -0.000000
v -0.211550 0.163107 -0.000000
v -0.222314 0.158648 -0.000000
v -0.231556 0.151556 -0.000000
v -0.238648 0.142314 -0.000000
v -0.243107 0.131550 -0.000000
v -0.244673 0.119651 -0.000000
v 0.211550 -0.163107 0.000000
v 0.199651 -0.164673 0.000000
v 0.222314 -0.158648 0.000000
v 0.231556 -0.151556 0.000000
v 0.238648 -0.142314 0.000000
v 0.243107 -0.131550 0.000000
v 0.244673 -0.119651 0.000000
v 0.199651 0.164673 -0.000000
v 0.211550 0.163107 -0.000000
v 0.222314 0.158648 -0.000000
v 0.231556 0.151556 -0.000000
v 0.238648 0.142314 -0.000000
v 0.243107 0.131550 -0.000000
v 0.244673 0.119651 -0.000000
vt 0.783656 0.421389
vt 0.835865 0.421389
vt 0.835865 0.433272
vt 0.783657 0.433272
vt 0.835866 0.444346
vt 0.783657 0.444346
vt 0.835867 0.453855
vt 0.783658 0.453855
vt 0.835865 0.775052
vt 0.783656 0.775052
vt 0.783657 0.765543
vt 0.835866 0.765543
vt 0.783657 0.754469
vt 0.835866 0.754469
vt 0.783657 0.742586
vt 0.835866 0.742586
vt 0.893297 0.054078
vt 0.841088 0.054078
vt 0.841088 0.042195
vt 0.893297 0.042195
vt 0.841088 0.031121
vt 0.893297 0.031121
vt 0.841089 0.021612
vt 0.893298 0.021612
vt 0.783656 0.489733
vt 0.835865 0.489733
vt 0.835866 0.499242
vt 0.783657 0.499242
vt 0.835866 0.510316
vt 0.783657 0.510316
vt 0.835866 0.522199
vt 0.783657 0.522199
vt 0.823178 0.671432
vt 0.823178 0.593353
vt 0.820124 0.586869
vt 0.822384 0.589844
vt 0.822384 0.674941
vt 0.820124 0.677916
vt 0.812751 0.680602
vt 0.816741 0.679904
vt 0.807501 0.680602
vt 0.816741 0.584881
vt 0.812751 0.584183
vt 0.807501 0.584183
vt 0.803511 0.584881
vt 0.800128 0.586869
vt 0.803511 0.679904
vt 0.800128 0.677916
vt 0.797867 0.674941
vt 0.797074 0.671432
vt 0.797867 0.589844
vt 0.797074 0.593353
vt 0.893297 0.421389
vt 0.841088 0.421389
vt 0.783656 0.054078
vt 0.783657 0.042195
vt 0.835865 0.042195
vt 0.835865 0.054078
vt 0.783657 0.031121
vt 0.835866 0.031121
vt 0.783658 0.021612
vt 0.835867 0.021612
vt 0.841089 0.775052
vt 0.841088 0.765543
vt 0.893297 0.765543
vt 0.893298 0.775052
vt 0.841088 0.754469
vt 0.893297 0.754469
vt 0.841088 0.742586
vt 0.893297 0.742586
vt 0.893297 0.433272
vt 0.841088 0.433272
vt 0.893297 0.444346
vt 0.841088 0.444346
vt 0.893298 0.453855
vt 0.841089 0.453855
vt 0.893298 0.489733
vt 0.893297 0.499242
vt 0.841088 0.499242
vt 0.841089 0.489733
vt 0.893297 0.510316
vt 0.841088 0.510316
vt 0.893297 0.522199
vt 0.841088 0.522199
vt 0.853776 0.593353
vt 0.853776 0.671432
vt 0.856830 0.586869
vt 0.854570 0.589844
vt 0.854570 0.674941
vt 0.856830 0.677916
vt 0.860213 0.679904
vt 0.864203 0.680602
vt 0.869453 0.680602
vt 0.860213 0.584881
vt 0.864203 0.584183
vt 0.869453 0.584183
vt 0.873443 0.584881
vt 0.876826 0.586869
vt 0.873443 0.679904
vt 0.876826 0.677916
vt 0.879086 0.674941
vt 0.879880 0.671432
vt 0.879086 0.589844
vt 0.879880 0.593353
vt 0.757733 0.435861
vt 0.756097 0.446788
vt 0.751442 0.456672
vt 0.744036 0.465159
vt 0.734385 0.471672
vt 0.723146 0.475766
vt 0.710721 0.477204
vt 0.460847 0.477204
vt 0.448422 0.475766
vt 0.437183 0.471672
vt 0.427533 0.465159
vt 0.420127 0.456672
vt 0.415472 0.446788
vt 0.413836 0.435861
vt 0.413836 0.069191
vt 0.415472 0.058264
vt 0.420127 0.048381
vt 0.427533 0.039893
vt 0.437183 0.033381
vt 0.448422 0.029287
vt 0.460847 0.027848
vt 0.710721 0.027848
vt 0.723147 0.029287
vt 0.734385 0.033381
vt 0.744036 0.039893
vt 0.751442 0.048381
vt 0.756097 0.058264
vt 0.757733 0.069191
vt 0.945451 0.417486
vt 0.945587 0.428465
vt 0.898274 0.428472
vt 0.898274 0.417486
vt 0.945588 0.438416
vt 0.898275 0.438428
vt 0.945589 0.446960
vt 0.898275 0.446978
vt 0.381385 0.797742
vt 0.381385 0.789198
vt 0.428698 0.789211
vt 0.428698 0.797760
vt 0.381385 0.779247
vt 0.428699 0.779254
vt 0.381516 0.768268
vt 0.428699 0.768268
vt 0.950320 0.050777
vt 0.950320 0.039791
vt 0.997633 0.039798
vt 0.997496 0.050777
vt 0.950320 0.029835
vt 0.997634 0.029847
vt 0.950321 0.021285
vt 0.997634 0.021303
vt 0.428698 0.518991
vt 0.428698 0.527541
vt 0.381385 0.527554
vt 0.381385 0.519009
vt 0.428699 0.537498
vt 0.381385 0.537504
vt 0.428699 0.548483
vt 0.381516 0.548483
vt 0.389178 0.619336
vt 0.389178 0.697415
vt 0.392232 0.612852
vt 0.389971 0.615827
vt 0.389971 0.700924
vt 0.392232 0.703899
vt 0.395615 0.705887
vt 0.399605 0.706585
vt 0.404855 0.706585
vt 0.395615 0.610864
vt 0.399605 0.610166
vt 0.404855 0.610166
vt 0.408845 0.610864
vt 0.412228 0.612852
vt 0.408845 0.705887
vt 0.412228 0.703899
vt 0.414488 0.700924
vt 0.415282 0.697415
vt 0.414488 0.615827
vt 0.415282 0.619336
vt 0.997496 0.417486
vt 0.950320 0.417486
vt 0.017228 0.935880
vt 0.017228 0.569172
vt 0.018893 0.558193
vt 0.023580 0.548242
vt 0.031035 0.539698
vt 0.040751 0.533141
vt 0.052066 0.529020
vt 0.064550 0.527550
vt 0.314469 0.527550
vt 0.326953 0.529020
vt 0.338268 0.533141
vt 0.347984 0.539698
vt 0.355439 0.548242
vt 0.360126 0.558193
vt 0.361791 0.569172
vt 0.361791 0.935880
vt 0.360126 0.946860
vt 0.355439 0.956810
vt 0.347984 0.965355
vt 0.338268 0.971911
vt 0.326953 0.976033
vt 0.314469 0.977502
vt 0.064550 0.977502
vt 0.052066 0.976033
vt 0.040751 0.971911
vt 0.031035 0.965355
vt 0.023580 0.956810
vt 0.018893 0.946860
vt 0.945451 0.050777
vt 0.898274 0.050777
vt 0.898274 0.039791
vt 0.945587 0.039798
vt 0.898275 0.029835
vt 0.945588 0.029847
vt 0.898275 0.021285
vt 0.945588 0.021303
vt 0.433430 0.519009
vt 0.480743 0.518991
vt 0.480744 0.527541
vt 0.433431 0.527554
vt 0.480744 0.537498
vt 0.433431 0.537504
vt 0.480744 0.548483
vt 0.433562 0.548483
vt 0.997633 0.428465
vt 0.950320 0.428472
vt 0.997634 0.438416
vt 0.950321 0.438428
vt 0.997634 0.446960
vt 0.950321 0.446978
vt 0.480743 0.797760
vt 0.433430 0.797742
vt 0.433431 0.789198
vt 0.480744 0.789211
vt 0.433431 0.779247
vt 0.480744 0.779254
vt 0.433562 0.768268
vt 0.480744 0.768268
vt 0.441223 0.619336
vt 0.441223 0.697415
vt 0.444277 0.703899
vt 0.442017 0.700924
vt 0.442017 0.615827
vt 0.444277 0.612852
vt 0.451651 0.610166
vt 0.447660 0.610864
vt 0.456900 0.610166
vt 0.447660 0.705887
vt 0.451651 0.706585
vt 0.456900 0.706585
vt 0.460890 0.705887
vt 0.464273 0.703899
vt 0.460890 0.610864
vt 0.464273 0.612852
vt 0.466534 0.615827
vt 0.467328 0.619336
vt 0.466534 0.700924
vt 0.467328 0.697415
vt 0.019530 0.448065
vt 0.017751 0.436182
vt 0.022972 0.435881
vt 0.024617 0.446867
vt 0.024746 0.459139
vt 0.029306 0.456823
vt 0.033043 0.468648
vt 0.036766 0.465373
vt 0.043856 0.475944
vt 0.046489 0.471934
vt 0.056447 0.480531
vt 0.057810 0.476058
vt 0.069960 0.482096
vt 0.070302 0.477504
vt 0.372772 0.436182
vt 0.370993 0.448065
vt 0.365906 0.446867
vt 0.367551 0.435881
vt 0.365777 0.459139
vt 0.361217 0.456823
vt 0.357480 0.468648
vt 0.353757 0.465373
vt 0.346667 0.475944
vt 0.344035 0.471934
vt 0.334076 0.480531
vt 0.332713 0.476058
vt 0.320563 0.482096
vt 0.320221 0.477504
vt 0.613029 0.517033
vt 0.613029 0.520542
vt 0.607808 0.520542
vt 0.607808 0.517033
vt 0.557268 0.600652
vt 0.557268 0.597677
vt 0.562489 0.597677
vt 0.562489 0.600652
vt 0.563011 0.594168
vt 0.563011 0.516089
vt 0.568232 0.516089
vt 0.568232 0.594168
vt 0.613551 0.523517
vt 0.613551 0.520542
vt 0.618772 0.520542
vt 0.618772 0.523517
vt 0.613551 0.508907
vt 0.613551 0.505932
vt 0.618772 0.505932
vt 0.618772 0.508907
vt 0.613551 0.512416
vt 0.618772 0.512416
vt 0.557268 0.512580
vt 0.557268 0.509605
vt 0.562489 0.509605
vt 0.562489 0.512580
vt 0.613551 0.517033
vt 0.618772 0.517033
vt 0.563011 0.512580
vt 0.568232 0.512580
vt 0.613029 0.505932
vt 0.613029 0.508907
vt 0.607808 0.508907
vt 0.607808 0.505932
vt 0.613029 0.523517
vt 0.607808 0.523517
vt 0.563011 0.509605
vt 0.568232 0.509605
vt 0.557268 0.594168
vt 0.562489 0.594168
vt 0.613029 0.512416
vt 0.607808 0.512416
vt 0.563011 0.600652
vt 0.563011 0.597677
vt 0.568232 0.597677
vt 0.568232 0.600652
vt 0.557268 0.516089
vt 0.562489 0.516089
vt 0.017751 0.068871
vt 0.019530 0.056987
vt 0.024617 0.058186
vt 0.022972 0.069172
vt 0.024746 0.045914
vt 0.029306 0.048229
vt 0.033043 0.036405
vt 0.036766 0.039679
vt 0.043856 0.029108
vt 0.046488 0.033119
vt 0.056447 0.024521
vt 0.057810 0.028995
vt 0.069960 0.022957
vt 0.070302 0.027548
vt 0.370993 0.056987
vt 0.372772 0.068871
vt 0.367551 0.069172
vt 0.365906 0.058186
vt 0.365777 0.045914
vt 0.361217 0.048229
vt 0.357480 0.036405
vt 0.353757 0.039679
vt 0.346667 0.029108
vt 0.344034 0.033119
vt 0.334076 0.024521
vt 0.332713 0.028995
vt 0.320563 0.022957
vt 0.320221 0.027548
vt 0.607808 0.539885
vt 0.607808 0.536376
vt 0.613029 0.536376
vt 0.613029 0.539885
vt 0.573975 0.597677
vt 0.573975 0.600652
vt 0.568754 0.600652
vt 0.568754 0.597677
vt 0.579718 0.516089
vt 0.579718 0.594168
vt 0.574497 0.594168
vt 0.574497 0.516089
vt 0.618772 0.539885
vt 0.618772 0.542861
vt 0.613551 0.542861
vt 0.613551 0.539885
vt 0.618772 0.525276
vt 0.618772 0.528250
vt 0.613551 0.528250
vt 0.613551 0.525276
vt 0.618772 0.531760
vt 0.613551 0.531760
vt 0.573975 0.509605
vt 0.573975 0.512580
vt 0.568754 0.512580
vt 0.568754 0.509605
vt 0.618772 0.536376
vt 0.613551 0.536376
vt 0.579718 0.512580
vt 0.574497 0.512580
vt 0.607808 0.528250
vt 0.607808 0.525276
vt 0.613029 0.525276
vt 0.613029 0.528250
vt 0.607808 0.542861
vt 0.613029 0.542861
vt 0.579718 0.509605
vt 0.574497 0.509605
vt 0.573975 0.594168
vt 0.568754 0.594168
vt 0.607808 0.531760
vt 0.613029 0.531760
vt 0.579718 0.597677
vt 0.579718 0.600652
vt 0.574497 0.600652
vt 0.574497 0.597677
vt 0.573975 0.516089
vt 0.568754 0.516089
vt 0.758920 0.447453
vt 0.760630 0.436028
vt 0.763295 0.436182
vt 0.761516 0.448065
vt 0.753973 0.457957
vt 0.756300 0.459139
vt 0.746103 0.466976
vt 0.748003 0.468648
vt 0.735847 0.473897
vt 0.737190 0.475944
vt 0.723903 0.478248
vt 0.724599 0.480531
vt 0.710911 0.479752
vt 0.711086 0.482096
vt 0.410939 0.436028
vt 0.412649 0.447453
vt 0.410053 0.448065
vt 0.408274 0.436182
vt 0.417596 0.457957
vt 0.415269 0.459139
vt 0.425466 0.466976
vt 0.423566 0.468648
vt 0.435722 0.473897
vt 0.434378 0.475944
vt 0.447666 0.478248
vt 0.446970 0.480531
vt 0.460658 0.479752
vt 0.460483 0.482096
vt 0.760630 0.069024
vt 0.758920 0.057599
vt 0.761516 0.056987
vt 0.763295 0.068871
vt 0.753973 0.047096
vt 0.756300 0.045914
vt 0.746103 0.038076
vt 0.748003 0.036405
vt 0.735847 0.031155
vt 0.737190 0.029108
vt 0.723903 0.026804
vt 0.724599 0.024521
vt 0.710911 0.025300
vt 0.711086 0.022957
vt 0.412649 0.057599
vt 0.410939 0.069024
vt 0.408274 0.068871
vt 0.410053 0.056987
vt 0.417596 0.047096
vt 0.415269 0.045914
vt 0.425466 0.038076
vt 0.423566 0.036405
vt 0.435722 0.031155
vt 0.434378 0.029108
vt 0.447666 0.026804
vt 0.446970 0.024521
vt 0.460658 0.025300
vt 0.460483 0.022957
vt 0.632974 0.524888
vt 0.632974 0.515005
vt 0.636107 0.515005
vt 0.636107 0.524888
vt 0.590161 0.506600
vt 0.590160 0.518025
vt 0.587028 0.518025
vt 0.587028 0.506600
vt 0.632975 0.506518
vt 0.636107 0.506517
vt 0.589655 0.541988
vt 0.586757 0.541988
vt 0.586757 0.539234
vt 0.589655 0.539234
vt 0.626082 0.535815
vt 0.626082 0.527328
vt 0.629215 0.527328
vt 0.629215 0.535816
vt 0.597053 0.526123
vt 0.597053 0.537548
vt 0.593920 0.537548
vt 0.593920 0.526123
vt 0.626082 0.517445
vt 0.629215 0.517445
vt 0.597053 0.515620
vt 0.593920 0.515620
vt 0.626082 0.506517
vt 0.629215 0.506518
vt 0.597053 0.506600
vt 0.593920 0.506600
vt 0.636420 0.517445
vt 0.636421 0.506517
vt 0.639553 0.506518
vt 0.639553 0.517445
vt 0.593606 0.528529
vt 0.593607 0.537548
vt 0.590474 0.537548
vt 0.590474 0.528529
vt 0.636420 0.527328
vt 0.639553 0.527328
vt 0.593606 0.518025
vt 0.590474 0.518025
vt 0.636421 0.535815
vt 0.639553 0.535816
vt 0.603957 0.541988
vt 0.601059 0.541988
vt 0.601059 0.539234
vt 0.603957 0.539234
vt 0.593607 0.506600
vt 0.590474 0.506600
vt 0.622636 0.515005
vt 0.622636 0.506518
vt 0.625769 0.506517
vt 0.625769 0.515005
vt 0.593360 0.541988
vt 0.590462 0.541988
vt 0.590462 0.539234
vt 0.593360 0.539234
vt 0.600499 0.506600
vt 0.600499 0.518025
vt 0.597366 0.518025
vt 0.597366 0.506600
vt 0.622636 0.524889
vt 0.625769 0.524888
vt 0.600499 0.528529
vt 0.597366 0.528529
vt 0.622636 0.535816
vt 0.625769 0.535815
vt 0.600499 0.537548
vt 0.597366 0.537548
vt 0.548538 0.559552
vt 0.556167 0.568296
vt 0.553984 0.569980
vt 0.546007 0.560837
vt 0.543883 0.549668
vt 0.541060 0.550334
vt 0.542295 0.539062
vt 0.539372 0.539062
vt 0.543883 0.528456
vt 0.541060 0.527790
vt 0.548538 0.518572
vt 0.546007 0.517287
vt 0.556167 0.509828
vt 0.553984 0.508144
vt 0.519219 0.509828
vt 0.511589 0.518572
vt 0.509058 0.517287
vt 0.517035 0.508144
vt 0.506934 0.528455
vt 0.504111 0.527790
vt 0.505346 0.539062
vt 0.502424 0.539062
vt 0.506934 0.549668
vt 0.504111 0.550334
vt 0.511589 0.559552
vt 0.509058 0.560837
vt 0.519219 0.568296
vt 0.517035 0.569980
vt 0.500744 0.509828
vt 0.493115 0.518572
vt 0.490584 0.517287
vt 0.498561 0.508144
vt 0.488460 0.528455
vt 0.485637 0.527790
vt 0.486872 0.539062
vt 0.483949 0.539062
vt 0.488460 0.549668
vt 0.485637 0.550334
vt 0.493115 0.559552
vt 0.490584 0.560837
vt 0.500744 0.568296
vt 0.498561 0.569980
vt 0.530064 0.559552
vt 0.537693 0.568296
vt 0.535510 0.569980
vt 0.527533 0.560837
vt 0.525408 0.549668
vt 0.522585 0.550334
vt 0.523821 0.539062
vt 0.520898 0.539062
vt 0.525408 0.528456
vt 0.522585 0.527790
vt 0.530064 0.518572
vt 0.527533 0.517287
vt 0.537693 0.509828
vt 0.535510 0.508144
vt 0.590160 0.528529
vt 0.587028 0.528529
vt 0.583021 0.541988
vt 0.580124 0.541988
vt 0.580124 0.539234
vt 0.583021 0.539234
vt 0.632975 0.535816
vt 0.636107 0.535815
vt 0.590161 0.537548
vt 0.587028 0.537548
vt 0.603945 0.506600
vt 0.603945 0.515620
vt 0.600812 0.515620
vt 0.600812 0.506600
vt 0.619190 0.517445
vt 0.619190 0.506517
vt 0.622323 0.506518
vt 0.622322 0.517445
vt 0.603945 0.526123
vt 0.600812 0.526123
vt 0.619190 0.527328
vt 0.622322 0.527328
vt 0.603945 0.537548
vt 0.600812 0.537548
vt 0.619190 0.535815
vt 0.622323 0.535816
vt 0.583268 0.526123
vt 0.583268 0.537548
vt 0.580136 0.537548
vt 0.580136 0.526123
vt 0.583570 0.539234
vt 0.586468 0.539234
vt 0.586468 0.541988
vt 0.583570 0.541988
vt 0.597065 0.541988
vt 0.594167 0.541988
vt 0.594167 0.539234
vt 0.597065 0.539234
vt 0.646445 0.527328
vt 0.646445 0.535815
vt 0.643312 0.535816
vt 0.643313 0.527328
vt 0.583268 0.515620
vt 0.580136 0.515620
vt 0.646445 0.517445
vt 0.643313 0.517445
vt 0.583268 0.506600
vt 0.580136 0.506600
vt 0.646445 0.506517
vt 0.643312 0.506518
vt 0.607391 0.528529
vt 0.607391 0.537548
vt 0.604258 0.537548
vt 0.604258 0.528529
vt 0.629529 0.535816
vt 0.629528 0.524889
vt 0.632661 0.524888
vt 0.632661 0.535815
vt 0.607391 0.518025
vt 0.604258 0.518025
vt 0.629528 0.515005
vt 0.632661 0.515005
vt 0.607391 0.506600
vt 0.604258 0.506600
vt 0.597354 0.539234
vt 0.600252 0.539234
vt 0.600252 0.541988
vt 0.597354 0.541988
vt 0.629529 0.506518
vt 0.632661 0.506517
vt 0.607144 0.541988
vt 0.604246 0.541988
vt 0.604246 0.539234
vt 0.607144 0.539234
vt 0.642999 0.506518
vt 0.642999 0.515005
vt 0.639867 0.515005
vt 0.639866 0.506517
vt 0.586714 0.526123
vt 0.586715 0.537548
vt 0.583582 0.537548
vt 0.583582 0.526123
vt 0.642999 0.524888
vt 0.639867 0.524888
vt 0.586714 0.515620
vt 0.583582 0.515620
vt 0.642999 0.535816
vt 0.639866 0.535815
vt 0.586715 0.506600
vt 0.583582 0.506600
vn -0.0654 -0.9979 0.0000
vn -0.2588 -0.9659 0.0000
vn -0.5000 -0.8660 0.0000
vn -0.7071 -0.7071 0.0000
vn -0.8660 -0.5000 0.0000
vn -0.9659 -0.2588 0.0000
vn -0.9979 -0.0654 -0.0000
vn -0.0654 0.9979 -0.0000
vn -0.2588 0.9659 -0.0000
vn -0.5000 0.8660 -0.0000
vn -0.7071 0.7071 -0.0000
vn -0.8660 0.5000 -0.0000
vn -0.9659 0.2588 -0.0000
vn -0.9979 0.0654 0.0000
vn -1.0000 0.0000 0.0000
vn 0.0654 0.9979 -0.0000
vn 0.0654 -0.9979 0.0000
vn 0.2588 -0.9659 0.0000
vn 0.5000 -0.8660 0.0000
vn 0.7071 -0.7071 0.0000
vn 0.8660 -0.5000 0.0000
vn 0.9659 -0.2588 0.0000
vn 0.9979 -0.0654 0.0000
vn 0.2588 0.9659 -0.0000
vn 0.5000 0.8660 -0.0000
vn 0.7071 0.7071 -0.0000
vn 0.8660 0.5000 -0.0000
vn 0.9659 0.2588 -0.0000
vn 0.9979 0.0654 -0.0000
vn 1.0000 -0.0000 0.0000
vn 0.0000 -0.0000 -1.0000
vn 0.0660 0.9978 0.0003
vn 0.2597 0.9657 0.0005
vn 0.2592 0.9658 0.0005
vn 0.0658 0.9978 0.0003
vn 0.5000 0.8660 0.0006
vn 0.7071 0.7071 0.0006
vn 0.8660 0.5000 0.0006
vn 0.9657 0.2598 0.0005
vn 0.9658 0.2593 0.0005
vn 0.9978 0.0662 0.0002
vn 0.9978 0.0659 0.0002
vn 0.0658 -0.9978 0.0003
vn 0.2592 -0.9658 0.0005
vn 0.2597 -0.9657 0.0005
vn 0.0660 -0.9978 0.0003
vn 0.5000 -0.8660 0.0006
vn 0.7071 -0.7071 0.0006
vn 0.8660 -0.5000 0.0006
vn 0.9658 -0.2593 0.0005
vn 0.9657 -0.2598 0.0005
vn 0.9978 -0.0659 0.0002
vn 0.9978 -0.0662 0.0002
vn 1.0000 -0.0000 0.0003
vn 1.0000 -0.0000 0.0001
vn -0.0660 -0.9978 0.0003
vn -0.0658 -0.9978 0.0003
vn 0.0000 0.0000 1.0000
vn -0.0660 0.9978 0.0003
vn -0.0658 0.9978 0.0003
vn -0.2592 0.9658 0.0005
vn -0.2597 0.9657 0.0005
vn -0.5000 0.8660 0.0006
vn -0.7071 0.7071 0.0006
vn -0.8660 0.5000 0.0006
vn -0.9658 0.2593 0.0005
vn -0.9657 0.2598 0.0005
vn -0.9978 0.0659 0.0002
vn -0.9978 0.0662 0.0002
vn -0.2597 -0.9657 0.0005
vn -0.2592 -0.9658 0.0005
vn -0.5000 -0.8660 0.0006
vn -0.7071 -0.7071 0.0006
vn -0.8660 -0.5000 0.0006
vn -0.9657 -0.2598 0.0005
vn -0.9658 -0.2593 0.0005
vn -0.9978 -0.0662 0.0002
vn -0.9978 -0.0659 0.0002
vn -1.0000 0.0000 0.0003
vn -1.0000 -0.0000 0.0001
vn 0.0000 -0.9952 0.0980
vn 0.0000 -0.9239 0.3827
vn 0.0000 -0.7071 0.7071
vn 0.0000 -0.3827 0.9239
vn 0.0000 0.0980 -0.9952
vn 0.0000 -0.0980 -0.9952
vn 0.0000 0.7071 0.7071
vn 0.0000 0.9239 0.3827
vn 0.0000 0.9239 -0.3827
vn 0.0000 0.7071 -0.7071
vn 0.0000 0.9952 -0.0980
vn 0.0000 0.3827 0.9239
vn 0.0000 0.9952 0.0980
vn 0.0000 -0.3827 -0.9239
vn 0.0000 -0.7071 -0.7071
vn 0.0000 -0.9239 -0.3827
vn 0.0000 -0.0980 0.9952
vn 0.0000 -0.9952 -0.0980
vn 0.0000 0.3827 -0.9239
vn 0.0000 0.0980 0.9952
vn -0.1305 -0.9914 0.0000
vn 0.9914 0.1305 0.0000
vn -0.9914 0.1305 0.0000
vn 0.1305 0.9914 0.0000
vn 0.9914 -0.1305 0.0000
vn -0.1305 0.9914 0.0000
vn -0.9914 -0.1305 0.0000
vn 0.1305 -0.9914 0.0000
usemtl Material
s 1
f 194/1/1 16/2/1 21/3/2 193/4/2
f 193/4/2 21/3/2 20/5/3 195/6/3
f 195/6/3 20/5/3 19/7/4 196/8/4
f 196/9/4 19/10/4 18/11/5 197/12/5
f 197/12/5 18/11/5 17/13/6 198/14/6
f 198/14/6 17/13/6 15/15/7 199/16/7
f 22/17/8 200/18/8 201/19/9 24/20/9
f 24/20/9 201/19/9 202/21/10 25/22/10
f 25/22/10 202/21/10 203/23/11 26/24/11
f 26/25/11 203/26/11 204/27/12 27/28/12
f 27/28/12 204/27/12 205/29/13 28/30/13
f 28/30/13 205/29/13 206/31/14 23/32/14
f 206/31/14 199/16/7 46/33/15 42/34/15
f 31/35/15 206/31/14 42/34/15 44/36/15
f 48/37/15 46/33/15 199/16/7 35/38/15
f 35/38/15 199/16/7 37/39/15 33/40/15
f 199/16/7 15/15/7 38/41/15 37/39/15
f 29/42/15 30/43/15 206/31/14 31/35/15
f 206/31/14 30/43/15 43/44/15 23/32/14
f 40/45/15 41/46/15 23/32/14 43/44/15
f 34/47/15 38/41/15 15/15/7 45/48/15
f 47/49/15 45/48/15 15/15/7 36/50/15
f 39/51/15 32/52/15 23/32/14 41/46/15
f 15/15/7 23/32/14 32/52/15 36/50/15
f 200/18/8 22/17/8 70/53/16 214/54/16
f 208/55/17 207/56/18 69/57/18 64/58/17
f 207/56/18 209/59/19 68/60/19 69/57/18
f 209/59/19 210/61/20 67/62/20 68/60/19
f 210/63/20 211/64/21 66/65/21 67/66/20
f 211/64/21 212/67/22 65/68/22 66/65/21
f 212/67/22 213/69/23 63/70/23 65/68/22
f 70/53/16 72/71/24 215/72/24 214/54/16
f 72/71/24 73/73/25 216/74/25 215/72/24
f 73/73/25 74/75/26 217/76/26 216/74/25
f 74/77/26 75/78/27 218/79/27 217/80/26
f 75/78/27 76/81/28 219/82/28 218/79/27
f 76/81/28 71/83/29 220/84/29 219/82/28
f 220/84/29 90/85/30 94/86/30 213/69/23
f 79/87/30 92/88/30 90/85/30 220/84/29
f 208/55/17 64/58/17 16/2/1 194/1/1
f 96/89/30 83/90/30 213/69/23 94/86/30
f 83/90/30 81/91/30 85/92/30 213/69/23
f 213/69/23 85/92/30 86/93/30 63/70/23
f 77/94/30 79/87/30 220/84/29 78/95/30
f 220/84/29 71/83/29 91/96/30 78/95/30
f 88/97/30 91/96/30 71/83/29 89/98/30
f 82/99/30 93/100/30 63/70/23 86/93/30
f 95/101/30 84/102/30 63/70/23 93/100/30
f 87/103/30 89/98/30 71/83/29 80/104/30
f 63/70/23 84/102/30 80/104/30 71/83/29
f 1/105/31 3/106/31 4/107/31 5/108/31 6/109/31 7/110/31 2/111/31 8/112/31 10/113/31 11/114/31 12/115/31 13/116/31 14/117/31 9/118/31 57/119/31 62/120/31 61/121/31 60/122/31 59/123/31 58/124/31 56/125/31 50/126/31 55/127/31 54/128/31 53/129/31 52/130/31 51/131/31 49/132/31
f 97/133/32 99/134/33 117/135/34 112/136/35
f 99/134/33 100/137/36 116/138/36 117/135/34
f 100/137/36 101/139/37 115/140/37 116/138/36
f 101/141/37 102/142/38 114/143/38 115/144/37
f 102/142/38 103/145/39 113/146/40 114/143/38
f 103/145/39 98/147/41 111/148/42 113/146/40
f 118/149/43 120/150/44 110/151/45 105/152/46
f 120/150/44 121/153/47 109/154/47 110/151/45
f 121/153/47 122/155/48 108/156/48 109/154/47
f 122/157/48 123/158/49 107/159/49 108/160/48
f 123/158/49 124/161/50 106/162/51 107/159/49
f 124/161/50 119/163/52 104/164/53 106/162/51
f 104/164/53 138/165/54 142/166/54 98/147/41
f 127/167/30 140/168/55 138/165/54 104/164/53
f 144/169/55 131/170/30 98/147/41 142/166/54
f 131/170/30 129/171/30 133/172/30 98/147/41
f 98/147/41 133/172/30 134/173/30 111/148/42
f 125/174/30 127/167/30 104/164/53 126/175/30
f 104/164/53 119/163/52 139/176/30 126/175/30
f 136/177/30 139/176/30 119/163/52 137/178/30
f 130/179/30 141/180/30 111/148/42 134/173/30
f 143/181/30 132/182/30 111/148/42 141/180/30
f 135/183/30 137/178/30 119/163/52 128/184/30
f 111/148/42 132/182/30 128/184/30 119/163/52
f 105/152/46 153/185/56 166/186/57 118/149/43
f 97/187/58 145/188/58 147/189/58 148/190/58 149/191/58 150/192/58 151/193/58 146/194/58 152/195/58 154/196/58 155/197/58 156/198/58 157/199/58 158/200/58 153/201/58 105/202/58 110/203/58 109/204/58 108/205/58 107/206/58 106/207/58 104/208/58 98/209/58 103/210/58 102/211/58 101/212/58 100/213/58 99/214/58
f 145/215/59 160/216/60 165/217/61 147/218/62
f 147/218/62 165/217/61 164/219/63 148/220/63
f 148/220/63 164/219/63 163/221/64 149/222/64
f 149/223/64 163/224/64 162/225/65 150/226/65
f 150/226/65 162/225/65 161/227/66 151/228/67
f 151/228/67 161/227/66 159/229/68 146/230/69
f 166/186/57 153/185/56 158/231/70 168/232/71
f 168/232/71 158/231/70 157/233/72 169/234/72
f 169/234/72 157/233/72 156/235/73 170/236/73
f 170/237/73 156/238/73 155/239/74 171/240/74
f 171/240/74 155/239/74 154/241/75 172/242/76
f 172/242/76 154/241/75 152/243/77 167/244/78
f 152/243/77 146/230/69 190/245/79 186/246/79
f 175/247/15 152/243/77 186/246/79 188/248/80
f 145/215/59 97/133/32 112/136/35 160/216/60
f 192/249/80 190/245/79 146/230/69 179/250/15
f 179/250/15 146/230/69 181/251/15 177/252/15
f 146/230/69 159/229/68 182/253/15 181/251/15
f 173/254/15 174/255/15 152/243/77 175/247/15
f 152/243/77 174/255/15 187/256/15 167/244/78
f 184/257/15 185/258/15 167/244/78 187/256/15
f 178/259/15 182/253/15 159/229/68 189/260/15
f 191/261/15 189/260/15 159/229/68 180/262/15
f 183/263/15 176/264/15 167/244/78 185/258/15
f 159/229/68 167/244/78 176/264/15 180/262/15
f 21/265/58 16/266/58 112/267/58 117/268/58
f 20/269/58 21/265/58 117/268/58 116/270/58
f 19/271/58 20/269/58 116/270/58 115/272/58
f 18/273/58 19/271/58 115/272/58 114/274/58
f 17/275/58 18/273/58 114/274/58 113/276/58
f 15/277/58 17/275/58 113/276/58 111/278/58
f 22/279/58 24/280/58 120/281/58 118/282/58
f 24/280/58 25/283/58 121/284/58 120/281/58
f 25/283/58 26/285/58 122/286/58 121/284/58
f 26/285/58 27/287/58 123/288/58 122/286/58
f 27/287/58 28/289/58 124/290/58 123/288/58
f 28/289/58 23/291/58 119/292/58 124/290/58
f 23/291/58 15/277/58 111/278/58 119/292/58
f 30/293/81 29/294/82 125/295/82 126/296/81
f 31/297/83 44/298/84 140/299/84 127/300/83
f 36/301/85 32/302/86 128/303/86 132/304/85
f 35/305/87 33/306/88 129/307/88 131/308/87
f 34/309/89 45/310/90 141/311/90 130/312/89
f 38/313/91 34/309/89 130/312/89 134/314/91
f 48/315/92 35/316/87 131/317/87 144/318/92
f 33/306/88 37/319/93 133/320/93 129/307/88
f 37/319/93 38/313/91 134/314/91 133/320/93
f 32/302/86 39/321/94 135/322/94 128/303/86
f 41/323/95 40/324/96 136/325/96 137/326/95
f 29/294/82 31/327/83 127/328/83 125/295/82
f 39/321/94 41/329/95 137/330/95 135/322/94
f 44/298/84 42/331/97 138/332/97 140/299/84
f 43/333/98 30/293/81 126/296/81 139/334/98
f 45/335/90 47/336/99 143/337/99 141/338/90
f 40/324/96 43/333/98 139/334/98 136/325/96
f 46/339/100 48/315/92 144/318/92 142/340/100
f 47/336/99 36/301/85 132/304/85 143/337/99
f 42/331/97 46/339/100 142/340/100 138/332/97
f 64/341/58 69/342/58 165/343/58 160/344/58
f 69/342/58 68/345/58 164/346/58 165/343/58
f 68/345/58 67/347/58 163/348/58 164/346/58
f 67/347/58 66/349/58 162/350/58 163/348/58
f 66/349/58 65/351/58 161/352/58 162/350/58
f 65/351/58 63/353/58 159/354/58 161/352/58
f 72/355/58 70/356/58 166/357/58 168/358/58
f 73/359/58 72/355/58 168/358/58 169/360/58
f 74/361/58 73/359/58 169/360/58 170/362/58
f 75/363/58 74/361/58 170/362/58 171/364/58
f 76/365/58 75/363/58 171/364/58 172/366/58
f 71/367/58 76/365/58 172/366/58 167/368/58
f 63/353/58 71/367/58 167/368/58 159/354/58
f 16/266/58 64/341/58 160/344/58 112/267/58
f 77/369/82 78/370/81 174/371/81 173/372/82
f 92/373/84 79/374/83 175/375/83 188/376/84
f 80/377/86 84/378/85 180/379/85 176/380/86
f 81/381/88 83/382/87 179/383/87 177/384/88
f 93/385/90 82/386/89 178/387/89 189/388/90
f 82/386/89 86/389/91 182/390/91 178/387/89
f 83/391/87 96/392/92 192/393/92 179/394/87
f 85/395/93 81/381/88 177/384/88 181/396/93
f 86/389/91 85/395/93 181/396/93 182/390/91
f 87/397/94 80/377/86 176/380/86 183/398/94
f 88/399/96 89/400/95 185/401/95 184/402/96
f 79/403/83 77/369/82 173/372/82 175/404/83
f 89/405/95 87/397/94 183/398/94 185/406/95
f 90/407/97 92/373/84 188/376/84 186/408/97
f 78/370/81 91/409/98 187/410/98 174/371/81
f 95/411/99 93/412/90 189/413/90 191/414/99
f 91/409/98 88/399/96 184/402/96 187/410/98
f 96/392/92 94/415/100 190/416/100 192/393/92
f 84/378/85 95/411/99 191/414/99 180/379/85
f 94/415/100 90/407/97 186/408/97 190/416/100
f 70/356/58 22/279/58 118/282/58 166/357/58
f 221/417/31 222/418/31 194/419/31 193/420/31
f 223/421/31 221/417/31 193/420/31 195/422/31
f 224/423/31 223/421/31 195/422/31 196/424/31
f 225/425/31 224/423/31 196/424/31 197/426/31
f 226/427/31 225/425/31 197/426/31 198/428/31
f 227/429/31 226/427/31 198/428/31 199/430/31
f 228/431/31 229/432/31 201/433/31 200/434/31
f 229/432/31 230/435/31 202/436/31 201/433/31
f 230/435/31 231/437/31 203/438/31 202/436/31
f 231/437/31 232/439/31 204/440/31 203/438/31
f 232/439/31 233/441/31 205/442/31 204/440/31
f 233/441/31 234/443/31 206/444/31 205/442/31
f 234/443/31 227/429/31 199/430/31 206/444/31
f 236/445/31 235/446/31 207/447/31 208/448/31
f 235/446/31 237/449/31 209/450/31 207/447/31
f 237/449/31 238/451/31 210/452/31 209/450/31
f 238/451/31 239/453/31 211/454/31 210/452/31
f 239/453/31 240/455/31 212/456/31 211/454/31
f 240/455/31 241/457/31 213/458/31 212/456/31
f 243/459/31 242/460/31 214/461/31 215/462/31
f 244/463/31 243/459/31 215/462/31 216/464/31
f 245/465/31 244/463/31 216/464/31 217/466/31
f 246/467/31 245/465/31 217/466/31 218/468/31
f 247/469/31 246/467/31 218/468/31 219/470/31
f 248/471/31 247/469/31 219/470/31 220/472/31
f 241/457/31 248/471/31 220/472/31 213/458/31
f 242/460/31 228/431/31 200/434/31 214/461/31
f 222/418/31 236/445/31 208/448/31 194/419/31
f 58/473/6 59/474/5 302/475/5 303/476/6
f 222/477/101 221/478/2 249/479/2 250/480/101
f 59/474/5 60/481/4 301/482/4 302/475/5
f 50/483/16 241/484/16 269/485/16 297/486/16
f 60/487/4 61/488/3 300/489/3 301/490/4
f 247/491/28 248/492/102 276/493/102 275/494/28
f 61/488/3 62/495/2 299/496/2 300/489/3
f 246/497/27 247/491/28 275/494/28 274/498/27
f 62/495/2 57/499/101 298/500/101 299/496/2
f 245/501/26 246/497/27 274/498/27 273/502/26
f 55/503/13 50/504/103 297/505/103 296/506/13
f 244/507/25 245/508/26 273/509/26 272/510/25
f 8/112/31 2/111/31 227/429/31 234/443/31
f 54/511/12 55/503/13 296/506/13 295/512/12
f 243/513/24 244/507/25 272/510/25 271/514/24
f 53/515/11 54/511/12 295/512/12 294/516/11
f 236/517/7 49/518/7 292/519/7 264/520/7
f 242/521/104 243/513/24 271/514/24 270/522/104
f 52/523/10 53/524/11 294/525/11 293/526/10
f 8/527/1 234/528/1 262/529/1 290/530/1
f 241/531/105 240/532/22 268/533/22 269/534/105
f 51/535/9 52/523/10 293/526/10 291/536/9
f 240/532/22 239/537/21 267/538/21 268/533/22
f 49/539/106 51/535/9 291/536/9 292/540/106
f 239/537/21 238/541/20 266/542/20 267/538/21
f 50/126/31 56/125/31 248/471/31 241/457/31
f 57/119/31 9/118/31 228/431/31 242/460/31
f 1/105/31 49/132/31 236/445/31 222/418/31
f 277/543/31 278/544/31 250/545/31 249/546/31
f 279/547/31 277/543/31 249/546/31 251/548/31
f 280/549/31 279/547/31 251/548/31 252/550/31
f 281/551/31 280/549/31 252/550/31 253/552/31
f 282/553/31 281/551/31 253/552/31 254/554/31
f 283/555/31 282/553/31 254/554/31 255/556/31
f 284/557/31 285/558/31 257/559/31 256/560/31
f 285/558/31 286/561/31 258/562/31 257/559/31
f 286/561/31 287/563/31 259/564/31 258/562/31
f 287/563/31 288/565/31 260/566/31 259/564/31
f 288/565/31 289/567/31 261/568/31 260/566/31
f 289/567/31 290/569/31 262/570/31 261/568/31
f 292/571/31 291/572/31 263/573/31 264/574/31
f 291/572/31 293/575/31 265/576/31 263/573/31
f 293/575/31 294/577/31 266/578/31 265/576/31
f 294/577/31 295/579/31 267/580/31 266/578/31
f 295/579/31 296/581/31 268/582/31 267/580/31
f 296/581/31 297/583/31 269/584/31 268/582/31
f 299/585/31 298/586/31 270/587/31 271/588/31
f 300/589/31 299/585/31 271/588/31 272/590/31
f 301/591/31 300/589/31 272/590/31 273/592/31
f 302/593/31 301/591/31 273/592/31 274/594/31
f 303/595/31 302/593/31 274/594/31 275/596/31
f 304/597/31 303/595/31 275/596/31 276/598/31
f 221/478/2 223/599/3 251/600/3 249/479/2
f 57/601/14 242/602/14 270/603/14 298/604/14
f 56/605/107 58/473/6 303/476/6 304/606/107
f 223/599/3 224/607/4 252/608/4 251/600/3
f 224/609/4 225/610/5 253/611/5 252/612/4
f 3/613/24 1/614/104 278/615/104 277/616/24
f 225/610/5 226/617/6 254/618/6 253/611/5
f 4/619/25 3/613/24 277/616/24 279/620/25
f 226/617/6 227/621/107 255/622/107 254/618/6
f 5/623/26 4/619/25 279/620/25 280/624/26
f 229/625/9 228/626/106 256/627/106 257/628/9
f 248/629/17 56/630/17 304/631/17 276/632/17
f 1/633/23 222/634/23 250/635/23 278/636/23
f 6/637/27 5/638/26 280/639/26 281/640/27
f 230/641/10 229/625/9 257/628/9 258/642/10
f 7/643/28 6/637/27 281/640/27 282/644/28
f 231/645/11 230/641/10 258/642/10 259/646/11
f 2/647/102 7/643/28 282/644/28 283/648/102
f 232/649/12 231/650/11 259/651/11 260/652/12
f 9/653/108 14/654/18 285/655/18 284/656/108
f 233/657/13 232/649/12 260/652/12 261/658/13
f 14/654/18 13/659/19 286/660/19 285/655/18
f 234/661/103 233/657/13 261/658/13 262/662/103
f 227/663/8 2/664/8 283/665/8 255/666/8
f 13/659/19 12/667/20 287/668/20 286/660/19
f 228/669/29 9/670/29 284/671/29 256/672/29
f 12/673/20 11/674/21 288/675/21 287/676/20
f 235/677/18 236/678/108 264/679/108 263/680/18
f 11/674/21 10/681/22 289/682/22 288/675/21
f 237/683/19 235/677/18 263/680/18 265/684/19
f 10/681/22 8/685/105 290/686/105 289/682/22
f 238/687/20 237/683/19 265/684/19 266/688/20
