# https://github.com/mikedh/trimesh
v 0.43558112 -0.17538391 0.04410000
v 0.43181818 -0.23484848 0.04410000
v 0.43181818 -0.23484848 -0.00490000
v 0.38636364 -0.15909091 -0.00490000
v 0.40409504 -0.23622744 0.04410000
v 0.43181818 -0.15909091 -0.00490000
v 0.38636364 -0.15909091 0.00000000
v 0.38636364 -0.23484848 -0.00490000
v 0.43181818 -0.15909091 0.00000000
v 0.38636364 -0.23484848 0.00000000
f 1 2 3
f 5 2 1
f 5 3 2
f 6 1 3
f 6 3 4
f 7 5 1
f 7 6 4
f 8 4 3
f 8 3 5
f 9 7 1
f 9 1 6
f 9 6 7
f 10 8 5
f 10 5 7
f 10 7 4
f 10 4 8

