# https://github.com/mikedh/trimesh
v -0.23622744 0.40409504 0.04410000
v -0.23484848 0.35606061 0.00000000
v -0.23484848 0.40151515 -0.00490000
v -0.31342381 0.38648661 -0.00490000
v -0.33291882 0.33163472 0.04410000
v -0.28030303 0.31060606 -0.00490000
v -0.31342381 0.38648661 0.04410000
v -0.23484848 0.35606061 -0.00490000
v -0.32575758 0.31060606 -0.00490000
v -0.28030303 0.31060606 0.00000000
v -0.32575758 0.31060606 0.00000000
f 1 2 3
f 1 3 4
f 6 4 3
f 7 5 1
f 7 1 4
f 7 4 5
f 8 6 3
f 8 3 2
f 8 2 6
f 9 5 4
f 9 4 6
f 10 6 2
f 10 2 1
f 10 1 5
f 10 9 6
f 11 10 5
f 11 5 9
f 11 9 10

