# https://github.com/mikedh/trimesh
v -0.12955076 0.44948457 0.04410000
v -0.11363636 0.40151515 0.00000000
v -0.11363636 0.44696970 -0.00490000
v -0.29531657 0.40134703 -0.00490000
v -0.29531657 0.40134703 0.04410000
v -0.11363636 0.40151515 -0.00490000
v -0.24318890 0.43422710 -0.00490000
v -0.11363636 0.44696970 0.00000000
v -0.21265801 0.41669294 0.04410000
v -0.24318890 0.43422710 0.04410000
v -0.27305712 0.41826212 0.04410000
v -0.27305712 0.41826212 -0.00490000
v -0.28788636 0.40744492 0.04410000
v -0.28788636 0.40744492 -0.00490000
f 5 4 2
f 6 2 4
f 6 4 3
f 7 1 3
f 7 3 4
f 8 1 2
f 8 3 1
f 8 6 3
f 8 2 6
f 9 5 2
f 9 2 1
f 9 1 5
f 10 5 1
f 10 1 7
f 11 10 7
f 11 5 10
f 12 11 7
f 12 7 4
f 13 4 5
f 13 5 11
f 13 11 12
f 14 13 12
f 14 12 4
f 14 4 13

