# https://github.com/mikedh/trimesh
v 0.38648661 0.31342381 0.04410000
v 0.45649112 0.20153609 0.04410000
v 0.41826212 0.27305712 -0.00490000
v 0.26127253 0.42456115 -0.00490000
v 0.27312954 0.38093328 0.04410000
v 0.40151515 0.20454545 -0.00490000
v 0.31342381 0.38648661 -0.00490000
v 0.41826212 0.27305712 0.04410000
v 0.27305712 0.41826212 0.04410000
v 0.45649112 0.20153609 -0.00490000
v 0.26515152 0.34090909 -0.00490000
v 0.41669294 0.21265801 0.04410000
v 0.38648661 0.31342381 -0.00490000
v 0.26127253 0.42456115 0.04410000
v 0.27305712 0.41826212 -0.00490000
v 0.31342381 0.38648661 0.04410000
v 0.26515152 0.34090909 0.00000000
f 5 2 1
f 6 4 3
f 7 3 4
f 8 1 2
f 8 2 3
f 8 3 1
f 9 5 1
f 10 6 3
f 10 3 2
f 10 2 6
f 11 4 6
f 12 6 2
f 12 2 5
f 13 7 1
f 13 1 3
f 13 3 7
f 14 9 4
f 14 5 9
f 14 4 11
f 15 9 7
f 15 7 4
f 15 4 9
f 16 9 1
f 16 1 7
f 16 7 9
f 17 11 6
f 17 6 12
f 17 12 5
f 17 14 11
f 17 5 14

