# https://github.com/mikedh/trimesh
v 0.26569934 0.38703115 0.00267576
v 0.46475138 -0.05328936 0.00267576
v 0.40151515 0.23484848 -0.00490000
v -0.23484848 0.40151515 -0.00490000
v -0.46475138 -0.05328936 0.00267576
v 0.12878788 0.44696970 -0.00490000
v 0.46327341 0.06829530 0.00267576
v -0.05328936 0.46475138 0.00267576
v 0.05303030 -0.46212121 -0.00490000
v 0.26515152 0.38636364 -0.00490000
v 0.46212121 0.06818182 -0.00490000
v 0.40151515 0.23484848 0.00000000
v -0.32575758 0.31060606 0.00000000
v -0.05303030 0.46212121 -0.00490000
v 0.12955076 0.44948457 0.00267576
v 0.05328936 -0.46475138 0.00267576
v -0.44696970 -0.11363636 -0.00490000
v 0.37121212 0.28030303 -0.00490000
v 0.35606061 -0.28030303 -0.00490000
v -0.23484848 0.40151515 0.00000000
v -0.46327341 0.06829530 0.00267576
v 0.05328936 0.46475138 0.00267576
v -0.11363636 0.44696970 -0.00490000
v -0.26569934 -0.38703115 0.00267576
v 0.37121212 0.28030303 0.00000000
v 0.44696970 -0.11363636 -0.00490000
v 0.28030303 -0.37121212 -0.00490000
v -0.46212121 0.06818182 -0.00490000
v 0.05303030 0.46212121 -0.00490000
v -0.11363636 0.44696970 0.00000000
v -0.41666667 -0.18939394 0.00000000
v -0.26515152 -0.38636364 -0.00490000
v 0.46212121 -0.05303030 -0.00490000
v 0.43181818 -0.15909091 0.00000000
v 0.12955076 -0.44948457 0.00267576
v -0.46212121 -0.05303030 -0.00490000
v -0.40151515 0.20454545 -0.00490000
v -0.44696970 -0.11363636 0.00000000
v -0.12955076 -0.44948457 0.00267576
v -0.37121212 -0.26515152 -0.00490000
v 0.44696970 -0.11363636 0.00000000
v 0.43181818 -0.15909091 -0.00490000
v 0.35606061 -0.28030303 0.00000000
v 0.12878788 -0.44696970 -0.00490000
v -0.40151515 0.20454545 0.00000000
v -0.32575758 0.31060606 -0.00490000
v -0.12878788 -0.44696970 -0.00490000
v -0.20454545 -0.41666667 -0.00490000
v -0.41666667 -0.18939394 -0.00490000
v -0.31060606 -0.34090909 -0.00490000
v -0.37121212 -0.26515152 0.00000000
v 0.38636364 -0.23484848 -0.00490000
v 0.28030303 -0.37121212 0.00000000
v 0.38636364 -0.23484848 0.00000000
v -0.03787879 -0.46212121 -0.00490000
v -0.20454545 -0.41666667 0.00000000
v -0.31060606 -0.34090909 0.00000000
v -0.03787879 -0.46212121 0.00000000
f 6 3 4
f 7 1 2
f 9 4 3
f 10 3 6
f 11 7 2
f 11 3 7
f 11 9 3
f 12 7 3
f 12 1 7
f 14 6 4
f 15 10 6
f 15 1 10
f 17 4 9
f 18 10 1
f 18 3 10
f 18 12 3
f 19 9 11
f 20 4 13
f 21 5 8
f 21 20 13
f 21 8 20
f 22 14 8
f 22 15 6
f 22 1 15
f 22 2 1
f 23 14 4
f 23 8 14
f 25 18 1
f 25 1 12
f 25 12 18
f 26 19 11
f 27 9 19
f 28 5 21
f 28 4 17
f 29 22 6
f 29 6 14
f 29 14 22
f 30 20 8
f 30 8 23
f 30 23 4
f 30 4 20
f 31 24 5
f 32 17 9
f 33 26 11
f 33 11 2
f 33 2 26
f 35 5 24
f 35 8 5
f 35 22 8
f 35 2 22
f 36 28 17
f 36 17 5
f 36 5 28
f 37 28 21
f 37 4 28
f 38 31 5
f 38 5 17
f 38 17 31
f 39 35 24
f 39 16 35
f 40 17 32
f 41 26 2
f 41 2 34
f 42 19 26
f 42 41 34
f 42 26 41
f 43 27 19
f 44 9 27
f 44 27 35
f 44 35 16
f 44 16 9
f 45 37 21
f 45 21 13
f 45 13 37
f 46 37 13
f 46 13 4
f 46 4 37
f 47 32 9
f 48 24 32
f 48 47 39
f 48 32 47
f 49 40 31
f 49 31 17
f 49 17 40
f 50 40 32
f 50 32 24
f 51 24 31
f 51 31 40
f 51 40 50
f 52 42 34
f 52 43 19
f 52 19 42
f 53 35 27
f 53 27 43
f 53 43 2
f 53 2 35
f 54 34 2
f 54 2 43
f 54 52 34
f 54 43 52
f 55 47 9
f 55 9 16
f 55 39 47
f 56 48 39
f 56 39 24
f 56 24 48
f 57 51 50
f 57 50 24
f 57 24 51
f 58 55 16
f 58 16 39
f 58 39 55

