# https://github.com/mikedh/trimesh
v 0.13946571 0.47767649 0.04410000
v 0.14393939 0.44696970 0.04410000
v 0.13946571 0.47767649 -0.00490000
v -0.21961971 0.44682516 -0.00490000
v -0.21961971 0.44682516 0.04410000
v 0.14393939 0.44696970 -0.00490000
v -0.08179382 0.49194430 0.04410000
v 0.08179382 0.49194430 -0.00490000
v -0.19523706 0.45985804 0.04410000
v 0.08179382 0.49194430 0.04410000
v -0.08179382 0.49194430 -0.00490000
v -0.19523706 0.45985804 -0.00490000
f 1 2 3
f 5 2 1
f 5 4 2
f 6 3 2
f 6 2 4
f 6 4 3
f 7 5 1
f 8 1 3
f 8 3 4
f 9 4 5
f 9 5 7
f 10 8 7
f 10 7 1
f 10 1 8
f 11 8 4
f 11 7 8
f 11 9 7
f 12 11 4
f 12 4 9
f 12 9 11

