# https://github.com/mikedh/trimesh
v 0.28218318 -0.37350307 0.04410000
v 0.27305712 -0.41826212 0.04410000
v 0.27305712 -0.41826212 -0.00490000
v 0.12878788 -0.41666667 -0.00490000
v 0.12559094 -0.48188536 0.04410000
v 0.23484848 -0.35606061 -0.00490000
v 0.13375966 -0.44820781 0.04410000
v 0.19523706 -0.45985804 0.04410000
v 0.12559094 -0.48188536 -0.00490000
v 0.28030303 -0.37121212 -0.00490000
v 0.12878788 -0.41666667 0.00000000
v 0.18939394 -0.35606061 0.00000000
v 0.13946571 -0.47767649 0.04410000
v 0.19523706 -0.45985804 -0.00490000
v 0.23484848 -0.35606061 0.00000000
v 0.18939394 -0.35606061 -0.00490000
v 0.13946571 -0.47767649 -0.00490000
f 1 2 3
f 5 2 1
f 6 3 4
f 7 5 1
f 8 3 2
f 8 2 5
f 9 5 4
f 9 4 3
f 10 1 3
f 10 3 6
f 11 4 5
f 11 5 7
f 12 7 1
f 12 11 7
f 12 4 11
f 13 8 5
f 13 5 9
f 14 9 3
f 14 3 8
f 14 8 13
f 15 10 6
f 15 1 10
f 15 12 1
f 16 6 4
f 16 4 12
f 16 15 6
f 16 12 15
f 17 14 13
f 17 13 9
f 17 9 14

