# https://github.com/mikedh/trimesh
v 0.46327341 -0.06829530 0.04410000
v 0.49030309 -0.09784140 0.04410000
v 0.46475138 -0.05328936 0.00267576
v 0.44696970 -0.05303030 -0.00490000
v 0.43181818 -0.23484848 0.04410000
v 0.44696970 -0.05303030 0.00000000
v 0.45985804 -0.19523706 -0.00490000
v 0.46212121 -0.05303030 -0.00490000
v 0.43181818 -0.11363636 0.00000000
v 0.45985804 -0.19523706 0.04410000
v 0.49030309 -0.09784140 -0.00490000
v 0.44820781 -0.13375966 0.04410000
v 0.43181818 -0.23484848 -0.00490000
v 0.47767649 -0.13946571 -0.00490000
v 0.44052613 -0.23140431 0.04410000
v 0.43181818 -0.11363636 -0.00490000
v 0.47767649 -0.13946571 0.04410000
v 0.44052613 -0.23140431 -0.00490000
f 1 2 3
f 5 2 1
f 6 1 3
f 8 6 3
f 8 4 6
f 8 7 4
f 9 1 6
f 9 6 4
f 10 2 5
f 11 8 3
f 11 3 2
f 11 7 8
f 12 9 5
f 12 5 1
f 12 1 9
f 13 4 7
f 14 10 7
f 14 11 2
f 14 7 11
f 15 10 5
f 15 7 10
f 16 9 4
f 16 4 13
f 16 13 5
f 16 5 9
f 17 14 2
f 17 2 10
f 17 10 14
f 18 13 7
f 18 7 15
f 18 15 5
f 18 5 13

