# https://github.com/mikedh/trimesh
v 0.47767649 0.13946571 0.04410000
v 0.49030309 -0.09784140 0.04410000
v 0.49194430 0.08179382 -0.00490000
v 0.46212121 0.14393939 -0.00490000
v 0.46212121 -0.09848485 0.04410000
v 0.47767649 0.13946571 -0.00490000
v 0.49194430 0.08179382 0.04410000
v 0.46212121 0.14393939 0.04410000
v 0.46212121 -0.09848485 -0.00490000
v 0.49194430 -0.08179382 0.04410000
v 0.49030309 -0.09784140 -0.00490000
v 0.49194430 -0.08179382 -0.00490000
f 5 2 1
f 6 1 3
f 6 3 4
f 6 4 1
f 7 1 2
f 7 3 1
f 8 5 1
f 8 1 4
f 8 4 5
f 9 2 5
f 9 5 4
f 9 4 3
f 10 7 2
f 10 3 7
f 11 9 3
f 11 2 9
f 11 10 2
f 12 11 3
f 12 3 10
f 12 10 11

