# https://github.com/mikedh/trimesh
v -0.13375966 -0.44820781 0.04410000
v -0.12559094 -0.48188536 0.04410000
v -0.12878788 -0.41666667 -0.00490000
v -0.26515152 -0.38636364 -0.00490000
v -0.26127253 -0.42456115 0.04410000
v -0.12559094 -0.48188536 -0.00490000
v -0.26569934 -0.38703115 0.04410000
v -0.12878788 -0.41666667 0.00000000
v -0.26127253 -0.42456115 -0.00490000
v -0.19523706 -0.45985804 -0.00490000
v -0.20454545 -0.38636364 0.00000000
v -0.13946571 -0.47767649 -0.00490000
v -0.19523706 -0.45985804 0.04410000
v -0.20454545 -0.38636364 -0.00490000
v -0.13946571 -0.47767649 0.04410000
f 5 2 1
f 6 4 3
f 7 5 1
f 8 1 2
f 8 7 1
f 8 6 3
f 8 2 6
f 9 4 6
f 9 7 4
f 9 5 7
f 10 9 6
f 10 5 9
f 11 4 7
f 11 7 8
f 12 10 6
f 12 6 2
f 13 2 5
f 13 5 10
f 13 10 12
f 14 3 4
f 14 4 11
f 14 11 8
f 14 8 3
f 15 13 12
f 15 12 2
f 15 2 13

