# https://github.com/mikedh/trimesh
v -0.40072825 -0.24252639 0.04410000
v -0.26127253 -0.42456115 0.04410000
v -0.26515152 -0.34090909 -0.00490000
v -0.44052613 -0.23140431 -0.00490000
v -0.41826212 -0.27305712 0.04410000
v -0.27305712 -0.41826212 -0.00490000
v -0.37121212 -0.23484848 -0.00490000
v -0.27312954 -0.38093328 0.04410000
v -0.44052613 -0.23140431 0.04410000
v -0.26127253 -0.42456115 -0.00490000
v -0.38648661 -0.31342381 -0.00490000
v -0.32575758 -0.26515152 0.00000000
v -0.26515152 -0.34090909 0.00000000
v -0.37121212 -0.23484848 0.00000000
v -0.41826212 -0.27305712 -0.00490000
v -0.31342381 -0.38648661 0.04410000
v -0.32575758 -0.26515152 -0.00490000
v -0.31342381 -0.38648661 -0.00490000
v -0.27305712 -0.41826212 0.04410000
v -0.38648661 -0.31342381 0.04410000
f 5 2 1
f 6 4 3
f 7 3 4
f 8 1 2
f 9 5 1
f 9 4 5
f 9 7 4
f 10 6 3
f 10 2 6
f 11 4 6
f 12 1 8
f 13 8 2
f 13 12 8
f 13 10 3
f 13 2 10
f 14 9 1
f 14 7 9
f 14 12 7
f 14 1 12
f 15 11 5
f 15 5 4
f 15 4 11
f 16 2 5
f 17 3 7
f 17 7 12
f 17 13 3
f 17 12 13
f 18 16 11
f 18 11 6
f 18 6 16
f 19 16 6
f 19 6 2
f 19 2 16
f 20 16 5
f 20 5 11
f 20 11 16

