# https://github.com/mikedh/trimesh
v 0.12955076 -0.44948457 0.04410000
v 0.12559094 -0.48188536 0.04410000
v 0.12559094 -0.48188536 -0.00490000
v -0.12878788 -0.44696970 -0.00490000
v -0.12955076 -0.44948457 0.04410000
v 0.12878788 -0.44696970 -0.00490000
v -0.08179382 -0.49194430 -0.00490000
v 0.08179382 -0.49194430 -0.00490000
v -0.08179382 -0.49194430 0.04410000
v -0.12559094 -0.48188536 -0.00490000
v 0.08179382 -0.49194430 0.04410000
v -0.12559094 -0.48188536 0.04410000
f 1 2 3
f 5 2 1
f 5 1 4
f 6 1 3
f 6 3 4
f 6 4 1
f 7 4 3
f 8 7 3
f 8 3 2
f 9 2 5
f 9 7 8
f 10 5 4
f 10 4 7
f 10 7 9
f 11 9 8
f 11 8 2
f 11 2 9
f 12 10 9
f 12 9 5
f 12 5 10

