# https://github.com/mikedh/trimesh
v 0.44052613 -0.23140431 0.04410000
v 0.43422710 -0.24318890 0.04410000
v 0.43422710 -0.24318890 -0.00490000
v 0.31060606 -0.28030303 -0.00490000
v 0.28961339 -0.36740519 0.04410000
v 0.35606061 -0.23484848 -0.00490000
v 0.31342381 -0.38648661 0.04410000
v 0.44052613 -0.23140431 -0.00490000
v 0.40072825 -0.24252639 0.04410000
v 0.38648661 -0.31342381 0.04410000
v 0.27883274 -0.41487513 -0.00490000
v 0.35606061 -0.23484848 0.00000000
v 0.41826212 -0.27305712 0.04410000
v 0.27883274 -0.41487513 0.04410000
v 0.28030303 -0.32575758 -0.00490000
v 0.38648661 -0.31342381 -0.00490000
v 0.31060606 -0.28030303 0.00000000
v 0.28030303 -0.32575758 0.00000000
v 0.31342381 -0.38648661 -0.00490000
v 0.41826212 -0.27305712 -0.00490000
f 1 2 3
f 5 2 1
f 6 3 4
f 7 2 5
f 8 6 1
f 8 1 3
f 8 3 6
f 9 5 1
f 10 2 7
f 11 4 3
f 12 9 1
f 12 1 6
f 12 6 4
f 13 3 2
f 13 2 10
f 14 11 7
f 14 7 5
f 15 4 11
f 15 11 14
f 16 10 7
f 16 11 3
f 16 13 10
f 17 12 4
f 17 5 9
f 17 9 12
f 17 4 15
f 18 15 14
f 18 14 5
f 18 17 15
f 18 5 17
f 19 16 7
f 19 7 11
f 19 11 16
f 20 16 3
f 20 3 13
f 20 13 16

