# https://github.com/mikedh/trimesh
v -0.32085402 0.38038871 0.04410000
v -0.32575758 0.25000000 0.00000000
v -0.32085402 0.38038871 -0.00490000
v -0.32990764 0.37295850 -0.00490000
v -0.45649112 0.20153609 0.04410000
v -0.35606061 0.20454545 -0.00490000
v -0.41669294 0.21265801 0.04410000
v -0.41826212 0.27305712 0.04410000
v -0.32575758 0.25000000 -0.00490000
v -0.45649112 0.20153609 -0.00490000
v -0.34034902 0.32258108 0.04410000
v -0.35606061 0.20454545 0.00000000
v -0.38648661 0.31342381 0.04410000
v -0.41826212 0.27305712 -0.00490000
v -0.32990764 0.37295850 0.04410000
v -0.38648661 0.31342381 -0.00490000
f 1 2 3
f 1 3 4
f 6 4 3
f 7 1 5
f 8 5 1
f 9 6 3
f 9 3 2
f 9 2 6
f 10 6 5
f 10 4 6
f 10 5 8
f 11 2 1
f 11 1 7
f 12 6 2
f 12 11 7
f 12 2 11
f 12 7 5
f 12 5 6
f 13 8 1
f 14 10 8
f 14 4 10
f 14 8 13
f 15 13 1
f 15 1 4
f 15 4 13
f 16 14 13
f 16 13 4
f 16 4 14

