# https://github.com/mikedh/trimesh
v 0.45985804 0.19523706 0.04410000
v 0.46327341 0.06829530 0.04410000
v 0.47639975 0.14367458 -0.00490000
v 0.40151515 0.20454545 -0.00490000
v 0.42005974 0.20635906 0.04410000
v 0.40151515 0.09848485 -0.00490000
v 0.45985804 0.19523706 -0.00490000
v 0.47639975 0.14367458 0.04410000
v 0.46212121 0.06818182 -0.00490000
v 0.40151515 0.20454545 0.00000000
v 0.40151515 0.09848485 0.00000000
v 0.44696970 0.06818182 -0.00490000
f 5 2 1
f 6 4 3
f 7 1 3
f 7 3 4
f 7 5 1
f 7 4 5
f 8 1 2
f 8 2 3
f 8 3 1
f 9 6 3
f 9 3 2
f 10 5 4
f 10 4 6
f 11 2 5
f 11 10 6
f 11 5 10
f 12 9 2
f 12 2 11
f 12 11 6
f 12 6 9

