# https://github.com/mikedh/trimesh
v -0.45790236 -0.10180126 0.04410000
v -0.41666667 -0.23484848 0.04410000
v -0.41666667 -0.11363636 -0.00490000
v -0.49030309 -0.09784140 -0.00490000
v -0.47767649 -0.13946571 0.04410000
v -0.44052613 -0.23140431 -0.00490000
v -0.44696970 -0.09848485 -0.00490000
v -0.41666667 -0.11363636 0.00000000
v -0.49030309 -0.09784140 0.04410000
v -0.41666667 -0.23484848 -0.00490000
v -0.45985804 -0.19523706 -0.00490000
v -0.44052613 -0.23140431 0.04410000
v -0.43265764 -0.18278963 0.04410000
v -0.47767649 -0.13946571 -0.00490000
v -0.45985804 -0.19523706 0.04410000
f 5 2 1
f 6 4 3
f 7 3 4
f 8 2 3
f 8 7 1
f 8 3 7
f 9 5 1
f 9 4 5
f 9 7 4
f 9 1 7
f 10 6 3
f 10 3 2
f 10 2 6
f 11 4 6
f 12 6 2
f 12 2 5
f 12 11 6
f 13 8 1
f 13 1 2
f 13 2 8
f 14 11 5
f 14 5 4
f 14 4 11
f 15 12 5
f 15 5 11
f 15 11 12

