# https://github.com/mikedh/trimesh
v -0.42005974 0.20635906 0.04410000
v -0.40151515 0.14393939 0.00000000
v -0.40151515 0.20454545 -0.00490000
v -0.45985804 0.19523706 -0.00490000
v -0.49342220 0.06678786 0.04410000
v -0.44696970 0.06818182 -0.00490000
v -0.40151515 0.20454545 0.00000000
v -0.46312784 0.06977328 0.04410000
v -0.45985804 0.19523706 0.04410000
v -0.41666667 0.09848485 -0.00490000
v -0.49342220 0.06678786 -0.00490000
v -0.49194430 0.08179382 0.04410000
v -0.40151515 0.14393939 -0.00490000
v -0.41666667 0.09848485 0.00000000
v -0.49194430 0.08179382 -0.00490000
f 1 3 4
f 6 4 3
f 7 1 2
f 7 2 3
f 7 3 1
f 8 2 1
f 8 1 5
f 8 5 6
f 9 5 1
f 9 1 4
f 10 6 3
f 11 6 5
f 11 4 6
f 12 9 4
f 12 5 9
f 12 11 5
f 13 10 3
f 13 3 2
f 14 8 6
f 14 6 10
f 14 2 8
f 14 13 2
f 14 10 13
f 15 12 4
f 15 4 11
f 15 11 12

