# https://github.com/mikedh/trimesh
v 0.26127253 0.42456115 0.04410000
v 0.26569934 0.38703115 0.04410000
v 0.26127253 0.42456115 -0.00490000
v 0.14367458 0.47639975 -0.00490000
v 0.12955076 0.44948457 0.04410000
v 0.14393939 0.38636364 -0.00490000
v 0.19523706 0.45985804 -0.00490000
v 0.14367458 0.47639975 0.04410000
v 0.26515152 0.38636364 -0.00490000
v 0.12878788 0.40151515 -0.00490000
v 0.14393939 0.38636364 0.00000000
v 0.19523706 0.45985804 0.04410000
v 0.12878788 0.44696970 -0.00490000
v 0.12878788 0.40151515 0.00000000
f 1 2 3
f 5 2 1
f 6 4 3
f 7 1 3
f 7 3 4
f 8 5 1
f 8 4 5
f 8 7 4
f 9 6 3
f 9 3 2
f 10 4 6
f 11 2 5
f 11 9 2
f 11 6 9
f 12 8 1
f 12 1 7
f 12 7 8
f 13 5 4
f 13 4 10
f 14 11 5
f 14 10 6
f 14 6 11
f 14 13 10
f 14 5 13

