# https://github.com/mikedh/trimesh
v -0.46327341 0.06829530 0.04410000
v -0.44696970 -0.09848485 -0.00490000
v -0.46212121 0.06818182 -0.00490000
v -0.49342220 0.06678786 -0.00490000
v -0.49030309 -0.09784140 0.04410000
v -0.44696970 -0.05303030 0.00000000
v -0.45790236 -0.10180126 0.04410000
v -0.49342220 0.06678786 0.04410000
v -0.49030309 -0.09784140 -0.00490000
v -0.44696970 -0.05303030 -0.00490000
v -0.49194430 -0.08179382 0.04410000
v -0.49194430 -0.08179382 -0.00490000
f 1 3 4
f 3 2 4
f 6 3 1
f 7 1 5
f 7 6 1
f 7 2 6
f 8 5 1
f 8 1 4
f 9 4 2
f 9 7 5
f 9 2 7
f 10 6 2
f 10 2 3
f 10 3 6
f 11 8 4
f 11 5 8
f 11 9 5
f 12 11 4
f 12 4 9
f 12 9 11

