# https://github.com/mikedh/trimesh
v -0.42005974 -0.20635906 0.04410000
v -0.35606061 -0.23484848 0.00000000
v -0.35606061 -0.18939394 0.00000000
v -0.41666667 -0.18939394 -0.00490000
v -0.41666667 -0.23484848 -0.00490000
v -0.35606061 -0.23484848 -0.00490000
v -0.41666667 -0.18939394 0.00000000
v -0.40409504 -0.23622744 0.04410000
v -0.35606061 -0.18939394 -0.00490000
v -0.41666667 -0.23484848 0.04410000
f 5 1 4
f 6 3 2
f 6 5 4
f 7 1 3
f 7 3 4
f 7 4 1
f 8 2 3
f 8 3 1
f 8 6 2
f 8 5 6
f 9 6 4
f 9 4 3
f 9 3 6
f 10 8 1
f 10 1 5
f 10 5 8

