# Blender 5.0.1
# www.blender.org
mtllib textured.mtl
o visual
v -0.002982 0.000000 0.001000
v -0.002802 -0.001020 0.001000
v -0.002284 -0.001916 0.001000
v -0.001491 -0.002582 0.001000
v -0.000518 -0.002936 0.001000
v 0.000518 -0.002936 0.001000
v 0.001491 -0.002582 0.001000
v 0.002284 -0.001916 0.001000
v 0.002802 -0.001020 0.001000
v 0.002982 0.000000 0.001000
v 0.002802 0.001020 0.001000
v 0.002284 0.001916 0.001000
v 0.001491 0.002582 0.001000
v 0.000518 0.002936 0.001000
v -0.000518 0.002936 0.001000
v -0.001491 0.002582 0.001000
v -0.002284 0.001916 0.001000
v -0.002802 0.001020 0.001000
v -0.013500 0.000000 0.015917
v -0.013306 -0.002282 0.015917
v -0.012729 -0.004497 0.015917
v -0.011786 -0.006584 0.015917
v -0.010503 -0.008481 0.015917
v -0.008919 -0.010134 0.015917
v -0.007078 -0.011496 0.015917
v -0.005034 -0.012527 0.015917
v -0.002844 -0.013197 0.015917
v -0.000573 -0.013488 0.015917
v 0.001715 -0.013391 0.015917
v 0.003953 -0.012908 0.015917
v 0.006078 -0.012054 0.015917
v 0.008028 -0.010854 0.015917
v 0.009746 -0.009341 0.015917
v 0.011185 -0.007560 0.015917
v 0.012302 -0.005561 0.015917
v 0.013064 -0.003402 0.015917
v 0.013451 -0.001145 0.015917
v 0.013451 0.001145 0.015917
v 0.013064 0.003402 0.015917
v 0.012302 0.005561 0.015917
v 0.011185 0.007560 0.015917
v 0.009746 0.009341 0.015917
v 0.008028 0.010854 0.015917
v 0.006078 0.012055 0.015917
v 0.003953 0.012908 0.015917
v 0.001715 0.013391 0.015917
v -0.000573 0.013488 0.015917
v -0.002844 0.013197 0.015917
v -0.005034 0.012527 0.015917
v -0.007078 0.011496 0.015917
v -0.008919 0.010134 0.015917
v -0.010503 0.008481 0.015917
v -0.011786 0.006584 0.015917
v -0.012729 0.004497 0.015917
v -0.013306 0.002282 0.015917
v -0.013500 0.000000 0.114600
v -0.013306 -0.002282 0.114600
v -0.012729 -0.004497 0.114600
v -0.011786 -0.006584 0.114600
v -0.010503 -0.008481 0.114600
v -0.008919 -0.010134 0.114600
v -0.007078 -0.011496 0.114600
v -0.005034 -0.012526 0.114600
v -0.002844 -0.013197 0.114600
v -0.000573 -0.013488 0.114600
v 0.001715 -0.013391 0.114600
v 0.003953 -0.012908 0.114600
v 0.006078 -0.012054 0.114600
v 0.008028 -0.010854 0.114600
v 0.009746 -0.009341 0.114600
v 0.011185 -0.007560 0.114600
v 0.012302 -0.005561 0.114600
v 0.013064 -0.003402 0.114600
v 0.013451 -0.001145 0.114600
v 0.013451 0.001145 0.114600
v 0.013064 0.003402 0.114600
v 0.012302 0.005561 0.114600
v 0.011185 0.007560 0.114600
v 0.009746 0.009341 0.114600
v 0.008028 0.010854 0.114600
v 0.006078 0.012055 0.114600
v 0.003953 0.012908 0.114600
v 0.001715 0.013391 0.114600
v -0.000573 0.013488 0.114600
v -0.002844 0.013197 0.114600
v -0.005034 0.012527 0.114600
v -0.007078 0.011496 0.114600
v -0.008919 0.010134 0.114600
v -0.010503 0.008481 0.114600
v -0.011786 0.006584 0.114600
v -0.012729 0.004497 0.114600
v -0.013306 0.002282 0.114600
v -0.013500 0.000000 0.065259
v -0.013306 0.002282 0.065259
v -0.012729 0.004497 0.065259
v -0.011786 0.006584 0.065259
v -0.010503 0.008481 0.065259
v -0.008919 0.010134 0.065259
v -0.007078 0.011496 0.065259
v -0.005034 0.012527 0.065259
v -0.002844 0.013197 0.065259
v -0.000573 0.013488 0.065259
v 0.001715 0.013391 0.065259
v 0.003953 0.012908 0.065259
v 0.006078 0.012055 0.065259
v 0.008028 0.010854 0.065259
v 0.009746 0.009341 0.065259
v 0.011185 0.007560 0.065259
v 0.012302 0.005561 0.065259
v 0.013064 0.003402 0.065259
v 0.013451 0.001145 0.065259
v 0.013451 -0.001145 0.065259
v 0.013064 -0.003402 0.065259
v 0.012302 -0.005561 0.065259
v 0.011185 -0.007560 0.065259
v 0.009746 -0.009341 0.065259
v 0.008028 -0.010854 0.065259
v 0.006078 -0.012054 0.065259
v 0.003953 -0.012908 0.065259
v 0.001715 -0.013391 0.065259
v -0.000573 -0.013488 0.065259
v -0.002844 -0.013197 0.065259
v -0.005034 -0.012526 0.065259
v -0.007078 -0.011496 0.065259
v -0.008919 -0.010134 0.065259
v -0.010503 -0.008481 0.065259
v -0.011786 -0.006584 0.065259
v -0.012729 -0.004497 0.065259
v -0.013306 -0.002282 0.065259
v -0.003500 0.000000 0.000000
v -0.003310 0.001136 -0.000000
v -0.002762 0.002150 -0.000000
v -0.001914 0.002930 -0.000000
v -0.000859 0.003393 -0.000000
v 0.000289 0.003488 -0.000000
v 0.001406 0.003205 -0.000000
v 0.002370 0.002575 -0.000000
v 0.003078 0.001666 -0.000000
v 0.003452 0.000576 -0.000000
v 0.003452 -0.000576 0.000000
v 0.003078 -0.001666 0.000000
v 0.002370 -0.002575 0.000000
v 0.001406 -0.003205 0.000000
v 0.000289 -0.003488 0.000000
v -0.000859 -0.003393 0.000000
v -0.001914 -0.002930 0.000000
v -0.002762 -0.002150 0.000000
v -0.003310 -0.001136 0.000000
v 0.014500 0.000000 0.015600
v 0.014312 -0.002326 0.015600
v 0.013754 -0.004592 0.015600
v 0.012839 -0.006738 0.015600
v 0.011592 -0.008711 0.015600
v 0.010045 -0.010457 0.015600
v 0.008237 -0.011933 0.015600
v 0.006216 -0.013100 0.015600
v 0.004034 -0.013928 0.015600
v 0.001748 -0.014394 0.015600
v -0.000584 -0.014488 0.015600
v -0.002900 -0.014207 0.015600
v -0.005142 -0.013558 0.015600
v -0.007250 -0.012557 0.015600
v -0.009170 -0.011232 0.015600
v -0.010853 -0.009615 0.015600
v -0.012255 -0.007750 0.015600
v -0.013340 -0.005684 0.015600
v -0.014079 -0.003470 0.015600
v -0.014453 -0.001167 0.015600
v -0.014453 0.001167 0.015600
v -0.014079 0.003470 0.015600
v -0.013340 0.005684 0.015600
v -0.012255 0.007750 0.015600
v -0.010853 0.009615 0.015600
v -0.009170 0.011232 0.015600
v -0.007250 0.012557 0.015600
v -0.005142 0.013558 0.015600
v -0.002900 0.014207 0.015600
v -0.000584 0.014488 0.015600
v 0.001748 0.014394 0.015600
v 0.004034 0.013928 0.015600
v 0.006216 0.013100 0.015600
v 0.008237 0.011933 0.015600
v 0.010045 0.010457 0.015600
v 0.011592 0.008711 0.015600
v 0.012839 0.006738 0.015600
v 0.013754 0.004592 0.015600
v 0.014312 0.002326 0.015600
v 0.014500 0.000000 0.114600
v 0.014312 -0.002326 0.114600
v 0.013754 -0.004592 0.114600
v 0.012839 -0.006738 0.114600
v 0.011592 -0.008711 0.114600
v 0.010045 -0.010457 0.114600
v 0.008237 -0.011933 0.114600
v 0.006216 -0.013100 0.114600
v 0.004034 -0.013928 0.114600
v 0.001748 -0.014394 0.114600
v -0.000584 -0.014488 0.114600
v -0.002900 -0.014207 0.114600
v -0.005142 -0.013558 0.114600
v -0.007250 -0.012557 0.114600
v -0.009170 -0.011232 0.114600
v -0.010853 -0.009615 0.114600
v -0.012255 -0.007750 0.114600
v -0.013340 -0.005684 0.114600
v -0.014079 -0.003470 0.114600
v -0.014453 -0.001167 0.114600
v -0.014453 0.001167 0.114600
v -0.014079 0.003470 0.114600
v -0.013340 0.005684 0.114600
v -0.012255 0.007750 0.114600
v -0.010853 0.009615 0.114600
v -0.009170 0.011232 0.114600
v -0.007250 0.012557 0.114600
v -0.005142 0.013558 0.114600
v -0.002900 0.014207 0.114600
v -0.000584 0.014488 0.114600
v 0.001748 0.014394 0.114600
v 0.004034 0.013928 0.114600
v 0.006216 0.013100 0.114600
v 0.008237 0.011933 0.114600
v 0.010045 0.010457 0.114600
v 0.011592 0.008711 0.114600
v 0.012839 0.006738 0.114600
v 0.013754 0.004592 0.114600
v 0.014312 0.002326 0.114600
v 0.014453 -0.001167 0.065100
v 0.014453 0.001167 0.065100
v 0.014079 0.003470 0.065100
v 0.013340 0.005684 0.065100
v 0.012255 0.007750 0.065100
v 0.010853 0.009615 0.065100
v 0.009170 0.011232 0.065100
v 0.007250 0.012557 0.065100
v 0.005142 0.013558 0.065100
v 0.002900 0.014207 0.065100
v 0.000584 0.014488 0.065100
v -0.001748 0.014394 0.065100
v -0.004034 0.013928 0.065100
v -0.006216 0.013100 0.065100
v -0.008237 0.011933 0.065100
v -0.010045 0.010457 0.065100
v -0.011592 0.008711 0.065100
v -0.012839 0.006738 0.065100
v -0.013754 0.004592 0.065100
v -0.014312 0.002326 0.065100
v -0.014500 0.000000 0.065100
v -0.014312 -0.002326 0.065100
v -0.013754 -0.004592 0.065100
v -0.012839 -0.006738 0.065100
v -0.011592 -0.008711 0.065100
v -0.010045 -0.010457 0.065100
v -0.008237 -0.011933 0.065100
v -0.006216 -0.013100 0.065100
v -0.004034 -0.013928 0.065100
v -0.001748 -0.014394 0.065100
v 0.000584 -0.014488 0.065100
v 0.002900 -0.014207 0.065100
v 0.005142 -0.013558 0.065100
v 0.007250 -0.012557 0.065100
v 0.009170 -0.011232 0.065100
v 0.010853 -0.009615 0.065100
v 0.012255 -0.007750 0.065100
v 0.013340 -0.005684 0.065100
v 0.014079 -0.003470 0.065100
vn -0.0000 -0.0000 1.0000
vn 0.8153 -0.0694 0.5749
vn 0.8153 0.0694 0.5749
vn 0.8037 0.1417 0.5779
vn 0.7918 0.2062 0.5750
vn 0.7457 0.3371 0.5748
vn 0.7068 0.4081 0.5779
vn 0.6778 0.4581 0.5751
vn 0.5908 0.5662 0.5747
vn 0.5246 0.6252 0.5778
vn 0.4864 0.6577 0.5752
vn 0.3684 0.7308 0.5747
vn 0.2792 0.7671 0.5777
vn 0.2395 0.7821 0.5753
vn 0.1040 0.8118 0.5746
vn -0.0000 0.8164 0.5775
vn -0.0347 0.8171 0.5754
vn -0.1724 0.8001 0.5746
vn -0.2793 0.7673 0.5773
vn -0.3049 0.7588 0.5756
vn -0.4291 0.6970 0.5745
vn -0.5250 0.6257 0.5770
vn -0.5402 0.6138 0.5757
vn -0.6368 0.5142 0.5745
vn -0.7075 0.4085 0.5767
vn -0.7137 0.3987 0.5759
vn -0.7718 0.2727 0.5745
vn -0.8048 0.1419 0.5763
vn -0.8056 0.1381 0.5761
vn -0.8185 -0.0000 0.5745
vn -0.8056 -0.1381 0.5761
vn -0.8048 -0.1419 0.5763
vn -0.7718 -0.2727 0.5745
vn -0.7137 -0.3987 0.5759
vn -0.7075 -0.4085 0.5767
vn -0.6368 -0.5142 0.5745
vn -0.5402 -0.6138 0.5757
vn -0.5250 -0.6257 0.5770
vn -0.4291 -0.6970 0.5745
vn -0.3049 -0.7588 0.5756
vn -0.2793 -0.7673 0.5773
vn -0.1724 -0.8001 0.5746
vn -0.0347 -0.8171 0.5754
vn -0.0000 -0.8164 0.5775
vn 0.1040 -0.8118 0.5746
vn 0.2395 -0.7821 0.5753
vn 0.2792 -0.7671 0.5777
vn 0.3684 -0.7308 0.5747
vn 0.4864 -0.6577 0.5752
vn 0.5246 -0.6252 0.5778
vn 0.5908 -0.5662 0.5747
vn 0.6778 -0.4581 0.5751
vn 0.7068 -0.4081 0.5779
vn 0.7457 -0.3371 0.5748
vn 0.7918 -0.2062 0.5750
vn 0.8037 -0.1417 0.5779
vn 0.9964 -0.0848 -0.0000
vn 0.9964 0.0848 -0.0000
vn 0.9677 0.2520 -0.0000
vn 0.9112 0.4119 -0.0000
vn 0.8285 0.5600 -0.0000
vn 0.7220 0.6919 -0.0000
vn 0.5946 0.8040 -0.0000
vn 0.4502 0.8929 -0.0000
vn 0.2928 0.9562 -0.0000
vn 0.1270 0.9919 -0.0000
vn -0.0424 0.9991 -0.0000
vn -0.2107 0.9776 -0.0000
vn -0.3729 0.9279 -0.0000
vn -0.5243 0.8515 -0.0000
vn -0.6607 0.7507 -0.0000
vn -0.7780 0.6282 -0.0000
vn -0.8730 0.4877 -0.0000
vn -0.9429 0.3331 -0.0000
vn -0.9856 0.1690 -0.0000
vn -1.0000 -0.0000 -0.0000
vn -0.9856 -0.1690 -0.0000
vn -0.9429 -0.3331 -0.0000
vn -0.8730 -0.4877 -0.0000
vn -0.7780 -0.6282 -0.0000
vn -0.6607 -0.7507 -0.0000
vn -0.5243 -0.8515 -0.0000
vn -0.3729 -0.9279 -0.0000
vn -0.2107 -0.9776 -0.0000
vn -0.0424 -0.9991 -0.0000
vn 0.1270 -0.9919 -0.0000
vn 0.2928 -0.9562 -0.0000
vn 0.4502 -0.8929 -0.0000
vn 0.5946 -0.8040 -0.0000
vn 0.7220 -0.6919 -0.0000
vn 0.8285 -0.5600 -0.0000
vn 0.9112 -0.4119 -0.0000
vn 0.9677 -0.2520 -0.0000
vn -0.0000 -0.0000 -1.0000
vn 0.8155 -0.0658 -0.5751
vn 0.8161 -0.0000 -0.5779
vn 0.8155 0.0658 -0.5751
vn 0.7944 0.1958 -0.5750
vn 0.7719 0.2650 -0.5779
vn 0.7526 0.3206 -0.5752
vn 0.6916 0.4373 -0.5749
vn 0.6440 0.5013 -0.5779
vn 0.6123 0.5424 -0.5753
vn 0.5175 0.6338 -0.5748
vn 0.4464 0.6833 -0.5778
vn 0.4089 0.7083 -0.5754
vn 0.2902 0.7651 -0.5748
vn 0.2004 0.7913 -0.5776
vn 0.1636 0.8013 -0.5755
vn 0.0330 0.8177 -0.5747
vn -0.0674 0.8136 -0.5775
vn -0.0986 0.8118 -0.5756
vn -0.2277 0.7861 -0.5747
vn -0.3280 0.7478 -0.5773
vn -0.3505 0.7387 -0.5758
vn -0.4649 0.6735 -0.5747
vn -0.5531 0.6009 -0.5770
vn -0.5663 0.5896 -0.5759
vn -0.6543 0.4917 -0.5746
vn -0.7184 0.3888 -0.5768
vn -0.7238 0.3799 -0.5761
vn -0.7763 0.2592 -0.5746
vn -0.8060 0.1345 -0.5765
vn -0.8067 0.1311 -0.5762
vn -0.8184 -0.0000 -0.5746
vn -0.8067 -0.1311 -0.5762
vn -0.8060 -0.1345 -0.5765
vn -0.7763 -0.2592 -0.5746
vn -0.7238 -0.3799 -0.5761
vn -0.7184 -0.3888 -0.5768
vn -0.6543 -0.4917 -0.5746
vn -0.5663 -0.5896 -0.5759
vn -0.5531 -0.6009 -0.5770
vn -0.4649 -0.6735 -0.5747
vn -0.3505 -0.7387 -0.5758
vn -0.3280 -0.7478 -0.5773
vn -0.2277 -0.7861 -0.5747
vn -0.0986 -0.8118 -0.5756
vn -0.0674 -0.8136 -0.5775
vn 0.0330 -0.8177 -0.5747
vn 0.1636 -0.8013 -0.5755
vn 0.2004 -0.7913 -0.5776
vn 0.2902 -0.7651 -0.5748
vn 0.4089 -0.7083 -0.5754
vn 0.4464 -0.6833 -0.5778
vn 0.5175 -0.6338 -0.5748
vn 0.6123 -0.5424 -0.5753
vn 0.6440 -0.5013 -0.5779
vn 0.6916 -0.4373 -0.5749
vn 0.7526 -0.3206 -0.5752
vn 0.7719 -0.2650 -0.5779
vn 0.7944 -0.1958 -0.5750
vn 0.9968 0.0805 -0.0009
vn 1.0000 -0.0000 0.0009
vn 0.9968 -0.0805 -0.0009
vn 0.9870 -0.1604 0.0009
vn 0.9709 -0.2393 -0.0009
vn 0.9485 -0.3167 0.0009
vn 0.9200 -0.3920 -0.0009
vn 0.8855 -0.4647 0.0009
vn 0.8452 -0.5345 -0.0009
vn 0.7994 -0.6007 0.0009
vn 0.7485 -0.6631 -0.0009
vn 0.6927 -0.7212 0.0009
vn 0.6324 -0.7746 -0.0009
vn 0.5681 -0.8230 0.0009
vn 0.5000 -0.8660 -0.0009
vn 0.4287 -0.9034 0.0009
vn 0.3546 -0.9350 -0.0009
vn 0.2782 -0.9605 0.0009
vn 0.2000 -0.9798 -0.0009
vn 0.1205 -0.9927 0.0010
vn 0.0403 -0.9992 -0.0009
vn -0.0403 -0.9992 0.0009
vn -0.1205 -0.9927 -0.0009
vn -0.2000 -0.9798 0.0009
vn -0.2782 -0.9605 -0.0009
vn -0.3546 -0.9350 0.0009
vn -0.4287 -0.9034 -0.0009
vn -0.5000 -0.8660 0.0009
vn -0.5681 -0.8230 -0.0009
vn -0.6324 -0.7746 0.0009
vn -0.6927 -0.7212 -0.0009
vn -0.7485 -0.6631 0.0009
vn -0.7994 -0.6007 -0.0009
vn -0.8452 -0.5345 0.0009
vn -0.8855 -0.4647 -0.0009
vn -0.9200 -0.3920 0.0009
vn -0.9485 -0.3167 -0.0009
vn -0.9709 -0.2393 0.0009
vn -0.9870 -0.1604 -0.0009
vn -0.9968 -0.0805 0.0009
vn -1.0000 -0.0000 -0.0009
vn -0.9968 0.0805 0.0009
vn -0.9870 0.1604 -0.0009
vn -0.9709 0.2393 0.0009
vn -0.9485 0.3167 -0.0009
vn -0.9200 0.3920 0.0009
vn -0.8855 0.4647 -0.0009
vn -0.8452 0.5345 0.0009
vn -0.7994 0.6007 -0.0009
vn -0.7485 0.6631 0.0009
vn -0.6927 0.7212 -0.0009
vn -0.6324 0.7746 0.0009
vn -0.5681 0.8230 -0.0009
vn -0.5000 0.8660 0.0009
vn -0.4287 0.9034 -0.0009
vn -0.3546 0.9350 0.0009
vn -0.2782 0.9605 -0.0009
vn -0.2000 0.9798 0.0009
vn -0.1205 0.9927 -0.0010
vn -0.0403 0.9992 0.0009
vn 0.0403 0.9992 -0.0009
vn 0.1205 0.9927 0.0009
vn 0.2000 0.9798 -0.0009
vn 0.2782 0.9605 0.0009
vn 0.3546 0.9350 -0.0009
vn 0.4287 0.9034 0.0009
vn 0.5000 0.8660 -0.0009
vn 0.5681 0.8230 0.0009
vn 0.6324 0.7746 -0.0009
vn 0.6927 0.7212 0.0009
vn 0.7485 0.6631 -0.0009
vn 0.7994 0.6007 0.0009
vn 0.8452 0.5345 -0.0009
vn 0.8855 0.4647 0.0009
vn 0.9200 0.3920 -0.0009
vn 0.9485 0.3167 0.0009
vn 0.9709 0.2393 -0.0009
vn 0.9870 0.1604 0.0009
vn 0.9968 -0.0805 0.0009
vn 1.0000 -0.0000 -0.0009
vn 0.9968 0.0805 0.0009
vn 0.9870 0.1604 -0.0009
vn 0.9709 0.2393 0.0009
vn 0.9485 0.3167 -0.0009
vn 0.9200 0.3920 0.0009
vn 0.8855 0.4647 -0.0009
vn 0.8452 0.5345 0.0009
vn 0.7994 0.6007 -0.0009
vn 0.7485 0.6631 0.0009
vn 0.6927 0.7212 -0.0009
vn 0.6324 0.7746 0.0009
vn 0.5681 0.8230 -0.0009
vn 0.5000 0.8660 0.0009
vn 0.4287 0.9034 -0.0009
vn 0.3546 0.9350 0.0009
vn 0.2782 0.9605 -0.0009
vn 0.2000 0.9798 0.0009
vn 0.1205 0.9927 -0.0010
vn 0.0403 0.9992 0.0009
vn -0.0403 0.9992 -0.0009
vn -0.1205 0.9927 0.0009
vn -0.2000 0.9798 -0.0009
vn -0.2782 0.9605 0.0009
vn -0.3546 0.9350 -0.0009
vn -0.4287 0.9034 0.0009
vn -0.5000 0.8660 -0.0009
vn -0.5681 0.8230 0.0009
vn -0.6324 0.7746 -0.0009
vn -0.6927 0.7212 0.0009
vn -0.7485 0.6631 -0.0009
vn -0.7994 0.6007 0.0009
vn -0.8452 0.5345 -0.0009
vn -0.8855 0.4647 0.0009
vn -0.9200 0.3920 -0.0009
vn -0.9485 0.3167 0.0009
vn -0.9709 0.2393 -0.0009
vn -0.9870 0.1604 0.0009
vn -0.9968 0.0805 -0.0009
vn -1.0000 -0.0000 0.0009
vn -0.9968 -0.0805 -0.0009
vn -0.9870 -0.1604 0.0009
vn -0.9709 -0.2393 -0.0009
vn -0.9485 -0.3167 0.0009
vn -0.9200 -0.3920 -0.0009
vn -0.8855 -0.4647 0.0009
vn -0.8452 -0.5345 -0.0009
vn -0.7994 -0.6007 0.0009
vn -0.7485 -0.6631 -0.0009
vn -0.6927 -0.7212 0.0009
vn -0.6324 -0.7746 -0.0009
vn -0.5681 -0.8230 0.0009
vn -0.5000 -0.8660 -0.0009
vn -0.4287 -0.9034 0.0009
vn -0.3546 -0.9350 -0.0009
vn -0.2782 -0.9605 0.0009
vn -0.2000 -0.9798 -0.0009
vn -0.1205 -0.9927 0.0010
vn -0.0403 -0.9992 -0.0009
vn 0.0403 -0.9992 0.0009
vn 0.1205 -0.9927 -0.0009
vn 0.2000 -0.9798 0.0009
vn 0.2782 -0.9605 -0.0009
vn 0.3546 -0.9350 0.0009
vn 0.4287 -0.9034 -0.0009
vn 0.5000 -0.8660 0.0009
vn 0.5681 -0.8230 -0.0009
vn 0.6324 -0.7746 0.0009
vn 0.6927 -0.7212 -0.0009
vn 0.7485 -0.6631 0.0009
vn 0.7994 -0.6007 -0.0009
vn 0.8452 -0.5345 0.0009
vn 0.8855 -0.4647 -0.0009
vn 0.9200 -0.3920 0.0009
vn 0.9485 -0.3167 -0.0009
vn 0.9709 -0.2393 0.0009
vn 0.9870 -0.1604 -0.0009
s 0
usemtl Material
f 2//1 9//1 1//1
f 1//1 9//1 10//1
f 1//1 10//1 18//1
f 18//1 10//1 11//1
f 18//1 11//1 17//1
f 17//1 11//1 12//1
f 17//1 12//1 16//1
f 16//1 12//1 13//1
f 16//1 13//1 15//1
f 15//1 13//1 14//1
f 9//1 2//1 8//1
f 8//1 2//1 3//1
f 8//1 3//1 7//1
f 7//1 3//1 4//1
f 7//1 4//1 6//1
f 6//1 4//1 5//1
f 55//2 19//2 1//2
f 1//3 19//3 20//3
f 1//4 20//4 2//4
f 2//5 20//5 21//5
f 2//6 21//6 22//6
f 2//7 22//7 3//7
f 3//8 22//8 23//8
f 3//9 23//9 24//9
f 3//10 24//10 4//10
f 4//11 24//11 25//11
f 4//12 25//12 26//12
f 4//13 26//13 5//13
f 5//14 26//14 27//14
f 5//15 27//15 28//15
f 5//16 28//16 6//16
f 6//17 28//17 29//17
f 6//18 29//18 30//18
f 6//19 30//19 7//19
f 7//20 30//20 31//20
f 7//21 31//21 32//21
f 7//22 32//22 8//22
f 8//23 32//23 33//23
f 8//24 33//24 34//24
f 8//25 34//25 9//25
f 9//26 34//26 35//26
f 9//27 35//27 36//27
f 9//28 36//28 10//28
f 10//29 36//29 37//29
f 10//30 37//30 38//30
f 38//31 39//31 10//31
f 10//32 39//32 11//32
f 11//33 39//33 40//33
f 11//34 40//34 41//34
f 11//35 41//35 12//35
f 12//36 41//36 42//36
f 12//37 42//37 43//37
f 12//38 43//38 13//38
f 13//39 43//39 44//39
f 13//40 44//40 45//40
f 13//41 45//41 14//41
f 14//42 45//42 46//42
f 14//43 46//43 47//43
f 14//44 47//44 15//44
f 15//45 47//45 48//45
f 15//46 48//46 49//46
f 15//47 49//47 16//47
f 16//48 49//48 50//48
f 16//49 50//49 51//49
f 16//50 51//50 17//50
f 17//51 51//51 52//51
f 17//52 52//52 53//52
f 17//53 53//53 18//53
f 18//54 53//54 54//54
f 18//55 54//55 55//55
f 18//56 55//56 1//56
f 55//57 94//57 19//57
f 19//57 94//57 93//57
f 19//58 93//58 20//58
f 20//58 93//58 129//58
f 20//59 129//59 21//59
f 21//59 129//59 128//59
f 21//60 128//60 22//60
f 22//60 128//60 127//60
f 22//61 127//61 23//61
f 23//61 127//61 126//61
f 23//62 126//62 24//62
f 24//62 126//62 125//62
f 24//63 125//63 25//63
f 25//63 125//63 124//63
f 25//64 124//64 26//64
f 26//64 124//64 123//64
f 26//65 123//65 27//65
f 27//65 123//65 122//65
f 27//66 122//66 28//66
f 28//66 122//66 121//66
f 28//67 121//67 29//67
f 29//67 121//67 120//67
f 29//68 120//68 30//68
f 30//68 120//68 119//68
f 30//69 119//69 31//69
f 31//69 119//69 118//69
f 31//70 118//70 32//70
f 32//70 118//70 117//70
f 32//71 117//71 33//71
f 33//71 117//71 116//71
f 33//72 116//72 34//72
f 34//72 116//72 115//72
f 34//73 115//73 35//73
f 35//73 115//73 114//73
f 35//74 114//74 36//74
f 36//74 114//74 113//74
f 36//75 113//75 37//75
f 37//75 113//75 112//75
f 37//76 112//76 38//76
f 38//76 112//76 111//76
f 38//77 111//77 39//77
f 39//77 111//77 110//77
f 39//78 110//78 40//78
f 40//78 110//78 109//78
f 40//79 109//79 41//79
f 41//79 109//79 108//79
f 41//80 108//80 42//80
f 42//80 108//80 107//80
f 42//81 107//81 43//81
f 43//81 107//81 106//81
f 43//82 106//82 44//82
f 44//82 106//82 105//82
f 44//83 105//83 45//83
f 45//83 105//83 104//83
f 45//84 104//84 46//84
f 46//84 104//84 103//84
f 46//85 103//85 47//85
f 47//85 103//85 102//85
f 47//86 102//86 48//86
f 48//86 102//86 101//86
f 48//87 101//87 49//87
f 49//87 101//87 100//87
f 49//88 100//88 50//88
f 50//88 100//88 99//88
f 50//89 99//89 51//89
f 51//89 99//89 98//89
f 51//90 98//90 52//90
f 52//90 98//90 97//90
f 52//91 97//91 53//91
f 53//91 97//91 96//91
f 53//92 96//92 54//92
f 54//92 96//92 95//92
f 54//93 95//93 55//93
f 55//93 95//93 94//93
f 57//58 129//58 56//58
f 56//58 129//58 93//58
f 56//57 93//57 92//57
f 92//57 93//57 94//57
f 92//93 94//93 91//93
f 91//93 94//93 95//93
f 91//92 95//92 90//92
f 90//92 95//92 96//92
f 90//91 96//91 89//91
f 89//91 96//91 97//91
f 89//90 97//90 88//90
f 88//90 97//90 98//90
f 88//89 98//89 87//89
f 87//89 98//89 99//89
f 87//88 99//88 86//88
f 86//88 99//88 100//88
f 86//87 100//87 85//87
f 85//87 100//87 101//87
f 85//86 101//86 84//86
f 84//86 101//86 102//86
f 84//85 102//85 83//85
f 83//85 102//85 103//85
f 83//84 103//84 82//84
f 82//84 103//84 104//84
f 82//83 104//83 81//83
f 81//83 104//83 105//83
f 81//82 105//82 80//82
f 80//82 105//82 106//82
f 80//81 106//81 79//81
f 79//81 106//81 107//81
f 79//80 107//80 78//80
f 78//80 107//80 108//80
f 78//79 108//79 77//79
f 77//79 108//79 109//79
f 77//78 109//78 76//78
f 76//78 109//78 110//78
f 76//77 110//77 75//77
f 75//77 110//77 111//77
f 75//76 111//76 74//76
f 74//76 111//76 112//76
f 74//75 112//75 73//75
f 73//75 112//75 113//75
f 73//74 113//74 72//74
f 72//74 113//74 114//74
f 72//73 114//73 71//73
f 71//73 114//73 115//73
f 71//72 115//72 70//72
f 70//72 115//72 116//72
f 70//71 116//71 69//71
f 69//71 116//71 117//71
f 69//70 117//70 68//70
f 68//70 117//70 118//70
f 68//69 118//69 67//69
f 67//69 118//69 119//69
f 67//68 119//68 66//68
f 66//68 119//68 120//68
f 66//67 120//67 65//67
f 65//67 120//67 121//67
f 65//66 121//66 64//66
f 64//66 121//66 122//66
f 64//65 122//65 63//65
f 63//65 122//65 123//65
f 63//64 123//64 62//64
f 62//64 123//64 124//64
f 62//63 124//63 61//63
f 61//63 124//63 125//63
f 61//62 125//62 60//62
f 60//62 125//62 126//62
f 60//61 126//61 59//61
f 59//61 126//61 127//61
f 59//60 127//60 58//60
f 58//60 127//60 128//60
f 58//59 128//59 57//59
f 57//59 128//59 129//59
f 130//94 131//94 148//94
f 148//94 131//94 132//94
f 148//94 132//94 147//94
f 147//94 132//94 133//94
f 147//94 133//94 146//94
f 146//94 133//94 134//94
f 146//94 134//94 145//94
f 145//94 134//94 135//94
f 145//94 135//94 144//94
f 144//94 135//94 136//94
f 144//94 136//94 137//94
f 137//94 138//94 144//94
f 144//94 138//94 139//94
f 144//94 139//94 140//94
f 140//94 141//94 144//94
f 144//94 141//94 142//94
f 144//94 142//94 143//94
f 150//95 140//95 149//95
f 149//96 140//96 139//96
f 149//97 139//97 187//97
f 187//98 139//98 186//98
f 186//99 139//99 138//99
f 186//100 138//100 185//100
f 185//101 138//101 184//101
f 184//102 138//102 137//102
f 184//103 137//103 183//103
f 183//104 137//104 182//104
f 182//105 137//105 136//105
f 182//106 136//106 181//106
f 181//107 136//107 180//107
f 180//108 136//108 135//108
f 180//109 135//109 179//109
f 179//110 135//110 178//110
f 178//111 135//111 134//111
f 178//112 134//112 177//112
f 177//113 134//113 176//113
f 176//114 134//114 133//114
f 176//115 133//115 175//115
f 175//116 133//116 174//116
f 174//117 133//117 132//117
f 174//118 132//118 173//118
f 173//119 132//119 172//119
f 172//120 132//120 131//120
f 172//121 131//121 171//121
f 171//122 131//122 170//122
f 170//123 131//123 130//123
f 170//124 130//124 169//124
f 169//125 130//125 168//125
f 168//126 130//126 167//126
f 167//127 130//127 148//127
f 167//128 148//128 166//128
f 166//129 148//129 165//129
f 165//130 148//130 147//130
f 165//131 147//131 164//131
f 164//132 147//132 163//132
f 163//133 147//133 146//133
f 163//134 146//134 162//134
f 162//135 146//135 161//135
f 161//136 146//136 145//136
f 161//137 145//137 160//137
f 160//138 145//138 159//138
f 159//139 145//139 144//139
f 159//140 144//140 158//140
f 158//141 144//141 157//141
f 157//142 144//142 143//142
f 157//143 143//143 156//143
f 156//144 143//144 155//144
f 155//145 143//145 142//145
f 155//146 142//146 154//146
f 154//147 142//147 153//147
f 153//148 142//148 141//148
f 153//149 141//149 152//149
f 152//150 141//150 151//150
f 151//151 141//151 140//151
f 151//152 140//152 150//152
f 187//153 228//153 149//153
f 149//154 228//154 227//154
f 149//155 227//155 150//155
f 150//156 227//156 265//156
f 150//157 265//157 151//157
f 151//158 265//158 264//158
f 151//159 264//159 152//159
f 152//160 264//160 263//160
f 152//161 263//161 153//161
f 153//162 263//162 262//162
f 153//163 262//163 154//163
f 154//164 262//164 261//164
f 154//165 261//165 155//165
f 155//166 261//166 260//166
f 155//167 260//167 156//167
f 156//168 260//168 259//168
f 156//169 259//169 157//169
f 157//170 259//170 258//170
f 157//171 258//171 158//171
f 158//172 258//172 257//172
f 158//173 257//173 159//173
f 159//174 257//174 256//174
f 159//175 256//175 160//175
f 160//176 256//176 255//176
f 160//177 255//177 161//177
f 161//178 255//178 254//178
f 161//179 254//179 162//179
f 162//180 254//180 253//180
f 162//181 253//181 163//181
f 163//182 253//182 252//182
f 163//183 252//183 164//183
f 164//184 252//184 251//184
f 164//185 251//185 165//185
f 165//186 251//186 250//186
f 165//187 250//187 166//187
f 166//188 250//188 249//188
f 166//189 249//189 167//189
f 167//190 249//190 248//190
f 167//191 248//191 168//191
f 168//192 248//192 247//192
f 168//193 247//193 169//193
f 169//194 247//194 246//194
f 169//195 246//195 170//195
f 170//196 246//196 245//196
f 170//197 245//197 171//197
f 171//198 245//198 244//198
f 171//199 244//199 172//199
f 172//200 244//200 243//200
f 172//201 243//201 173//201
f 173//202 243//202 242//202
f 173//203 242//203 174//203
f 174//204 242//204 241//204
f 174//205 241//205 175//205
f 175//206 241//206 240//206
f 175//207 240//207 176//207
f 176//208 240//208 239//208
f 176//209 239//209 177//209
f 177//210 239//210 238//210
f 177//211 238//211 178//211
f 178//212 238//212 237//212
f 178//213 237//213 179//213
f 179//214 237//214 236//214
f 179//215 236//215 180//215
f 180//216 236//216 235//216
f 180//217 235//217 181//217
f 181//218 235//218 234//218
f 181//219 234//219 182//219
f 182//220 234//220 233//220
f 182//221 233//221 183//221
f 183//222 233//222 232//222
f 183//223 232//223 184//223
f 184//224 232//224 231//224
f 184//225 231//225 185//225
f 185//226 231//226 230//226
f 185//227 230//227 186//227
f 186//228 230//228 229//228
f 186//229 229//229 187//229
f 187//230 229//230 228//230
f 189//231 227//231 188//231
f 188//232 227//232 228//232
f 188//233 228//233 226//233
f 226//234 228//234 229//234
f 226//235 229//235 225//235
f 225//236 229//236 230//236
f 225//237 230//237 224//237
f 224//238 230//238 231//238
f 224//239 231//239 223//239
f 223//240 231//240 232//240
f 223//241 232//241 222//241
f 222//242 232//242 233//242
f 222//243 233//243 221//243
f 221//244 233//244 234//244
f 221//245 234//245 220//245
f 220//246 234//246 235//246
f 220//247 235//247 219//247
f 219//248 235//248 236//248
f 219//249 236//249 218//249
f 218//250 236//250 237//250
f 218//251 237//251 217//251
f 217//252 237//252 238//252
f 217//253 238//253 216//253
f 216//254 238//254 239//254
f 216//255 239//255 215//255
f 215//256 239//256 240//256
f 215//257 240//257 214//257
f 214//258 240//258 241//258
f 214//259 241//259 213//259
f 213//260 241//260 242//260
f 213//261 242//261 212//261
f 212//262 242//262 243//262
f 212//263 243//263 211//263
f 211//264 243//264 244//264
f 211//265 244//265 210//265
f 210//266 244//266 245//266
f 210//267 245//267 209//267
f 209//268 245//268 246//268
f 209//269 246//269 208//269
f 208//270 246//270 247//270
f 208//271 247//271 207//271
f 207//272 247//272 248//272
f 207//273 248//273 206//273
f 206//274 248//274 249//274
f 206//275 249//275 205//275
f 205//276 249//276 250//276
f 205//277 250//277 204//277
f 204//278 250//278 251//278
f 204//279 251//279 203//279
f 203//280 251//280 252//280
f 203//281 252//281 202//281
f 202//282 252//282 253//282
f 202//283 253//283 201//283
f 201//284 253//284 254//284
f 201//285 254//285 200//285
f 200//286 254//286 255//286
f 200//287 255//287 199//287
f 199//288 255//288 256//288
f 199//289 256//289 198//289
f 198//290 256//290 257//290
f 198//291 257//291 197//291
f 197//292 257//292 258//292
f 197//293 258//293 196//293
f 196//294 258//294 259//294
f 196//295 259//295 195//295
f 195//296 259//296 260//296
f 195//297 260//297 194//297
f 194//298 260//298 261//298
f 194//299 261//299 193//299
f 193//300 261//300 262//300
f 193//301 262//301 192//301
f 192//302 262//302 263//302
f 192//303 263//303 191//303
f 191//304 263//304 264//304
f 191//305 264//305 190//305
f 190//306 264//306 265//306
f 190//307 265//307 189//307
f 189//308 265//308 227//308
f 92//1 208//1 56//1
f 56//1 208//1 207//1
f 56//1 207//1 57//1
f 57//1 207//1 206//1
f 57//1 206//1 58//1
f 58//1 206//1 205//1
f 58//1 205//1 59//1
f 59//1 205//1 204//1
f 59//1 204//1 60//1
f 60//1 204//1 203//1
f 60//1 203//1 61//1
f 61//1 203//1 202//1
f 61//1 202//1 62//1
f 62//1 202//1 201//1
f 62//1 201//1 63//1
f 63//1 201//1 200//1
f 63//1 200//1 64//1
f 64//1 200//1 199//1
f 64//1 199//1 65//1
f 65//1 199//1 198//1
f 65//1 198//1 197//1
f 208//1 92//1 209//1
f 209//1 92//1 91//1
f 209//1 91//1 210//1
f 210//1 91//1 90//1
f 210//1 90//1 211//1
f 211//1 90//1 89//1
f 211//1 89//1 212//1
f 212//1 89//1 88//1
f 212//1 88//1 213//1
f 213//1 88//1 87//1
f 213//1 87//1 214//1
f 214//1 87//1 86//1
f 214//1 86//1 215//1
f 215//1 86//1 85//1
f 215//1 85//1 216//1
f 216//1 85//1 84//1
f 216//1 84//1 217//1
f 217//1 84//1 218//1
f 218//1 84//1 83//1
f 218//1 83//1 219//1
f 219//1 83//1 82//1
f 219//1 82//1 220//1
f 220//1 82//1 81//1
f 220//1 81//1 221//1
f 221//1 81//1 80//1
f 221//1 80//1 222//1
f 222//1 80//1 79//1
f 222//1 79//1 223//1
f 223//1 79//1 78//1
f 223//1 78//1 224//1
f 224//1 78//1 77//1
f 224//1 77//1 225//1
f 225//1 77//1 76//1
f 225//1 76//1 226//1
f 226//1 76//1 75//1
f 226//1 75//1 188//1
f 188//1 75//1 74//1
f 188//1 74//1 189//1
f 189//1 74//1 73//1
f 189//1 73//1 190//1
f 190//1 73//1 72//1
f 190//1 72//1 191//1
f 191//1 72//1 71//1
f 191//1 71//1 192//1
f 192//1 71//1 70//1
f 192//1 70//1 193//1
f 193//1 70//1 69//1
f 193//1 69//1 194//1
f 194//1 69//1 68//1
f 194//1 68//1 195//1
f 195//1 68//1 67//1
f 195//1 67//1 196//1
f 196//1 67//1 66//1
f 196//1 66//1 197//1
f 197//1 66//1 65//1
