# Blender v3.0.1 OBJ File: '物料托盘.blend'
# www.blender.org
mtllib textured.mtl
o 木制托盘_立方体.002
v 0.199000 -0.160000 0.029000
v 0.200000 -0.159000 0.029000
v 0.199000 -0.159000 0.030000
v 0.200000 -0.141000 0.029000
v 0.199000 -0.140000 0.029000
v 0.199000 -0.141000 0.030000
v 0.200000 -0.141000 0.001000
v 0.199000 -0.141000 0.000000
v 0.199000 -0.140000 0.001000
v 0.200000 -0.159000 0.001000
v 0.199000 -0.160000 0.001000
v 0.199000 -0.159000 0.000000
v -0.200000 -0.141000 0.029000
v -0.199000 -0.141000 0.030000
v -0.199000 -0.140000 0.029000
v -0.200000 -0.159000 0.029000
v -0.199000 -0.160000 0.029000
v -0.199000 -0.159000 0.030000
v -0.199000 -0.160000 0.001000
v -0.200000 -0.159000 0.001000
v -0.199000 -0.159000 0.000000
v -0.200000 -0.141000 0.001000
v -0.199000 -0.140000 0.001000
v -0.199000 -0.141000 0.000000
v 0.199000 -0.160000 0.019667
v 0.199000 -0.160000 0.010333
v 0.200000 -0.159000 0.010333
v 0.200000 -0.159000 0.019667
v 0.199000 -0.140000 0.010333
v 0.199000 -0.140000 0.019667
v 0.200000 -0.141000 0.019667
v 0.200000 -0.141000 0.010333
v -0.199000 -0.160000 0.010333
v -0.199000 -0.160000 0.019667
v -0.200000 -0.159000 0.019667
v -0.200000 -0.159000 0.010333
v -0.199000 -0.140000 0.019667
v -0.199000 -0.140000 0.010333
v -0.200000 -0.141000 0.010333
v -0.200000 -0.141000 0.019667
v -0.175420 -0.199780 0.031000
v -0.175444 -0.198729 0.030000
v -0.174444 -0.199000 0.031000
v -0.213444 -0.199179 0.030000
v -0.213469 -0.200220 0.031000
v -0.214444 -0.199000 0.031000
v -0.213444 -0.199179 0.036000
v -0.214444 -0.199000 0.035000
v -0.213469 -0.200220 0.035000
v -0.175420 -0.199780 0.035000
v -0.174444 -0.199000 0.035000
v -0.175444 -0.198729 0.036000
v -0.201111 -0.201953 0.030000
v -0.201111 -0.203000 0.031000
v -0.187778 -0.197000 0.031000
v -0.187778 -0.195953 0.030000
v -0.201111 -0.203000 0.035000
v -0.201111 -0.201953 0.036000
v -0.187778 -0.195953 0.036000
v -0.187778 -0.197000 0.035000
v -0.119864 -0.199780 0.031000
v -0.119889 -0.198729 0.030000
v -0.118889 -0.199000 0.031000
v -0.157889 -0.199179 0.030000
v -0.157913 -0.200220 0.031000
v -0.158889 -0.199000 0.031000
v -0.157889 -0.199179 0.036000
v -0.158889 -0.199000 0.035000
v -0.157913 -0.200220 0.035000
v -0.119864 -0.199780 0.035000
v -0.118889 -0.199000 0.035000
v -0.119889 -0.198729 0.036000
v -0.145555 -0.201953 0.030000
v -0.145555 -0.203000 0.031000
v -0.132222 -0.197000 0.031000
v -0.132222 -0.195953 0.030000
v -0.145555 -0.203000 0.035000
v -0.145555 -0.201953 0.036000
v -0.132222 -0.195953 0.036000
v -0.132222 -0.197000 0.035000
v -0.064309 -0.199780 0.031000
v -0.064333 -0.198729 0.030000
v -0.063333 -0.199000 0.031000
v -0.102333 -0.199179 0.030000
v -0.102358 -0.200220 0.031000
v -0.103333 -0.199000 0.031000
v -0.102333 -0.199179 0.036000
v -0.103333 -0.199000 0.035000
v -0.102358 -0.200220 0.035000
v -0.064309 -0.199780 0.035000
v -0.063333 -0.199000 0.035000
v -0.064333 -0.198729 0.036000
v -0.090000 -0.201953 0.030000
v -0.090000 -0.203000 0.031000
v -0.076667 -0.197000 0.031000
v -0.076667 -0.195953 0.030000
v -0.090000 -0.203000 0.035000
v -0.090000 -0.201953 0.036000
v -0.076667 -0.195953 0.036000
v -0.076667 -0.197000 0.035000
v -0.008753 -0.199780 0.031000
v -0.008778 -0.198729 0.030000
v -0.007778 -0.199000 0.031000
v -0.046778 -0.199179 0.030000
v -0.046802 -0.200220 0.031000
v -0.047778 -0.199000 0.031000
v -0.046778 -0.199179 0.036000
v -0.047778 -0.199000 0.035000
v -0.046802 -0.200220 0.035000
v -0.008753 -0.199780 0.035000
v -0.007778 -0.199000 0.035000
v -0.008778 -0.198729 0.036000
v -0.034444 -0.201953 0.030000
v -0.034444 -0.203000 0.031000
v -0.021111 -0.197000 0.031000
v -0.021111 -0.195953 0.030000
v -0.034444 -0.203000 0.035000
v -0.034444 -0.201953 0.036000
v -0.021111 -0.195953 0.036000
v -0.021111 -0.197000 0.035000
v 0.046802 -0.199780 0.031000
v 0.046778 -0.198729 0.030000
v 0.047778 -0.199000 0.031000
v 0.008778 -0.199179 0.030000
v 0.008754 -0.200220 0.031000
v 0.007778 -0.199000 0.031000
v 0.008778 -0.199179 0.036000
v 0.007778 -0.199000 0.035000
v 0.008754 -0.200220 0.035000
v 0.046802 -0.199780 0.035000
v 0.047778 -0.199000 0.035000
v 0.046778 -0.198729 0.036000
v 0.021111 -0.201953 0.030000
v 0.021111 -0.203000 0.031000
v 0.034445 -0.197000 0.031000
v 0.034445 -0.195953 0.030000
v 0.021111 -0.203000 0.035000
v 0.021111 -0.201953 0.036000
v 0.034445 -0.195953 0.036000
v 0.034445 -0.197000 0.035000
v 0.102358 -0.199780 0.031000
v 0.102334 -0.198729 0.030000
v 0.103334 -0.199000 0.031000
v 0.064334 -0.199179 0.030000
v 0.064309 -0.200220 0.031000
v 0.063334 -0.199000 0.031000
v 0.064334 -0.199179 0.036000
v 0.063334 -0.199000 0.035000
v 0.064309 -0.200220 0.035000
v 0.102358 -0.199780 0.035000
v 0.103334 -0.199000 0.035000
v 0.102334 -0.198729 0.036000
v 0.076667 -0.201953 0.030000
v 0.076667 -0.203000 0.031000
v 0.090000 -0.197000 0.031000
v 0.090000 -0.195953 0.030000
v 0.076667 -0.203000 0.035000
v 0.076667 -0.201953 0.036000
v 0.090000 -0.195953 0.036000
v 0.090000 -0.197000 0.035000
v 0.157914 -0.199780 0.031000
v 0.157889 -0.198729 0.030000
v 0.158889 -0.199000 0.031000
v 0.119889 -0.199179 0.030000
v 0.119865 -0.200220 0.031000
v 0.118889 -0.199000 0.031000
v 0.119889 -0.199179 0.036000
v 0.118889 -0.199000 0.035000
v 0.119865 -0.200220 0.035000
v 0.157914 -0.199780 0.035000
v 0.158889 -0.199000 0.035000
v 0.157889 -0.198729 0.036000
v 0.132223 -0.201953 0.030000
v 0.132223 -0.203000 0.031000
v 0.145556 -0.197000 0.031000
v 0.145556 -0.195953 0.030000
v 0.132223 -0.203000 0.035000
v 0.132223 -0.201953 0.036000
v 0.145556 -0.195953 0.036000
v 0.145556 -0.197000 0.035000
v 0.213469 -0.199780 0.031000
v 0.213445 -0.198729 0.030000
v 0.214445 -0.199000 0.031000
v 0.175445 -0.199179 0.030000
v 0.175420 -0.200220 0.031000
v 0.174445 -0.199000 0.031000
v 0.175445 -0.199179 0.036000
v 0.174445 -0.199000 0.035000
v 0.175420 -0.200220 0.035000
v 0.213469 -0.199780 0.035000
v 0.214445 -0.199000 0.035000
v 0.213445 -0.198729 0.036000
v 0.187778 -0.201953 0.030000
v 0.187778 -0.203000 0.031000
v 0.201111 -0.197000 0.031000
v 0.201111 -0.195953 0.030000
v 0.187778 -0.203000 0.035000
v 0.187778 -0.201953 0.036000
v 0.201111 -0.195953 0.036000
v 0.201111 -0.197000 0.035000
v -0.213444 0.000000 0.030000
v -0.214444 0.000000 0.031000
v -0.175444 0.000000 0.030000
v -0.174444 0.000000 0.031000
v -0.214444 0.000000 0.035000
v -0.213444 0.000000 0.036000
v -0.174444 0.000000 0.035000
v -0.175444 0.000000 0.036000
v -0.201111 0.000000 0.030000
v -0.187778 0.000000 0.030000
v -0.187778 0.000000 0.036000
v -0.201111 0.000000 0.036000
v -0.157889 0.000000 0.030000
v -0.158889 0.000000 0.031000
v -0.119889 0.000000 0.030000
v -0.118889 0.000000 0.031000
v -0.158889 0.000000 0.035000
v -0.157889 0.000000 0.036000
v -0.118889 0.000000 0.035000
v -0.119889 0.000000 0.036000
v -0.145555 0.000000 0.030000
v -0.132222 0.000000 0.030000
v -0.132222 0.000000 0.036000
v -0.145555 0.000000 0.036000
v -0.102333 0.000000 0.030000
v -0.103333 0.000000 0.031000
v -0.064333 0.000000 0.030000
v -0.063333 0.000000 0.031000
v -0.103333 0.000000 0.035000
v -0.102333 0.000000 0.036000
v -0.063333 0.000000 0.035000
v -0.064333 0.000000 0.036000
v -0.090000 0.000000 0.030000
v -0.076667 0.000000 0.030000
v -0.076667 0.000000 0.036000
v -0.090000 0.000000 0.036000
v -0.046778 0.000000 0.030000
v -0.047778 0.000000 0.031000
v -0.008778 0.000000 0.030000
v -0.007778 0.000000 0.031000
v -0.047778 0.000000 0.035000
v -0.046778 0.000000 0.036000
v -0.007778 0.000000 0.035000
v -0.008778 0.000000 0.036000
v -0.034444 0.000000 0.030000
v -0.021111 0.000000 0.030000
v -0.021111 0.000000 0.036000
v -0.034444 0.000000 0.036000
v 0.008778 0.000000 0.030000
v 0.007778 0.000000 0.031000
v 0.046778 0.000000 0.030000
v 0.047778 0.000000 0.031000
v 0.007778 0.000000 0.035000
v 0.008778 0.000000 0.036000
v 0.047778 0.000000 0.035000
v 0.046778 0.000000 0.036000
v 0.021111 0.000000 0.030000
v 0.034445 0.000000 0.030000
v 0.034445 0.000000 0.036000
v 0.021111 0.000000 0.036000
v 0.064334 0.000000 0.030000
v 0.063334 0.000000 0.031000
v 0.102334 0.000000 0.030000
v 0.103334 0.000000 0.031000
v 0.063334 0.000000 0.035000
v 0.064334 0.000000 0.036000
v 0.103334 0.000000 0.035000
v 0.102334 0.000000 0.036000
v 0.076667 0.000000 0.030000
v 0.090000 0.000000 0.030000
v 0.090000 0.000000 0.036000
v 0.076667 0.000000 0.036000
v 0.175445 0.000000 0.030000
v 0.174445 0.000000 0.031000
v 0.213445 0.000000 0.030000
v 0.214445 0.000000 0.031000
v 0.174445 0.000000 0.035000
v 0.175445 0.000000 0.036000
v 0.214445 0.000000 0.035000
v 0.213445 0.000000 0.036000
v 0.187778 0.000000 0.030000
v 0.201111 0.000000 0.030000
v 0.201111 0.000000 0.036000
v 0.187778 0.000000 0.036000
v 0.119889 0.000000 0.030000
v 0.118889 0.000000 0.031000
v 0.157889 0.000000 0.030000
v 0.158889 0.000000 0.031000
v 0.118889 0.000000 0.035000
v 0.119889 0.000000 0.036000
v 0.158889 0.000000 0.035000
v 0.157889 0.000000 0.036000
v 0.132223 0.000000 0.030000
v 0.145556 0.000000 0.030000
v 0.145556 0.000000 0.036000
v 0.132223 0.000000 0.036000
v 0.199000 0.160000 0.029000
v 0.200000 0.159000 0.029000
v 0.199000 0.159000 0.030000
v 0.200000 0.141000 0.029000
v 0.199000 0.140000 0.029000
v 0.199000 0.141000 0.030000
v 0.200000 0.141000 0.001000
v 0.199000 0.141000 0.000000
v 0.199000 0.140000 0.001000
v 0.200000 0.159000 0.001000
v 0.199000 0.160000 0.001000
v 0.199000 0.159000 0.000000
v -0.200000 0.141000 0.029000
v -0.199000 0.141000 0.030000
v -0.199000 0.140000 0.029000
v -0.200000 0.159000 0.029000
v -0.199000 0.160000 0.029000
v -0.199000 0.159000 0.030000
v -0.199000 0.160000 0.001000
v -0.200000 0.159000 0.001000
v -0.199000 0.159000 0.000000
v -0.200000 0.141000 0.001000
v -0.199000 0.140000 0.001000
v -0.199000 0.141000 0.000000
v 0.199000 0.160000 0.019667
v 0.199000 0.160000 0.010333
v 0.200000 0.159000 0.010333
v 0.200000 0.159000 0.019667
v 0.199000 0.140000 0.010333
v 0.199000 0.140000 0.019667
v 0.200000 0.141000 0.019667
v 0.200000 0.141000 0.010333
v -0.199000 0.160000 0.010333
v -0.199000 0.160000 0.019667
v -0.200000 0.159000 0.019667
v -0.200000 0.159000 0.010333
v -0.199000 0.140000 0.019667
v -0.199000 0.140000 0.010333
v -0.200000 0.141000 0.010333
v -0.200000 0.141000 0.019667
v -0.175420 0.199780 0.031000
v -0.175444 0.198729 0.030000
v -0.174444 0.199000 0.031000
v -0.213444 0.199179 0.030000
v -0.213469 0.200220 0.031000
v -0.214444 0.199000 0.031000
v -0.213444 0.199179 0.036000
v -0.214444 0.199000 0.035000
v -0.213469 0.200220 0.035000
v -0.175420 0.199780 0.035000
v -0.174444 0.199000 0.035000
v -0.175444 0.198729 0.036000
v -0.201111 0.201953 0.030000
v -0.201111 0.203000 0.031000
v -0.187778 0.197000 0.031000
v -0.187778 0.195953 0.030000
v -0.201111 0.203000 0.035000
v -0.201111 0.201953 0.036000
v -0.187778 0.195953 0.036000
v -0.187778 0.197000 0.035000
v -0.119864 0.199780 0.031000
v -0.119889 0.198729 0.030000
v -0.118889 0.199000 0.031000
v -0.157889 0.199179 0.030000
v -0.157913 0.200220 0.031000
v -0.158889 0.199000 0.031000
v -0.157889 0.199179 0.036000
v -0.158889 0.199000 0.035000
v -0.157913 0.200220 0.035000
v -0.119864 0.199780 0.035000
v -0.118889 0.199000 0.035000
v -0.119889 0.198729 0.036000
v -0.145555 0.201953 0.030000
v -0.145555 0.203000 0.031000
v -0.132222 0.197000 0.031000
v -0.132222 0.195953 0.030000
v -0.145555 0.203000 0.035000
v -0.145555 0.201953 0.036000
v -0.132222 0.195953 0.036000
v -0.132222 0.197000 0.035000
v -0.064309 0.199780 0.031000
v -0.064333 0.198729 0.030000
v -0.063333 0.199000 0.031000
v -0.102333 0.199179 0.030000
v -0.102358 0.200220 0.031000
v -0.103333 0.199000 0.031000
v -0.102333 0.199179 0.036000
v -0.103333 0.199000 0.035000
v -0.102358 0.200220 0.035000
v -0.064309 0.199780 0.035000
v -0.063333 0.199000 0.035000
v -0.064333 0.198729 0.036000
v -0.090000 0.201953 0.030000
v -0.090000 0.203000 0.031000
v -0.076667 0.197000 0.031000
v -0.076667 0.195953 0.030000
v -0.090000 0.203000 0.035000
v -0.090000 0.201953 0.036000
v -0.076667 0.195953 0.036000
v -0.076667 0.197000 0.035000
v -0.008753 0.199780 0.031000
v -0.008778 0.198729 0.030000
v -0.007778 0.199000 0.031000
v -0.046778 0.199179 0.030000
v -0.046802 0.200220 0.031000
v -0.047778 0.199000 0.031000
v -0.046778 0.199179 0.036000
v -0.047778 0.199000 0.035000
v -0.046802 0.200220 0.035000
v -0.008753 0.199780 0.035000
v -0.007778 0.199000 0.035000
v -0.008778 0.198729 0.036000
v -0.034444 0.201953 0.030000
v -0.034444 0.203000 0.031000
v -0.021111 0.197000 0.031000
v -0.021111 0.195953 0.030000
v -0.034444 0.203000 0.035000
v -0.034444 0.201953 0.036000
v -0.021111 0.195953 0.036000
v -0.021111 0.197000 0.035000
v 0.046802 0.199780 0.031000
v 0.046778 0.198729 0.030000
v 0.047778 0.199000 0.031000
v 0.008778 0.199179 0.030000
v 0.008754 0.200220 0.031000
v 0.007778 0.199000 0.031000
v 0.008778 0.199179 0.036000
v 0.007778 0.199000 0.035000
v 0.008754 0.200220 0.035000
v 0.046802 0.199780 0.035000
v 0.047778 0.199000 0.035000
v 0.046778 0.198729 0.036000
v 0.021111 0.201953 0.030000
v 0.021111 0.203000 0.031000
v 0.034445 0.197000 0.031000
v 0.034445 0.195953 0.030000
v 0.021111 0.203000 0.035000
v 0.021111 0.201953 0.036000
v 0.034445 0.195953 0.036000
v 0.034445 0.197000 0.035000
v 0.102358 0.199780 0.031000
v 0.102334 0.198729 0.030000
v 0.103334 0.199000 0.031000
v 0.064334 0.199179 0.030000
v 0.064309 0.200220 0.031000
v 0.063334 0.199000 0.031000
v 0.064334 0.199179 0.036000
v 0.063334 0.199000 0.035000
v 0.064309 0.200220 0.035000
v 0.102358 0.199780 0.035000
v 0.103334 0.199000 0.035000
v 0.102334 0.198729 0.036000
v 0.076667 0.201953 0.030000
v 0.076667 0.203000 0.031000
v 0.090000 0.197000 0.031000
v 0.090000 0.195953 0.030000
v 0.076667 0.203000 0.035000
v 0.076667 0.201953 0.036000
v 0.090000 0.195953 0.036000
v 0.090000 0.197000 0.035000
v 0.157914 0.199780 0.031000
v 0.157889 0.198729 0.030000
v 0.158889 0.199000 0.031000
v 0.119889 0.199179 0.030000
v 0.119865 0.200220 0.031000
v 0.118889 0.199000 0.031000
v 0.119889 0.199179 0.036000
v 0.118889 0.199000 0.035000
v 0.119865 0.200220 0.035000
v 0.157914 0.199780 0.035000
v 0.158889 0.199000 0.035000
v 0.157889 0.198729 0.036000
v 0.132223 0.201953 0.030000
v 0.132223 0.203000 0.031000
v 0.145556 0.197000 0.031000
v 0.145556 0.195953 0.030000
v 0.132223 0.203000 0.035000
v 0.132223 0.201953 0.036000
v 0.145556 0.195953 0.036000
v 0.145556 0.197000 0.035000
v 0.213469 0.199780 0.031000
v 0.213445 0.198729 0.030000
v 0.214445 0.199000 0.031000
v 0.175445 0.199179 0.030000
v 0.175420 0.200220 0.031000
v 0.174445 0.199000 0.031000
v 0.175445 0.199179 0.036000
v 0.174445 0.199000 0.035000
v 0.175420 0.200220 0.035000
v 0.213469 0.199780 0.035000
v 0.214445 0.199000 0.035000
v 0.213445 0.198729 0.036000
v 0.187778 0.201953 0.030000
v 0.187778 0.203000 0.031000
v 0.201111 0.197000 0.031000
v 0.201111 0.195953 0.030000
v 0.187778 0.203000 0.035000
v 0.187778 0.201953 0.036000
v 0.201111 0.195953 0.036000
v 0.201111 0.197000 0.035000
vt 0.091943 0.593607
vt 0.072440 0.593607
vt 0.072440 0.005508
vt 0.091943 0.005508
vt 0.204401 0.884632
vt 0.204401 0.904136
vt 0.177804 0.904136
vt 0.177804 0.884632
vt 0.177851 0.004643
vt 0.177851 0.836339
vt 0.140236 0.836339
vt 0.140236 0.004643
vt 0.024147 0.698292
vt 0.004643 0.698292
vt 0.004643 0.005450
vt 0.024147 0.005450
vt 0.141092 0.865129
vt 0.141092 0.845625
vt 0.169742 0.845625
vt 0.169742 0.865129
vt 0.063154 0.005450
vt 0.063154 0.002553
vt 0.065244 0.004294
vt 0.177804 0.845625
vt 0.174849 0.845625
vt 0.176326 0.843535
vt 0.176326 0.906226
vt 0.174849 0.904136
vt 0.004643 0.002553
vt 0.002553 0.004294
vt 0.130951 0.002553
vt 0.133041 0.004031
vt 0.130951 0.005508
vt 0.138147 0.845625
vt 0.139738 0.843535
vt 0.138147 0.904136
vt 0.141092 0.904136
vt 0.139738 0.906226
vt 0.072440 0.002553
vt 0.070350 0.004031
vt 0.187136 0.002553
vt 0.224751 0.002553
vt 0.224751 0.004643
vt 0.187136 0.004643
vt 0.226841 0.004643
vt 0.226840 0.836339
vt 0.224751 0.836339
vt 0.224751 0.838429
vt 0.187136 0.838429
vt 0.187136 0.836339
vt 0.185047 0.836339
vt 0.185047 0.004643
vt 0.140236 0.002553
vt 0.177851 0.002553
vt 0.179941 0.004643
vt 0.179941 0.836339
vt 0.177851 0.838429
vt 0.140236 0.838429
vt 0.138147 0.836339
vt 0.138147 0.004643
vt 0.024147 0.002553
vt 0.174849 0.865129
vt 0.177804 0.865129
vt 0.138147 0.865129
vt 0.091943 0.002553
vt 0.111447 0.005508
vt 0.111447 0.002553
vt 0.138147 0.884632
vt 0.141092 0.884632
vt 0.174849 0.884632
vt 0.043650 0.005450
vt 0.043650 0.002553
vt 0.169742 0.884632
vt 0.169742 0.904136
vt 0.063154 0.698292
vt 0.043650 0.698292
vt 0.204401 0.845625
vt 0.204401 0.865129
vt 0.130951 0.593607
vt 0.111447 0.593607
vt 0.329453 0.861179
vt 0.329453 0.882338
vt 0.321095 0.882338
vt 0.321095 0.861179
vt 0.579526 0.431866
vt 0.579526 0.848088
vt 0.553753 0.853885
vt 0.553753 0.431866
vt 0.978875 0.023711
vt 0.978875 0.002553
vt 0.987234 0.002553
vt 0.987234 0.023711
vt 0.376366 0.002553
vt 0.402138 0.002553
vt 0.402138 0.417835
vt 0.376365 0.412034
vt 0.053396 0.812788
vt 0.053396 0.842935
vt 0.045037 0.842935
vt 0.045037 0.812788
vt 0.525890 0.431866
vt 0.525890 0.841347
vt 0.500118 0.847148
vt 0.500118 0.431866
vt 0.348503 0.002553
vt 0.348503 0.424572
vt 0.978875 0.343715
vt 0.978875 0.026973
vt 0.987234 0.026973
vt 0.987234 0.343715
vt 0.063192 0.837356
vt 0.062019 0.839446
vt 0.060592 0.837356
vt 0.976785 0.025335
vt 0.989323 0.025335
vt 0.063192 0.828997
vt 0.060592 0.828997
vt 0.062019 0.826908
vt 0.322730 0.002553
vt 0.322730 0.418775
vt 0.320640 0.418401
vt 0.320640 0.002553
vt 0.402189 0.420032
vt 0.376365 0.414222
vt 0.581616 0.431866
vt 0.581616 0.847714
vt 0.525890 0.843535
vt 0.500067 0.849345
vt 0.348503 0.426760
vt 0.322679 0.420950
vt 0.055486 0.813999
vt 0.055486 0.844146
vt 0.579577 0.850263
vt 0.553753 0.856073
vt 0.042948 0.844146
vt 0.042948 0.813999
vt 0.275594 0.861179
vt 0.275594 0.882338
vt 0.267235 0.882338
vt 0.267235 0.861179
vt 0.490832 0.431866
vt 0.490832 0.848088
vt 0.465059 0.853885
vt 0.465059 0.431866
vt 0.943586 0.369980
vt 0.943586 0.348821
vt 0.951945 0.348821
vt 0.951945 0.369980
vt 0.642447 0.431866
vt 0.668220 0.431866
vt 0.668220 0.847148
vt 0.642447 0.841347
vt 0.219956 0.843535
vt 0.219956 0.873682
vt 0.211597 0.873682
vt 0.211597 0.843535
vt 0.437197 0.431866
vt 0.437197 0.841347
vt 0.411424 0.847148
vt 0.411424 0.431866
vt 0.614584 0.431866
vt 0.614584 0.853885
vt 0.943586 0.689984
vt 0.943586 0.373242
vt 0.951945 0.373242
vt 0.951945 0.689984
vt 0.063193 0.731490
vt 0.062019 0.733580
vt 0.060592 0.731490
vt 0.941497 0.371603
vt 0.954035 0.371603
vt 0.063193 0.723132
vt 0.060592 0.723132
vt 0.062019 0.721042
vt 0.588811 0.431866
vt 0.588811 0.848088
vt 0.586722 0.847714
vt 0.586722 0.431866
vt 0.668270 0.849345
vt 0.642447 0.843535
vt 0.492922 0.431866
vt 0.492922 0.847714
vt 0.437197 0.843535
vt 0.411373 0.849345
vt 0.614584 0.856073
vt 0.588760 0.850263
vt 0.222046 0.844746
vt 0.222046 0.874892
vt 0.490883 0.850263
vt 0.465059 0.856073
vt 0.209507 0.874892
vt 0.209507 0.844746
vt 0.302524 0.861179
vt 0.302524 0.882338
vt 0.294165 0.882338
vt 0.294165 0.861179
vt 0.402138 0.431866
vt 0.402138 0.848088
vt 0.376365 0.853885
vt 0.376366 0.431866
vt 0.943586 0.023711
vt 0.943586 0.002553
vt 0.951945 0.002553
vt 0.951945 0.023711
vt 0.819834 0.431866
vt 0.845607 0.431866
vt 0.845607 0.847148
vt 0.819834 0.841347
vt 0.053396 0.849252
vt 0.053396 0.879398
vt 0.045037 0.879398
vt 0.045037 0.849252
vt 0.348503 0.431866
vt 0.348503 0.841347
vt 0.322730 0.847148
vt 0.322730 0.431866
vt 0.791972 0.431866
vt 0.791972 0.853885
vt 0.943586 0.343715
vt 0.943586 0.026973
vt 0.951945 0.026973
vt 0.951945 0.343715
vt 0.063193 0.819712
vt 0.062019 0.821801
vt 0.060592 0.819712
vt 0.941497 0.025335
vt 0.954035 0.025335
vt 0.063193 0.811353
vt 0.060592 0.811353
vt 0.062019 0.809263
vt 0.766199 0.431866
vt 0.766199 0.848088
vt 0.764109 0.847714
vt 0.764109 0.431866
vt 0.845658 0.849345
vt 0.819834 0.843535
vt 0.404228 0.431866
vt 0.404228 0.847714
vt 0.348503 0.843535
vt 0.322679 0.849345
vt 0.791972 0.856073
vt 0.766148 0.850263
vt 0.055486 0.850462
vt 0.055486 0.880609
vt 0.402189 0.850263
vt 0.376365 0.856073
vt 0.042948 0.880609
vt 0.042948 0.850462
vt 0.342918 0.861179
vt 0.342918 0.882338
vt 0.334559 0.882338
vt 0.334559 0.861179
vt 0.313445 0.431866
vt 0.313445 0.848088
vt 0.287672 0.853885
vt 0.287672 0.431866
vt 0.961231 0.369980
vt 0.961231 0.348821
vt 0.969590 0.348821
vt 0.969590 0.369980
vt 0.819834 0.002553
vt 0.845607 0.002553
vt 0.845607 0.417835
vt 0.819834 0.412034
vt 0.260039 0.861179
vt 0.260039 0.891326
vt 0.251681 0.891326
vt 0.251681 0.861179
vt 0.259809 0.431866
vt 0.259809 0.841347
vt 0.234036 0.847148
vt 0.234036 0.431866
vt 0.791972 0.002553
vt 0.791972 0.424572
vt 0.961231 0.689984
vt 0.961231 0.373242
vt 0.969590 0.373242
vt 0.969589 0.689984
vt 0.063193 0.766779
vt 0.062019 0.768869
vt 0.060592 0.766779
vt 0.959141 0.371603
vt 0.971679 0.371603
vt 0.063193 0.758420
vt 0.060592 0.758420
vt 0.062019 0.756330
vt 0.766199 0.002553
vt 0.766199 0.418775
vt 0.764109 0.418401
vt 0.764109 0.002553
vt 0.845658 0.420032
vt 0.819834 0.414222
vt 0.315534 0.431866
vt 0.315534 0.847714
vt 0.259809 0.843535
vt 0.233985 0.849345
vt 0.791972 0.426760
vt 0.766148 0.420950
vt 0.262129 0.862390
vt 0.262129 0.892537
vt 0.313496 0.850263
vt 0.287672 0.856073
vt 0.249591 0.892537
vt 0.249591 0.862390
vt 0.315989 0.861179
vt 0.315989 0.882338
vt 0.307630 0.882338
vt 0.307630 0.861179
vt 0.579526 0.002553
vt 0.579526 0.418775
vt 0.553753 0.424572
vt 0.553753 0.002553
vt 0.961231 0.023711
vt 0.961231 0.002553
vt 0.969590 0.002553
vt 0.969590 0.023711
vt 0.465059 0.002553
vt 0.490832 0.002553
vt 0.490832 0.417835
vt 0.465059 0.412034
vt 0.053396 0.776325
vt 0.053396 0.806472
vt 0.045037 0.806472
vt 0.045037 0.776325
vt 0.525891 0.002553
vt 0.525890 0.412034
vt 0.500118 0.417835
vt 0.500118 0.002553
vt 0.437197 0.002553
vt 0.437197 0.424572
vt 0.961231 0.343715
vt 0.961231 0.026973
vt 0.969590 0.026973
vt 0.969589 0.343715
vt 0.063193 0.784423
vt 0.062019 0.786513
vt 0.060592 0.784423
vt 0.959141 0.025335
vt 0.971679 0.025335
vt 0.063193 0.776064
vt 0.060592 0.776064
vt 0.062019 0.773975
vt 0.411424 0.002553
vt 0.411424 0.418775
vt 0.409334 0.418401
vt 0.409334 0.002553
vt 0.490883 0.420032
vt 0.465059 0.414222
vt 0.581616 0.002553
vt 0.581616 0.418401
vt 0.525890 0.414222
vt 0.500067 0.420032
vt 0.437197 0.426760
vt 0.411373 0.420950
vt 0.055486 0.777535
vt 0.055486 0.807682
vt 0.579577 0.420950
vt 0.553753 0.426760
vt 0.042948 0.807682
vt 0.042948 0.777535
vt 0.289059 0.861179
vt 0.289059 0.882338
vt 0.280700 0.882338
vt 0.280700 0.861179
vt 0.934301 0.431866
vt 0.934301 0.848088
vt 0.908528 0.853885
vt 0.908528 0.431866
vt 0.090084 0.619871
vt 0.090084 0.598713
vt 0.098443 0.598713
vt 0.098443 0.619871
vt 0.642447 0.002553
vt 0.668220 0.002553
vt 0.668220 0.417835
vt 0.642447 0.412034
vt 0.053396 0.739861
vt 0.053396 0.770008
vt 0.045037 0.770008
vt 0.045037 0.739861
vt 0.880665 0.431866
vt 0.880665 0.841347
vt 0.854892 0.847148
vt 0.854893 0.431866
vt 0.614584 0.002553
vt 0.614584 0.424572
vt 0.090084 0.939875
vt 0.090084 0.623133
vt 0.098443 0.623133
vt 0.098443 0.939875
vt 0.063193 0.802068
vt 0.062019 0.804157
vt 0.060592 0.802068
vt 0.087994 0.621495
vt 0.100532 0.621495
vt 0.063193 0.793709
vt 0.060592 0.793709
vt 0.062019 0.791619
vt 0.588811 0.002553
vt 0.588811 0.418775
vt 0.586722 0.418401
vt 0.586722 0.002553
vt 0.668271 0.420032
vt 0.642447 0.414222
vt 0.936390 0.431866
vt 0.936390 0.847714
vt 0.880665 0.843535
vt 0.854842 0.849345
vt 0.614584 0.426760
vt 0.588760 0.420950
vt 0.055486 0.741072
vt 0.055486 0.771219
vt 0.934352 0.850263
vt 0.908528 0.856073
vt 0.042948 0.771219
vt 0.042948 0.741072
vt 0.369848 0.861179
vt 0.369848 0.882338
vt 0.361489 0.882338
vt 0.361489 0.861179
vt 0.756913 0.002553
vt 0.756913 0.418775
vt 0.731140 0.424572
vt 0.731141 0.002553
vt 0.107728 0.619871
vt 0.107728 0.598713
vt 0.116087 0.598713
vt 0.116087 0.619871
vt 0.908528 0.002553
vt 0.934301 0.002553
vt 0.934301 0.417835
vt 0.908528 0.412034
vt 0.242395 0.861179
vt 0.242395 0.891326
vt 0.234036 0.891326
vt 0.234036 0.861179
vt 0.703278 0.002553
vt 0.703278 0.412034
vt 0.677505 0.417835
vt 0.677505 0.002553
vt 0.880666 0.002553
vt 0.880666 0.424572
vt 0.107728 0.939875
vt 0.107728 0.623133
vt 0.116087 0.623133
vt 0.116087 0.939875
vt 0.063193 0.713846
vt 0.062019 0.715936
vt 0.060592 0.713846
vt 0.105638 0.621495
vt 0.118177 0.621495
vt 0.063193 0.705487
vt 0.060592 0.705487
vt 0.062019 0.703398
vt 0.854893 0.002553
vt 0.854893 0.418775
vt 0.852803 0.418401
vt 0.852803 0.002553
vt 0.934352 0.420032
vt 0.908528 0.414222
vt 0.759003 0.002553
vt 0.759003 0.418401
vt 0.703278 0.414222
vt 0.677454 0.420032
vt 0.880666 0.426760
vt 0.854842 0.420950
vt 0.244485 0.862390
vt 0.244485 0.892537
vt 0.756964 0.420950
vt 0.731140 0.426760
vt 0.231947 0.892537
vt 0.231947 0.862390
vt 0.356383 0.861179
vt 0.356383 0.882338
vt 0.348024 0.882338
vt 0.348024 0.861179
vt 0.313445 0.002553
vt 0.313445 0.418775
vt 0.287672 0.424572
vt 0.287672 0.002553
vt 0.072440 0.619871
vt 0.072440 0.598713
vt 0.080798 0.598713
vt 0.080798 0.619871
vt 0.731141 0.431866
vt 0.756913 0.431866
vt 0.756913 0.847148
vt 0.731140 0.841347
vt 0.053396 0.703398
vt 0.053396 0.733545
vt 0.045037 0.733545
vt 0.045037 0.703398
vt 0.259809 0.002553
vt 0.259809 0.412034
vt 0.234036 0.417835
vt 0.234036 0.002553
vt 0.703278 0.431866
vt 0.703278 0.853885
vt 0.072440 0.939875
vt 0.072440 0.623133
vt 0.080798 0.623133
vt 0.080798 0.939875
vt 0.063193 0.749135
vt 0.062019 0.751224
vt 0.060592 0.749135
vt 0.070350 0.621495
vt 0.082888 0.621495
vt 0.063193 0.740776
vt 0.060592 0.740776
vt 0.062019 0.738686
vt 0.677505 0.431866
vt 0.677505 0.848088
vt 0.675415 0.847714
vt 0.675415 0.431866
vt 0.756964 0.849345
vt 0.731140 0.843535
vt 0.315534 0.002553
vt 0.315534 0.418401
vt 0.259809 0.414222
vt 0.233985 0.420032
vt 0.703278 0.856073
vt 0.677454 0.850263
vt 0.055486 0.704608
vt 0.055486 0.734755
vt 0.313496 0.420950
vt 0.287672 0.426760
vt 0.042948 0.734755
vt 0.042948 0.704608
vt 0.498028 0.847714
vt 0.498028 0.431866
vt 0.404228 0.002553
vt 0.404228 0.418401
vt 0.976785 0.942026
vt 0.976785 0.647977
vt 0.985144 0.647977
vt 0.985144 0.942026
vt 0.409334 0.847714
vt 0.409334 0.431866
vt 0.670309 0.431866
vt 0.670309 0.847714
vt 0.945676 0.989139
vt 0.945676 0.695090
vt 0.954035 0.695090
vt 0.954035 0.989139
vt 0.320640 0.847714
vt 0.320640 0.431866
vt 0.847697 0.431866
vt 0.847697 0.847714
vt 0.123283 0.892762
vt 0.123283 0.598713
vt 0.131641 0.598713
vt 0.131641 0.892762
vt 0.231947 0.847714
vt 0.231947 0.431866
vt 0.847697 0.002553
vt 0.847697 0.418401
vt 0.959141 0.989139
vt 0.959141 0.695090
vt 0.967500 0.695090
vt 0.967500 0.989139
vt 0.498028 0.418401
vt 0.498028 0.002553
vt 0.492922 0.002553
vt 0.492922 0.418401
vt 0.037842 0.703398
vt 0.037842 0.997447
vt 0.029483 0.997447
vt 0.029483 0.703398
vt 0.852803 0.847714
vt 0.852803 0.431866
vt 0.670309 0.002553
vt 0.670309 0.418401
vt 0.976785 0.642871
vt 0.976785 0.348821
vt 0.985144 0.348821
vt 0.985144 0.642871
vt 0.231947 0.418401
vt 0.231947 0.002553
vt 0.759003 0.431866
vt 0.759003 0.847714
vt 0.016018 0.997447
vt 0.016018 0.703398
vt 0.024377 0.703398
vt 0.024377 0.997447
vt 0.675415 0.418401
vt 0.675416 0.002553
vt 0.936391 0.002553
vt 0.936391 0.418401
vt 0.002553 0.997447
vt 0.002553 0.703398
vt 0.010912 0.703398
vt 0.010912 0.997447
vt 0.091943 0.593607
vt 0.091943 0.005508
vt 0.072440 0.005508
vt 0.072440 0.593607
vt 0.204401 0.884632
vt 0.177804 0.884632
vt 0.177804 0.904136
vt 0.204401 0.904136
vt 0.177851 0.004643
vt 0.140236 0.004643
vt 0.140236 0.836339
vt 0.177851 0.836339
vt 0.024147 0.698292
vt 0.024147 0.005450
vt 0.004643 0.005450
vt 0.004643 0.698292
vt 0.141092 0.865129
vt 0.169742 0.865129
vt 0.169742 0.845625
vt 0.141092 0.845625
vt 0.063154 0.005450
vt 0.065244 0.004294
vt 0.063154 0.002553
vt 0.177804 0.845625
vt 0.176326 0.843535
vt 0.174849 0.845625
vt 0.174849 0.904136
vt 0.176326 0.906226
vt 0.004643 0.002553
vt 0.002553 0.004294
vt 0.130951 0.002553
vt 0.130951 0.005508
vt 0.133041 0.004031
vt 0.139738 0.843535
vt 0.138147 0.845625
vt 0.138147 0.904136
vt 0.139738 0.906226
vt 0.141092 0.904136
vt 0.072440 0.002553
vt 0.070350 0.004031
vt 0.187136 0.002553
vt 0.187136 0.004643
vt 0.224751 0.004643
vt 0.224751 0.002553
vt 0.226841 0.004643
vt 0.224751 0.836339
vt 0.226840 0.836339
vt 0.224751 0.838429
vt 0.187136 0.836339
vt 0.187136 0.838429
vt 0.185047 0.836339
vt 0.185047 0.004643
vt 0.140236 0.002553
vt 0.177851 0.002553
vt 0.179941 0.004643
vt 0.179941 0.836339
vt 0.177851 0.838429
vt 0.140236 0.838429
vt 0.138147 0.836339
vt 0.138147 0.004643
vt 0.024147 0.002553
vt 0.174849 0.865129
vt 0.177804 0.865129
vt 0.138147 0.865129
vt 0.091943 0.002553
vt 0.111447 0.002553
vt 0.111447 0.005508
vt 0.141092 0.884632
vt 0.138147 0.884632
vt 0.174849 0.884632
vt 0.043650 0.002553
vt 0.043650 0.005450
vt 0.169742 0.904136
vt 0.169742 0.884632
vt 0.063154 0.698292
vt 0.043650 0.698292
vt 0.204401 0.845625
vt 0.204401 0.865129
vt 0.130951 0.593607
vt 0.111447 0.593607
vt 0.329453 0.861179
vt 0.321095 0.861179
vt 0.321095 0.882338
vt 0.329453 0.882338
vt 0.553753 0.853885
vt 0.579526 0.848088
vt 0.978875 0.023711
vt 0.987234 0.023711
vt 0.987234 0.002553
vt 0.978875 0.002553
vt 0.376365 0.412034
vt 0.402138 0.417835
vt 0.053396 0.812788
vt 0.045037 0.812788
vt 0.045037 0.842935
vt 0.053396 0.842935
vt 0.500118 0.847148
vt 0.525890 0.841347
vt 0.348503 0.424572
vt 0.987234 0.026973
vt 0.978875 0.026973
vt 0.063192 0.837356
vt 0.060592 0.837356
vt 0.062019 0.839446
vt 0.976785 0.025335
vt 0.989323 0.025335
vt 0.063192 0.828997
vt 0.062019 0.826908
vt 0.060592 0.828997
vt 0.320640 0.418401
vt 0.322730 0.418775
vt 0.376365 0.414222
vt 0.402189 0.420032
vt 0.581616 0.847714
vt 0.525890 0.843535
vt 0.500067 0.849345
vt 0.322679 0.420950
vt 0.348503 0.426760
vt 0.055486 0.813999
vt 0.055486 0.844146
vt 0.579577 0.850263
vt 0.553753 0.856073
vt 0.042948 0.813999
vt 0.042948 0.844146
vt 0.275594 0.861179
vt 0.267235 0.861179
vt 0.267235 0.882338
vt 0.275594 0.882338
vt 0.465059 0.853885
vt 0.490832 0.848088
vt 0.943586 0.369980
vt 0.951945 0.369980
vt 0.951945 0.348821
vt 0.943586 0.348821
vt 0.642447 0.841347
vt 0.668220 0.847148
vt 0.219956 0.843535
vt 0.211597 0.843535
vt 0.211597 0.873682
vt 0.219956 0.873682
vt 0.411424 0.847148
vt 0.437197 0.841347
vt 0.614584 0.853885
vt 0.951945 0.373242
vt 0.943586 0.373242
vt 0.063193 0.731490
vt 0.060592 0.731490
vt 0.062019 0.733580
vt 0.941497 0.371603
vt 0.954035 0.371603
vt 0.063193 0.723132
vt 0.062019 0.721042
vt 0.060592 0.723132
vt 0.586722 0.847714
vt 0.588811 0.848088
vt 0.642447 0.843535
vt 0.668270 0.849345
vt 0.492922 0.847714
vt 0.437197 0.843535
vt 0.411373 0.849345
vt 0.588760 0.850263
vt 0.614584 0.856073
vt 0.222046 0.844746
vt 0.222046 0.874892
vt 0.490883 0.850263
vt 0.465059 0.856073
vt 0.209507 0.844746
vt 0.209507 0.874892
vt 0.302524 0.861179
vt 0.294165 0.861179
vt 0.294165 0.882338
vt 0.302524 0.882338
vt 0.376365 0.853885
vt 0.402138 0.848088
vt 0.943586 0.023711
vt 0.951945 0.023711
vt 0.951945 0.002553
vt 0.943586 0.002553
vt 0.819834 0.841347
vt 0.845607 0.847148
vt 0.053396 0.849252
vt 0.045037 0.849252
vt 0.045037 0.879398
vt 0.053396 0.879398
vt 0.322730 0.847148
vt 0.348503 0.841347
vt 0.791972 0.853885
vt 0.951945 0.026973
vt 0.943586 0.026973
vt 0.063193 0.819712
vt 0.060592 0.819712
vt 0.062019 0.821801
vt 0.941497 0.025335
vt 0.954035 0.025335
vt 0.063193 0.811353
vt 0.062019 0.809263
vt 0.060592 0.811353
vt 0.764109 0.847714
vt 0.766199 0.848088
vt 0.819834 0.843535
vt 0.845658 0.849345
vt 0.404228 0.847714
vt 0.348503 0.843535
vt 0.322679 0.849345
vt 0.766148 0.850263
vt 0.791972 0.856073
vt 0.055486 0.850462
vt 0.055486 0.880609
vt 0.402189 0.850263
vt 0.376365 0.856073
vt 0.042948 0.850462
vt 0.042948 0.880609
vt 0.342918 0.861179
vt 0.334559 0.861179
vt 0.334559 0.882338
vt 0.342918 0.882338
vt 0.287672 0.853885
vt 0.313445 0.848088
vt 0.961231 0.369980
vt 0.969590 0.369980
vt 0.969590 0.348821
vt 0.961231 0.348821
vt 0.819834 0.412034
vt 0.845607 0.417835
vt 0.260039 0.861179
vt 0.251681 0.861179
vt 0.251681 0.891326
vt 0.260039 0.891326
vt 0.234036 0.847148
vt 0.259809 0.841347
vt 0.791972 0.424572
vt 0.969590 0.373242
vt 0.961231 0.373242
vt 0.063193 0.766779
vt 0.060592 0.766779
vt 0.062019 0.768869
vt 0.959141 0.371603
vt 0.971679 0.371603
vt 0.063193 0.758420
vt 0.062019 0.756330
vt 0.060592 0.758420
vt 0.764109 0.418401
vt 0.766199 0.418775
vt 0.819834 0.414222
vt 0.845658 0.420032
vt 0.315534 0.847714
vt 0.259809 0.843535
vt 0.233985 0.849345
vt 0.766148 0.420950
vt 0.791972 0.426760
vt 0.262129 0.862390
vt 0.262129 0.892537
vt 0.313496 0.850263
vt 0.287672 0.856073
vt 0.249591 0.862390
vt 0.249591 0.892537
vt 0.315989 0.861179
vt 0.307630 0.861179
vt 0.307630 0.882338
vt 0.315989 0.882338
vt 0.553753 0.424572
vt 0.579526 0.418775
vt 0.961231 0.023711
vt 0.969590 0.023711
vt 0.969590 0.002553
vt 0.961231 0.002553
vt 0.465059 0.412034
vt 0.490832 0.417835
vt 0.053396 0.776325
vt 0.045037 0.776325
vt 0.045037 0.806472
vt 0.053396 0.806472
vt 0.500118 0.417835
vt 0.525890 0.412034
vt 0.437197 0.424572
vt 0.969590 0.026973
vt 0.961231 0.026973
vt 0.063193 0.784423
vt 0.060592 0.784423
vt 0.062019 0.786513
vt 0.959141 0.025335
vt 0.971679 0.025335
vt 0.063193 0.776064
vt 0.062019 0.773975
vt 0.060592 0.776064
vt 0.409334 0.418401
vt 0.411424 0.418775
vt 0.465059 0.414222
vt 0.490883 0.420032
vt 0.581616 0.418401
vt 0.525890 0.414222
vt 0.500067 0.420032
vt 0.411373 0.420950
vt 0.437197 0.426760
vt 0.055486 0.777535
vt 0.055486 0.807682
vt 0.579577 0.420950
vt 0.553753 0.426760
vt 0.042948 0.777535
vt 0.042948 0.807682
vt 0.289059 0.861179
vt 0.280700 0.861179
vt 0.280700 0.882338
vt 0.289059 0.882338
vt 0.908528 0.853885
vt 0.934301 0.848088
vt 0.090084 0.619871
vt 0.098443 0.619871
vt 0.098443 0.598713
vt 0.090084 0.598713
vt 0.642447 0.412034
vt 0.668220 0.417835
vt 0.053396 0.739861
vt 0.045037 0.739861
vt 0.045037 0.770008
vt 0.053396 0.770008
vt 0.854892 0.847148
vt 0.880665 0.841347
vt 0.614584 0.424572
vt 0.098443 0.623133
vt 0.090084 0.623133
vt 0.063193 0.802068
vt 0.060592 0.802068
vt 0.062019 0.804157
vt 0.087994 0.621495
vt 0.100532 0.621495
vt 0.063193 0.793709
vt 0.062019 0.791619
vt 0.060592 0.793709
vt 0.586722 0.418401
vt 0.588811 0.418775
vt 0.642447 0.414222
vt 0.668271 0.420032
vt 0.936390 0.847714
vt 0.880665 0.843535
vt 0.854842 0.849345
vt 0.588760 0.420950
vt 0.614584 0.426760
vt 0.055486 0.741072
vt 0.055486 0.771219
vt 0.934352 0.850263
vt 0.908528 0.856073
vt 0.042948 0.741072
vt 0.042948 0.771219
vt 0.369848 0.861179
vt 0.361489 0.861179
vt 0.361489 0.882338
vt 0.369848 0.882338
vt 0.731140 0.424572
vt 0.756913 0.418775
vt 0.107728 0.619871
vt 0.116087 0.619871
vt 0.116087 0.598713
vt 0.107728 0.598713
vt 0.908528 0.412034
vt 0.934301 0.417835
vt 0.242395 0.861179
vt 0.234036 0.861179
vt 0.234036 0.891326
vt 0.242395 0.891326
vt 0.677505 0.417835
vt 0.703278 0.412034
vt 0.880666 0.424572
vt 0.116087 0.623133
vt 0.107728 0.623133
vt 0.063193 0.713846
vt 0.060592 0.713846
vt 0.062019 0.715936
vt 0.105638 0.621495
vt 0.118177 0.621495
vt 0.063193 0.705487
vt 0.062019 0.703398
vt 0.060592 0.705487
vt 0.852803 0.418401
vt 0.854893 0.418775
vt 0.908528 0.414222
vt 0.934352 0.420032
vt 0.759003 0.418401
vt 0.703278 0.414222
vt 0.677454 0.420032
vt 0.854842 0.420950
vt 0.880666 0.426760
vt 0.244485 0.862390
vt 0.244485 0.892537
vt 0.756964 0.420950
vt 0.731140 0.426760
vt 0.231947 0.862390
vt 0.231947 0.892537
vt 0.356383 0.861179
vt 0.348024 0.861179
vt 0.348024 0.882338
vt 0.356383 0.882338
vt 0.287672 0.424572
vt 0.313445 0.418775
vt 0.072440 0.619871
vt 0.080798 0.619871
vt 0.080798 0.598713
vt 0.072440 0.598713
vt 0.731140 0.841347
vt 0.756913 0.847148
vt 0.053396 0.703398
vt 0.045037 0.703398
vt 0.045037 0.733545
vt 0.053396 0.733545
vt 0.234036 0.417835
vt 0.259809 0.412034
vt 0.703278 0.853885
vt 0.080798 0.623133
vt 0.072440 0.623133
vt 0.063193 0.749135
vt 0.060592 0.749135
vt 0.062019 0.751224
vt 0.070350 0.621495
vt 0.082888 0.621495
vt 0.063193 0.740776
vt 0.062019 0.738686
vt 0.060592 0.740776
vt 0.675415 0.847714
vt 0.677505 0.848088
vt 0.731140 0.843535
vt 0.756964 0.849345
vt 0.315534 0.418401
vt 0.259809 0.414222
vt 0.233985 0.420032
vt 0.677454 0.850263
vt 0.703278 0.856073
vt 0.055486 0.704608
vt 0.055486 0.734755
vt 0.313496 0.420950
vt 0.287672 0.426760
vt 0.042948 0.704608
vt 0.042948 0.734755
vt 0.498028 0.847714
vt 0.404228 0.418401
vt 0.976785 0.942026
vt 0.985144 0.942026
vt 0.409334 0.847714
vt 0.670309 0.847714
vt 0.945676 0.989139
vt 0.954035 0.989139
vt 0.320640 0.847714
vt 0.847697 0.847714
vt 0.123283 0.892762
vt 0.131641 0.892762
vt 0.231947 0.847714
vt 0.847697 0.418401
vt 0.959141 0.989139
vt 0.967500 0.989139
vt 0.498028 0.418401
vt 0.492922 0.418401
vt 0.037842 0.703398
vt 0.029483 0.703398
vt 0.852803 0.847714
vt 0.670309 0.418401
vt 0.976785 0.642871
vt 0.985144 0.642871
vt 0.231947 0.418401
vt 0.759003 0.847714
vt 0.016018 0.997447
vt 0.024377 0.997447
vt 0.675415 0.418401
vt 0.936391 0.418401
vt 0.002553 0.997447
vt 0.010912 0.997447
vn 0.0000 1.0000 0.0000
vn 1.0000 0.0000 0.0000
vn 0.0000 0.0000 -1.0000
vn 0.0000 -1.0000 0.0000
vn -1.0000 0.0000 0.0000
vn 0.5774 -0.5773 0.5773
vn 0.5774 0.5773 0.5773
vn 0.5774 0.5773 -0.5773
vn 0.5774 -0.5773 -0.5773
vn -0.5774 0.5773 0.5773
vn -0.5774 -0.5773 0.5773
vn -0.5774 -0.5773 -0.5773
vn -0.5774 0.5773 -0.5773
vn -0.7071 0.0000 0.7071
vn 0.0000 -0.7071 0.7071
vn 0.7071 0.0000 0.7071
vn 0.0000 0.7071 0.7071
vn 0.7071 0.0000 -0.7071
vn 0.0000 -0.7071 -0.7071
vn -0.7071 0.0000 -0.7071
vn 0.0000 0.7071 -0.7071
vn 0.7071 -0.7071 0.0000
vn 0.7071 0.7071 0.0000
vn -0.7071 -0.7071 0.0000
vn -0.7071 0.7071 0.0000
vn 0.0000 0.0000 1.0000
vn -0.2195 -0.9756 0.0000
vn 0.4104 -0.9119 0.0000
vn 0.4792 -0.5990 -0.6416
vn -0.6490 -0.5192 -0.5561
vn -0.6490 -0.5192 0.5561
vn 0.4792 -0.5990 0.6416
vn -0.1536 -0.6826 -0.7144
vn -0.1536 -0.6826 0.7144
vn 0.6247 -0.7809 0.0000
vn -0.7809 -0.6247 0.0000
vn -0.1536 -0.6826 -0.7145
vn 0.2968 -0.6595 -0.6906
vn -0.1536 -0.6826 0.7145
vn 0.2968 -0.6595 0.6906
vn -0.6490 -0.5192 0.5562
vn 0.4792 -0.5989 -0.6416
vn 0.4792 -0.5989 0.6416
vn -0.2195 0.9756 0.0000
vn 0.4104 0.9119 0.0000
vn 0.4792 0.5990 -0.6416
vn -0.6490 0.5192 -0.5561
vn -0.6490 0.5192 0.5561
vn 0.4792 0.5990 0.6416
vn -0.1536 0.6826 -0.7145
vn -0.1536 0.6826 0.7145
vn 0.6247 0.7809 0.0000
vn -0.7809 0.6247 0.0000
vn 0.2968 0.6595 -0.6906
vn 0.2968 0.6595 0.6906
vn -0.6490 0.5192 0.5562
vn 0.4792 0.5989 -0.6416
vn 0.4792 0.5989 0.6416
usemtl 木制托盘
s off
f 29/1/1 9/2/1 23/3/1 38/4/1
f 27/5/2 10/6/2 7/7/2 32/8/2
f 12/9/3 21/10/3 24/11/3 8/12/3
f 33/13/4 19/14/4 11/15/4 26/16/4
f 35/17/5 16/18/5 13/19/5 40/20/5
f 1/21/6 2/22/6 3/23/6
f 4/24/7 5/25/7 6/26/7
f 7/7/8 8/27/8 9/28/8
f 10/29/9 11/15/9 12/30/9
f 13/31/10 14/32/10 15/33/10
f 16/18/11 17/34/11 18/35/11
f 19/36/12 20/37/12 21/38/12
f 22/39/13 23/3/13 24/40/13
f 13/41/14 16/42/14 18/43/14 14/44/14
f 17/45/15 1/46/15 3/47/15 18/43/15
f 2/48/16 4/49/16 6/50/16 3/47/16
f 5/51/17 15/52/17 14/44/17 6/50/17
f 7/53/18 10/54/18 12/9/18 8/12/18
f 11/55/19 19/56/19 21/10/19 12/9/19
f 20/57/20 22/58/20 24/11/20 21/10/20
f 23/59/21 9/60/21 8/12/21 24/11/21
f 26/16/22 11/15/22 10/29/22 27/61/22
f 30/62/23 5/25/23 4/24/23 31/63/23
f 34/64/24 17/34/24 16/18/24 35/17/24
f 38/4/25 23/3/25 22/39/25 39/65/25
f 18/43/26 3/47/26 6/50/26 14/44/26
f 15/33/25 37/66/25 40/67/25 13/31/25
f 37/66/25 38/4/25 39/65/25 40/67/25
f 19/36/24 33/68/24 36/69/24 20/37/24
f 33/68/24 34/64/24 35/17/24 36/69/24
f 9/28/23 29/70/23 32/8/23 7/7/23
f 29/70/23 30/62/23 31/63/23 32/8/23
f 1/21/22 25/71/22 28/72/22 2/22/22
f 25/71/22 26/16/22 27/61/22 28/72/22
f 20/37/5 36/69/5 39/73/5 22/74/5
f 36/69/5 35/17/5 40/20/5 39/73/5
f 17/75/4 34/76/4 25/71/4 1/21/4
f 34/76/4 33/13/4 26/16/4 25/71/4
f 2/77/2 28/78/2 31/63/2 4/24/2
f 28/78/2 27/5/2 32/8/2 31/63/2
f 5/79/1 30/80/1 37/66/1 15/33/1
f 30/80/1 29/1/1 38/4/1 37/66/1
f 55/81/27 41/82/27 50/83/27 60/84/27
f 206/85/26 47/86/26 58/87/26 212/88/26
f 45/89/27 54/90/27 57/91/27 49/92/27
f 210/93/3 203/94/3 42/95/3 56/96/3
f 54/97/28 55/98/28 60/99/28 57/100/28
f 211/101/26 59/102/26 52/103/26 208/104/26
f 212/88/26 58/87/26 59/102/26 211/101/26
f 209/105/3 210/93/3 56/96/3 53/106/3
f 202/107/5 46/108/5 48/109/5 205/110/5
f 41/111/29 42/112/29 43/113/29
f 44/114/30 45/89/30 46/108/30
f 47/115/31 48/109/31 49/92/31
f 50/116/32 51/117/32 52/118/32
f 201/119/20 44/120/20 46/121/20 202/122/20
f 56/96/33 42/95/33 41/123/33 55/124/33
f 205/125/14 48/126/14 47/86/14 206/85/14
f 60/127/34 50/128/34 52/103/34 59/102/34
f 43/113/35 51/117/35 50/116/35 41/111/35
f 48/109/36 46/108/36 45/89/36 49/92/36
f 44/120/37 53/106/37 54/129/37 45/130/37
f 53/131/38 56/132/38 55/98/38 54/97/38
f 49/133/39 57/134/39 58/87/39 47/86/39
f 57/100/40 60/99/40 59/135/40 58/136/40
f 201/119/3 209/105/3 53/106/3 44/120/3
f 75/137/27 61/138/27 70/139/27 80/140/27
f 218/141/26 67/142/26 78/143/26 224/144/26
f 65/145/27 74/146/27 77/147/27 69/148/27
f 222/149/3 215/150/3 62/151/3 76/152/3
f 74/153/28 75/154/28 80/155/28 77/156/28
f 223/157/26 79/158/26 72/159/26 220/160/26
f 224/144/26 78/143/26 79/158/26 223/157/26
f 221/161/3 222/149/3 76/152/3 73/162/3
f 214/163/5 66/164/5 68/165/5 217/166/5
f 61/167/29 62/168/29 63/169/29
f 64/170/30 65/145/30 66/164/30
f 67/171/31 68/165/31 69/148/31
f 70/172/32 71/173/32 72/174/32
f 213/175/20 64/176/20 66/177/20 214/178/20
f 76/152/33 62/151/33 61/179/33 75/180/33
f 217/181/14 68/182/14 67/142/14 218/141/14
f 80/183/34 70/184/34 72/159/34 79/158/34
f 63/169/35 71/173/35 70/172/35 61/167/35
f 68/165/36 66/164/36 65/145/36 69/148/36
f 64/176/37 73/162/37 74/185/37 65/186/37
f 73/187/38 76/188/38 75/154/38 74/153/38
f 69/189/39 77/190/39 78/143/39 67/142/39
f 77/156/40 80/155/40 79/191/40 78/192/40
f 213/175/3 221/161/3 73/162/3 64/176/3
f 95/193/27 81/194/27 90/195/27 100/196/27
f 230/197/26 87/198/26 98/199/26 236/200/26
f 85/201/27 94/202/27 97/203/27 89/204/27
f 234/205/3 227/206/3 82/207/3 96/208/3
f 94/209/28 95/210/28 100/211/28 97/212/28
f 235/213/26 99/214/26 92/215/26 232/216/26
f 236/200/26 98/199/26 99/214/26 235/213/26
f 233/217/3 234/205/3 96/208/3 93/218/3
f 226/219/5 86/220/5 88/221/5 229/222/5
f 81/223/29 82/224/29 83/225/29
f 84/226/30 85/201/30 86/220/30
f 87/227/31 88/221/31 89/204/31
f 90/228/32 91/229/32 92/230/32
f 225/231/20 84/232/20 86/233/20 226/234/20
f 96/208/33 82/207/33 81/235/33 95/236/33
f 229/237/14 88/238/14 87/198/14 230/197/14
f 100/239/34 90/240/34 92/215/34 99/214/34
f 83/225/35 91/229/35 90/228/35 81/223/35
f 88/221/36 86/220/36 85/201/36 89/204/36
f 84/232/37 93/218/37 94/241/37 85/242/37
f 93/243/38 96/244/38 95/210/38 94/209/38
f 89/245/39 97/246/39 98/199/39 87/198/39
f 97/212/40 100/211/40 99/247/40 98/248/40
f 225/231/3 233/217/3 93/218/3 84/232/3
f 115/249/27 101/250/27 110/251/27 120/252/27
f 242/253/26 107/254/26 118/255/26 248/256/26
f 105/257/27 114/258/27 117/259/27 109/260/27
f 246/261/3 239/262/3 102/263/3 116/264/3
f 114/265/28 115/266/28 120/267/28 117/268/28
f 247/269/26 119/270/26 112/271/26 244/272/26
f 248/256/26 118/255/26 119/270/26 247/269/26
f 245/273/3 246/261/3 116/264/3 113/274/3
f 238/275/5 106/276/5 108/277/5 241/278/5
f 101/279/29 102/280/29 103/281/29
f 104/282/30 105/257/30 106/276/30
f 107/283/31 108/277/31 109/260/31
f 110/284/32 111/285/32 112/286/32
f 237/287/20 104/288/20 106/289/20 238/290/20
f 116/264/37 102/263/37 101/291/37 115/292/37
f 241/293/14 108/294/14 107/254/14 242/253/14
f 120/295/39 110/296/39 112/271/39 119/270/39
f 103/281/35 111/285/35 110/284/35 101/279/35
f 108/277/36 106/276/36 105/257/36 109/260/36
f 104/288/37 113/274/37 114/297/37 105/298/37
f 113/299/38 116/300/38 115/266/38 114/265/38
f 109/301/39 117/302/39 118/255/39 107/254/39
f 117/268/40 120/267/40 119/303/40 118/304/40
f 237/287/3 245/273/3 113/274/3 104/288/3
f 135/305/27 121/306/27 130/307/27 140/308/27
f 254/309/26 127/310/26 138/311/26 260/312/26
f 125/313/27 134/314/27 137/315/27 129/316/27
f 258/317/3 251/318/3 122/319/3 136/320/3
f 134/321/28 135/322/28 140/323/28 137/324/28
f 259/325/26 139/326/26 132/327/26 256/328/26
f 260/312/26 138/311/26 139/326/26 259/325/26
f 257/329/3 258/317/3 136/320/3 133/330/3
f 250/331/5 126/332/5 128/333/5 253/334/5
f 121/335/29 122/336/29 123/337/29
f 124/338/30 125/313/30 126/332/30
f 127/339/41 128/333/41 129/316/41
f 130/340/32 131/341/32 132/342/32
f 249/343/20 124/344/20 126/345/20 250/346/20
f 136/320/37 122/319/37 121/347/37 135/348/37
f 253/349/14 128/350/14 127/310/14 254/309/14
f 140/351/39 130/352/39 132/327/39 139/326/39
f 123/337/35 131/341/35 130/340/35 121/335/35
f 128/333/36 126/332/36 125/313/36 129/316/36
f 124/344/37 133/330/37 134/353/37 125/354/37
f 133/355/38 136/356/38 135/322/38 134/321/38
f 129/357/39 137/358/39 138/311/39 127/310/39
f 137/324/40 140/323/40 139/359/40 138/360/40
f 249/343/3 257/329/3 133/330/3 124/344/3
f 155/361/27 141/362/27 150/363/27 160/364/27
f 266/365/26 147/366/26 158/367/26 272/368/26
f 145/369/27 154/370/27 157/371/27 149/372/27
f 270/373/3 263/374/3 142/375/3 156/376/3
f 154/377/28 155/378/28 160/379/28 157/380/28
f 271/381/26 159/382/26 152/383/26 268/384/26
f 272/368/26 158/367/26 159/382/26 271/381/26
f 269/385/3 270/373/3 156/376/3 153/386/3
f 262/387/5 146/388/5 148/389/5 265/390/5
f 141/391/42 142/392/42 143/393/42
f 144/394/30 145/369/30 146/388/30
f 147/395/31 148/389/31 149/372/31
f 150/396/43 151/397/43 152/398/43
f 261/399/20 144/400/20 146/401/20 262/402/20
f 156/376/33 142/375/33 141/403/33 155/404/33
f 265/405/14 148/406/14 147/366/14 266/365/14
f 160/407/34 150/408/34 152/383/34 159/382/34
f 143/393/35 151/397/35 150/396/35 141/391/35
f 148/389/36 146/388/36 145/369/36 149/372/36
f 144/400/37 153/386/37 154/409/37 145/410/37
f 153/411/38 156/412/38 155/378/38 154/377/38
f 149/413/39 157/414/39 158/367/39 147/366/39
f 157/380/40 160/379/40 159/415/40 158/416/40
f 261/399/3 269/385/3 153/386/3 144/400/3
f 175/417/27 161/418/27 170/419/27 180/420/27
f 290/421/26 167/422/26 178/423/26 296/424/26
f 165/425/27 174/426/27 177/427/27 169/428/27
f 294/429/3 287/430/3 162/431/3 176/432/3
f 174/433/28 175/434/28 180/435/28 177/436/28
f 295/437/26 179/438/26 172/439/26 292/440/26
f 296/424/26 178/423/26 179/438/26 295/437/26
f 293/441/3 294/429/3 176/432/3 173/442/3
f 286/443/5 166/444/5 168/445/5 289/446/5
f 161/447/42 162/448/42 163/449/42
f 164/450/30 165/425/30 166/444/30
f 167/451/31 168/445/31 169/428/31
f 170/452/43 171/453/43 172/454/43
f 285/455/20 164/456/20 166/457/20 286/458/20
f 176/432/33 162/431/33 161/459/33 175/460/33
f 289/461/14 168/462/14 167/422/14 290/421/14
f 180/463/34 170/464/34 172/439/34 179/438/34
f 163/449/35 171/453/35 170/452/35 161/447/35
f 168/445/36 166/444/36 165/425/36 169/428/36
f 164/456/37 173/442/37 174/465/37 165/466/37
f 173/467/38 176/468/38 175/434/38 174/433/38
f 169/469/39 177/470/39 178/423/39 167/422/39
f 177/436/40 180/435/40 179/471/40 178/472/40
f 285/455/3 293/441/3 173/442/3 164/456/3
f 195/473/27 181/474/27 190/475/27 200/476/27
f 278/477/26 187/478/26 198/479/26 284/480/26
f 185/481/27 194/482/27 197/483/27 189/484/27
f 282/485/3 275/486/3 182/487/3 196/488/3
f 194/489/28 195/490/28 200/491/28 197/492/28
f 283/493/26 199/494/26 192/495/26 280/496/26
f 284/480/26 198/479/26 199/494/26 283/493/26
f 281/497/3 282/485/3 196/488/3 193/498/3
f 274/499/5 186/500/5 188/501/5 277/502/5
f 181/503/42 182/504/42 183/505/42
f 184/506/30 185/481/30 186/500/30
f 187/507/31 188/501/31 189/484/31
f 190/508/43 191/509/43 192/510/43
f 273/511/20 184/512/20 186/513/20 274/514/20
f 196/488/33 182/487/33 181/515/33 195/516/33
f 277/517/14 188/518/14 187/478/14 278/477/14
f 200/519/34 190/520/34 192/495/34 199/494/34
f 183/505/35 191/509/35 190/508/35 181/503/35
f 188/501/36 186/500/36 185/481/36 189/484/36
f 184/512/37 193/498/37 194/521/37 185/522/37
f 193/523/38 196/524/38 195/490/38 194/489/38
f 189/525/39 197/526/39 198/479/39 187/478/39
f 197/492/40 200/491/40 199/527/40 198/528/40
f 273/511/3 281/497/3 193/498/3 184/512/3
f 51/529/16 207/530/16 208/104/16 52/103/16
f 42/95/18 203/94/18 204/531/18 43/532/18
f 43/533/2 204/534/2 207/535/2 51/536/2
f 71/537/16 219/538/16 220/160/16 72/159/16
f 62/151/18 215/150/18 216/539/18 63/540/18
f 63/541/2 216/542/2 219/543/2 71/544/2
f 91/545/16 231/546/16 232/216/16 92/215/16
f 82/207/18 227/206/18 228/547/18 83/548/18
f 83/549/2 228/550/2 231/551/2 91/552/2
f 111/553/16 243/554/16 244/272/16 112/271/16
f 102/263/18 239/262/18 240/555/18 103/556/18
f 103/557/2 240/558/2 243/559/2 111/560/2
f 131/561/16 255/562/16 256/328/16 132/327/16
f 122/319/18 251/318/18 252/563/18 123/564/18
f 123/565/2 252/566/2 255/567/2 131/568/2
f 151/569/16 267/570/16 268/384/16 152/383/16
f 142/375/18 263/374/18 264/571/18 143/572/18
f 143/573/2 264/574/2 267/575/2 151/576/2
f 191/577/16 279/578/16 280/496/16 192/495/16
f 182/487/18 275/486/18 276/579/18 183/580/18
f 183/581/2 276/582/2 279/583/2 191/584/2
f 171/585/16 291/586/16 292/440/16 172/439/16
f 162/431/18 287/430/18 288/587/18 163/588/18
f 163/589/2 288/590/2 291/591/2 171/592/2
f 325/593/4 334/594/4 319/595/4 305/596/4
f 323/597/2 328/598/2 303/599/2 306/600/2
f 308/601/3 304/602/3 320/603/3 317/604/3
f 329/605/1 322/606/1 307/607/1 315/608/1
f 331/609/5 336/610/5 309/611/5 312/612/5
f 297/613/7 299/614/7 298/615/7
f 300/616/6 302/617/6 301/618/6
f 303/599/9 305/619/9 304/620/9
f 306/621/8 308/622/8 307/607/8
f 309/623/11 311/624/11 310/625/11
f 312/612/10 314/626/10 313/627/10
f 315/628/13 317/629/13 316/630/13
f 318/631/12 320/632/12 319/595/12
f 309/633/14 310/634/14 314/635/14 312/636/14
f 313/637/17 314/635/17 299/638/17 297/639/17
f 298/640/16 299/638/16 302/641/16 300/642/16
f 301/643/15 302/641/15 310/634/15 311/644/15
f 303/645/18 304/602/18 308/601/18 306/646/18
f 307/647/21 308/601/21 317/604/21 315/648/21
f 316/649/20 317/604/20 320/603/20 318/650/20
f 319/651/19 320/603/19 304/602/19 305/652/19
f 322/606/23 323/653/23 306/621/23 307/607/23
f 326/654/22 327/655/22 300/616/22 301/618/22
f 330/656/25 331/609/25 312/612/25 313/627/25
f 334/594/24 335/657/24 318/631/24 319/595/24
f 314/635/26 310/634/26 302/641/26 299/638/26
f 311/624/24 309/623/24 336/658/24 333/659/24
f 333/659/24 336/658/24 335/657/24 334/594/24
f 315/628/25 316/630/25 332/660/25 329/661/25
f 329/661/25 332/660/25 331/609/25 330/656/25
f 305/619/22 303/599/22 328/598/22 325/662/22
f 325/662/22 328/598/22 327/655/22 326/654/22
f 297/613/23 298/615/23 324/663/23 321/664/23
f 321/664/23 324/663/23 323/653/23 322/606/23
f 316/630/5 318/665/5 335/666/5 332/660/5
f 332/660/5 335/666/5 336/610/5 331/609/5
f 313/667/1 297/613/1 321/664/1 330/668/1
f 330/668/1 321/664/1 322/606/1 329/605/1
f 298/669/2 300/616/2 327/655/2 324/670/2
f 324/670/2 327/655/2 328/598/2 323/597/2
f 301/671/4 311/624/4 333/659/4 326/672/4
f 326/672/4 333/659/4 334/594/4 325/593/4
f 351/673/44 356/674/44 346/675/44 337/676/44
f 206/85/26 212/88/26 354/677/26 343/678/26
f 341/679/44 345/680/44 353/681/44 350/682/44
f 210/93/3 352/683/3 338/684/3 203/94/3
f 350/685/45 353/686/45 356/687/45 351/688/45
f 211/101/26 208/104/26 348/689/26 355/690/26
f 212/88/26 211/101/26 355/690/26 354/677/26
f 209/105/3 349/691/3 352/683/3 210/93/3
f 202/107/5 205/110/5 344/692/5 342/693/5
f 337/694/46 339/695/46 338/696/46
f 340/697/47 342/693/47 341/679/47
f 343/698/48 345/680/48 344/692/48
f 346/699/49 348/700/49 347/701/49
f 201/119/20 202/122/20 342/702/20 340/703/20
f 352/683/50 351/704/50 337/705/50 338/684/50
f 205/125/14 206/85/14 343/678/14 344/706/14
f 356/707/51 355/690/51 348/689/51 346/708/51
f 339/695/52 337/694/52 346/699/52 347/701/52
f 344/692/53 345/680/53 341/679/53 342/693/53
f 340/703/50 341/709/50 350/710/50 349/691/50
f 349/711/54 350/685/54 351/688/54 352/712/54
f 345/713/51 343/678/51 354/677/51 353/714/51
f 353/686/55 354/715/55 355/716/55 356/687/55
f 201/119/3 340/703/3 349/691/3 209/105/3
f 371/717/44 376/718/44 366/719/44 357/720/44
f 218/141/26 224/144/26 374/721/26 363/722/26
f 361/723/44 365/724/44 373/725/44 370/726/44
f 222/149/3 372/727/3 358/728/3 215/150/3
f 370/729/45 373/730/45 376/731/45 371/732/45
f 223/157/26 220/160/26 368/733/26 375/734/26
f 224/144/26 223/157/26 375/734/26 374/721/26
f 221/161/3 369/735/3 372/727/3 222/149/3
f 214/163/5 217/166/5 364/736/5 362/737/5
f 357/738/46 359/739/46 358/740/46
f 360/741/47 362/737/47 361/723/47
f 363/742/48 365/724/48 364/736/48
f 366/743/49 368/744/49 367/745/49
f 213/175/20 214/178/20 362/746/20 360/747/20
f 372/727/50 371/748/50 357/749/50 358/728/50
f 217/181/14 218/141/14 363/722/14 364/750/14
f 376/751/51 375/734/51 368/733/51 366/752/51
f 359/739/52 357/738/52 366/743/52 367/745/52
f 364/736/53 365/724/53 361/723/53 362/737/53
f 360/747/50 361/753/50 370/754/50 369/735/50
f 369/755/54 370/729/54 371/732/54 372/756/54
f 365/757/51 363/722/51 374/721/51 373/758/51
f 373/730/55 374/759/55 375/760/55 376/731/55
f 213/175/3 360/747/3 369/735/3 221/161/3
f 391/761/44 396/762/44 386/763/44 377/764/44
f 230/197/26 236/200/26 394/765/26 383/766/26
f 381/767/44 385/768/44 393/769/44 390/770/44
f 234/205/3 392/771/3 378/772/3 227/206/3
f 390/773/45 393/774/45 396/775/45 391/776/45
f 235/213/26 232/216/26 388/777/26 395/778/26
f 236/200/26 235/213/26 395/778/26 394/765/26
f 233/217/3 389/779/3 392/771/3 234/205/3
f 226/219/5 229/222/5 384/780/5 382/781/5
f 377/782/46 379/783/46 378/784/46
f 380/785/47 382/781/47 381/767/47
f 383/786/48 385/768/48 384/780/48
f 386/787/49 388/788/49 387/789/49
f 225/231/20 226/234/20 382/790/20 380/791/20
f 392/771/50 391/792/50 377/793/50 378/772/50
f 229/237/14 230/197/14 383/766/14 384/794/14
f 396/795/51 395/778/51 388/777/51 386/796/51
f 379/783/52 377/782/52 386/787/52 387/789/52
f 384/780/53 385/768/53 381/767/53 382/781/53
f 380/791/50 381/797/50 390/798/50 389/779/50
f 389/799/54 390/773/54 391/776/54 392/800/54
f 385/801/51 383/766/51 394/765/51 393/802/51
f 393/774/55 394/803/55 395/804/55 396/775/55
f 225/231/3 380/791/3 389/779/3 233/217/3
f 411/805/44 416/806/44 406/807/44 397/808/44
f 242/253/26 248/256/26 414/809/26 403/810/26
f 401/811/44 405/812/44 413/813/44 410/814/44
f 246/261/3 412/815/3 398/816/3 239/262/3
f 410/817/45 413/818/45 416/819/45 411/820/45
f 247/269/26 244/272/26 408/821/26 415/822/26
f 248/256/26 247/269/26 415/822/26 414/809/26
f 245/273/3 409/823/3 412/815/3 246/261/3
f 238/275/5 241/278/5 404/824/5 402/825/5
f 397/826/46 399/827/46 398/828/46
f 400/829/47 402/825/47 401/811/47
f 403/830/48 405/812/48 404/824/48
f 406/831/49 408/832/49 407/833/49
f 237/287/20 238/290/20 402/834/20 400/835/20
f 412/815/50 411/836/50 397/837/50 398/816/50
f 241/293/14 242/253/14 403/810/14 404/838/14
f 416/839/51 415/822/51 408/821/51 406/840/51
f 399/827/52 397/826/52 406/831/52 407/833/52
f 404/824/53 405/812/53 401/811/53 402/825/53
f 400/835/50 401/841/50 410/842/50 409/823/50
f 409/843/54 410/817/54 411/820/54 412/844/54
f 405/845/51 403/810/51 414/809/51 413/846/51
f 413/818/55 414/847/55 415/848/55 416/819/55
f 237/287/3 400/835/3 409/823/3 245/273/3
f 431/849/44 436/850/44 426/851/44 417/852/44
f 254/309/26 260/312/26 434/853/26 423/854/26
f 421/855/44 425/856/44 433/857/44 430/858/44
f 258/317/3 432/859/3 418/860/3 251/318/3
f 430/861/45 433/862/45 436/863/45 431/864/45
f 259/325/26 256/328/26 428/865/26 435/866/26
f 260/312/26 259/325/26 435/866/26 434/853/26
f 257/329/3 429/867/3 432/859/3 258/317/3
f 250/331/5 253/334/5 424/868/5 422/869/5
f 417/870/46 419/871/46 418/872/46
f 420/873/47 422/869/47 421/855/47
f 423/874/56 425/856/56 424/868/56
f 426/875/49 428/876/49 427/877/49
f 249/343/20 250/346/20 422/878/20 420/879/20
f 432/859/50 431/880/50 417/881/50 418/860/50
f 253/349/14 254/309/14 423/854/14 424/882/14
f 436/883/51 435/866/51 428/865/51 426/884/51
f 419/871/52 417/870/52 426/875/52 427/877/52
f 424/868/53 425/856/53 421/855/53 422/869/53
f 420/879/50 421/885/50 430/886/50 429/867/50
f 429/887/54 430/861/54 431/864/54 432/888/54
f 425/889/51 423/854/51 434/853/51 433/890/51
f 433/862/55 434/891/55 435/892/55 436/863/55
f 249/343/3 420/879/3 429/867/3 257/329/3
f 451/893/44 456/894/44 446/895/44 437/896/44
f 266/365/26 272/368/26 454/897/26 443/898/26
f 441/899/44 445/900/44 453/901/44 450/902/44
f 270/373/3 452/903/3 438/904/3 263/374/3
f 450/905/45 453/906/45 456/907/45 451/908/45
f 271/381/26 268/384/26 448/909/26 455/910/26
f 272/368/26 271/381/26 455/910/26 454/897/26
f 269/385/3 449/911/3 452/903/3 270/373/3
f 262/387/5 265/390/5 444/912/5 442/913/5
f 437/914/57 439/915/57 438/916/57
f 440/917/47 442/913/47 441/899/47
f 443/918/48 445/900/48 444/912/48
f 446/919/58 448/920/58 447/921/58
f 261/399/20 262/402/20 442/922/20 440/923/20
f 452/903/50 451/924/50 437/925/50 438/904/50
f 265/405/14 266/365/14 443/898/14 444/926/14
f 456/927/51 455/910/51 448/909/51 446/928/51
f 439/915/52 437/914/52 446/919/52 447/921/52
f 444/912/53 445/900/53 441/899/53 442/913/53
f 440/923/50 441/929/50 450/930/50 449/911/50
f 449/931/54 450/905/54 451/908/54 452/932/54
f 445/933/51 443/898/51 454/897/51 453/934/51
f 453/906/55 454/935/55 455/936/55 456/907/55
f 261/399/3 440/923/3 449/911/3 269/385/3
f 471/937/44 476/938/44 466/939/44 457/940/44
f 290/421/26 296/424/26 474/941/26 463/942/26
f 461/943/44 465/944/44 473/945/44 470/946/44
f 294/429/3 472/947/3 458/948/3 287/430/3
f 470/949/45 473/950/45 476/951/45 471/952/45
f 295/437/26 292/440/26 468/953/26 475/954/26
f 296/424/26 295/437/26 475/954/26 474/941/26
f 293/441/3 469/955/3 472/947/3 294/429/3
f 286/443/5 289/446/5 464/956/5 462/957/5
f 457/958/57 459/959/57 458/960/57
f 460/961/47 462/957/47 461/943/47
f 463/962/48 465/944/48 464/956/48
f 466/963/58 468/964/58 467/965/58
f 285/455/20 286/458/20 462/966/20 460/967/20
f 472/947/50 471/968/50 457/969/50 458/948/50
f 289/461/14 290/421/14 463/942/14 464/970/14
f 476/971/51 475/954/51 468/953/51 466/972/51
f 459/959/52 457/958/52 466/963/52 467/965/52
f 464/956/53 465/944/53 461/943/53 462/957/53
f 460/967/50 461/973/50 470/974/50 469/955/50
f 469/975/54 470/949/54 471/952/54 472/976/54
f 465/977/51 463/942/51 474/941/51 473/978/51
f 473/950/55 474/979/55 475/980/55 476/951/55
f 285/455/3 460/967/3 469/955/3 293/441/3
f 491/981/44 496/982/44 486/983/44 477/984/44
f 278/477/26 284/480/26 494/985/26 483/986/26
f 481/987/44 485/988/44 493/989/44 490/990/44
f 282/485/3 492/991/3 478/992/3 275/486/3
f 490/993/45 493/994/45 496/995/45 491/996/45
f 283/493/26 280/496/26 488/997/26 495/998/26
f 284/480/26 283/493/26 495/998/26 494/985/26
f 281/497/3 489/999/3 492/991/3 282/485/3
f 274/499/5 277/502/5 484/1000/5 482/1001/5
f 477/1002/57 479/1003/57 478/1004/57
f 480/1005/47 482/1001/47 481/987/47
f 483/1006/48 485/988/48 484/1000/48
f 486/1007/58 488/1008/58 487/1009/58
f 273/511/20 274/514/20 482/1010/20 480/1011/20
f 492/991/50 491/1012/50 477/1013/50 478/992/50
f 277/517/14 278/477/14 483/986/14 484/1014/14
f 496/1015/51 495/998/51 488/997/51 486/1016/51
f 479/1003/52 477/1002/52 486/1007/52 487/1009/52
f 484/1000/53 485/988/53 481/987/53 482/1001/53
f 480/1011/50 481/1017/50 490/1018/50 489/999/50
f 489/1019/54 490/993/54 491/996/54 492/1020/54
f 485/1021/51 483/986/51 494/985/51 493/1022/51
f 493/994/55 494/1023/55 495/1024/55 496/995/55
f 273/511/3 480/1011/3 489/999/3 281/497/3
f 347/1025/16 348/689/16 208/104/16 207/530/16
f 338/684/18 339/1026/18 204/531/18 203/94/18
f 339/1027/2 347/1028/2 207/535/2 204/534/2
f 367/1029/16 368/733/16 220/160/16 219/538/16
f 358/728/18 359/1030/18 216/539/18 215/150/18
f 359/1031/2 367/1032/2 219/543/2 216/542/2
f 387/1033/16 388/777/16 232/216/16 231/546/16
f 378/772/18 379/1034/18 228/547/18 227/206/18
f 379/1035/2 387/1036/2 231/551/2 228/550/2
f 407/1037/16 408/821/16 244/272/16 243/554/16
f 398/816/18 399/1038/18 240/555/18 239/262/18
f 399/1039/2 407/1040/2 243/559/2 240/558/2
f 427/1041/16 428/865/16 256/328/16 255/562/16
f 418/860/18 419/1042/18 252/563/18 251/318/18
f 419/1043/2 427/1044/2 255/567/2 252/566/2
f 447/1045/16 448/909/16 268/384/16 267/570/16
f 438/904/18 439/1046/18 264/571/18 263/374/18
f 439/1047/2 447/1048/2 267/575/2 264/574/2
f 487/1049/16 488/997/16 280/496/16 279/578/16
f 478/992/18 479/1050/18 276/579/18 275/486/18
f 479/1051/2 487/1052/2 279/583/2 276/582/2
f 467/1053/16 468/953/16 292/440/16 291/586/16
f 458/948/18 459/1054/18 288/587/18 287/430/18
f 459/1055/2 467/1056/2 291/591/2 288/590/2
