# Blender 5.1.0
# www.blender.org
mtllib textured.mtl
o textured
v -0.042500 0.000000 0.020000
v -0.042302 -0.004102 0.020000
v -0.041708 -0.008165 0.020000
v -0.040725 -0.012153 0.020000
v -0.039362 -0.016027 0.020000
v -0.037632 -0.019751 0.020000
v -0.035550 -0.023291 0.020000
v -0.033136 -0.026613 0.020000
v -0.030413 -0.029687 0.020000
v -0.027406 -0.032483 0.020000
v -0.024143 -0.034977 0.020000
v -0.020654 -0.037144 0.020000
v -0.016973 -0.038964 0.020000
v -0.013133 -0.040420 0.020000
v -0.009171 -0.041499 0.020000
v -0.005123 -0.042190 0.020000
v -0.001027 -0.042488 0.020000
v 0.003078 -0.042388 0.020000
v 0.007155 -0.041893 0.020000
v 0.011165 -0.041007 0.020000
v 0.015071 -0.039738 0.020000
v 0.018836 -0.038098 0.020000
v 0.022425 -0.036102 0.020000
v 0.025804 -0.033770 0.020000
v 0.028943 -0.031121 0.020000
v 0.031812 -0.028183 0.020000
v 0.034383 -0.024981 0.020000
v 0.036634 -0.021546 0.020000
v 0.038542 -0.017910 0.020000
v 0.040091 -0.014106 0.020000
v 0.041265 -0.010171 0.020000
v 0.042054 -0.006141 0.020000
v 0.042450 -0.002053 0.020000
v 0.042450 0.002053 0.020000
v 0.042054 0.006141 0.020000
v 0.041265 0.010171 0.020000
v 0.040091 0.014106 0.020000
v 0.038542 0.017910 0.020000
v 0.036634 0.021546 0.020000
v 0.034383 0.024981 0.020000
v 0.031812 0.028183 0.020000
v 0.028943 0.031121 0.020000
v 0.025804 0.033770 0.020000
v 0.022425 0.036102 0.020000
v 0.018836 0.038098 0.020000
v 0.015071 0.039738 0.020000
v 0.011165 0.041007 0.020000
v 0.007155 0.041893 0.020000
v 0.003078 0.042388 0.020000
v -0.001027 0.042488 0.020000
v -0.005123 0.042190 0.020000
v -0.009171 0.041499 0.020000
v -0.013133 0.040420 0.020000
v -0.016973 0.038964 0.020000
v -0.020654 0.037144 0.020000
v -0.024143 0.034977 0.020000
v -0.027406 0.032483 0.020000
v -0.030413 0.029687 0.020000
v -0.033136 0.026613 0.020000
v -0.035550 0.023291 0.020000
v -0.037632 0.019751 0.020000
v -0.039362 0.016027 0.020000
v -0.040725 0.012153 0.020000
v -0.041708 0.008165 0.020000
v -0.042302 0.004102 0.020000
v -0.042500 0.000000 0.002000
v -0.042302 0.004102 0.002000
v -0.041708 0.008165 0.002000
v -0.040725 0.012153 0.002000
v -0.039362 0.016027 0.002000
v -0.037632 0.019751 0.002000
v -0.035550 0.023291 0.002000
v -0.033136 0.026613 0.002000
v -0.030413 0.029687 0.002000
v -0.027406 0.032483 0.002000
v -0.024143 0.034977 0.002000
v -0.020654 0.037144 0.002000
v -0.016973 0.038964 0.002000
v -0.013133 0.040420 0.002000
v -0.009171 0.041499 0.002000
v -0.005123 0.042190 0.002000
v -0.001027 0.042488 0.002000
v 0.003078 0.042388 0.002000
v 0.007155 0.041893 0.002000
v 0.011165 0.041007 0.002000
v 0.015071 0.039738 0.002000
v 0.018836 0.038098 0.002000
v 0.022425 0.036102 0.002000
v 0.025804 0.033770 0.002000
v 0.028943 0.031121 0.002000
v 0.031812 0.028183 0.002000
v 0.034383 0.024981 0.002000
v 0.036634 0.021546 0.002000
v 0.038542 0.017910 0.002000
v 0.040091 0.014106 0.002000
v 0.041265 0.010171 0.002000
v 0.042054 0.006141 0.002000
v 0.042450 0.002053 0.002000
v 0.042450 -0.002053 0.002000
v 0.042054 -0.006141 0.002000
v 0.041265 -0.010171 0.002000
v 0.040091 -0.014106 0.002000
v 0.038542 -0.017910 0.002000
v 0.036634 -0.021546 0.002000
v 0.034383 -0.024981 0.002000
v 0.031812 -0.028183 0.002000
v 0.028943 -0.031121 0.002000
v 0.025804 -0.033770 0.002000
v 0.022425 -0.036102 0.002000
v 0.018836 -0.038098 0.002000
v 0.015071 -0.039738 0.002000
v 0.011165 -0.041007 0.002000
v 0.007155 -0.041893 0.002000
v 0.003078 -0.042388 0.002000
v -0.001027 -0.042488 0.002000
v -0.005123 -0.042190 0.002000
v -0.009171 -0.041499 0.002000
v -0.013133 -0.040420 0.002000
v -0.016973 -0.038964 0.002000
v -0.020654 -0.037144 0.002000
v -0.024143 -0.034977 0.002000
v -0.027406 -0.032483 0.002000
v -0.030413 -0.029687 0.002000
v -0.033136 -0.026613 0.002000
v -0.035550 -0.023291 0.002000
v -0.037632 -0.019751 0.002000
v -0.039362 -0.016027 0.002000
v -0.040725 -0.012153 0.002000
v -0.041708 -0.008165 0.002000
v -0.042302 -0.004102 0.002000
v 0.044500 0.000000 0.020000
v 0.044299 -0.004230 0.020000
v 0.043696 -0.008422 0.020000
v 0.042697 -0.012537 0.020000
v 0.041312 -0.016539 0.020000
v 0.039553 -0.020391 0.020000
v 0.037436 -0.024059 0.020000
v 0.034979 -0.027508 0.020000
v 0.032206 -0.030709 0.020000
v 0.029141 -0.033631 0.020000
v 0.025813 -0.036249 0.020000
v 0.022250 -0.038538 0.020000
v 0.018486 -0.040479 0.020000
v 0.014555 -0.042053 0.020000
v 0.010491 -0.043246 0.020000
v 0.006333 -0.044047 0.020000
v 0.002117 -0.044450 0.020000
v -0.002117 -0.044450 0.020000
v -0.006333 -0.044047 0.020000
v -0.010491 -0.043246 0.020000
v -0.014555 -0.042053 0.020000
v -0.018486 -0.040479 0.020000
v -0.022250 -0.038538 0.020000
v -0.025813 -0.036249 0.020000
v -0.029141 -0.033631 0.020000
v -0.032206 -0.030709 0.020000
v -0.034979 -0.027508 0.020000
v -0.037436 -0.024059 0.020000
v -0.039553 -0.020391 0.020000
v -0.041312 -0.016539 0.020000
v -0.042697 -0.012537 0.020000
v -0.043696 -0.008422 0.020000
v -0.044299 -0.004230 0.020000
v -0.044500 0.000000 0.020000
v -0.044299 0.004230 0.020000
v -0.043696 0.008422 0.020000
v -0.042697 0.012537 0.020000
v -0.041312 0.016539 0.020000
v -0.039553 0.020391 0.020000
v -0.037436 0.024059 0.020000
v -0.034979 0.027508 0.020000
v -0.032206 0.030709 0.020000
v -0.029141 0.033631 0.020000
v -0.025813 0.036249 0.020000
v -0.022250 0.038538 0.020000
v -0.018486 0.040479 0.020000
v -0.014555 0.042053 0.020000
v -0.010491 0.043246 0.020000
v -0.006333 0.044047 0.020000
v -0.002117 0.044450 0.020000
v 0.002117 0.044450 0.020000
v 0.006333 0.044047 0.020000
v 0.010491 0.043246 0.020000
v 0.014555 0.042053 0.020000
v 0.018486 0.040479 0.020000
v 0.022250 0.038538 0.020000
v 0.025813 0.036249 0.020000
v 0.029141 0.033631 0.020000
v 0.032206 0.030709 0.020000
v 0.034979 0.027508 0.020000
v 0.037436 0.024059 0.020000
v 0.039553 0.020391 0.020000
v 0.041312 0.016539 0.020000
v 0.042697 0.012537 0.020000
v 0.043696 0.008422 0.020000
v 0.044299 0.004230 0.020000
v 0.044500 0.000000 0.000000
v 0.044299 0.004230 0.000000
v 0.043696 0.008422 0.000000
v 0.042697 0.012537 0.000000
v 0.041312 0.016539 0.000000
v 0.039553 0.020391 0.000000
v 0.037436 0.024059 0.000000
v 0.034979 0.027508 0.000000
v 0.032206 0.030709 0.000000
v 0.029141 0.033631 0.000000
v 0.025813 0.036249 0.000000
v 0.022250 0.038538 0.000000
v 0.018486 0.040479 0.000000
v 0.014555 0.042053 0.000000
v 0.010491 0.043246 0.000000
v 0.006333 0.044047 0.000000
v 0.002117 0.044450 0.000000
v -0.002117 0.044450 0.000000
v -0.006333 0.044047 0.000000
v -0.010491 0.043246 0.000000
v -0.014555 0.042053 0.000000
v -0.018486 0.040479 0.000000
v -0.022250 0.038538 0.000000
v -0.025813 0.036249 0.000000
v -0.029141 0.033631 0.000000
v -0.032206 0.030709 0.000000
v -0.034979 0.027508 0.000000
v -0.037436 0.024059 0.000000
v -0.039553 0.020391 0.000000
v -0.041312 0.016539 0.000000
v -0.042697 0.012537 0.000000
v -0.043696 0.008422 0.000000
v -0.044299 0.004230 0.000000
v -0.044500 0.000000 0.000000
v -0.044299 -0.004230 0.000000
v -0.043696 -0.008422 0.000000
v -0.042697 -0.012537 0.000000
v -0.041312 -0.016539 0.000000
v -0.039553 -0.020391 0.000000
v -0.037436 -0.024059 0.000000
v -0.034979 -0.027508 0.000000
v -0.032206 -0.030709 0.000000
v -0.029141 -0.033631 0.000000
v -0.025813 -0.036249 0.000000
v -0.022250 -0.038538 0.000000
v -0.018486 -0.040479 0.000000
v -0.014555 -0.042053 0.000000
v -0.010491 -0.043246 0.000000
v -0.006333 -0.044047 0.000000
v -0.002117 -0.044450 0.000000
v 0.002117 -0.044450 0.000000
v 0.006333 -0.044047 0.000000
v 0.010491 -0.043246 0.000000
v 0.014555 -0.042053 0.000000
v 0.018486 -0.040479 0.000000
v 0.022250 -0.038538 0.000000
v 0.025813 -0.036249 0.000000
v 0.029141 -0.033631 0.000000
v 0.032206 -0.030709 0.000000
v 0.034979 -0.027508 0.000000
v 0.037436 -0.024059 0.000000
v 0.039553 -0.020391 0.000000
v 0.041312 -0.016539 0.000000
v 0.042697 -0.012537 0.000000
v 0.043696 -0.008422 0.000000
v 0.044299 -0.004230 0.000000
vn 0.9988 0.0482 -0.0000
vn 0.9988 -0.0482 -0.0000
vn 0.9895 -0.1447 -0.0000
vn 0.9896 -0.1442 -0.0000
vn 0.9709 -0.2393 -0.0000
vn 0.9433 -0.3319 -0.0000
vn 0.9069 -0.4213 -0.0000
vn 0.8620 -0.5070 -0.0000
vn 0.8090 -0.5879 -0.0000
vn 0.7486 -0.6631 -0.0000
vn 0.6809 -0.7323 -0.0000
vn 0.6073 -0.7945 -0.0000
vn 0.5276 -0.8495 -0.0000
vn 0.4432 -0.8964 -0.0000
vn 0.3545 -0.9350 -0.0000
vn 0.2628 -0.9649 -0.0000
vn 0.1683 -0.9857 -0.0000
vn 0.0721 -0.9974 -0.0000
vn 0.0726 -0.9974 -0.0000
vn -0.0244 -0.9997 -0.0000
vn -0.1205 -0.9927 -0.0000
vn -0.2157 -0.9764 -0.0000
vn -0.3090 -0.9511 -0.0000
vn -0.3993 -0.9168 -0.0000
vn -0.4860 -0.8739 -0.0000
vn -0.5680 -0.8230 -0.0000
vn -0.6449 -0.7642 -0.0000
vn -0.6447 -0.7645 -0.0000
vn -0.7155 -0.6987 -0.0000
vn -0.7798 -0.6261 -0.0000
vn -0.8366 -0.5478 -0.0000
vn -0.8367 -0.5477 -0.0000
vn -0.8855 -0.4647 -0.0000
vn -0.9262 -0.3771 -0.0000
vn -0.9583 -0.2859 -0.0000
vn -0.9814 -0.1921 -0.0000
vn -0.9953 -0.0964 -0.0000
vn -1.0000 -0.0000 -0.0000
vn -0.9953 0.0964 -0.0000
vn -0.9814 0.1921 -0.0000
vn -0.9583 0.2859 -0.0000
vn -0.9262 0.3771 -0.0000
vn -0.8855 0.4647 -0.0000
vn -0.8366 0.5478 -0.0000
vn -0.8367 0.5477 -0.0000
vn -0.7798 0.6261 -0.0000
vn -0.7155 0.6987 -0.0000
vn -0.7158 0.6983 -0.0000
vn -0.6449 0.7642 -0.0000
vn -0.6446 0.7645 -0.0000
vn -0.5680 0.8230 -0.0000
vn -0.4860 0.8739 -0.0000
vn -0.3993 0.9168 -0.0000
vn -0.3090 0.9511 -0.0000
vn -0.2157 0.9764 -0.0000
vn -0.1205 0.9927 -0.0000
vn -0.0244 0.9997 -0.0000
vn 0.0726 0.9974 -0.0000
vn 0.0721 0.9974 -0.0000
vn 0.1683 0.9857 -0.0000
vn 0.2628 0.9649 -0.0000
vn 0.3545 0.9350 -0.0000
vn 0.4432 0.8964 -0.0000
vn 0.5276 0.8495 -0.0000
vn 0.6073 0.7945 -0.0000
vn 0.6809 0.7323 -0.0000
vn 0.7486 0.6631 -0.0000
vn 0.8090 0.5879 -0.0000
vn 0.8620 0.5070 -0.0000
vn 0.9069 0.4213 -0.0000
vn 0.9433 0.3319 -0.0000
vn 0.9709 0.2393 -0.0000
vn 0.9896 0.1442 -0.0000
vn 0.9895 0.1447 -0.0000
vn -0.0000 -0.0000 1.0000
vn 0.9989 -0.0478 -0.0000
vn 0.9989 -0.0475 -0.0000
vn 0.9989 0.0475 -0.0000
vn 0.9989 0.0478 -0.0000
vn 0.9898 0.1424 -0.0000
vn 0.9718 0.2359 -0.0000
vn 0.9450 0.3270 -0.0000
vn 0.9096 0.4154 -0.0000
vn 0.8661 0.4999 -0.0000
vn 0.8145 0.5802 -0.0000
vn 0.7558 0.6548 -0.0000
vn 0.6900 0.7238 -0.0000
vn 0.6183 0.7860 -0.0000
vn 0.5405 0.8413 -0.0000
vn 0.4583 0.8888 -0.0000
vn 0.4580 0.8889 -0.0000
vn 0.3717 0.9283 -0.0000
vn 0.2817 0.9595 -0.0000
vn 0.1892 0.9819 -0.0000
vn 0.0952 0.9955 -0.0000
vn -0.0000 1.0000 -0.0000
vn -0.0952 0.9955 -0.0000
vn -0.1892 0.9819 -0.0000
vn -0.2817 0.9595 -0.0000
vn -0.3717 0.9283 -0.0000
vn -0.4583 0.8888 -0.0000
vn -0.4580 0.8889 -0.0000
vn -0.5405 0.8413 -0.0000
vn -0.6183 0.7860 -0.0000
vn -0.6900 0.7238 -0.0000
vn -0.7558 0.6548 -0.0000
vn -0.8145 0.5802 -0.0000
vn -0.8661 0.4999 -0.0000
vn -0.9096 0.4154 -0.0000
vn -0.9450 0.3270 -0.0000
vn -0.9718 0.2359 -0.0000
vn -0.9898 0.1424 -0.0000
vn -0.9989 0.0478 -0.0000
vn -0.9989 0.0475 -0.0000
vn -0.9989 -0.0475 -0.0000
vn -0.9989 -0.0478 -0.0000
vn -0.9898 -0.1424 -0.0000
vn -0.9718 -0.2359 -0.0000
vn -0.9450 -0.3270 -0.0000
vn -0.9096 -0.4154 -0.0000
vn -0.8661 -0.4999 -0.0000
vn -0.8145 -0.5802 -0.0000
vn -0.7558 -0.6548 -0.0000
vn -0.6900 -0.7238 -0.0000
vn -0.6183 -0.7860 -0.0000
vn -0.5405 -0.8413 -0.0000
vn -0.4583 -0.8888 -0.0000
vn -0.4580 -0.8889 -0.0000
vn -0.3717 -0.9283 -0.0000
vn -0.2817 -0.9595 -0.0000
vn -0.1892 -0.9819 -0.0000
vn -0.0952 -0.9955 -0.0000
vn -0.0000 -1.0000 -0.0000
vn 0.0952 -0.9955 -0.0000
vn 0.1892 -0.9819 -0.0000
vn 0.2817 -0.9595 -0.0000
vn 0.3717 -0.9283 -0.0000
vn 0.4583 -0.8888 -0.0000
vn 0.4580 -0.8889 -0.0000
vn 0.5405 -0.8413 -0.0000
vn 0.6183 -0.7860 -0.0000
vn 0.6900 -0.7238 -0.0000
vn 0.7558 -0.6548 -0.0000
vn 0.8145 -0.5802 -0.0000
vn 0.8661 -0.4999 -0.0000
vn 0.9096 -0.4154 -0.0000
vn 0.9450 -0.3270 -0.0000
vn 0.9718 -0.2359 -0.0000
vn 0.9898 -0.1424 -0.0000
vn -0.0000 -0.0000 -1.0000
s 1
usemtl Material.001
f 2//1 130//1 1//1
f 1//1 130//1 66//1
f 1//2 66//2 65//2
f 65//2 66//2 67//2
f 65//3 67//3 64//3
f 64//3 67//3 68//4
f 64//5 68//5 63//5
f 63//5 68//5 69//5
f 63//6 69//6 62//6
f 62//6 69//6 70//6
f 62//7 70//7 61//7
f 61//7 70//7 71//7
f 61//8 71//8 60//8
f 60//8 71//8 72//8
f 60//9 72//9 59//9
f 59//9 72//9 73//9
f 59//10 73//10 58//10
f 58//10 73//10 74//10
f 58//11 74//11 57//11
f 57//11 74//11 75//11
f 57//12 75//12 56//12
f 56//12 75//12 76//12
f 56//13 76//13 55//13
f 55//13 76//13 77//13
f 55//14 77//14 54//14
f 54//14 77//14 78//14
f 54//15 78//15 53//15
f 53//15 78//15 79//15
f 53//16 79//16 52//16
f 52//16 79//16 80//16
f 52//17 80//17 51//17
f 51//17 80//17 81//17
f 51//18 81//19 50//19
f 50//19 81//19 82//19
f 50//20 82//20 49//20
f 49//20 82//20 83//20
f 49//21 83//21 48//21
f 48//21 83//21 84//21
f 48//22 84//22 47//22
f 47//22 84//22 85//22
f 47//23 85//23 46//23
f 46//23 85//23 86//23
f 46//24 86//24 45//24
f 45//24 86//24 87//24
f 45//25 87//25 44//25
f 44//25 87//25 88//25
f 44//26 88//26 43//26
f 43//26 88//26 89//26
f 43//27 89//27 42//28
f 42//28 89//27 90//27
f 42//29 90//29 41//29
f 41//29 90//29 91//29
f 41//30 91//30 40//30
f 40//30 91//30 92//30
f 40//31 92//32 39//31
f 39//31 92//32 93//32
f 39//33 93//33 38//33
f 38//33 93//33 94//33
f 38//34 94//34 37//34
f 37//34 94//34 95//34
f 37//35 95//35 36//35
f 36//35 95//35 96//35
f 36//36 96//36 35//36
f 35//36 96//36 97//36
f 35//37 97//37 34//37
f 34//37 97//37 98//37
f 34//38 98//38 33//38
f 33//38 98//38 99//38
f 33//39 99//39 32//39
f 32//39 99//39 100//39
f 32//40 100//40 31//40
f 31//40 100//40 101//40
f 31//41 101//41 30//41
f 30//41 101//41 102//41
f 30//42 102//42 29//42
f 29//42 102//42 103//42
f 29//43 103//43 28//43
f 28//43 103//43 104//43
f 28//44 104//45 27//44
f 27//44 104//45 105//45
f 27//46 105//46 26//46
f 26//46 105//46 106//46
f 26//47 106//48 25//47
f 25//47 106//48 107//47
f 25//49 107//49 24//50
f 24//50 107//49 108//49
f 24//51 108//51 23//51
f 23//51 108//51 109//51
f 23//52 109//52 22//52
f 22//52 109//52 110//52
f 22//53 110//53 21//53
f 21//53 110//53 111//53
f 21//54 111//54 20//54
f 20//54 111//54 112//54
f 20//55 112//55 19//55
f 19//55 112//55 113//55
f 19//56 113//56 18//56
f 18//56 113//56 114//56
f 18//57 114//57 17//57
f 17//57 114//57 115//57
f 17//58 115//58 16//58
f 16//58 115//58 116//59
f 16//60 116//60 15//60
f 15//60 116//60 117//60
f 15//61 117//61 14//61
f 14//61 117//61 118//61
f 14//62 118//62 13//62
f 13//62 118//62 119//62
f 13//63 119//63 12//63
f 12//63 119//63 120//63
f 12//64 120//64 11//64
f 11//64 120//64 121//64
f 11//65 121//65 10//65
f 10//65 121//65 122//65
f 10//66 122//66 9//66
f 9//66 122//66 123//66
f 9//67 123//67 8//67
f 8//67 123//67 124//67
f 8//68 124//68 7//68
f 7//68 124//68 125//68
f 7//69 125//69 6//69
f 6//69 125//69 126//69
f 6//70 126//70 5//70
f 5//70 126//70 127//70
f 5//71 127//71 4//71
f 4//71 127//71 128//71
f 4//72 128//72 3//72
f 3//72 128//72 129//72
f 3//73 129//74 2//74
f 2//74 129//74 130//74
f 67//75 66//75 99//75
f 99//75 66//75 130//75
f 99//75 130//75 100//75
f 100//75 130//75 129//75
f 100//75 129//75 101//75
f 101//75 129//75 128//75
f 101//75 128//75 102//75
f 102//75 128//75 127//75
f 102//75 127//75 103//75
f 103//75 127//75 126//75
f 103//75 126//75 104//75
f 104//75 126//75 125//75
f 104//75 125//75 105//75
f 105//75 125//75 124//75
f 105//75 124//75 106//75
f 106//75 124//75 123//75
f 106//75 123//75 107//75
f 107//75 123//75 122//75
f 107//75 122//75 108//75
f 108//75 122//75 121//75
f 108//75 121//75 109//75
f 109//75 121//75 120//75
f 109//75 120//75 110//75
f 110//75 120//75 119//75
f 110//75 119//75 111//75
f 111//75 119//75 118//75
f 111//75 118//75 112//75
f 112//75 118//75 117//75
f 112//75 117//75 113//75
f 113//75 117//75 116//75
f 113//75 116//75 114//75
f 114//75 116//75 115//75
f 98//75 96//75 99//75
f 99//75 96//75 95//75
f 99//75 95//75 94//75
f 98//75 97//75 96//75
f 94//75 93//75 99//75
f 99//75 93//75 92//75
f 99//75 92//75 91//75
f 91//75 90//75 99//75
f 99//75 90//75 89//75
f 99//75 89//75 88//75
f 88//75 87//75 99//75
f 99//75 87//75 86//75
f 99//75 86//75 85//75
f 85//75 84//75 99//75
f 99//75 84//75 83//75
f 99//75 83//75 82//75
f 82//75 81//75 99//75
f 99//75 81//75 80//75
f 99//75 80//75 79//75
f 79//75 78//75 99//75
f 99//75 78//75 77//75
f 99//75 77//75 76//75
f 76//75 75//75 99//75
f 99//75 75//75 74//75
f 99//75 74//75 73//75
f 73//75 72//75 99//75
f 99//75 72//75 71//75
f 99//75 71//75 70//75
f 70//75 69//75 99//75
f 99//75 69//75 68//75
f 99//75 68//75 67//75
f 132//76 262//77 131//77
f 131//77 262//77 197//77
f 131//78 197//78 196//78
f 196//78 197//78 198//79
f 196//80 198//80 195//80
f 195//80 198//80 199//80
f 195//81 199//81 194//81
f 194//81 199//81 200//81
f 194//82 200//82 193//82
f 193//82 200//82 201//82
f 193//83 201//83 192//83
f 192//83 201//83 202//83
f 192//84 202//84 191//84
f 191//84 202//84 203//84
f 191//85 203//85 190//85
f 190//85 203//85 204//85
f 190//86 204//86 189//86
f 189//86 204//86 205//86
f 189//87 205//87 188//87
f 188//87 205//87 206//87
f 188//88 206//88 187//88
f 187//88 206//88 207//88
f 187//89 207//89 186//89
f 186//89 207//89 208//89
f 186//90 208//91 185//91
f 185//91 208//91 209//90
f 185//92 209//92 184//92
f 184//92 209//92 210//92
f 184//93 210//93 183//93
f 183//93 210//93 211//93
f 183//94 211//94 182//94
f 182//94 211//94 212//94
f 182//95 212//95 181//95
f 181//95 212//95 213//95
f 181//96 213//96 180//96
f 180//96 213//96 214//96
f 180//97 214//97 179//97
f 179//97 214//97 215//97
f 179//98 215//98 178//98
f 178//98 215//98 216//98
f 178//99 216//99 177//99
f 177//99 216//99 217//99
f 177//100 217//100 176//100
f 176//100 217//100 218//100
f 176//101 218//102 175//102
f 175//102 218//102 219//101
f 175//103 219//103 174//103
f 174//103 219//103 220//103
f 174//104 220//104 173//104
f 173//104 220//104 221//104
f 173//105 221//105 172//105
f 172//105 221//105 222//105
f 172//106 222//106 171//106
f 171//106 222//106 223//106
f 171//107 223//107 170//107
f 170//107 223//107 224//107
f 170//108 224//108 169//108
f 169//108 224//108 225//108
f 169//109 225//109 168//109
f 168//109 225//109 226//109
f 168//110 226//110 167//110
f 167//110 226//110 227//110
f 167//111 227//111 166//111
f 166//111 227//111 228//111
f 166//112 228//112 165//112
f 165//112 228//112 229//112
f 165//113 229//114 164//114
f 164//114 229//114 230//114
f 164//115 230//115 163//115
f 163//115 230//115 231//116
f 163//117 231//117 162//117
f 162//117 231//117 232//117
f 162//118 232//118 161//118
f 161//118 232//118 233//118
f 161//119 233//119 160//119
f 160//119 233//119 234//119
f 160//120 234//120 159//120
f 159//120 234//120 235//120
f 159//121 235//121 158//121
f 158//121 235//121 236//121
f 158//122 236//122 157//122
f 157//122 236//122 237//122
f 157//123 237//123 156//123
f 156//123 237//123 238//123
f 156//124 238//124 155//124
f 155//124 238//124 239//124
f 155//125 239//125 154//125
f 154//125 239//125 240//125
f 154//126 240//126 153//126
f 153//126 240//126 241//126
f 153//127 241//128 152//128
f 152//128 241//128 242//127
f 152//129 242//129 151//129
f 151//129 242//129 243//129
f 151//130 243//130 150//130
f 150//130 243//130 244//130
f 150//131 244//131 149//131
f 149//131 244//131 245//131
f 149//132 245//132 148//132
f 148//132 245//132 246//132
f 148//133 246//133 147//133
f 147//133 246//133 247//133
f 147//134 247//134 146//134
f 146//134 247//134 248//134
f 146//135 248//135 145//135
f 145//135 248//135 249//135
f 145//136 249//136 144//136
f 144//136 249//136 250//136
f 144//137 250//137 143//137
f 143//137 250//137 251//137
f 143//138 251//139 142//139
f 142//139 251//139 252//138
f 142//140 252//140 141//140
f 141//140 252//140 253//140
f 141//141 253//141 140//141
f 140//141 253//141 254//141
f 140//142 254//142 139//142
f 139//142 254//142 255//142
f 139//143 255//143 138//143
f 138//143 255//143 256//143
f 138//144 256//144 137//144
f 137//144 256//144 257//144
f 137//145 257//145 136//145
f 136//145 257//145 258//145
f 136//146 258//146 135//146
f 135//146 258//146 259//146
f 135//147 259//147 134//147
f 134//147 259//147 260//147
f 134//148 260//148 133//148
f 133//148 260//148 261//148
f 133//149 261//149 132//149
f 132//149 261//149 262//149
f 65//75 165//75 1//75
f 1//75 165//75 164//75
f 1//75 164//75 163//75
f 165//75 65//75 166//75
f 166//75 65//75 64//75
f 166//75 64//75 167//75
f 167//75 64//75 63//75
f 167//75 63//75 168//75
f 168//75 63//75 62//75
f 168//75 62//75 169//75
f 169//75 62//75 61//75
f 169//75 61//75 170//75
f 170//75 61//75 60//75
f 170//75 60//75 171//75
f 171//75 60//75 59//75
f 171//75 59//75 172//75
f 172//75 59//75 58//75
f 172//75 58//75 173//75
f 173//75 58//75 57//75
f 173//75 57//75 174//75
f 174//75 57//75 56//75
f 174//75 56//75 175//75
f 175//75 56//75 55//75
f 175//75 55//75 176//75
f 176//75 55//75 54//75
f 176//75 54//75 177//75
f 177//75 54//75 53//75
f 177//75 53//75 178//75
f 178//75 53//75 52//75
f 178//75 52//75 179//75
f 179//75 52//75 51//75
f 179//75 51//75 180//75
f 180//75 51//75 50//75
f 180//75 50//75 181//75
f 181//75 50//75 49//75
f 181//75 49//75 182//75
f 182//75 49//75 48//75
f 182//75 48//75 183//75
f 183//75 48//75 47//75
f 183//75 47//75 184//75
f 184//75 47//75 46//75
f 184//75 46//75 185//75
f 185//75 46//75 45//75
f 185//75 45//75 186//75
f 186//75 45//75 44//75
f 186//75 44//75 187//75
f 187//75 44//75 43//75
f 187//75 43//75 188//75
f 188//75 43//75 42//75
f 188//75 42//75 189//75
f 189//75 42//75 41//75
f 189//75 41//75 190//75
f 190//75 41//75 40//75
f 190//75 40//75 191//75
f 191//75 40//75 39//75
f 191//75 39//75 192//75
f 192//75 39//75 38//75
f 192//75 38//75 193//75
f 193//75 38//75 37//75
f 193//75 37//75 194//75
f 194//75 37//75 36//75
f 194//75 36//75 195//75
f 195//75 36//75 35//75
f 195//75 35//75 196//75
f 196//75 35//75 34//75
f 196//75 34//75 131//75
f 131//75 34//75 33//75
f 131//75 33//75 132//75
f 132//75 33//75 32//75
f 132//75 32//75 133//75
f 133//75 32//75 31//75
f 133//75 31//75 134//75
f 134//75 31//75 30//75
f 134//75 30//75 135//75
f 135//75 30//75 29//75
f 135//75 29//75 136//75
f 136//75 29//75 28//75
f 136//75 28//75 137//75
f 137//75 28//75 27//75
f 137//75 27//75 138//75
f 138//75 27//75 26//75
f 138//75 26//75 139//75
f 139//75 26//75 25//75
f 139//75 25//75 140//75
f 140//75 25//75 24//75
f 140//75 24//75 141//75
f 141//75 24//75 23//75
f 141//75 23//75 142//75
f 142//75 23//75 22//75
f 142//75 22//75 143//75
f 143//75 22//75 21//75
f 143//75 21//75 144//75
f 144//75 21//75 20//75
f 144//75 20//75 145//75
f 145//75 20//75 19//75
f 145//75 19//75 146//75
f 146//75 19//75 18//75
f 146//75 18//75 147//75
f 147//75 18//75 17//75
f 147//75 17//75 148//75
f 148//75 17//75 16//75
f 148//75 16//75 149//75
f 149//75 16//75 15//75
f 149//75 15//75 150//75
f 150//75 15//75 14//75
f 150//75 14//75 151//75
f 151//75 14//75 13//75
f 151//75 13//75 152//75
f 152//75 13//75 12//75
f 152//75 12//75 153//75
f 153//75 12//75 11//75
f 153//75 11//75 154//75
f 154//75 11//75 10//75
f 154//75 10//75 155//75
f 155//75 10//75 9//75
f 155//75 9//75 156//75
f 156//75 9//75 8//75
f 156//75 8//75 157//75
f 157//75 8//75 7//75
f 157//75 7//75 158//75
f 158//75 7//75 6//75
f 158//75 6//75 159//75
f 159//75 6//75 5//75
f 159//75 5//75 160//75
f 160//75 5//75 4//75
f 160//75 4//75 161//75
f 161//75 4//75 3//75
f 161//75 3//75 162//75
f 162//75 3//75 2//75
f 162//75 2//75 163//75
f 163//75 2//75 1//75
f 262//150 231//150 197//150
f 197//150 231//150 230//150
f 197//150 230//150 198//150
f 198//150 230//150 229//150
f 198//150 229//150 199//150
f 199//150 229//150 228//150
f 199//150 228//150 200//150
f 200//150 228//150 227//150
f 200//150 227//150 201//150
f 201//150 227//150 226//150
f 201//150 226//150 202//150
f 202//150 226//150 225//150
f 202//150 225//150 203//150
f 203//150 225//150 224//150
f 203//150 224//150 204//150
f 204//150 224//150 223//150
f 204//150 223//150 205//150
f 205//150 223//150 222//150
f 205//150 222//150 206//150
f 206//150 222//150 221//150
f 206//150 221//150 207//150
f 207//150 221//150 220//150
f 207//150 220//150 208//150
f 208//150 220//150 219//150
f 208//150 219//150 209//150
f 209//150 219//150 218//150
f 209//150 218//150 210//150
f 210//150 218//150 217//150
f 210//150 217//150 211//150
f 211//150 217//150 216//150
f 211//150 216//150 212//150
f 212//150 216//150 215//150
f 212//150 215//150 213//150
f 213//150 215//150 214//150
f 231//150 262//150 232//150
f 232//150 262//150 261//150
f 232//150 261//150 233//150
f 233//150 261//150 260//150
f 233//150 260//150 234//150
f 234//150 260//150 259//150
f 234//150 259//150 235//150
f 235//150 259//150 258//150
f 235//150 258//150 236//150
f 236//150 258//150 257//150
f 236//150 257//150 237//150
f 237//150 257//150 256//150
f 237//150 256//150 238//150
f 238//150 256//150 255//150
f 238//150 255//150 239//150
f 239//150 255//150 254//150
f 239//150 254//150 240//150
f 240//150 254//150 253//150
f 240//150 253//150 241//150
f 241//150 253//150 252//150
f 241//150 252//150 242//150
f 242//150 252//150 251//150
f 242//150 251//150 243//150
f 243//150 251//150 250//150
f 243//150 250//150 244//150
f 244//150 250//150 249//150
f 244//150 249//150 245//150
f 245//150 249//150 248//150
f 245//150 248//150 246//150
f 246//150 248//150 247//150
