# Blender 5.1.0
# www.blender.org
mtllib output_000.mtl.mtl
g output_000_网格
v -0.467298 0.191342 0.020701
v -0.440854 0.185896 0.027787
v -0.456946 0.191342 -0.017936
v -0.430501 0.185896 -0.010850
v -0.504062 0.000000 0.010850
v -0.477618 -0.005445 0.017936
v -0.493709 0.000000 -0.027787
v -0.467266 -0.005445 -0.020701
vn 0.1885 0.9808 0.0505
vn 0.2588 -0.0000 -0.9659
vn -0.1884 -0.9808 -0.0505
vn -0.2588 -0.0000 0.9659
vn -0.9474 0.1951 -0.2538
vn 0.9474 -0.1951 0.2538
vt 0.625000 0.000000
vt 0.375000 0.250000
vt 0.375000 0.000000
vt 0.625000 0.500000
vt 0.375000 0.500000
vt 0.375000 0.750000
vt 0.625000 0.750000
vt 0.375000 1.000000
vt 0.125000 0.750000
vt 0.125000 0.500000
vt 0.875000 0.500000
vt 0.625000 0.250000
vt 0.625000 1.000000
vt 0.875000 0.750000
s 1
g off
g output_000_材质
usemtl 材质
f 2/1/1 3/2/1 1/3/1
f 3/2/2 8/4/2 7/5/2
f 8/4/3 5/6/3 7/5/3
f 6/7/4 1/8/4 5/6/4
f 7/5/5 1/9/5 3/10/5
f 4/11/6 6/7/6 8/4/6
f 2/1/1 4/12/1 3/2/1
f 3/2/2 4/12/2 8/4/2
f 8/4/3 6/7/3 5/6/3
f 6/7/4 2/13/4 1/8/4
f 7/5/5 5/6/5 1/9/5
f 4/11/6 2/14/6 6/7/6
