# Blender 5.1.0
# www.blender.org
mtllib output_012.mtl
g output_000.012_网格
v 0.191342 0.461940 0.020000
v 0.185896 0.434563 0.020000
v 0.191342 0.461940 -0.020000
v -0.005445 0.472624 0.020000
v 0.000000 0.500000 0.020000
v 0.000000 0.500000 -0.020000
v -0.005445 0.472624 -0.020000
v 0.185896 0.434563 -0.020000
vn -0.0000 -0.0000 1.0000
vn 0.9808 -0.1951 -0.0000
vn 0.1951 0.9808 -0.0000
vn -0.0000 -0.0000 -1.0000
vn -0.9808 0.1951 -0.0000
vn -0.1951 -0.9808 -0.0000
vt 0.625000 0.750000
vt 0.625000 1.000000
vt 0.375000 1.000000
vt 0.625000 0.000000
vt 0.375000 0.250000
vt 0.375000 0.000000
vt 0.375000 0.500000
vt 0.125000 0.750000
vt 0.125000 0.500000
vt 0.375000 0.750000
vt 0.625000 0.500000
vt 0.625000 0.250000
vt 0.875000 0.500000
vt 0.875000 0.750000
s 1
g off
g output_000.012_材质
usemtl 材质
f 4/1/1 2/2/1 1/3/1
f 2/4/2 3/5/2 1/6/2
f 6/7/3 1/8/3 3/9/3
f 4/1/1 1/3/1 5/10/1
f 6/7/3 5/10/3 1/8/3
f 3/5/4 7/11/4 6/7/4
f 7/11/5 5/10/5 6/7/5
f 3/5/4 8/12/4 7/11/4
f 7/11/5 4/1/5 5/10/5
f 8/13/6 4/1/6 7/11/6
f 8/13/6 2/14/6 4/1/6
f 2/4/2 8/12/2 3/5/2
