ply
format ascii 1.0
comment Created in Blender version 5.1.0
element vertex 260
property float x
property float y
property float z
property float nx
property float ny
property float nz
property float s
property float t
element face 252
property list uchar uint vertex_indices
end_header
0 0.5 0.09000002 0.0980173 0.9951848 0 1 1
0.09754516 0.49039263 -0.009999976 0.19508782 0.9807858 0 0.96875 0.5
0 0.5 -0.009999976 0.09801729 0.9951847 0 1 0.5
0.09754516 0.49039263 0.09000002 0.1950932 0.9807847 0 0.96875 1
0.19134173 0.46193975 -0.009999979 0.38268077 0.92388064 0 0.9375 0.5
0.19134173 0.46193975 0.09000002 0.382686 0.9238785 0 0.9375 1
0.27778512 0.4157348 -0.009999979 0.5555679 0.83147115 0 0.90625 0.5
0.27778512 0.4157348 0.09000002 0.5555726 0.8314681 0 0.90625 1
0.35355338 0.35355338 -0.009999983 0.70710486 0.7071087 0 0.875 0.5
0.35355338 0.35355338 0.09000001 0.70710856 0.707105 0 0.875 1
0.4157348 0.27778512 -0.009999987 0.83146816 0.55557257 0 0.84375 0.5
0.4157348 0.27778512 0.09 0.83147097 0.5555682 0 0.84375 1
0.46193975 0.19134173 -0.00999999 0.9238785 0.38268596 0 0.8125 0.5
0.46193975 0.19134173 0.09 0.92388064 0.38268083 0 0.8125 1
0.49039263 0.09754516 -0.009999994 0.9807847 0.19509313 0 0.78125 0.5
0.49039263 0.09754516 0.09 0.9807859 0.19508764 1.1345995e-07 0.78125 1
0.5 2.1855693e-09 -0.009999998 1 2.7881113e-06 -2.7128982e-07 0.75 0.5
0.5 -2.1855693e-09 0.089999996 1 -2.77143e-06 3.5527698e-08 0.75 1
0.49039263 -0.09754516 -0.010000002 0.9807859 -0.19508764 -1.9339183e-07 0.71875 0.5
0.49039263 -0.09754516 0.08999999 0.9807848 -0.1950931 0 0.71875 1
0.46193975 -0.19134173 -0.010000005 0.92388064 -0.38268098 0 0.6875 0.5
0.46193975 -0.19134173 0.08999999 0.9238785 -0.3826861 0 0.6875 1
0.4157348 -0.27778512 -0.010000009 0.83147115 -0.5555679 0 0.65625 0.5
0.4157348 -0.27778512 0.08999999 0.83146816 -0.55557245 0 0.65625 1
0.35355338 -0.35355338 -0.010000013 0.7071088 -0.70710474 0 0.625 0.5
0.35355338 -0.35355338 0.08999998 0.7071049 -0.7071086 0 0.625 1
0.27778512 -0.4157348 -0.010000017 0.5555728 -0.8314679 0 0.59375 0.5
0.27778512 -0.4157348 0.089999974 0.5555681 -0.831471 0 0.59375 1
0.19134173 -0.46193975 -0.010000017 0.38268584 -0.92387855 0 0.5625 0.5
0.19134173 -0.46193975 0.089999974 0.38268062 -0.9238807 0 0.5625 1
0.09754516 -0.49039263 -0.01000002 0.19509305 -0.98078483 0 0.53125 0.5
0.09754516 -0.49039263 0.089999974 0.19508766 -0.9807859 0 0.53125 1
0 -0.5 -0.01000002 2.7761964e-06 -1 0 0.5 0.5
0 -0.5 0.089999974 -2.7809626e-06 -1 -0 0.5 1
-0.09754516 -0.49039263 -0.01000002 -0.19508749 -0.98078585 -0 0.46875 0.5
-0.09754516 -0.49039263 0.089999974 -0.19509305 -0.98078483 -0 0.46875 1
-0.19134173 -0.46193975 -0.010000017 -0.38268074 -0.92388076 -0 0.4375 0.5
-0.19134173 -0.46193975 0.089999974 -0.38268605 -0.92387855 -0 0.4375 1
-0.27778512 -0.4157348 -0.010000017 -0.555568 -0.8314712 -0 0.40625 0.5
-0.27778512 -0.4157348 0.089999974 -0.55557275 -0.8314679 -0 0.40625 1
-0.35355338 -0.35355338 -0.010000013 -0.707105 -0.7071086 -0 0.375 0.5
-0.35355338 -0.35355338 0.08999998 -0.7071089 -0.70710474 -0 0.375 1
-0.4157348 -0.27778512 -0.010000009 -0.83146816 -0.55557257 -0 0.34375 0.5
-0.4157348 -0.27778512 0.08999999 -0.83147126 -0.55556786 -0 0.34375 1
-0.46193975 -0.19134173 -0.010000005 -0.9238785 -0.38268605 -0 0.3125 0.5
-0.46193975 -0.19134173 0.08999999 -0.92388064 -0.3826808 -0 0.3125 1
-0.49039263 -0.09754516 -0.010000002 -0.9807847 -0.1950931 -0 0.28125 0.5
-0.49039263 -0.09754516 0.08999999 -0.98078585 -0.19508761 -1.1345995e-07 0.28125 1
-0.5 2.1855693e-09 -0.009999998 -1 -2.7738133e-06 2.7128985e-07 0.25 0.5
-0.5 -2.1855693e-09 0.089999996 -1 2.7976437e-06 -3.5527687e-08 0.25 1
-0.49039263 0.09754516 -0.009999994 -0.98078585 0.19508758 1.9339183e-07 0.21875 0.5
-0.49039263 0.09754516 0.09 -0.9807847 0.1950931 0 0.21875 1
-0.46193975 0.19134173 -0.00999999 -0.92388064 0.38268074 0 0.1875 0.5
-0.46193975 0.19134173 0.09 -0.9238785 0.382686 0 0.1875 1
-0.4157348 0.27778512 -0.009999987 -0.831471 0.5555681 0 0.15625 0.5
-0.4157348 0.27778512 0.09 -0.8314681 0.5555726 0 0.15625 1
-0.35355338 0.35355338 -0.009999983 -0.7071089 0.70710474 0 0.125 0.5
-0.35355338 0.35355338 0.09000001 -0.7071048 0.7071088 0 0.125 1
-0.27778512 0.4157348 -0.009999979 -0.5555726 0.83146805 0 0.09375 0.5
-0.27778512 0.4157348 0.09000002 -0.5555675 0.83147144 0 0.09375 1
-0.19134173 0.46193975 -0.009999979 -0.3826862 0.9238784 0 0.0625 0.5
0 -0.5 0.089999974 0 6.629381e-08 1 0.25 0.010000005
0.091692455 -0.46096906 0.089999974 0 0 1 0.2940123 0.028734857
0 -0.47 0.089999974 0 0 1 0.25 0.024400009
0.09754516 0.49039263 0.09000002 0 -1.0027629e-07 1 0.29682168 0.48538846
-0.09754516 0.49039263 0.09000002 0 -4.2349124e-09 1 0.20317832 0.48538846
0 0.47 0.09000002 0 -1.5428864e-08 1 0.25 0.47560006
-0.19134173 0.46193975 0.09000002 -0.38268077 0.92388064 0 0.0625 1
-0.09754516 0.49039263 -0.009999976 -0.19509317 0.9807847 0 0.03125 0.5
-0.09754516 0.49039263 0.09000002 -0.19508766 0.9807859 0 0.03125 1
0 0.5 -0.009999976 -0.09801731 0.9951848 0 0 0.5
0.19134173 -0.46193975 -0.010000017 -4.573042e-09 5.393251e-08 -1 0.841844 0.028268918
-0.46193975 -0.19134173 -0.010000005 2.8802065e-11 3.938816e-08 -1 0.52826893 0.15815598
-0.19134173 0.46193975 -0.009999979 -4.573042e-09 5.381028e-08 -1 0.658156 0.47173107
0 0.47 1.8626451e-08 -0.098017275 -0.9951848 -0 1 0.5
0.091692455 0.46096906 0.09000002 -0.19508797 -0.9807858 -0 0.96875 0.95000005
0 0.47 0.09000002 -0.098017275 -0.9951847 -0 1 0.95000005
0.091692455 0.46096906 1.4901161e-08 -0.1950932 -0.9807847 -0 0.96875 0.5
0.17986122 0.43422335 0.09000002 -0.382681 -0.92388064 -0 0.9375 0.95000005
0.17986122 0.43422335 1.4901161e-08 -0.38268572 -0.92387867 -0 0.9375 0.5
0.26111802 0.3907907 0.09000002 -0.5555679 -0.83147115 -0 0.90625 0.95000005
0.26111802 0.3907907 1.4901161e-08 -0.5555722 -0.8314683 -0 0.90625 0.5
0.33234018 0.33234018 0.09000001 -0.7071068 -0.7071068 -0 0.875 0.95000005
0.3907907 0.26111802 7.450581e-09 -0.8314681 -0.5555725 -0 0.84375 0.5
0.33234018 0.33234018 1.1175871e-08 -0.70710677 -0.7071068 -0 0.875 0.5
0.43422335 0.17986122 3.7252903e-09 -0.9238785 -0.38268596 -0 0.8125 0.5
0.3907907 0.26111802 0.09 -0.8314712 -0.55556804 -0 0.84375 0.95000005
0.46096906 0.091692455 0 -0.9807847 -0.19509317 -0 0.78125 0.5
0.43422335 0.17986122 0.09 -0.92388064 -0.38268077 -0 0.8125 0.95000005
0.47 1.7484556e-09 -3.7252903e-09 -1 -2.7881115e-06 2.2405084e-07 0.75 0.5
0.46096906 0.091692455 0.09 -0.9807858 -0.19508778 -0 0.78125 0.95000005
0.46096906 -0.091692455 -7.450581e-09 -0.9807858 0.19508772 1.1035901e-07 0.71875 0.5
0.47 -2.1855693e-09 0.089999996 -1 2.7666642e-06 1.1370444e-07 0.75 0.95000005
0.43422335 -0.17986122 -1.1175871e-08 -0.92388064 0.38268077 0 0.6875 0.5
0.46096906 -0.091692455 0.08999999 -0.9807847 0.19509315 0 0.71875 0.95000005
0.3907907 -0.26111802 -1.4901161e-08 -0.831471 0.5555681 0 0.65625 0.5
0.43422335 -0.17986122 0.08999999 -0.9238785 0.38268593 0 0.6875 0.95000005
0.33234018 -0.33234018 -1.8626451e-08 -0.70710886 0.70710474 0 0.625 0.5
0.3907907 -0.26111802 0.08999999 -0.8314681 0.5555725 0 0.65625 0.95000005
0.26111802 -0.3907907 -2.2351742e-08 -0.5555727 0.83146805 0 0.59375 0.5
0.33234018 -0.33234018 0.08999998 -0.70710504 0.70710856 0 0.625 0.95000005
0.17986122 -0.43422335 -2.2351742e-08 -0.38268557 0.9238787 0 0.5625 0.5
0.26111802 -0.3907907 0.089999974 -0.55556804 0.8314712 0 0.59375 0.95000005
0.091692455 -0.46096906 -2.2351742e-08 -0.1950935 0.9807847 0 0.53125 0.5
0.17986122 -0.43422335 0.089999974 -0.38268074 0.92388064 0 0.5625 0.95000005
0 -0.47 -2.6077032e-08 -2.5545776e-06 1 0 0.5 0.5
0.091692455 -0.46096906 0.089999974 -0.19508827 0.9807858 0 0.53125 0.95000005
-0.091692455 -0.46096906 -2.2351742e-08 0.19508822 0.9807858 0 0.46875 0.5
0 -0.47 0.089999974 3.0097306e-06 1 0 0.5 0.95000005
-0.17986122 -0.43422335 -2.2351742e-08 0.38268334 0.92387956 0 0.4375 0.5
-0.091692455 -0.46096906 0.089999974 0.19509304 0.9807848 0 0.46875 0.95000005
-0.26111802 -0.3907907 0.089999974 0.55557036 0.83146966 0 0.40625 0.95000005
-0.17986122 -0.43422335 0.089999974 0.38268295 0.92387974 0 0.4375 0.95000005
-0.33234018 -0.33234018 -1.8626451e-08 0.7071068 0.7071067 0 0.375 0.5
-0.26111802 -0.3907907 -2.2351742e-08 0.55557066 0.83146936 0 0.40625 0.5
-0.3907907 -0.26111802 0.08999999 0.8314681 0.5555725 0 0.34375 0.95000005
-0.33234018 -0.33234018 0.08999998 0.70710677 0.7071068 0 0.375 0.95000005
-0.3907907 -0.26111802 -1.4901161e-08 0.831471 0.5555681 0 0.34375 0.5
-0.43422335 -0.17986122 0.08999999 0.9238785 0.38268596 0 0.3125 0.95000005
-0.43422335 -0.17986122 -1.1175871e-08 0.92388064 0.3826808 0 0.3125 0.5
-0.46096906 -0.091692455 0.08999999 0.9807847 0.19509317 0 0.28125 0.95000005
-0.46096906 -0.091692455 -7.450581e-09 0.9807858 0.19508772 1.1035901e-07 0.28125 0.5
-0.47 -2.1855693e-09 0.089999996 1 2.7666642e-06 1.1370444e-07 0.25 0.95000005
-0.47 1.7484556e-09 -3.7252903e-09 1 -2.7881115e-06 2.2405084e-07 0.25 0.5
-0.46096906 0.091692455 0.09 0.9807858 -0.19508776 0 0.21875 0.95000005
-0.46096906 0.091692455 0 0.9807847 -0.19509317 0 0.21875 0.5
-0.43422335 0.17986122 0.09 0.92388064 -0.38268077 0 0.1875 0.95000005
-0.43422335 0.17986122 3.7252903e-09 0.9238785 -0.38268593 0 0.1875 0.5
-0.3907907 0.26111802 0.09 0.8314712 -0.55556804 0 0.15625 0.95000005
-0.3907907 0.26111802 7.450581e-09 0.8314681 -0.5555725 0 0.15625 0.5
-0.33234018 0.33234018 0.09000001 0.7071087 -0.70710486 0 0.125 0.95000005
-0.33234018 0.33234018 1.1175871e-08 0.7071049 -0.7071087 0 0.125 0.5
-0.26111802 0.3907907 0.09000002 0.5555722 -0.8314684 0 0.09375 0.95000005
-0.26111802 0.3907907 1.4901161e-08 0.5555678 -0.8314712 0 0.09375 0.5
-0.17986122 0.43422335 0.09000002 0.38268572 -0.92387867 0 0.0625 0.95000005
-0.17986122 0.43422335 1.4901161e-08 0.38268098 -0.92388064 0 0.0625 0.5
-0.091692455 0.46096906 0.09000002 0.1950932 -0.9807847 0 0.03125 0.95000005
-0.091692455 0.46096906 1.4901161e-08 0.19508798 -0.9807858 0 0.03125 0.5
0 0.47 0.09000002 0.098017275 -0.9951848 0 0 0.95000005
-0.3907907 -0.26111802 -1.4901161e-08 1.0009408e-10 -4.5769887e-08 1 0.5504473 0.11666314
0.26111802 -0.3907907 -2.2351742e-08 -1.6975704e-09 -3.756858e-08 1 0.88333684 0.0504473
0.3907907 0.26111802 7.450581e-09 1.0009434e-10 -4.5769895e-08 1 0.9495527 0.38333684
-0.26111802 -0.3907907 0.089999974 1.14192915e-07 3.5970177e-07 1 0.12466335 0.062420473
-0.33234018 -0.33234018 0.08999998 5.492506e-08 -1.5949283e-07 1 0.09047673 0.0904767
-0.35355338 -0.35355338 0.08999998 5.299944e-08 -1.0775771e-07 1 0.080294386 0.080294386
-0.27778512 -0.4157348 0.089999974 -1.836703e-07 0 1 0.11666314 0.0504473
-0.19134173 -0.46193975 0.089999974 3.2011005e-09 3.2755683e-08 1 0.15815598 0.028268918
-0.09754516 -0.49039263 0.089999974 0 0 1 0.20317832 0.014611542
0.09754516 -0.49039263 0.089999974 0 0 1 0.29682168 0.014611542
0.19134173 -0.46193975 0.089999974 -1.0667926e-08 0 1 0.34184402 0.028268918
0.27778512 -0.4157348 0.089999974 1.836703e-07 0 1 0.38333684 0.0504473
0.35355338 -0.35355338 0.08999998 -5.131962e-08 -1.1773298e-07 1 0.41970563 0.080294386
0.33234018 -0.33234018 0.08999998 -5.4925078e-08 -1.6928375e-07 1 0.40952328 0.09047672
0.26111802 -0.3907907 0.089999974 -3.0263428e-07 8.2505966e-07 1 0.37533665 0.062420476
0.17986122 -0.43422335 0.089999974 -2.2878814e-08 1.5816909e-08 1 0.33633342 0.041572794
-0.17986122 -0.43422335 0.089999974 0 6.3268686e-08 1 0.16366662 0.041572794
-0.091692455 -0.46096906 0.089999974 0 3.4236625e-06 1 0.20598762 0.028734852
0.4157348 -0.27778512 0.08999999 -2.3487805e-08 -8.279912e-09 1 0.4495527 0.11666314
0.46193975 -0.19134173 0.08999999 0 -2.4844474e-07 1 0.47173107 0.15815598
0.49039263 -0.09754516 0.08999999 -7.0904447e-09 -5.0278455e-08 1 0.48538846 0.20317832
0.5 -2.1855693e-09 0.089999996 0 -1.2422286e-07 1 0.49 0.25
0.49039263 0.09754516 0.09 6.269142e-09 -2.4948045e-08 1 0.48538846 0.29682168
0.46193975 0.19134173 0.09 0 -4.9688947e-07 1 0.47173107 0.34184402
0.4157348 0.27778512 0.09 2.1991834e-08 -8.37135e-08 1 0.4495527 0.38333684
0.35355338 0.35355338 0.09000001 5.4009156e-08 0 1 0.41970563 0.41970563
0.27778512 0.4157348 0.09000002 3.248196e-08 -1.00276374e-07 1 0.38333684 0.4495527
0.19134173 0.46193975 0.09000002 0 -9.937795e-07 1 0.34184402 0.47173107
0 0.5 0.09000002 0 0 1 0.25 0.49
-0.19134173 0.46193975 0.09000002 0 -4.9688947e-07 1 0.15815598 0.47173107
-0.27778512 0.4157348 0.09000002 -3.2380168e-08 -7.079612e-08 1 0.11666314 0.4495527
-0.35355338 0.35355338 0.09000001 -5.4009156e-08 0 1 0.080294386 0.41970563
-0.4157348 0.27778512 0.09 -2.3487598e-08 1.13902225e-07 1 0.0504473 0.38333684
-0.46193975 0.19134173 0.09 0 -2.4844474e-07 1 0.028268918 0.34184402
-0.49039263 0.09754516 0.09 -6.2885417e-09 4.6166856e-10 1 0.014611542 0.29682168
-0.5 -2.1855693e-09 0.089999996 0 -1.2422286e-07 1 0.010000005 0.25
-0.49039263 -0.09754516 0.08999999 6.288753e-09 -3.6966597e-08 1 0.014611542 0.20317832
-0.46193975 -0.19134173 0.08999999 0 -4.9688947e-07 1 0.028268918 0.15815598
-0.4157348 -0.27778512 0.08999999 2.3487072e-08 5.0939057e-08 1 0.0504473 0.11666314
-0.3907907 -0.26111802 0.08999999 2.2571854e-08 6.258e-08 1 0.06242047 0.12466332
0.3907907 -0.26111802 0.08999999 -2.25718e-08 0 1 0.43757957 0.12466335
0.43422335 -0.17986122 0.08999999 0 0 1 0.4584272 0.16366662
-0.43422335 -0.17986122 0.08999999 0 -8.559156e-07 1 0.041572798 0.16366664
0.46096906 -0.091692455 0.08999999 -6.6007746e-09 -3.9198458e-08 1 0.47126517 0.2059876
-0.46096906 -0.091692455 0.08999999 7.926157e-09 0 1 0.028734855 0.20598762
-0.47 -2.1855693e-09 0.089999996 0 -9.956833e-08 1 0.024400001 0.24999999
0.47 -2.1855693e-09 0.089999996 4.1520178e-08 0 1 0.4756 0.25
-0.46096906 0.091692455 0.09 -7.926173e-09 1.8037925e-08 1 0.028734855 0.29401237
0.46096906 0.091692455 0.09 7.926157e-09 0 1 0.4712651 0.29401234
0.43422335 0.17986122 0.09 0 -1.5428842e-08 1 0.45842722 0.33633336
-0.43422335 0.17986122 0.09 0 0 1 0.041572794 0.33633336
0.3907907 0.26111802 0.09 2.2446693e-08 -8.464194e-08 1 0.4375795 0.37533662
-0.3907907 0.26111802 0.09 -2.25718e-08 1.6928382e-07 1 0.062420476 0.37533665
-0.33234018 0.33234018 0.09000001 -5.4436626e-08 -1.6056481e-07 1 0.09047671 0.40952328
0.33234018 0.33234018 0.09000001 8.9506464e-08 -3.0857375e-08 1 0.40952328 0.40952325
-0.26111802 0.3907907 0.09000002 -3.378118e-08 -2.3381618e-08 1 0.12466334 0.4375796
0.26111802 0.3907907 0.09000002 3.37811e-08 -8.464195e-08 1 0.37533665 0.4375795
0.17986122 0.43422335 0.09000002 0 1.5428864e-08 1 0.33633336 0.4584272
-0.17986122 0.43422335 0.09000002 0 8.559156e-07 1 0.16366662 0.45842725
0.091692455 0.46096906 0.09000002 0 -8.464183e-08 1 0.2940124 0.4712651
-0.091692455 0.46096906 0.09000002 0 0 1 0.2059876 0.47126508
0 0.5 0.09000002 -0.09801729 0.9951847 0 0 1
-0.09754516 0.49039263 -0.009999976 -1.9095255e-08 1.8633395e-07 -1 0.70317835 0.48538846
0 0.5 -0.009999976 -1.5078277e-16 1.0194011e-07 -1 0.75 0.49
0.09754516 0.49039263 -0.009999976 1.9095252e-08 1.8633393e-07 -1 0.79682165 0.48538846
0.19134173 0.46193975 -0.009999979 4.627147e-09 5.0790618e-08 -1 0.841844 0.47173107
0.27778512 0.4157348 -0.009999979 9.183515e-08 1.8633393e-07 -1 0.88333684 0.4495527
0.35355338 0.35355338 -0.009999983 1.5378305e-08 5.4074885e-08 -1 0.9197056 0.41970563
0.4157348 0.27778512 -0.009999987 -2.1217216e-08 9.316604e-08 -1 0.9495527 0.38333684
0.46193975 0.19134173 -0.00999999 2.8802027e-11 4.2464304e-08 -1 0.97173107 0.34184402
0.49039263 0.09754516 -0.009999994 -7.450611e-09 4.658357e-08 -1 0.98538846 0.29682168
0.5 2.1855693e-09 -0.009999998 -9.989358e-16 3.988774e-08 -1 0.99 0.25
0.49039263 -0.09754516 -0.010000002 7.450581e-09 3.1055716e-08 -1 0.98538846 0.20317832
0.46193975 -0.19134173 -0.010000005 1.9149067e-09 3.573749e-08 -1 0.97173107 0.15815598
0.4157348 -0.27778512 -0.010000009 2.1217158e-08 -6.211069e-08 -1 0.9495527 0.11666314
0.35355338 -0.35355338 -0.010000013 -1.5378307e-08 7.6670666e-08 -1 0.9197056 0.080294386
0.27778512 -0.4157348 -0.010000017 -9.183515e-08 1.2422262e-07 -1 0.88333684 0.0504473
0.09754516 -0.49039263 -0.01000002 -1.9095255e-08 1.2422264e-07 -1 0.79682165 0.014611542
0 -0.5 -0.01000002 -1.5078277e-16 1.2764069e-07 -1 0.75 0.010000005
-0.09754516 -0.49039263 -0.01000002 1.9095252e-08 1.2422261e-07 -1 0.70317835 0.014611542
-0.19134173 -0.46193975 -0.010000017 4.627147e-09 5.451047e-08 -1 0.658156 0.028268918
-0.27778512 -0.4157348 -0.010000017 9.183515e-08 1.2422262e-07 -1 0.61666316 0.0504473
-0.35355338 -0.35355338 -0.010000013 1.5378305e-08 7.770559e-08 -1 0.5802944 0.080294386
-0.4157348 -0.27778512 -0.010000009 -2.1217216e-08 -3.1055347e-08 -1 0.5504473 0.11666314
-0.49039263 -0.09754516 -0.010000002 -7.450611e-09 2.3291785e-08 -1 0.51461154 0.20317832
-0.5 2.1855693e-09 -0.009999998 -9.989358e-16 3.9111537e-08 -1 0.51 0.25
-0.49039263 0.09754516 -0.009999994 7.450581e-09 3.1055716e-08 -1 0.51461154 0.29682168
-0.46193975 0.19134173 -0.00999999 1.9149067e-09 4.13439e-08 -1 0.52826893 0.34184402
-0.4157348 0.27778512 -0.009999987 2.1217158e-08 6.211069e-08 -1 0.5504473 0.38333684
-0.35355338 0.35355338 -0.009999983 -1.5378307e-08 5.303995e-08 -1 0.5802944 0.41970563
-0.27778512 0.4157348 -0.009999979 -9.183515e-08 1.8633393e-07 -1 0.61666316 0.4495527
0 0.47 1.8626451e-08 0.09801728 -0.9951847 0 0 0.5
0.33234018 0.33234018 1.1175871e-08 2.8728254e-08 -2.8728454e-08 1 0.9197056 0.41970563
0.26111802 0.3907907 1.4901161e-08 -3.6962856e-08 -9.2504955e-08 1 0.88333684 0.4495527
0.17986122 0.43422335 1.4901161e-08 0 1.3407408e-13 1 0.841844 0.47173107
0.091692455 0.46096906 1.4901161e-08 1.8636024e-09 -4.3269132e-08 1 0.79682165 0.48538846
0 0.47 1.8626451e-08 0 -4.125031e-07 1 0.75 0.49
-0.091692455 0.46096906 1.4901161e-08 0 -1.3746744e-08 1 0.70317835 0.48538846
-0.17986122 0.43422335 1.4901161e-08 0 1.3407408e-13 1 0.658156 0.47173107
-0.26111802 0.3907907 1.4901161e-08 -1.6975704e-09 -3.7568576e-08 1 0.61666316 0.4495527
-0.33234018 0.33234018 1.1175871e-08 -2.8728254e-08 -2.8728454e-08 1 0.5802944 0.41970563
-0.3907907 0.26111802 7.450581e-09 -2.295563e-08 -3.4355462e-08 1 0.5504473 0.38333684
-0.43422335 0.17986122 3.7252903e-09 -1.5547876e-08 -3.7535873e-08 1 0.52826893 0.34184402
-0.46096906 0.091692455 0 -8.5116385e-09 -4.2790827e-08 1 0.51461154 0.29682168
-0.47 1.7484556e-09 -3.7252903e-09 0 -4.062829e-08 1 0.51 0.25
-0.46096906 -0.091692455 -7.450581e-09 8.060923e-09 -4.052505e-08 1 0.51461154 0.20317832
-0.43422335 -0.17986122 -1.1175871e-08 1.5547876e-08 -3.7535873e-08 1 0.52826893 0.15815598
-0.33234018 -0.33234018 -1.8626451e-08 2.8728254e-08 -2.8728522e-08 1 0.5802944 0.080294386
-0.26111802 -0.3907907 -2.2351742e-08 -3.6962856e-08 -9.25049e-08 1 0.61666316 0.0504473
-0.17986122 -0.43422335 -2.2351742e-08 0 0 1 0.658156 0.028268918
-0.091692455 -0.46096906 -2.2351742e-08 1.8636024e-09 -4.3269118e-08 1 0.70317835 0.014611542
0 -0.47 -2.6077032e-08 0 -4.125031e-07 1 0.75 0.010000005
0.091692455 -0.46096906 -2.2351742e-08 0 -1.3746781e-08 1 0.79682165 0.014611542
0.17986122 -0.43422335 -2.2351742e-08 0 0 1 0.841844 0.028268918
0.33234018 -0.33234018 -1.8626451e-08 -2.8728254e-08 -2.8728522e-08 1 0.9197056 0.080294386
0.3907907 -0.26111802 -1.4901161e-08 -2.295563e-08 -3.435545e-08 1 0.9495527 0.11666314
0.43422335 -0.17986122 -1.1175871e-08 -1.5547876e-08 -3.7535873e-08 1 0.97173107 0.15815598
0.46096906 -0.091692455 -7.450581e-09 -8.5116385e-09 -4.2790827e-08 1 0.98538846 0.20317832
0.47 1.7484556e-09 -3.7252903e-09 0 -4.062829e-08 1 0.99 0.25
0.46096906 0.091692455 0 8.060923e-09 -4.052505e-08 1 0.98538846 0.29682168
0.43422335 0.17986122 3.7252903e-09 1.5547876e-08 -3.7535873e-08 1 0.97173107 0.34184402
3 0 1 2
3 3 4 1
3 5 6 4
3 7 8 6
3 9 10 8
3 11 12 10
3 13 14 12
3 15 16 14
3 17 18 16
3 19 20 18
3 21 22 20
3 23 24 22
3 25 26 24
3 27 28 26
3 29 30 28
3 31 32 30
3 33 34 32
3 35 36 34
3 37 38 36
3 39 40 38
3 41 42 40
3 43 44 42
3 45 46 44
3 47 48 46
3 49 50 48
3 51 52 50
3 53 54 52
3 55 56 54
3 57 58 56
3 59 60 58
3 61 62 63
3 64 65 66
3 67 68 60
3 69 70 68
3 71 72 73
3 74 75 76
3 77 78 75
3 79 80 78
3 81 82 80
3 83 82 84
3 85 86 83
3 87 88 85
3 89 90 87
3 91 92 89
3 93 94 91
3 95 96 93
3 97 98 95
3 99 100 97
3 101 102 99
3 103 104 101
3 105 106 103
3 107 108 105
3 109 110 107
3 109 111 112
3 113 111 114
3 113 115 116
3 117 118 115
3 119 120 118
3 121 122 120
3 123 124 122
3 125 126 124
3 127 128 126
3 129 130 128
3 131 132 130
3 133 134 132
3 135 136 134
3 137 138 136
3 139 140 141
3 0 3 1
3 3 5 4
3 5 7 6
3 7 9 8
3 9 11 10
3 11 13 12
3 13 15 14
3 15 17 16
3 17 19 18
3 19 21 20
3 21 23 22
3 23 25 24
3 25 27 26
3 27 29 28
3 29 31 30
3 31 33 32
3 33 35 34
3 35 37 36
3 37 39 38
3 39 41 40
3 41 43 42
3 43 45 44
3 45 47 46
3 47 49 48
3 49 51 50
3 51 53 52
3 53 55 54
3 55 57 56
3 57 59 58
3 59 67 60
3 142 143 144
3 144 145 146
3 146 147 61
3 61 148 149
3 149 150 151
3 151 152 153
3 151 153 154
3 142 144 146
3 155 142 146
3 149 151 154
3 149 154 62
3 155 146 61
3 156 155 61
3 61 149 62
3 63 156 61
3 152 151 157
3 157 158 159
3 159 160 161
3 161 162 163
3 163 164 165
3 165 166 64
3 64 167 65
3 65 168 169
3 169 170 171
3 171 172 173
3 173 174 175
3 175 176 177
3 177 144 143
3 177 143 178
3 179 152 157
3 180 179 157
3 175 177 178
3 175 178 181
3 180 157 159
3 182 180 159
3 175 181 183
3 175 183 184
3 182 159 161
3 185 182 161
3 173 175 184
3 173 184 186
3 187 185 161
3 188 187 161
3 171 173 186
3 171 186 189
3 188 161 163
3 190 188 163
3 171 189 191
3 171 191 192
3 190 163 165
3 193 190 165
3 169 171 192
3 169 192 194
3 195 193 165
3 196 195 165
3 65 169 194
3 65 194 197
3 196 165 64
3 198 196 64
3 65 197 199
3 66 198 64
3 65 199 66
3 67 69 68
3 69 200 70
3 73 201 202
3 202 203 204
3 204 205 206
3 206 207 208
3 208 209 210
3 210 211 212
3 212 213 214
3 214 215 71
3 71 216 217
3 217 218 219
3 219 220 221
3 221 222 72
3 72 223 224
3 224 225 226
3 226 227 228
3 228 229 73
3 73 202 204
3 204 206 208
3 208 210 212
3 212 214 71
3 71 217 219
3 219 221 72
3 72 224 226
3 226 228 73
3 73 204 208
3 208 212 71
3 71 219 72
3 72 226 73
3 73 208 71
3 74 77 75
3 77 79 78
3 79 81 80
3 81 84 82
3 83 86 82
3 85 88 86
3 87 90 88
3 89 92 90
3 91 94 92
3 93 96 94
3 95 98 96
3 97 100 98
3 99 102 100
3 101 104 102
3 103 106 104
3 105 108 106
3 107 110 108
3 109 112 110
3 109 114 111
3 113 116 111
3 113 117 115
3 117 119 118
3 119 121 120
3 121 123 122
3 123 125 124
3 125 127 126
3 127 129 128
3 129 131 130
3 131 133 132
3 133 135 134
3 135 137 136
3 137 230 138
3 141 231 232
3 232 233 234
3 234 235 236
3 236 237 238
3 238 239 240
3 240 241 242
3 242 243 244
3 244 245 139
3 139 246 247
3 247 248 249
3 249 250 251
3 251 252 140
3 140 253 254
3 254 255 256
3 256 257 258
3 258 259 141
3 141 232 234
3 234 236 238
3 238 240 242
3 242 244 139
3 139 247 249
3 249 251 140
3 140 254 256
3 256 258 141
3 141 234 238
3 238 242 139
3 139 249 140
3 140 256 141
3 141 238 139
