# Blender 5.1.0
# www.blender.org
mtllib new_coll01.mtl
g 柱体.009_网格
v -0.461940 0.191342 0.020000
v -0.434563 0.185896 0.020000
v -0.461940 0.191342 -0.020000
v -0.434563 0.185896 -0.020000
v -0.500000 0.000000 0.020000
v -0.472624 -0.005445 0.020000
v -0.500000 0.000000 -0.020000
v -0.472624 -0.005445 -0.020000
v -0.500000 -0.000000 0.020000
v -0.472624 0.005445 0.020000
v -0.500000 -0.000000 -0.020000
v -0.472624 0.005445 -0.020000
v -0.461940 -0.191342 0.020000
v -0.434563 -0.185896 0.020000
v -0.461940 -0.191342 -0.020000
v -0.434563 -0.185896 -0.020000
v -0.461940 -0.191342 0.020000
v -0.438731 -0.175834 0.020000
v -0.461940 -0.191342 -0.020000
v -0.438731 -0.175834 -0.020000
v -0.353553 -0.353553 0.020000
v -0.330345 -0.338046 0.020000
v -0.353553 -0.353553 -0.020000
v -0.330345 -0.338046 -0.020000
v -0.353553 -0.353553 0.020000
v -0.338046 -0.330345 0.020000
v -0.353553 -0.353553 -0.020000
v -0.338046 -0.330345 -0.020000
v -0.191342 -0.461940 0.020000
v -0.175834 -0.438731 0.020000
v -0.191342 -0.461940 -0.020000
v -0.175834 -0.438731 -0.020000
v -0.191342 -0.461940 0.020000
v -0.185896 -0.434563 0.020000
v -0.191342 -0.461940 -0.020000
v -0.185896 -0.434563 -0.020000
v 0.000000 -0.500000 0.020000
v 0.005446 -0.472624 0.020000
v 0.000000 -0.500000 -0.020000
v 0.005446 -0.472624 -0.020000
v 0.000000 -0.500000 0.020000
v -0.005445 -0.472624 0.020000
v 0.000000 -0.500000 -0.020000
v -0.005445 -0.472624 -0.020000
v 0.191342 -0.461940 0.020000
v 0.185896 -0.434563 0.020000
v 0.191342 -0.461940 -0.020000
v 0.185896 -0.434563 -0.020000
v 0.191342 -0.461940 0.020000
v 0.175834 -0.438731 0.020000
v 0.191342 -0.461940 -0.020000
v 0.175834 -0.438731 -0.020000
v 0.353553 -0.353553 0.020000
v 0.338046 -0.330345 0.020000
v 0.353553 -0.353553 -0.020000
v 0.338046 -0.330345 -0.020000
v 0.353554 -0.353553 0.020000
v 0.330345 -0.338046 0.020000
v 0.353554 -0.353553 -0.020000
v 0.330345 -0.338046 -0.020000
v 0.461940 -0.191342 0.020000
v 0.438731 -0.175834 0.020000
v 0.461940 -0.191342 -0.020000
v 0.438731 -0.175834 -0.020000
v 0.461940 -0.191342 0.020000
v 0.434564 -0.185896 0.020000
v 0.461940 -0.191342 -0.020000
v 0.434564 -0.185896 -0.020000
v 0.500000 0.000000 0.020000
v 0.472624 0.005446 0.020000
v 0.500000 0.000000 -0.020000
v 0.472624 0.005446 -0.020000
v 0.500000 0.000000 0.020000
v 0.472624 -0.005445 0.020000
v 0.500000 0.000000 -0.020000
v 0.472624 -0.005445 -0.020000
v 0.461940 0.191342 0.020000
v 0.434563 0.185896 0.020000
v 0.461940 0.191342 -0.020000
v 0.434563 0.185896 -0.020000
v 0.461940 0.191342 0.020000
v 0.438731 0.175835 0.020000
v 0.461940 0.191342 -0.020000
v 0.438731 0.175835 -0.020000
v 0.353553 0.353553 0.020000
v 0.330345 0.338046 0.020000
v 0.353553 0.353553 -0.020000
v 0.330345 0.338046 -0.020000
v 0.353553 0.353554 0.020000
v 0.338046 0.330345 0.020000
v 0.353553 0.353554 -0.020000
v 0.338046 0.330345 -0.020000
v 0.191342 0.461940 0.020000
v 0.175834 0.438731 0.020000
v 0.191342 0.461940 -0.020000
v 0.175834 0.438731 -0.020000
v 0.191342 0.461940 0.020000
v 0.185896 0.434563 0.020000
v 0.191342 0.461940 -0.020000
v 0.185896 0.434563 -0.020000
v 0.000000 0.500000 0.020000
v -0.005446 0.472624 0.020000
v 0.000000 0.500000 -0.020000
v -0.005446 0.472624 -0.020000
v -0.000000 0.500000 0.020000
v 0.005445 0.472624 0.020000
v -0.000000 0.500000 -0.020000
v 0.005445 0.472624 -0.020000
v -0.191342 0.461940 0.020000
v -0.185896 0.434563 0.020000
v -0.191342 0.461940 -0.020000
v -0.185896 0.434563 -0.020000
v -0.191342 0.461940 0.020000
v -0.175835 0.438731 0.020000
v -0.191342 0.461940 -0.020000
v -0.175835 0.438731 -0.020000
v -0.353553 0.353553 0.020000
v -0.338046 0.330345 0.020000
v -0.353553 0.353553 -0.020000
v -0.338046 0.330345 -0.020000
v -0.353553 0.353553 0.020000
v -0.330345 0.338046 0.020000
v -0.353553 0.353553 -0.020000
v -0.330345 0.338046 -0.020000
v -0.461940 0.191342 0.020000
v -0.438731 0.175834 0.020000
v -0.461940 0.191342 -0.020000
v -0.438731 0.175834 -0.020000
v -0.461940 0.191342 0.020000
v -0.434563 0.185896 0.020000
v -0.461940 0.191342 -0.020000
v -0.434563 0.185896 -0.020000
v -0.500000 -0.000000 0.020000
v -0.472624 -0.005446 0.020000
v -0.500000 -0.000000 -0.020000
v -0.472624 -0.005446 -0.020000
v -0.500000 -0.000000 0.020000
v -0.472624 0.005445 0.020000
v -0.500000 -0.000000 -0.020000
v -0.472624 0.005445 -0.020000
v -0.461940 -0.191342 0.020000
v -0.434563 -0.185896 0.020000
v -0.461940 -0.191342 -0.020000
v -0.434563 -0.185896 -0.020000
v -0.461940 -0.191342 0.020000
v -0.438731 -0.175835 0.020000
v -0.461940 -0.191342 -0.020000
v -0.438731 -0.175835 -0.020000
v -0.353553 -0.353553 0.020000
v -0.330345 -0.338046 0.020000
v -0.353553 -0.353553 -0.020000
v -0.330345 -0.338046 -0.020000
v -0.353553 -0.353554 0.020000
v -0.338046 -0.330345 0.020000
v -0.353553 -0.353554 -0.020000
v -0.338046 -0.330345 -0.020000
v -0.191342 -0.461940 0.020000
v -0.175834 -0.438731 0.020000
v -0.191342 -0.461940 -0.020000
v -0.175834 -0.438731 -0.020000
v -0.191341 -0.461940 0.020000
v -0.185896 -0.434563 0.020000
v -0.191341 -0.461940 -0.020000
v -0.185896 -0.434563 -0.020000
v 0.000000 -0.500000 0.020000
v 0.005446 -0.472624 0.020000
v 0.000000 -0.500000 -0.020000
v 0.005446 -0.472624 -0.020000
v 0.000000 -0.500000 0.020000
v -0.005445 -0.472624 0.020000
v 0.000000 -0.500000 -0.020000
v -0.005445 -0.472624 -0.020000
v 0.191342 -0.461940 0.020000
v 0.185896 -0.434563 0.020000
v 0.191342 -0.461940 -0.020000
v 0.185896 -0.434563 -0.020000
v 0.191342 -0.461940 0.020000
v 0.175835 -0.438731 0.020000
v 0.191342 -0.461940 -0.020000
v 0.175835 -0.438731 -0.020000
v 0.353553 -0.353553 0.020000
v 0.338046 -0.330345 0.020000
v 0.353553 -0.353553 -0.020000
v 0.338046 -0.330345 -0.020000
v 0.353554 -0.353553 0.020000
v 0.330345 -0.338046 0.020000
v 0.353554 -0.353553 -0.020000
v 0.330345 -0.338046 -0.020000
v 0.461940 -0.191341 0.020000
v 0.438731 -0.175834 0.020000
v 0.461940 -0.191341 -0.020000
v 0.438731 -0.175834 -0.020000
v 0.461940 -0.191341 0.020000
v 0.434564 -0.185896 0.020000
v 0.461940 -0.191341 -0.020000
v 0.434564 -0.185896 -0.020000
v 0.500000 0.000000 0.020000
v 0.472624 0.005446 0.020000
v 0.500000 0.000000 -0.020000
v 0.472624 0.005446 -0.020000
v 0.500000 0.000000 0.020000
v 0.472624 -0.005445 0.020000
v 0.500000 0.000000 -0.020000
v 0.472624 -0.005445 -0.020000
v 0.461940 0.191342 0.020000
v 0.434563 0.185896 0.020000
v 0.461940 0.191342 -0.020000
v 0.434563 0.185896 -0.020000
v 0.461940 0.191342 0.020000
v 0.438731 0.175835 0.020000
v 0.461940 0.191342 -0.020000
v 0.438731 0.175835 -0.020000
v 0.353553 0.353554 0.020000
v 0.330345 0.338046 0.020000
v 0.353553 0.353554 -0.020000
v 0.330345 0.338046 -0.020000
v 0.353553 0.353554 0.020000
v 0.338045 0.330345 0.020000
v 0.353553 0.353554 -0.020000
v 0.338045 0.330345 -0.020000
v 0.191341 0.461940 0.020000
v 0.175834 0.438731 0.020000
v 0.191341 0.461940 -0.020000
v 0.175834 0.438731 -0.020000
v 0.191342 0.461940 0.020000
v 0.185896 0.434564 0.020000
v 0.191342 0.461940 -0.020000
v 0.185896 0.434564 -0.020000
v -0.000000 0.500000 0.020000
v -0.005446 0.472624 0.020000
v -0.000000 0.500000 -0.020000
v -0.005446 0.472624 -0.020000
v -0.000000 0.500000 0.020000
v 0.005445 0.472624 0.020000
v -0.000000 0.500000 -0.020000
v 0.005445 0.472624 -0.020000
v -0.191342 0.461940 0.020000
v -0.185896 0.434563 0.020000
v -0.191342 0.461940 -0.020000
v -0.185896 0.434563 -0.020000
v -0.191342 0.461940 0.020000
v -0.175835 0.438731 0.020000
v -0.191342 0.461940 -0.020000
v -0.175835 0.438731 -0.020000
v -0.353554 0.353553 0.020000
v -0.338046 0.330345 0.020000
v -0.353554 0.353553 -0.020000
v -0.338046 0.330345 -0.020000
v -0.353554 0.353553 0.020000
v -0.330345 0.338046 0.020000
v -0.353554 0.353553 -0.020000
v -0.330345 0.338046 -0.020000
v -0.461940 0.191342 0.020000
v -0.438731 0.175834 0.020000
v -0.461940 0.191342 -0.020000
v -0.438731 0.175834 -0.020000
v -0.461940 0.191341 0.020000
v -0.434564 0.185896 0.020000
v -0.461940 0.191341 -0.020000
v -0.434564 0.185896 -0.020000
v -0.500000 -0.000000 0.020000
v -0.472624 -0.005446 0.020000
v -0.500000 -0.000000 -0.020000
v -0.472624 -0.005446 -0.020000
vn 0.1951 0.9808 -0.0000
vn -0.0000 -0.0000 -1.0000
vn -0.1951 -0.9808 -0.0000
vn -0.0000 -0.0000 1.0000
vn -0.9808 0.1951 -0.0000
vn 0.9808 -0.1951 -0.0000
vn -0.1951 0.9808 -0.0000
vn 0.1951 -0.9808 -0.0000
vn -0.9808 -0.1951 -0.0000
vn 0.9808 0.1951 -0.0000
vn -0.5556 0.8315 -0.0000
vn 0.5556 -0.8315 -0.0000
vn -0.8315 -0.5556 -0.0000
vn 0.8315 0.5556 -0.0000
vn -0.8315 0.5556 -0.0000
vn 0.8315 -0.5556 -0.0000
vn -0.5556 -0.8315 -0.0000
vn 0.5556 0.8315 -0.0000
vt 0.625000 0.000000
vt 0.375000 0.250000
vt 0.375000 0.000000
vt 0.625000 0.500000
vt 0.375000 0.500000
vt 0.375000 0.750000
vt 0.625000 0.750000
vt 0.375000 1.000000
vt 0.125000 0.750000
vt 0.125000 0.500000
vt 0.875000 0.500000
vt 0.625000 0.250000
vt 0.875000 0.750000
vt 0.625000 1.000000
s 0
g off
g 柱体.009_
usemtl 
f 2/1/1 3/2/1 1/3/1
f 3/2/2 8/4/2 7/5/2
f 8/4/3 5/6/3 7/5/3
f 6/7/4 1/8/4 5/6/4
f 7/5/5 1/9/5 3/10/5
f 4/11/6 6/7/6 8/4/6
f 10/1/7 11/2/7 9/3/7
f 12/12/2 15/5/2 11/2/2
f 16/4/8 13/6/8 15/5/8
f 14/7/4 9/8/4 13/6/4
f 15/5/9 9/9/9 11/10/9
f 12/11/10 14/7/10 16/4/10
f 18/1/11 19/2/11 17/3/11
f 19/2/2 24/4/2 23/5/2
f 24/4/12 21/6/12 23/5/12
f 22/7/4 17/8/4 21/6/4
f 23/5/13 17/9/13 19/10/13
f 24/4/14 18/13/14 22/7/14
f 26/1/15 27/2/15 25/3/15
f 27/2/2 32/4/2 31/5/2
f 31/5/16 30/7/16 29/6/16
f 29/6/4 26/14/4 25/8/4
f 31/5/17 25/9/17 27/10/17
f 28/11/18 30/7/18 32/4/18
f 34/1/5 35/2/5 33/3/5
f 35/2/2 40/4/2 39/5/2
f 39/5/6 38/7/6 37/6/6
f 37/6/4 34/14/4 33/8/4
f 35/10/3 37/6/3 33/9/3
f 36/11/1 38/7/1 40/4/1
f 42/1/9 43/2/9 41/3/9
f 44/12/2 47/5/2 43/2/2
f 47/5/10 46/7/10 45/6/10
f 45/6/4 42/14/4 41/8/4
f 43/10/8 45/6/8 41/9/8
f 44/11/7 46/7/7 48/4/7
f 50/1/13 51/2/13 49/3/13
f 52/12/2 55/5/2 51/2/2
f 56/4/14 53/6/14 55/5/14
f 53/6/4 50/14/4 49/8/4
f 51/10/12 53/6/12 49/9/12
f 52/11/11 54/7/11 56/4/11
f 58/1/17 59/2/17 57/3/17
f 60/12/2 63/5/2 59/2/2
f 64/4/18 61/6/18 63/5/18
f 61/6/4 58/14/4 57/8/4
f 59/10/16 61/6/16 57/9/16
f 60/11/15 62/7/15 64/4/15
f 66/1/3 67/2/3 65/3/3
f 68/12/2 71/5/2 67/2/2
f 71/5/1 70/7/1 69/6/1
f 69/6/4 66/14/4 65/8/4
f 67/10/6 69/6/6 65/9/6
f 68/11/5 70/7/5 72/4/5
f 73/3/8 76/12/8 75/2/8
f 76/12/2 79/5/2 75/2/2
f 80/4/7 77/6/7 79/5/7
f 77/6/4 74/14/4 73/8/4
f 75/10/10 77/6/10 73/9/10
f 76/11/9 78/7/9 80/4/9
f 82/1/12 83/2/12 81/3/12
f 84/12/2 87/5/2 83/2/2
f 88/4/11 85/6/11 87/5/11
f 85/6/4 82/14/4 81/8/4
f 83/10/14 85/6/14 81/9/14
f 84/11/13 86/7/13 88/4/13
f 90/1/16 91/2/16 89/3/16
f 92/12/2 95/5/2 91/2/2
f 96/4/15 93/6/15 95/5/15
f 93/6/4 90/14/4 89/8/4
f 91/10/18 93/6/18 89/9/18
f 92/11/17 94/7/17 96/4/17
f 97/3/6 100/12/6 99/2/6
f 100/12/2 103/5/2 99/2/2
f 104/4/5 101/6/5 103/5/5
f 101/6/4 98/14/4 97/8/4
f 99/10/1 101/6/1 97/9/1
f 100/11/3 102/7/3 104/4/3
f 105/3/10 108/12/10 107/2/10
f 108/12/2 111/5/2 107/2/2
f 112/4/9 109/6/9 111/5/9
f 109/6/4 106/14/4 105/8/4
f 107/10/7 109/6/7 105/9/7
f 108/11/8 110/7/8 112/4/8
f 114/1/14 115/2/14 113/3/14
f 116/12/2 119/5/2 115/2/2
f 120/4/13 117/6/13 119/5/13
f 117/6/4 114/14/4 113/8/4
f 119/5/11 113/9/11 115/10/11
f 116/11/12 118/7/12 120/4/12
f 122/1/18 123/2/18 121/3/18
f 124/12/2 127/5/2 123/2/2
f 128/4/17 125/6/17 127/5/17
f 125/6/4 122/14/4 121/8/4
f 127/5/15 121/9/15 123/10/15
f 124/11/16 126/7/16 128/4/16
f 130/1/1 131/2/1 129/3/1
f 132/12/2 135/5/2 131/2/2
f 136/4/3 133/6/3 135/5/3
f 133/6/4 130/14/4 129/8/4
f 135/5/5 129/9/5 131/10/5
f 132/11/6 134/7/6 136/4/6
f 137/3/7 140/12/7 139/2/7
f 140/12/2 143/5/2 139/2/2
f 143/5/8 142/7/8 141/6/8
f 141/6/4 138/14/4 137/8/4
f 143/5/9 137/9/9 139/10/9
f 140/11/10 142/7/10 144/4/10
f 146/1/11 147/2/11 145/3/11
f 148/12/2 151/5/2 147/2/2
f 152/4/12 149/6/12 151/5/12
f 149/6/4 146/14/4 145/8/4
f 151/5/13 145/9/13 147/10/13
f 148/11/14 150/7/14 152/4/14
f 154/1/15 155/2/15 153/3/15
f 156/12/2 159/5/2 155/2/2
f 159/5/16 158/7/16 157/6/16
f 157/6/4 154/14/4 153/8/4
f 159/5/17 153/9/17 155/10/17
f 156/11/18 158/7/18 160/4/18
f 162/1/5 163/2/5 161/3/5
f 164/12/2 167/5/2 163/2/2
f 167/5/6 166/7/6 165/6/6
f 165/6/4 162/14/4 161/8/4
f 163/10/3 165/6/3 161/9/3
f 164/11/1 166/7/1 168/4/1
f 170/1/9 171/2/9 169/3/9
f 172/12/2 175/5/2 171/2/2
f 175/5/10 174/7/10 173/6/10
f 173/6/4 170/14/4 169/8/4
f 171/10/8 173/6/8 169/9/8
f 172/11/7 174/7/7 176/4/7
f 178/1/13 179/2/13 177/3/13
f 180/12/2 183/5/2 179/2/2
f 183/5/14 182/7/14 181/6/14
f 181/6/4 178/14/4 177/8/4
f 179/10/12 181/6/12 177/9/12
f 180/11/11 182/7/11 184/4/11
f 186/1/17 187/2/17 185/3/17
f 188/12/2 191/5/2 187/2/2
f 191/5/18 190/7/18 189/6/18
f 189/6/4 186/14/4 185/8/4
f 187/10/16 189/6/16 185/9/16
f 188/11/15 190/7/15 192/4/15
f 194/1/3 195/2/3 193/3/3
f 196/12/2 199/5/2 195/2/2
f 199/5/1 198/7/1 197/6/1
f 197/6/4 194/14/4 193/8/4
f 195/10/6 197/6/6 193/9/6
f 196/11/5 198/7/5 200/4/5
f 202/1/8 203/2/8 201/3/8
f 204/12/2 207/5/2 203/2/2
f 207/5/7 206/7/7 205/6/7
f 205/6/4 202/14/4 201/8/4
f 203/10/10 205/6/10 201/9/10
f 204/11/9 206/7/9 208/4/9
f 210/1/12 211/2/12 209/3/12
f 212/12/2 215/5/2 211/2/2
f 215/5/11 214/7/11 213/6/11
f 213/6/4 210/14/4 209/8/4
f 211/10/14 213/6/14 209/9/14
f 212/11/13 214/7/13 216/4/13
f 218/1/16 219/2/16 217/3/16
f 220/12/2 223/5/2 219/2/2
f 224/4/15 221/6/15 223/5/15
f 221/6/4 218/14/4 217/8/4
f 219/10/18 221/6/18 217/9/18
f 220/11/17 222/7/17 224/4/17
f 226/1/6 227/2/6 225/3/6
f 228/12/2 231/5/2 227/2/2
f 231/5/5 230/7/5 229/6/5
f 229/6/4 226/14/4 225/8/4
f 227/10/1 229/6/1 225/9/1
f 228/11/3 230/7/3 232/4/3
f 234/1/10 235/2/10 233/3/10
f 236/12/2 239/5/2 235/2/2
f 239/5/9 238/7/9 237/6/9
f 237/6/4 234/14/4 233/8/4
f 235/10/7 237/6/7 233/9/7
f 236/11/8 238/7/8 240/4/8
f 242/1/14 243/2/14 241/3/14
f 244/12/2 247/5/2 243/2/2
f 247/5/13 246/7/13 245/6/13
f 245/6/4 242/14/4 241/8/4
f 243/10/11 245/6/11 241/9/11
f 244/11/12 246/7/12 248/4/12
f 250/1/18 251/2/18 249/3/18
f 252/12/2 255/5/2 251/2/2
f 255/5/17 254/7/17 253/6/17
f 253/6/4 250/14/4 249/8/4
f 255/5/15 249/9/15 251/10/15
f 252/11/16 254/7/16 256/4/16
f 258/1/1 259/2/1 257/3/1
f 260/12/2 263/5/2 259/2/2
f 263/5/3 262/7/3 261/6/3
f 261/6/4 258/14/4 257/8/4
f 263/5/5 257/9/5 259/10/5
f 260/11/6 262/7/6 264/4/6
f 2/1/1 4/12/1 3/2/1
f 3/2/2 4/12/2 8/4/2
f 8/4/3 6/7/3 5/6/3
f 6/7/4 2/14/4 1/8/4
f 7/5/5 5/6/5 1/9/5
f 4/11/6 2/13/6 6/7/6
f 10/1/7 12/12/7 11/2/7
f 12/12/2 16/4/2 15/5/2
f 16/4/8 14/7/8 13/6/8
f 14/7/4 10/14/4 9/8/4
f 15/5/9 13/6/9 9/9/9
f 12/11/10 10/13/10 14/7/10
f 18/1/11 20/12/11 19/2/11
f 19/2/2 20/12/2 24/4/2
f 24/4/12 22/7/12 21/6/12
f 22/7/4 18/14/4 17/8/4
f 23/5/13 21/6/13 17/9/13
f 24/4/14 20/11/14 18/13/14
f 26/1/15 28/12/15 27/2/15
f 27/2/2 28/12/2 32/4/2
f 31/5/16 32/4/16 30/7/16
f 29/6/4 30/7/4 26/14/4
f 31/5/17 29/6/17 25/9/17
f 28/11/18 26/13/18 30/7/18
f 34/1/5 36/12/5 35/2/5
f 35/2/2 36/12/2 40/4/2
f 39/5/6 40/4/6 38/7/6
f 37/6/4 38/7/4 34/14/4
f 35/10/3 39/5/3 37/6/3
f 36/11/1 34/13/1 38/7/1
f 42/1/9 44/12/9 43/2/9
f 44/12/2 48/4/2 47/5/2
f 47/5/10 48/4/10 46/7/10
f 45/6/4 46/7/4 42/14/4
f 43/10/8 47/5/8 45/6/8
f 44/11/7 42/13/7 46/7/7
f 50/1/13 52/12/13 51/2/13
f 52/12/2 56/4/2 55/5/2
f 56/4/14 54/7/14 53/6/14
f 53/6/4 54/7/4 50/14/4
f 51/10/12 55/5/12 53/6/12
f 52/11/11 50/13/11 54/7/11
f 58/1/17 60/12/17 59/2/17
f 60/12/2 64/4/2 63/5/2
f 64/4/18 62/7/18 61/6/18
f 61/6/4 62/7/4 58/14/4
f 59/10/16 63/5/16 61/6/16
f 60/11/15 58/13/15 62/7/15
f 66/1/3 68/12/3 67/2/3
f 68/12/2 72/4/2 71/5/2
f 71/5/1 72/4/1 70/7/1
f 69/6/4 70/7/4 66/14/4
f 67/10/6 71/5/6 69/6/6
f 68/11/5 66/13/5 70/7/5
f 73/3/8 74/1/8 76/12/8
f 76/12/2 80/4/2 79/5/2
f 80/4/7 78/7/7 77/6/7
f 77/6/4 78/7/4 74/14/4
f 75/10/10 79/5/10 77/6/10
f 76/11/9 74/13/9 78/7/9
f 82/1/12 84/12/12 83/2/12
f 84/12/2 88/4/2 87/5/2
f 88/4/11 86/7/11 85/6/11
f 85/6/4 86/7/4 82/14/4
f 83/10/14 87/5/14 85/6/14
f 84/11/13 82/13/13 86/7/13
f 90/1/16 92/12/16 91/2/16
f 92/12/2 96/4/2 95/5/2
f 96/4/15 94/7/15 93/6/15
f 93/6/4 94/7/4 90/14/4
f 91/10/18 95/5/18 93/6/18
f 92/11/17 90/13/17 94/7/17
f 97/3/6 98/1/6 100/12/6
f 100/12/2 104/4/2 103/5/2
f 104/4/5 102/7/5 101/6/5
f 101/6/4 102/7/4 98/14/4
f 99/10/1 103/5/1 101/6/1
f 100/11/3 98/13/3 102/7/3
f 105/3/10 106/1/10 108/12/10
f 108/12/2 112/4/2 111/5/2
f 112/4/9 110/7/9 109/6/9
f 109/6/4 110/7/4 106/14/4
f 107/10/7 111/5/7 109/6/7
f 108/11/8 106/13/8 110/7/8
f 114/1/14 116/12/14 115/2/14
f 116/12/2 120/4/2 119/5/2
f 120/4/13 118/7/13 117/6/13
f 117/6/4 118/7/4 114/14/4
f 119/5/11 117/6/11 113/9/11
f 116/11/12 114/13/12 118/7/12
f 122/1/18 124/12/18 123/2/18
f 124/12/2 128/4/2 127/5/2
f 128/4/17 126/7/17 125/6/17
f 125/6/4 126/7/4 122/14/4
f 127/5/15 125/6/15 121/9/15
f 124/11/16 122/13/16 126/7/16
f 130/1/1 132/12/1 131/2/1
f 132/12/2 136/4/2 135/5/2
f 136/4/3 134/7/3 133/6/3
f 133/6/4 134/7/4 130/14/4
f 135/5/5 133/6/5 129/9/5
f 132/11/6 130/13/6 134/7/6
f 137/3/7 138/1/7 140/12/7
f 140/12/2 144/4/2 143/5/2
f 143/5/8 144/4/8 142/7/8
f 141/6/4 142/7/4 138/14/4
f 143/5/9 141/6/9 137/9/9
f 140/11/10 138/13/10 142/7/10
f 146/1/11 148/12/11 147/2/11
f 148/12/2 152/4/2 151/5/2
f 152/4/12 150/7/12 149/6/12
f 149/6/4 150/7/4 146/14/4
f 151/5/13 149/6/13 145/9/13
f 148/11/14 146/13/14 150/7/14
f 154/1/15 156/12/15 155/2/15
f 156/12/2 160/4/2 159/5/2
f 159/5/16 160/4/16 158/7/16
f 157/6/4 158/7/4 154/14/4
f 159/5/17 157/6/17 153/9/17
f 156/11/18 154/13/18 158/7/18
f 162/1/5 164/12/5 163/2/5
f 164/12/2 168/4/2 167/5/2
f 167/5/6 168/4/6 166/7/6
f 165/6/4 166/7/4 162/14/4
f 163/10/3 167/5/3 165/6/3
f 164/11/1 162/13/1 166/7/1
f 170/1/9 172/12/9 171/2/9
f 172/12/2 176/4/2 175/5/2
f 175/5/10 176/4/10 174/7/10
f 173/6/4 174/7/4 170/14/4
f 171/10/8 175/5/8 173/6/8
f 172/11/7 170/13/7 174/7/7
f 178/1/13 180/12/13 179/2/13
f 180/12/2 184/4/2 183/5/2
f 183/5/14 184/4/14 182/7/14
f 181/6/4 182/7/4 178/14/4
f 179/10/12 183/5/12 181/6/12
f 180/11/11 178/13/11 182/7/11
f 186/1/17 188/12/17 187/2/17
f 188/12/2 192/4/2 191/5/2
f 191/5/18 192/4/18 190/7/18
f 189/6/4 190/7/4 186/14/4
f 187/10/16 191/5/16 189/6/16
f 188/11/15 186/13/15 190/7/15
f 194/1/3 196/12/3 195/2/3
f 196/12/2 200/4/2 199/5/2
f 199/5/1 200/4/1 198/7/1
f 197/6/4 198/7/4 194/14/4
f 195/10/6 199/5/6 197/6/6
f 196/11/5 194/13/5 198/7/5
f 202/1/8 204/12/8 203/2/8
f 204/12/2 208/4/2 207/5/2
f 207/5/7 208/4/7 206/7/7
f 205/6/4 206/7/4 202/14/4
f 203/10/10 207/5/10 205/6/10
f 204/11/9 202/13/9 206/7/9
f 210/1/12 212/12/12 211/2/12
f 212/12/2 216/4/2 215/5/2
f 215/5/11 216/4/11 214/7/11
f 213/6/4 214/7/4 210/14/4
f 211/10/14 215/5/14 213/6/14
f 212/11/13 210/13/13 214/7/13
f 218/1/16 220/12/16 219/2/16
f 220/12/2 224/4/2 223/5/2
f 224/4/15 222/7/15 221/6/15
f 221/6/4 222/7/4 218/14/4
f 219/10/18 223/5/18 221/6/18
f 220/11/17 218/13/17 222/7/17
f 226/1/6 228/12/6 227/2/6
f 228/12/2 232/4/2 231/5/2
f 231/5/5 232/4/5 230/7/5
f 229/6/4 230/7/4 226/14/4
f 227/10/1 231/5/1 229/6/1
f 228/11/3 226/13/3 230/7/3
f 234/1/10 236/12/10 235/2/10
f 236/12/2 240/4/2 239/5/2
f 239/5/9 240/4/9 238/7/9
f 237/6/4 238/7/4 234/14/4
f 235/10/7 239/5/7 237/6/7
f 236/11/8 234/13/8 238/7/8
f 242/1/14 244/12/14 243/2/14
f 244/12/2 248/4/2 247/5/2
f 247/5/13 248/4/13 246/7/13
f 245/6/4 246/7/4 242/14/4
f 243/10/11 247/5/11 245/6/11
f 244/11/12 242/13/12 246/7/12
f 250/1/18 252/12/18 251/2/18
f 252/12/2 256/4/2 255/5/2
f 255/5/17 256/4/17 254/7/17
f 253/6/4 254/7/4 250/14/4
f 255/5/15 253/6/15 249/9/15
f 252/11/16 250/13/16 254/7/16
f 258/1/1 260/12/1 259/2/1
f 260/12/2 264/4/2 263/5/2
f 263/5/3 264/4/3 262/7/3
f 261/6/4 262/7/4 258/14/4
f 263/5/5 261/6/5 257/9/5
f 260/11/6 258/13/6 262/7/6
