# Blender 5.1.0
# www.blender.org
mtllib new_coll.mtl
g new.001_网格
v 0.000000 0.500000 0.044100
v 0.097545 0.490393 -0.004900
v 0.000000 0.500000 -0.004900
v 0.097545 0.490393 0.044100
v 0.191342 0.461940 -0.004900
v 0.191342 0.461940 0.044100
v 0.277785 0.415735 -0.004900
v 0.277785 0.415735 0.044100
v 0.353553 0.353553 -0.004900
v 0.353553 0.353553 0.044100
v 0.415735 0.277785 -0.004900
v 0.415735 0.277785 0.044100
v 0.461940 0.191342 -0.004900
v 0.461940 0.191342 0.044100
v 0.490393 0.097545 -0.004900
v 0.490393 0.097545 0.044100
v 0.500000 0.000000 -0.004900
v 0.500000 -0.000000 0.044100
v 0.490393 -0.097545 -0.004900
v 0.490393 -0.097545 0.044100
v 0.461940 -0.191342 -0.004900
v 0.461940 -0.191342 0.044100
v 0.415735 -0.277785 -0.004900
v 0.415735 -0.277785 0.044100
v 0.353553 -0.353553 -0.004900
v 0.353553 -0.353553 0.044100
v 0.277785 -0.415735 -0.004900
v 0.277785 -0.415735 0.044100
v 0.191342 -0.461940 -0.004900
v 0.191342 -0.461940 0.044100
v 0.097545 -0.490393 -0.004900
v 0.097545 -0.490393 0.044100
v 0.000000 -0.500000 -0.004900
v 0.000000 -0.500000 0.044100
v -0.097545 -0.490393 -0.004900
v -0.097545 -0.490393 0.044100
v -0.191342 -0.461940 -0.004900
v -0.191342 -0.461940 0.044100
v -0.277785 -0.415735 -0.004900
v -0.277785 -0.415735 0.044100
v -0.353553 -0.353553 -0.004900
v -0.353553 -0.353553 0.044100
v -0.415735 -0.277785 -0.004900
v -0.415735 -0.277785 0.044100
v -0.461940 -0.191342 -0.004900
v -0.461940 -0.191342 0.044100
v -0.490393 -0.097545 -0.004900
v -0.490393 -0.097545 0.044100
v -0.500000 0.000000 -0.004900
v -0.500000 -0.000000 0.044100
v -0.490393 0.097545 -0.004900
v -0.490393 0.097545 0.044100
v -0.461940 0.191342 -0.004900
v -0.461940 0.191342 0.044100
v -0.415735 0.277785 -0.004900
v -0.415735 0.277785 0.044100
v -0.353553 0.353553 -0.004900
v -0.353553 0.353553 0.044100
v -0.277785 0.415735 -0.004900
v -0.277785 0.415735 0.044100
v -0.191342 0.461940 -0.004900
v 0.000000 -0.500000 0.044100
v 0.091692 -0.460969 0.044100
v 0.000000 -0.470000 0.044100
v 0.097545 0.490393 0.044100
v -0.097545 0.490393 0.044100
v 0.000000 0.470000 0.044100
v -0.191342 0.461940 0.044100
v -0.097545 0.490393 -0.004900
v -0.097545 0.490393 0.044100
v 0.000000 0.500000 -0.004900
v 0.191342 -0.461940 -0.004900
v -0.461940 -0.191342 -0.004900
v -0.191342 0.461940 -0.004900
v 0.000000 0.470000 0.000000
v 0.091692 0.460969 0.044100
v 0.000000 0.470000 0.044100
v 0.091692 0.460969 0.000000
v 0.179861 0.434223 0.044100
v 0.179861 0.434223 0.000000
v 0.261118 0.390791 0.044100
v 0.261118 0.390791 0.000000
v 0.332340 0.332340 0.044100
v 0.390791 0.261118 0.000000
v 0.332340 0.332340 0.000000
v 0.434223 0.179861 0.000000
v 0.390791 0.261118 0.044100
v 0.460969 0.091692 0.000000
v 0.434223 0.179861 0.044100
v 0.470000 0.000000 -0.000000
v 0.460969 0.091692 0.044100
v 0.460969 -0.091692 -0.000000
v 0.470000 -0.000000 0.044100
v 0.434223 -0.179861 -0.000000
v 0.460969 -0.091692 0.044100
v 0.390791 -0.261118 -0.000000
v 0.434223 -0.179861 0.044100
v 0.332340 -0.332340 -0.000000
v 0.390791 -0.261118 0.044100
v 0.261118 -0.390791 -0.000000
v 0.332340 -0.332340 0.044100
v 0.179861 -0.434223 -0.000000
v 0.261118 -0.390791 0.044100
v 0.091692 -0.460969 -0.000000
v 0.179861 -0.434223 0.044100
v 0.000000 -0.470000 -0.000000
v 0.091692 -0.460969 0.044100
v -0.091692 -0.460969 -0.000000
v 0.000000 -0.470000 0.044100
v -0.179861 -0.434223 -0.000000
v -0.091692 -0.460969 0.044100
v -0.261118 -0.390791 0.044100
v -0.179861 -0.434223 0.044100
v -0.332340 -0.332340 -0.000000
v -0.261118 -0.390791 -0.000000
v -0.390791 -0.261118 0.044100
v -0.332340 -0.332340 0.044100
v -0.390791 -0.261118 -0.000000
v -0.434223 -0.179861 0.044100
v -0.434223 -0.179861 -0.000000
v -0.460969 -0.091692 0.044100
v -0.460969 -0.091692 -0.000000
v -0.470000 -0.000000 0.044100
v -0.470000 0.000000 -0.000000
v -0.460969 0.091692 0.044100
v -0.460969 0.091692 0.000000
v -0.434223 0.179861 0.044100
v -0.434223 0.179861 0.000000
v -0.390791 0.261118 0.044100
v -0.390791 0.261118 0.000000
v -0.332340 0.332340 0.044100
v -0.332340 0.332340 0.000000
v -0.261118 0.390791 0.044100
v -0.261118 0.390791 0.000000
v -0.179861 0.434223 0.044100
v -0.179861 0.434223 0.000000
v -0.091692 0.460969 0.044100
v -0.091692 0.460969 0.000000
v 0.000000 0.470000 0.044100
v -0.390791 -0.261118 -0.000000
v 0.261118 -0.390791 -0.000000
v 0.390791 0.261118 0.000000
v -0.261118 -0.390791 0.044100
v -0.332340 -0.332340 0.044100
v -0.353553 -0.353553 0.044100
v -0.277785 -0.415735 0.044100
v -0.191342 -0.461940 0.044100
v -0.097545 -0.490393 0.044100
v 0.097545 -0.490393 0.044100
v 0.191342 -0.461940 0.044100
v 0.277785 -0.415735 0.044100
v 0.353553 -0.353553 0.044100
v 0.332340 -0.332340 0.044100
v 0.261118 -0.390791 0.044100
v 0.179861 -0.434223 0.044100
v -0.179861 -0.434223 0.044100
v -0.091692 -0.460969 0.044100
v 0.415735 -0.277785 0.044100
v 0.461940 -0.191342 0.044100
v 0.490393 -0.097545 0.044100
v 0.500000 -0.000000 0.044100
v 0.490393 0.097545 0.044100
v 0.461940 0.191342 0.044100
v 0.415735 0.277785 0.044100
v 0.353553 0.353553 0.044100
v 0.277785 0.415735 0.044100
v 0.191342 0.461940 0.044100
v 0.000000 0.500000 0.044100
v -0.191342 0.461940 0.044100
v -0.277785 0.415735 0.044100
v -0.353553 0.353553 0.044100
v -0.415735 0.277785 0.044100
v -0.461940 0.191342 0.044100
v -0.490393 0.097545 0.044100
v -0.500000 -0.000000 0.044100
v -0.490393 -0.097545 0.044100
v -0.461940 -0.191342 0.044100
v -0.415735 -0.277785 0.044100
v -0.390791 -0.261118 0.044100
v 0.390791 -0.261118 0.044100
v 0.434223 -0.179861 0.044100
v -0.434223 -0.179861 0.044100
v 0.460969 -0.091692 0.044100
v -0.460969 -0.091692 0.044100
v -0.470000 -0.000000 0.044100
v 0.470000 -0.000000 0.044100
v -0.460969 0.091692 0.044100
v 0.460969 0.091692 0.044100
v 0.434223 0.179861 0.044100
v -0.434223 0.179861 0.044100
v 0.390791 0.261118 0.044100
v -0.390791 0.261118 0.044100
v -0.332340 0.332340 0.044100
v 0.332340 0.332340 0.044100
v -0.261118 0.390791 0.044100
v 0.261118 0.390791 0.044100
v 0.179861 0.434223 0.044100
v -0.179861 0.434223 0.044100
v 0.091692 0.460969 0.044100
v -0.091692 0.460969 0.044100
v 0.000000 0.500000 0.044100
v -0.097545 0.490393 -0.004900
v 0.000000 0.500000 -0.004900
v 0.097545 0.490393 -0.004900
v 0.191342 0.461940 -0.004900
v 0.277785 0.415735 -0.004900
v 0.353553 0.353553 -0.004900
v 0.415735 0.277785 -0.004900
v 0.461940 0.191342 -0.004900
v 0.490393 0.097545 -0.004900
v 0.500000 0.000000 -0.004900
v 0.490393 -0.097545 -0.004900
v 0.461940 -0.191342 -0.004900
v 0.415735 -0.277785 -0.004900
v 0.353553 -0.353553 -0.004900
v 0.277785 -0.415735 -0.004900
v 0.097545 -0.490393 -0.004900
v 0.000000 -0.500000 -0.004900
v -0.097545 -0.490393 -0.004900
v -0.191342 -0.461940 -0.004900
v -0.277785 -0.415735 -0.004900
v -0.353553 -0.353553 -0.004900
v -0.415735 -0.277785 -0.004900
v -0.490393 -0.097545 -0.004900
v -0.500000 0.000000 -0.004900
v -0.490393 0.097545 -0.004900
v -0.461940 0.191342 -0.004900
v -0.415735 0.277785 -0.004900
v -0.353553 0.353553 -0.004900
v -0.277785 0.415735 -0.004900
v 0.000000 0.470000 0.000000
v 0.332340 0.332340 0.000000
v 0.261118 0.390791 0.000000
v 0.179861 0.434223 0.000000
v 0.091692 0.460969 0.000000
v 0.000000 0.470000 0.000000
v -0.091692 0.460969 0.000000
v -0.179861 0.434223 0.000000
v -0.261118 0.390791 0.000000
v -0.332340 0.332340 0.000000
v -0.390791 0.261118 0.000000
v -0.434223 0.179861 0.000000
v -0.460969 0.091692 0.000000
v -0.470000 0.000000 -0.000000
v -0.460969 -0.091692 -0.000000
v -0.434223 -0.179861 -0.000000
v -0.332340 -0.332340 -0.000000
v -0.261118 -0.390791 -0.000000
v -0.179861 -0.434223 -0.000000
v -0.091692 -0.460969 -0.000000
v 0.000000 -0.470000 -0.000000
v 0.091692 -0.460969 -0.000000
v 0.179861 -0.434223 -0.000000
v 0.332340 -0.332340 -0.000000
v 0.390791 -0.261118 -0.000000
v 0.434223 -0.179861 -0.000000
v 0.460969 -0.091692 -0.000000
v 0.470000 0.000000 -0.000000
v 0.460969 0.091692 0.000000
v 0.434223 0.179861 0.000000
vn 0.0980 0.9952 -0.0000
vn 0.2903 0.9569 -0.0000
vn 0.4714 0.8819 -0.0000
vn 0.6344 0.7730 -0.0000
vn 0.7730 0.6344 -0.0000
vn 0.8819 0.4714 -0.0000
vn 0.9569 0.2903 -0.0000
vn 0.9952 0.0980 -0.0000
vn 0.9952 -0.0980 -0.0000
vn 0.9569 -0.2903 -0.0000
vn 0.8819 -0.4714 -0.0000
vn 0.7730 -0.6344 -0.0000
vn 0.6344 -0.7730 -0.0000
vn 0.4714 -0.8819 -0.0000
vn 0.2903 -0.9569 -0.0000
vn 0.0980 -0.9952 -0.0000
vn -0.0980 -0.9952 -0.0000
vn -0.2903 -0.9569 -0.0000
vn -0.4714 -0.8819 -0.0000
vn -0.6344 -0.7730 -0.0000
vn -0.7730 -0.6344 -0.0000
vn -0.8819 -0.4714 -0.0000
vn -0.9569 -0.2903 -0.0000
vn -0.9952 -0.0980 -0.0000
vn -0.9952 0.0980 -0.0000
vn -0.9569 0.2903 -0.0000
vn -0.8819 0.4714 -0.0000
vn -0.7730 0.6344 -0.0000
vn -0.6344 0.7730 -0.0000
vn -0.4714 0.8819 -0.0000
vn -0.0000 -0.0000 1.0000
vn -0.2903 0.9569 -0.0000
vn -0.0980 0.9952 -0.0000
vn -0.0000 -0.0000 -1.0000
vt 1.000000 1.000000
vt 0.968750 0.500000
vt 1.000000 0.500000
vt 0.968750 1.000000
vt 0.937500 0.500000
vt 0.937500 1.000000
vt 0.906250 0.500000
vt 0.906250 1.000000
vt 0.875000 0.500000
vt 0.875000 1.000000
vt 0.843750 0.500000
vt 0.843750 1.000000
vt 0.812500 0.500000
vt 0.812500 1.000000
vt 0.781250 0.500000
vt 0.781250 1.000000
vt 0.750000 0.500000
vt 0.750000 1.000000
vt 0.718750 0.500000
vt 0.718750 1.000000
vt 0.687500 0.500000
vt 0.687500 1.000000
vt 0.656250 0.500000
vt 0.656250 1.000000
vt 0.625000 0.500000
vt 0.625000 1.000000
vt 0.593750 0.500000
vt 0.593750 1.000000
vt 0.562500 0.500000
vt 0.562500 1.000000
vt 0.531250 0.500000
vt 0.531250 1.000000
vt 0.500000 0.500000
vt 0.500000 1.000000
vt 0.468750 0.500000
vt 0.468750 1.000000
vt 0.437500 0.500000
vt 0.437500 1.000000
vt 0.406250 0.500000
vt 0.406250 1.000000
vt 0.375000 0.500000
vt 0.375000 1.000000
vt 0.343750 0.500000
vt 0.343750 1.000000
vt 0.312500 0.500000
vt 0.312500 1.000000
vt 0.281250 0.500000
vt 0.281250 1.000000
vt 0.250000 0.500000
vt 0.250000 1.000000
vt 0.218750 0.500000
vt 0.218750 1.000000
vt 0.187500 0.500000
vt 0.187500 1.000000
vt 0.156250 0.500000
vt 0.156250 1.000000
vt 0.125000 0.500000
vt 0.125000 1.000000
vt 0.093750 0.500000
vt 0.093750 1.000000
vt 0.062500 0.500000
vt 0.250000 0.010000
vt 0.294012 0.028735
vt 0.250000 0.024400
vt 0.296822 0.485388
vt 0.203178 0.485388
vt 0.250000 0.475600
vt 0.062500 1.000000
vt 0.031250 0.500000
vt 0.031250 1.000000
vt 0.000000 0.500000
vt 0.841844 0.028269
vt 0.528269 0.158156
vt 0.658156 0.471731
vt 0.968750 0.950000
vt 1.000000 0.950000
vt 0.937500 0.950000
vt 0.906250 0.950000
vt 0.875000 0.950000
vt 0.843750 0.950000
vt 0.812500 0.950000
vt 0.781250 0.950000
vt 0.750000 0.950000
vt 0.718750 0.950000
vt 0.687500 0.950000
vt 0.656250 0.950000
vt 0.625000 0.950000
vt 0.593750 0.950000
vt 0.562500 0.950000
vt 0.531250 0.950000
vt 0.500000 0.950000
vt 0.468750 0.950000
vt 0.406250 0.950000
vt 0.437500 0.950000
vt 0.343750 0.950000
vt 0.375000 0.950000
vt 0.312500 0.950000
vt 0.281250 0.950000
vt 0.250000 0.950000
vt 0.218750 0.950000
vt 0.187500 0.950000
vt 0.156250 0.950000
vt 0.125000 0.950000
vt 0.093750 0.950000
vt 0.062500 0.950000
vt 0.031250 0.950000
vt 0.000000 0.950000
vt 0.550447 0.116663
vt 0.883337 0.050447
vt 0.949553 0.383337
vt 0.124663 0.062420
vt 0.090477 0.090477
vt 0.080294 0.080294
vt 0.116663 0.050447
vt 0.158156 0.028269
vt 0.203178 0.014612
vt 0.296822 0.014612
vt 0.341844 0.028269
vt 0.383337 0.050447
vt 0.419706 0.080294
vt 0.409523 0.090477
vt 0.375337 0.062420
vt 0.336333 0.041573
vt 0.163667 0.041573
vt 0.205988 0.028735
vt 0.449553 0.116663
vt 0.471731 0.158156
vt 0.485388 0.203178
vt 0.490000 0.250000
vt 0.485388 0.296822
vt 0.471731 0.341844
vt 0.449553 0.383337
vt 0.419706 0.419706
vt 0.383337 0.449553
vt 0.341844 0.471731
vt 0.250000 0.490000
vt 0.158156 0.471731
vt 0.116663 0.449553
vt 0.080294 0.419706
vt 0.050447 0.383337
vt 0.028269 0.341844
vt 0.014612 0.296822
vt 0.010000 0.250000
vt 0.014612 0.203178
vt 0.028269 0.158156
vt 0.050447 0.116663
vt 0.062420 0.124663
vt 0.437580 0.124663
vt 0.458427 0.163667
vt 0.041573 0.163667
vt 0.471265 0.205988
vt 0.028735 0.205988
vt 0.024400 0.250000
vt 0.475600 0.250000
vt 0.028735 0.294012
vt 0.471265 0.294012
vt 0.458427 0.336333
vt 0.041573 0.336333
vt 0.437580 0.375337
vt 0.062420 0.375337
vt 0.090477 0.409523
vt 0.409523 0.409523
vt 0.124663 0.437580
vt 0.375337 0.437580
vt 0.336333 0.458427
vt 0.163667 0.458427
vt 0.294012 0.471265
vt 0.205988 0.471265
vt 0.000000 1.000000
vt 0.703178 0.485388
vt 0.750000 0.490000
vt 0.796822 0.485388
vt 0.841844 0.471731
vt 0.883337 0.449553
vt 0.919706 0.419706
vt 0.971731 0.341844
vt 0.985388 0.296822
vt 0.990000 0.250000
vt 0.985388 0.203178
vt 0.971731 0.158156
vt 0.949553 0.116663
vt 0.919706 0.080294
vt 0.796822 0.014612
vt 0.750000 0.010000
vt 0.703178 0.014612
vt 0.658156 0.028269
vt 0.616663 0.050447
vt 0.580294 0.080294
vt 0.514612 0.203178
vt 0.510000 0.250000
vt 0.514612 0.296822
vt 0.528269 0.341844
vt 0.550447 0.383337
vt 0.580294 0.419706
vt 0.616663 0.449553
s 0
g off
f 1/1/1 2/2/1 3/3/1
f 4/4/2 5/5/2 2/2/2
f 6/6/3 7/7/3 5/5/3
f 8/8/4 9/9/4 7/7/4
f 10/10/5 11/11/5 9/9/5
f 12/12/6 13/13/6 11/11/6
f 14/14/7 15/15/7 13/13/7
f 16/16/8 17/17/8 15/15/8
f 18/18/9 19/19/9 17/17/9
f 20/20/10 21/21/10 19/19/10
f 22/22/11 23/23/11 21/21/11
f 24/24/12 25/25/12 23/23/12
f 26/26/13 27/27/13 25/25/13
f 28/28/14 29/29/14 27/27/14
f 30/30/15 31/31/15 29/29/15
f 32/32/16 33/33/16 31/31/16
f 34/34/17 35/35/17 33/33/17
f 36/36/18 37/37/18 35/35/18
f 38/38/19 39/39/19 37/37/19
f 40/40/20 41/41/20 39/39/20
f 42/42/21 43/43/21 41/41/21
f 44/44/22 45/45/22 43/43/22
f 46/46/23 47/47/23 45/45/23
f 48/48/24 49/49/24 47/47/24
f 50/50/25 51/51/25 49/49/25
f 52/52/26 53/53/26 51/51/26
f 54/54/27 55/55/27 53/53/27
f 56/56/28 57/57/28 55/55/28
f 58/58/29 59/59/29 57/57/29
f 60/60/30 61/61/30 59/59/30
f 62/62/31 63/63/31 64/64/31
f 65/65/31 66/66/31 67/67/31
f 68/68/32 69/69/32 61/61/32
f 70/70/33 71/71/33 69/69/33
f 72/72/34 73/73/34 74/74/34
f 75/3/17 76/75/17 77/76/17
f 78/2/18 79/77/18 76/75/18
f 80/5/19 81/78/19 79/77/19
f 82/7/20 83/79/20 81/78/20
f 84/11/21 83/79/21 85/9/21
f 86/13/22 87/80/22 84/11/22
f 88/15/23 89/81/23 86/13/23
f 90/17/24 91/82/24 88/15/24
f 92/19/25 93/83/25 90/17/25
f 94/21/26 95/84/26 92/19/26
f 96/23/27 97/85/27 94/21/27
f 98/25/28 99/86/28 96/23/28
f 100/27/29 101/87/29 98/25/29
f 102/29/30 103/88/30 100/27/30
f 104/31/32 105/89/32 102/29/32
f 106/33/33 107/90/33 104/31/33
f 108/35/1 109/91/1 106/33/1
f 110/37/2 111/92/2 108/35/2
f 110/37/3 112/93/3 113/94/3
f 114/41/4 112/93/4 115/39/4
f 114/41/5 116/95/5 117/96/5
f 118/43/6 119/97/6 116/95/6
f 120/45/7 121/98/7 119/97/7
f 122/47/8 123/99/8 121/98/8
f 124/49/9 125/100/9 123/99/9
f 126/51/10 127/101/10 125/100/10
f 128/53/11 129/102/11 127/101/11
f 130/55/12 131/103/12 129/102/12
f 132/57/13 133/104/13 131/103/13
f 134/59/14 135/105/14 133/104/14
f 136/61/15 137/106/15 135/105/15
f 138/69/16 139/107/16 137/106/16
f 140/108/31 141/109/31 142/110/31
f 1/1/1 4/4/1 2/2/1
f 4/4/2 6/6/2 5/5/2
f 6/6/3 8/8/3 7/7/3
f 8/8/4 10/10/4 9/9/4
f 10/10/5 12/12/5 11/11/5
f 12/12/6 14/14/6 13/13/6
f 14/14/7 16/16/7 15/15/7
f 16/16/8 18/18/8 17/17/8
f 18/18/9 20/20/9 19/19/9
f 20/20/10 22/22/10 21/21/10
f 22/22/11 24/24/11 23/23/11
f 24/24/12 26/26/12 25/25/12
f 26/26/13 28/28/13 27/27/13
f 28/28/14 30/30/14 29/29/14
f 30/30/15 32/32/15 31/31/15
f 32/32/16 34/34/16 33/33/16
f 34/34/17 36/36/17 35/35/17
f 36/36/18 38/38/18 37/37/18
f 38/38/19 40/40/19 39/39/19
f 40/40/20 42/42/20 41/41/20
f 42/42/21 44/44/21 43/43/21
f 44/44/22 46/46/22 45/45/22
f 46/46/23 48/48/23 47/47/23
f 48/48/24 50/50/24 49/49/24
f 50/50/25 52/52/25 51/51/25
f 52/52/26 54/54/26 53/53/26
f 54/54/27 56/56/27 55/55/27
f 56/56/28 58/58/28 57/57/28
f 58/58/29 60/60/29 59/59/29
f 60/60/30 68/68/30 61/61/30
f 143/111/31 144/112/31 145/113/31
f 145/113/31 146/114/31 147/115/31
f 147/115/31 148/116/31 62/62/31
f 62/62/31 149/117/31 150/118/31
f 150/118/31 151/119/31 152/120/31
f 152/120/31 153/121/31 154/122/31
f 152/120/31 154/122/31 155/123/31
f 143/111/31 145/113/31 147/115/31
f 156/124/31 143/111/31 147/115/31
f 150/118/31 152/120/31 155/123/31
f 150/118/31 155/123/31 63/63/31
f 156/124/31 147/115/31 62/62/31
f 157/125/31 156/124/31 62/62/31
f 62/62/31 150/118/31 63/63/31
f 64/64/31 157/125/31 62/62/31
f 153/121/31 152/120/31 158/126/31
f 158/126/31 159/127/31 160/128/31
f 160/128/31 161/129/31 162/130/31
f 162/130/31 163/131/31 164/132/31
f 164/132/31 165/133/31 166/134/31
f 166/134/31 167/135/31 65/65/31
f 65/65/31 168/136/31 66/66/31
f 66/66/31 169/137/31 170/138/31
f 170/138/31 171/139/31 172/140/31
f 172/140/31 173/141/31 174/142/31
f 174/142/31 175/143/31 176/144/31
f 176/144/31 177/145/31 178/146/31
f 178/146/31 145/113/31 144/112/31
f 178/146/31 144/112/31 179/147/31
f 180/148/31 153/121/31 158/126/31
f 181/149/31 180/148/31 158/126/31
f 176/144/31 178/146/31 179/147/31
f 176/144/31 179/147/31 182/150/31
f 181/149/31 158/126/31 160/128/31
f 183/151/31 181/149/31 160/128/31
f 176/144/31 182/150/31 184/152/31
f 176/144/31 184/152/31 185/153/31
f 183/151/31 160/128/31 162/130/31
f 186/154/31 183/151/31 162/130/31
f 174/142/31 176/144/31 185/153/31
f 174/142/31 185/153/31 187/155/31
f 188/156/31 186/154/31 162/130/31
f 189/157/31 188/156/31 162/130/31
f 172/140/31 174/142/31 187/155/31
f 172/140/31 187/155/31 190/158/31
f 189/157/31 162/130/31 164/132/31
f 191/159/31 189/157/31 164/132/31
f 172/140/31 190/158/31 192/160/31
f 172/140/31 192/160/31 193/161/31
f 191/159/31 164/132/31 166/134/31
f 194/162/31 191/159/31 166/134/31
f 170/138/31 172/140/31 193/161/31
f 170/138/31 193/161/31 195/163/31
f 196/164/31 194/162/31 166/134/31
f 197/165/31 196/164/31 166/134/31
f 66/66/31 170/138/31 195/163/31
f 66/66/31 195/163/31 198/166/31
f 197/165/31 166/134/31 65/65/31
f 199/167/31 197/165/31 65/65/31
f 66/66/31 198/166/31 200/168/31
f 67/67/31 199/167/31 65/65/31
f 66/66/31 200/168/31 67/67/31
f 68/68/32 70/70/32 69/69/32
f 70/70/33 201/169/33 71/71/33
f 74/74/34 202/170/34 203/171/34
f 203/171/34 204/172/34 205/173/34
f 205/173/34 206/174/34 207/175/34
f 207/175/34 208/110/34 209/176/34
f 209/176/34 210/177/34 211/178/34
f 211/178/34 212/179/34 213/180/34
f 213/180/34 214/181/34 215/182/34
f 215/182/34 216/109/34 72/72/34
f 72/72/34 217/183/34 218/184/34
f 218/184/34 219/185/34 220/186/34
f 220/186/34 221/187/34 222/188/34
f 222/188/34 223/108/34 73/73/34
f 73/73/34 224/189/34 225/190/34
f 225/190/34 226/191/34 227/192/34
f 227/192/34 228/193/34 229/194/34
f 229/194/34 230/195/34 74/74/34
f 74/74/34 203/171/34 205/173/34
f 205/173/34 207/175/34 209/176/34
f 209/176/34 211/178/34 213/180/34
f 213/180/34 215/182/34 72/72/34
f 72/72/34 218/184/34 220/186/34
f 220/186/34 222/188/34 73/73/34
f 73/73/34 225/190/34 227/192/34
f 227/192/34 229/194/34 74/74/34
f 74/74/34 205/173/34 209/176/34
f 209/176/34 213/180/34 72/72/34
f 72/72/34 220/186/34 73/73/34
f 73/73/34 227/192/34 74/74/34
f 74/74/34 209/176/34 72/72/34
f 75/3/17 78/2/17 76/75/17
f 78/2/18 80/5/18 79/77/18
f 80/5/19 82/7/19 81/78/19
f 82/7/20 85/9/20 83/79/20
f 84/11/21 87/80/21 83/79/21
f 86/13/22 89/81/22 87/80/22
f 88/15/23 91/82/23 89/81/23
f 90/17/24 93/83/24 91/82/24
f 92/19/25 95/84/25 93/83/25
f 94/21/26 97/85/26 95/84/26
f 96/23/27 99/86/27 97/85/27
f 98/25/28 101/87/28 99/86/28
f 100/27/29 103/88/29 101/87/29
f 102/29/30 105/89/30 103/88/30
f 104/31/32 107/90/32 105/89/32
f 106/33/33 109/91/33 107/90/33
f 108/35/1 111/92/1 109/91/1
f 110/37/2 113/94/2 111/92/2
f 110/37/3 115/39/3 112/93/3
f 114/41/4 117/96/4 112/93/4
f 114/41/5 118/43/5 116/95/5
f 118/43/6 120/45/6 119/97/6
f 120/45/7 122/47/7 121/98/7
f 122/47/8 124/49/8 123/99/8
f 124/49/9 126/51/9 125/100/9
f 126/51/10 128/53/10 127/101/10
f 128/53/11 130/55/11 129/102/11
f 130/55/12 132/57/12 131/103/12
f 132/57/13 134/59/13 133/104/13
f 134/59/14 136/61/14 135/105/14
f 136/61/15 138/69/15 137/106/15
f 138/69/16 231/71/16 139/107/16
f 142/110/31 232/175/31 233/174/31
f 233/174/31 234/173/31 235/172/31
f 235/172/31 236/171/31 237/170/31
f 237/170/31 238/74/31 239/195/31
f 239/195/31 240/194/31 241/193/31
f 241/193/31 242/192/31 243/191/31
f 243/191/31 244/190/31 245/189/31
f 245/189/31 246/73/31 140/108/31
f 140/108/31 247/188/31 248/187/31
f 248/187/31 249/186/31 250/185/31
f 250/185/31 251/184/31 252/183/31
f 252/183/31 253/72/31 141/109/31
f 141/109/31 254/182/31 255/181/31
f 255/181/31 256/180/31 257/179/31
f 257/179/31 258/178/31 259/177/31
f 259/177/31 260/176/31 142/110/31
f 142/110/31 233/174/31 235/172/31
f 235/172/31 237/170/31 239/195/31
f 239/195/31 241/193/31 243/191/31
f 243/191/31 245/189/31 140/108/31
f 140/108/31 248/187/31 250/185/31
f 250/185/31 252/183/31 141/109/31
f 141/109/31 255/181/31 257/179/31
f 257/179/31 259/177/31 142/110/31
f 142/110/31 235/172/31 239/195/31
f 239/195/31 243/191/31 140/108/31
f 140/108/31 250/185/31 141/109/31
f 141/109/31 257/179/31 142/110/31
f 142/110/31 239/195/31 140/108/31
