# Blender v3.0.1 OBJ File: ''
# www.blender.org
mtllib textured.mtl
o Tray_Tray_MAT_0
v -0.096428 -0.150628 -0.005439
v -0.098792 -0.156335 -0.003816
v -0.084981 -0.159082 -0.003816
v -0.084385 -0.153023 -0.005439
v -0.100522 -0.160513 0.000620
v -0.085418 -0.163517 0.000620
v -0.101156 -0.162042 0.006678
v -0.085578 -0.165141 0.006678
v 0.111772 -0.135284 -0.005439
v 0.117479 -0.137648 -0.003816
v 0.120226 -0.123837 -0.003816
v 0.114167 -0.123240 -0.005439
v 0.121657 -0.139378 0.000620
v 0.124661 -0.124274 0.000620
v 0.123186 -0.140012 0.006678
v 0.126285 -0.124434 0.006678
v -0.111772 0.135284 -0.005439
v -0.117479 0.137648 -0.003816
v -0.120226 0.123837 -0.003816
v -0.114167 0.123240 -0.005439
v -0.121657 0.139378 0.000620
v -0.124661 0.124274 0.000620
v -0.123186 0.140012 0.006678
v -0.126285 0.124434 0.006678
v 0.096428 0.150628 -0.005439
v 0.098792 0.156335 -0.003816
v 0.084981 0.159082 -0.003816
v 0.084385 0.153023 -0.005439
v 0.100522 0.160513 0.000620
v 0.085418 0.163517 0.000620
v 0.101156 0.162042 0.006678
v 0.085578 0.165141 0.006678
v -0.084385 -0.153023 -0.005439
v 0.084385 -0.153023 -0.005439
v 0.040715 -0.120278 -0.005439
v -0.040715 -0.120278 -0.005439
v 0.084385 0.153023 -0.005439
v -0.084385 0.153023 -0.005439
v -0.040715 0.120278 -0.005439
v 0.040715 0.120278 -0.005439
v -0.114167 0.123240 -0.005439
v -0.114167 -0.123240 -0.005439
v -0.081422 -0.079571 -0.005439
v -0.081422 0.079571 -0.005439
v 0.114167 -0.123240 -0.005439
v 0.114167 0.123240 -0.005439
v 0.081422 0.079571 -0.005439
v 0.081422 -0.079571 -0.005439
v -0.096428 -0.150628 -0.005439
v -0.056293 -0.117179 -0.005439
v -0.105626 -0.144482 -0.005439
v -0.069499 -0.108355 -0.005439
v -0.111772 -0.135284 -0.005439
v -0.078323 -0.095149 -0.005439
v 0.111772 -0.135284 -0.005439
v 0.078323 -0.095149 -0.005439
v 0.105626 -0.144482 -0.005439
v 0.069499 -0.108355 -0.005439
v 0.096428 -0.150628 -0.005439
v 0.056293 -0.117179 -0.005439
v -0.111772 0.135284 -0.005439
v -0.078323 0.095149 -0.005439
v -0.105626 0.144482 -0.005439
v -0.069499 0.108355 -0.005439
v -0.096428 0.150628 -0.005439
v -0.056293 0.117179 -0.005439
v 0.096428 0.150628 -0.005439
v 0.056293 0.117179 -0.005439
v 0.105626 0.144482 -0.005439
v 0.069499 0.108355 -0.005439
v 0.111772 0.135284 -0.005439
v 0.078323 0.095149 -0.005439
v -0.114167 -0.123240 -0.005439
v -0.120226 -0.123837 -0.003816
v -0.117479 -0.137648 -0.003816
v -0.111772 -0.135284 -0.005439
v -0.124661 -0.124274 0.000620
v -0.121657 -0.139378 0.000620
v -0.126285 -0.124434 0.006678
v -0.123186 -0.140012 0.006678
v -0.109994 -0.148850 -0.003816
v -0.105626 -0.144482 -0.005439
v -0.113192 -0.152047 0.000620
v -0.114362 -0.153218 0.006678
v -0.105626 -0.144482 -0.005439
v -0.109994 -0.148850 -0.003816
v -0.113192 -0.152047 0.000620
v -0.114362 -0.153218 0.006678
v 0.084981 -0.159082 -0.003816
v 0.084385 -0.153023 -0.005439
v 0.085418 -0.163517 0.000620
v 0.085578 -0.165141 0.006678
v 0.098792 -0.156335 -0.003816
v 0.096428 -0.150628 -0.005439
v 0.100522 -0.160513 0.000620
v 0.101156 -0.162042 0.006678
v 0.109994 -0.148850 -0.003816
v 0.105626 -0.144482 -0.005439
v 0.113192 -0.152047 0.000620
v 0.114362 -0.153218 0.006678
v 0.105626 -0.144482 -0.005439
v 0.109994 -0.148850 -0.003816
v 0.113192 -0.152047 0.000620
v 0.114362 -0.153218 0.006678
v -0.084385 0.153023 -0.005439
v -0.084981 0.159082 -0.003816
v -0.098792 0.156335 -0.003816
v -0.096428 0.150628 -0.005439
v -0.085418 0.163517 0.000620
v -0.100522 0.160513 0.000620
v -0.085578 0.165141 0.006678
v -0.101156 0.162042 0.006678
v -0.109994 0.148850 -0.003816
v -0.105626 0.144482 -0.005439
v -0.113192 0.152048 0.000620
v -0.114362 0.153218 0.006678
v -0.105626 0.144482 -0.005439
v -0.109994 0.148850 -0.003816
v -0.113192 0.152048 0.000620
v -0.114362 0.153218 0.006678
v 0.120226 0.123837 -0.003816
v 0.114167 0.123240 -0.005439
v 0.124661 0.124274 0.000620
v 0.126285 0.124434 0.006678
v 0.117479 0.137648 -0.003816
v 0.111772 0.135284 -0.005439
v 0.121657 0.139378 0.000620
v 0.123186 0.140012 0.006678
v 0.109994 0.148850 -0.003816
v 0.105626 0.144482 -0.005439
v 0.113192 0.152048 0.000620
v 0.114362 0.153218 0.006678
v 0.105626 0.144482 -0.005439
v 0.109994 0.148850 -0.003816
v 0.113192 0.152048 0.000620
v 0.114362 0.153218 0.006678
v -0.085578 -0.165141 0.008194
v 0.085578 -0.165141 0.008194
v 0.085578 0.165141 0.008194
v -0.085578 0.165141 0.008194
v -0.126285 0.124434 0.008194
v -0.126285 -0.124434 0.008194
v 0.126285 -0.124434 0.008194
v 0.126285 0.124434 0.008194
v -0.101156 -0.162042 0.008194
v -0.114362 -0.153218 0.008194
v -0.123186 -0.140012 0.008194
v -0.114362 -0.153218 0.008194
v 0.123186 -0.140012 0.008194
v 0.114362 -0.153218 0.008194
v 0.101156 -0.162042 0.008194
v 0.114362 -0.153218 0.008194
v -0.123186 0.140012 0.008194
v -0.114362 0.153218 0.008194
v -0.101156 0.162042 0.008194
v -0.114362 0.153218 0.008194
v 0.101156 0.162042 0.008194
v 0.114362 0.153218 0.008194
v 0.123186 0.140012 0.008194
v 0.114362 0.153218 0.008194
v -0.127800 -0.124583 0.009709
v -0.126729 -0.124478 0.009266
v -0.126729 0.124478 0.009266
v -0.127800 0.124583 0.009709
v -0.123604 -0.140185 0.009266
v -0.124614 -0.140603 0.009709
v -0.114682 -0.153538 0.009266
v -0.115455 -0.154310 0.009709
v -0.114682 -0.153538 0.009266
v -0.101329 -0.162460 0.009266
v -0.115455 -0.154310 0.009709
v -0.101747 -0.163469 0.009709
v -0.085622 -0.165584 0.009266
v -0.085727 -0.166656 0.009709
v 0.085622 -0.165584 0.009266
v 0.085727 -0.166656 0.009709
v 0.101329 -0.162460 0.009266
v 0.101747 -0.163469 0.009709
v 0.114682 -0.153538 0.009266
v 0.115455 -0.154310 0.009709
v 0.114682 -0.153538 0.009266
v 0.123604 -0.140185 0.009266
v 0.115455 -0.154310 0.009709
v 0.124614 -0.140603 0.009709
v 0.126729 -0.124478 0.009266
v 0.127800 -0.124583 0.009709
v -0.085727 0.166656 0.009709
v -0.085622 0.165585 0.009266
v 0.085622 0.165585 0.009266
v 0.085727 0.166656 0.009709
v -0.101329 0.162460 0.009266
v -0.101747 0.163469 0.009709
v -0.114682 0.153538 0.009266
v -0.115455 0.154310 0.009709
v -0.114682 0.153538 0.009266
v -0.123604 0.140185 0.009266
v -0.115455 0.154310 0.009709
v -0.124614 0.140603 0.009709
v 0.126729 0.124478 0.009266
v 0.127800 0.124583 0.009709
v 0.123604 0.140185 0.009266
v 0.124614 0.140603 0.009709
v 0.114682 0.153538 0.009266
v 0.115455 0.154310 0.009709
v 0.114682 0.153538 0.009266
v 0.101329 0.162460 0.009266
v 0.115455 0.154310 0.009709
v 0.101747 0.163469 0.009709
v -0.113205 -0.174091 0.007663
v -0.113127 -0.173903 0.007181
v -0.097607 -0.176990 0.007181
v -0.097627 -0.177190 0.007663
v -0.112939 -0.173449 0.006981
v -0.097560 -0.176508 0.006981
v 0.135235 -0.152061 0.007663
v 0.135047 -0.151983 0.007181
v 0.138134 -0.136463 0.007181
v 0.138334 -0.136483 0.007663
v 0.134593 -0.151795 0.006981
v 0.137652 -0.136416 0.006981
v -0.135235 0.152061 0.007663
v -0.135047 0.151983 0.007181
v -0.138134 0.136463 0.007181
v -0.138334 0.136483 0.007663
v -0.134593 0.151795 0.006981
v -0.137652 0.136416 0.006981
v 0.113205 0.174091 0.007663
v 0.113127 0.173903 0.007181
v 0.097607 0.176990 0.007181
v 0.097627 0.177190 0.007663
v 0.112939 0.173449 0.006981
v 0.097560 0.176508 0.006981
v 0.097627 -0.177190 0.007663
v 0.097630 -0.177214 0.008345
v -0.097630 -0.177214 0.008345
v -0.097627 0.177190 0.007663
v -0.097630 0.177215 0.008345
v 0.097630 0.177215 0.008345
v -0.138334 -0.136483 0.007663
v -0.138359 -0.136485 0.008345
v -0.138359 0.136485 0.008345
v 0.138334 0.136483 0.007663
v 0.138359 0.136485 0.008345
v 0.138359 -0.136485 0.008345
v -0.113215 -0.174114 0.008345
v -0.126411 -0.165267 0.007663
v -0.126429 -0.165285 0.008345
v -0.135235 -0.152061 0.007663
v -0.135259 -0.152070 0.008345
v -0.126411 -0.165267 0.007663
v -0.126429 -0.165285 0.008345
v 0.135259 -0.152070 0.008345
v 0.126411 -0.165267 0.007663
v 0.126429 -0.165285 0.008345
v 0.113205 -0.174091 0.007663
v 0.113215 -0.174114 0.008345
v 0.126411 -0.165267 0.007663
v 0.126429 -0.165285 0.008345
v -0.135259 0.152070 0.008345
v -0.126411 0.165267 0.007663
v -0.126429 0.165285 0.008345
v -0.113205 0.174091 0.007663
v -0.113215 0.174114 0.008345
v -0.126411 0.165267 0.007663
v -0.126429 0.165285 0.008345
v 0.113215 0.174114 0.008345
v 0.126411 0.165267 0.007663
v 0.126429 0.165285 0.008345
v 0.135235 0.152061 0.007663
v 0.135259 0.152070 0.008345
v 0.126411 0.165267 0.007663
v 0.126429 0.165285 0.008345
v -0.097560 -0.176508 0.009709
v 0.097560 -0.176508 0.009709
v 0.097560 0.176508 0.009709
v -0.097560 0.176508 0.009709
v -0.137652 0.136416 0.009709
v -0.137652 -0.136416 0.009709
v 0.137652 -0.136416 0.009709
v 0.137652 0.136416 0.009709
v -0.112939 -0.173449 0.009709
v -0.125919 -0.164775 0.009709
v -0.134593 -0.151795 0.009709
v -0.125919 -0.164775 0.009709
v 0.134593 -0.151795 0.009709
v 0.125919 -0.164775 0.009709
v 0.112939 -0.173449 0.009709
v 0.125919 -0.164775 0.009709
v -0.134593 0.151795 0.009709
v -0.125919 0.164775 0.009709
v -0.112939 0.173449 0.009709
v -0.125919 0.164775 0.009709
v 0.112939 0.173449 0.009709
v 0.125919 0.164775 0.009709
v 0.134593 0.151795 0.009709
v 0.125919 0.164775 0.009709
v -0.138134 -0.136463 0.007181
v -0.135047 -0.151983 0.007181
v -0.137652 -0.136416 0.006981
v -0.134593 -0.151795 0.006981
v -0.126267 -0.165123 0.007181
v -0.125919 -0.164775 0.006981
v -0.126267 -0.165123 0.007181
v -0.125919 -0.164775 0.006981
v 0.097607 -0.176990 0.007181
v 0.097560 -0.176508 0.006981
v 0.113127 -0.173903 0.007181
v 0.112939 -0.173449 0.006981
v 0.126267 -0.165123 0.007181
v 0.125919 -0.164775 0.006981
v 0.126267 -0.165123 0.007181
v 0.125919 -0.164775 0.006981
v -0.097607 0.176990 0.007181
v -0.113127 0.173903 0.007181
v -0.097560 0.176508 0.006981
v -0.112939 0.173449 0.006981
v -0.126267 0.165123 0.007181
v -0.125919 0.164775 0.006981
v -0.126267 0.165123 0.007181
v -0.125919 0.164775 0.006981
v 0.138134 0.136463 0.007181
v 0.137652 0.136416 0.006981
v 0.135047 0.151983 0.007181
v 0.134593 0.151795 0.006981
v 0.126267 0.165123 0.007181
v 0.125919 0.164775 0.006981
v 0.126267 0.165123 0.007181
v 0.125919 0.164775 0.006981
v -0.138334 -0.136483 0.009027
v -0.138134 -0.136463 0.009510
v -0.138134 0.136463 0.009510
v -0.138334 0.136483 0.009027
v -0.135047 -0.151983 0.009510
v -0.135235 -0.152061 0.009027
v -0.126267 -0.165123 0.009510
v -0.126411 -0.165267 0.009027
v -0.126267 -0.165123 0.009510
v -0.113127 -0.173903 0.009510
v -0.126411 -0.165267 0.009027
v -0.113205 -0.174091 0.009027
v -0.097607 -0.176990 0.009510
v -0.097627 -0.177190 0.009027
v 0.097607 -0.176990 0.009510
v 0.097627 -0.177190 0.009027
v 0.113127 -0.173903 0.009510
v 0.113205 -0.174091 0.009027
v 0.126267 -0.165123 0.009510
v 0.126411 -0.165267 0.009027
v 0.126267 -0.165123 0.009510
v 0.135047 -0.151983 0.009510
v 0.126411 -0.165267 0.009027
v 0.135235 -0.152061 0.009027
v 0.138134 -0.136463 0.009510
v 0.138334 -0.136483 0.009027
v -0.097627 0.177190 0.009027
v -0.097607 0.176990 0.009510
v 0.097607 0.176990 0.009510
v 0.097627 0.177190 0.009027
v -0.113127 0.173903 0.009510
v -0.113205 0.174091 0.009027
v -0.126267 0.165123 0.009510
v -0.126411 0.165267 0.009027
v -0.126267 0.165123 0.009510
v -0.135047 0.151983 0.009510
v -0.126411 0.165267 0.009027
v -0.135235 0.152061 0.009027
v 0.138134 0.136463 0.009510
v 0.138334 0.136483 0.009027
v 0.135047 0.151983 0.009510
v 0.135235 0.152061 0.009027
v 0.126267 0.165123 0.009510
v 0.126411 0.165267 0.009027
v 0.126267 0.165123 0.009510
v 0.113127 0.173903 0.009510
v 0.126411 0.165267 0.009027
v 0.113205 0.174091 0.009027
v -0.089557 -0.172502 0.006981
v 0.089569 -0.172628 0.006981
v 0.089557 0.172502 0.006981
v -0.089569 0.172629 0.006981
v -0.133647 0.128413 0.006981
v -0.133773 -0.128425 0.006981
v 0.133647 -0.128413 0.006981
v 0.133773 0.128425 0.006981
v -0.106209 -0.169138 0.006981
v -0.120640 -0.159496 0.006981
v -0.130423 -0.145124 0.006981
v -0.120640 -0.159496 0.006981
v 0.130282 -0.145065 0.006981
v 0.120640 -0.159496 0.006981
v 0.106268 -0.169279 0.006981
v 0.120640 -0.159496 0.006981
v -0.130282 0.145065 0.006981
v -0.120640 0.159496 0.006981
v -0.106268 0.169279 0.006981
v -0.120640 0.159496 0.006981
v 0.106209 0.169138 0.006981
v 0.120640 0.159496 0.006981
v 0.130423 0.145124 0.006981
v 0.120640 0.159496 0.006981
v -0.131434 -0.128043 0.006631
v -0.131374 0.128038 0.006631
v -0.127724 -0.126553 0.004031
v -0.129349 -0.127398 0.005613
v -0.129334 0.127396 0.005612
v -0.127724 0.126553 0.004031
v -0.128232 -0.144120 0.006655
v -0.126307 -0.143042 0.005708
v -0.124807 -0.141978 0.004211
v -0.118983 -0.157839 0.006664
v -0.117452 -0.156307 0.005737
v -0.116158 -0.155014 0.004266
v -0.118983 -0.157839 0.006664
v -0.105237 -0.167022 0.006656
v -0.117452 -0.156307 0.005737
v -0.104179 -0.165146 0.005706
v -0.116158 -0.155014 0.004266
v -0.103122 -0.163663 0.004211
v -0.089182 -0.170230 0.006631
v -0.088540 -0.168190 0.005612
v -0.087697 -0.166580 0.004031
v 0.089187 -0.170290 0.006631
v 0.088542 -0.168205 0.005613
v 0.087697 -0.166580 0.004031
v 0.105264 -0.167088 0.006655
v 0.104186 -0.165163 0.005708
v 0.103122 -0.163663 0.004211
v 0.118983 -0.157839 0.006664
v 0.117452 -0.156307 0.005737
v 0.116158 -0.155014 0.004266
v 0.118983 -0.157839 0.006664
v 0.128166 -0.144092 0.006656
v 0.117452 -0.156307 0.005737
v 0.126290 -0.143034 0.005706
v 0.116158 -0.155014 0.004266
v 0.124807 -0.141978 0.004211
v 0.131374 -0.128038 0.006631
v 0.129334 -0.127396 0.005612
v 0.127724 -0.126553 0.004031
v -0.128166 0.144092 0.006656
v -0.118983 0.157839 0.006664
v -0.124807 0.141978 0.004211
v -0.126290 0.143035 0.005706
v -0.117452 0.156308 0.005737
v -0.116158 0.155014 0.004266
v -0.118983 0.157839 0.006664
v -0.105264 0.167088 0.006655
v -0.116158 0.155014 0.004266
v -0.117452 0.156308 0.005737
v -0.104186 0.165163 0.005708
v -0.103122 0.163663 0.004211
v -0.089187 0.170290 0.006631
v -0.088542 0.168205 0.005613
v -0.087697 0.166580 0.004031
v 0.089182 0.170230 0.006631
v 0.088540 0.168190 0.005612
v 0.087697 0.166580 0.004031
v 0.105237 0.167022 0.006656
v 0.118983 0.157839 0.006664
v 0.103122 0.163663 0.004211
v 0.104179 0.165146 0.005706
v 0.117452 0.156308 0.005737
v 0.116158 0.155014 0.004266
v 0.118983 0.157839 0.006664
v 0.128232 0.144120 0.006655
v 0.116158 0.155014 0.004266
v 0.117452 0.156308 0.005737
v 0.126307 0.143042 0.005708
v 0.124807 0.141978 0.004211
v 0.131434 0.128043 0.006631
v 0.129349 0.127398 0.005613
v 0.127724 0.126553 0.004031
v -0.123902 -0.123929 -0.008632
v -0.120801 -0.138668 -0.008826
v -0.112352 -0.151208 -0.008885
v -0.112352 -0.151208 -0.008885
v -0.099812 -0.159657 -0.008826
v -0.085073 -0.162758 -0.008632
v 0.085073 -0.162758 -0.008632
v 0.099812 -0.159657 -0.008826
v 0.112352 -0.151208 -0.008885
v 0.112352 -0.151208 -0.008885
v 0.120801 -0.138668 -0.008826
v 0.123902 -0.123929 -0.008632
v -0.120801 0.138668 -0.008826
v -0.123902 0.123929 -0.008632
v -0.112352 0.151208 -0.008885
v -0.099812 0.159657 -0.008826
v -0.112352 0.151208 -0.008885
v -0.085073 0.162758 -0.008632
v 0.099812 0.159657 -0.008826
v 0.085073 0.162758 -0.008632
v 0.112352 0.151208 -0.008885
v 0.120801 0.138668 -0.008826
v 0.112352 0.151208 -0.008885
v 0.123902 0.123929 -0.008632
v -0.084127 -0.160951 -0.010328
v -0.098626 -0.157992 -0.010430
v -0.079308 -0.150913 -0.011797
v -0.083407 -0.158660 -0.011422
v -0.097438 -0.155886 -0.011448
v -0.092076 -0.148429 -0.011797
v -0.083407 -0.158660 -0.011422
v -0.097438 -0.155886 -0.011448
v 0.084125 -0.160934 -0.010329
v 0.083400 -0.158594 -0.011421
v 0.079294 -0.150778 -0.011797
v 0.083400 -0.158594 -0.011421
v -0.122078 -0.122981 -0.010329
v -0.122095 0.122983 -0.010328
v -0.111922 -0.118150 -0.011797
v -0.119738 -0.122256 -0.011421
v -0.119804 0.122263 -0.011422
v -0.112057 0.118164 -0.011797
v -0.119738 -0.122256 -0.011421
v -0.119804 0.122263 -0.011422
v -0.119136 0.137482 -0.010430
v -0.117030 0.136294 -0.011448
v -0.109573 0.130932 -0.011797
v -0.117030 0.136294 -0.011448
v -0.084125 0.160934 -0.010329
v 0.084127 0.160951 -0.010328
v -0.079294 0.150778 -0.011797
v -0.083400 0.158594 -0.011421
v 0.083407 0.158660 -0.011422
v 0.079308 0.150913 -0.011797
v -0.083400 0.158594 -0.011421
v 0.083407 0.158660 -0.011422
v 0.098626 0.157992 -0.010430
v 0.097438 0.155886 -0.011448
v 0.092076 0.148429 -0.011797
v 0.097438 0.155886 -0.011448
v 0.122095 -0.122983 -0.010328
v 0.119136 -0.137482 -0.010430
v 0.112057 -0.118163 -0.011797
v 0.119804 -0.122263 -0.011422
v 0.117030 -0.136294 -0.011448
v 0.109573 -0.130932 -0.011797
v 0.119804 -0.122263 -0.011422
v 0.117030 -0.136294 -0.011448
v 0.122078 0.122981 -0.010329
v 0.119738 0.122256 -0.011421
v 0.111922 0.118150 -0.011797
v 0.119738 0.122256 -0.011421
v -0.119117 -0.137473 -0.010431
v -0.116956 -0.136263 -0.011448
v -0.109422 -0.130869 -0.011797
v -0.116956 -0.136263 -0.011448
v -0.110900 -0.149756 -0.010462
v -0.109181 -0.148037 -0.011457
v -0.102565 -0.141421 -0.011797
v -0.109181 -0.148037 -0.011457
v -0.110900 -0.149756 -0.010462
v -0.109181 -0.148037 -0.011457
v 0.098618 -0.157973 -0.010431
v 0.097408 -0.155811 -0.011448
v 0.092014 -0.148278 -0.011797
v 0.097408 -0.155811 -0.011448
v 0.110900 -0.149756 -0.010462
v 0.109181 -0.148037 -0.011457
v 0.102565 -0.141421 -0.011797
v 0.109181 -0.148037 -0.011457
v 0.110900 -0.149756 -0.010462
v 0.109181 -0.148037 -0.011457
v -0.110900 0.149756 -0.010462
v -0.109181 0.148037 -0.011457
v -0.102565 0.141421 -0.011797
v -0.109181 0.148037 -0.011457
v -0.110900 0.149756 -0.010462
v -0.098618 0.157973 -0.010431
v -0.097408 0.155812 -0.011448
v -0.092014 0.148278 -0.011797
v -0.109181 0.148037 -0.011457
v -0.097408 0.155812 -0.011448
v 0.110900 0.149756 -0.010462
v 0.109181 0.148037 -0.011457
v 0.102565 0.141421 -0.011797
v 0.109181 0.148037 -0.011457
v 0.110900 0.149756 -0.010462
v 0.119117 0.137473 -0.010431
v 0.116956 0.136263 -0.011448
v 0.109422 0.130869 -0.011797
v 0.109181 0.148037 -0.011457
v 0.116956 0.136263 -0.011448
v -0.097630 -0.177214 0.008345
v 0.097630 -0.177214 0.008345
v -0.113215 -0.174114 0.008345
v -0.126429 -0.165285 0.008345
v -0.135259 -0.152070 0.008345
v -0.126429 -0.165285 0.008345
v -0.138359 -0.136485 0.008345
v -0.138359 0.136485 0.008345
v -0.135259 0.152070 0.008345
v -0.126429 0.165285 0.008345
v -0.113215 0.174114 0.008345
v -0.126429 0.165285 0.008345
v -0.097630 0.177215 0.008345
v 0.097630 0.177215 0.008345
v 0.113215 0.174114 0.008345
v 0.126429 0.165285 0.008345
v 0.135259 0.152070 0.008345
v 0.126429 0.165285 0.008345
v 0.138359 0.136485 0.008345
v 0.138359 -0.136485 0.008345
v 0.135259 -0.152070 0.008345
v 0.126429 -0.165285 0.008345
v 0.113215 -0.174114 0.008345
v 0.126429 -0.165285 0.008345
vt 0.435756 0.105377
vt 0.440438 0.255586
vt 0.440536 0.129501
vt 0.435621 0.279703
vt 0.422109 0.084918
vt 0.421942 0.300141
vt 0.401671 0.071239
vt 0.401483 0.313788
vt 0.377554 0.066422
vt 0.377359 0.318567
vt 0.131141 0.066231
vt 0.130946 0.318376
vt 0.107017 0.071010
vt 0.106829 0.313559
vt 0.086558 0.084657
vt 0.086391 0.299880
vt 0.072879 0.105095
vt 0.072744 0.279421
vt 0.068062 0.129212
vt 0.067965 0.255297
vt 0.880272 0.620588
vt 0.882809 0.611515
vt 0.862458 0.608856
vt 0.861599 0.618515
vt 0.885303 0.602668
vt 0.863138 0.599228
vt 0.887864 0.593680
vt 0.863500 0.589574
vt 0.043851 0.446736
vt 0.041709 0.456475
vt 0.063204 0.458628
vt 0.064063 0.448921
vt 0.039682 0.465702
vt 0.062571 0.468304
vt 0.037661 0.474878
vt 0.062303 0.477983
vt 0.464992 0.428482
vt 0.467131 0.418739
vt 0.445628 0.416592
vt 0.444770 0.426296
vt 0.469154 0.409508
vt 0.446259 0.406919
vt 0.471168 0.400334
vt 0.446529 0.397243
vt 0.398825 0.616186
vt 0.401363 0.607142
vt 0.381062 0.604462
vt 0.380185 0.614104
vt 0.403866 0.598324
vt 0.381760 0.594851
vt 0.406440 0.589365
vt 0.382142 0.585213
vt 0.017412 0.061555
vt 0.017209 0.322875
vt 0.491088 0.323243
vt 0.491291 0.061923
vt 0.445211 0.015772
vt 0.063563 0.015475
vt 0.063289 0.369026
vt 0.444937 0.369323
vt 0.021136 0.042910
vt 0.030663 0.028675
vt 0.044913 0.019170
vt 0.044644 0.365303
vt 0.030409 0.355775
vt 0.020904 0.341526
vt 0.463856 0.019495
vt 0.478091 0.029023
vt 0.487596 0.043272
vt 0.487364 0.341888
vt 0.477837 0.356123
vt 0.463588 0.365628
vt 0.064150 0.426474
vt 0.063284 0.416771
vt 0.041780 0.418917
vt 0.043915 0.428657
vt 0.062643 0.407098
vt 0.039765 0.409694
vt 0.062366 0.397422
vt 0.037743 0.400529
vt 0.022232 0.425484
vt 0.027045 0.434326
vt 0.018283 0.416688
vt 0.015405 0.407916
vt 0.895163 0.627275
vt 0.900577 0.619552
vt 0.905442 0.611646
vt 0.909501 0.603439
vt 0.600016 0.609014
vt 0.600916 0.618687
vt 0.599307 0.599360
vt 0.598928 0.589674
vt 0.579342 0.612054
vt 0.582168 0.621332
vt 0.576697 0.603005
vt 0.574075 0.593800
vt 0.560733 0.620638
vt 0.566622 0.628667
vt 0.555521 0.612329
vt 0.551271 0.603645
vt 0.027002 0.441054
vt 0.022158 0.449879
vt 0.018186 0.458675
vt 0.015294 0.467453
vt 0.119865 0.613721
vt 0.118986 0.604060
vt 0.098334 0.607080
vt 0.101155 0.616350
vt 0.118294 0.594419
vt 0.095702 0.598033
vt 0.117935 0.584744
vt 0.093090 0.588829
vt 0.079729 0.615668
vt 0.085623 0.623694
vt 0.074514 0.607356
vt 0.070259 0.598659
vt 0.481871 0.434168
vt 0.486701 0.425320
vt 0.490662 0.416511
vt 0.493546 0.407723
vt 0.445628 0.458366
vt 0.444757 0.448661
vt 0.446274 0.468041
vt 0.446554 0.477720
vt 0.467123 0.456209
vt 0.464985 0.446473
vt 0.469145 0.465427
vt 0.471175 0.474591
vt 0.486649 0.449626
vt 0.481823 0.440809
vt 0.490608 0.458408
vt 0.493493 0.467167
vt 0.413657 0.622860
vt 0.419053 0.615173
vt 0.423908 0.607312
vt 0.427966 0.599150
vt 0.863539 0.587229
vt 0.598886 0.587322
vt 0.382186 0.582872
vt 0.117898 0.582395
vt 0.446541 0.394899
vt 0.062351 0.395079
vt 0.062291 0.480327
vt 0.446569 0.480064
vt 0.888530 0.591434
vt 0.910402 0.601434
vt 0.037216 0.398270
vt 0.014835 0.405821
vt 0.037133 0.477140
vt 0.014718 0.469549
vt 0.573409 0.591502
vt 0.550350 0.601510
vt 0.471693 0.398073
vt 0.494117 0.405624
vt 0.092428 0.586530
vt 0.069338 0.596519
vt 0.407109 0.587127
vt 0.428868 0.597157
vt 0.471705 0.476852
vt 0.494069 0.469259
vt 0.062129 0.391487
vt 0.062282 0.393283
vt 0.446609 0.393103
vt 0.446760 0.391307
vt 0.036791 0.396512
vt 0.036348 0.394745
vt 0.014266 0.404280
vt 0.013513 0.402814
vt 0.911225 0.599962
vt 0.889065 0.589673
vt 0.912233 0.598573
vt 0.889619 0.587890
vt 0.863624 0.585430
vt 0.863787 0.583629
vt 0.598800 0.585517
vt 0.598636 0.583711
vt 0.572882 0.589702
vt 0.572342 0.587880
vt 0.549513 0.599936
vt 0.548487 0.598446
vt 0.014146 0.471093
vt 0.036708 0.478900
vt 0.013389 0.472560
vt 0.036265 0.480670
vt 0.062223 0.482124
vt 0.062072 0.483920
vt 0.117656 0.578787
vt 0.117816 0.580593
vt 0.382274 0.581076
vt 0.382441 0.579278
vt 0.091904 0.584728
vt 0.091366 0.582905
vt 0.068500 0.594944
vt 0.067473 0.593453
vt 0.494686 0.404080
vt 0.472118 0.396314
vt 0.495440 0.402610
vt 0.472560 0.394545
vt 0.446639 0.481859
vt 0.446793 0.483656
vt 0.472132 0.478610
vt 0.472576 0.480377
vt 0.494640 0.470798
vt 0.495395 0.472261
vt 0.429692 0.595694
vt 0.407646 0.585372
vt 0.430699 0.594316
vt 0.408204 0.583595
vt 0.562121 0.510720
vt 0.562332 0.511424
vt 0.584772 0.508533
vt 0.584743 0.507732
vt 0.562547 0.512138
vt 0.584838 0.509335
vt 0.023355 0.512104
vt 0.023479 0.512778
vt 0.044277 0.511112
vt 0.044246 0.510310
vt 0.023604 0.513461
vt 0.044347 0.511914
vt 0.975721 0.440085
vt 0.975598 0.439410
vt 0.954803 0.441076
vt 0.954834 0.441877
vt 0.975473 0.438727
vt 0.954734 0.440274
vt 0.565317 0.451159
vt 0.565532 0.451872
vt 0.588218 0.448942
vt 0.588185 0.448136
vt 0.565751 0.452596
vt 0.588287 0.449749
vt 0.886021 0.509316
vt 0.886034 0.508266
vt 0.584734 0.506685
vt 0.891170 0.448509
vt 0.891179 0.447453
vt 0.588172 0.447082
vt 0.532382 0.442338
vt 0.532376 0.443386
vt 0.954843 0.442925
vt 0.466871 0.509827
vt 0.466877 0.508779
vt 0.044238 0.509262
vt 0.561844 0.509802
vt 0.542160 0.519988
vt 0.541743 0.519128
vt 0.511421 0.440506
vt 0.511257 0.441387
vt 0.491437 0.434155
vt 0.491184 0.435017
vt 0.023193 0.511224
vt 0.003362 0.518388
vt 0.003112 0.517526
vt 0.909361 0.510967
vt 0.909576 0.509976
vt 0.932029 0.519604
vt 0.932404 0.518626
vt 0.975883 0.440965
vt 0.995734 0.433804
vt 0.995984 0.434668
vt 0.914683 0.450256
vt 0.914906 0.449262
vt 0.937323 0.459062
vt 0.937707 0.458085
vt 0.565036 0.450229
vt 0.545055 0.460629
vt 0.544628 0.459756
vt 0.487805 0.511652
vt 0.487968 0.510772
vt 0.507748 0.517969
vt 0.508000 0.517109
vt 0.882045 0.568335
vt 0.580380 0.568380
vt 0.400708 0.564048
vt 0.099458 0.563434
vt 0.464895 0.376059
vt 0.043980 0.376258
vt 0.043932 0.499175
vt 0.464954 0.498884
vt 0.904986 0.571083
vt 0.925601 0.581237
vt 0.023201 0.377912
vt 0.003347 0.385125
vt 0.023085 0.497539
vt 0.003168 0.490283
vt 0.557124 0.570261
vt 0.535224 0.579861
vt 0.485703 0.377673
vt 0.505612 0.384875
vt 0.076173 0.565235
vt 0.054207 0.574807
vt 0.423589 0.566891
vt 0.444080 0.577103
vt 0.485761 0.497195
vt 0.505608 0.489925
vt 0.532411 0.441536
vt 0.511546 0.439831
vt 0.532479 0.440734
vt 0.511673 0.439146
vt 0.491675 0.433510
vt 0.491982 0.432884
vt 0.542525 0.520624
vt 0.542959 0.521227
vt 0.885988 0.510118
vt 0.885917 0.510921
vt 0.909196 0.511726
vt 0.909029 0.512497
vt 0.931690 0.520332
vt 0.931269 0.521030
vt 0.003597 0.519034
vt 0.003903 0.519661
vt 0.891138 0.449316
vt 0.914512 0.451017
vt 0.891071 0.450124
vt 0.914339 0.451791
vt 0.936976 0.459789
vt 0.936549 0.460484
vt 0.995499 0.433157
vt 0.995193 0.432531
vt 0.466842 0.510629
vt 0.466774 0.511431
vt 0.487681 0.512327
vt 0.487554 0.513010
vt 0.507512 0.518614
vt 0.507206 0.519238
vt 0.545426 0.461275
vt 0.545869 0.461886
vt 0.043882 0.374659
vt 0.043912 0.375458
vt 0.464962 0.375260
vt 0.464992 0.374461
vt 0.023059 0.377223
vt 0.022918 0.376544
vt 0.003008 0.384497
vt 0.002740 0.383846
vt 0.926072 0.580605
vt 0.905210 0.570339
vt 0.926470 0.579936
vt 0.905431 0.569607
vt 0.882114 0.567530
vt 0.882147 0.566726
vt 0.580313 0.567574
vt 0.580283 0.566770
vt 0.556931 0.569492
vt 0.556741 0.568735
vt 0.534766 0.579178
vt 0.534390 0.578462
vt 0.002827 0.490913
vt 0.022942 0.498229
vt 0.002558 0.491567
vt 0.022801 0.498910
vt 0.043864 0.499974
vt 0.043834 0.500774
vt 0.099364 0.561826
vt 0.099393 0.562630
vt 0.400779 0.563245
vt 0.400814 0.562442
vt 0.075982 0.564465
vt 0.075794 0.563707
vt 0.053751 0.574122
vt 0.053375 0.573403
vt 0.505951 0.384245
vt 0.485845 0.376983
vt 0.506219 0.383592
vt 0.485985 0.376302
vt 0.465023 0.499683
vt 0.465054 0.500483
vt 0.485905 0.497883
vt 0.486047 0.498563
vt 0.505949 0.490553
vt 0.506219 0.491205
vt 0.444552 0.576476
vt 0.423816 0.566151
vt 0.444950 0.575810
vt 0.424040 0.565421
vt 0.597123 0.515599
vt 0.873583 0.516894
vt 0.600668 0.456000
vt 0.878689 0.456178
vt 0.942396 0.434070
vt 0.544788 0.434700
vt 0.056691 0.518119
vt 0.454460 0.517469
vt 0.571515 0.519427
vt 0.549101 0.529589
vt 0.519443 0.431755
vt 0.496490 0.423998
vt 0.031399 0.521072
vt 0.008388 0.528565
vt 0.900074 0.520433
vt 0.925081 0.530718
vt 0.967684 0.431118
vt 0.990709 0.423625
vt 0.905305 0.459723
vt 0.930281 0.470133
vt 0.574847 0.459952
vt 0.552150 0.470359
vt 0.479800 0.520400
vt 0.502720 0.528119
vt 0.545345 0.431035
vt 0.941841 0.430508
vt 0.547605 0.423909
vt 0.546316 0.427433
vt 0.940868 0.426969
vt 0.939574 0.423465
vt 0.520371 0.428352
vt 0.521531 0.424960
vt 0.522895 0.421599
vt 0.497947 0.421129
vt 0.499337 0.418202
vt 0.500617 0.415190
vt 0.551009 0.532237
vt 0.572668 0.522745
vt 0.552817 0.534913
vt 0.574049 0.526046
vt 0.554478 0.537646
vt 0.575618 0.529319
vt 0.597665 0.519154
vt 0.598627 0.522687
vt 0.599910 0.526183
vt 0.872994 0.520565
vt 0.871986 0.524168
vt 0.870654 0.527686
vt 0.898965 0.524048
vt 0.897591 0.527601
vt 0.895994 0.531069
vt 0.923083 0.533763
vt 0.921137 0.536824
vt 0.919303 0.539929
vt 0.009834 0.531441
vt 0.032304 0.524363
vt 0.011212 0.534374
vt 0.033452 0.527686
vt 0.012478 0.537393
vt 0.034816 0.531027
vt 0.057245 0.521683
vt 0.058219 0.525223
vt 0.059513 0.528728
vt 0.966782 0.427827
vt 0.989260 0.420749
vt 0.964272 0.421166
vt 0.965634 0.424504
vt 0.987879 0.417816
vt 0.986611 0.414797
vt 0.928264 0.473166
vt 0.904183 0.463351
vt 0.924463 0.479305
vt 0.926307 0.476213
vt 0.902798 0.466915
vt 0.901194 0.470394
vt 0.878110 0.459870
vt 0.877109 0.463495
vt 0.875784 0.467037
vt 0.601229 0.459575
vt 0.602211 0.463125
vt 0.603518 0.466636
vt 0.576021 0.463301
vt 0.554105 0.473038
vt 0.579031 0.469928
vt 0.577430 0.466630
vt 0.555962 0.475742
vt 0.557673 0.478501
vt 0.501273 0.530988
vt 0.478875 0.523802
vt 0.498628 0.536928
vt 0.499896 0.533914
vt 0.477716 0.527194
vt 0.476356 0.530557
vt 0.453904 0.521135
vt 0.452932 0.524738
vt 0.451642 0.528263
vt 0.551667 0.403426
vt 0.528885 0.401212
vt 0.507040 0.395246
vt 0.562458 0.556098
vt 0.582370 0.548936
vt 0.604002 0.546486
vt 0.866273 0.548072
vt 0.888406 0.551508
vt 0.910081 0.559953
vt 0.018872 0.557431
vt 0.040750 0.551494
vt 0.063631 0.549208
vt 0.958340 0.400708
vt 0.935459 0.402994
vt 0.980216 0.394771
vt 0.893627 0.490869
vt 0.915237 0.499280
vt 0.871462 0.487542
vt 0.585975 0.489674
vt 0.607729 0.487043
vt 0.565910 0.497094
vt 0.470378 0.550962
vt 0.492244 0.556897
vt 0.447581 0.548756
vt 0.605412 0.550301
vt 0.583781 0.552366
vt 0.520679 0.314385
vt 0.502057 0.321503
vt 0.508559 0.344052
vt 0.524595 0.333408
vt 0.606463 0.554214
vt 0.584985 0.555969
vt 0.864789 0.551898
vt 0.863660 0.555871
vt 0.520780 0.075762
vt 0.501962 0.068814
vt 0.553111 0.399562
vt 0.934009 0.399153
vt 0.569922 0.363252
vt 0.562893 0.382060
vt 0.932656 0.381579
vt 0.925692 0.362924
vt 0.554205 0.395552
vt 0.932912 0.395213
vt 0.956995 0.397028
vt 0.955250 0.375114
vt 0.944661 0.359046
vt 0.955858 0.393137
vt 0.869989 0.491393
vt 0.609165 0.490873
vt 0.974135 0.313718
vt 0.992953 0.320667
vt 0.992858 0.067977
vt 0.974236 0.075096
vt 0.868871 0.495391
vt 0.610241 0.494804
vt 0.587429 0.493119
vt 0.986356 0.045429
vt 0.970320 0.056072
vt 0.588675 0.496739
vt 0.065082 0.553051
vt 0.042096 0.555177
vt 0.569223 0.026557
vt 0.562260 0.007901
vt 0.539665 0.014367
vt 0.550254 0.030435
vt 0.066179 0.556992
vt 0.043234 0.559069
vt 0.446137 0.552621
vt 0.445043 0.556633
vt 0.924993 0.026229
vt 0.932023 0.007420
vt 0.530222 0.397513
vt 0.531364 0.393550
vt 0.550956 0.359411
vt 0.540362 0.375617
vt 0.508540 0.391613
vt 0.510204 0.387947
vt 0.535149 0.349112
vt 0.521794 0.362537
vt 0.564179 0.559340
vt 0.566010 0.562586
vt 0.886758 0.555084
vt 0.885267 0.558899
vt 0.524538 0.056776
vt 0.508248 0.046278
vt 0.908029 0.563463
vt 0.905820 0.566951
vt 0.534688 0.040985
vt 0.521234 0.027662
vt 0.020372 0.561074
vt 0.022032 0.564751
vt 0.978719 0.391129
vt 0.973682 0.361819
vt 0.960227 0.348495
vt 0.977059 0.387453
vt 0.913195 0.502778
vt 0.891994 0.494449
vt 0.986667 0.343203
vt 0.970377 0.332705
vt 0.911003 0.506253
vt 0.890520 0.498266
vt 0.567687 0.500355
vt 0.973121 0.026943
vt 0.959766 0.040368
vt 0.569577 0.503615
vt 0.490747 0.560535
vt 0.469042 0.554664
vt 0.954554 0.013864
vt 0.943959 0.030069
vt 0.489087 0.564207
vt 0.467900 0.558632
vt 0.882160 0.565675
vt 0.580273 0.565717
vt 0.905720 0.568651
vt 0.926926 0.579028
vt 0.022733 0.375658
vt 0.002449 0.382976
vt 0.043874 0.373614
vt 0.464999 0.373416
vt 0.486168 0.375415
vt 0.506510 0.382719
vt 0.075548 0.562717
vt 0.052951 0.572435
vt 0.099357 0.560774
vt 0.400829 0.561392
vt 0.424332 0.564469
vt 0.445409 0.574909
vt 0.486232 0.499450
vt 0.506513 0.492076
vt 0.465062 0.501528
vt 0.043828 0.501819
vt 0.022618 0.499800
vt 0.002264 0.492442
vt 0.556494 0.567746
vt 0.533967 0.577498
vn 0.0000 0.0000 1.0000
vn -0.1913 -0.4482 0.8732
vn 0.1992 0.5001 0.8428
vn -0.0264 0.4806 0.8765
vn -0.0866 -0.0364 0.9956
vn 0.3321 0.8056 0.4906
vn 0.0392 0.8355 0.5481
vn 0.3790 0.9157 0.1337
vn 0.0619 0.9781 0.1989
vn 0.4482 -0.1913 0.8732
vn -0.5001 0.1992 0.8428
vn -0.4781 -0.0297 0.8778
vn 0.0337 -0.0906 0.9953
vn -0.8056 0.3321 0.4906
vn -0.8336 0.0366 0.5512
vn -0.9157 0.3790 0.1337
vn -0.9774 0.0597 0.2029
vn -0.4482 0.1913 0.8732
vn 0.5001 -0.1992 0.8428
vn 0.4781 0.0297 0.8778
vn -0.0337 0.0906 0.9953
vn 0.8056 -0.3321 0.4906
vn 0.8336 -0.0366 0.5512
vn 0.9157 -0.3790 0.1337
vn 0.9774 -0.0597 0.2029
vn 0.1913 0.4482 0.8732
vn -0.1992 -0.5001 0.8428
vn 0.0264 -0.4806 0.8765
vn 0.0866 0.0364 0.9956
vn -0.3321 -0.8056 0.4906
vn -0.0392 -0.8355 0.5481
vn -0.3790 -0.9157 0.1337
vn -0.0619 -0.9781 0.1989
vn 0.0128 0.9055 0.4241
vn -0.0128 0.9055 0.4241
vn -0.0128 -0.9055 0.4241
vn 0.0128 -0.9055 0.4241
vn 0.9066 -0.0089 0.4220
vn 0.9066 0.0089 0.4220
vn -0.9066 0.0089 0.4220
vn -0.9066 -0.0089 0.4220
vn 0.2414 0.5948 0.7668
vn 0.4332 0.4332 0.7903
vn 0.5948 0.2414 0.7668
vn -0.5948 0.2414 0.7668
vn -0.4332 0.4332 0.7903
vn -0.2414 0.5948 0.7668
vn 0.5948 -0.2414 0.7668
vn 0.4332 -0.4332 0.7903
vn 0.2414 -0.5948 0.7668
vn -0.2414 -0.5948 0.7668
vn -0.4332 -0.4332 0.7903
vn -0.5948 -0.2414 0.7668
vn -0.0306 -0.0894 0.9955
vn 0.5392 -0.0291 0.8417
vn 0.4896 0.2178 0.8443
vn -0.4480 -0.1912 0.8733
vn 0.8728 0.0049 0.4880
vn 0.8046 0.3346 0.4905
vn 0.9912 0.0133 0.1316
vn 0.9168 0.3769 0.1319
vn 0.3246 0.4340 0.8404
vn -0.4266 -0.2609 0.8660
vn 0.6115 0.6205 0.4909
vn 0.7049 0.6965 0.1338
vn -0.2609 -0.4266 0.8660
vn 0.4349 0.3238 0.8402
vn 0.6210 0.6111 0.4909
vn 0.6945 0.7070 0.1338
vn 0.0225 0.5426 0.8397
vn 0.0854 -0.0333 0.9958
vn -0.0217 0.8882 0.4589
vn -0.0352 0.9960 0.0815
vn -0.2178 0.4896 0.8443
vn 0.1912 -0.4480 0.8733
vn -0.3346 0.8046 0.4905
vn -0.3768 0.9168 0.1319
vn -0.4340 0.3246 0.8404
vn 0.2609 -0.4266 0.8660
vn -0.6205 0.6115 0.4909
vn -0.6965 0.7049 0.1338
vn 0.4266 -0.2609 0.8660
vn -0.3238 0.4349 0.8402
vn -0.6111 0.6210 0.4909
vn -0.7070 0.6945 0.1338
vn -0.0854 0.0333 0.9958
vn -0.0248 -0.5388 0.8421
vn 0.2178 -0.4896 0.8443
vn -0.1912 0.4480 0.8733
vn 0.0094 -0.8726 0.4883
vn 0.3346 -0.8046 0.4905
vn 0.0181 -0.9911 0.1317
vn 0.3769 -0.9168 0.1319
vn 0.4340 -0.3246 0.8404
vn -0.2609 0.4266 0.8660
vn 0.6205 -0.6115 0.4909
vn 0.6965 -0.7049 0.1338
vn -0.4266 0.2609 0.8660
vn 0.3238 -0.4349 0.8402
vn 0.6111 -0.6210 0.4909
vn 0.7070 -0.6945 0.1338
vn -0.5389 0.0292 0.8418
vn 0.0306 0.0894 0.9955
vn -0.8846 -0.0120 0.4662
vn -0.9956 -0.0237 0.0902
vn -0.4896 -0.2178 0.8443
vn 0.4480 0.1912 0.8733
vn -0.8046 -0.3346 0.4906
vn -0.9168 -0.3768 0.1319
vn -0.3246 -0.4340 0.8404
vn 0.4266 0.2609 0.8660
vn -0.6115 -0.6205 0.4909
vn -0.7049 -0.6965 0.1338
vn 0.2609 0.4266 0.8660
vn -0.4349 -0.3238 0.8402
vn -0.6210 -0.6111 0.4909
vn -0.6945 -0.7070 0.1338
vn 0.0112 0.9802 0.1978
vn -0.0121 0.9805 0.1962
vn -0.0112 -0.9802 0.1978
vn 0.0121 -0.9805 0.1962
vn 0.9802 -0.0061 0.1978
vn 0.9805 0.0070 0.1961
vn -0.9802 0.0061 0.1978
vn -0.9805 -0.0070 0.1961
vn 0.3748 0.9048 0.2021
vn 0.7023 0.6827 0.2018
vn 0.9048 0.3748 0.2021
vn 0.6786 0.7063 0.2017
vn -0.9048 0.3748 0.2021
vn -0.6827 0.7023 0.2018
vn -0.3748 0.9048 0.2021
vn -0.7063 0.6786 0.2017
vn 0.9048 -0.3748 0.2021
vn 0.6827 -0.7023 0.2018
vn 0.3748 -0.9048 0.2021
vn 0.7063 -0.6786 0.2017
vn -0.3748 -0.9048 0.2021
vn -0.7023 -0.6827 0.2018
vn -0.9048 -0.3748 0.2022
vn -0.6786 -0.7063 0.2017
vn 0.0913 -0.0366 0.9951
vn 0.7042 -0.0259 0.7095
vn 0.7014 0.0261 0.7123
vn 0.0949 0.0319 0.9950
vn 0.6274 0.2742 0.7288
vn 0.1276 0.0402 0.9910
vn 0.4276 0.5456 0.7208
vn 0.0183 0.1159 0.9931
vn 0.5457 0.4274 0.7207
vn 0.2502 0.6377 0.7285
vn 0.1160 0.0173 0.9931
vn 0.0623 0.1181 0.9910
vn -0.0034 0.6512 0.7589
vn 0.0039 0.0823 0.9966
vn 0.0167 0.7139 0.7001
vn 0.0357 0.0906 0.9952
vn -0.2742 0.6274 0.7288
vn -0.0402 0.1276 0.9910
vn -0.5456 0.4276 0.7208
vn -0.1159 0.0183 0.9931
vn -0.4274 0.5457 0.7207
vn -0.6377 0.2502 0.7285
vn -0.0173 0.1160 0.9931
vn -0.1181 0.0623 0.9910
vn -0.6482 -0.0069 0.7614
vn -0.0832 0.0010 0.9965
vn -0.0339 -0.0896 0.9954
vn -0.0205 -0.7043 0.7096
vn 0.0210 -0.7004 0.7135
vn 0.0295 -0.0930 0.9952
vn 0.2742 -0.6274 0.7288
vn 0.0402 -0.1276 0.9910
vn 0.5456 -0.4276 0.7208
vn 0.1159 -0.0183 0.9931
vn 0.4274 -0.5457 0.7207
vn 0.6377 -0.2502 0.7285
vn 0.0173 -0.1160 0.9931
vn 0.1181 -0.0623 0.9910
vn -0.7113 0.0234 0.7025
vn -0.0917 0.0372 0.9951
vn -0.6274 -0.2742 0.7288
vn -0.1276 -0.0402 0.9910
vn -0.4276 -0.5456 0.7208
vn -0.0183 -0.1159 0.9931
vn -0.5457 -0.4274 0.7207
vn -0.2502 -0.6377 0.7285
vn -0.1160 -0.0173 0.9931
vn -0.0623 -0.1181 0.9910
vn -0.3741 -0.9031 -0.2107
vn -0.2797 -0.6812 -0.6765
vn -0.0186 -0.7653 -0.6434
vn -0.0098 -0.9781 -0.2077
vn -0.0423 -0.0857 -0.9954
vn -0.0690 -0.5309 -0.8446
vn 0.9032 -0.3741 -0.2106
vn 0.6812 -0.2797 -0.6765
vn 0.7672 -0.0156 -0.6412
vn 0.9782 -0.0056 -0.2076
vn 0.0857 -0.0423 -0.9954
vn 0.5487 -0.0716 -0.8329
vn -0.9032 0.3741 -0.2106
vn -0.6812 0.2797 -0.6765
vn -0.7672 0.0156 -0.6412
vn -0.9782 0.0056 -0.2076
vn -0.0857 0.0423 -0.9954
vn -0.5487 0.0716 -0.8329
vn 0.3741 0.9031 -0.2107
vn 0.2797 0.6812 -0.6765
vn 0.0186 0.7653 -0.6434
vn 0.0098 0.9781 -0.2077
vn 0.0423 0.0857 -0.9954
vn 0.0690 0.5310 -0.8446
vn 0.0092 -0.9778 -0.2094
vn 0.0146 -0.9993 -0.0352
vn -0.0142 -0.9993 -0.0351
vn -0.0092 0.9778 -0.2094
vn -0.0146 0.9993 -0.0352
vn 0.0142 0.9993 -0.0351
vn -0.9778 -0.0051 -0.2093
vn -0.9993 -0.0107 -0.0352
vn -0.9993 0.0102 -0.0351
vn 0.9778 0.0051 -0.2093
vn 0.9993 0.0107 -0.0352
vn 0.9993 -0.0102 -0.0351
vn -0.3824 -0.9233 -0.0355
vn -0.7003 -0.6820 -0.2108
vn -0.7068 -0.7066 -0.0350
vn -0.9031 -0.3741 -0.2107
vn -0.9233 -0.3824 -0.0355
vn -0.6780 -0.7042 -0.2107
vn -0.7066 -0.7068 -0.0350
vn 0.9233 -0.3824 -0.0355
vn 0.6820 -0.7003 -0.2108
vn 0.7066 -0.7068 -0.0351
vn 0.3741 -0.9031 -0.2107
vn 0.3825 -0.9233 -0.0355
vn 0.7042 -0.6780 -0.2107
vn 0.7068 -0.7066 -0.0351
vn -0.9233 0.3824 -0.0356
vn -0.6820 0.7003 -0.2108
vn -0.7066 0.7068 -0.0351
vn -0.3741 0.9031 -0.2108
vn -0.3824 0.9233 -0.0355
vn -0.7042 0.6780 -0.2107
vn -0.7068 0.7066 -0.0351
vn 0.3824 0.9233 -0.0356
vn 0.7003 0.6820 -0.2108
vn 0.7068 0.7066 -0.0351
vn 0.9032 0.3741 -0.2106
vn 0.9233 0.3824 -0.0356
vn 0.6780 0.7042 -0.2107
vn 0.7066 0.7068 -0.0351
vn 0.0320 -0.1924 0.9808
vn -0.0275 -0.1870 0.9820
vn -0.0320 0.1924 0.9808
vn 0.0275 0.1870 0.9820
vn -0.2083 -0.0344 0.9775
vn -0.2018 0.0316 0.9789
vn 0.2083 0.0344 0.9775
vn 0.2018 -0.0316 0.9789
vn 0.0329 0.1268 0.9914
vn 0.0202 0.1679 0.9856
vn 0.1314 0.0022 0.9913
vn 0.1616 0.0176 0.9867
vn -0.1268 0.0329 0.9914
vn -0.1679 0.0202 0.9856
vn -0.0021 0.1314 0.9913
vn -0.0176 0.1616 0.9867
vn 0.1268 -0.0329 0.9914
vn 0.1679 -0.0202 0.9856
vn 0.0021 -0.1314 0.9913
vn 0.0176 -0.1616 0.9867
vn -0.0329 -0.1268 0.9914
vn -0.0202 -0.1679 0.9856
vn -0.1314 -0.0022 0.9913
vn -0.1616 -0.0176 0.9867
vn -0.7355 0.0194 -0.6772
vn -0.6819 -0.2694 -0.6800
vn -0.5684 0.0090 -0.8227
vn -0.0824 -0.0692 -0.9942
vn -0.4673 -0.5719 -0.6743
vn 0.0072 -0.1159 -0.9932
vn -0.5722 -0.4669 -0.6742
vn -0.1161 0.0015 -0.9932
vn -0.0190 -0.7238 -0.6897
vn -0.0323 -0.5476 -0.8361
vn 0.2694 -0.6819 -0.6800
vn 0.0692 -0.0824 -0.9942
vn 0.5719 -0.4673 -0.6743
vn 0.1159 0.0072 -0.9932
vn 0.4669 -0.5722 -0.6742
vn -0.0015 -0.1161 -0.9932
vn 0.0152 0.7352 -0.6777
vn -0.2694 0.6819 -0.6800
vn 0.0073 0.5501 -0.8351
vn -0.0692 0.0824 -0.9942
vn -0.5719 0.4673 -0.6743
vn -0.1159 -0.0072 -0.9932
vn -0.4670 0.5722 -0.6742
vn 0.0015 0.1161 -0.9932
vn 0.7248 -0.0229 -0.6886
vn 0.5661 -0.0336 -0.8237
vn 0.6819 0.2694 -0.6800
vn 0.0824 0.0692 -0.9942
vn 0.4673 0.5719 -0.6743
vn -0.0072 0.1159 -0.9932
vn 0.5722 0.4670 -0.6742
vn 0.1161 -0.0015 -0.9932
vn -0.9778 -0.0056 0.2093
vn -0.7276 0.0223 0.6856
vn -0.7248 -0.0229 0.6886
vn -0.9775 0.0050 0.2111
vn -0.6793 -0.2843 0.6766
vn -0.9028 -0.3748 0.2108
vn -0.4669 -0.5722 0.6742
vn -0.6820 -0.7003 0.2108
vn -0.5719 -0.4673 0.6743
vn -0.2790 -0.6814 0.6766
vn -0.7042 -0.6780 0.2107
vn -0.3734 -0.9034 0.2109
vn 0.0197 -0.7174 0.6963
vn -0.0234 -0.9656 0.2588
vn -0.0177 -0.7291 0.6841
vn 0.0099 -0.9785 0.2059
vn 0.2843 -0.6793 0.6766
vn 0.3748 -0.9028 0.2109
vn 0.5722 -0.4669 0.6742
vn 0.7003 -0.6820 0.2108
vn 0.4673 -0.5719 0.6743
vn 0.6814 -0.2790 0.6766
vn 0.6780 -0.7042 0.2107
vn 0.9034 -0.3734 0.2109
vn 0.7169 0.0239 0.6967
vn 0.9651 -0.0200 0.2611
vn -0.0097 0.9778 0.2094
vn 0.0181 0.7277 0.6857
vn -0.0190 0.7238 0.6897
vn 0.0091 0.9774 0.2111
vn -0.2843 0.6792 0.6766
vn -0.3748 0.9028 0.2109
vn -0.5722 0.4670 0.6742
vn -0.7003 0.6820 0.2108
vn -0.4673 0.5719 0.6743
vn -0.6814 0.2790 0.6766
vn -0.6780 0.7042 0.2107
vn -0.9034 0.3734 0.2109
vn 0.7287 -0.0220 0.6844
vn 0.9783 0.0057 0.2072
vn 0.6793 0.2843 0.6766
vn 0.9028 0.3748 0.2109
vn 0.4670 0.5722 0.6742
vn 0.6820 0.7003 0.2108
vn 0.5719 0.4673 0.6743
vn 0.2790 0.6814 0.6766
vn 0.7042 0.6780 0.2107
vn 0.3734 0.9034 0.2109
vn 0.0429 -0.2372 -0.9705
vn -0.0590 -0.2415 -0.9686
vn -0.0429 0.2372 -0.9705
vn 0.0590 0.2415 -0.9686
vn -0.2359 -0.0467 -0.9707
vn -0.2401 0.0627 -0.9687
vn 0.2359 0.0467 -0.9707
vn 0.2401 -0.0627 -0.9687
vn -0.0827 -0.2168 -0.9727
vn -0.1977 -0.0266 -0.9799
vn -0.2254 -0.0773 -0.9712
vn -0.0230 -0.2040 -0.9787
vn 0.2168 -0.0827 -0.9727
vn 0.0266 -0.1977 -0.9799
vn 0.0773 -0.2254 -0.9712
vn 0.2040 -0.0230 -0.9787
vn -0.2168 0.0827 -0.9727
vn -0.0266 0.1977 -0.9799
vn -0.0773 0.2254 -0.9712
vn -0.2040 0.0230 -0.9787
vn 0.0827 0.2168 -0.9727
vn 0.1977 0.0266 -0.9799
vn 0.2254 0.0773 -0.9712
vn 0.0230 0.2040 -0.9787
vn -0.3310 0.0492 -0.9424
vn -0.3239 -0.0531 -0.9446
vn -0.8582 -0.0083 -0.5133
vn -0.5567 0.0271 -0.8303
vn -0.5723 -0.0250 -0.8197
vn -0.8454 0.0012 -0.5341
vn -0.2726 -0.0927 -0.9577
vn -0.4731 -0.1952 -0.8591
vn -0.7578 -0.3085 -0.5749
vn -0.1087 -0.3029 -0.9468
vn -0.2939 -0.4189 -0.8592
vn -0.5460 -0.5814 -0.6033
vn -0.3031 -0.1079 -0.9468
vn -0.1321 -0.2643 -0.9553
vn -0.4181 -0.2945 -0.8593
vn -0.2050 -0.4776 -0.8543
vn -0.5779 -0.5486 -0.6041
vn -0.3193 -0.7284 -0.6062
vn 0.0180 -0.3566 -0.9341
vn -0.0211 -0.6157 -0.7877
vn -0.0608 -0.8755 -0.4793
vn -0.0523 -0.3177 -0.9467
vn -0.0226 -0.5475 -0.8365
vn 0.0055 -0.8365 -0.5480
vn 0.0927 -0.2726 -0.9577
vn 0.1951 -0.4732 -0.8591
vn 0.3085 -0.7578 -0.5750
vn 0.3029 -0.1087 -0.9468
vn 0.4189 -0.2939 -0.8592
vn 0.5814 -0.5460 -0.6033
vn 0.1079 -0.3031 -0.9468
vn 0.2643 -0.1321 -0.9553
vn 0.2945 -0.4181 -0.8593
vn 0.4776 -0.2050 -0.8543
vn 0.5486 -0.5779 -0.6041
vn 0.7284 -0.3193 -0.6062
vn 0.3589 0.0219 -0.9331
vn 0.6188 -0.0189 -0.7853
vn 0.8779 -0.0588 -0.4753
vn -0.2752 0.1160 -0.9544
vn -0.1079 0.3031 -0.9468
vn -0.7397 0.3279 -0.5876
vn -0.4798 0.2021 -0.8538
vn -0.2945 0.4181 -0.8593
vn -0.5486 0.5779 -0.6041
vn -0.3029 0.1087 -0.9468
vn -0.1201 0.2667 -0.9563
vn -0.5814 0.5460 -0.6033
vn -0.4189 0.2939 -0.8592
vn -0.1955 0.4735 -0.8588
vn -0.3284 0.7386 -0.5888
vn 0.0409 0.3351 -0.9413
vn -0.0030 0.5020 -0.8649
vn -0.0139 0.8592 -0.5114
vn -0.0485 0.3238 -0.9449
vn -0.0193 0.5759 -0.8173
vn 0.0070 0.8453 -0.5343
vn 0.1160 0.2752 -0.9544
vn 0.3031 0.1079 -0.9468
vn 0.3279 0.7397 -0.5876
vn 0.2021 0.4798 -0.8538
vn 0.4181 0.2945 -0.8593
vn 0.5779 0.5486 -0.6041
vn 0.1087 0.3029 -0.9468
vn 0.2667 0.1201 -0.9563
vn 0.5460 0.5814 -0.6033
vn 0.2939 0.4189 -0.8592
vn 0.4735 0.1955 -0.8588
vn 0.7386 0.3284 -0.5888
vn 0.3361 -0.0453 -0.9407
vn 0.4990 0.0000 -0.8666
vn 0.8600 0.0101 -0.5103
vn -0.8374 0.0106 -0.5464
vn -0.7520 -0.3383 -0.5657
vn -0.5343 -0.6160 -0.5789
vn -0.6131 -0.5380 -0.5786
vn -0.3381 -0.7545 -0.5625
vn -0.0027 -0.8586 -0.5126
vn -0.0052 -0.8381 -0.5455
vn 0.3383 -0.7520 -0.5657
vn 0.6160 -0.5343 -0.5789
vn 0.5380 -0.6131 -0.5786
vn 0.7545 -0.3381 -0.5625
vn 0.8592 0.0028 -0.5116
vn -0.7704 0.3231 -0.5497
vn -0.8592 -0.0028 -0.5116
vn -0.5380 0.6131 -0.5786
vn -0.3344 0.7399 -0.5837
vn -0.6160 0.5343 -0.5789
vn -0.0425 0.8805 -0.4721
vn 0.3231 0.7704 -0.5497
vn 0.0030 0.8586 -0.5127
vn 0.6131 0.5380 -0.5786
vn 0.7399 0.3344 -0.5837
vn 0.5343 0.6159 -0.5789
vn 0.8825 0.0396 -0.4686
vn 0.0256 -0.5843 -0.8111
vn -0.1934 -0.4949 -0.8471
vn 0.0721 0.3598 -0.9302
vn 0.0346 -0.4763 -0.8786
vn -0.1708 -0.4470 -0.8781
vn 0.1234 0.3420 -0.9316
vn 0.0495 -0.2885 -0.9562
vn -0.0748 -0.2014 -0.9766
vn -0.0317 -0.5409 -0.8405
vn -0.0491 -0.2825 -0.9580
vn -0.0199 0.3810 -0.9244
vn -0.0398 -0.4896 -0.8710
vn -0.5812 0.0297 -0.8132
vn -0.5615 -0.0370 -0.8266
vn 0.3472 0.0725 -0.9350
vn -0.4902 0.0442 -0.8705
vn -0.4769 -0.0389 -0.8781
vn 0.3432 -0.0229 -0.9390
vn -0.2831 0.0533 -0.9576
vn -0.2890 -0.0537 -0.9558
vn -0.4949 0.1934 -0.8471
vn -0.4470 0.1708 -0.8781
vn 0.3313 -0.1195 -0.9359
vn -0.2014 0.0748 -0.9766
vn 0.0254 0.5799 -0.8143
vn -0.0324 0.5616 -0.8268
vn 0.0773 -0.3738 -0.9243
vn 0.0398 0.4896 -0.8710
vn -0.0346 0.4763 -0.8786
vn -0.0238 -0.3660 -0.9303
vn 0.0491 0.2825 -0.9580
vn -0.0495 0.2885 -0.9562
vn 0.1934 0.4949 -0.8471
vn 0.1708 0.4470 -0.8781
vn -0.1234 -0.3420 -0.9316
vn 0.0748 0.2014 -0.9766
vn 0.5855 0.0300 -0.8101
vn 0.4949 -0.1934 -0.8471
vn -0.3373 0.0684 -0.9389
vn 0.4769 0.0389 -0.8781
vn 0.4470 -0.1708 -0.8781
vn -0.3268 0.1179 -0.9377
vn 0.2890 0.0537 -0.9558
vn 0.2014 -0.0748 -0.9766
vn 0.5452 -0.0371 -0.8375
vn 0.2831 -0.0533 -0.9576
vn -0.3539 -0.0216 -0.9350
vn 0.4902 -0.0442 -0.8705
vn -0.4892 -0.1865 -0.8520
vn -0.1929 -0.0709 -0.9786
vn 0.3444 0.0482 -0.9376
vn -0.4529 -0.1766 -0.8739
vn -0.2896 -0.4347 -0.8527
vn -0.0424 -0.2372 -0.9705
vn 0.2803 0.1910 -0.9407
vn -0.3505 -0.3522 -0.8678
vn -0.4353 -0.2887 -0.8527
vn -0.2366 -0.0415 -0.9707
vn 0.1865 -0.4892 -0.8520
vn 0.0709 -0.1929 -0.9786
vn -0.0507 0.3608 -0.9313
vn 0.1766 -0.4529 -0.8739
vn 0.4347 -0.2896 -0.8527
vn 0.2372 -0.0424 -0.9705
vn -0.1934 0.2837 -0.9392
vn 0.3522 -0.3505 -0.8678
vn 0.2887 -0.4353 -0.8527
vn 0.0415 -0.2366 -0.9707
vn -0.2887 0.4353 -0.8527
vn -0.3522 0.3505 -0.8678
vn 0.2429 -0.2388 -0.9402
vn -0.0415 0.2366 -0.9707
vn -0.4347 0.2896 -0.8527
vn -0.1932 0.4900 -0.8500
vn -0.1766 0.4529 -0.8739
vn 0.1321 -0.3392 -0.9314
vn -0.2372 0.0424 -0.9705
vn -0.0709 0.1929 -0.9786
vn 0.4353 0.2887 -0.8527
vn 0.3505 0.3522 -0.8678
vn -0.2390 -0.2431 -0.9401
vn 0.2366 0.0415 -0.9707
vn 0.2896 0.4347 -0.8527
vn 0.4901 0.1933 -0.8500
vn 0.4529 0.1766 -0.8739
vn -0.3208 -0.1250 -0.9389
vn 0.0424 0.2372 -0.9705
vn 0.1929 0.0709 -0.9786
vn -0.0146 -0.9993 0.0351
vn 0.0142 -0.9993 0.0352
vn -0.3824 -0.9233 0.0355
vn -0.7068 -0.7066 0.0351
vn -0.9233 -0.3824 0.0355
vn -0.7066 -0.7068 0.0350
vn -0.9993 -0.0102 0.0351
vn -0.9993 0.0107 0.0352
vn -0.9233 0.3824 0.0356
vn -0.7066 0.7068 0.0351
vn -0.3824 0.9233 0.0355
vn -0.7068 0.7066 0.0351
vn -0.0142 0.9993 0.0352
vn 0.0146 0.9993 0.0352
vn 0.3824 0.9233 0.0355
vn 0.7068 0.7066 0.0351
vn 0.9233 0.3824 0.0355
vn 0.7066 0.7068 0.0351
vn 0.9993 0.0102 0.0351
vn 0.9993 -0.0107 0.0352
vn 0.9233 -0.3824 0.0355
vn 0.7066 -0.7068 0.0351
vn 0.3825 -0.9233 0.0354
vn 0.7068 -0.7066 0.0350
usemtl Tray_MAT
s off
f 66/1/1 40/2/1 39/3/1
f 40/2/1 66/1/1 68/4/1
f 68/4/1 66/1/1 64/5/1
f 68/4/1 64/5/1 70/6/1
f 70/6/1 64/5/1 62/7/1
f 70/6/1 62/7/1 72/8/1
f 72/8/1 62/7/1 44/9/1
f 72/8/1 44/9/1 47/10/1
f 47/10/1 44/9/1 43/11/1
f 47/10/1 43/11/1 48/12/1
f 48/12/1 43/11/1 54/13/1
f 48/12/1 54/13/1 56/14/1
f 56/14/1 54/13/1 52/15/1
f 56/14/1 52/15/1 58/16/1
f 58/16/1 52/15/1 50/17/1
f 58/16/1 50/17/1 60/18/1
f 60/18/1 50/17/1 36/19/1
f 60/18/1 36/19/1 35/20/1
s 1
f 1/21/2 2/22/3 3/23/4
f 1/21/2 3/23/4 4/24/5
f 2/22/3 5/25/6 6/26/7
f 2/22/3 6/26/7 3/23/4
f 5/25/6 7/27/8 8/28/9
f 5/25/6 8/28/9 6/26/7
f 9/29/10 10/30/11 11/31/12
f 9/29/10 11/31/12 12/32/13
f 10/30/11 13/33/14 14/34/15
f 10/30/11 14/34/15 11/31/12
f 13/33/14 15/35/16 16/36/17
f 13/33/14 16/36/17 14/34/15
f 17/37/18 18/38/19 19/39/20
f 17/37/18 19/39/20 20/40/21
f 18/38/19 21/41/22 22/42/23
f 18/38/19 22/42/23 19/39/20
f 21/41/22 23/43/24 24/44/25
f 21/41/22 24/44/25 22/42/23
f 25/45/26 26/46/27 27/47/28
f 25/45/26 27/47/28 28/48/29
f 26/46/27 29/49/30 30/50/31
f 26/46/27 30/50/31 27/47/28
f 29/49/30 31/51/32 32/52/33
f 29/49/30 32/52/33 30/50/31
f 33/53/34 34/54/35 35/20/1
f 33/53/34 35/20/1 36/19/1
f 37/55/36 38/56/37 39/3/1
f 37/55/36 39/3/1 40/2/1
f 41/57/38 42/58/39 43/11/1
f 41/57/38 43/11/1 44/9/1
f 45/59/40 46/60/41 47/10/1
f 45/59/40 47/10/1 48/12/1
f 49/61/42 33/53/34 36/19/1
f 49/61/42 36/19/1 50/17/1
f 51/62/43 49/61/42 50/17/1
f 51/62/43 50/17/1 52/15/1
f 42/58/39 53/63/44 54/13/1
f 42/58/39 54/13/1 43/11/1
f 53/63/44 51/62/43 52/15/1
f 53/63/44 52/15/1 54/13/1
f 55/64/45 45/59/40 48/12/1
f 55/64/45 48/12/1 56/14/1
f 57/65/46 55/64/45 56/14/1
f 57/65/46 56/14/1 58/16/1
f 34/54/35 59/66/47 60/18/1
f 34/54/35 60/18/1 35/20/1
f 59/66/47 57/65/46 58/16/1
f 59/66/47 58/16/1 60/18/1
f 61/67/48 41/57/38 44/9/1
f 61/67/48 44/9/1 62/7/1
f 63/68/49 61/67/48 62/7/1
f 63/68/49 62/7/1 64/5/1
f 38/56/37 65/69/50 66/1/1
f 38/56/37 66/1/1 39/3/1
f 65/69/50 63/68/49 64/5/1
f 65/69/50 64/5/1 66/1/1
f 67/70/51 37/55/36 40/2/1
f 67/70/51 40/2/1 68/4/1
f 69/71/52 67/70/51 68/4/1
f 69/71/52 68/4/1 70/6/1
f 46/60/41 71/72/53 72/8/1
f 46/60/41 72/8/1 47/10/1
f 71/72/53 69/71/52 70/6/1
f 71/72/53 70/6/1 72/8/1
f 73/73/54 74/74/55 75/75/56
f 73/73/54 75/75/56 76/76/57
f 74/74/55 77/77/58 78/78/59
f 74/74/55 78/78/59 75/75/56
f 77/77/58 79/79/60 80/80/61
f 77/77/58 80/80/61 78/78/59
f 76/76/57 75/75/56 81/81/62
f 76/76/57 81/81/62 82/82/63
f 75/75/56 78/78/59 83/83/64
f 75/75/56 83/83/64 81/81/62
f 78/78/59 80/80/61 84/84/65
f 78/78/59 84/84/65 83/83/64
f 85/85/66 86/86/67 2/22/3
f 85/85/66 2/22/3 1/21/2
f 86/86/67 87/87/68 5/25/6
f 86/86/67 5/25/6 2/22/3
f 87/87/68 88/88/69 7/27/8
f 87/87/68 7/27/8 5/25/6
f 4/24/5 3/23/4 89/89/70
f 4/24/5 89/89/70 90/90/71
f 3/23/4 6/26/7 91/91/72
f 3/23/4 91/91/72 89/89/70
f 6/26/7 8/28/9 92/92/73
f 6/26/7 92/92/73 91/91/72
f 90/90/71 89/89/70 93/93/74
f 90/90/71 93/93/74 94/94/75
f 89/89/70 91/91/72 95/95/76
f 89/89/70 95/95/76 93/93/74
f 91/91/72 92/92/73 96/96/77
f 91/91/72 96/96/77 95/95/76
f 94/94/75 93/93/74 97/97/78
f 94/94/75 97/97/78 98/98/79
f 93/93/74 95/95/76 99/99/80
f 93/93/74 99/99/80 97/97/78
f 95/95/76 96/96/77 100/100/81
f 95/95/76 100/100/81 99/99/80
f 101/101/82 102/102/83 10/30/11
f 101/101/82 10/30/11 9/29/10
f 102/102/83 103/103/84 13/33/14
f 102/102/83 13/33/14 10/30/11
f 103/103/84 104/104/85 15/35/16
f 103/103/84 15/35/16 13/33/14
f 105/105/86 106/106/87 107/107/88
f 105/105/86 107/107/88 108/108/89
f 106/106/87 109/109/90 110/110/91
f 106/106/87 110/110/91 107/107/88
f 109/109/90 111/111/92 112/112/93
f 109/109/90 112/112/93 110/110/91
f 108/108/89 107/107/88 113/113/94
f 108/108/89 113/113/94 114/114/95
f 107/107/88 110/110/91 115/115/96
f 107/107/88 115/115/96 113/113/94
f 110/110/91 112/112/93 116/116/97
f 110/110/91 116/116/97 115/115/96
f 117/117/98 118/118/99 18/38/19
f 117/117/98 18/38/19 17/37/18
f 118/118/99 119/119/100 21/41/22
f 118/118/99 21/41/22 18/38/19
f 119/119/100 120/120/101 23/43/24
f 119/119/100 23/43/24 21/41/22
f 79/79/60 77/77/58 22/42/23
f 79/79/60 22/42/23 24/44/25
f 77/77/58 74/74/55 19/39/20
f 77/77/58 19/39/20 22/42/23
f 74/74/55 73/73/54 20/40/21
f 74/74/55 20/40/21 19/39/20
f 12/32/13 11/31/12 121/121/102
f 12/32/13 121/121/102 122/122/103
f 11/31/12 14/34/15 123/123/104
f 11/31/12 123/123/104 121/121/102
f 14/34/15 16/36/17 124/124/105
f 14/34/15 124/124/105 123/123/104
f 122/122/103 121/121/102 125/125/106
f 122/122/103 125/125/106 126/126/107
f 121/121/102 123/123/104 127/127/108
f 121/121/102 127/127/108 125/125/106
f 123/123/104 124/124/105 128/128/109
f 123/123/104 128/128/109 127/127/108
f 126/126/107 125/125/106 129/129/110
f 126/126/107 129/129/110 130/130/111
f 125/125/106 127/127/108 131/131/112
f 125/125/106 131/131/112 129/129/110
f 127/127/108 128/128/109 132/132/113
f 127/127/108 132/132/113 131/131/112
f 133/133/114 134/134/115 26/46/27
f 133/133/114 26/46/27 25/45/26
f 134/134/115 135/135/116 29/49/30
f 134/134/115 29/49/30 26/46/27
f 135/135/116 136/136/117 31/51/32
f 135/135/116 31/51/32 29/49/30
f 111/111/92 109/109/90 30/50/31
f 111/111/92 30/50/31 32/52/33
f 109/109/90 106/106/87 27/47/28
f 109/109/90 27/47/28 30/50/31
f 106/106/87 105/105/86 28/48/29
f 106/106/87 28/48/29 27/47/28
f 137/137/118 138/138/119 92/92/73
f 137/137/118 92/92/73 8/28/9
f 139/139/120 140/140/121 111/111/92
f 139/139/120 111/111/92 32/52/33
f 141/141/122 142/142/123 79/79/60
f 141/141/122 79/79/60 24/44/25
f 143/143/124 144/144/125 124/124/105
f 143/143/124 124/124/105 16/36/17
f 145/145/126 137/137/118 8/28/9
f 145/145/126 8/28/9 7/27/8
f 146/146/127 145/145/126 7/27/8
f 146/146/127 7/27/8 88/88/69
f 142/142/123 147/147/128 80/80/61
f 142/142/123 80/80/61 79/79/60
f 147/147/128 148/148/129 84/84/65
f 147/147/128 84/84/65 80/80/61
f 149/149/130 143/143/124 16/36/17
f 149/149/130 16/36/17 15/35/16
f 150/150/131 149/149/130 15/35/16
f 150/150/131 15/35/16 104/104/85
f 138/138/119 151/151/132 96/96/77
f 138/138/119 96/96/77 92/92/73
f 151/151/132 152/152/133 100/100/81
f 151/151/132 100/100/81 96/96/77
f 153/153/134 141/141/122 24/44/25
f 153/153/134 24/44/25 23/43/24
f 154/154/135 153/153/134 23/43/24
f 154/154/135 23/43/24 120/120/101
f 140/140/121 155/155/136 112/112/93
f 140/140/121 112/112/93 111/111/92
f 155/155/136 156/156/137 116/116/97
f 155/155/136 116/116/97 112/112/93
f 157/157/138 139/139/120 32/52/33
f 157/157/138 32/52/33 31/51/32
f 158/158/139 157/157/138 31/51/32
f 158/158/139 31/51/32 136/136/117
f 144/144/125 159/159/140 128/128/109
f 144/144/125 128/128/109 124/124/105
f 159/159/140 160/160/141 132/132/113
f 159/159/140 132/132/113 128/128/109
f 161/161/142 162/162/143 163/163/144
f 161/161/142 163/163/144 164/164/145
f 162/162/143 142/142/123 141/141/122
f 162/162/143 141/141/122 163/163/144
f 142/142/123 162/162/143 165/165/146
f 142/142/123 165/165/146 147/147/128
f 162/162/143 161/161/142 166/166/147
f 162/162/143 166/166/147 165/165/146
f 147/147/128 165/165/146 167/167/148
f 147/147/128 167/167/148 148/148/129
f 165/165/146 166/166/147 168/168/149
f 165/165/146 168/168/149 167/167/148
f 146/146/127 169/169/150 170/170/151
f 146/146/127 170/170/151 145/145/126
f 169/169/150 171/171/152 172/172/153
f 169/169/150 172/172/153 170/170/151
f 145/145/126 170/170/151 173/173/154
f 145/145/126 173/173/154 137/137/118
f 170/170/151 172/172/153 174/174/155
f 170/170/151 174/174/155 173/173/154
f 137/137/118 173/173/154 175/175/156
f 137/137/118 175/175/156 138/138/119
f 173/173/154 174/174/155 176/176/157
f 173/173/154 176/176/157 175/175/156
f 138/138/119 175/175/156 177/177/158
f 138/138/119 177/177/158 151/151/132
f 175/175/156 176/176/157 178/178/159
f 175/175/156 178/178/159 177/177/158
f 151/151/132 177/177/158 179/179/160
f 151/151/132 179/179/160 152/152/133
f 177/177/158 178/178/159 180/180/161
f 177/177/158 180/180/161 179/179/160
f 150/150/131 181/181/162 182/182/163
f 150/150/131 182/182/163 149/149/130
f 181/181/162 183/183/164 184/184/165
f 181/181/162 184/184/165 182/182/163
f 149/149/130 182/182/163 185/185/166
f 149/149/130 185/185/166 143/143/124
f 182/182/163 184/184/165 186/186/167
f 182/182/163 186/186/167 185/185/166
f 187/187/168 188/188/169 189/189/170
f 187/187/168 189/189/170 190/190/171
f 188/188/169 140/140/121 139/139/120
f 188/188/169 139/139/120 189/189/170
f 140/140/121 188/188/169 191/191/172
f 140/140/121 191/191/172 155/155/136
f 188/188/169 187/187/168 192/192/173
f 188/188/169 192/192/173 191/191/172
f 155/155/136 191/191/172 193/193/174
f 155/155/136 193/193/174 156/156/137
f 191/191/172 192/192/173 194/194/175
f 191/191/172 194/194/175 193/193/174
f 154/154/135 195/195/176 196/196/177
f 154/154/135 196/196/177 153/153/134
f 195/195/176 197/197/178 198/198/179
f 195/195/176 198/198/179 196/196/177
f 153/153/134 196/196/177 163/163/144
f 153/153/134 163/163/144 141/141/122
f 196/196/177 198/198/179 164/164/145
f 196/196/177 164/164/145 163/163/144
f 143/143/124 185/185/166 199/199/180
f 143/143/124 199/199/180 144/144/125
f 185/185/166 186/186/167 200/200/181
f 185/185/166 200/200/181 199/199/180
f 144/144/125 199/199/180 201/201/182
f 144/144/125 201/201/182 159/159/140
f 199/199/180 200/200/181 202/202/183
f 199/199/180 202/202/183 201/201/182
f 159/159/140 201/201/182 203/203/184
f 159/159/140 203/203/184 160/160/141
f 201/201/182 202/202/183 204/204/185
f 201/201/182 204/204/185 203/203/184
f 158/158/139 205/205/186 206/206/187
f 158/158/139 206/206/187 157/157/138
f 205/205/186 207/207/188 208/208/189
f 205/205/186 208/208/189 206/206/187
f 157/157/138 206/206/187 189/189/170
f 157/157/138 189/189/170 139/139/120
f 206/206/187 208/208/189 190/190/171
f 206/206/187 190/190/171 189/189/170
f 209/209/190 210/210/191 211/211/192
f 209/209/190 211/211/192 212/212/193
f 210/210/191 213/213/194 214/214/195
f 210/210/191 214/214/195 211/211/192
f 215/215/196 216/216/197 217/217/198
f 215/215/196 217/217/198 218/218/199
f 216/216/197 219/219/200 220/220/201
f 216/216/197 220/220/201 217/217/198
f 221/221/202 222/222/203 223/223/204
f 221/221/202 223/223/204 224/224/205
f 222/222/203 225/225/206 226/226/207
f 222/222/203 226/226/207 223/223/204
f 227/227/208 228/228/209 229/229/210
f 227/227/208 229/229/210 230/230/211
f 228/228/209 231/231/212 232/232/213
f 228/228/209 232/232/213 229/229/210
f 212/212/193 233/233/214 234/234/215
f 212/212/193 234/234/215 235/235/216
f 230/230/211 236/236/217 237/237/218
f 230/230/211 237/237/218 238/238/219
f 224/224/205 239/239/220 240/240/221
f 224/224/205 240/240/221 241/241/222
f 218/218/199 242/242/223 243/243/224
f 218/218/199 243/243/224 244/244/225
f 209/209/190 212/212/193 235/235/216
f 209/209/190 235/235/216 245/245/226
f 246/246/227 209/209/190 245/245/226
f 246/246/227 245/245/226 247/247/228
f 239/239/220 248/248/229 249/249/230
f 239/239/220 249/249/230 240/240/221
f 248/248/229 250/250/231 251/251/232
f 248/248/229 251/251/232 249/249/230
f 215/215/196 218/218/199 244/244/225
f 215/215/196 244/244/225 252/252/233
f 253/253/234 215/215/196 252/252/233
f 253/253/234 252/252/233 254/254/235
f 233/233/214 255/255/236 256/256/237
f 233/233/214 256/256/237 234/234/215
f 255/255/236 257/257/238 258/258/239
f 255/255/236 258/258/239 256/256/237
f 221/221/202 224/224/205 241/241/222
f 221/221/202 241/241/222 259/259/240
f 260/260/241 221/221/202 259/259/240
f 260/260/241 259/259/240 261/261/242
f 236/236/217 262/262/243 263/263/244
f 236/236/217 263/263/244 237/237/218
f 262/262/243 264/264/245 265/265/246
f 262/262/243 265/265/246 263/263/244
f 227/227/208 230/230/211 238/238/219
f 227/227/208 238/238/219 266/266/247
f 267/267/248 227/227/208 266/266/247
f 267/267/248 266/266/247 268/268/249
f 242/242/223 269/269/250 270/270/251
f 242/242/223 270/270/251 243/243/224
f 269/269/250 271/271/252 272/272/253
f 269/269/250 272/272/253 270/270/251
f 273/273/254 274/274/255 176/176/157
f 273/273/254 176/176/157 174/174/155
f 275/275/256 276/276/257 187/187/168
f 275/275/256 187/187/168 190/190/171
f 277/277/258 278/278/259 161/161/142
f 277/277/258 161/161/142 164/164/145
f 279/279/260 280/280/261 200/200/181
f 279/279/260 200/200/181 186/186/167
f 281/281/262 273/273/254 174/174/155
f 281/281/262 174/174/155 172/172/153
f 282/282/263 281/281/262 172/172/153
f 282/282/263 172/172/153 171/171/152
f 278/278/259 283/283/264 166/166/147
f 278/278/259 166/166/147 161/161/142
f 283/283/264 284/284/265 168/168/149
f 283/283/264 168/168/149 166/166/147
f 285/285/266 279/279/260 186/186/167
f 285/285/266 186/186/167 184/184/165
f 286/286/267 285/285/266 184/184/165
f 286/286/267 184/184/165 183/183/164
f 274/274/255 287/287/268 178/178/159
f 274/274/255 178/178/159 176/176/157
f 287/287/268 288/288/269 180/180/161
f 287/287/268 180/180/161 178/178/159
f 289/289/270 277/277/258 164/164/145
f 289/289/270 164/164/145 198/198/179
f 290/290/271 289/289/270 198/198/179
f 290/290/271 198/198/179 197/197/178
f 276/276/257 291/291/272 192/192/173
f 276/276/257 192/192/173 187/187/168
f 291/291/272 292/292/273 194/194/175
f 291/291/272 194/194/175 192/192/173
f 293/293/274 275/275/256 190/190/171
f 293/293/274 190/190/171 208/208/189
f 294/294/275 293/293/274 208/208/189
f 294/294/275 208/208/189 207/207/188
f 280/280/261 295/295/276 202/202/183
f 280/280/261 202/202/183 200/200/181
f 295/295/276 296/296/277 204/204/185
f 295/295/276 204/204/185 202/202/183
f 239/239/220 297/297/278 298/298/279
f 239/239/220 298/298/279 248/248/229
f 297/297/278 299/299/280 300/300/281
f 297/297/278 300/300/281 298/298/279
f 248/248/229 298/298/279 301/301/282
f 248/248/229 301/301/282 250/250/231
f 298/298/279 300/300/281 302/302/283
f 298/298/279 302/302/283 301/301/282
f 246/246/227 303/303/284 210/210/191
f 246/246/227 210/210/191 209/209/190
f 303/303/284 304/304/285 213/213/194
f 303/303/284 213/213/194 210/210/191
f 212/212/193 211/211/192 305/305/286
f 212/212/193 305/305/286 233/233/214
f 211/211/192 214/214/195 306/306/287
f 211/211/192 306/306/287 305/305/286
f 233/233/214 305/305/286 307/307/288
f 233/233/214 307/307/288 255/255/236
f 305/305/286 306/306/287 308/308/289
f 305/305/286 308/308/289 307/307/288
f 255/255/236 307/307/288 309/309/290
f 255/255/236 309/309/290 257/257/238
f 307/307/288 308/308/289 310/310/291
f 307/307/288 310/310/291 309/309/290
f 253/253/234 311/311/292 216/216/197
f 253/253/234 216/216/197 215/215/196
f 311/311/292 312/312/293 219/219/200
f 311/311/292 219/219/200 216/216/197
f 236/236/217 313/313/294 314/314/295
f 236/236/217 314/314/295 262/262/243
f 313/313/294 315/315/296 316/316/297
f 313/313/294 316/316/297 314/314/295
f 262/262/243 314/314/295 317/317/298
f 262/262/243 317/317/298 264/264/245
f 314/314/295 316/316/297 318/318/299
f 314/314/295 318/318/299 317/317/298
f 260/260/241 319/319/300 222/222/203
f 260/260/241 222/222/203 221/221/202
f 319/319/300 320/320/301 225/225/206
f 319/319/300 225/225/206 222/222/203
f 299/299/280 297/297/278 223/223/204
f 299/299/280 223/223/204 226/226/207
f 297/297/278 239/239/220 224/224/205
f 297/297/278 224/224/205 223/223/204
f 218/218/199 217/217/198 321/321/302
f 218/218/199 321/321/302 242/242/223
f 217/217/198 220/220/201 322/322/303
f 217/217/198 322/322/303 321/321/302
f 242/242/223 321/321/302 323/323/304
f 242/242/223 323/323/304 269/269/250
f 321/321/302 322/322/303 324/324/305
f 321/321/302 324/324/305 323/323/304
f 269/269/250 323/323/304 325/325/306
f 269/269/250 325/325/306 271/271/252
f 323/323/304 324/324/305 326/326/307
f 323/323/304 326/326/307 325/325/306
f 267/267/248 327/327/308 228/228/209
f 267/267/248 228/228/209 227/227/208
f 327/327/308 328/328/309 231/231/212
f 327/327/308 231/231/212 228/228/209
f 315/315/296 313/313/294 229/229/210
f 315/315/296 229/229/210 232/232/213
f 313/313/294 236/236/217 230/230/211
f 313/313/294 230/230/211 229/229/210
f 329/329/310 330/330/311 331/331/312
f 329/329/310 331/331/312 332/332/313
f 330/330/311 278/278/259 277/277/258
f 330/330/311 277/277/258 331/331/312
f 278/278/259 330/330/311 333/333/314
f 278/278/259 333/333/314 283/283/264
f 330/330/311 329/329/310 334/334/315
f 330/330/311 334/334/315 333/333/314
f 283/283/264 333/333/314 335/335/316
f 283/283/264 335/335/316 284/284/265
f 333/333/314 334/334/315 336/336/317
f 333/333/314 336/336/317 335/335/316
f 282/282/263 337/337/318 338/338/319
f 282/282/263 338/338/319 281/281/262
f 337/337/318 339/339/320 340/340/321
f 337/337/318 340/340/321 338/338/319
f 281/281/262 338/338/319 341/341/322
f 281/281/262 341/341/322 273/273/254
f 338/338/319 340/340/321 342/342/323
f 338/338/319 342/342/323 341/341/322
f 273/273/254 341/341/322 343/343/324
f 273/273/254 343/343/324 274/274/255
f 341/341/322 342/342/323 344/344/325
f 341/341/322 344/344/325 343/343/324
f 274/274/255 343/343/324 345/345/326
f 274/274/255 345/345/326 287/287/268
f 343/343/324 344/344/325 346/346/327
f 343/343/324 346/346/327 345/345/326
f 287/287/268 345/345/326 347/347/328
f 287/287/268 347/347/328 288/288/269
f 345/345/326 346/346/327 348/348/329
f 345/345/326 348/348/329 347/347/328
f 286/286/267 349/349/330 350/350/331
f 286/286/267 350/350/331 285/285/266
f 349/349/330 351/351/332 352/352/333
f 349/349/330 352/352/333 350/350/331
f 285/285/266 350/350/331 353/353/334
f 285/285/266 353/353/334 279/279/260
f 350/350/331 352/352/333 354/354/335
f 350/350/331 354/354/335 353/353/334
f 355/355/336 356/356/337 357/357/338
f 355/355/336 357/357/338 358/358/339
f 356/356/337 276/276/257 275/275/256
f 356/356/337 275/275/256 357/357/338
f 276/276/257 356/356/337 359/359/340
f 276/276/257 359/359/340 291/291/272
f 356/356/337 355/355/336 360/360/341
f 356/356/337 360/360/341 359/359/340
f 291/291/272 359/359/340 361/361/342
f 291/291/272 361/361/342 292/292/273
f 359/359/340 360/360/341 362/362/343
f 359/359/340 362/362/343 361/361/342
f 290/290/271 363/363/344 364/364/345
f 290/290/271 364/364/345 289/289/270
f 363/363/344 365/365/346 366/366/347
f 363/363/344 366/366/347 364/364/345
f 289/289/270 364/364/345 331/331/312
f 289/289/270 331/331/312 277/277/258
f 364/364/345 366/366/347 332/332/313
f 364/364/345 332/332/313 331/331/312
f 279/279/260 353/353/334 367/367/348
f 279/279/260 367/367/348 280/280/261
f 353/353/334 354/354/335 368/368/349
f 353/353/334 368/368/349 367/367/348
f 280/280/261 367/367/348 369/369/350
f 280/280/261 369/369/350 295/295/276
f 367/367/348 368/368/349 370/370/351
f 367/367/348 370/370/351 369/369/350
f 295/295/276 369/369/350 371/371/352
f 295/295/276 371/371/352 296/296/277
f 369/369/350 370/370/351 372/372/353
f 369/369/350 372/372/353 371/371/352
f 294/294/275 373/373/354 374/374/355
f 294/294/275 374/374/355 293/293/274
f 373/373/354 375/375/356 376/376/357
f 373/373/354 376/376/357 374/374/355
f 293/293/274 374/374/355 357/357/338
f 293/293/274 357/357/338 275/275/256
f 374/374/355 376/376/357 358/358/339
f 374/374/355 358/358/339 357/357/338
f 377/377/358 378/378/359 306/306/287
f 377/377/358 306/306/287 214/214/195
f 379/379/360 380/380/361 315/315/296
f 379/379/360 315/315/296 232/232/213
f 381/381/362 382/382/363 299/299/280
f 381/381/362 299/299/280 226/226/207
f 383/383/364 384/384/365 322/322/303
f 383/383/364 322/322/303 220/220/201
f 385/385/366 377/377/358 214/214/195
f 385/385/366 214/214/195 213/213/194
f 386/386/367 385/385/366 213/213/194
f 386/386/367 213/213/194 304/304/285
f 382/382/363 387/387/368 300/300/281
f 382/382/363 300/300/281 299/299/280
f 387/387/368 388/388/369 302/302/283
f 387/387/368 302/302/283 300/300/281
f 389/389/370 383/383/364 220/220/201
f 389/389/370 220/220/201 219/219/200
f 390/390/371 389/389/370 219/219/200
f 390/390/371 219/219/200 312/312/293
f 378/378/359 391/391/372 308/308/289
f 378/378/359 308/308/289 306/306/287
f 391/391/372 392/392/373 310/310/291
f 391/391/372 310/310/291 308/308/289
f 393/393/374 381/381/362 226/226/207
f 393/393/374 226/226/207 225/225/206
f 394/394/375 393/393/374 225/225/206
f 394/394/375 225/225/206 320/320/301
f 380/380/361 395/395/376 316/316/297
f 380/380/361 316/316/297 315/315/296
f 395/395/376 396/396/377 318/318/299
f 395/395/376 318/318/299 316/316/297
f 397/397/378 379/379/360 232/232/213
f 397/397/378 232/232/213 231/231/212
f 398/398/379 397/397/378 231/231/212
f 398/398/379 231/231/212 328/328/309
f 384/384/365 399/399/380 324/324/305
f 384/384/365 324/324/305 322/322/303
f 399/399/380 400/400/381 326/326/307
f 399/399/380 326/326/307 324/324/305
f 401/401/382 382/382/363 381/381/362
f 401/401/382 381/381/362 402/402/383
f 403/403/384 404/404/385 405/405/386
f 403/403/384 405/405/386 406/406/387
f 404/404/385 401/401/382 402/402/383
f 404/404/385 402/402/383 405/405/386
f 382/382/363 401/401/382 407/407/388
f 382/382/363 407/407/388 387/387/368
f 401/401/382 404/404/385 408/408/389
f 401/401/382 408/408/389 407/407/388
f 404/404/385 403/403/384 409/409/390
f 404/404/385 409/409/390 408/408/389
f 387/387/368 407/407/388 410/410/391
f 387/387/368 410/410/391 388/388/369
f 407/407/388 408/408/389 411/411/392
f 407/407/388 411/411/392 410/410/391
f 408/408/389 409/409/390 412/412/393
f 408/408/389 412/412/393 411/411/392
f 386/386/367 413/413/394 414/414/395
f 386/386/367 414/414/395 385/385/366
f 413/413/394 415/415/396 416/416/397
f 413/413/394 416/416/397 414/414/395
f 415/415/396 417/417/398 418/418/399
f 415/415/396 418/418/399 416/416/397
f 385/385/366 414/414/395 419/419/400
f 385/385/366 419/419/400 377/377/358
f 414/414/395 416/416/397 420/420/401
f 414/414/395 420/420/401 419/419/400
f 416/416/397 418/418/399 421/421/402
f 416/416/397 421/421/402 420/420/401
f 377/377/358 419/419/400 422/422/403
f 377/377/358 422/422/403 378/378/359
f 419/419/400 420/420/401 423/423/404
f 419/419/400 423/423/404 422/422/403
f 420/420/401 421/421/402 424/424/405
f 420/420/401 424/424/405 423/423/404
f 378/378/359 422/422/403 425/425/406
f 378/378/359 425/425/406 391/391/372
f 422/422/403 423/423/404 426/426/407
f 422/422/403 426/426/407 425/425/406
f 423/423/404 424/424/405 427/427/408
f 423/423/404 427/427/408 426/426/407
f 391/391/372 425/425/406 428/428/409
f 391/391/372 428/428/409 392/392/373
f 425/425/406 426/426/407 429/429/410
f 425/425/406 429/429/410 428/428/409
f 426/426/407 427/427/408 430/430/411
f 426/426/407 430/430/411 429/429/410
f 390/390/371 431/431/412 432/432/413
f 390/390/371 432/432/413 389/389/370
f 431/431/412 433/433/414 434/434/415
f 431/431/412 434/434/415 432/432/413
f 433/433/414 435/435/416 436/436/417
f 433/433/414 436/436/417 434/434/415
f 389/389/370 432/432/413 437/437/418
f 389/389/370 437/437/418 383/383/364
f 432/432/413 434/434/415 438/438/419
f 432/432/413 438/438/419 437/437/418
f 434/434/415 436/436/417 439/439/420
f 434/434/415 439/439/420 438/438/419
f 440/440/421 393/393/374 394/394/375
f 440/440/421 394/394/375 441/441/422
f 442/442/423 443/443/424 444/444/425
f 442/442/423 444/444/425 445/445/426
f 443/443/424 440/440/421 441/441/422
f 443/443/424 441/441/422 444/444/425
f 393/393/374 440/440/421 402/402/383
f 393/393/374 402/402/383 381/381/362
f 440/440/421 443/443/424 405/405/386
f 440/440/421 405/405/386 402/402/383
f 443/443/424 442/442/423 406/406/387
f 443/443/424 406/406/387 405/405/386
f 446/446/427 396/396/377 395/395/376
f 446/446/427 395/395/376 447/447/428
f 448/448/429 449/449/430 450/450/431
f 448/448/429 450/450/431 451/451/432
f 449/449/430 446/446/427 447/447/428
f 449/449/430 447/447/428 450/450/431
f 447/447/428 395/395/376 380/380/361
f 447/447/428 380/380/361 452/452/433
f 451/451/432 450/450/431 453/453/434
f 451/451/432 453/453/434 454/454/435
f 450/450/431 447/447/428 452/452/433
f 450/450/431 452/452/433 453/453/434
f 452/452/433 380/380/361 379/379/360
f 452/452/433 379/379/360 455/455/436
f 454/454/435 453/453/434 456/456/437
f 454/454/435 456/456/437 457/457/438
f 453/453/434 452/452/433 455/455/436
f 453/453/434 455/455/436 456/456/437
f 458/458/439 397/397/378 398/398/379
f 458/458/439 398/398/379 459/459/440
f 460/460/441 461/461/442 462/462/443
f 460/460/441 462/462/443 463/463/444
f 461/461/442 458/458/439 459/459/440
f 461/461/442 459/459/440 462/462/443
f 397/397/378 458/458/439 455/455/436
f 397/397/378 455/455/436 379/379/360
f 458/458/439 461/461/442 456/456/437
f 458/458/439 456/456/437 455/455/436
f 461/461/442 460/460/441 457/457/438
f 461/461/442 457/457/438 456/456/437
f 464/464/445 400/400/381 399/399/380
f 464/464/445 399/399/380 465/465/446
f 466/466/447 467/467/448 468/468/449
f 466/466/447 468/468/449 469/469/450
f 467/467/448 464/464/445 465/465/446
f 467/467/448 465/465/446 468/468/449
f 465/465/446 399/399/380 384/384/365
f 465/465/446 384/384/365 470/470/451
f 469/469/450 468/468/449 471/471/452
f 469/469/450 471/471/452 472/472/453
f 468/468/449 465/465/446 470/470/451
f 468/468/449 470/470/451 471/471/452
f 383/383/364 437/437/418 470/470/451
f 383/383/364 470/470/451 384/384/365
f 437/437/418 438/438/419 471/471/452
f 437/437/418 471/471/452 470/470/451
f 438/438/419 439/439/420 472/472/453
f 438/438/419 472/472/453 471/471/452
f 473/473/454 474/474/455 409/409/390
f 473/473/454 409/409/390 403/403/384
f 474/474/455 475/475/456 412/412/393
f 474/474/455 412/412/393 409/409/390
f 476/476/457 477/477/458 418/418/399
f 476/476/457 418/418/399 417/417/398
f 477/477/458 478/478/459 421/421/402
f 477/477/458 421/421/402 418/418/399
f 479/479/460 480/480/461 427/427/408
f 479/479/460 427/427/408 424/424/405
f 480/480/461 481/481/462 430/430/411
f 480/480/461 430/430/411 427/427/408
f 482/482/463 483/483/464 436/436/417
f 482/482/463 436/436/417 435/435/416
f 483/483/464 484/484/465 439/439/420
f 483/483/464 439/439/420 436/436/417
f 406/406/387 442/442/423 485/485/466
f 406/406/387 485/485/466 486/486/467
f 442/442/423 445/445/426 487/487/468
f 442/442/423 487/487/468 485/485/466
f 448/448/429 451/451/432 488/488/469
f 448/448/429 488/488/469 489/489/470
f 451/451/432 454/454/435 490/490/471
f 451/451/432 490/490/471 488/488/469
f 457/457/438 460/460/441 491/491/472
f 457/457/438 491/491/472 492/492/473
f 460/460/441 463/463/444 493/493/474
f 460/460/441 493/493/474 491/491/472
f 466/466/447 469/469/450 494/494/475
f 466/466/447 494/494/475 495/495/476
f 469/469/450 472/472/453 496/496/477
f 469/469/450 496/496/477 494/494/475
f 421/421/402 478/478/459 479/479/460
f 421/421/402 479/479/460 424/424/405
f 454/454/435 457/457/438 492/492/473
f 454/454/435 492/492/473 490/490/471
f 439/439/420 484/484/465 496/496/477
f 439/439/420 496/496/477 472/472/453
f 406/406/387 486/486/467 473/473/454
f 406/406/387 473/473/454 403/403/384
f 497/497/478 478/478/459 477/477/458
f 497/497/478 477/477/458 498/498/479
f 499/499/480 500/500/481 501/501/482
f 499/499/480 501/501/482 502/502/483
f 503/503/484 497/497/478 498/498/479
f 503/503/484 498/498/479 504/504/485
f 478/478/459 497/497/478 505/505/486
f 478/478/459 505/505/486 479/479/460
f 497/497/478 503/503/484 506/506/487
f 497/497/478 506/506/487 505/505/486
f 500/500/481 499/499/480 507/507/488
f 500/500/481 507/507/488 508/508/489
f 509/509/490 473/473/454 486/486/467
f 509/509/490 486/486/467 510/510/491
f 511/511/492 512/512/493 513/513/494
f 511/511/492 513/513/494 514/514/495
f 515/515/496 509/509/490 510/510/491
f 515/515/496 510/510/491 516/516/497
f 510/510/491 486/486/467 485/485/466
f 510/510/491 485/485/466 517/517/498
f 514/514/495 513/513/494 518/518/499
f 514/514/495 518/518/499 519/519/500
f 516/516/497 510/510/491 517/517/498
f 516/516/497 517/517/498 520/520/501
f 521/521/502 490/490/471 492/492/473
f 521/521/502 492/492/473 522/522/503
f 523/523/504 524/524/505 525/525/506
f 523/523/504 525/525/506 526/526/507
f 527/527/508 521/521/502 522/522/503
f 527/527/508 522/522/503 528/528/509
f 522/522/503 492/492/473 491/491/472
f 522/522/503 491/491/472 529/529/510
f 526/526/507 525/525/506 530/530/511
f 526/526/507 530/530/511 531/531/512
f 528/528/509 522/522/503 529/529/510
f 528/528/509 529/529/510 532/532/513
f 533/533/514 484/484/465 483/483/464
f 533/533/514 483/483/464 534/534/515
f 535/535/516 536/536/517 537/537/518
f 535/535/516 537/537/518 538/538/519
f 539/539/520 533/533/514 534/534/515
f 539/539/520 534/534/515 540/540/521
f 484/484/465 533/533/514 541/541/522
f 484/484/465 541/541/522 496/496/477
f 533/533/514 539/539/520 542/542/523
f 533/533/514 542/542/523 541/541/522
f 536/536/517 535/535/516 543/543/524
f 536/536/517 543/543/524 544/544/525
f 473/473/454 509/509/490 545/545/526
f 473/473/454 545/545/526 474/474/455
f 509/509/490 515/515/496 546/546/527
f 509/509/490 546/546/527 545/545/526
f 512/512/493 511/511/492 547/547/528
f 512/512/493 547/547/528 548/548/529
f 474/474/455 545/545/526 549/549/530
f 474/474/455 549/549/530 475/475/456
f 545/545/526 546/546/527 550/550/531
f 545/545/526 550/550/531 549/549/530
f 548/548/529 547/547/528 551/551/532
f 548/548/529 551/551/532 552/552/533
f 476/476/457 553/553/534 498/498/479
f 476/476/457 498/498/479 477/477/458
f 553/553/534 554/554/535 504/504/485
f 553/553/534 504/504/485 498/498/479
f 552/552/533 551/551/532 502/502/483
f 552/552/533 502/502/483 501/501/482
f 479/479/460 505/505/486 555/555/536
f 479/479/460 555/555/536 480/480/461
f 505/505/486 506/506/487 556/556/537
f 505/505/486 556/556/537 555/555/536
f 508/508/489 507/507/488 557/557/538
f 508/508/489 557/557/538 558/558/539
f 480/480/461 555/555/536 559/559/540
f 480/480/461 559/559/540 481/481/462
f 555/555/536 556/556/537 560/560/541
f 555/555/536 560/560/541 559/559/540
f 558/558/539 557/557/538 561/561/542
f 558/558/539 561/561/542 562/562/543
f 482/482/463 563/563/544 534/534/515
f 482/482/463 534/534/515 483/483/464
f 563/563/544 564/564/545 540/540/521
f 563/563/544 540/540/521 534/534/515
f 562/562/543 561/561/542 538/538/519
f 562/562/543 538/538/519 537/537/518
f 517/517/498 485/485/466 487/487/468
f 517/517/498 487/487/468 565/565/546
f 519/519/500 518/518/499 566/566/547
f 519/519/500 566/566/547 567/567/548
f 520/520/501 517/517/498 565/565/546
f 520/520/501 565/565/546 568/568/549
f 569/569/550 489/489/470 488/488/469
f 569/569/550 488/488/469 570/570/551
f 567/567/548 566/566/547 571/571/552
f 567/567/548 571/571/552 572/572/553
f 573/573/554 569/569/550 570/570/551
f 573/573/554 570/570/551 574/574/555
f 490/490/471 521/521/502 570/570/551
f 490/490/471 570/570/551 488/488/469
f 521/521/502 527/527/508 574/574/555
f 521/521/502 574/574/555 570/570/551
f 524/524/505 523/523/504 572/572/553
f 524/524/505 572/572/553 571/571/552
f 529/529/510 491/491/472 493/493/474
f 529/529/510 493/493/474 575/575/556
f 531/531/512 530/530/511 576/576/557
f 531/531/512 576/576/557 577/577/558
f 532/532/513 529/529/510 575/575/556
f 532/532/513 575/575/556 578/578/559
f 579/579/560 495/495/476 494/494/475
f 579/579/560 494/494/475 580/580/561
f 577/577/558 576/576/557 581/581/562
f 577/577/558 581/581/562 582/582/563
f 583/583/564 579/579/560 580/580/561
f 583/583/564 580/580/561 584/584/565
f 496/496/477 541/541/522 580/580/561
f 496/496/477 580/580/561 494/494/475
f 541/541/522 542/542/523 584/584/565
f 541/541/522 584/584/565 580/580/561
f 544/544/525 543/543/524 582/582/563
f 544/544/525 582/582/563 581/581/562
f 585/585/566 586/586/567 344/344/325
f 585/585/566 344/344/325 342/342/323
f 587/587/568 585/585/566 342/342/323
f 587/587/568 342/342/323 340/340/321
f 588/588/569 587/587/568 340/340/321
f 588/588/569 340/340/321 339/339/320
f 589/589/570 590/590/571 336/336/317
f 589/589/570 336/336/317 334/334/315
f 591/591/572 589/589/570 334/334/315
f 591/591/572 334/334/315 329/329/310
f 592/592/573 591/591/572 329/329/310
f 592/592/573 329/329/310 332/332/313
f 593/593/574 592/592/573 332/332/313
f 593/593/574 332/332/313 366/366/347
f 594/594/575 593/593/574 366/366/347
f 594/594/575 366/366/347 365/365/346
f 595/595/576 596/596/577 362/362/343
f 595/595/576 362/362/343 360/360/341
f 597/597/578 595/595/576 360/360/341
f 597/597/578 360/360/341 355/355/336
f 598/598/579 597/597/578 355/355/336
f 598/598/579 355/355/336 358/358/339
f 599/599/580 598/598/579 358/358/339
f 599/599/580 358/358/339 376/376/357
f 600/600/581 599/599/580 376/376/357
f 600/600/581 376/376/357 375/375/356
f 601/601/582 602/602/583 372/372/353
f 601/601/582 372/372/353 370/370/351
f 603/603/584 601/601/582 370/370/351
f 603/603/584 370/370/351 368/368/349
f 604/604/585 603/603/584 368/368/349
f 604/604/585 368/368/349 354/354/335
f 605/605/586 604/604/585 354/354/335
f 605/605/586 354/354/335 352/352/333
f 606/606/587 605/605/586 352/352/333
f 606/606/587 352/352/333 351/351/332
f 607/607/588 608/608/589 348/348/329
f 607/607/588 348/348/329 346/346/327
f 586/586/567 607/607/588 346/346/327
f 586/586/567 346/346/327 344/344/325
f 531/531/512 523/523/504 526/526/507
f 523/523/504 531/531/512 572/572/553
f 572/572/553 531/531/512 577/577/558
f 572/572/553 577/577/558 567/567/548
f 567/567/548 577/577/558 582/582/563
f 567/567/548 582/582/563 519/519/500
f 519/519/500 582/582/563 514/514/495
f 514/514/495 582/582/563 543/543/524
f 514/514/495 543/543/524 511/511/492
f 511/511/492 543/543/524 535/535/516
f 511/511/492 535/535/516 547/547/528
f 547/547/528 535/535/516 538/538/519
f 547/547/528 538/538/519 551/551/532
f 551/551/532 538/538/519 561/561/542
f 551/551/532 561/561/542 557/557/538
f 551/551/532 557/557/538 502/502/483
f 502/502/483 557/557/538 507/507/488
f 502/502/483 507/507/488 499/499/480
