# Blender 5.1.0
# www.blender.org
mtllib textured.mtl
o glass_rod_primitive
v 0.000000 -0.100000 -0.000080
v 0.000000 -0.099997 -0.004080
v -0.000000 0.100003 -0.003920
v -0.000000 0.100000 0.000080
v -0.000780 -0.099997 -0.004003
v -0.000780 0.100003 -0.003844
v -0.001531 -0.099997 -0.003775
v -0.001531 0.100003 -0.003616
v -0.002222 -0.099997 -0.003406
v -0.002222 0.100003 -0.003246
v -0.002828 -0.099998 -0.002908
v -0.002828 0.100002 -0.002749
v -0.003326 -0.099998 -0.002302
v -0.003326 0.100002 -0.002143
v -0.003696 -0.099999 -0.001610
v -0.003696 0.100001 -0.001451
v -0.003923 -0.099999 -0.000860
v -0.003923 0.100001 -0.000701
v -0.004000 -0.100000 -0.000080
v -0.004000 0.100000 0.000080
v -0.003923 -0.100001 0.000701
v -0.003923 0.099999 0.000860
v -0.003696 -0.100001 0.001451
v -0.003696 0.099999 0.001610
v -0.003326 -0.100002 0.002143
v -0.003326 0.099998 0.002302
v -0.002828 -0.100002 0.002749
v -0.002828 0.099998 0.002908
v -0.002222 -0.100003 0.003246
v -0.002222 0.099997 0.003405
v -0.001531 -0.100003 0.003616
v -0.001531 0.099997 0.003775
v -0.000780 -0.100003 0.003843
v -0.000780 0.099997 0.004003
v 0.000000 -0.100003 0.003920
v -0.000000 0.099997 0.004080
v 0.000780 -0.100003 0.003843
v 0.000780 0.099997 0.004003
v 0.001531 -0.100003 0.003616
v 0.001531 0.099997 0.003775
v 0.002222 -0.100003 0.003246
v 0.002222 0.099997 0.003405
v 0.002828 -0.100002 0.002749
v 0.002828 0.099998 0.002908
v 0.003326 -0.100002 0.002143
v 0.003326 0.099998 0.002302
v 0.003696 -0.100001 0.001451
v 0.003696 0.099999 0.001610
v 0.003923 -0.100001 0.000701
v 0.003923 0.099999 0.000860
v 0.004000 -0.100000 -0.000080
v 0.004000 0.100000 0.000080
v 0.003923 -0.099999 -0.000860
v 0.003923 0.100001 -0.000701
v 0.003696 -0.099999 -0.001610
v 0.003696 0.100001 -0.001451
v 0.003326 -0.099998 -0.002302
v 0.003326 0.100002 -0.002143
v 0.002828 -0.099998 -0.002908
v 0.002828 0.100002 -0.002749
v 0.002222 -0.099997 -0.003406
v 0.002222 0.100003 -0.003246
v 0.001531 -0.099997 -0.003775
v 0.001531 0.100003 -0.003616
v 0.000780 -0.099997 -0.004003
v 0.000780 0.100003 -0.003844
vn -0.0000 -1.0000 -0.0008
vn -0.0980 0.0008 -0.9952
vn -0.0000 1.0000 0.0008
vn -0.2903 0.0008 -0.9569
vn -0.4714 0.0007 -0.8819
vn -0.6344 0.0006 -0.7730
vn -0.7730 0.0005 -0.6344
vn -0.8819 0.0004 -0.4714
vn -0.9569 0.0002 -0.2903
vn -0.9952 0.0001 -0.0980
vn -0.9952 -0.0001 0.0980
vn -0.9569 -0.0002 0.2903
vn -0.8819 -0.0004 0.4714
vn -0.7730 -0.0005 0.6344
vn -0.6344 -0.0006 0.7730
vn -0.4714 -0.0007 0.8819
vn -0.2903 -0.0008 0.9569
vn -0.0980 -0.0008 0.9952
vn 0.0980 -0.0008 0.9952
vn 0.2903 -0.0008 0.9569
vn 0.4714 -0.0007 0.8819
vn 0.6344 -0.0006 0.7730
vn 0.7730 -0.0005 0.6344
vn 0.8819 -0.0004 0.4714
vn 0.9569 -0.0002 0.2903
vn 0.9952 -0.0001 0.0980
vn 0.9952 0.0001 -0.0980
vn 0.9569 0.0002 -0.2903
vn 0.8819 0.0004 -0.4714
vn 0.7730 0.0005 -0.6344
vn 0.6344 0.0006 -0.7730
vn 0.4714 0.0007 -0.8819
vn 0.2903 0.0008 -0.9569
vn 0.0980 0.0008 -0.9952
s 0
usemtl Material.001
f 2//1 1//1 5//1
f 2//2 5//2 3//2
f 3//2 5//2 6//2
f 3//3 6//3 4//3
f 5//1 1//1 7//1
f 5//4 7//4 6//4
f 6//4 7//4 8//4
f 6//3 8//3 4//3
f 7//1 1//1 9//1
f 7//5 9//5 8//5
f 8//5 9//5 10//5
f 8//3 10//3 4//3
f 9//1 1//1 11//1
f 9//6 11//6 10//6
f 10//6 11//6 12//6
f 10//3 12//3 4//3
f 11//1 1//1 13//1
f 11//7 13//7 12//7
f 12//7 13//7 14//7
f 12//3 14//3 4//3
f 13//1 1//1 15//1
f 13//8 15//8 14//8
f 14//8 15//8 16//8
f 14//3 16//3 4//3
f 15//1 1//1 17//1
f 15//9 17//9 16//9
f 16//9 17//9 18//9
f 16//3 18//3 4//3
f 17//1 1//1 19//1
f 17//10 19//10 18//10
f 18//10 19//10 20//10
f 18//3 20//3 4//3
f 19//1 1//1 21//1
f 19//11 21//11 20//11
f 20//11 21//11 22//11
f 20//3 22//3 4//3
f 21//1 1//1 23//1
f 21//12 23//12 22//12
f 22//12 23//12 24//12
f 22//3 24//3 4//3
f 23//1 1//1 25//1
f 23//13 25//13 24//13
f 24//13 25//13 26//13
f 24//3 26//3 4//3
f 25//1 1//1 27//1
f 25//14 27//14 26//14
f 26//14 27//14 28//14
f 26//3 28//3 4//3
f 27//1 1//1 29//1
f 27//15 29//15 28//15
f 28//15 29//15 30//15
f 28//3 30//3 4//3
f 29//1 1//1 31//1
f 29//16 31//16 30//16
f 30//16 31//16 32//16
f 30//3 32//3 4//3
f 31//1 1//1 33//1
f 31//17 33//17 32//17
f 32//17 33//17 34//17
f 32//3 34//3 4//3
f 33//1 1//1 35//1
f 33//18 35//18 34//18
f 34//18 35//18 36//18
f 34//3 36//3 4//3
f 35//1 1//1 37//1
f 35//19 37//19 36//19
f 36//19 37//19 38//19
f 36//3 38//3 4//3
f 37//1 1//1 39//1
f 37//20 39//20 38//20
f 38//20 39//20 40//20
f 38//3 40//3 4//3
f 39//1 1//1 41//1
f 39//21 41//21 40//21
f 40//21 41//21 42//21
f 40//3 42//3 4//3
f 41//1 1//1 43//1
f 41//22 43//22 42//22
f 42//22 43//22 44//22
f 42//3 44//3 4//3
f 43//1 1//1 45//1
f 43//23 45//23 44//23
f 44//23 45//23 46//23
f 44//3 46//3 4//3
f 45//1 1//1 47//1
f 45//24 47//24 46//24
f 46//24 47//24 48//24
f 46//3 48//3 4//3
f 47//1 1//1 49//1
f 47//25 49//25 48//25
f 48//25 49//25 50//25
f 48//3 50//3 4//3
f 49//1 1//1 51//1
f 49//26 51//26 50//26
f 50//26 51//26 52//26
f 50//3 52//3 4//3
f 51//1 1//1 53//1
f 51//27 53//27 52//27
f 52//27 53//27 54//27
f 52//3 54//3 4//3
f 53//1 1//1 55//1
f 53//28 55//28 54//28
f 54//28 55//28 56//28
f 54//3 56//3 4//3
f 55//1 1//1 57//1
f 55//29 57//29 56//29
f 56//29 57//29 58//29
f 56//3 58//3 4//3
f 57//1 1//1 59//1
f 57//30 59//30 58//30
f 58//30 59//30 60//30
f 58//3 60//3 4//3
f 59//1 1//1 61//1
f 59//31 61//31 60//31
f 60//31 61//31 62//31
f 60//3 62//3 4//3
f 61//1 1//1 63//1
f 61//32 63//32 62//32
f 62//32 63//32 64//32
f 62//3 64//3 4//3
f 63//1 1//1 65//1
f 63//33 65//33 64//33
f 64//33 65//33 66//33
f 64//3 66//3 4//3
f 65//1 1//1 2//1
f 65//34 2//34 66//34
f 66//34 2//34 3//34
f 66//3 3//3 4//3
