# Blender v3.0.1 OBJ File: '物料托盘.blend'
# www.blender.org
mtllib textured.mtl
o 物品存放托盘_平面.001
v -0.180000 -0.180000 0.020000
v -0.180000 -0.180000 0.000000
v -0.189000 -0.189000 0.020000
v -0.189000 -0.189000 0.000000
v -0.166050 -0.180000 0.020000
v -0.166050 -0.180000 0.000000
v -0.166050 -0.189000 0.020000
v -0.166050 -0.189000 0.000000
v -0.180000 -0.166050 0.020000
v -0.180000 -0.166050 0.000000
v -0.189000 -0.166050 0.020000
v -0.189000 -0.166050 0.000000
v -0.010800 -0.180000 0.020000
v 0.010800 -0.180000 0.020000
v 0.010800 -0.180000 0.000000
v -0.010800 -0.180000 0.000000
v 0.010800 -0.189000 0.020000
v -0.010800 -0.189000 0.020000
v 0.010800 -0.189000 0.000000
v -0.010800 -0.189000 0.000000
v 0.180000 -0.180000 0.020000
v 0.180000 -0.180000 0.000000
v 0.189000 -0.189000 0.020000
v 0.189000 -0.189000 0.000000
v 0.180000 -0.166050 0.020000
v 0.180000 -0.166050 0.000000
v 0.189000 -0.166050 0.020000
v 0.189000 -0.166050 0.000000
v 0.166050 -0.180000 0.020000
v 0.166050 -0.180000 0.000000
v 0.166050 -0.189000 0.020000
v 0.166050 -0.189000 0.000000
v 0.180000 -0.010800 0.020000
v 0.180000 0.010800 0.020000
v 0.180000 0.010800 0.000000
v 0.180000 -0.010800 0.000000
v 0.189000 0.010800 0.020000
v 0.189000 -0.010800 0.020000
v 0.189000 0.010800 0.000000
v 0.189000 -0.010800 0.000000
v 0.180000 0.180000 0.020000
v 0.180000 0.180000 0.000000
v 0.189000 0.189000 0.020000
v 0.189000 0.189000 0.000000
v 0.166050 0.180000 0.020000
v 0.166050 0.180000 0.000000
v 0.166050 0.189000 0.020000
v 0.166050 0.189000 0.000000
v 0.180000 0.166050 0.020000
v 0.180000 0.166050 0.000000
v 0.189000 0.166050 0.020000
v 0.189000 0.166050 0.000000
v 0.010800 0.180000 0.020000
v -0.010800 0.180000 0.020000
v -0.010800 0.180000 0.000000
v 0.010800 0.180000 0.000000
v -0.010800 0.189000 0.020000
v 0.010800 0.189000 0.020000
v -0.010800 0.189000 0.000000
v 0.010800 0.189000 0.000000
v -0.180000 0.180000 0.020000
v -0.180000 0.180000 0.000000
v -0.189000 0.189000 0.020000
v -0.189000 0.189000 0.000000
v -0.180000 0.166050 0.020000
v -0.180000 0.166050 0.000000
v -0.189000 0.166050 0.020000
v -0.189000 0.166050 0.000000
v -0.166050 0.180000 0.020000
v -0.166050 0.180000 0.000000
v -0.166050 0.189000 0.020000
v -0.166050 0.189000 0.000000
v -0.180000 0.010800 0.020000
v -0.180000 -0.010800 0.020000
v -0.180000 -0.010800 0.000000
v -0.180000 0.010800 0.000000
v -0.189000 -0.010800 0.020000
v -0.189000 0.010800 0.020000
v -0.189000 -0.010800 0.000000
v -0.189000 0.010800 0.000000
v -0.180000 -0.180000 0.030000
v 0.180000 -0.180000 0.030000
v -0.180000 0.180000 0.030000
v 0.180000 0.180000 0.030000
v 0.000000 -0.180000 0.030000
v 0.000000 0.180000 0.030000
v -0.180000 0.000000 0.030000
v 0.180000 0.000000 0.030000
v -0.180000 -0.180000 0.150000
v 0.180000 -0.180000 0.150000
v -0.180000 0.180000 0.150000
v 0.180000 0.180000 0.150000
v 0.000000 -0.180000 0.150000
v 0.000000 0.180000 0.150000
v -0.180000 0.000000 0.150000
v 0.180000 0.000000 0.150000
v -0.171000 -0.180000 0.040000
v -0.180000 0.000000 0.040000
v 0.000000 0.180000 0.040000
v -0.171000 -0.180000 0.140000
v 0.180000 0.171000 0.040000
v 0.180000 0.171000 0.140000
v -0.180000 -0.171000 0.040000
v -0.180000 -0.171000 0.140000
v -0.180000 0.171000 0.040000
v -0.180000 0.171000 0.140000
v 0.171000 0.180000 0.040000
v 0.171000 0.180000 0.140000
v -0.171000 0.180000 0.040000
v -0.171000 0.180000 0.140000
v 0.180000 0.000000 0.040000
v 0.171000 -0.180000 0.040000
v 0.171000 -0.180000 0.140000
v 0.180000 0.000000 0.140000
v 0.180000 -0.171000 0.040000
v 0.180000 -0.171000 0.140000
v 0.000000 -0.180000 0.040000
v 0.000000 0.180000 0.140000
v 0.000000 -0.180000 0.140000
v -0.180000 0.000000 0.140000
v 0.000000 0.000000 0.030000
v -0.190000 -0.190000 0.020000
v 0.190000 -0.190000 0.020000
v -0.190000 0.190000 0.020000
v 0.190000 0.190000 0.020000
v 0.000000 -0.190000 0.020000
v 0.000000 0.190000 0.020000
v -0.190000 0.000000 0.020000
v 0.190000 0.000000 0.020000
v -0.190000 -0.190000 0.150000
v 0.190000 -0.190000 0.150000
v -0.190000 0.190000 0.150000
v 0.190000 0.190000 0.150000
v 0.000000 -0.190000 0.150000
v 0.000000 0.190000 0.150000
v -0.190000 0.000000 0.150000
v 0.190000 0.000000 0.150000
v -0.171000 -0.190000 0.040000
v -0.190000 0.000000 0.040000
v 0.000000 0.190000 0.040000
v -0.171000 -0.190000 0.140000
v 0.190000 0.171000 0.040000
v 0.190000 0.171000 0.140000
v -0.190000 -0.171000 0.040000
v -0.190000 -0.171000 0.140000
v -0.190000 0.171000 0.040000
v -0.190000 0.171000 0.140000
v 0.171000 0.190000 0.040000
v 0.171000 0.190000 0.140000
v -0.171000 0.190000 0.040000
v -0.171000 0.190000 0.140000
v 0.190000 0.000000 0.040000
v 0.171000 -0.190000 0.040000
v 0.171000 -0.190000 0.140000
v 0.190000 0.000000 0.140000
v 0.190000 -0.171000 0.040000
v 0.190000 -0.171000 0.140000
v 0.000000 -0.190000 0.040000
v 0.000000 0.190000 0.140000
v 0.000000 -0.190000 0.140000
v -0.190000 0.000000 0.140000
v 0.000000 0.000000 0.020000
v -0.171000 -0.180000 0.040000
v -0.171000 -0.180000 0.140000
v 0.171000 -0.180000 0.040000
v 0.171000 -0.180000 0.140000
v -0.171000 -0.185000 0.040000
v -0.171000 -0.185000 0.140000
v 0.171000 -0.185000 0.040000
v 0.171000 -0.185000 0.140000
v -0.010000 -0.185000 0.040000
v 0.010000 -0.185000 0.040000
v 0.010000 -0.185000 0.140000
v -0.010000 -0.185000 0.140000
v -0.047000 -0.185000 0.040000
v -0.067000 -0.185000 0.040000
v -0.104000 -0.185000 0.040000
v -0.124000 -0.185000 0.040000
v -0.067000 -0.185000 0.140000
v -0.047000 -0.185000 0.140000
v -0.124000 -0.185000 0.140000
v -0.104000 -0.185000 0.140000
v 0.067000 -0.185000 0.040000
v 0.047000 -0.185000 0.040000
v 0.124000 -0.185000 0.040000
v 0.104000 -0.185000 0.040000
v 0.047000 -0.185000 0.140000
v 0.067000 -0.185000 0.140000
v 0.104000 -0.185000 0.140000
v 0.124000 -0.185000 0.140000
v -0.106000 -0.180000 0.140000
v -0.122000 -0.180000 0.140000
v -0.122000 -0.180000 0.040000
v -0.106000 -0.180000 0.040000
v -0.122000 -0.182500 0.040000
v -0.106000 -0.182500 0.040000
v -0.106000 -0.182500 0.140000
v -0.122000 -0.182500 0.140000
v -0.049000 -0.180000 0.140000
v -0.065000 -0.180000 0.140000
v -0.065000 -0.180000 0.040000
v -0.049000 -0.180000 0.040000
v -0.065000 -0.182500 0.040000
v -0.049000 -0.182500 0.040000
v -0.049000 -0.182500 0.140000
v -0.065000 -0.182500 0.140000
v -0.008000 -0.180000 0.040000
v 0.008000 -0.180000 0.040000
v 0.008000 -0.180000 0.140000
v -0.008000 -0.180000 0.140000
v -0.008000 -0.182500 0.040000
v 0.008000 -0.182500 0.040000
v 0.008000 -0.182500 0.140000
v -0.008000 -0.182500 0.140000
v 0.049000 -0.180000 0.040000
v 0.065000 -0.180000 0.040000
v 0.065000 -0.180000 0.140000
v 0.049000 -0.180000 0.140000
v 0.065000 -0.182500 0.140000
v 0.049000 -0.182500 0.140000
v 0.049000 -0.182500 0.040000
v 0.065000 -0.182500 0.040000
v 0.106000 -0.180000 0.040000
v 0.122000 -0.180000 0.040000
v 0.122000 -0.180000 0.140000
v 0.106000 -0.180000 0.140000
v 0.106000 -0.182500 0.040000
v 0.122000 -0.182500 0.040000
v 0.122000 -0.182500 0.140000
v 0.106000 -0.182500 0.140000
v 0.180000 -0.171000 0.040000
v 0.180000 -0.171000 0.140000
v 0.180000 0.171000 0.040000
v 0.180000 0.171000 0.140000
v 0.185000 -0.171000 0.040000
v 0.185000 -0.171000 0.140000
v 0.185000 0.171000 0.040000
v 0.185000 0.171000 0.140000
v 0.185000 -0.010000 0.040000
v 0.185000 0.010000 0.040000
v 0.185000 0.010000 0.140000
v 0.185000 -0.010000 0.140000
v 0.185000 -0.047000 0.040000
v 0.185000 -0.067000 0.040000
v 0.185000 -0.104000 0.040000
v 0.185000 -0.124000 0.040000
v 0.185000 -0.067000 0.140000
v 0.185000 -0.047000 0.140000
v 0.185000 -0.124000 0.140000
v 0.185000 -0.104000 0.140000
v 0.185000 0.067000 0.040000
v 0.185000 0.047000 0.040000
v 0.185000 0.124000 0.040000
v 0.185000 0.104000 0.040000
v 0.185000 0.047000 0.140000
v 0.185000 0.067000 0.140000
v 0.185000 0.104000 0.140000
v 0.185000 0.124000 0.140000
v 0.180000 -0.106000 0.140000
v 0.180000 -0.122000 0.140000
v 0.180000 -0.122000 0.040000
v 0.180000 -0.106000 0.040000
v 0.182500 -0.122000 0.040000
v 0.182500 -0.106000 0.040000
v 0.182500 -0.106000 0.140000
v 0.182500 -0.122000 0.140000
v 0.180000 -0.049000 0.140000
v 0.180000 -0.065000 0.140000
v 0.180000 -0.065000 0.040000
v 0.180000 -0.049000 0.040000
v 0.182500 -0.065000 0.040000
v 0.182500 -0.049000 0.040000
v 0.182500 -0.049000 0.140000
v 0.182500 -0.065000 0.140000
v 0.180000 -0.008000 0.040000
v 0.180000 0.008000 0.040000
v 0.180000 0.008000 0.140000
v 0.180000 -0.008000 0.140000
v 0.182500 -0.008000 0.040000
v 0.182500 0.008000 0.040000
v 0.182500 0.008000 0.140000
v 0.182500 -0.008000 0.140000
v 0.180000 0.049000 0.040000
v 0.180000 0.065000 0.040000
v 0.180000 0.065000 0.140000
v 0.180000 0.049000 0.140000
v 0.182500 0.065000 0.140000
v 0.182500 0.049000 0.140000
v 0.182500 0.049000 0.040000
v 0.182500 0.065000 0.040000
v 0.180000 0.106000 0.040000
v 0.180000 0.122000 0.040000
v 0.180000 0.122000 0.140000
v 0.180000 0.106000 0.140000
v 0.182500 0.106000 0.040000
v 0.182500 0.122000 0.040000
v 0.182500 0.122000 0.140000
v 0.182500 0.106000 0.140000
v 0.171000 0.180000 0.040000
v 0.171000 0.180000 0.140000
v -0.171000 0.180000 0.040000
v -0.171000 0.180000 0.140000
v 0.171000 0.185000 0.040000
v 0.171000 0.185000 0.140000
v -0.171000 0.185000 0.040000
v -0.171000 0.185000 0.140000
v 0.010000 0.185000 0.040000
v -0.010000 0.185000 0.040000
v -0.010000 0.185000 0.140000
v 0.010000 0.185000 0.140000
v 0.047000 0.185000 0.040000
v 0.067000 0.185000 0.040000
v 0.104000 0.185000 0.040000
v 0.124000 0.185000 0.040000
v 0.067000 0.185000 0.140000
v 0.047000 0.185000 0.140000
v 0.124000 0.185000 0.140000
v 0.104000 0.185000 0.140000
v -0.067000 0.185000 0.040000
v -0.047000 0.185000 0.040000
v -0.124000 0.185000 0.040000
v -0.104000 0.185000 0.040000
v -0.047000 0.185000 0.140000
v -0.067000 0.185000 0.140000
v -0.104000 0.185000 0.140000
v -0.124000 0.185000 0.140000
v 0.106000 0.180000 0.140000
v 0.122000 0.180000 0.140000
v 0.122000 0.180000 0.040000
v 0.106000 0.180000 0.040000
v 0.122000 0.182500 0.040000
v 0.106000 0.182500 0.040000
v 0.106000 0.182500 0.140000
v 0.122000 0.182500 0.140000
v 0.049000 0.180000 0.140000
v 0.065000 0.180000 0.140000
v 0.065000 0.180000 0.040000
v 0.049000 0.180000 0.040000
v 0.065000 0.182500 0.040000
v 0.049000 0.182500 0.040000
v 0.049000 0.182500 0.140000
v 0.065000 0.182500 0.140000
v 0.008000 0.180000 0.040000
v -0.008000 0.180000 0.040000
v -0.008000 0.180000 0.140000
v 0.008000 0.180000 0.140000
v 0.008000 0.182500 0.040000
v -0.008000 0.182500 0.040000
v -0.008000 0.182500 0.140000
v 0.008000 0.182500 0.140000
v -0.049000 0.180000 0.040000
v -0.065000 0.180000 0.040000
v -0.065000 0.180000 0.140000
v -0.049000 0.180000 0.140000
v -0.065000 0.182500 0.140000
v -0.049000 0.182500 0.140000
v -0.049000 0.182500 0.040000
v -0.065000 0.182500 0.040000
v -0.106000 0.180000 0.040000
v -0.122000 0.180000 0.040000
v -0.122000 0.180000 0.140000
v -0.106000 0.180000 0.140000
v -0.106000 0.182500 0.040000
v -0.122000 0.182500 0.040000
v -0.122000 0.182500 0.140000
v -0.106000 0.182500 0.140000
v -0.180000 0.171000 0.040000
v -0.180000 0.171000 0.140000
v -0.180000 -0.171000 0.040000
v -0.180000 -0.171000 0.140000
v -0.185000 0.171000 0.040000
v -0.185000 0.171000 0.140000
v -0.185000 -0.171000 0.040000
v -0.185000 -0.171000 0.140000
v -0.185000 0.010000 0.040000
v -0.185000 -0.010000 0.040000
v -0.185000 -0.010000 0.140000
v -0.185000 0.010000 0.140000
v -0.185000 0.047000 0.040000
v -0.185000 0.067000 0.040000
v -0.185000 0.104000 0.040000
v -0.185000 0.124000 0.040000
v -0.185000 0.067000 0.140000
v -0.185000 0.047000 0.140000
v -0.185000 0.124000 0.140000
v -0.185000 0.104000 0.140000
v -0.185000 -0.067000 0.040000
v -0.185000 -0.047000 0.040000
v -0.185000 -0.124000 0.040000
v -0.185000 -0.104000 0.040000
v -0.185000 -0.047000 0.140000
v -0.185000 -0.067000 0.140000
v -0.185000 -0.104000 0.140000
v -0.185000 -0.124000 0.140000
v -0.180000 0.106000 0.140000
v -0.180000 0.122000 0.140000
v -0.180000 0.122000 0.040000
v -0.180000 0.106000 0.040000
v -0.182500 0.122000 0.040000
v -0.182500 0.106000 0.040000
v -0.182500 0.106000 0.140000
v -0.182500 0.122000 0.140000
v -0.180000 0.049000 0.140000
v -0.180000 0.065000 0.140000
v -0.180000 0.065000 0.040000
v -0.180000 0.049000 0.040000
v -0.182500 0.065000 0.040000
v -0.182500 0.049000 0.040000
v -0.182500 0.049000 0.140000
v -0.182500 0.065000 0.140000
v -0.180000 0.008000 0.040000
v -0.180000 -0.008000 0.040000
v -0.180000 -0.008000 0.140000
v -0.180000 0.008000 0.140000
v -0.182500 0.008000 0.040000
v -0.182500 -0.008000 0.040000
v -0.182500 -0.008000 0.140000
v -0.182500 0.008000 0.140000
v -0.180000 -0.049000 0.040000
v -0.180000 -0.065000 0.040000
v -0.180000 -0.065000 0.140000
v -0.180000 -0.049000 0.140000
v -0.182500 -0.065000 0.140000
v -0.182500 -0.049000 0.140000
v -0.182500 -0.049000 0.040000
v -0.182500 -0.065000 0.040000
v -0.180000 -0.106000 0.040000
v -0.180000 -0.122000 0.040000
v -0.180000 -0.122000 0.140000
v -0.180000 -0.106000 0.140000
v -0.182500 -0.106000 0.040000
v -0.182500 -0.122000 0.040000
v -0.182500 -0.122000 0.140000
v -0.182500 -0.106000 0.140000
v -0.188000 -0.188000 0.170000
v -0.188000 -0.188000 0.150000
v -0.166050 -0.188000 0.170000
v -0.166050 -0.188000 0.150000
v -0.188000 -0.166050 0.170000
v -0.188000 -0.166050 0.150000
v -0.192000 -0.192000 0.170000
v -0.192000 -0.192000 0.150000
v -0.166050 -0.192000 0.170000
v -0.166050 -0.192000 0.150000
v -0.192000 -0.166050 0.170000
v -0.192000 -0.166050 0.150000
v 0.188000 -0.188000 0.170000
v 0.188000 -0.188000 0.150000
v 0.188000 -0.166050 0.170000
v 0.188000 -0.166050 0.150000
v 0.166050 -0.188000 0.170000
v 0.166050 -0.188000 0.150000
v 0.192000 -0.192000 0.170000
v 0.192000 -0.192000 0.150000
v 0.192000 -0.166050 0.170000
v 0.192000 -0.166050 0.150000
v 0.166050 -0.192000 0.170000
v 0.166050 -0.192000 0.150000
v 0.188000 0.188000 0.170000
v 0.188000 0.188000 0.150000
v 0.166050 0.188000 0.170000
v 0.166050 0.188000 0.150000
v 0.188000 0.166050 0.170000
v 0.188000 0.166050 0.150000
v 0.192000 0.192000 0.170000
v 0.192000 0.192000 0.150000
v 0.166050 0.192000 0.170000
v 0.166050 0.192000 0.150000
v 0.192000 0.166050 0.170000
v 0.192000 0.166050 0.150000
v -0.188000 0.188000 0.170000
v -0.188000 0.188000 0.150000
v -0.188000 0.166050 0.170000
v -0.188000 0.166050 0.150000
v -0.166050 0.188000 0.170000
v -0.166050 0.188000 0.150000
v -0.192000 0.192000 0.170000
v -0.192000 0.192000 0.150000
v -0.192000 0.166050 0.170000
v -0.192000 0.166050 0.150000
v -0.166050 0.192000 0.170000
v -0.166050 0.192000 0.150000
vt 0.820575 0.914760
vt 0.827970 0.914760
vt 0.827970 0.933619
vt 0.820575 0.926223
vt 0.342813 0.927867
vt 0.342813 0.935262
vt 0.323955 0.935262
vt 0.331350 0.927867
vt 0.648709 0.916404
vt 0.665143 0.916404
vt 0.665143 0.935262
vt 0.648709 0.935262
vt 0.693728 0.959498
vt 0.682265 0.959498
vt 0.682265 0.943063
vt 0.693728 0.943063
vt 0.635936 0.959498
vt 0.624473 0.959498
vt 0.624473 0.943063
vt 0.635936 0.943063
vt 0.809112 0.933619
vt 0.809112 0.926223
vt 0.624473 0.916404
vt 0.640908 0.916404
vt 0.640908 0.935262
vt 0.624473 0.935262
vt 0.323955 0.916404
vt 0.331350 0.916404
vt 0.546004 0.963277
vt 0.546004 0.945528
vt 0.553400 0.945528
vt 0.553400 0.963277
vt 0.367048 0.943063
vt 0.367048 0.960812
vt 0.350614 0.960812
vt 0.350614 0.943063
vt 0.515612 0.963277
vt 0.515612 0.945528
vt 0.523008 0.945528
vt 0.523008 0.963277
vt 0.239985 0.960801
vt 0.239985 0.943052
vt 0.256419 0.943052
vt 0.256419 0.960801
vt 0.837080 0.967257
vt 0.844476 0.967257
vt 0.844476 0.983692
vt 0.837080 0.983692
vt 0.829279 0.967257
vt 0.829279 0.983692
vt 0.821884 0.983692
vt 0.821884 0.967257
vt 0.769699 0.981309
vt 0.762303 0.981309
vt 0.762303 0.964874
vt 0.769699 0.964874
vt 0.939379 0.980424
vt 0.931983 0.980424
vt 0.931983 0.963989
vt 0.939379 0.963989
vt 0.935229 0.285282
vt 0.935229 0.292677
vt 0.916371 0.292677
vt 0.923766 0.285282
vt 0.415396 0.916404
vt 0.422791 0.916404
vt 0.422791 0.935262
vt 0.415396 0.927867
vt 0.672944 0.916404
vt 0.689378 0.916404
vt 0.689378 0.935262
vt 0.672944 0.935262
vt 0.773767 0.932838
vt 0.762304 0.932838
vt 0.762304 0.916404
vt 0.773767 0.916404
vt 0.442055 0.961963
vt 0.430592 0.961963
vt 0.430592 0.945528
vt 0.442055 0.945528
vt 0.916371 0.273819
vt 0.923766 0.273819
vt 0.782452 0.941420
vt 0.798887 0.941420
vt 0.798887 0.960278
vt 0.782452 0.960278
vt 0.403933 0.935262
vt 0.403933 0.927867
vt 0.500416 0.963277
vt 0.500416 0.945528
vt 0.507811 0.945528
vt 0.507811 0.963277
vt 0.415519 0.943063
vt 0.415519 0.960812
vt 0.399084 0.960812
vt 0.399084 0.943063
vt 0.492615 0.945528
vt 0.492615 0.963277
vt 0.485220 0.963277
vt 0.485220 0.945528
vt 0.264220 0.960801
vt 0.264220 0.943052
vt 0.280654 0.943052
vt 0.280654 0.960801
vt 0.947179 0.963989
vt 0.954575 0.963989
vt 0.954575 0.980424
vt 0.947179 0.980424
vt 0.814083 0.967257
vt 0.814083 0.983692
vt 0.806687 0.983692
vt 0.806687 0.967257
vt 0.685593 0.983733
vt 0.678197 0.983733
vt 0.678197 0.967298
vt 0.685593 0.967298
vt 0.972653 0.953764
vt 0.965257 0.953764
vt 0.965257 0.937330
vt 0.972653 0.937330
vt 0.854629 0.926223
vt 0.854629 0.933619
vt 0.835771 0.933619
vt 0.843166 0.926223
vt 0.782452 0.922156
vt 0.782452 0.914760
vt 0.801311 0.914760
vt 0.793915 0.922156
vt 0.600238 0.916404
vt 0.616673 0.916404
vt 0.616673 0.935262
vt 0.600238 0.935262
vt 0.674464 0.959498
vt 0.663001 0.959498
vt 0.663001 0.943063
vt 0.674464 0.943063
vt 0.655200 0.959498
vt 0.643737 0.959498
vt 0.643737 0.943063
vt 0.655200 0.943063
vt 0.835771 0.914760
vt 0.843166 0.914760
vt 0.941022 0.937330
vt 0.957456 0.937330
vt 0.957456 0.956188
vt 0.941022 0.956188
vt 0.801311 0.933619
vt 0.793915 0.933619
vt 0.477419 0.945528
vt 0.477419 0.963277
vt 0.470023 0.963277
vt 0.470023 0.945528
vt 0.340389 0.943063
vt 0.340389 0.960812
vt 0.323955 0.960812
vt 0.323955 0.943063
vt 0.462222 0.945528
vt 0.462222 0.963277
vt 0.454827 0.963277
vt 0.454827 0.945528
vt 0.600238 0.960812
vt 0.600238 0.943063
vt 0.616673 0.943063
vt 0.616673 0.960812
vt 0.561201 0.945528
vt 0.568596 0.945528
vt 0.568596 0.961963
vt 0.561201 0.961963
vt 0.583793 0.945528
vt 0.583793 0.961963
vt 0.576397 0.961963
vt 0.576397 0.945528
vt 0.631869 0.983733
vt 0.624473 0.983733
vt 0.624473 0.967298
vt 0.631869 0.967298
vt 0.972653 0.978000
vt 0.965257 0.978000
vt 0.965257 0.961565
vt 0.972653 0.961565
vt 0.377273 0.923799
vt 0.377273 0.916404
vt 0.396132 0.916404
vt 0.388736 0.923799
vt 0.369473 0.927867
vt 0.369473 0.935262
vt 0.350614 0.935262
vt 0.358010 0.927867
vt 0.916787 0.937330
vt 0.933221 0.937330
vt 0.933221 0.956188
vt 0.916787 0.956188
vt 0.773766 0.957073
vt 0.762303 0.957073
vt 0.762303 0.940639
vt 0.773766 0.940639
vt 0.873893 0.960319
vt 0.862430 0.960319
vt 0.862430 0.943885
vt 0.873893 0.943885
vt 0.396132 0.935262
vt 0.388736 0.935262
vt 0.943030 0.273819
vt 0.959464 0.273819
vt 0.959464 0.292677
vt 0.943030 0.292677
vt 0.350614 0.916404
vt 0.358010 0.916404
vt 0.704574 0.916404
vt 0.704574 0.934153
vt 0.697179 0.934153
vt 0.697179 0.916404
vt 0.391284 0.943063
vt 0.391284 0.960812
vt 0.374849 0.960812
vt 0.374849 0.943063
vt 0.530808 0.963277
vt 0.530808 0.945528
vt 0.538204 0.945528
vt 0.538204 0.963277
vt 0.291376 0.960801
vt 0.291376 0.943052
vt 0.307810 0.943052
vt 0.307810 0.960801
vt 0.643737 0.967298
vt 0.651133 0.967298
vt 0.651133 0.983733
vt 0.643737 0.983733
vt 0.670396 0.967298
vt 0.670396 0.983733
vt 0.663001 0.983733
vt 0.663001 0.967298
vt 0.924182 0.980424
vt 0.916787 0.980424
vt 0.916787 0.963989
vt 0.924182 0.963989
vt 0.974661 0.290253
vt 0.967265 0.290253
vt 0.967265 0.273819
vt 0.974661 0.273819
vt 0.471864 0.151810
vt 0.471864 0.003900
vt 0.619774 0.003900
vt 0.619774 0.151810
vt 0.726181 0.151810
vt 0.726181 0.299720
vt 0.717964 0.292324
vt 0.717964 0.151810
vt 0.872842 0.759050
vt 0.872842 0.618536
vt 0.881059 0.611140
vt 0.881059 0.759050
vt 0.824371 0.151810
vt 0.824371 0.011296
vt 0.832588 0.003900
vt 0.832588 0.151810
vt 0.832588 0.299720
vt 0.824371 0.292324
vt 0.881059 0.455430
vt 0.881059 0.603340
vt 0.872842 0.595944
vt 0.872842 0.455430
vt 0.872842 0.314916
vt 0.881059 0.307520
vt 0.717964 0.011296
vt 0.726181 0.003900
vt 0.881059 0.906960
vt 0.872842 0.899564
vt 0.471864 0.299720
vt 0.619774 0.299720
vt 0.323955 0.151810
vt 0.323955 0.003900
vt 0.323955 0.299720
vt 0.627575 0.151810
vt 0.635792 0.151810
vt 0.635792 0.292324
vt 0.627575 0.299720
vt 0.782452 0.759050
vt 0.782452 0.611140
vt 0.790670 0.618536
vt 0.790670 0.759050
vt 0.733982 0.151810
vt 0.733982 0.003900
vt 0.742199 0.011296
vt 0.742199 0.151810
vt 0.733982 0.299720
vt 0.742199 0.292324
vt 0.782452 0.455430
vt 0.790670 0.455430
vt 0.790670 0.595944
vt 0.782452 0.603340
vt 0.782452 0.307520
vt 0.790670 0.314916
vt 0.627575 0.003900
vt 0.635792 0.011296
vt 0.790670 0.899564
vt 0.782452 0.906960
vt 0.160027 0.480082
vt 0.003900 0.480082
vt 0.003900 0.323955
vt 0.160027 0.323955
vt 0.774652 0.463647
vt 0.758217 0.463647
vt 0.758217 0.323133
vt 0.774652 0.307520
vt 0.643593 0.463647
vt 0.660027 0.463647
vt 0.660027 0.619774
vt 0.643593 0.604161
vt 0.414344 0.463647
vt 0.430778 0.463647
vt 0.430778 0.619774
vt 0.414344 0.604161
vt 0.430778 0.307520
vt 0.414344 0.323133
vt 0.545403 0.463647
vt 0.528968 0.463647
vt 0.528968 0.323133
vt 0.545403 0.307520
vt 0.545403 0.619774
vt 0.528968 0.604161
vt 0.774652 0.619774
vt 0.758217 0.604161
vt 0.643593 0.323133
vt 0.660027 0.307520
vt 0.160027 0.636208
vt 0.003900 0.636208
vt 0.316154 0.480082
vt 0.316154 0.323955
vt 0.316154 0.636208
vt 0.667828 0.463647
vt 0.667828 0.307520
vt 0.676045 0.323133
vt 0.676045 0.463647
vt 0.553204 0.463647
vt 0.561421 0.463647
vt 0.561421 0.604161
vt 0.553204 0.619774
vt 0.323955 0.463647
vt 0.332172 0.463647
vt 0.332172 0.604161
vt 0.323955 0.619774
vt 0.323955 0.307520
vt 0.332172 0.323133
vt 0.438579 0.463647
vt 0.438579 0.307520
vt 0.446796 0.323133
vt 0.446796 0.463647
vt 0.446796 0.604161
vt 0.438579 0.619774
vt 0.676045 0.604161
vt 0.667828 0.619774
vt 0.553204 0.307520
vt 0.561421 0.323133
vt 0.012118 0.307937
vt 0.160027 0.307937
vt 0.160027 0.316154
vt 0.003900 0.316154
vt 0.888443 0.144414
vt 0.888443 0.003900
vt 0.896661 0.003900
vt 0.896661 0.144414
vt 0.864624 0.003900
vt 0.864624 0.144414
vt 0.856407 0.144414
vt 0.856407 0.003900
vt 0.953753 0.749583
vt 0.953753 0.667412
vt 0.961970 0.667412
vt 0.961970 0.749583
vt 0.848606 0.144414
vt 0.848606 0.284929
vt 0.840389 0.284929
vt 0.840389 0.144414
vt 0.160027 0.012118
vt 0.012118 0.012118
vt 0.003900 0.003900
vt 0.160027 0.003900
vt 0.864624 0.284929
vt 0.856407 0.284929
vt 0.945952 0.667412
vt 0.945952 0.749583
vt 0.937735 0.749583
vt 0.937735 0.667412
vt 0.953753 0.659611
vt 0.953753 0.577439
vt 0.961970 0.577439
vt 0.961970 0.659611
vt 0.872425 0.284929
vt 0.872425 0.144414
vt 0.880642 0.144414
vt 0.880642 0.284929
vt 0.012118 0.160027
vt 0.003900 0.160027
vt 0.872425 0.003900
vt 0.880642 0.003900
vt 0.953753 0.929529
vt 0.953753 0.847357
vt 0.961970 0.847357
vt 0.961970 0.929529
vt 0.307937 0.012118
vt 0.316154 0.003900
vt 0.708081 0.627575
vt 0.708081 0.768089
vt 0.699864 0.768089
vt 0.699864 0.627575
vt 0.888443 0.284929
vt 0.896660 0.284929
vt 0.307937 0.307937
vt 0.307937 0.160027
vt 0.316154 0.160027
vt 0.316154 0.316154
vt 0.708081 0.908603
vt 0.699864 0.908603
vt 0.945952 0.577439
vt 0.945952 0.659611
vt 0.937735 0.659611
vt 0.937735 0.577439
vt 0.945952 0.847357
vt 0.945952 0.929529
vt 0.937735 0.929529
vt 0.937735 0.847357
vt 0.683846 0.768089
vt 0.683846 0.627575
vt 0.692063 0.627575
vt 0.692063 0.768089
vt 0.953753 0.839556
vt 0.953753 0.757384
vt 0.961970 0.757384
vt 0.961970 0.839556
vt 0.683846 0.908603
vt 0.692063 0.908603
vt 0.888860 0.877378
vt 0.888860 0.736864
vt 0.897077 0.736864
vt 0.897077 0.877378
vt 0.848606 0.003900
vt 0.840389 0.003900
vt 0.897077 0.448035
vt 0.897077 0.588549
vt 0.888860 0.588549
vt 0.888860 0.448035
vt 0.888860 0.596349
vt 0.897077 0.596349
vt 0.897077 0.307520
vt 0.888860 0.307520
vt 0.945952 0.757384
vt 0.945952 0.839556
vt 0.937735 0.839556
vt 0.937735 0.757384
vt 0.035520 0.996100
vt 0.035520 0.913928
vt 0.037574 0.913928
vt 0.037574 0.996100
vt 0.593873 0.727825
vt 0.676045 0.727825
vt 0.676045 0.761515
vt 0.593873 0.761515
vt 0.593873 0.908603
vt 0.593873 0.868339
vt 0.676045 0.868339
vt 0.676045 0.908603
vt 0.888860 0.967350
vt 0.888860 0.885178
vt 0.892968 0.885178
vt 0.892968 0.967350
vt 0.003900 0.816154
vt 0.003900 0.733982
vt 0.034304 0.733982
vt 0.034304 0.816154
vt 0.187122 0.823955
vt 0.187122 0.906127
vt 0.156718 0.906127
vt 0.156718 0.823955
vt 0.593873 0.680987
vt 0.676045 0.680987
vt 0.676045 0.714677
vt 0.593873 0.714677
vt 0.969771 0.749583
vt 0.969771 0.667411
vt 0.969771 0.667411
vt 0.973880 0.667411
vt 0.973880 0.667411
vt 0.971825 0.667411
vt 0.971825 0.749583
vt 0.593873 0.855191
vt 0.593873 0.821501
vt 0.676045 0.821501
vt 0.676045 0.855191
vt 0.754503 0.717548
vt 0.754503 0.799720
vt 0.715882 0.799720
vt 0.715882 0.717548
vt 0.676045 0.627575
vt 0.676045 0.667839
vt 0.593873 0.667839
vt 0.593873 0.627575
vt 0.005955 0.996100
vt 0.005955 0.913928
vt 0.003900 0.913928
vt 0.003900 0.913928
vt 0.005955 0.913928
vt 0.008009 0.913928
vt 0.008009 0.913928
vt 0.008009 0.996100
vt 0.118514 0.816154
vt 0.118514 0.733982
vt 0.148917 0.733982
vt 0.148917 0.816154
vt 0.984557 0.569638
vt 0.984557 0.487466
vt 0.982502 0.487466
vt 0.982502 0.487466
vt 0.986611 0.487466
vt 0.986611 0.487466
vt 0.986611 0.569638
vt 0.746285 0.807520
vt 0.746285 0.889692
vt 0.715882 0.889692
vt 0.715882 0.807520
vt 0.715882 0.709747
vt 0.715882 0.627575
vt 0.754503 0.627575
vt 0.754503 0.709747
vt 0.766412 0.808353
vt 0.764358 0.808353
vt 0.762303 0.806710
vt 0.762303 0.776306
vt 0.764358 0.774663
vt 0.766412 0.774663
vt 0.047429 0.913928
vt 0.047429 0.996100
vt 0.045375 0.996100
vt 0.045375 0.913928
vt 0.076995 0.913928
vt 0.076995 0.996100
vt 0.074940 0.996100
vt 0.074940 0.913928
vt 0.762303 0.853548
vt 0.762303 0.823144
vt 0.764358 0.821501
vt 0.766412 0.821501
vt 0.766412 0.855191
vt 0.764358 0.855191
vt 0.766412 0.761515
vt 0.764358 0.761515
vt 0.762303 0.759872
vt 0.762303 0.729468
vt 0.764358 0.727825
vt 0.766412 0.727825
vt 0.727791 0.897493
vt 0.729846 0.897493
vt 0.731900 0.897493
vt 0.731900 0.897493
vt 0.731900 0.979665
vt 0.729846 0.979665
vt 0.729846 0.897493
vt 0.727791 0.897493
vt 0.762303 0.682630
vt 0.764358 0.680987
vt 0.766412 0.680987
vt 0.766412 0.714677
vt 0.764358 0.714677
vt 0.762303 0.713034
vt 0.593873 0.808353
vt 0.593873 0.774663
vt 0.676045 0.774663
vt 0.676045 0.808353
vt 0.741755 0.979665
vt 0.741755 0.897493
vt 0.739701 0.897493
vt 0.739701 0.897493
vt 0.741755 0.897493
vt 0.743809 0.897493
vt 0.743809 0.897493
vt 0.743809 0.979665
vt 0.995644 0.667411
vt 0.995644 0.749583
vt 0.993590 0.749583
vt 0.993590 0.667411
vt 0.929518 0.093873
vt 0.929518 0.176045
vt 0.916371 0.176045
vt 0.916371 0.093873
vt 0.766412 0.868339
vt 0.764358 0.868339
vt 0.259695 0.968602
vt 0.261749 0.968602
vt 0.261749 0.981749
vt 0.259695 0.981749
vt 0.929934 0.577439
vt 0.929934 0.659611
vt 0.916787 0.659611
vt 0.916787 0.577439
vt 0.404414 0.968613
vt 0.406469 0.968613
vt 0.406469 0.981761
vt 0.404414 0.981761
vt 0.937319 0.086072
vt 0.937319 0.003900
vt 0.950467 0.003900
vt 0.950467 0.086072
vt 0.363375 0.968613
vt 0.365429 0.968613
vt 0.365429 0.981761
vt 0.363375 0.981761
vt 0.937735 0.389692
vt 0.937735 0.307520
vt 0.950883 0.307520
vt 0.950883 0.389692
vt 0.394559 0.968613
vt 0.396614 0.968613
vt 0.396614 0.981761
vt 0.394559 0.981761
vt 0.233127 0.906127
vt 0.233127 0.823955
vt 0.246274 0.823955
vt 0.246274 0.906127
vt 0.249840 0.968602
vt 0.251894 0.968602
vt 0.251894 0.981749
vt 0.249840 0.981749
vt 0.764358 0.667839
vt 0.766412 0.667839
vt 0.762303 0.908603
vt 0.762303 0.869982
vt 0.766412 0.908603
vt 0.982502 0.397493
vt 0.984557 0.397493
vt 0.986611 0.397493
vt 0.986611 0.397493
vt 0.986611 0.479665
vt 0.984557 0.479665
vt 0.984557 0.397493
vt 0.982502 0.397493
vt 0.762303 0.666196
vt 0.762303 0.627575
vt 0.766412 0.627575
vt 0.973880 0.757384
vt 0.973880 0.839556
vt 0.969771 0.839556
vt 0.969771 0.757384
vt 0.993590 0.659611
vt 0.993590 0.577439
vt 0.995644 0.577439
vt 0.995644 0.659611
vt 0.413928 0.727825
vt 0.496100 0.727825
vt 0.496100 0.761515
vt 0.413928 0.761515
vt 0.413928 0.908603
vt 0.413928 0.868339
vt 0.496100 0.868339
vt 0.496100 0.908603
vt 0.900769 0.967350
vt 0.900769 0.885178
vt 0.904878 0.885178
vt 0.904877 0.967350
vt 0.236009 0.816154
vt 0.236009 0.733982
vt 0.266412 0.733982
vt 0.266412 0.816154
vt 0.225326 0.823955
vt 0.225326 0.906127
vt 0.194923 0.906127
vt 0.194923 0.823955
vt 0.413928 0.680987
vt 0.496100 0.680987
vt 0.496100 0.714677
vt 0.413928 0.714677
vt 0.958684 0.569638
vt 0.958684 0.487466
vt 0.958684 0.487466
vt 0.962792 0.487466
vt 0.962792 0.487466
vt 0.960738 0.487466
vt 0.960738 0.569638
vt 0.413928 0.855191
vt 0.413928 0.821501
vt 0.496100 0.821501
vt 0.496100 0.855191
vt 0.228208 0.644009
vt 0.228208 0.726181
vt 0.189587 0.726181
vt 0.189587 0.644009
vt 0.496100 0.627575
vt 0.496100 0.667839
vt 0.413928 0.667839
vt 0.413928 0.627575
vt 0.717936 0.979665
vt 0.717936 0.897493
vt 0.715882 0.897493
vt 0.715882 0.897493
vt 0.717936 0.897493
vt 0.719990 0.897493
vt 0.719990 0.897493
vt 0.719990 0.979665
vt 0.282430 0.726181
vt 0.282430 0.644009
vt 0.312834 0.644009
vt 0.312834 0.726181
vt 0.960738 0.479665
vt 0.960738 0.397493
vt 0.958683 0.397493
vt 0.958683 0.397493
vt 0.962792 0.397493
vt 0.962792 0.397493
vt 0.962792 0.479665
vt 0.072508 0.823955
vt 0.072508 0.906127
vt 0.042105 0.906127
vt 0.042105 0.823955
vt 0.143165 0.726181
vt 0.143165 0.644009
vt 0.181786 0.644009
vt 0.181786 0.726181
vt 0.904877 0.407770
vt 0.906932 0.407770
vt 0.908986 0.409414
vt 0.908986 0.439817
vt 0.906932 0.441461
vt 0.904877 0.441461
vt 0.067140 0.913928
vt 0.067140 0.996100
vt 0.065085 0.996100
vt 0.065085 0.913928
vt 0.027719 0.913928
vt 0.027719 0.996100
vt 0.025665 0.996100
vt 0.025665 0.913928
vt 0.908986 0.362576
vt 0.908986 0.392979
vt 0.906932 0.394623
vt 0.904877 0.394623
vt 0.904877 0.360932
vt 0.906932 0.360932
vt 0.904877 0.454608
vt 0.906932 0.454608
vt 0.908986 0.456252
vt 0.908986 0.486655
vt 0.906932 0.488299
vt 0.904877 0.488299
vt 0.982086 0.003900
vt 0.984140 0.003900
vt 0.986195 0.003900
vt 0.986195 0.003900
vt 0.986195 0.086072
vt 0.984140 0.086072
vt 0.984140 0.003900
vt 0.982086 0.003900
vt 0.908986 0.533493
vt 0.906932 0.535137
vt 0.904877 0.535137
vt 0.904877 0.501446
vt 0.906932 0.501446
vt 0.908986 0.503090
vt 0.413928 0.808353
vt 0.413928 0.774663
vt 0.496100 0.774663
vt 0.496100 0.808353
vt 0.983735 0.929529
vt 0.983735 0.847357
vt 0.981681 0.847357
vt 0.981681 0.847357
vt 0.983735 0.847357
vt 0.985789 0.847357
vt 0.985789 0.847357
vt 0.985789 0.929529
vt 0.996050 0.183846
vt 0.996050 0.266018
vt 0.993996 0.266018
vt 0.993996 0.183846
vt 0.309119 0.823955
vt 0.309119 0.906127
vt 0.295972 0.906127
vt 0.295972 0.823955
vt 0.904877 0.347785
vt 0.906932 0.347785
vt 0.242039 0.981749
vt 0.239985 0.981749
vt 0.239985 0.968602
vt 0.242039 0.968602
vt 0.929934 0.667412
vt 0.929934 0.749583
vt 0.916787 0.749583
vt 0.916787 0.667412
vt 0.376904 0.981761
vt 0.374849 0.981761
vt 0.374849 0.968613
vt 0.376904 0.968613
vt 0.916787 0.839556
vt 0.916787 0.757384
vt 0.929934 0.757384
vt 0.929934 0.839556
vt 0.355574 0.981761
vt 0.353520 0.981761
vt 0.353520 0.968613
vt 0.355574 0.968613
vt 0.937735 0.479665
vt 0.937735 0.397493
vt 0.950883 0.397493
vt 0.950883 0.479665
vt 0.612147 0.981761
vt 0.610093 0.981761
vt 0.610093 0.968613
vt 0.612147 0.968613
vt 0.275024 0.906127
vt 0.275024 0.823955
vt 0.288171 0.823955
vt 0.288171 0.906127
vt 0.326009 0.981761
vt 0.323955 0.981761
vt 0.323955 0.968613
vt 0.326009 0.968613
vt 0.906932 0.548284
vt 0.904877 0.548284
vt 0.908986 0.307520
vt 0.908986 0.346141
vt 0.904877 0.307520
vt 0.981681 0.577439
vt 0.983735 0.577439
vt 0.985789 0.577439
vt 0.985789 0.577439
vt 0.985789 0.659611
vt 0.983735 0.659611
vt 0.983735 0.577439
vt 0.981681 0.577439
vt 0.908986 0.549928
vt 0.908986 0.588549
vt 0.904877 0.588549
vt 0.974285 0.093873
vt 0.974285 0.176045
vt 0.970177 0.176045
vt 0.970177 0.093873
vt 0.993590 0.839556
vt 0.993590 0.757384
vt 0.995644 0.757384
vt 0.995644 0.839556
vt 0.503900 0.727825
vt 0.586072 0.727825
vt 0.586072 0.761515
vt 0.503900 0.761515
vt 0.503900 0.908603
vt 0.503900 0.868339
vt 0.586072 0.868339
vt 0.586072 0.908603
vt 0.958267 0.086072
vt 0.958267 0.003900
vt 0.962376 0.003900
vt 0.962376 0.086072
vt 0.003900 0.906127
vt 0.003900 0.823955
vt 0.034304 0.823955
vt 0.034304 0.906127
vt 0.110713 0.733982
vt 0.110713 0.816154
vt 0.080309 0.816154
vt 0.080309 0.733982
vt 0.503900 0.680987
vt 0.586072 0.680987
vt 0.586072 0.714677
vt 0.503900 0.714677
vt 0.969771 0.929529
vt 0.969771 0.847357
vt 0.969771 0.847357
vt 0.973880 0.847357
vt 0.973880 0.847357
vt 0.971825 0.847357
vt 0.971825 0.929529
vt 0.503900 0.855191
vt 0.503900 0.821501
vt 0.586072 0.821501
vt 0.586072 0.855191
vt 0.042521 0.644009
vt 0.042521 0.726181
vt 0.003900 0.726181
vt 0.003900 0.644009
vt 0.586072 0.627575
vt 0.586072 0.667839
vt 0.503900 0.667839
vt 0.503900 0.627575
vt 0.972231 0.266018
vt 0.972231 0.183846
vt 0.970177 0.183846
vt 0.970177 0.183846
vt 0.972231 0.183846
vt 0.974285 0.183846
vt 0.974285 0.183846
vt 0.974285 0.266018
vt 0.080309 0.906127
vt 0.080309 0.823955
vt 0.110713 0.823955
vt 0.110713 0.906127
vt 0.983735 0.839556
vt 0.983735 0.757384
vt 0.981681 0.757384
vt 0.981681 0.757384
vt 0.985789 0.757384
vt 0.985789 0.757384
vt 0.985789 0.839556
vt 0.225326 0.733982
vt 0.225326 0.816154
vt 0.194923 0.816154
vt 0.194923 0.733982
vt 0.236009 0.726181
vt 0.236009 0.644009
vt 0.274629 0.644009
vt 0.274629 0.726181
vt 0.908986 0.777128
vt 0.906932 0.777128
vt 0.904877 0.775485
vt 0.904877 0.745081
vt 0.906932 0.743437
vt 0.908986 0.743437
vt 0.996050 0.003900
vt 0.996050 0.086072
vt 0.993996 0.086072
vt 0.993996 0.003900
vt 0.057284 0.913928
vt 0.057284 0.996100
vt 0.055230 0.996100
vt 0.055230 0.913928
vt 0.904877 0.822322
vt 0.904877 0.791919
vt 0.906932 0.790275
vt 0.908986 0.790275
vt 0.908986 0.823966
vt 0.906932 0.823966
vt 0.908986 0.730290
vt 0.906932 0.730290
vt 0.904877 0.728646
vt 0.904877 0.698243
vt 0.906932 0.696599
vt 0.908986 0.696599
vt 0.958267 0.183846
vt 0.960322 0.183846
vt 0.962376 0.183846
vt 0.962376 0.183846
vt 0.962376 0.266018
vt 0.960322 0.266018
vt 0.960322 0.183846
vt 0.958267 0.183846
vt 0.904877 0.651405
vt 0.906932 0.649761
vt 0.908986 0.649761
vt 0.908986 0.683452
vt 0.906932 0.683452
vt 0.904877 0.681808
vt 0.503900 0.808353
vt 0.503900 0.774663
vt 0.586072 0.774663
vt 0.586072 0.808353
vt 0.984140 0.176045
vt 0.984140 0.093873
vt 0.982086 0.093873
vt 0.982086 0.093873
vt 0.984140 0.093873
vt 0.986195 0.093873
vt 0.986195 0.093873
vt 0.986195 0.176045
vt 0.996050 0.093873
vt 0.996050 0.176045
vt 0.993996 0.176045
vt 0.993996 0.093873
vt 0.267223 0.823955
vt 0.267223 0.906127
vt 0.254075 0.906127
vt 0.254075 0.823955
vt 0.908986 0.837113
vt 0.906932 0.837113
vt 0.310220 0.981749
vt 0.308165 0.981749
vt 0.308165 0.968602
vt 0.310220 0.968602
vt 0.950883 0.487466
vt 0.950883 0.569638
vt 0.937735 0.569638
vt 0.937735 0.487466
vt 0.602292 0.981761
vt 0.600238 0.981761
vt 0.600238 0.968613
vt 0.602292 0.968613
vt 0.916787 0.929529
vt 0.916787 0.847357
vt 0.929934 0.847357
vt 0.929934 0.929529
vt 0.335864 0.981761
vt 0.333810 0.981761
vt 0.333810 0.968613
vt 0.335864 0.968613
vt 0.916787 0.479665
vt 0.916787 0.397493
vt 0.929934 0.397493
vt 0.929934 0.479665
vt 0.300365 0.981749
vt 0.298310 0.981749
vt 0.298310 0.968602
vt 0.300365 0.968602
vt 0.916371 0.266018
vt 0.916371 0.183846
vt 0.929518 0.183846
vt 0.929518 0.266018
vt 0.290510 0.981749
vt 0.288455 0.981749
vt 0.288455 0.968602
vt 0.290510 0.968602
vt 0.906932 0.636614
vt 0.908986 0.636614
vt 0.904877 0.877378
vt 0.904877 0.838757
vt 0.908986 0.877378
vt 0.982502 0.307520
vt 0.984557 0.307520
vt 0.986611 0.307520
vt 0.986611 0.307520
vt 0.986611 0.389692
vt 0.984557 0.389692
vt 0.984557 0.307520
vt 0.982502 0.307520
vt 0.904877 0.634970
vt 0.904877 0.596350
vt 0.908986 0.596350
vt 0.974285 0.003900
vt 0.974285 0.086072
vt 0.970177 0.086072
vt 0.970177 0.003900
vt 0.015810 0.996100
vt 0.015810 0.913928
vt 0.017864 0.913928
vt 0.017864 0.996100
vt 0.323955 0.727825
vt 0.406127 0.727825
vt 0.406127 0.761515
vt 0.323955 0.761515
vt 0.323955 0.908603
vt 0.323955 0.868339
vt 0.406127 0.868339
vt 0.406127 0.908603
vt 0.970593 0.389692
vt 0.970593 0.307520
vt 0.974702 0.307520
vt 0.974701 0.389692
vt 0.274213 0.816154
vt 0.274213 0.733982
vt 0.304617 0.733982
vt 0.304617 0.816154
vt 0.148917 0.823955
vt 0.148917 0.906127
vt 0.118514 0.906127
vt 0.118514 0.823955
vt 0.323955 0.680987
vt 0.406127 0.680987
vt 0.406127 0.714677
vt 0.323955 0.714677
vt 0.970593 0.479665
vt 0.970593 0.397493
vt 0.970593 0.397493
vt 0.974701 0.397493
vt 0.974701 0.397493
vt 0.972647 0.397493
vt 0.972647 0.479665
vt 0.323955 0.855191
vt 0.323955 0.821501
vt 0.406127 0.821501
vt 0.406127 0.855191
vt 0.088943 0.644009
vt 0.088943 0.726181
vt 0.050322 0.726181
vt 0.050322 0.644009
vt 0.406127 0.627575
vt 0.406127 0.667839
vt 0.323955 0.667839
vt 0.323955 0.627575
vt 0.983735 0.749583
vt 0.983735 0.667412
vt 0.981681 0.667412
vt 0.981681 0.667412
vt 0.983735 0.667412
vt 0.985789 0.667412
vt 0.985789 0.667412
vt 0.985789 0.749583
vt 0.156718 0.816154
vt 0.156718 0.733982
vt 0.187122 0.733982
vt 0.187122 0.816154
vt 0.972647 0.569638
vt 0.972647 0.487466
vt 0.970593 0.487466
vt 0.970593 0.487466
vt 0.974701 0.487466
vt 0.974702 0.487466
vt 0.974701 0.569638
vt 0.072508 0.733982
vt 0.072508 0.816154
vt 0.042105 0.816154
vt 0.042105 0.733982
vt 0.096744 0.726181
vt 0.096744 0.644009
vt 0.135365 0.644009
vt 0.135365 0.726181
vt 0.908570 0.184679
vt 0.906516 0.184679
vt 0.904461 0.183035
vt 0.904461 0.152632
vt 0.906516 0.150988
vt 0.908570 0.150988
vt 0.753664 0.897493
vt 0.753664 0.979665
vt 0.751610 0.979665
vt 0.751610 0.897493
vt 0.314472 0.733982
vt 0.314472 0.816154
vt 0.312418 0.816154
vt 0.312418 0.733982
vt 0.904461 0.229873
vt 0.904461 0.199470
vt 0.906516 0.197826
vt 0.908570 0.197826
vt 0.908570 0.231517
vt 0.906516 0.231517
vt 0.908570 0.137841
vt 0.906516 0.137841
vt 0.904461 0.136197
vt 0.904461 0.105794
vt 0.906516 0.104150
vt 0.908570 0.104150
vt 0.982086 0.183846
vt 0.984140 0.183846
vt 0.986195 0.183846
vt 0.986195 0.183846
vt 0.986195 0.266018
vt 0.984140 0.266018
vt 0.984140 0.183846
vt 0.982086 0.183846
vt 0.904461 0.058956
vt 0.906516 0.057312
vt 0.908570 0.057312
vt 0.908570 0.091003
vt 0.906516 0.091003
vt 0.904461 0.089359
vt 0.323955 0.808353
vt 0.323955 0.774663
vt 0.406127 0.774663
vt 0.406127 0.808353
vt 0.971825 0.659611
vt 0.971825 0.577439
vt 0.969771 0.577439
vt 0.969771 0.577439
vt 0.971825 0.577439
vt 0.973880 0.577439
vt 0.973880 0.577439
vt 0.973880 0.659611
vt 0.995644 0.847357
vt 0.995644 0.929529
vt 0.993590 0.929529
vt 0.993590 0.847357
vt 0.929934 0.307520
vt 0.929934 0.389692
vt 0.916787 0.389692
vt 0.916787 0.307520
vt 0.908570 0.244664
vt 0.906516 0.244664
vt 0.269550 0.968602
vt 0.271605 0.968602
vt 0.271605 0.981749
vt 0.269550 0.981749
vt 0.929934 0.487466
vt 0.929934 0.569638
vt 0.916787 0.569638
vt 0.916787 0.487466
vt 0.343665 0.968613
vt 0.345719 0.968613
vt 0.345719 0.981761
vt 0.343665 0.981761
vt 0.937319 0.176045
vt 0.937319 0.093873
vt 0.950467 0.093873
vt 0.950467 0.176045
vt 0.384704 0.968613
vt 0.386759 0.968613
vt 0.386759 0.981761
vt 0.384704 0.981761
vt 0.937319 0.266018
vt 0.937319 0.183846
vt 0.950467 0.183846
vt 0.950467 0.266018
vt 0.414269 0.968613
vt 0.416324 0.968613
vt 0.416324 0.981761
vt 0.414269 0.981761
vt 0.916371 0.086072
vt 0.916371 0.003900
vt 0.929518 0.003900
vt 0.929518 0.086072
vt 0.852276 0.967257
vt 0.854331 0.967257
vt 0.854331 0.980405
vt 0.852276 0.980405
vt 0.906516 0.044165
vt 0.908570 0.044165
vt 0.904461 0.284929
vt 0.904461 0.246308
vt 0.908570 0.284929
vt 0.958683 0.307520
vt 0.960738 0.307520
vt 0.962792 0.307520
vt 0.962792 0.307520
vt 0.962792 0.389692
vt 0.960738 0.389692
vt 0.960738 0.307520
vt 0.958683 0.307520
vt 0.904461 0.042521
vt 0.904461 0.003900
vt 0.908570 0.003900
vt 0.962376 0.093873
vt 0.962376 0.176045
vt 0.958267 0.176045
vt 0.958267 0.093873
vt 0.215750 0.961089
vt 0.215750 0.943052
vt 0.232184 0.943052
vt 0.232184 0.961089
vt 0.113920 0.961089
vt 0.113920 0.943052
vt 0.130354 0.943052
vt 0.130354 0.961089
vt 0.551768 0.916404
vt 0.568202 0.916404
vt 0.568202 0.937728
vt 0.551768 0.937728
vt 0.454827 0.916404
vt 0.471261 0.916404
vt 0.471261 0.937728
vt 0.454827 0.937728
vt 0.291376 0.931964
vt 0.309412 0.931964
vt 0.312699 0.935251
vt 0.291376 0.935251
vt 0.204580 0.931964
vt 0.222617 0.931964
vt 0.222617 0.935251
vt 0.201293 0.935251
vt 0.983740 0.937330
vt 0.983740 0.953764
vt 0.980453 0.953764
vt 0.980453 0.937330
vt 0.309412 0.913928
vt 0.312699 0.913928
vt 0.204580 0.913928
vt 0.201293 0.913928
vt 0.980453 0.978000
vt 0.980453 0.961565
vt 0.983740 0.961565
vt 0.983740 0.978000
vt 0.806687 0.959456
vt 0.806687 0.941420
vt 0.823122 0.941420
vt 0.823122 0.959456
vt 0.191515 0.961089
vt 0.191515 0.943052
vt 0.207949 0.943052
vt 0.207949 0.961089
vt 0.430592 0.916404
vt 0.447026 0.916404
vt 0.447026 0.937728
vt 0.430592 0.937728
vt 0.862430 0.914760
vt 0.878865 0.914760
vt 0.878865 0.936084
vt 0.862430 0.936084
vt 0.236414 0.913928
vt 0.236414 0.931964
vt 0.233127 0.935251
vt 0.233127 0.913928
vt 0.280288 0.931964
vt 0.280288 0.913928
vt 0.283575 0.913928
vt 0.283575 0.935251
vt 0.876805 0.968120
vt 0.876805 0.984554
vt 0.873518 0.984554
vt 0.873518 0.968120
vt 0.254451 0.931964
vt 0.254451 0.935251
vt 0.262251 0.931964
vt 0.262251 0.935251
vt 0.701528 0.959498
vt 0.701528 0.943063
vt 0.704815 0.943063
vt 0.704815 0.959498
vt 0.830923 0.959456
vt 0.830923 0.941420
vt 0.847357 0.941420
vt 0.847357 0.959456
vt 0.084795 0.961089
vt 0.084795 0.943052
vt 0.101230 0.943052
vt 0.101230 0.961089
vt 0.576003 0.916404
vt 0.592437 0.916404
vt 0.592437 0.937728
vt 0.576003 0.937728
vt 0.479062 0.916404
vt 0.495497 0.916404
vt 0.495497 0.937727
vt 0.479062 0.937727
vt 0.175456 0.913928
vt 0.175456 0.931964
vt 0.172169 0.935251
vt 0.172169 0.913928
vt 0.161081 0.917214
vt 0.143044 0.917214
vt 0.143044 0.913928
vt 0.164368 0.913928
vt 0.785739 0.968079
vt 0.785739 0.984513
vt 0.782452 0.984513
vt 0.782452 0.968079
vt 0.193492 0.931964
vt 0.193492 0.935251
vt 0.161081 0.935251
vt 0.164368 0.935251
vt 0.793540 0.984513
vt 0.793540 0.968079
vt 0.796827 0.968079
vt 0.796827 0.984513
vt 0.167279 0.961089
vt 0.167279 0.943052
vt 0.183714 0.943052
vt 0.183714 0.961089
vt 0.143044 0.961089
vt 0.143044 0.943052
vt 0.159479 0.943052
vt 0.159479 0.961089
vt 0.527533 0.916404
vt 0.543967 0.916404
vt 0.543967 0.937728
vt 0.527533 0.937728
vt 0.503297 0.916404
vt 0.519732 0.916404
vt 0.519732 0.937728
vt 0.503297 0.937728
vt 0.131957 0.935251
vt 0.131957 0.917214
vt 0.135243 0.913928
vt 0.135243 0.935251
vt 0.088082 0.931964
vt 0.106119 0.931964
vt 0.106119 0.935251
vt 0.084795 0.935251
vt 0.865717 0.968120
vt 0.865717 0.984554
vt 0.862430 0.984554
vt 0.862430 0.968120
vt 0.113920 0.917214
vt 0.113920 0.913928
vt 0.088082 0.913928
vt 0.084795 0.913928
vt 0.701528 0.983733
vt 0.701528 0.967298
vt 0.704815 0.967298
vt 0.704815 0.983733
vn 0.0000 0.0000 1.0000
vn 0.0000 0.0000 -1.0000
vn -1.0000 0.0000 0.0000
vn 1.0000 0.0000 0.0000
vn 0.0000 1.0000 0.0000
vn 0.0000 -1.0000 0.0000
vn 0.7809 -0.6247 0.0000
vn 0.6225 -0.4980 -0.6038
vn -0.6623 -0.5298 -0.5298
vn -0.6225 -0.4980 -0.6038
vn 0.6247 0.7809 0.0000
vn 0.4980 0.6225 -0.6038
vn 0.5298 -0.6623 -0.5298
vn 0.4980 -0.6225 -0.6038
vn -0.7809 0.6247 0.0000
vn -0.6225 0.4980 -0.6038
vn 0.6623 0.5298 -0.5298
vn 0.6225 0.4980 -0.6038
vn -0.6247 -0.7809 0.0000
vn -0.4980 -0.6225 -0.6038
vn -0.5298 0.6623 -0.5298
vn -0.4980 0.6225 -0.6038
usemtl 物品存放托盘
s off
f 9/1/1 11/2/1 3/3/1 1/4/1
f 6/5/2 8/6/2 4/7/2 2/8/2
f 11/9/3 12/10/3 4/11/3 3/12/3
f 9/13/4 1/14/4 2/15/4 10/16/4
f 1/17/5 5/18/5 6/19/5 2/20/5
f 1/4/1 3/3/1 7/21/1 5/22/1
f 3/23/6 4/24/6 8/25/6 7/26/6
f 2/8/2 4/7/2 12/27/2 10/28/2
f 18/29/1 17/30/1 14/31/1 13/32/1
f 20/33/6 19/34/6 17/35/6 18/36/6
f 19/37/2 20/38/2 16/39/2 15/40/2
f 13/41/5 14/42/5 15/43/5 16/44/5
f 10/45/5 12/46/5 11/47/5 9/48/5
f 6/49/4 5/50/4 7/51/4 8/52/4
f 18/53/3 13/54/3 16/55/3 20/56/3
f 14/57/4 17/58/4 19/59/4 15/60/4
f 29/61/1 31/62/1 23/63/1 21/64/1
f 26/65/2 28/66/2 24/67/2 22/68/2
f 31/69/6 32/70/6 24/71/6 23/72/6
f 29/73/5 21/74/5 22/75/5 30/76/5
f 21/77/3 25/78/3 26/79/3 22/80/3
f 21/64/1 23/63/1 27/81/1 25/82/1
f 23/83/4 24/84/4 28/85/4 27/86/4
f 22/68/2 24/67/2 32/87/2 30/88/2
f 38/89/1 37/90/1 34/91/1 33/92/1
f 40/93/4 39/94/4 37/95/4 38/96/4
f 39/97/2 40/98/2 36/99/2 35/100/2
f 33/101/3 34/102/3 35/103/3 36/104/3
f 30/105/3 32/106/3 31/107/3 29/108/3
f 26/109/5 25/110/5 27/111/5 28/112/5
f 38/113/6 33/114/6 36/115/6 40/116/6
f 34/117/5 37/118/5 39/119/5 35/120/5
f 49/121/1 51/122/1 43/123/1 41/124/1
f 46/125/2 48/126/2 44/127/2 42/128/2
f 51/129/4 52/130/4 44/131/4 43/132/4
f 49/133/3 41/134/3 42/135/3 50/136/3
f 41/137/6 45/138/6 46/139/6 42/140/6
f 41/124/1 43/123/1 47/141/1 45/142/1
f 43/143/5 44/144/5 48/145/5 47/146/5
f 42/128/2 44/127/2 52/147/2 50/148/2
f 58/149/1 57/150/1 54/151/1 53/152/1
f 60/153/5 59/154/5 57/155/5 58/156/5
f 59/157/2 60/158/2 56/159/2 55/160/2
f 53/161/6 54/162/6 55/163/6 56/164/6
f 50/165/6 52/166/6 51/167/6 49/168/6
f 46/169/3 45/170/3 47/171/3 48/172/3
f 58/173/4 53/174/4 56/175/4 60/176/4
f 54/177/3 57/178/3 59/179/3 55/180/3
f 69/181/1 71/182/1 63/183/1 61/184/1
f 66/185/2 68/186/2 64/187/2 62/188/2
f 71/189/5 72/190/5 64/191/5 63/192/5
f 69/193/6 61/194/6 62/195/6 70/196/6
f 61/197/4 65/198/4 66/199/4 62/200/4
f 61/184/1 63/183/1 67/201/1 65/202/1
f 63/203/3 64/204/3 68/205/3 67/206/3
f 62/188/2 64/187/2 72/207/2 70/208/2
f 78/209/1 77/210/1 74/211/1 73/212/1
f 80/213/3 79/214/3 77/215/3 78/216/3
f 79/217/2 80/218/2 76/219/2 75/220/2
f 73/221/4 74/222/4 75/223/4 76/224/4
f 70/225/4 72/226/4 71/227/4 69/228/4
f 66/229/6 65/230/6 67/231/6 68/232/6
f 78/233/5 73/234/5 76/235/5 80/236/5
f 74/237/6 77/238/6 79/239/6 75/240/6
f 121/241/1 86/242/1 83/243/1 87/244/1
f 85/245/5 81/246/5 97/247/5 117/248/5
f 111/249/3 101/250/3 84/251/3 88/252/3
f 98/253/4 103/254/4 81/255/4 87/256/4
f 83/257/4 105/258/4 98/253/4 87/256/4
f 86/259/6 84/260/6 107/261/6 99/262/6
f 99/262/6 109/263/6 83/264/6 86/259/6
f 117/248/5 112/265/5 82/266/5 85/245/5
f 88/252/3 82/267/3 115/268/3 111/249/3
f 85/269/1 121/241/1 87/244/1 81/270/1
f 88/271/1 84/272/1 86/242/1 121/241/1
f 82/273/1 88/271/1 121/241/1 85/269/1
f 93/274/5 119/275/5 100/276/5 89/277/5
f 89/277/5 100/276/5 97/247/5 81/246/5
f 96/278/3 92/279/3 102/280/3 114/281/3
f 84/251/3 101/250/3 102/280/3 92/279/3
f 95/282/4 89/283/4 104/284/4 120/285/4
f 81/255/4 103/254/4 104/284/4 89/283/4
f 91/286/4 106/287/4 105/258/4 83/257/4
f 94/288/6 118/289/6 108/290/6 92/291/6
f 92/291/6 108/290/6 107/261/6 84/260/6
f 94/288/6 91/292/6 110/293/6 118/289/6
f 83/264/6 109/263/6 110/293/6 91/292/6
f 93/274/5 90/294/5 113/295/5 119/275/5
f 82/266/5 112/265/5 113/295/5 90/294/5
f 96/278/3 114/281/3 116/296/3 90/297/3
f 90/297/3 116/296/3 115/268/3 82/267/3
f 95/282/4 120/285/4 106/287/4 91/286/4
f 162/298/2 128/299/2 124/300/2 127/301/2
f 126/302/6 158/303/6 138/304/6 122/305/6
f 152/306/4 129/307/4 125/308/4 142/309/4
f 139/310/3 128/311/3 122/312/3 144/313/3
f 124/314/3 128/311/3 139/310/3 146/315/3
f 127/316/5 140/317/5 148/318/5 125/319/5
f 140/317/5 127/316/5 124/320/5 150/321/5
f 158/303/6 126/302/6 123/322/6 153/323/6
f 129/307/4 152/306/4 156/324/4 123/325/4
f 126/326/2 122/327/2 128/299/2 162/298/2
f 129/328/2 162/298/2 127/301/2 125/329/2
f 123/330/2 126/326/2 162/298/2 129/328/2
f 134/331/6 130/332/6 141/333/6 160/334/6
f 130/332/6 122/305/6 138/304/6 141/333/6
f 137/335/4 155/336/4 143/337/4 133/338/4
f 125/308/4 133/338/4 143/337/4 142/309/4
f 136/339/3 161/340/3 145/341/3 130/342/3
f 122/312/3 130/342/3 145/341/3 144/313/3
f 132/343/3 124/314/3 146/315/3 147/344/3
f 135/345/5 133/346/5 149/347/5 159/348/5
f 133/346/5 125/319/5 148/318/5 149/347/5
f 135/345/5 159/348/5 151/349/5 132/350/5
f 124/320/5 132/350/5 151/349/5 150/321/5
f 134/331/6 160/334/6 154/351/6 131/352/6
f 123/322/6 131/352/6 154/351/6 153/323/6
f 137/335/4 131/353/4 157/354/4 155/336/4
f 131/353/4 123/325/4 156/324/4 157/354/4
f 136/339/3 132/343/3 147/344/3 161/340/3
f 90/355/1 93/356/1 134/357/1 131/358/1
f 114/359/2 102/360/2 143/361/2 155/362/2
f 106/363/2 120/364/2 161/365/2 147/366/2
f 102/367/6 101/368/6 142/369/6 143/370/6
f 111/371/1 115/372/1 156/373/1 152/374/1
f 94/375/1 92/376/1 133/377/1 135/378/1
f 120/364/2 104/379/2 145/380/2 161/365/2
f 115/381/5 116/382/5 157/383/5 156/384/5
f 110/385/4 109/386/4 150/387/4 151/388/4
f 103/389/1 98/390/1 139/391/1 144/392/1
f 92/376/1 96/393/1 137/394/1 133/377/1
f 96/393/1 90/355/1 131/358/1 137/394/1
f 98/390/1 105/395/1 146/396/1 139/391/1
f 104/397/5 103/398/5 144/399/5 145/400/5
f 91/401/1 94/375/1 135/378/1 132/402/1
f 112/403/1 117/404/1 158/405/1 153/406/1
f 116/407/2 114/359/2 155/362/2 157/408/2
f 89/409/1 95/410/1 136/411/1 130/412/1
f 117/404/1 97/413/1 138/414/1 158/405/1
f 97/415/4 100/416/4 141/417/4 138/418/4
f 105/419/6 106/420/6 147/421/6 146/422/6
f 118/423/2 110/424/2 151/425/2 159/426/2
f 113/427/3 112/428/3 153/429/3 154/430/3
f 108/431/2 118/423/2 159/426/2 149/432/2
f 109/433/1 99/434/1 140/435/1 150/436/1
f 101/437/1 111/371/1 152/374/1 142/438/1
f 95/410/1 91/401/1 132/402/1 136/411/1
f 119/439/2 113/440/2 154/441/2 160/442/2
f 99/434/1 107/443/1 148/444/1 140/435/1
f 100/445/2 119/439/2 160/442/2 141/446/2
f 93/356/1 89/409/1 130/412/1 134/357/1
f 107/447/3 108/448/3 149/449/3 148/450/3
f 179/451/7 176/452/7 203/453/7 206/454/7
f 218/455/5 215/456/5 208/457/5 209/458/5
f 164/459/5 192/460/5 193/461/5 163/462/5
f 164/463/3 163/464/3 167/465/3 168/466/3
f 173/467/6 172/468/6 184/469/6 187/470/6
f 176/471/6 179/472/6 182/473/6 177/474/6
f 226/475/5 223/476/5 216/477/5 217/478/5
f 181/479/8 178/480/8 167/481/8 163/482/8 193/483/8 195/484/8 198/485/8
f 191/486/5 200/487/5 201/488/5 194/489/5
f 178/490/6 181/491/6 168/492/6 167/493/6
f 165/494/5 224/495/5 225/496/5 166/497/5
f 197/498/9 196/499/9 194/500/9 201/501/9 203/502/9 176/503/9 177/504/9 182/505/9
f 188/506/6 183/507/6 186/508/6 189/509/6
f 229/510/10 228/511/10 224/512/10 165/513/10 169/514/10 185/515/10 190/516/10
f 171/517/6 174/518/6 180/519/6 175/520/6
f 190/521/6 185/522/6 169/523/6 170/524/6
f 199/525/1 205/526/1 180/527/1 174/528/1 214/529/1 210/530/1
f 227/531/7 230/532/7 189/533/7 186/534/7
f 221/535/7 220/536/7 187/537/7 184/538/7
f 182/539/1 179/540/1 206/541/1 200/542/1 191/543/1 197/544/1
f 209/545/1 213/546/1 173/547/1 187/548/1 220/549/1 218/550/1
f 223/551/9 227/552/9 186/553/9 183/554/9 188/555/9 219/556/9 222/557/9 216/558/9
f 189/559/1 230/560/1 226/561/1 217/562/1 219/563/1 188/564/1
f 199/565/5 210/566/5 207/567/5 202/568/5
f 205/569/9 204/570/9 202/571/9 207/572/9 211/573/9 171/574/9 175/575/9 180/576/9
f 211/577/7 214/578/7 174/579/7 171/580/7
f 196/581/6 197/582/6 198/583/6 195/584/6
f 197/544/1 191/543/1 192/585/1 198/586/1
f 195/587/2 193/588/2 194/589/2 196/590/2
f 191/486/5 194/489/5 193/461/5 192/460/5
f 204/591/6 205/592/6 206/593/6 203/594/6
f 205/526/1 199/525/1 200/542/1 206/541/1
f 203/595/2 201/596/2 202/597/2 204/598/2
f 199/565/5 202/568/5 201/488/5 200/487/5
f 214/599/6 211/600/6 212/601/6 213/602/6
f 211/603/2 207/604/2 208/605/2 212/606/2
f 213/546/1 209/545/1 210/530/1 214/529/1
f 209/458/5 208/457/5 207/567/5 210/566/5
f 220/607/6 221/608/6 222/609/6 219/610/6
f 221/611/2 215/612/2 216/613/2 222/614/2
f 219/563/1 217/562/1 218/550/1 220/549/1
f 215/456/5 218/455/5 217/478/5 216/477/5
f 230/615/6 227/616/6 228/617/6 229/618/6
f 227/619/2 223/620/2 224/621/2 228/622/2
f 229/623/1 225/624/1 226/561/1 230/560/1
f 223/476/5 226/475/5 225/496/5 224/495/5
f 168/625/1 181/626/1 198/586/1 192/585/1 164/627/1
f 215/628/9 221/629/9 184/630/9 172/631/9 173/632/9 213/633/9 212/634/9 208/635/9
f 225/624/1 229/623/1 190/636/1 170/637/1 166/638/1
f 165/639/4 166/640/4 170/641/4 169/642/4
f 247/643/11 244/644/11 271/645/11 274/646/11
f 286/647/3 283/648/3 276/649/3 277/650/3
f 232/651/3 260/652/3 261/653/3 231/654/3
f 232/655/6 231/656/6 235/657/6 236/658/6
f 241/659/4 240/660/4 252/661/4 255/662/4
f 244/663/4 247/664/4 250/665/4 245/666/4
f 294/667/3 291/668/3 284/669/3 285/670/3
f 249/671/12 246/672/12 235/673/12 231/674/12 261/675/12 263/676/12 266/677/12
f 259/678/3 268/679/3 269/680/3 262/681/3
f 246/682/4 249/683/4 236/684/4 235/685/4
f 233/686/3 292/687/3 293/688/3 234/689/3
f 265/690/13 264/691/13 262/692/13 269/693/13 271/694/13 244/695/13 245/696/13 250/697/13
f 256/698/4 251/699/4 254/700/4 257/701/4
f 297/702/14 296/703/14 292/704/14 233/705/14 237/706/14 253/707/14 258/708/14
f 239/709/4 242/710/4 248/711/4 243/712/4
f 258/713/4 253/714/4 237/715/4 238/716/4
f 267/717/1 273/718/1 248/719/1 242/720/1 282/721/1 278/722/1
f 295/723/11 298/724/11 257/725/11 254/726/11
f 289/727/11 288/728/11 255/729/11 252/730/11
f 250/731/1 247/732/1 274/733/1 268/734/1 259/735/1 265/736/1
f 277/737/1 281/738/1 241/739/1 255/740/1 288/741/1 286/742/1
f 291/743/13 295/744/13 254/745/13 251/746/13 256/747/13 287/748/13 290/749/13 284/750/13
f 257/751/1 298/752/1 294/753/1 285/754/1 287/755/1 256/756/1
f 267/757/3 278/758/3 275/759/3 270/760/3
f 273/761/13 272/762/13 270/763/13 275/764/13 279/765/13 239/766/13 243/767/13 248/768/13
f 279/769/11 282/770/11 242/771/11 239/772/11
f 264/773/4 265/774/4 266/775/4 263/776/4
f 265/736/1 259/735/1 260/777/1 266/778/1
f 263/779/2 261/780/2 262/781/2 264/782/2
f 259/678/3 262/681/3 261/653/3 260/652/3
f 272/783/4 273/784/4 274/785/4 271/786/4
f 273/718/1 267/717/1 268/734/1 274/733/1
f 271/787/2 269/788/2 270/789/2 272/790/2
f 267/757/3 270/760/3 269/680/3 268/679/3
f 282/791/4 279/792/4 280/793/4 281/794/4
f 279/795/2 275/796/2 276/797/2 280/798/2
f 281/738/1 277/737/1 278/722/1 282/721/1
f 277/650/3 276/649/3 275/759/3 278/758/3
f 288/799/4 289/800/4 290/801/4 287/802/4
f 289/803/2 283/804/2 284/805/2 290/806/2
f 287/755/1 285/754/1 286/742/1 288/741/1
f 283/648/3 286/647/3 285/670/3 284/669/3
f 298/807/4 295/808/4 296/809/4 297/810/4
f 295/811/2 291/812/2 292/813/2 296/814/2
f 297/815/1 293/816/1 294/753/1 298/752/1
f 291/668/3 294/667/3 293/688/3 292/687/3
f 236/817/1 249/818/1 266/778/1 260/777/1 232/819/1
f 283/820/13 289/821/13 252/822/13 240/823/13 241/824/13 281/825/13 280/826/13 276/827/13
f 293/816/1 297/815/1 258/828/1 238/829/1 234/830/1
f 233/831/5 234/832/5 238/833/5 237/834/5
f 315/835/15 312/836/15 339/837/15 342/838/15
f 354/839/6 351/840/6 344/841/6 345/842/6
f 300/843/6 328/844/6 329/845/6 299/846/6
f 300/847/4 299/848/4 303/849/4 304/850/4
f 309/851/5 308/852/5 320/853/5 323/854/5
f 312/855/5 315/856/5 318/857/5 313/858/5
f 362/859/6 359/860/6 352/861/6 353/862/6
f 317/863/16 314/864/16 303/865/16 299/866/16 329/867/16 331/868/16 334/869/16
f 327/870/6 336/871/6 337/872/6 330/873/6
f 314/874/5 317/875/5 304/876/5 303/877/5
f 301/878/6 360/879/6 361/880/6 302/881/6
f 333/882/17 332/883/17 330/884/17 337/885/17 339/886/17 312/887/17 313/888/17 318/889/17
f 324/890/5 319/891/5 322/892/5 325/893/5
f 365/894/18 364/895/18 360/896/18 301/897/18 305/898/18 321/899/18 326/900/18
f 307/901/5 310/902/5 316/903/5 311/904/5
f 326/905/5 321/906/5 305/907/5 306/908/5
f 335/909/1 341/910/1 316/911/1 310/912/1 350/913/1 346/914/1
f 363/915/15 366/916/15 325/917/15 322/918/15
f 357/919/15 356/920/15 323/921/15 320/922/15
f 318/923/1 315/924/1 342/925/1 336/926/1 327/927/1 333/928/1
f 345/929/1 349/930/1 309/931/1 323/932/1 356/933/1 354/934/1
f 359/935/17 363/936/17 322/937/17 319/938/17 324/939/17 355/940/17 358/941/17 352/942/17
f 325/943/1 366/944/1 362/945/1 353/946/1 355/947/1 324/948/1
f 335/949/6 346/950/6 343/951/6 338/952/6
f 341/953/17 340/954/17 338/955/17 343/956/17 347/957/17 307/958/17 311/959/17 316/960/17
f 347/961/15 350/962/15 310/963/15 307/964/15
f 332/965/5 333/966/5 334/967/5 331/968/5
f 333/928/1 327/927/1 328/969/1 334/970/1
f 331/971/2 329/972/2 330/973/2 332/974/2
f 327/870/6 330/873/6 329/845/6 328/844/6
f 340/975/5 341/976/5 342/977/5 339/978/5
f 341/910/1 335/909/1 336/926/1 342/925/1
f 339/979/2 337/980/2 338/981/2 340/982/2
f 335/949/6 338/952/6 337/872/6 336/871/6
f 350/983/5 347/984/5 348/985/5 349/986/5
f 347/987/2 343/988/2 344/989/2 348/990/2
f 349/930/1 345/929/1 346/914/1 350/913/1
f 345/842/6 344/841/6 343/951/6 346/950/6
f 356/991/5 357/992/5 358/993/5 355/994/5
f 357/995/2 351/996/2 352/997/2 358/998/2
f 355/947/1 353/946/1 354/934/1 356/933/1
f 351/840/6 354/839/6 353/862/6 352/861/6
f 366/999/5 363/1000/5 364/1001/5 365/1002/5
f 363/1003/2 359/1004/2 360/1005/2 364/1006/2
f 365/1007/1 361/1008/1 362/945/1 366/944/1
f 359/860/6 362/859/6 361/880/6 360/879/6
f 304/1009/1 317/1010/1 334/970/1 328/969/1 300/1011/1
f 351/1012/17 357/1013/17 320/1014/17 308/1015/17 309/1016/17 349/1017/17 348/1018/17 344/1019/17
f 361/1008/1 365/1007/1 326/1020/1 306/1021/1 302/1022/1
f 301/1023/3 302/1024/3 306/1025/3 305/1026/3
f 383/1027/19 380/1028/19 407/1029/19 410/1030/19
f 422/1031/4 419/1032/4 412/1033/4 413/1034/4
f 368/1035/4 396/1036/4 397/1037/4 367/1038/4
f 368/1039/5 367/1040/5 371/1041/5 372/1042/5
f 377/1043/3 376/1044/3 388/1045/3 391/1046/3
f 380/1047/3 383/1048/3 386/1049/3 381/1050/3
f 430/1051/4 427/1052/4 420/1053/4 421/1054/4
f 385/1055/20 382/1056/20 371/1057/20 367/1058/20 397/1059/20 399/1060/20 402/1061/20
f 395/1062/4 404/1063/4 405/1064/4 398/1065/4
f 382/1066/3 385/1067/3 372/1068/3 371/1069/3
f 369/1070/4 428/1071/4 429/1072/4 370/1073/4
f 401/1074/21 400/1075/21 398/1076/21 405/1077/21 407/1078/21 380/1079/21 381/1080/21 386/1081/21
f 392/1082/3 387/1083/3 390/1084/3 393/1085/3
f 433/1086/22 432/1087/22 428/1088/22 369/1089/22 373/1090/22 389/1091/22 394/1092/22
f 375/1093/3 378/1094/3 384/1095/3 379/1096/3
f 394/1097/3 389/1098/3 373/1099/3 374/1100/3
f 403/1101/1 409/1102/1 384/1103/1 378/1104/1 418/1105/1 414/1106/1
f 431/1107/19 434/1108/19 393/1109/19 390/1110/19
f 425/1111/19 424/1112/19 391/1113/19 388/1114/19
f 386/1115/1 383/1116/1 410/1117/1 404/1118/1 395/1119/1 401/1120/1
f 413/1121/1 417/1122/1 377/1123/1 391/1124/1 424/1125/1 422/1126/1
f 427/1127/21 431/1128/21 390/1129/21 387/1130/21 392/1131/21 423/1132/21 426/1133/21 420/1134/21
f 393/1135/1 434/1136/1 430/1137/1 421/1138/1 423/1139/1 392/1140/1
f 403/1141/4 414/1142/4 411/1143/4 406/1144/4
f 409/1145/21 408/1146/21 406/1147/21 411/1148/21 415/1149/21 375/1150/21 379/1151/21 384/1152/21
f 415/1153/19 418/1154/19 378/1155/19 375/1156/19
f 400/1157/3 401/1158/3 402/1159/3 399/1160/3
f 401/1120/1 395/1119/1 396/1161/1 402/1162/1
f 399/1163/2 397/1164/2 398/1165/2 400/1166/2
f 395/1062/4 398/1065/4 397/1037/4 396/1036/4
f 408/1167/3 409/1168/3 410/1169/3 407/1170/3
f 409/1102/1 403/1101/1 404/1118/1 410/1117/1
f 407/1171/2 405/1172/2 406/1173/2 408/1174/2
f 403/1141/4 406/1144/4 405/1064/4 404/1063/4
f 418/1175/3 415/1176/3 416/1177/3 417/1178/3
f 415/1179/2 411/1180/2 412/1181/2 416/1182/2
f 417/1122/1 413/1121/1 414/1106/1 418/1105/1
f 413/1034/4 412/1033/4 411/1143/4 414/1142/4
f 424/1183/3 425/1184/3 426/1185/3 423/1186/3
f 425/1187/2 419/1188/2 420/1189/2 426/1190/2
f 423/1139/1 421/1138/1 422/1126/1 424/1125/1
f 419/1032/4 422/1031/4 421/1054/4 420/1053/4
f 434/1191/3 431/1192/3 432/1193/3 433/1194/3
f 431/1195/2 427/1196/2 428/1197/2 432/1198/2
f 433/1199/1 429/1200/1 430/1137/1 434/1136/1
f 427/1052/4 430/1051/4 429/1072/4 428/1071/4
f 372/1201/1 385/1202/1 402/1162/1 396/1161/1 368/1203/1
f 419/1204/21 425/1205/21 388/1206/21 376/1207/21 377/1208/21 417/1209/21 416/1210/21 412/1211/21
f 429/1200/1 433/1199/1 394/1212/1 374/1213/1 370/1214/1
f 369/1215/6 370/1216/6 374/1217/6 373/1218/6
f 439/1219/4 435/1220/4 436/1221/4 440/1222/4
f 435/1223/5 437/1224/5 438/1225/5 436/1226/5
f 445/1227/3 446/1228/3 442/1229/3 441/1230/3
f 441/1231/6 442/1232/6 444/1233/6 443/1234/6
f 437/1235/1 435/1236/1 441/1237/1 443/1238/1
f 436/1239/2 438/1240/2 444/1241/2 442/1242/2
f 438/1243/4 437/1244/4 443/1245/4 444/1246/4
f 435/1236/1 439/1247/1 445/1248/1 441/1237/1
f 440/1249/2 436/1239/2 442/1242/2 446/1250/2
f 439/1251/5 440/1252/5 446/1253/5 445/1254/5
f 451/1255/5 447/1256/5 448/1257/5 452/1258/5
f 447/1259/3 449/1260/3 450/1261/3 448/1262/3
f 457/1263/6 458/1264/6 454/1265/6 453/1266/6
f 453/1267/4 454/1268/4 456/1269/4 455/1270/4
f 449/1271/1 447/1272/1 453/1273/1 455/1274/1
f 448/1275/2 450/1276/2 456/1277/2 454/1278/2
f 450/1279/5 449/1280/5 455/1281/5 456/1282/5
f 447/1272/1 451/1283/1 457/1284/1 453/1273/1
f 452/1285/2 448/1275/2 454/1278/2 458/1286/2
f 451/1287/3 452/1288/3 458/1289/3 457/1290/3
f 463/1291/3 459/1292/3 460/1293/3 464/1294/3
f 459/1295/6 461/1296/6 462/1297/6 460/1298/6
f 469/1299/4 470/1300/4 466/1301/4 465/1302/4
f 465/1303/5 466/1304/5 468/1305/5 467/1306/5
f 461/1307/1 459/1308/1 465/1309/1 467/1310/1
f 460/1311/2 462/1312/2 468/1313/2 466/1314/2
f 462/1315/3 461/1316/3 467/1317/3 468/1318/3
f 459/1308/1 463/1319/1 469/1320/1 465/1309/1
f 464/1321/2 460/1311/2 466/1314/2 470/1322/2
f 463/1323/6 464/1324/6 470/1325/6 469/1326/6
f 475/1327/6 471/1328/6 472/1329/6 476/1330/6
f 471/1331/4 473/1332/4 474/1333/4 472/1334/4
f 481/1335/5 482/1336/5 478/1337/5 477/1338/5
f 477/1339/3 478/1340/3 480/1341/3 479/1342/3
f 473/1343/1 471/1344/1 477/1345/1 479/1346/1
f 472/1347/2 474/1348/2 480/1349/2 478/1350/2
f 474/1351/6 473/1352/6 479/1353/6 480/1354/6
f 471/1344/1 475/1355/1 481/1356/1 477/1345/1
f 476/1357/2 472/1347/2 478/1350/2 482/1358/2
f 475/1359/4 476/1360/4 482/1361/4 481/1362/4
