# Blender v3.0.1 OBJ File: 'clean_sponge.blend'
# www.blender.org
mtllib textured.mtl
o Object_3_Object_0
v -0.020768 0.019242 -0.011528
v -0.021427 0.024099 -0.011528
v -0.000000 0.024099 -0.011528
v -0.004898 0.044664 -0.011528
v -0.000000 0.044999 -0.011528
v -0.009658 0.043477 -0.011528
v -0.013995 0.041229 -0.011528
v -0.017607 0.037935 -0.011528
v -0.020092 0.033730 -0.011528
v -0.021310 0.028995 -0.011528
v -0.019631 0.014469 -0.011528
v -0.018379 0.009739 -0.011528
v -0.000000 -0.000000 -0.011528
v -0.017266 -0.000000 -0.011528
v -0.017536 0.004903 -0.011528
v 0.017266 -0.000000 0.011528
v 0.017266 -0.000000 -0.011528
v 0.017536 0.004903 0.011528
v 0.017536 0.004903 -0.011528
v 0.021310 0.028995 0.011528
v 0.021310 0.028995 -0.011528
v 0.020092 0.033730 0.011528
v 0.020092 0.033730 -0.011528
v 0.013995 0.041229 0.011528
v 0.013995 0.041229 -0.011528
v 0.009658 0.043477 0.011528
v 0.009658 0.043477 -0.011528
v 0.004898 0.044664 0.011528
v 0.004898 0.044664 -0.011528
v -0.000000 0.044999 0.011528
v -0.000000 0.044999 -0.011528
v 0.017607 0.037935 0.011528
v 0.017607 0.037935 -0.011528
v 0.019631 0.014469 0.011528
v 0.019631 0.014469 -0.011528
v 0.020768 0.019242 0.011528
v 0.020768 0.019242 -0.011528
v 0.021427 0.024099 0.011528
v 0.021427 0.024099 -0.011528
v 0.018379 0.009739 0.011528
v 0.018379 0.009739 -0.011528
v 0.020768 0.019242 -0.011528
v 0.021427 0.024099 -0.011528
v 0.004898 0.044664 -0.011528
v 0.009658 0.043477 -0.011528
v 0.013995 0.041229 -0.011528
v 0.017607 0.037935 -0.011528
v 0.020092 0.033730 -0.011528
v 0.021310 0.028995 -0.011528
v 0.019631 0.014469 -0.011528
v 0.018379 0.009739 -0.011528
v 0.017536 0.004903 -0.011528
v 0.017266 -0.000000 -0.011528
v -0.017266 -0.000000 -0.011528
v -0.017266 -0.000000 0.011528
v -0.017536 0.004903 -0.011528
v -0.017536 0.004903 0.011528
v -0.021310 0.028995 -0.011528
v -0.021310 0.028995 0.011528
v -0.020092 0.033730 -0.011528
v -0.020092 0.033730 0.011528
v -0.013995 0.041229 -0.011528
v -0.013995 0.041229 0.011528
v -0.009658 0.043477 -0.011528
v -0.009658 0.043477 0.011528
v -0.004898 0.044664 -0.011528
v -0.004898 0.044664 0.011528
v -0.000000 0.044999 -0.011528
v -0.000000 0.044999 0.011528
v -0.017607 0.037935 -0.011528
v -0.017607 0.037935 0.011528
v -0.019631 0.014469 -0.011528
v -0.019631 0.014469 0.011528
v -0.020768 0.019242 -0.011528
v -0.020768 0.019242 0.011528
v -0.021427 0.024099 -0.011528
v -0.021427 0.024099 0.011528
v -0.018379 0.009739 -0.011528
v -0.018379 0.009739 0.011528
v -0.020768 0.019242 0.011528
v -0.000000 0.024099 0.011528
v -0.021427 0.024099 0.011528
v -0.004898 0.044664 0.011528
v -0.000000 0.044999 0.011528
v -0.009658 0.043477 0.011528
v -0.013995 0.041229 0.011528
v -0.017607 0.037935 0.011528
v -0.020092 0.033730 0.011528
v -0.021310 0.028995 0.011528
v -0.019631 0.014469 0.011528
v -0.018379 0.009739 0.011528
v -0.000000 -0.000000 0.011528
v -0.017536 0.004903 0.011528
v -0.017266 -0.000000 0.011528
v 0.020768 0.019242 0.011528
v 0.021427 0.024099 0.011528
v 0.004898 0.044664 0.011528
v 0.009658 0.043477 0.011528
v 0.013995 0.041229 0.011528
v 0.017607 0.037935 0.011528
v 0.020092 0.033730 0.011528
v 0.021310 0.028995 0.011528
v 0.019631 0.014469 0.011528
v 0.018379 0.009739 0.011528
v 0.017266 -0.000000 0.011528
v 0.017536 0.004903 0.011528
v -0.020768 -0.019242 -0.011528
v -0.000000 -0.024099 -0.011528
v -0.021427 -0.024099 -0.011528
v -0.004898 -0.044664 -0.011528
v -0.000000 -0.044999 -0.011528
v -0.009658 -0.043477 -0.011528
v -0.013995 -0.041229 -0.011528
v -0.017607 -0.037935 -0.011528
v -0.020092 -0.033730 -0.011528
v -0.021310 -0.028995 -0.011528
v -0.019631 -0.014469 -0.011528
v -0.018379 -0.009739 -0.011528
v -0.017536 -0.004903 -0.011528
v 0.017266 -0.000000 -0.011528
v 0.017266 -0.000000 0.011528
v 0.017536 -0.004903 -0.011528
v 0.017536 -0.004903 0.011528
v 0.021310 -0.028995 -0.011528
v 0.021310 -0.028995 0.011528
v 0.020092 -0.033730 -0.011528
v 0.020092 -0.033730 0.011528
v 0.013995 -0.041229 -0.011528
v 0.013995 -0.041229 0.011528
v 0.009658 -0.043477 -0.011528
v 0.009658 -0.043477 0.011528
v 0.004898 -0.044664 -0.011528
v 0.004898 -0.044664 0.011528
v -0.000000 -0.044999 -0.011528
v -0.000000 -0.044999 0.011528
v 0.017607 -0.037935 -0.011528
v 0.017607 -0.037935 0.011528
v 0.019631 -0.014469 -0.011528
v 0.019631 -0.014469 0.011528
v 0.020768 -0.019242 -0.011528
v 0.020768 -0.019242 0.011528
v 0.021427 -0.024099 -0.011528
v 0.021427 -0.024099 0.011528
v 0.018379 -0.009739 -0.011528
v 0.018379 -0.009739 0.011528
v 0.020768 -0.019242 -0.011528
v 0.021427 -0.024099 -0.011528
v 0.004898 -0.044664 -0.011528
v 0.009658 -0.043477 -0.011528
v 0.013995 -0.041229 -0.011528
v 0.017607 -0.037935 -0.011528
v 0.020092 -0.033730 -0.011528
v 0.021310 -0.028995 -0.011528
v 0.019631 -0.014469 -0.011528
v 0.018379 -0.009739 -0.011528
v 0.017536 -0.004903 -0.011528
v -0.017266 -0.000000 0.011528
v -0.017266 -0.000000 -0.011528
v -0.017536 -0.004903 0.011528
v -0.017536 -0.004903 -0.011528
v -0.021310 -0.028995 0.011528
v -0.021310 -0.028995 -0.011528
v -0.020092 -0.033730 0.011528
v -0.020092 -0.033730 -0.011528
v -0.013995 -0.041229 0.011528
v -0.013995 -0.041229 -0.011528
v -0.009658 -0.043477 0.011528
v -0.009658 -0.043477 -0.011528
v -0.004898 -0.044664 0.011528
v -0.004898 -0.044664 -0.011528
v -0.000000 -0.044999 0.011528
v -0.000000 -0.044999 -0.011528
v -0.017607 -0.037935 0.011528
v -0.017607 -0.037935 -0.011528
v -0.019631 -0.014469 0.011528
v -0.019631 -0.014469 -0.011528
v -0.020768 -0.019242 0.011528
v -0.020768 -0.019242 -0.011528
v -0.021427 -0.024099 0.011528
v -0.021427 -0.024099 -0.011528
v -0.018379 -0.009739 0.011528
v -0.018379 -0.009739 -0.011528
v -0.020768 -0.019242 0.011528
v -0.021427 -0.024099 0.011528
v -0.000000 -0.024099 0.011528
v -0.004898 -0.044664 0.011528
v -0.000000 -0.044999 0.011528
v -0.009658 -0.043477 0.011528
v -0.013995 -0.041229 0.011528
v -0.017607 -0.037935 0.011528
v -0.020092 -0.033730 0.011528
v -0.021310 -0.028995 0.011528
v -0.019631 -0.014469 0.011528
v -0.018379 -0.009739 0.011528
v -0.017536 -0.004903 0.011528
v 0.020768 -0.019242 0.011528
v 0.021427 -0.024099 0.011528
v 0.004898 -0.044664 0.011528
v 0.009658 -0.043477 0.011528
v 0.013995 -0.041229 0.011528
v 0.017607 -0.037935 0.011528
v 0.020092 -0.033730 0.011528
v 0.021310 -0.028995 0.011528
v 0.019631 -0.014469 0.011528
v 0.018379 -0.009739 0.011528
v 0.017536 -0.004903 0.011528
vt 0.239406 0.239835
vt 0.463612 0.292267
vt 0.470728 0.239835
vt 0.451335 0.343799
vt 0.469462 0.186985
vt 0.437816 0.394865
vt 0.456309 0.135867
vt 0.239406 0.500000
vt 0.429484 0.090471
vt 0.040997 0.394865
vt 0.390493 0.054907
vt 0.027478 0.343799
vt 0.343674 0.030636
vt 0.015201 0.292267
vt 0.292279 0.017828
vt 0.008085 0.239835
vt 0.239406 0.014204
vt 0.009351 0.186985
vt 0.186534 0.017828
vt 0.022504 0.135867
vt 0.135139 0.030636
vt 0.049329 0.090471
vt 0.088320 0.054907
vt 0.428721 0.447071
vt 0.050092 0.447071
vt 0.425803 0.500000
vt 0.053010 0.500000
vt 0.428721 0.552930
vt 0.050092 0.552930
vt 0.437816 0.605135
vt 0.040997 0.605135
vt 0.239406 0.760165
vt 0.451335 0.656201
vt 0.463612 0.707733
vt 0.027478 0.656201
vt 0.470728 0.760165
vt 0.015201 0.707733
vt 0.469462 0.813015
vt 0.008085 0.760165
vt 0.456309 0.864133
vt 0.009351 0.813015
vt 0.429484 0.909529
vt 0.022504 0.864133
vt 0.390493 0.945093
vt 0.049329 0.909529
vt 0.343674 0.969365
vt 0.088320 0.945093
vt 0.292279 0.982172
vt 0.135139 0.969365
vt 0.239406 0.985797
vt 0.186534 0.982172
vt 0.239406 0.760165
vt 0.015201 0.707733
vt 0.008085 0.760165
vt 0.027478 0.656201
vt 0.009351 0.813015
vt 0.040997 0.605135
vt 0.022504 0.864133
vt 0.239406 0.500000
vt 0.049329 0.909529
vt 0.437816 0.605135
vt 0.088320 0.945093
vt 0.451335 0.656201
vt 0.135139 0.969365
vt 0.463612 0.707733
vt 0.186534 0.982172
vt 0.470728 0.760165
vt 0.239406 0.985797
vt 0.469462 0.813015
vt 0.292279 0.982172
vt 0.456309 0.864133
vt 0.343674 0.969365
vt 0.429484 0.909529
vt 0.390493 0.945093
vt 0.050092 0.552930
vt 0.428721 0.552930
vt 0.053010 0.500000
vt 0.425803 0.500000
vt 0.050092 0.447071
vt 0.428721 0.447071
vt 0.040997 0.394865
vt 0.437816 0.394865
vt 0.239406 0.239835
vt 0.027478 0.343799
vt 0.015201 0.292267
vt 0.451335 0.343799
vt 0.008085 0.239835
vt 0.463612 0.292267
vt 0.009351 0.186985
vt 0.470728 0.239835
vt 0.022504 0.135867
vt 0.469462 0.186985
vt 0.049329 0.090471
vt 0.456309 0.135867
vt 0.088320 0.054907
vt 0.429484 0.090471
vt 0.135139 0.030636
vt 0.390493 0.054907
vt 0.186534 0.017828
vt 0.343674 0.030636
vt 0.239406 0.014204
vt 0.292279 0.017828
vt 0.993599 0.378196
vt 0.993599 0.325032
vt 0.744693 0.325032
vt 0.744693 0.378196
vt 0.993599 0.430402
vt 0.744693 0.430402
vt 0.993599 0.481468
vt 0.744693 0.481468
vt 0.993599 0.532999
vt 0.744693 0.532999
vt 0.993599 0.585431
vt 0.744693 0.585431
vt 0.993599 0.638410
vt 0.744693 0.638410
vt 0.993599 0.692493
vt 0.744693 0.692516
vt 0.993599 0.746903
vt 0.744693 0.746903
vt 0.993599 0.800944
vt 0.744693 0.800944
vt 0.993599 0.855658
vt 0.744693 0.855658
vt 0.993599 0.911787
vt 0.744693 0.911787
vt 0.993599 0.969169
vt 0.744693 0.969169
vt 0.484193 0.916004
vt 0.484193 0.969169
vt 0.733099 0.969169
vt 0.733099 0.916004
vt 0.484193 0.863799
vt 0.733099 0.863799
vt 0.484193 0.812732
vt 0.733099 0.812732
vt 0.484193 0.761201
vt 0.733099 0.761201
vt 0.484193 0.708769
vt 0.733099 0.708769
vt 0.484193 0.655790
vt 0.733099 0.655803
vt 0.484193 0.601200
vt 0.733099 0.601200
vt 0.484193 0.547298
vt 0.733099 0.547298
vt 0.484193 0.493256
vt 0.733099 0.493256
vt 0.484193 0.438542
vt 0.733099 0.438553
vt 0.484193 0.382413
vt 0.733099 0.382413
vt 0.484193 0.325032
vt 0.733099 0.325032
vt 0.484193 0.916004
vt 0.484193 0.969169
vt 0.733099 0.969169
vt 0.733099 0.916004
vt 0.484193 0.863799
vt 0.733099 0.863799
vt 0.484193 0.812732
vt 0.733099 0.812732
vt 0.484193 0.761201
vt 0.733099 0.761201
vt 0.484193 0.708769
vt 0.733099 0.708769
vt 0.484193 0.656032
vt 0.733099 0.656045
vt 0.484193 0.601200
vt 0.733099 0.601200
vt 0.484193 0.547298
vt 0.733099 0.547298
vt 0.484193 0.493256
vt 0.733099 0.493256
vt 0.484193 0.439026
vt 0.733099 0.439038
vt 0.484193 0.382413
vt 0.733099 0.382413
vt 0.484193 0.325032
vt 0.733099 0.325032
vt 0.993599 0.378196
vt 0.993599 0.325032
vt 0.744693 0.325032
vt 0.744693 0.378196
vt 0.993599 0.430402
vt 0.744693 0.430402
vt 0.993599 0.481468
vt 0.744693 0.481468
vt 0.993599 0.532999
vt 0.744693 0.532999
vt 0.993599 0.585431
vt 0.744693 0.585431
vt 0.993599 0.638410
vt 0.744693 0.638410
vt 0.993599 0.692977
vt 0.744693 0.693000
vt 0.993599 0.746903
vt 0.744693 0.746903
vt 0.993599 0.800944
vt 0.744693 0.800944
vt 0.993599 0.855658
vt 0.744693 0.855658
vt 0.993599 0.911787
vt 0.744693 0.911787
vt 0.993599 0.969169
vt 0.744693 0.969169
vn 0.0000 0.0000 1.0000
vn 0.0000 0.0000 -1.0000
vn 0.9956 -0.0941 0.0000
vn 0.9998 0.0184 -0.0000
vn 0.9998 -0.0184 -0.0000
vn 0.9911 -0.1330 0.0000
vn 0.9799 -0.1996 -0.0000
vn 0.9737 -0.2280 0.0000
vn 0.9688 -0.2479 -0.0000
vn 0.9799 -0.1995 -0.0000
vn 0.9859 -0.1671 0.0000
vn 0.9966 -0.0819 0.0000
vn 0.9996 -0.0289 0.0000
vn 0.9950 0.0996 0.0000
vn 0.9846 0.1751 0.0000
vn 0.9409 0.3387 -0.0000
vn 0.9047 0.4260 0.0000
vn 0.8065 0.5912 0.0000
vn 0.7435 0.6687 0.0000
vn 0.6073 0.7945 0.0000
vn 0.5355 0.8445 0.0000
vn 0.3898 0.9209 0.0000
vn 0.3165 0.9486 0.0000
vn 0.1846 0.9828 0.0000
vn 0.1266 0.9919 0.0000
vn 0.0228 0.9997 -0.0000
vn -0.0228 0.9997 0.0000
vn -0.9956 -0.0941 0.0000
vn -0.9998 0.0184 -0.0000
vn -0.9998 -0.0184 -0.0000
vn -0.9911 -0.1330 0.0000
vn -0.9799 -0.1996 -0.0000
vn -0.9737 -0.2280 -0.0000
vn -0.9688 -0.2479 -0.0000
vn -0.9799 -0.1995 -0.0000
vn -0.9859 -0.1671 0.0000
vn -0.9966 -0.0819 0.0000
vn -0.9996 -0.0289 0.0000
vn -0.9950 0.0996 0.0000
vn -0.9846 0.1751 0.0000
vn -0.9409 0.3387 -0.0000
vn -0.9047 0.4260 0.0000
vn -0.8065 0.5912 0.0000
vn -0.7435 0.6687 0.0000
vn -0.6073 0.7945 0.0000
vn -0.5355 0.8445 0.0000
vn -0.3898 0.9209 0.0000
vn -0.3165 0.9486 0.0000
vn -0.1846 0.9828 0.0000
vn -0.1266 0.9919 0.0000
vn 0.9911 0.1330 -0.0000
vn 0.9799 0.1996 0.0000
vn 0.9737 0.2280 0.0000
vn 0.9688 0.2479 0.0000
vn 0.9799 0.1995 0.0000
vn 0.9845 0.1751 0.0000
vn 0.9966 0.0819 0.0000
vn 0.9996 0.0289 0.0000
vn 0.9409 -0.3387 0.0000
vn 0.9047 -0.4260 0.0000
vn 0.8065 -0.5912 0.0000
vn 0.7435 -0.6687 0.0000
vn 0.6072 -0.7945 0.0000
vn 0.5355 -0.8445 0.0000
vn 0.3898 -0.9209 0.0000
vn 0.3165 -0.9486 0.0000
vn 0.1846 -0.9828 0.0000
vn 0.1266 -0.9920 0.0000
vn 0.0228 -0.9997 0.0000
vn -0.0229 -0.9997 -0.0000
vn -0.9911 0.1330 -0.0000
vn -0.9799 0.1996 0.0000
vn -0.9737 0.2280 0.0000
vn -0.9688 0.2479 0.0000
vn -0.9799 0.1995 0.0000
vn -0.9845 0.1751 0.0000
vn -0.9966 0.0819 0.0000
vn -0.9996 0.0289 0.0000
vn -0.9409 -0.3387 0.0000
vn -0.9047 -0.4260 0.0000
vn -0.8065 -0.5912 0.0000
vn -0.7435 -0.6687 0.0000
vn -0.6072 -0.7945 0.0000
vn -0.5355 -0.8445 0.0000
vn -0.3898 -0.9209 0.0000
vn -0.3165 -0.9486 0.0000
vn -0.1846 -0.9828 0.0000
vn -0.1266 -0.9920 0.0000
vn -0.0228 -0.9997 -0.0000
vn 0.0229 -0.9997 0.0000
usemtl mCar_sponge_mat
s off
f 185/1/1 183/2/1 184/3/1
f 185/1/1 193/4/1 183/2/1
f 185/1/1 184/3/1 192/5/1
f 185/1/1 194/6/1 193/4/1
f 185/1/1 192/5/1 191/7/1
f 185/1/1 92/8/1 194/6/1
f 185/1/1 191/7/1 190/9/1
f 185/1/1 205/10/1 92/8/1
f 185/1/1 190/9/1 189/11/1
f 185/1/1 204/12/1 205/10/1
f 185/1/1 189/11/1 188/13/1
f 185/1/1 196/14/1 204/12/1
f 185/1/1 188/13/1 186/15/1
f 185/1/1 197/16/1 196/14/1
f 185/1/1 186/15/1 187/17/1
f 185/1/1 203/18/1 197/16/1
f 185/1/1 187/17/1 198/19/1
f 185/1/1 202/20/1 203/18/1
f 185/1/1 198/19/1 199/21/1
f 185/1/1 201/22/1 202/20/1
f 185/1/1 199/21/1 200/23/1
f 185/1/1 200/23/1 201/22/1
f 194/6/1 92/8/1 195/24/1
f 205/10/1 206/25/1 92/8/1
f 195/24/1 92/8/1 94/26/1
f 206/25/1 105/27/1 92/8/1
f 94/26/1 92/8/1 93/28/1
f 105/27/1 106/29/1 92/8/1
f 93/28/1 92/8/1 91/30/1
f 106/29/1 104/31/1 92/8/1
f 91/30/1 92/8/1 81/32/1
f 91/30/1 81/32/1 90/33/1
f 92/8/1 104/31/1 81/32/1
f 90/33/1 81/32/1 80/34/1
f 104/31/1 103/35/1 81/32/1
f 80/34/1 81/32/1 82/36/1
f 103/35/1 95/37/1 81/32/1
f 82/36/1 81/32/1 89/38/1
f 95/37/1 96/39/1 81/32/1
f 89/38/1 81/32/1 88/40/1
f 96/39/1 102/41/1 81/32/1
f 88/40/1 81/32/1 87/42/1
f 102/41/1 101/43/1 81/32/1
f 87/42/1 81/32/1 86/44/1
f 101/43/1 100/45/1 81/32/1
f 86/44/1 81/32/1 85/46/1
f 100/45/1 99/47/1 81/32/1
f 85/46/1 81/32/1 83/48/1
f 99/47/1 98/49/1 81/32/1
f 83/48/1 81/32/1 84/50/1
f 98/49/1 97/51/1 81/32/1
f 81/32/1 97/51/1 84/50/1
f 3/52/2 1/53/2 2/54/2
f 3/52/2 11/55/2 1/53/2
f 3/52/2 2/54/2 10/56/2
f 3/52/2 12/57/2 11/55/2
f 3/52/2 10/56/2 9/58/2
f 3/52/2 13/59/2 12/57/2
f 3/52/2 9/58/2 8/60/2
f 3/52/2 51/61/2 13/59/2
f 3/52/2 8/60/2 7/62/2
f 3/52/2 50/63/2 51/61/2
f 3/52/2 7/62/2 6/64/2
f 3/52/2 42/65/2 50/63/2
f 3/52/2 6/64/2 4/66/2
f 3/52/2 43/67/2 42/65/2
f 3/52/2 4/66/2 5/68/2
f 3/52/2 49/69/2 43/67/2
f 3/52/2 5/68/2 44/70/2
f 3/52/2 48/71/2 49/69/2
f 3/52/2 44/70/2 45/72/2
f 3/52/2 47/73/2 48/71/2
f 3/52/2 45/72/2 46/74/2
f 3/52/2 46/74/2 47/73/2
f 12/57/2 13/59/2 15/75/2
f 51/61/2 52/76/2 13/59/2
f 15/75/2 13/59/2 14/77/2
f 52/76/2 53/78/2 13/59/2
f 14/77/2 13/59/2 119/79/2
f 53/78/2 156/80/2 13/59/2
f 119/79/2 13/59/2 118/81/2
f 156/80/2 155/82/2 13/59/2
f 118/81/2 13/59/2 108/83/2
f 118/81/2 108/83/2 117/84/2
f 13/59/2 155/82/2 108/83/2
f 117/84/2 108/83/2 107/85/2
f 155/82/2 154/86/2 108/83/2
f 107/85/2 108/83/2 109/87/2
f 154/86/2 146/88/2 108/83/2
f 109/87/2 108/83/2 116/89/2
f 146/88/2 147/90/2 108/83/2
f 116/89/2 108/83/2 115/91/2
f 147/90/2 153/92/2 108/83/2
f 115/91/2 108/83/2 114/93/2
f 153/92/2 152/94/2 108/83/2
f 114/93/2 108/83/2 113/95/2
f 152/94/2 151/96/2 108/83/2
f 113/95/2 108/83/2 112/97/2
f 151/96/2 150/98/2 108/83/2
f 112/97/2 108/83/2 110/99/2
f 150/98/2 149/100/2 108/83/2
f 110/99/2 108/83/2 111/101/2
f 149/100/2 148/102/2 108/83/2
f 108/83/2 148/102/2 111/101/2
s 1
f 18/103/3 16/104/4 17/105/5
f 18/103/3 17/105/5 19/106/6
f 18/103/3 19/106/6 40/107/7
f 19/106/6 41/108/8 40/107/7
f 41/108/8 34/109/9 40/107/7
f 41/108/8 35/110/9 34/109/9
f 35/110/9 36/111/10 34/109/9
f 35/110/9 37/112/11 36/111/10
f 37/112/11 38/113/12 36/111/10
f 37/112/11 39/114/13 38/113/12
f 39/114/13 20/115/14 38/113/12
f 39/114/13 21/116/15 20/115/14
f 21/116/15 22/117/16 20/115/14
f 21/116/15 23/118/17 22/117/16
f 23/118/17 32/119/18 22/117/16
f 23/118/17 33/120/19 32/119/18
f 33/120/19 24/121/20 32/119/18
f 33/120/19 25/122/21 24/121/20
f 25/122/21 26/123/22 24/121/20
f 25/122/21 27/124/23 26/123/22
f 27/124/23 28/125/24 26/123/22
f 27/124/23 29/126/25 28/125/24
f 29/126/25 30/127/26 28/125/24
f 29/126/25 31/128/27 30/127/26
f 56/129/28 54/130/29 55/131/30
f 56/129/28 55/131/30 57/132/31
f 56/129/28 57/132/31 78/133/32
f 57/132/31 79/134/33 78/133/32
f 79/134/33 72/135/34 78/133/32
f 79/134/33 73/136/34 72/135/34
f 73/136/34 74/137/35 72/135/34
f 73/136/34 75/138/36 74/137/35
f 75/138/36 76/139/37 74/137/35
f 75/138/36 77/140/38 76/139/37
f 77/140/38 58/141/39 76/139/37
f 77/140/38 59/142/40 58/141/39
f 59/142/40 60/143/41 58/141/39
f 59/142/40 61/144/42 60/143/41
f 61/144/42 70/145/43 60/143/41
f 61/144/42 71/146/44 70/145/43
f 71/146/44 62/147/45 70/145/43
f 71/146/44 63/148/46 62/147/45
f 63/148/46 64/149/47 62/147/45
f 63/148/46 65/150/48 64/149/47
f 65/150/48 66/151/49 64/149/47
f 65/150/48 67/152/50 66/151/49
f 67/152/50 68/153/27 66/151/49
f 67/152/50 69/154/26 68/153/27
f 122/155/14 120/156/5 121/157/4
f 122/155/14 121/157/4 123/158/51
f 122/155/14 123/158/51 144/159/52
f 123/158/51 145/160/53 144/159/52
f 145/160/53 138/161/54 144/159/52
f 145/160/53 139/162/54 138/161/54
f 139/162/54 140/163/55 138/161/54
f 139/162/54 141/164/56 140/163/55
f 141/164/56 142/165/57 140/163/55
f 141/164/56 143/166/58 142/165/57
f 143/166/58 124/167/3 142/165/57
f 143/166/58 125/168/11 124/167/3
f 125/168/11 126/169/59 124/167/3
f 125/168/11 127/170/60 126/169/59
f 127/170/60 136/171/61 126/169/59
f 127/170/60 137/172/62 136/171/61
f 137/172/62 128/173/63 136/171/61
f 137/172/62 129/174/64 128/173/63
f 129/174/64 130/175/65 128/173/63
f 129/174/64 131/176/66 130/175/65
f 131/176/66 132/177/67 130/175/65
f 131/176/66 133/178/68 132/177/67
f 133/178/68 134/179/69 132/177/67
f 133/178/68 135/180/70 134/179/69
f 159/181/39 157/182/30 158/183/29
f 159/181/39 158/183/29 160/184/71
f 159/181/39 160/184/71 181/185/72
f 160/184/71 182/186/73 181/185/72
f 182/186/73 175/187/74 181/185/72
f 182/186/73 176/188/74 175/187/74
f 176/188/74 177/189/75 175/187/74
f 176/188/74 178/190/76 177/189/75
f 178/190/76 179/191/77 177/189/75
f 178/190/76 180/192/78 179/191/77
f 180/192/78 161/193/28 179/191/77
f 180/192/78 162/194/36 161/193/28
f 162/194/36 163/195/79 161/193/28
f 162/194/36 164/196/80 163/195/79
f 164/196/80 173/197/81 163/195/79
f 164/196/80 174/198/82 173/197/81
f 174/198/82 165/199/83 173/197/81
f 174/198/82 166/200/84 165/199/83
f 166/200/84 167/201/85 165/199/83
f 166/200/84 168/202/86 167/201/85
f 168/202/86 169/203/87 167/201/85
f 168/202/86 170/204/88 169/203/87
f 170/204/88 171/205/89 169/203/87
f 170/204/88 172/206/90 171/205/89
