# Blender 5.0.1
# www.blender.org
mtllib textured.mtl
o visual
v 0.006500 0.000000 0.038000
v 0.006431 0.000946 0.038000
v 0.006224 0.001873 0.038000
v 0.005885 0.002759 0.038000
v 0.005421 0.003586 0.038000
v 0.004841 0.004338 0.038000
v 0.004158 0.004996 0.038000
v 0.003386 0.005548 0.038000
v 0.002542 0.005982 0.038000
v 0.001644 0.006289 0.038000
v 0.000711 0.006461 0.038000
v -0.000237 0.006496 0.038000
v -0.001181 0.006392 0.038000
v -0.002099 0.006152 0.038000
v -0.002972 0.005781 0.038000
v -0.003782 0.005286 0.038000
v -0.004511 0.004679 0.038000
v -0.005145 0.003973 0.038000
v -0.005668 0.003181 0.038000
v -0.006071 0.002322 0.038000
v -0.006344 0.001413 0.038000
v -0.006483 0.000474 0.038000
v -0.006483 -0.000474 0.038000
v -0.006344 -0.001413 0.038000
v -0.006071 -0.002322 0.038000
v -0.005668 -0.003181 0.038000
v -0.005145 -0.003973 0.038000
v -0.004511 -0.004679 0.038000
v -0.003782 -0.005286 0.038000
v -0.002972 -0.005781 0.038000
v -0.002099 -0.006152 0.038000
v -0.001181 -0.006392 0.038000
v -0.000237 -0.006496 0.038000
v 0.000711 -0.006461 0.038000
v 0.001644 -0.006289 0.038000
v 0.002542 -0.005982 0.038000
v 0.003386 -0.005548 0.038000
v 0.004158 -0.004996 0.038000
v 0.004841 -0.004338 0.038000
v 0.005421 -0.003586 0.038000
v 0.005885 -0.002759 0.038000
v 0.006224 -0.001873 0.038000
v 0.006431 -0.000946 0.038000
v 0.006500 0.000000 0.040000
v 0.006431 -0.000946 0.040000
v 0.006224 -0.001873 0.040000
v 0.005885 -0.002759 0.040000
v 0.005421 -0.003586 0.040000
v 0.004841 -0.004338 0.040000
v 0.004158 -0.004996 0.040000
v 0.003386 -0.005548 0.040000
v 0.002542 -0.005982 0.040000
v 0.001644 -0.006289 0.040000
v 0.000711 -0.006461 0.040000
v -0.000237 -0.006496 0.040000
v -0.001181 -0.006392 0.040000
v -0.002099 -0.006152 0.040000
v -0.002972 -0.005781 0.040000
v -0.003782 -0.005286 0.040000
v -0.004511 -0.004679 0.040000
v -0.005145 -0.003973 0.040000
v -0.005668 -0.003181 0.040000
v -0.006071 -0.002322 0.040000
v -0.006344 -0.001413 0.040000
v -0.006483 -0.000474 0.040000
v -0.006483 0.000474 0.040000
v -0.006344 0.001413 0.040000
v -0.006071 0.002322 0.040000
v -0.005668 0.003181 0.040000
v -0.005145 0.003973 0.040000
v -0.004511 0.004679 0.040000
v -0.003782 0.005286 0.040000
v -0.002972 0.005781 0.040000
v -0.002099 0.006152 0.040000
v -0.001181 0.006392 0.040000
v -0.000237 0.006496 0.040000
v 0.000711 0.006461 0.040000
v 0.001644 0.006289 0.040000
v 0.002542 0.005982 0.040000
v 0.003386 0.005548 0.040000
v 0.004158 0.004996 0.040000
v 0.004841 0.004338 0.040000
v 0.005421 0.003586 0.040000
v 0.005885 0.002759 0.040000
v 0.006224 0.001873 0.040000
v 0.006431 0.000946 0.040000
v 0.005350 0.000000 0.038000
v 0.005281 0.000858 0.038000
v 0.005075 0.001694 0.038000
v 0.004737 0.002486 0.038000
v 0.004277 0.003214 0.038000
v 0.003706 0.003858 0.038000
v 0.003039 0.004403 0.038000
v 0.002294 0.004833 0.038000
v 0.001488 0.005139 0.038000
v 0.000645 0.005311 0.038000
v -0.000215 0.005346 0.038000
v -0.001070 0.005242 0.038000
v -0.001897 0.005002 0.038000
v -0.002675 0.004633 0.038000
v -0.003384 0.004144 0.038000
v -0.004005 0.003548 0.038000
v -0.004522 0.002859 0.038000
v -0.004922 0.002097 0.038000
v -0.005195 0.001280 0.038000
v -0.005333 0.000430 0.038000
v -0.005333 -0.000430 0.038000
v -0.005195 -0.001280 0.038000
v -0.004922 -0.002097 0.038000
v -0.004522 -0.002859 0.038000
v -0.004005 -0.003548 0.038000
v -0.003384 -0.004144 0.038000
v -0.002675 -0.004633 0.038000
v -0.001897 -0.005002 0.038000
v -0.001070 -0.005242 0.038000
v -0.000215 -0.005346 0.038000
v 0.000645 -0.005311 0.038000
v 0.001488 -0.005139 0.038000
v 0.002294 -0.004833 0.038000
v 0.003039 -0.004403 0.038000
v 0.003706 -0.003858 0.038000
v 0.004277 -0.003214 0.038000
v 0.004737 -0.002486 0.038000
v 0.005075 -0.001694 0.038000
v 0.005281 -0.000858 0.038000
v -0.000691 0.000000 0.000500
v -0.000623 0.000300 0.000500
v -0.000431 0.000540 0.000500
v -0.000154 0.000674 0.000500
v 0.000154 0.000674 0.000500
v 0.000431 0.000540 0.000500
v 0.000623 0.000300 0.000500
v 0.000691 0.000000 0.000500
v 0.000623 -0.000300 0.000500
v 0.000431 -0.000540 0.000500
v 0.000154 -0.000674 0.000500
v -0.000154 -0.000674 0.000500
v -0.000431 -0.000540 0.000500
v -0.000623 -0.000300 0.000500
v -0.001180 0.000000 0.000895
v -0.001116 -0.000383 0.000895
v -0.000931 -0.000725 0.000895
v -0.000646 -0.000988 0.000895
v -0.000290 -0.001144 0.000895
v 0.000097 -0.001176 0.000895
v 0.000474 -0.001081 0.000895
v 0.000799 -0.000868 0.000895
v 0.001038 -0.000562 0.000895
v 0.001164 -0.000194 0.000895
v 0.001164 0.000194 0.000895
v 0.001038 0.000562 0.000895
v 0.000799 0.000868 0.000895
v 0.000474 0.001081 0.000895
v 0.000097 0.001176 0.000895
v -0.000290 0.001144 0.000895
v -0.000646 0.000988 0.000895
v -0.000931 0.000725 0.000895
v -0.001116 0.000383 0.000895
v -0.000910 0.000000 0.000551
v -0.001085 0.000000 0.000692
v -0.000498 -0.000762 0.000551
v 0.000617 -0.000670 0.000551
v 0.000617 0.000670 0.000551
v -0.000498 0.000762 0.000551
v -0.000861 0.000296 0.000551
v -0.001026 0.000352 0.000692
v -0.000718 0.000559 0.000551
v -0.000856 0.000666 0.000692
v -0.000593 0.000908 0.000692
v 0.000075 0.000907 0.000551
v 0.000090 0.001081 0.000692
v -0.000266 0.001052 0.000692
v -0.000223 0.000882 0.000551
v 0.000366 0.000834 0.000551
v 0.000436 0.000994 0.000692
v 0.000735 0.000798 0.000692
v 0.000898 0.000150 0.000551
v 0.001070 0.000179 0.000692
v 0.000954 0.000516 0.000692
v 0.000801 0.000433 0.000551
v 0.000898 -0.000150 0.000551
v 0.001070 -0.000179 0.000692
v 0.000801 -0.000433 0.000551
v 0.000954 -0.000516 0.000692
v 0.000366 -0.000834 0.000551
v 0.000436 -0.000994 0.000692
v 0.000735 -0.000798 0.000692
v 0.000075 -0.000907 0.000551
v 0.000090 -0.001081 0.000692
v -0.000223 -0.000882 0.000551
v -0.000266 -0.001052 0.000692
v -0.000718 -0.000559 0.000551
v -0.000856 -0.000666 0.000692
v -0.000593 -0.000908 0.000692
v -0.000861 -0.000296 0.000551
v -0.001026 -0.000352 0.000692
v -0.004850 0.000000 0.018053
v -0.004780 -0.000820 0.018053
v -0.004573 -0.001616 0.018053
v -0.004234 -0.002365 0.018053
v -0.003773 -0.003047 0.018053
v -0.003204 -0.003641 0.018053
v -0.002543 -0.004130 0.018053
v -0.001808 -0.004500 0.018053
v -0.001022 -0.004741 0.018053
v -0.000206 -0.004846 0.018053
v 0.000616 -0.004811 0.018053
v 0.001420 -0.004637 0.018053
v 0.002183 -0.004331 0.018053
v 0.002884 -0.003899 0.018053
v 0.003501 -0.003356 0.018053
v 0.004018 -0.002716 0.018053
v 0.004419 -0.001998 0.018053
v 0.004694 -0.001222 0.018053
v 0.004833 -0.000411 0.018053
v 0.004833 0.000411 0.018053
v 0.004694 0.001222 0.018053
v 0.004419 0.001998 0.018053
v 0.004018 0.002716 0.018053
v 0.003501 0.003356 0.018053
v 0.002884 0.003899 0.018053
v 0.002183 0.004331 0.018053
v 0.001420 0.004637 0.018053
v 0.000616 0.004811 0.018053
v -0.000206 0.004846 0.018053
v -0.001022 0.004741 0.018053
v -0.001808 0.004500 0.018053
v -0.002543 0.004130 0.018053
v -0.003204 0.003641 0.018053
v -0.003773 0.003047 0.018053
v -0.004234 0.002365 0.018053
v -0.004573 0.001616 0.018053
v -0.004780 0.000820 0.018053
v -0.004850 0.000000 0.040000
v -0.004780 -0.000820 0.040000
v -0.004573 -0.001616 0.040000
v -0.004234 -0.002365 0.040000
v -0.003773 -0.003047 0.040000
v -0.003204 -0.003641 0.040000
v -0.002543 -0.004130 0.040000
v -0.001808 -0.004500 0.040000
v -0.001022 -0.004741 0.040000
v -0.000206 -0.004846 0.040000
v 0.000616 -0.004811 0.040000
v 0.001420 -0.004637 0.040000
v 0.002183 -0.004331 0.040000
v 0.002884 -0.003899 0.040000
v 0.003501 -0.003356 0.040000
v 0.004018 -0.002716 0.040000
v 0.004419 -0.001998 0.040000
v 0.004694 -0.001222 0.040000
v 0.004833 -0.000411 0.040000
v 0.004833 0.000411 0.040000
v 0.004694 0.001222 0.040000
v 0.004419 0.001998 0.040000
v 0.004018 0.002716 0.040000
v 0.003501 0.003356 0.040000
v 0.002884 0.003899 0.040000
v 0.002183 0.004331 0.040000
v 0.001420 0.004637 0.040000
v 0.000616 0.004811 0.040000
v -0.000206 0.004846 0.040000
v -0.001022 0.004741 0.040000
v -0.001808 0.004500 0.040000
v -0.002543 0.004130 0.040000
v -0.003204 0.003641 0.040000
v -0.003773 0.003047 0.040000
v -0.004234 0.002365 0.040000
v -0.004573 0.001616 0.040000
v -0.004780 0.000820 0.040000
v -0.004850 0.000000 0.029026
v -0.004780 0.000820 0.029026
v -0.004573 0.001616 0.029026
v -0.004234 0.002365 0.029026
v -0.003773 0.003047 0.029026
v -0.003204 0.003641 0.029026
v -0.002543 0.004130 0.029026
v -0.001808 0.004500 0.029026
v -0.001022 0.004741 0.029026
v -0.000206 0.004846 0.029026
v 0.000616 0.004811 0.029026
v 0.001420 0.004637 0.029026
v 0.002183 0.004331 0.029026
v 0.002884 0.003899 0.029026
v 0.003501 0.003356 0.029026
v 0.004018 0.002716 0.029026
v 0.004419 0.001998 0.029026
v 0.004694 0.001222 0.029026
v 0.004833 0.000411 0.029026
v 0.004833 -0.000411 0.029026
v 0.004694 -0.001222 0.029026
v 0.004419 -0.001998 0.029026
v 0.004018 -0.002716 0.029026
v 0.003501 -0.003356 0.029026
v 0.002884 -0.003899 0.029026
v 0.002183 -0.004331 0.029026
v 0.001420 -0.004637 0.029026
v 0.000616 -0.004811 0.029026
v -0.000206 -0.004846 0.029026
v -0.001022 -0.004741 0.029026
v -0.001808 -0.004500 0.029026
v -0.002543 -0.004130 0.029026
v -0.003204 -0.003641 0.029026
v -0.003773 -0.003047 0.029026
v -0.004234 -0.002365 0.029026
v -0.004573 -0.001616 0.029026
v -0.004780 -0.000820 0.029026
v -0.000691 0.000000 0.000000
v -0.000623 -0.000300 0.000000
v -0.000431 -0.000540 0.000000
v -0.000154 -0.000674 0.000000
v 0.000154 -0.000674 0.000000
v 0.000431 -0.000540 0.000000
v 0.000623 -0.000300 0.000000
v 0.000691 0.000000 0.000000
v 0.000623 0.000300 -0.000000
v 0.000431 0.000540 -0.000000
v 0.000154 0.000674 -0.000000
v -0.000154 0.000674 -0.000000
v -0.000431 0.000540 -0.000000
v -0.000623 0.000300 -0.000000
v -0.001669 0.000000 0.000791
v -0.001602 0.000470 0.000791
v -0.001404 0.000902 0.000791
v -0.001093 0.001261 0.000791
v -0.000693 0.001518 0.000791
v -0.000238 0.001652 0.000791
v 0.000238 0.001652 0.000791
v 0.000693 0.001518 0.000791
v 0.001093 0.001261 0.000791
v 0.001404 0.000902 0.000791
v 0.001602 0.000470 0.000791
v 0.001669 0.000000 0.000791
v 0.001602 -0.000470 0.000791
v 0.001404 -0.000902 0.000791
v 0.001093 -0.001261 0.000791
v 0.000693 -0.001518 0.000791
v 0.000238 -0.001652 0.000791
v -0.000238 -0.001652 0.000791
v -0.000693 -0.001518 0.000791
v -0.001093 -0.001261 0.000791
v -0.001404 -0.000902 0.000791
v -0.001602 -0.000470 0.000791
v -0.001025 0.000000 0.000057
v -0.001320 0.000000 0.000222
v -0.001543 0.000000 0.000477
v -0.000862 -0.000554 0.000057
v -0.000146 -0.001014 0.000057
v 0.000862 -0.000554 0.000057
v 0.000862 0.000554 0.000057
v 0.000146 0.001014 0.000057
v -0.000862 0.000554 0.000057
v -0.000983 -0.000289 0.000057
v -0.001267 -0.000372 0.000222
v -0.001481 -0.000435 0.000477
v -0.001111 -0.000714 0.000222
v -0.001298 -0.000834 0.000477
v -0.000426 -0.000932 0.000057
v -0.000548 -0.001201 0.000222
v -0.000641 -0.001404 0.000477
v -0.001011 -0.001166 0.000477
v -0.000864 -0.000998 0.000222
v -0.000671 -0.000774 0.000057
v -0.000188 -0.001307 0.000222
v -0.000220 -0.001528 0.000477
v 0.000426 -0.000932 0.000057
v 0.000548 -0.001201 0.000222
v 0.000641 -0.001404 0.000477
v 0.000220 -0.001528 0.000477
v 0.000188 -0.001307 0.000222
v 0.000146 -0.001014 0.000057
v 0.000671 -0.000774 0.000057
v 0.000864 -0.000998 0.000222
v 0.001011 -0.001166 0.000477
v 0.000983 -0.000289 0.000057
v 0.001267 -0.000372 0.000222
v 0.001481 -0.000435 0.000477
v 0.001298 -0.000834 0.000477
v 0.001111 -0.000714 0.000222
v 0.000983 0.000289 0.000057
v 0.001267 0.000372 0.000222
v 0.001481 0.000435 0.000477
v 0.001543 0.000000 0.000477
v 0.001320 0.000000 0.000222
v 0.001025 0.000000 0.000057
v 0.001111 0.000714 0.000222
v 0.001298 0.000834 0.000477
v 0.000426 0.000932 0.000057
v 0.000548 0.001201 0.000222
v 0.000641 0.001404 0.000477
v 0.001011 0.001166 0.000477
v 0.000864 0.000998 0.000222
v 0.000671 0.000774 0.000057
v 0.000188 0.001307 0.000222
v 0.000220 0.001528 0.000477
v -0.000426 0.000932 0.000057
v -0.000548 0.001201 0.000222
v -0.000641 0.001404 0.000477
v -0.000220 0.001528 0.000477
v -0.000188 0.001307 0.000222
v -0.000146 0.001014 0.000057
v -0.000671 0.000774 0.000057
v -0.000864 0.000998 0.000222
v -0.001011 0.001166 0.000477
v -0.000983 0.000289 0.000057
v -0.001267 0.000372 0.000222
v -0.001481 0.000435 0.000477
v -0.001298 0.000834 0.000477
v -0.001111 0.000714 0.000222
v 0.005350 0.000000 0.018000
v 0.005281 -0.000858 0.018000
v 0.005075 -0.001694 0.018000
v 0.004737 -0.002486 0.018000
v 0.004277 -0.003214 0.018000
v 0.003706 -0.003858 0.018000
v 0.003039 -0.004403 0.018000
v 0.002294 -0.004833 0.018000
v 0.001488 -0.005139 0.018000
v 0.000645 -0.005311 0.018000
v -0.000215 -0.005346 0.018000
v -0.001070 -0.005242 0.018000
v -0.001897 -0.005002 0.018000
v -0.002675 -0.004633 0.018000
v -0.003384 -0.004144 0.018000
v -0.004005 -0.003548 0.018000
v -0.004522 -0.002859 0.018000
v -0.004922 -0.002097 0.018000
v -0.005195 -0.001280 0.018000
v -0.005333 -0.000430 0.018000
v -0.005333 0.000430 0.018000
v -0.005195 0.001280 0.018000
v -0.004922 0.002097 0.018000
v -0.004522 0.002859 0.018000
v -0.004005 0.003548 0.018000
v -0.003384 0.004144 0.018000
v -0.002675 0.004633 0.018000
v -0.001897 0.005002 0.018000
v -0.001070 0.005242 0.018000
v -0.000215 0.005346 0.018000
v 0.000645 0.005311 0.018000
v 0.001488 0.005139 0.018000
v 0.002294 0.004833 0.018000
v 0.003039 0.004403 0.018000
v 0.003706 0.003858 0.018000
v 0.004277 0.003214 0.018000
v 0.004737 0.002486 0.018000
v 0.005075 0.001694 0.018000
v 0.005281 0.000858 0.018000
vn 0.9973 0.0730 -0.0000
vn 0.9973 -0.0730 -0.0000
vn 0.9761 -0.2174 -0.0000
vn 0.9340 -0.3572 -0.0000
vn 0.8720 -0.4894 -0.0000
vn 0.7915 -0.6112 -0.0000
vn 0.6941 -0.7199 -0.0000
vn 0.5819 -0.8133 -0.0000
vn 0.4572 -0.8893 -0.0000
vn 0.3229 -0.9464 -0.0000
vn 0.1816 -0.9834 -0.0000
vn 0.0365 -0.9993 -0.0000
vn -0.1094 -0.9940 -0.0000
vn -0.2529 -0.9675 -0.0000
vn -0.3911 -0.9203 -0.0000
vn -0.5209 -0.8536 -0.0000
vn -0.6397 -0.7686 -0.0000
vn -0.7448 -0.6673 -0.0000
vn -0.8340 -0.5518 -0.0000
vn -0.9054 -0.4245 -0.0000
vn -0.9576 -0.2881 -0.0000
vn -0.9893 -0.1456 -0.0000
vn -1.0000 -0.0000 -0.0000
vn -0.9893 0.1456 -0.0000
vn -0.9576 0.2881 -0.0000
vn -0.9054 0.4245 -0.0000
vn -0.8340 0.5518 -0.0000
vn -0.7448 0.6673 -0.0000
vn -0.6397 0.7686 -0.0000
vn -0.5209 0.8536 -0.0000
vn -0.3911 0.9203 -0.0000
vn -0.2529 0.9675 -0.0000
vn -0.1094 0.9940 -0.0000
vn 0.0365 0.9993 -0.0000
vn 0.1816 0.9834 -0.0000
vn 0.3229 0.9464 -0.0000
vn 0.4572 0.8893 -0.0000
vn 0.5819 0.8133 -0.0000
vn 0.6941 0.7199 -0.0000
vn 0.7915 0.6112 -0.0000
vn 0.8720 0.4894 -0.0000
vn 0.9340 0.3572 -0.0000
vn 0.9761 0.2174 -0.0000
vn -0.0000 -0.0000 -1.0000
vn 0.2081 -0.0475 0.9770
vn 0.2246 -0.0375 0.9737
vn 0.2246 0.0375 0.9737
vn 0.6254 0.1044 0.7733
vn 0.8957 0.1495 0.4188
vn 0.2082 -0.1126 0.9716
vn 0.1635 -0.1303 0.9779
vn 0.1596 -0.1734 0.9718
vn 0.0936 -0.1943 0.9765
vn 0.0903 -0.2059 0.9744
vn 0.0190 -0.2294 0.9731
vn 0.0524 -0.6319 0.7733
vn -0.1556 -0.6146 0.7733
vn -0.2229 -0.8803 0.4188
vn -0.4967 -0.7602 0.4188
vn -0.7166 -0.5577 0.4188
vn -0.8589 -0.2948 0.4188
vn -0.9081 -0.0000 0.4188
vn -0.8589 0.2948 0.4188
vn -0.7166 0.5577 0.4188
vn -0.4967 0.7602 0.4188
vn -0.2229 0.8803 0.4188
vn 0.0750 0.9050 0.4188
vn 0.3648 0.8316 0.4188
vn 0.6150 0.6681 0.4188
vn 0.7986 0.4322 0.4188
vn -0.0000 -0.2117 0.9773
vn -0.0583 -0.2300 0.9714
vn -0.3468 -0.5308 0.7733
vn -0.0909 -0.1887 0.9778
vn -0.1281 -0.1961 0.9722
vn -0.5003 -0.3894 0.7733
vn -0.1708 -0.1362 0.9758
vn -0.1750 -0.1362 0.9751
vn -0.5997 -0.2059 0.7733
vn -0.2198 -0.0755 0.9726
vn -0.2051 -0.0468 0.9776
vn -0.2375 -0.0000 0.9714
vn -0.2051 0.0468 0.9776
vn -0.2198 0.0755 0.9726
vn -0.1750 0.1362 0.9751
vn -0.5003 0.3894 0.7733
vn -0.3468 0.5308 0.7733
vn -0.1708 0.1362 0.9758
vn -0.1281 0.1961 0.9722
vn -0.1556 0.6146 0.7733
vn -0.0909 0.1887 0.9778
vn -0.0583 0.2300 0.9714
vn 0.0524 0.6319 0.7733
vn -0.0000 0.2117 0.9773
vn 0.0190 0.2294 0.9731
vn 0.2547 0.5806 0.7733
vn 0.0903 0.2059 0.9744
vn 0.0936 0.1943 0.9765
vn 0.1596 0.1734 0.9718
vn 0.1635 0.1303 0.9779
vn 0.2082 0.1126 0.9716
vn 0.2081 0.0475 0.9770
vn 0.0750 -0.9050 0.4188
vn 0.2547 -0.5806 0.7733
vn 0.3648 -0.8316 0.4188
vn 0.4294 -0.4665 0.7733
vn 0.6150 -0.6681 0.4188
vn 0.5576 -0.3018 0.7733
vn 0.7986 -0.4322 0.4188
vn 0.6254 -0.1044 0.7733
vn 0.8957 -0.1495 0.4188
vn -0.6340 -0.0000 0.7733
vn -0.5997 0.2059 0.7733
vn 0.4294 0.4665 0.7733
vn 0.5576 0.3018 0.7733
vn -0.0000 -0.0000 1.0000
vn 0.9745 -0.0829 0.2084
vn 0.9745 0.0829 0.2084
vn 0.9644 0.1609 0.2100
vn 0.9465 0.2464 0.2084
vn 0.8912 0.4029 0.2085
vn 0.8599 0.4653 0.2100
vn 0.8103 0.5477 0.2083
vn 0.7061 0.6767 0.2085
vn 0.6622 0.7193 0.2100
vn 0.5816 0.7864 0.2083
vn 0.4403 0.8733 0.2086
vn 0.3927 0.8954 0.2099
vn 0.2864 0.9352 0.2083
vn 0.1242 0.9701 0.2087
vn 0.0807 0.9744 0.2098
vn -0.0415 0.9772 0.2083
vn -0.2060 0.9560 0.2087
vn -0.2400 0.9478 0.2097
vn -0.3647 0.9075 0.2082
vn -0.5127 0.8328 0.2088
vn -0.5348 0.8186 0.2096
vn -0.6462 0.7342 0.2082
vn -0.7609 0.6144 0.2089
vn -0.7716 0.6006 0.2094
vn -0.8539 0.4770 0.2082
vn -0.9221 0.3258 0.2090
vn -0.9249 0.3175 0.2093
vn -0.9640 0.1653 0.2082
vn -0.9779 -0.0000 0.2091
vn -0.9640 -0.1653 0.2082
vn -0.9249 -0.3175 0.2093
vn -0.9221 -0.3258 0.2090
vn -0.8539 -0.4770 0.2082
vn -0.7716 -0.6006 0.2094
vn -0.7609 -0.6144 0.2089
vn -0.6462 -0.7342 0.2082
vn -0.5348 -0.8186 0.2096
vn -0.5127 -0.8328 0.2088
vn -0.3647 -0.9075 0.2082
vn -0.2400 -0.9478 0.2097
vn -0.2060 -0.9560 0.2087
vn -0.0415 -0.9772 0.2083
vn 0.0807 -0.9744 0.2098
vn 0.1242 -0.9701 0.2087
vn 0.2864 -0.9352 0.2083
vn 0.3927 -0.8954 0.2099
vn 0.4403 -0.8733 0.2086
vn 0.5816 -0.7864 0.2083
vn 0.6622 -0.7193 0.2100
vn 0.7061 -0.6767 0.2085
vn 0.8103 -0.5477 0.2084
vn 0.8599 -0.4653 0.2100
vn 0.8912 -0.4029 0.2085
vn 0.9465 -0.2464 0.2084
vn 0.9644 -0.1609 0.2100
vn 0.9964 -0.0848 -0.0000
vn 0.9964 0.0848 -0.0000
vn 0.9677 0.2520 -0.0000
vn 0.9112 0.4119 -0.0000
vn 0.8285 0.5600 -0.0000
vn 0.7220 0.6919 -0.0000
vn 0.5946 0.8040 -0.0000
vn 0.4502 0.8929 -0.0000
vn 0.2928 0.9562 -0.0000
vn 0.1270 0.9919 -0.0000
vn -0.0424 0.9991 -0.0000
vn -0.2107 0.9776 -0.0000
vn -0.3729 0.9279 -0.0000
vn -0.5243 0.8515 -0.0000
vn -0.6607 0.7507 -0.0000
vn -0.7780 0.6282 -0.0000
vn -0.8730 0.4877 -0.0000
vn -0.9429 0.3331 -0.0000
vn -0.9856 0.1690 -0.0000
vn -0.9856 -0.1690 -0.0000
vn -0.9429 -0.3331 -0.0000
vn -0.8730 -0.4877 -0.0000
vn -0.7780 -0.6282 -0.0000
vn -0.6607 -0.7507 -0.0000
vn -0.5243 -0.8515 -0.0000
vn -0.3729 -0.9279 -0.0000
vn -0.2107 -0.9776 -0.0000
vn -0.0424 -0.9991 -0.0000
vn 0.1270 -0.9919 -0.0000
vn 0.2928 -0.9562 -0.0000
vn 0.4502 -0.8929 -0.0000
vn 0.5946 -0.8040 -0.0000
vn 0.7220 -0.6919 -0.0000
vn 0.8285 -0.5600 -0.0000
vn 0.9112 -0.4119 -0.0000
vn 0.9677 -0.2520 -0.0000
vn -0.1579 -0.0360 -0.9868
vn -0.1691 -0.0243 -0.9853
vn -0.1691 0.0243 -0.9853
vn -0.4870 0.0700 -0.8706
vn -0.7470 0.1074 -0.6561
vn -0.9202 0.1323 -0.3683
vn -0.1587 -0.0725 -0.9847
vn -0.1278 -0.1019 -0.9865
vn -0.1274 -0.1104 -0.9857
vn -0.0933 -0.1452 -0.9850
vn -0.2660 -0.4139 -0.8706
vn -0.1386 -0.4721 -0.8706
vn -0.2126 -0.7241 -0.6561
vn -0.0000 -0.7547 -0.6561
vn -0.0000 -0.9297 -0.3683
vn 0.2619 -0.8920 -0.3683
vn 0.5026 -0.7821 -0.3683
vn 0.7026 -0.6088 -0.3683
vn 0.8457 -0.3862 -0.3683
vn 0.9202 -0.1323 -0.3683
vn 0.9202 0.1323 -0.3683
vn 0.8457 0.3862 -0.3683
vn 0.7026 0.6088 -0.3683
vn 0.5026 0.7821 -0.3683
vn 0.2619 0.8920 -0.3683
vn -0.0000 0.9297 -0.3683
vn -0.2619 0.8920 -0.3683
vn -0.5026 0.7821 -0.3683
vn -0.7026 0.6088 -0.3683
vn -0.8457 0.3862 -0.3683
vn -0.0699 -0.1452 -0.9869
vn -0.0490 -0.1668 -0.9848
vn -0.0000 -0.4920 -0.8706
vn 0.2126 -0.7241 -0.6561
vn -0.0000 -0.1659 -0.9861
vn 0.1386 -0.4721 -0.8706
vn 0.4080 -0.6349 -0.6561
vn 0.0490 -0.1668 -0.9848
vn 0.0699 -0.1452 -0.9869
vn 0.0933 -0.1452 -0.9850
vn 0.1274 -0.1104 -0.9857
vn 0.3718 -0.3222 -0.8706
vn 0.4476 -0.2044 -0.8706
vn 0.6865 -0.3135 -0.6561
vn 0.7470 -0.1074 -0.6561
vn 0.1278 -0.1019 -0.9865
vn 0.1587 -0.0725 -0.9847
vn 0.4870 -0.0700 -0.8706
vn 0.7470 0.1074 -0.6561
vn 0.1579 -0.0360 -0.9868
vn 0.1691 -0.0243 -0.9853
vn 0.4870 0.0700 -0.8706
vn 0.6865 0.3135 -0.6561
vn 0.1691 0.0243 -0.9853
vn 0.1579 0.0360 -0.9868
vn 0.1587 0.0725 -0.9847
vn 0.1278 0.1019 -0.9865
vn 0.1274 0.1104 -0.9857
vn 0.0933 0.1452 -0.9850
vn 0.2660 0.4139 -0.8706
vn 0.1386 0.4721 -0.8706
vn 0.2126 0.7241 -0.6561
vn -0.0000 0.7547 -0.6561
vn 0.0699 0.1452 -0.9869
vn 0.0490 0.1668 -0.9848
vn -0.0000 0.4920 -0.8706
vn -0.2126 0.7241 -0.6561
vn -0.0000 0.1659 -0.9861
vn -0.1386 0.4721 -0.8706
vn -0.4080 0.6349 -0.6561
vn -0.0490 0.1668 -0.9848
vn -0.0699 0.1452 -0.9869
vn -0.0933 0.1452 -0.9850
vn -0.1274 0.1104 -0.9857
vn -0.3718 0.3222 -0.8706
vn -0.4476 0.2044 -0.8706
vn -0.6865 0.3135 -0.6561
vn -0.1278 0.1019 -0.9865
vn -0.1587 0.0725 -0.9847
vn -0.1579 0.0360 -0.9868
vn -0.2619 -0.8920 -0.3683
vn -0.4080 -0.6349 -0.6561
vn -0.3718 -0.3222 -0.8706
vn -0.5026 -0.7821 -0.3683
vn -0.5703 -0.4942 -0.6561
vn -0.4476 -0.2044 -0.8706
vn -0.7026 -0.6088 -0.3683
vn -0.6865 -0.3135 -0.6561
vn -0.4870 -0.0700 -0.8706
vn -0.8457 -0.3862 -0.3683
vn -0.7470 -0.1074 -0.6561
vn -0.9202 -0.1323 -0.3683
vn 0.2660 -0.4139 -0.8706
vn 0.5703 -0.4942 -0.6561
vn 0.4476 0.2044 -0.8706
vn 0.5703 0.4942 -0.6561
vn 0.3718 0.3222 -0.8706
vn 0.4080 0.6349 -0.6561
vn -0.2660 0.4139 -0.8706
vn -0.5703 0.4942 -0.6561
vn 0.9748 0.0787 -0.2085
vn 0.9748 -0.0787 -0.2085
vn 0.9677 -0.1391 -0.2100
vn 0.9496 -0.2341 -0.2083
vn 0.8997 -0.3833 -0.2088
vn 0.8894 -0.4062 -0.2096
vn 0.8267 -0.5228 -0.2082
vn 0.7390 -0.6403 -0.2094
vn 0.7320 -0.6485 -0.2090
vn 0.6186 -0.7576 -0.2083
vn 0.5286 -0.8225 -0.2099
vn 0.4890 -0.8470 -0.2086
vn 0.3468 -0.9145 -0.2084
vn 0.2754 -0.9381 -0.2101
vn 0.1956 -0.9583 -0.2084
vn 0.0394 -0.9772 -0.2087
vn -0.0000 -0.9777 -0.2098
vn -0.1179 -0.9709 -0.2082
vn -0.2721 -0.9393 -0.2091
vn -0.2755 -0.9383 -0.2092
vn -0.4193 -0.8836 -0.2082
vn -0.5286 -0.8225 -0.2098
vn -0.5555 -0.8049 -0.2088
vn -0.6775 -0.7054 -0.2083
vn -0.7389 -0.6402 -0.2101
vn -0.7819 -0.5875 -0.2085
vn -0.8660 -0.4545 -0.2086
vn -0.8894 -0.4062 -0.2100
vn -0.9277 -0.3097 -0.2083
vn -0.9653 -0.1569 -0.2089
vn -0.9679 -0.1392 -0.2095
vn -0.9781 -0.0000 -0.2082
vn -0.9679 0.1392 -0.2095
vn -0.9653 0.1569 -0.2089
vn -0.9277 0.3097 -0.2083
vn -0.8894 0.4062 -0.2100
vn -0.8660 0.4545 -0.2086
vn -0.7819 0.5875 -0.2085
vn -0.7389 0.6402 -0.2101
vn -0.6775 0.7054 -0.2083
vn -0.5555 0.8049 -0.2088
vn -0.5286 0.8225 -0.2098
vn -0.4193 0.8836 -0.2082
vn -0.2755 0.9383 -0.2092
vn -0.2721 0.9393 -0.2091
vn -0.1179 0.9709 -0.2082
vn -0.0000 0.9777 -0.2098
vn 0.0394 0.9772 -0.2087
vn 0.1956 0.9583 -0.2084
vn 0.2754 0.9381 -0.2101
vn 0.3468 0.9145 -0.2084
vn 0.4890 0.8470 -0.2086
vn 0.5286 0.8225 -0.2099
vn 0.6186 0.7576 -0.2083
vn 0.7320 0.6485 -0.2090
vn 0.7390 0.6403 -0.2094
vn 0.8267 0.5228 -0.2082
vn 0.8894 0.4062 -0.2096
vn 0.8997 0.3833 -0.2088
vn 0.9496 0.2341 -0.2083
vn 0.9677 0.1391 -0.2100
vn 0.9968 -0.0805 -0.0000
vn 0.9968 0.0805 -0.0000
vn 0.9709 0.2393 -0.0000
vn 0.9200 0.3920 -0.0000
vn 0.8452 0.5345 -0.0000
vn 0.7485 0.6631 -0.0000
vn 0.6324 0.7746 -0.0000
vn 0.5000 0.8660 -0.0000
vn 0.3546 0.9350 -0.0000
vn 0.2000 0.9798 -0.0000
vn 0.0403 0.9992 -0.0000
vn -0.1205 0.9927 -0.0000
vn -0.2782 0.9605 -0.0000
vn -0.4287 0.9035 -0.0000
vn -0.5681 0.8230 -0.0000
vn -0.6927 0.7212 -0.0000
vn -0.7994 0.6007 -0.0000
vn -0.8855 0.4647 -0.0000
vn -0.9485 0.3167 -0.0000
vn -0.9871 0.1604 -0.0000
vn -0.9871 -0.1604 -0.0000
vn -0.9485 -0.3167 -0.0000
vn -0.8855 -0.4647 -0.0000
vn -0.7994 -0.6007 -0.0000
vn -0.6927 -0.7212 -0.0000
vn -0.5681 -0.8230 -0.0000
vn -0.4287 -0.9035 -0.0000
vn -0.2782 -0.9605 -0.0000
vn -0.1205 -0.9927 -0.0000
vn 0.0403 -0.9992 -0.0000
vn 0.2000 -0.9798 -0.0000
vn 0.3546 -0.9350 -0.0000
vn 0.5000 -0.8660 -0.0000
vn 0.6324 -0.7746 -0.0000
vn 0.7485 -0.6631 -0.0000
vn 0.8452 -0.5345 -0.0000
vn 0.9200 -0.3920 -0.0000
vn 0.9709 -0.2393 -0.0000
s 0
usemtl Material
f 2//1 44//1 1//1
f 1//2 44//2 45//2
f 1//2 45//2 43//2
f 43//3 45//3 46//3
f 43//3 46//3 42//3
f 42//4 46//4 47//4
f 42//4 47//4 41//4
f 41//5 47//5 48//5
f 41//5 48//5 40//5
f 40//6 48//6 49//6
f 40//6 49//6 39//6
f 39//7 49//7 50//7
f 39//7 50//7 38//7
f 38//8 50//8 51//8
f 38//8 51//8 37//8
f 37//9 51//9 52//9
f 37//9 52//9 36//9
f 36//10 52//10 53//10
f 36//10 53//10 35//10
f 35//11 53//11 54//11
f 35//11 54//11 34//11
f 34//12 54//12 55//12
f 34//12 55//12 33//12
f 33//13 55//13 56//13
f 33//13 56//13 32//13
f 32//14 56//14 57//14
f 32//14 57//14 31//14
f 31//15 57//15 58//15
f 31//15 58//15 30//15
f 30//16 58//16 59//16
f 30//16 59//16 29//16
f 29//17 59//17 60//17
f 29//17 60//17 28//17
f 28//18 60//18 61//18
f 28//18 61//18 27//18
f 27//19 61//19 62//19
f 27//19 62//19 26//19
f 26//20 62//20 63//20
f 26//20 63//20 25//20
f 25//21 63//21 64//21
f 25//21 64//21 24//21
f 24//22 64//22 65//22
f 24//22 65//22 23//22
f 23//23 65//23 66//23
f 23//23 66//23 22//23
f 22//24 66//24 67//24
f 22//24 67//24 21//24
f 21//25 67//25 68//25
f 21//25 68//25 20//25
f 20//26 68//26 69//26
f 20//26 69//26 19//26
f 19//27 69//27 70//27
f 19//27 70//27 18//27
f 18//28 70//28 71//28
f 18//28 71//28 17//28
f 17//29 71//29 72//29
f 17//29 72//29 16//29
f 16//30 72//30 73//30
f 16//30 73//30 15//30
f 15//31 73//31 74//31
f 15//31 74//31 14//31
f 14//32 74//32 75//32
f 14//32 75//32 13//32
f 13//33 75//33 76//33
f 13//33 76//33 12//33
f 12//34 76//34 77//34
f 12//34 77//34 11//34
f 11//35 77//35 78//35
f 11//35 78//35 10//35
f 10//36 78//36 79//36
f 10//36 79//36 9//36
f 9//37 79//37 80//37
f 9//37 80//37 8//37
f 8//38 80//38 81//38
f 8//38 81//38 7//38
f 7//39 81//39 82//39
f 7//39 82//39 6//39
f 6//40 82//40 83//40
f 6//40 83//40 5//40
f 5//41 83//41 84//41
f 5//41 84//41 4//41
f 4//42 84//42 85//42
f 4//42 85//42 3//42
f 3//43 85//43 86//43
f 3//43 86//43 2//43
f 2//1 86//1 44//1
f 2//44 1//44 87//44
f 87//44 1//44 43//44
f 87//44 43//44 125//44
f 125//44 43//44 42//44
f 125//44 42//44 124//44
f 124//44 42//44 41//44
f 124//44 41//44 123//44
f 123//44 41//44 40//44
f 123//44 40//44 122//44
f 122//44 40//44 39//44
f 122//44 39//44 121//44
f 121//44 39//44 38//44
f 121//44 38//44 120//44
f 120//44 38//44 37//44
f 120//44 37//44 119//44
f 119//44 37//44 36//44
f 119//44 36//44 118//44
f 118//44 36//44 35//44
f 118//44 35//44 117//44
f 117//44 35//44 34//44
f 117//44 34//44 116//44
f 116//44 34//44 33//44
f 116//44 33//44 32//44
f 116//44 32//44 115//44
f 115//44 32//44 31//44
f 115//44 31//44 114//44
f 114//44 31//44 30//44
f 114//44 30//44 113//44
f 113//44 30//44 29//44
f 113//44 29//44 112//44
f 112//44 29//44 28//44
f 112//44 28//44 111//44
f 111//44 28//44 27//44
f 111//44 27//44 110//44
f 110//44 27//44 26//44
f 110//44 26//44 109//44
f 109//44 26//44 25//44
f 109//44 25//44 108//44
f 108//44 25//44 24//44
f 108//44 24//44 107//44
f 107//44 24//44 23//44
f 107//44 23//44 106//44
f 106//44 23//44 22//44
f 106//44 22//44 21//44
f 106//44 21//44 105//44
f 105//44 21//44 20//44
f 105//44 20//44 104//44
f 104//44 20//44 19//44
f 104//44 19//44 103//44
f 103//44 19//44 18//44
f 103//44 18//44 102//44
f 102//44 18//44 17//44
f 102//44 17//44 101//44
f 101//44 17//44 16//44
f 101//44 16//44 100//44
f 100//44 16//44 15//44
f 100//44 15//44 99//44
f 99//44 15//44 14//44
f 99//44 14//44 98//44
f 98//44 14//44 13//44
f 98//44 13//44 97//44
f 97//44 13//44 12//44
f 97//44 12//44 11//44
f 97//44 11//44 96//44
f 96//44 11//44 10//44
f 96//44 10//44 95//44
f 95//44 10//44 9//44
f 95//44 9//44 94//44
f 94//44 9//44 8//44
f 94//44 8//44 93//44
f 93//44 8//44 7//44
f 93//44 7//44 92//44
f 92//44 7//44 6//44
f 92//44 6//44 91//44
f 91//44 6//44 5//44
f 91//44 5//44 90//44
f 90//44 5//44 4//44
f 90//44 4//44 89//44
f 89//44 4//44 3//44
f 89//44 3//44 88//44
f 88//44 3//44 2//44
f 88//44 2//44 87//44
f 127//45 165//45 126//45
f 126//46 165//46 159//46
f 126//47 159//47 195//47
f 195//48 159//48 160//48
f 195//48 160//48 196//48
f 196//49 160//49 140//49
f 196//49 140//49 141//49
f 165//50 127//50 167//50
f 167//51 127//51 128//51
f 167//52 128//52 164//52
f 164//53 128//53 129//53
f 164//54 129//54 173//54
f 173//55 129//55 170//55
f 173//56 170//56 171//56
f 171//57 170//57 175//57
f 171//58 175//58 153//58
f 153//59 175//59 152//59
f 152//59 175//59 176//59
f 152//60 176//60 151//60
f 151//60 176//60 179//60
f 151//61 179//61 150//61
f 150//61 179//61 178//61
f 150//62 178//62 149//62
f 149//62 178//62 182//62
f 149//63 182//63 148//63
f 148//63 182//63 184//63
f 148//64 184//64 147//64
f 147//64 184//64 187//64
f 147//65 187//65 146//65
f 146//65 187//65 186//65
f 146//66 186//66 145//66
f 145//66 186//66 189//66
f 145//67 189//67 144//67
f 144//67 189//67 191//67
f 144//68 191//68 143//68
f 143//68 191//68 194//68
f 143//69 194//69 142//69
f 142//69 194//69 193//69
f 142//70 193//70 141//70
f 141//70 193//70 196//70
f 129//71 130//71 170//71
f 170//72 130//72 174//72
f 170//57 174//57 175//57
f 175//73 174//73 176//73
f 130//74 131//74 174//74
f 174//75 131//75 163//75
f 174//73 163//73 176//73
f 176//76 163//76 179//76
f 131//77 132//77 163//77
f 163//78 132//78 180//78
f 163//76 180//76 179//76
f 179//79 180//79 178//79
f 180//80 132//80 177//80
f 177//81 132//81 133//81
f 177//82 133//82 181//82
f 181//83 133//83 134//83
f 181//84 134//84 183//84
f 183//85 134//85 162//85
f 183//86 162//86 187//86
f 187//87 162//87 186//87
f 134//88 135//88 162//88
f 162//89 135//89 185//89
f 162//87 185//87 186//87
f 186//90 185//90 189//90
f 135//91 136//91 185//91
f 185//92 136//92 188//92
f 185//90 188//90 189//90
f 189//93 188//93 191//93
f 136//94 137//94 188//94
f 188//95 137//95 190//95
f 188//93 190//93 191//93
f 191//96 190//96 194//96
f 190//97 137//97 161//97
f 161//98 137//98 138//98
f 161//99 138//99 192//99
f 192//100 138//100 139//100
f 192//101 139//101 195//101
f 195//102 139//102 126//102
f 153//58 154//58 171//58
f 171//103 154//103 172//103
f 171//56 172//56 173//56
f 173//104 172//104 164//104
f 154//103 155//103 172//103
f 172//105 155//105 169//105
f 172//104 169//104 164//104
f 164//106 169//106 167//106
f 155//105 156//105 169//105
f 169//107 156//107 168//107
f 169//106 168//106 167//106
f 167//108 168//108 165//108
f 156//107 157//107 168//107
f 168//109 157//109 166//109
f 168//108 166//108 165//108
f 165//110 166//110 159//110
f 157//109 158//109 166//109
f 166//111 158//111 160//111
f 166//110 160//110 159//110
f 158//111 140//111 160//111
f 182//112 178//112 177//112
f 177//79 178//79 180//79
f 184//113 182//113 181//113
f 181//112 182//112 177//112
f 187//86 184//86 183//86
f 183//113 184//113 181//113
f 192//114 193//114 161//114
f 161//114 193//114 194//114
f 161//96 194//96 190//96
f 195//115 196//115 192//115
f 192//115 196//115 193//115
f 139//116 134//116 126//116
f 126//116 134//116 133//116
f 126//116 133//116 127//116
f 127//116 133//116 132//116
f 127//116 132//116 128//116
f 128//116 132//116 131//116
f 128//116 131//116 129//116
f 129//116 131//116 130//116
f 134//116 139//116 135//116
f 135//116 139//116 138//116
f 135//116 138//116 136//116
f 136//116 138//116 137//116
f 233//117 197//117 140//117
f 140//118 197//118 198//118
f 140//119 198//119 141//119
f 141//120 198//120 199//120
f 141//121 199//121 200//121
f 141//122 200//122 142//122
f 142//123 200//123 201//123
f 142//124 201//124 202//124
f 142//125 202//125 143//125
f 143//126 202//126 203//126
f 143//127 203//127 204//127
f 143//128 204//128 144//128
f 144//129 204//129 205//129
f 144//130 205//130 206//130
f 144//131 206//131 145//131
f 145//132 206//132 207//132
f 145//133 207//133 208//133
f 145//134 208//134 146//134
f 146//135 208//135 209//135
f 146//136 209//136 210//136
f 146//137 210//137 147//137
f 147//138 210//138 211//138
f 147//139 211//139 212//139
f 147//140 212//140 148//140
f 148//141 212//141 213//141
f 148//142 213//142 214//142
f 148//143 214//143 149//143
f 149//144 214//144 215//144
f 149//145 215//145 216//145
f 149//145 216//145 150//145
f 150//146 216//146 217//146
f 150//147 217//147 151//147
f 151//148 217//148 218//148
f 151//149 218//149 219//149
f 151//150 219//150 152//150
f 152//151 219//151 220//151
f 152//152 220//152 221//152
f 152//153 221//153 153//153
f 153//154 221//154 222//154
f 153//155 222//155 223//155
f 153//156 223//156 154//156
f 154//157 223//157 224//157
f 154//158 224//158 225//158
f 154//159 225//159 155//159
f 155//160 225//160 226//160
f 155//161 226//161 227//161
f 155//162 227//162 156//162
f 156//163 227//163 228//163
f 156//164 228//164 229//164
f 156//165 229//165 157//165
f 157//166 229//166 230//166
f 157//167 230//167 231//167
f 157//168 231//168 158//168
f 158//169 231//169 232//169
f 158//170 232//170 233//170
f 158//171 233//171 140//171
f 233//172 272//172 197//172
f 197//172 272//172 271//172
f 197//173 271//173 198//173
f 198//173 271//173 307//173
f 198//174 307//174 199//174
f 199//174 307//174 306//174
f 199//175 306//175 200//175
f 200//175 306//175 305//175
f 200//176 305//176 201//176
f 201//176 305//176 304//176
f 201//177 304//177 202//177
f 202//177 304//177 303//177
f 202//178 303//178 203//178
f 203//178 303//178 302//178
f 203//179 302//179 204//179
f 204//179 302//179 301//179
f 204//180 301//180 205//180
f 205//180 301//180 300//180
f 205//181 300//181 206//181
f 206//181 300//181 299//181
f 206//182 299//182 207//182
f 207//182 299//182 298//182
f 207//183 298//183 208//183
f 208//183 298//183 297//183
f 208//184 297//184 209//184
f 209//184 297//184 296//184
f 209//185 296//185 210//185
f 210//185 296//185 295//185
f 210//186 295//186 211//186
f 211//186 295//186 294//186
f 211//187 294//187 212//187
f 212//187 294//187 293//187
f 212//188 293//188 213//188
f 213//188 293//188 292//188
f 213//189 292//189 214//189
f 214//189 292//189 291//189
f 214//190 291//190 215//190
f 215//190 291//190 290//190
f 215//23 290//23 216//23
f 216//23 290//23 289//23
f 216//191 289//191 217//191
f 217//191 289//191 288//191
f 217//192 288//192 218//192
f 218//192 288//192 287//192
f 218//193 287//193 219//193
f 219//193 287//193 286//193
f 219//194 286//194 220//194
f 220//194 286//194 285//194
f 220//195 285//195 221//195
f 221//195 285//195 284//195
f 221//196 284//196 222//196
f 222//196 284//196 283//196
f 222//197 283//197 223//197
f 223//197 283//197 282//197
f 223//198 282//198 224//198
f 224//198 282//198 281//198
f 224//199 281//199 225//199
f 225//199 281//199 280//199
f 225//200 280//200 226//200
f 226//200 280//200 279//200
f 226//201 279//201 227//201
f 227//201 279//201 278//201
f 227//202 278//202 228//202
f 228//202 278//202 277//202
f 228//203 277//203 229//203
f 229//203 277//203 276//203
f 229//204 276//204 230//204
f 230//204 276//204 275//204
f 230//205 275//205 231//205
f 231//205 275//205 274//205
f 231//206 274//206 232//206
f 232//206 274//206 273//206
f 232//207 273//207 233//207
f 233//207 273//207 272//207
f 235//173 307//173 234//173
f 234//173 307//173 271//173
f 234//172 271//172 270//172
f 270//172 271//172 272//172
f 270//207 272//207 269//207
f 269//207 272//207 273//207
f 269//206 273//206 268//206
f 268//206 273//206 274//206
f 268//205 274//205 267//205
f 267//205 274//205 275//205
f 267//204 275//204 266//204
f 266//204 275//204 276//204
f 266//203 276//203 265//203
f 265//203 276//203 277//203
f 265//202 277//202 264//202
f 264//202 277//202 278//202
f 264//201 278//201 263//201
f 263//201 278//201 279//201
f 263//200 279//200 262//200
f 262//200 279//200 280//200
f 262//199 280//199 261//199
f 261//199 280//199 281//199
f 261//198 281//198 260//198
f 260//198 281//198 282//198
f 260//197 282//197 259//197
f 259//197 282//197 283//197
f 259//196 283//196 258//196
f 258//196 283//196 284//196
f 258//195 284//195 257//195
f 257//195 284//195 285//195
f 257//194 285//194 256//194
f 256//194 285//194 286//194
f 256//193 286//193 255//193
f 255//193 286//193 287//193
f 255//192 287//192 254//192
f 254//192 287//192 288//192
f 254//191 288//191 253//191
f 253//191 288//191 289//191
f 253//23 289//23 252//23
f 252//23 289//23 290//23
f 252//190 290//190 251//190
f 251//190 290//190 291//190
f 251//189 291//189 250//189
f 250//189 291//189 292//189
f 250//188 292//188 249//188
f 249//188 292//188 293//188
f 249//187 293//187 248//187
f 248//187 293//187 294//187
f 248//186 294//186 247//186
f 247//186 294//186 295//186
f 247//185 295//185 246//185
f 246//185 295//185 296//185
f 246//184 296//184 245//184
f 245//184 296//184 297//184
f 245//183 297//183 244//183
f 244//183 297//183 298//183
f 244//182 298//182 243//182
f 243//182 298//182 299//182
f 243//181 299//181 242//181
f 242//181 299//181 300//181
f 242//180 300//180 241//180
f 241//180 300//180 301//180
f 241//179 301//179 240//179
f 240//179 301//179 302//179
f 240//178 302//178 239//178
f 239//178 302//178 303//178
f 239//177 303//177 238//177
f 238//177 303//177 304//177
f 238//176 304//176 237//176
f 237//176 304//176 305//176
f 237//175 305//175 236//175
f 236//175 305//175 306//175
f 236//174 306//174 235//174
f 235//174 306//174 307//174
f 309//208 353//208 308//208
f 308//209 353//209 344//209
f 308//210 344//210 405//210
f 405//211 344//211 345//211
f 405//211 345//211 406//211
f 406//212 345//212 346//212
f 406//212 346//212 407//212
f 407//213 346//213 322//213
f 407//213 322//213 323//213
f 353//214 309//214 347//214
f 347//215 309//215 310//215
f 347//216 310//216 363//216
f 363//217 310//217 358//217
f 363//218 358//218 359//218
f 359//219 358//219 364//219
f 359//220 364//220 365//220
f 365//221 364//221 369//221
f 365//222 369//222 338//222
f 338//223 369//223 337//223
f 337//223 369//223 368//223
f 337//224 368//224 336//224
f 336//224 368//224 374//224
f 336//225 374//225 335//225
f 335//225 374//225 378//225
f 335//226 378//226 334//226
f 334//226 378//226 377//226
f 334//227 377//227 333//227
f 333//227 377//227 383//227
f 333//228 383//228 332//228
f 332//228 383//228 382//228
f 332//229 382//229 331//229
f 331//229 382//229 387//229
f 331//230 387//230 330//230
f 330//230 387//230 391//230
f 330//231 391//231 329//231
f 329//231 391//231 390//231
f 329//232 390//232 328//232
f 328//232 390//232 395//232
f 328//233 395//233 327//233
f 327//233 395//233 399//233
f 327//234 399//234 326//234
f 326//234 399//234 398//234
f 326//235 398//235 325//235
f 325//235 398//235 404//235
f 325//236 404//236 324//236
f 324//236 404//236 408//236
f 324//237 408//237 323//237
f 323//237 408//237 407//237
f 310//238 311//238 358//238
f 358//239 311//239 348//239
f 358//219 348//219 364//219
f 364//240 348//240 370//240
f 364//221 370//221 369//221
f 369//241 370//241 368//241
f 311//242 312//242 348//242
f 348//242 312//242 371//242
f 348//240 371//240 370//240
f 370//243 371//243 367//243
f 370//241 367//241 368//241
f 368//244 367//244 374//244
f 371//245 312//245 366//245
f 366//246 312//246 313//246
f 366//247 313//247 372//247
f 372//248 313//248 349//248
f 372//249 349//249 379//249
f 379//250 349//250 376//250
f 379//251 376//251 377//251
f 377//252 376//252 383//252
f 313//253 314//253 349//253
f 349//254 314//254 375//254
f 349//250 375//250 376//250
f 376//255 375//255 384//255
f 376//252 384//252 383//252
f 383//256 384//256 382//256
f 314//257 315//257 375//257
f 375//258 315//258 385//258
f 375//255 385//255 384//255
f 384//259 385//259 381//259
f 384//256 381//256 382//256
f 382//260 381//260 387//260
f 385//261 315//261 380//261
f 380//262 315//262 316//262
f 380//263 316//263 350//263
f 350//264 316//264 317//264
f 350//265 317//265 393//265
f 393//266 317//266 388//266
f 393//267 388//267 389//267
f 389//268 388//268 394//268
f 389//269 394//269 395//269
f 395//270 394//270 399//270
f 317//271 318//271 388//271
f 388//272 318//272 351//272
f 388//268 351//268 394//268
f 394//273 351//273 400//273
f 394//270 400//270 399//270
f 399//274 400//274 398//274
f 318//275 319//275 351//275
f 351//275 319//275 401//275
f 351//273 401//273 400//273
f 400//276 401//276 397//276
f 400//274 397//274 398//274
f 398//277 397//277 404//277
f 401//278 319//278 396//278
f 396//279 319//279 320//279
f 396//280 320//280 402//280
f 402//281 320//281 352//281
f 402//282 352//282 409//282
f 409//283 352//283 406//283
f 409//284 406//284 407//284
f 320//285 321//285 352//285
f 352//286 321//286 405//286
f 352//283 405//283 406//283
f 321//287 308//287 405//287
f 338//222 339//222 365//222
f 365//288 339//288 360//288
f 365//220 360//220 359//220
f 359//289 360//289 362//289
f 359//218 362//218 363//218
f 363//290 362//290 347//290
f 339//288 340//288 360//288
f 360//291 340//291 361//291
f 360//289 361//289 362//289
f 362//292 361//292 356//292
f 362//290 356//290 347//290
f 347//293 356//293 353//293
f 340//291 341//291 361//291
f 361//294 341//294 357//294
f 361//292 357//292 356//292
f 356//295 357//295 354//295
f 356//293 354//293 353//293
f 353//296 354//296 344//296
f 341//294 342//294 357//294
f 357//297 342//297 355//297
f 357//295 355//295 354//295
f 354//298 355//298 345//298
f 354//296 345//296 344//296
f 342//297 343//297 355//297
f 355//299 343//299 346//299
f 355//298 346//298 345//298
f 343//299 322//299 346//299
f 371//243 366//243 367//243
f 367//300 366//300 373//300
f 367//244 373//244 374//244
f 374//301 373//301 378//301
f 366//300 372//300 373//300
f 373//249 372//249 379//249
f 373//301 379//301 378//301
f 378//251 379//251 377//251
f 385//259 380//259 381//259
f 381//302 380//302 386//302
f 381//260 386//260 387//260
f 387//303 386//303 391//303
f 380//302 350//302 386//302
f 386//304 350//304 392//304
f 386//303 392//303 391//303
f 391//305 392//305 390//305
f 393//267 389//267 392//267
f 392//305 389//305 390//305
f 390//269 389//269 395//269
f 350//304 393//304 392//304
f 401//276 396//276 397//276
f 397//306 396//306 403//306
f 397//277 403//277 404//277
f 404//307 403//307 408//307
f 396//306 402//306 403//306
f 403//282 402//282 409//282
f 403//307 409//307 408//307
f 408//284 409//284 407//284
f 321//44 316//44 308//44
f 308//44 316//44 315//44
f 308//44 315//44 309//44
f 309//44 315//44 314//44
f 309//44 314//44 310//44
f 310//44 314//44 313//44
f 310//44 313//44 311//44
f 311//44 313//44 312//44
f 316//44 321//44 317//44
f 317//44 321//44 320//44
f 317//44 320//44 318//44
f 318//44 320//44 319//44
f 448//308 410//308 333//308
f 333//309 410//309 411//309
f 333//310 411//310 334//310
f 334//311 411//311 412//311
f 334//312 412//312 413//312
f 334//313 413//313 335//313
f 335//314 413//314 414//314
f 335//315 414//315 336//315
f 336//316 414//316 415//316
f 336//317 415//317 416//317
f 336//318 416//318 337//318
f 337//319 416//319 417//319
f 337//320 417//320 418//320
f 337//321 418//321 338//321
f 338//322 418//322 419//322
f 338//323 419//323 420//323
f 338//324 420//324 339//324
f 339//325 420//325 421//325
f 339//326 421//326 422//326
f 339//327 422//327 340//327
f 340//328 422//328 423//328
f 340//329 423//329 341//329
f 341//330 423//330 424//330
f 341//331 424//331 425//331
f 341//332 425//332 342//332
f 342//333 425//333 426//333
f 342//334 426//334 427//334
f 342//335 427//335 343//335
f 343//336 427//336 428//336
f 343//337 428//337 429//337
f 343//338 429//338 322//338
f 322//339 429//339 430//339
f 322//340 430//340 323//340
f 323//341 430//341 431//341
f 323//342 431//342 432//342
f 323//343 432//343 324//343
f 324//344 432//344 433//344
f 324//345 433//345 434//345
f 324//346 434//346 325//346
f 325//347 434//347 435//347
f 325//348 435//348 436//348
f 325//349 436//349 326//349
f 326//350 436//350 437//350
f 326//351 437//351 327//351
f 327//352 437//352 438//352
f 327//353 438//353 439//353
f 327//354 439//354 328//354
f 328//355 439//355 440//355
f 328//356 440//356 441//356
f 328//357 441//357 329//357
f 329//358 441//358 442//358
f 329//359 442//359 443//359
f 329//360 443//360 330//360
f 330//361 443//361 444//361
f 330//362 444//362 445//362
f 330//363 445//363 331//363
f 331//364 445//364 446//364
f 331//365 446//365 332//365
f 332//366 446//366 447//366
f 332//367 447//367 448//367
f 332//368 448//368 333//368
f 125//369 410//369 87//369
f 87//370 410//370 448//370
f 87//370 448//370 88//370
f 88//371 448//371 447//371
f 88//371 447//371 89//371
f 89//372 447//372 446//372
f 89//372 446//372 90//372
f 90//373 446//373 445//373
f 90//373 445//373 91//373
f 91//374 445//374 444//374
f 91//374 444//374 92//374
f 92//375 444//375 443//375
f 92//375 443//375 93//375
f 93//376 443//376 442//376
f 93//376 442//376 94//376
f 94//377 442//377 441//377
f 94//377 441//377 95//377
f 95//378 441//378 440//378
f 95//378 440//378 96//378
f 96//379 440//379 439//379
f 96//379 439//379 97//379
f 97//380 439//380 438//380
f 97//380 438//380 98//380
f 98//381 438//381 437//381
f 98//381 437//381 99//381
f 99//382 437//382 436//382
f 99//382 436//382 100//382
f 100//383 436//383 435//383
f 100//383 435//383 101//383
f 101//384 435//384 434//384
f 101//384 434//384 102//384
f 102//385 434//385 433//385
f 102//385 433//385 103//385
f 103//386 433//386 432//386
f 103//386 432//386 104//386
f 104//387 432//387 431//387
f 104//387 431//387 105//387
f 105//388 431//388 430//388
f 105//388 430//388 106//388
f 106//23 430//23 429//23
f 106//23 429//23 107//23
f 107//389 429//389 428//389
f 107//389 428//389 108//389
f 108//390 428//390 427//390
f 108//390 427//390 109//390
f 109//391 427//391 426//391
f 109//391 426//391 110//391
f 110//392 426//392 425//392
f 110//392 425//392 111//392
f 111//393 425//393 424//393
f 111//393 424//393 112//393
f 112//394 424//394 423//394
f 112//394 423//394 113//394
f 113//395 423//395 422//395
f 113//395 422//395 114//395
f 114//396 422//396 421//396
f 114//396 421//396 115//396
f 115//397 421//397 420//397
f 115//397 420//397 116//397
f 116//398 420//398 419//398
f 116//398 419//398 117//398
f 117//399 419//399 418//399
f 117//399 418//399 118//399
f 118//400 418//400 417//400
f 118//400 417//400 119//400
f 119//401 417//401 416//401
f 119//401 416//401 120//401
f 120//402 416//402 415//402
f 120//402 415//402 121//402
f 121//403 415//403 414//403
f 121//403 414//403 122//403
f 122//404 414//404 413//404
f 122//404 413//404 123//404
f 123//405 413//405 412//405
f 123//405 412//405 124//405
f 124//406 412//406 411//406
f 124//406 411//406 125//406
f 125//369 411//369 410//369
f 86//116 253//116 44//116
f 44//116 253//116 252//116
f 44//116 252//116 45//116
f 45//116 252//116 251//116
f 45//116 251//116 46//116
f 46//116 251//116 250//116
f 46//116 250//116 47//116
f 47//116 250//116 249//116
f 47//116 249//116 48//116
f 48//116 249//116 49//116
f 49//116 249//116 248//116
f 49//116 248//116 50//116
f 50//116 248//116 247//116
f 50//116 247//116 51//116
f 51//116 247//116 246//116
f 51//116 246//116 52//116
f 52//116 246//116 245//116
f 52//116 245//116 53//116
f 53//116 245//116 244//116
f 53//116 244//116 54//116
f 54//116 244//116 243//116
f 54//116 243//116 55//116
f 55//116 243//116 56//116
f 56//116 243//116 242//116
f 56//116 242//116 57//116
f 57//116 242//116 241//116
f 57//116 241//116 58//116
f 58//116 241//116 240//116
f 58//116 240//116 59//116
f 59//116 240//116 239//116
f 59//116 239//116 60//116
f 60//116 239//116 238//116
f 60//116 238//116 61//116
f 61//116 238//116 237//116
f 61//116 237//116 62//116
f 62//116 237//116 63//116
f 63//116 237//116 236//116
f 63//116 236//116 64//116
f 64//116 236//116 235//116
f 64//116 235//116 65//116
f 65//116 235//116 234//116
f 65//116 234//116 66//116
f 66//116 234//116 270//116
f 66//116 270//116 67//116
f 67//116 270//116 269//116
f 67//116 269//116 68//116
f 68//116 269//116 268//116
f 68//116 268//116 69//116
f 69//116 268//116 70//116
f 70//116 268//116 267//116
f 70//116 267//116 71//116
f 71//116 267//116 266//116
f 71//116 266//116 72//116
f 72//116 266//116 265//116
f 72//116 265//116 73//116
f 73//116 265//116 264//116
f 73//116 264//116 74//116
f 74//116 264//116 263//116
f 74//116 263//116 75//116
f 75//116 263//116 262//116
f 75//116 262//116 76//116
f 76//116 262//116 77//116
f 77//116 262//116 261//116
f 77//116 261//116 78//116
f 78//116 261//116 260//116
f 78//116 260//116 79//116
f 79//116 260//116 259//116
f 79//116 259//116 80//116
f 80//116 259//116 258//116
f 80//116 258//116 81//116
f 81//116 258//116 257//116
f 81//116 257//116 82//116
f 82//116 257//116 256//116
f 82//116 256//116 83//116
f 83//116 256//116 84//116
f 84//116 256//116 255//116
f 84//116 255//116 85//116
f 85//116 255//116 254//116
f 85//116 254//116 86//116
f 86//116 254//116 253//116
